<?xml version="1.0" encoding="utf-8"?>
<!-- Generator: Adobe Illustrator 21.1.0, SVG Export Plug-In . SVG Version: 6.00 Build 0)  -->
<svg version="1.1" id="Capa_1" xmlns="http://www.w3.org/2000/svg" xmlns:xlink="http://www.w3.org/1999/xlink" x="0px" y="0px"
	 viewBox="0 0 512 512" style="enable-background:new 0 0 512 512;" xml:space="preserve">
<style type="text/css">
	.st0{fill:#FFFFFF;}
</style>
<g>
	<g>
		<path class="st0" d="M509.1,75.6c-3.9-3.9-10.2-3.9-14.1,0c-20.4,20.4-35.7,46.5-44,75.2c-0.5,1.9-1.1,3.8-1.8,5.7
			c-10.3,31-28.5,53.6-29.3,54.6c-0.3,0.4-0.6,0.7-0.9,1.1c-4.9,4.9-12.5,5.2-17.9,0.9c-2.5-2-4-4.7-4.6-7.6c0-0.1,0-0.1-0.1-0.2
			c-0.8-3.8,0.1-7.9,2.7-11.1c0.2-0.2,15.2-18.9,23.9-43.7c11.9-33.9,6.7-63.3-15-85c-9.8-9.8-22.6-15.3-36.1-15.7
			c-13.7-0.4-26.5,4.7-36,14.2c-9.7,9.7-14.8,22.9-14.2,37c0.3,7.4-5.4,13.6-12.8,14c-7.4,0.3-13.6-5.4-14-12.8
			c-0.9-21.4,7.1-42.2,22-57.1c20.4-20.4,50.6-27.3,78.7-17.9c15.2,5.1,31.5,1.2,42.7-9.9c3.9-3.9,3.9-10.2,0-14.1
			c-3.9-3.9-10.2-3.9-14.1,0c-5.8,5.8-14.3,7.8-22.3,5.1C366.6-3.7,328.6,5,302.8,30.8c-18.9,18.9-29,45.1-27.8,72.1
			c0.4,8.1,3.6,15.4,8.7,21l-13.8,13.8c-1.3-2.3-2.9-4.3-4.8-6.2l-0.6-0.6c-11.9-11.9-31.4-11.9-43.3,0c-11.9,11.9-11.9,31.4,0,43.3
			l0.6,0.6c1.9,1.9,3.9,3.5,6.2,4.8l-16.9,16.9c-2.7,2.7-4.4,5.9-5.3,9.4c-3.4,0.9-6.7,2.6-9.4,5.3L179.6,228
			c-1.3-2.3-2.9-4.3-4.8-6.2l-0.6-0.6c-11.9-11.9-31.4-11.9-43.3,0c-11.9,11.9-11.9,31.4,0,43.3l0.6,0.6c1.9,1.9,3.9,3.5,6.2,4.8
			l-13.8,13.8c-5.6-5.1-12.9-8.3-21-8.7c-27-1.2-53.2,9-72.1,27.8C5,328.6-3.7,366.6,8,401.9c2.6,7.9,0.7,16.5-5.1,22.3
			c-3.9,3.9-3.9,10.2,0,14.1c3.9,3.9,10.2,3.9,14.1,0c11.2-11.2,15-27.6,9.9-42.7c-9.4-28.1-2.5-58.3,17.9-78.7
			c14.9-14.9,35.7-22.9,57.1-22c7.4,0.3,13.1,6.6,12.8,14c-0.3,7.4-6.6,13.1-14,12.8c-14.1-0.6-27.2,4.4-37,14.1
			c-19.5,19.5-18.8,51.8,1.5,72.1c15.7,15.7,33.5,21.2,50.8,21.2c40.2,0,77.4-29.7,77.9-30.1c5.7-4.7,14.2-3.8,18.8,2
			c4.3,5.3,3.9,13-0.9,17.9c-0.3,0.3-0.7,0.7-1.1,1c-0.9,0.8-23.6,19-54.6,29.3c-1.9,0.6-3.8,1.2-5.7,1.8
			c-28.8,8.4-54.8,23.6-75.2,44c-3.9,3.9-3.9,10.2,0,14.1c2,2,4.5,2.9,7.1,2.9c2.6,0,5.1-1,7.1-2.9c18.1-18.1,41.1-31.5,66.7-39
			c2.1-0.6,4.3-1.3,6.4-2c34.4-11.5,59.8-31.9,60.8-32.7c0.9-0.7,1.8-1.5,2.6-2.3c12.1-12.1,13.1-31.3,2.3-44.6
			c-0.1-0.1-0.1-0.2-0.2-0.3l13.8-13.8c1.3,2.3,2.9,4.3,4.8,6.2l0.6,0.6c11.9,11.9,31.4,11.9,43.3,0c11.9-11.9,11.9-31.4,0-43.3
			l-0.6-0.6c-1.9-1.9-3.9-3.5-6.2-4.8l16.9-16.9c2.7-2.7,4.4-5.9,5.3-9.4c3.4-0.9,6.7-2.6,9.4-5.3l22-22c3.8-3.8,5.3-9.4,3.9-14.5
			c-1.4-5.2-5.4-9.2-10.6-10.6c-1.8-0.5-3.4-1.4-4.7-2.7l-0.6-0.6c-4.1-4.1-4.1-10.9,0-15c4.1-4.1,10.9-4.1,15,0l0.6,0.6
			c1.3,1.3,2.3,2.9,2.7,4.7c1.4,5.1,5.4,9.2,10.6,10.6c5.2,1.4,10.8-0.1,14.5-3.9l19-19c0.1,0.1,0.2,0.2,0.3,0.2
			c6.2,5,13.6,7.5,21.1,7.5c8.6,0,17.1-3.3,23.6-9.8c0.8-0.8,1.6-1.7,2.3-2.6c0.9-1.1,21.3-26.5,32.7-60.8c0.7-2.2,1.4-4.3,2-6.4
			c7.4-25.5,20.9-48.6,39-66.7C513,85.8,513,79.5,509.1,75.6z M181.6,383.5c-0.6,0.5-62.8,49.5-102,10.3C67,381.3,66.3,361.6,78,350
			c5.7-5.7,13.6-8.7,21.9-8.3c12.8,0.6,24.3-6.2,30.4-16.6l7.4,7.4c-2.3,1.3-4.4,2.9-6.3,4.8l-0.6,0.6c-5.8,5.8-9,13.5-9,21.6
			c0,8.2,3.2,15.9,9,21.6c11.9,11.9,31.4,11.9,43.3,0l0.6-0.6c1.9-1.9,3.5-4,4.8-6.3l6.3,6.3C184.4,381.4,182.9,382.4,181.6,383.5z
			 M286.7,301.4l-22,22c-3.8,3.8-5.3,9.4-3.9,14.5c1.4,5.2,5.4,9.2,10.6,10.6c1.8,0.5,3.4,1.4,4.7,2.7l0.6,0.6
			c4.1,4.1,4.1,10.9,0,15c-4.1,4.1-10.9,4.1-15,0l-0.6-0.6c-1.3-1.3-2.3-2.9-2.7-4.7c-1.4-5.1-5.4-9.2-10.6-10.6
			c-5.2-1.4-10.8,0.1-14.5,3.9l-22,22c-0.1,0.1-0.2,0.1-0.2,0.1c0,0-0.1,0-0.1,0c-0.1,0-0.1,0-0.2-0.1l-22.1-22.1
			c-2.9-2.9-6.7-4.4-10.7-4.4c-1.3,0-2.6,0.2-3.9,0.5c-5.2,1.4-9.2,5.5-10.6,10.6c-0.5,1.8-1.4,3.4-2.8,4.8L160,367
			c-4.1,4.1-10.9,4.1-15,0c-2-2-3.1-4.7-3.1-7.5c0-2.8,1.1-5.5,3.1-7.5l0.6-0.6c1.3-1.3,2.9-2.3,4.8-2.7c5.2-1.4,9.2-5.4,10.6-10.6
			c1.4-5.2-0.1-10.8-3.9-14.6L135,301.4c-0.1-0.1-0.1-0.4,0-0.5l22-22c0,0,0,0,0,0c3.8-3.8,5.3-9.4,3.9-14.5
			c-1.4-5.2-5.4-9.2-10.6-10.6c-1.8-0.5-3.4-1.4-4.7-2.7l-0.6-0.6c-2-2-3.1-4.7-3.1-7.5c0-2.8,1.1-5.5,3.1-7.5s4.7-3.1,7.5-3.1
			c2.8,0,5.5,1.1,7.5,3.1l0.6,0.6c1.3,1.3,2.3,2.9,2.7,4.7c1.4,5.1,5.4,9.2,10.6,10.6c5.2,1.4,10.8-0.1,14.5-3.9l22-22
			c0.1-0.1,0.4-0.1,0.5,0l16.6,16.6c-1.8,1.2-3.5,2.5-5,4.1l-0.6,0.6c-11.9,11.9-11.9,31.4,0,43.3c5.8,5.8,13.5,9,21.6,9
			c8.2,0,15.9-3.2,21.6-9l0.6-0.6c1.5-1.5,2.9-3.2,4.1-5l16.6,16.6C286.9,301,286.9,301.2,286.7,301.4z M377,211.1L360.2,228
			c-1.3-2.3-2.9-4.3-4.8-6.2l-0.6-0.6c-11.9-11.9-31.4-11.9-43.3,0c-11.9,11.9-11.9,31.4,0,43.3l0.6,0.6c1.9,1.9,3.9,3.5,6.2,4.8
			l-16.9,16.9c-0.1,0.1-0.4,0.1-0.5,0l-21.6-21.6c-3.7-3.7-9-5.2-14.1-4c-5.1,1.2-9.1,4.9-10.8,9.8c-0.5,1.6-1.4,2.9-2.6,4.1
			l-0.6,0.6c-4.1,4.1-10.9,4.1-15,0c-4.1-4.1-4.1-10.9,0-15l0.6-0.6c1.2-1.2,2.6-2,4.1-2.6c5-1.7,8.6-5.7,9.8-10.8
			c1.2-5.1-0.3-10.4-4-14.1l-21.5-21.5c-0.1-0.1-0.1-0.4,0-0.5l22-22c3.8-3.8,5.3-9.4,3.9-14.5c-1.4-5.2-5.4-9.2-10.6-10.6
			c-1.8-0.5-3.4-1.4-4.7-2.7l-0.6-0.6c-4.1-4.1-4.1-10.9,0-15c4.1-4.1,10.9-4.1,15,0l0.6,0.6c1.3,1.3,2.3,2.9,2.7,4.7
			c1.4,5.1,5.4,9.2,10.6,10.6c5.2,1.4,10.8-0.1,14.5-3.9l22-22c0.1-0.1,0.4-0.1,0.5,0l21.5,21.5c3.7,3.7,9,5.2,14.1,4
			c5.1-1.2,9.1-4.9,10.8-9.8c0.5-1.6,1.4-2.9,2.6-4.1l0.6-0.6c2-2,4.7-3.1,7.5-3.1c2.8,0,5.5,1.1,7.5,3.1c2,2,3.1,4.7,3.1,7.5
			c0,2.8-1.1,5.5-3.1,7.5l-0.6,0.6c-1.2,1.2-2.6,2-4.1,2.6c-5,1.7-8.6,5.7-9.8,10.8c-1.2,5.1,0.3,10.4,4,14.1l21.6,21.6
			c0,0,0,0.1,0.1,0.1c0,0.1,0,0.1,0,0.2C377.1,211,377.1,211.1,377,211.1z M383.5,181.5c-1.1,1.4-2.1,2.8-3,4.3l-6-6
			c1.8-1.2,3.5-2.5,5-4.1l0.6-0.6c11.9-11.9,11.9-31.4,0-43.3c-5.8-5.8-13.5-9-21.6-9s-15.9,3.2-21.6,9l-0.6,0.6
			c-1.5,1.5-2.9,3.2-4.1,5l-7.1-7.1c10.4-6,17.2-17.5,16.6-30.3c-0.4-8.4,2.6-16.2,8.3-21.9c5.6-5.6,13.2-8.5,21.4-8.3
			c8.4,0.2,16.4,3.7,22.5,9.8C433,118.7,384,180.9,383.5,181.5z"/>
	</g>
</g>
<g>
	<g>
		<path class="st0" d="M127.7,113.5L90.4,76.3c-3.9-3.9-10.2-3.9-14.1,0c-3.9,3.9-3.9,10.2,0,14.1l37.3,37.3c2,2,4.5,2.9,7.1,2.9
			s5.1-1,7.1-2.9C131.6,123.8,131.6,117.4,127.7,113.5z"/>
	</g>
</g>
<g>
	<g>
		<path class="st0" d="M152.8,138.7c-1.9-1.9-4.4-2.9-7.1-2.9c-2.6,0-5.2,1.1-7.1,2.9s-2.9,4.4-2.9,7.1c0,2.6,1.1,5.2,2.9,7.1
			c1.9,1.9,4.4,2.9,7.1,2.9s5.2-1.1,7.1-2.9c1.9-1.9,2.9-4.4,2.9-7.1S154.7,140.5,152.8,138.7z"/>
	</g>
</g>
<g>
	<g>
		<path class="st0" d="M95,164.9C95,164.9,95,164.9,95,164.9l-30,0c-5.5,0-10,4.5-10,10c0,5.5,4.5,10,10,10c0,0,0,0,0,0l30,0
			c5.5,0,10-4.5,10-10C105,169.4,100.6,164.9,95,164.9z"/>
	</g>
</g>
<g>
	<g>
		<path class="st0" d="M185,65.1c0-5.5-4.5-10-10-10c0,0,0,0,0,0c-5.5,0-10,4.5-10,10l0,31.9c0,5.5,4.5,10,10,10c0,0,0,0,0,0
			c5.5,0,10-4.5,10-10L185,65.1z"/>
	</g>
</g>
<g>
	<g>
		<path class="st0" d="M435.8,421.6l-37.3-37.3c-3.9-3.9-10.2-3.9-14.1,0c-3.9,3.9-3.9,10.2,0,14.1l37.3,37.3c2,2,4.5,2.9,7.1,2.9
			s5.1-1,7.1-2.9C439.7,431.8,439.7,425.5,435.8,421.6z"/>
	</g>
</g>
<g>
	<g>
		<path class="st0" d="M372.1,357.9c-1.9-1.9-4.4-2.9-7.1-2.9s-5.2,1.1-7.1,2.9c-1.9,1.9-2.9,4.4-2.9,7.1s1.1,5.2,2.9,7.1
			c1.9,1.9,4.4,2.9,7.1,2.9s5.2-1.1,7.1-2.9c1.9-1.9,2.9-4.4,2.9-7.1S373.9,359.8,372.1,357.9z"/>
	</g>
</g>
<g>
	<g>
		<path class="st0" d="M446.9,327C446.9,327,446.9,327,446.9,327l-30,0c-5.5,0-10,4.5-10,10c0,5.5,4.5,10,10,10c0,0,0,0,0,0l30,0
			c5.5,0,10-4.5,10-10C456.9,331.5,452.4,327,446.9,327z"/>
	</g>
</g>
<g>
	<g>
		<path class="st0" d="M347,415c0-5.5-4.5-10-10-10c0,0,0,0,0,0c-5.5,0-10,4.5-10,10l0,31.9c0,5.5,4.5,10,10,10c0,0,0,0,0,0
			c5.5,0,10-4.5,10-10L347,415z"/>
	</g>
</g>
</svg>
