<?xml version="1.0" encoding="utf-8"?>
<!-- Generator: Adobe Illustrator 21.1.0, SVG Export Plug-In . SVG Version: 6.00 Build 0)  -->
<svg version="1.1" id="Capa_1" xmlns="http://www.w3.org/2000/svg" xmlns:xlink="http://www.w3.org/1999/xlink" x="0px" y="0px"
	 viewBox="0 0 496 496" style="enable-background:new 0 0 496 496;" xml:space="preserve">
<style type="text/css">
	.st0{fill:#FFFFFF;}
</style>
<path class="st0" d="M248,160c30.9,0,56-25.1,56-56s-25.1-56-56-56s-56,25.1-56,56S217.1,160,248,160z M248,64c22.1,0,40,17.9,40,40
	c0,19.3-13.8,35.5-32,39.2V112h-16v31.2c-18.2-3.7-32-19.9-32-39.2C208,81.9,225.9,64,248,64z"/>
<path class="st0" d="M240,80h16v16h-16V80z"/>
<path class="st0" d="M464.7,378.6l-40.7-9v-11.7c14.5-10.1,24-26.9,24-45.9v-16c0-28.2-20.9-51.5-48-55.4v-38.1L326.1,173l11.4-11.4
	l-11.4-17.1c2.3-4.4,4.2-9.1,5.7-13.9l20.2-4.1V81.4l-20.2-4c-1.5-4.8-3.4-9.4-5.7-13.9l11.4-17.1l-31.9-31.9l-17.1,11.4
	c-4.4-2.3-9.1-4.2-13.9-5.7L270.6,0h-45.1l-4,20.2c-4.8,1.5-9.4,3.4-13.9,5.7l-17.1-11.4l-31.9,31.9l11.4,17.1
	c-2.3,4.4-4.2,9.1-5.7,13.9L144,81.4v45.1l20.2,4c1.5,4.8,3.4,9.4,5.7,13.9l-11.4,17.1l11.4,11.4L96,202.6v38.1
	c-27.1,3.9-48,27.2-48,55.4v16c0,19,9.5,35.8,24,45.9v11.7l-40.7,9C12.9,382.7,0,398.8,0,417.7V496h496v-78.3
	C496,398.8,483.1,382.7,464.7,378.6z M408,373.8c-2,3.1-7.5,10.2-16,10.2s-14-7.1-16-10.2v-8.2c5.1,1.5,10.4,2.4,16,2.4
	s10.9-0.8,16-2.4V373.8z M432,296v16c0,22.1-17.9,40-40,40s-40-17.9-40-40v-16c0-22.1,17.9-40,40-40S432,273.9,432,296z M384,213.4
	v27.2c-27.1,3.9-48,27.2-48,55.4v16c0,19,9.5,35.8,24,45.9v11.7l-40,8.9l-40-8.9v-11.7c14.5-10.1,24-26.9,24-45.9v-16
	c0-28.2-20.9-51.5-48-55.4V208h14.6l4-20.2c4.8-1.5,9.4-3.4,13.9-5.7l17.1,11.4l8.2-8.2L384,213.4z M336,480H160v-62.3
	c0-11.3,7.7-21,18.8-23.4l41.5-9.2c4.6,6.1,13.7,15,27.7,15s23.1-8.9,27.7-15l41.5,9.2c11.1,2.5,18.8,12.1,18.8,23.4V480z M248,256
	c22.1,0,40,17.9,40,40v16c0,22.1-17.9,40-40,40s-40-17.9-40-40v-16C208,273.9,225.9,256,248,256z M248,368c5.6,0,10.9-0.8,16-2.4
	v8.2c-2,3.1-7.5,10.2-16,10.2s-14-7.1-16-10.2v-8.2C237.1,367.2,242.4,368,248,368z M160,113.4V94.6l17.1-3.4l1.2-4.9
	c1.7-6.7,4.4-13.1,7.9-19l2.6-4.3l-9.7-14.5l13.4-13.4l14.5,9.7l4.3-2.6c5.9-3.5,12.3-6.2,19-7.9l4.9-1.2l3.4-17.1h18.9l3.4,17.1
	l4.9,1.2c6.7,1.7,13.1,4.4,19,7.9l4.3,2.6l14.5-9.7l13.4,13.4l-9.7,14.5l2.6,4.3c3.5,5.9,6.2,12.3,7.9,19l1.2,4.9l17.1,3.4v18.9
	l-17.1,3.4l-1.2,4.9c-1.7,6.7-4.4,13.1-7.9,19l-2.6,4.3l9.7,14.5l-13.4,13.4l-14.5-9.7l-4.3,2.6c-5.9,3.5-12.3,6.2-19,7.9l-4.9,1.2
	l-3.4,17.1h-18.9l-3.4-17.1l-4.9-1.2c-6.7-1.7-13.1-4.4-19-7.9l-4.3-2.6l-14.5,9.7l-13.4-13.4l9.7-14.5l-2.6-4.3
	c-3.5-5.9-6.2-12.3-7.9-19l-1.2-4.9L160,113.4z M182.2,185.3l8.2,8.2l17.1-11.4c4.4,2.3,9.1,4.2,13.9,5.7l4,20.2H240v32.6
	c-27.1,3.9-48,27.2-48,55.4v16c0,19,9.5,35.8,24,45.9v11.7l-40,8.9l-40-8.9v-11.7c14.5-10.1,24-26.9,24-45.9v-16
	c0-28.2-20.9-51.5-48-55.4v-27.2L182.2,185.3z M64,312v-16c0-22.1,17.9-40,40-40s40,17.9,40,40v16c0,22.1-17.9,40-40,40
	S64,334.1,64,312z M104,368c5.6,0,10.9-0.8,16-2.4v8.2c-2,3.1-7.5,10.2-16,10.2c-8.5,0-14-7.2-16-10.2v-8.2
	C93.1,367.2,98.4,368,104,368z M16,417.7c0-11.3,7.7-21,18.8-23.4l41.5-9.2c4.6,6.1,13.7,15,27.7,15s23.1-8.9,27.7-15l23.4,5.2
	c-6.8,7.2-11,16.8-11,27.5V480H16V417.7z M480,480H352v-62.3c0-10.6-4.2-20.3-11-27.5l23.4-5.2c4.6,6.1,13.7,15,27.7,15
	s23.1-8.9,27.7-15l41.5,9.2c11.1,2.5,18.8,12.1,18.8,23.4V480z"/>
<path class="st0" d="M384,56h16v16h-16V56z"/>
<path class="st0" d="M384,104h16v16h-16V104z"/>
<path class="st0" d="M384,152h16v16h-16V152z"/>
<path class="st0" d="M416,104h16v16h-16V104z"/>
<path class="st0" d="M416,152h16v16h-16V152z"/>
<path class="st0" d="M416,200h16v16h-16V200z"/>
<path class="st0" d="M96,56h16v16H96V56z"/>
<path class="st0" d="M96,104h16v16H96V104z"/>
<path class="st0" d="M96,152h16v16H96V152z"/>
<path class="st0" d="M64,104h16v16H64V104z"/>
<path class="st0" d="M64,152h16v16H64V152z"/>
<path class="st0" d="M64,200h16v16H64V200z"/>
</svg>
