<?xml version="1.0" encoding="utf-8"?>
<!-- Generator: Adobe Illustrator 21.1.0, SVG Export Plug-In . SVG Version: 6.00 Build 0)  -->
<svg version="1.1" id="Capa_1" xmlns="http://www.w3.org/2000/svg" xmlns:xlink="http://www.w3.org/1999/xlink" x="0px" y="0px"
	 viewBox="0 0 512 512" style="enable-background:new 0 0 512 512;" xml:space="preserve">
<style type="text/css">
	.st0{fill:#FFFFFF;}
</style>
<g>
	<g>
		<path class="st0" d="M467.8,88.1c-1.9-1.9-4.4-2.9-7.1-2.9c-2.6,0-5.2,1.1-7.1,2.9c-1.9,1.9-2.9,4.4-2.9,7.1
			c0,2.6,1.1,5.2,2.9,7.1c1.9,1.9,4.4,2.9,7.1,2.9c2.6,0,5.2-1.1,7.1-2.9c1.9-1.9,2.9-4.4,2.9-7.1C470.7,92.5,469.6,90,467.8,88.1z"
			/>
	</g>
</g>
<g>
	<g>
		<path class="st0" d="M238.1,323.6c-1.9-1.9-4.4-2.9-7.1-2.9c-2.6,0-5.2,1.1-7.1,2.9c-1.9,1.9-2.9,4.4-2.9,7.1
			c0,2.6,1.1,5.2,2.9,7.1c1.9,1.9,4.4,2.9,7.1,2.9c2.6,0,5.2-1.1,7.1-2.9c1.9-1.9,2.9-4.4,2.9-7.1
			C241,328.1,239.9,325.5,238.1,323.6z"/>
	</g>
</g>
<g>
	<g>
		<path class="st0" d="M492,121.3c-2.7-4.8-8.8-6.5-13.6-3.8c-4.8,2.7-6.5,8.8-3.7,13.6c29.7,52.2,20.7,118.4-21.8,161l-7.6,7.6
			c-1.8-4.8-4.7-9.3-8.5-13.2L333.9,183.8c6.7-3.3,12.9-7.7,18.4-13.2L372,151c3.9-3.9,3.9-10.2,0-14.1c-3.9-3.9-10.2-3.9-14.1,0
			l-19.7,19.7c-9.3,9.3-21.6,14.4-34.7,14.4h-39.4c-2.7,0-5.2,1.1-7.1,2.9L226.9,204c-9,9-23.5,9-32.5,0c-9-9-9-23.5,0-32.5
			l68.9-68.9C305.3,60.5,371,51.3,423,80.1c4.8,2.7,10.9,0.9,13.6-3.9c2.7-4.8,0.9-10.9-3.9-13.6c-28.7-15.9-62.4-22.3-95.1-17.9
			C307,48.8,279,61.6,256.1,81.9c-28.2-25-64.1-38.6-102-38.6c-41.1,0-79.8,16-108.9,45.1S0,156.2,0,197.3
			c0,41.1,16,79.8,45.1,108.9l3.8,3.8c0.7,0.7,1.4,1.2,2.2,1.6c0.7,8.7,4.3,17.1,10.9,23.7c7.3,7.3,17,11,26.6,11c0.5,0,1,0,1.5,0
			c0,0.5,0,1,0,1.5c0,10.1,3.9,19.5,11,26.6c7.3,7.3,17,11,26.6,11c0.5,0,1,0,1.5,0c0,0.5,0,1,0,1.5c0,10.1,3.9,19.5,11,26.6
			c7.3,7.3,17,11,26.6,11c0.5,0,1,0,1.5,0c-0.4,10.2,3.3,20.4,11,28.2c7.1,7.1,16.6,11,26.6,11c10.1,0,19.5-3.9,26.6-11l14-14
			l18.9,18.9c7.1,7.1,16.6,11,26.6,11s19.5-3.9,26.6-11c7.8-7.8,11.5-18.3,11-28.5c0.6,0,1.3,0,1.9,0c9.7,0,19.3-3.7,26.6-11
			c7.7-7.7,11.4-18,11-28.2c0.5,0,1,0,1.5,0c10.1,0,19.5-3.9,26.6-11c7.7-7.7,11.4-18,11-28.2c0.5,0,1,0,1.5,0
			c10.1,0,19.5-3.9,26.6-11c3.6-3.6,6.3-7.8,8.2-12.2c1-0.5,1.9-1.1,2.7-1.9l19.4-19.4C515.8,257.4,526.1,181.4,492,121.3z
			 M88.6,326.4c-4.7,0-9.2-1.8-12.5-5.2c-3.3-3.3-5.2-7.8-5.2-12.5c0-4.7,1.8-9.2,5.2-12.5l17.2-17.2c3.3-3.3,7.8-5.2,12.5-5.2
			c4.7,0,9.2,1.8,12.5,5.2c6.9,6.9,6.9,18.1,0,25l-17.2,17.2C97.8,324.5,93.3,326.4,88.6,326.4z M115.2,360.3
			c-3.3-3.3-5.2-7.8-5.2-12.5c0-4.7,1.8-9.2,5.2-12.5l17.2-17.2c0,0,0,0,0,0c3.3-3.3,7.8-5.2,12.5-5.2c4.7,0,9.2,1.8,12.5,5.2
			c6.9,6.9,6.9,18.1,0,25l-17.2,17.2C133.3,367.2,122.1,367.2,115.2,360.3z M154.4,399.5c-3.3-3.3-5.2-7.8-5.2-12.5
			c0-4.7,1.8-9.2,5.2-12.5l17.2-17.2c0,0,0,0,0,0c3.3-3.3,7.8-5.2,12.5-5.2s9.2,1.8,12.5,5.2c6.9,6.9,6.9,18.1,0,25l-17.2,17.2
			C172.5,406.4,161.3,406.4,154.4,399.5z M235.8,421.4l-17.2,17.2c-3.3,3.3-7.8,5.2-12.5,5.2c-4.7,0-9.2-1.8-12.5-5.2
			c-6.9-6.9-6.9-18.1,0-25l17.2-17.2c0,0,0,0,0,0c3.3-3.3,7.8-5.2,12.5-5.2c4.7,0,9.2,1.8,12.5,5.2c3.3,3.3,5.2,7.8,5.2,12.5
			C241,413.6,239.1,418.1,235.8,421.4z M422.5,325.7c-3.3,3.3-7.8,5.2-12.5,5.2c-4.7,0-9.2-1.8-12.5-5.2l-41.6-41.6c0,0,0,0,0,0
			L316.7,245c-3.9-3.9-10.2-3.9-14.1,0c-3.9,3.9-3.9,10.2,0,14.1l80.8,80.8c6.9,6.9,6.9,18.1,0,25c-3.3,3.3-7.8,5.2-12.5,5.2
			c-4.7,0-9.2-1.8-12.5-5.2l-80.8-80.8c-3.9-3.9-10.2-3.9-14.1,0c-3.9,3.9-3.9,10.2,0,14.1l39.1,39.1c0,0,0,0,0,0l41.6,41.6
			c6.9,6.9,6.9,18.1,0,25c-6.9,6.9-18.1,6.9-25,0l-41.6-41.6c-0.8-0.8-1.6-1.4-2.6-1.8l-11.9-11.9c-3.9-3.9-10.2-3.9-14.1,0
			c-3.9,3.9-3.9,10.2,0,14.1l55.7,55.7c6.9,6.9,6.9,18.1,0,25c-3.3,3.3-7.8,5.2-12.5,5.2c-4.7,0-9.2-1.8-12.5-5.2l-21.2-21.2
			c1.6-4.2,2.5-8.8,2.5-13.4c0-10.1-3.9-19.5-11-26.6c-7.1-7.1-16.6-11-26.6-11c-0.5,0-1,0-1.5,0c0.4-10.1-3.3-20.4-11-28.2
			c-7.1-7.1-16.6-11-26.6-11c-0.5,0-1,0-1.5,0c0.4-10.1-3.3-20.4-11-28.2c-7.1-7.1-16.6-11-26.6-11c-0.5,0-1,0-1.5,0
			c0.4-10.1-3.3-20.4-11-28.2c-14.7-14.7-38.6-14.7-53.3,0L61.9,282c-2.2,2.2-4,4.6-5.5,7.1c-23.5-25-36.4-57.4-36.4-91.8
			c0-35.8,13.9-69.5,39.3-94.8c25.3-25.3,59-39.3,94.8-39.3c32.5,0,63.3,11.5,87.6,32.6l-61.5,61.5c-8.1,8.1-12.6,18.9-12.6,30.4
			c0,11.5,4.5,22.3,12.6,30.4c8.4,8.4,19.4,12.6,30.4,12.6s22-4.2,30.4-12.6l27.2-27.2h35.3c2.9,0,5.8-0.2,8.6-0.6l110.4,110.4
			C429.4,307.6,429.4,318.8,422.5,325.7z"/>
	</g>
</g>
</svg>
