<svg id="Capa_1" data-name="Capa 1" xmlns="http://www.w3.org/2000/svg" viewBox="0 0 414.3 414.3"><defs><style>.cls-1{fill:#fff;}</style></defs><title>objective_bco</title><path class="cls-1" d="M342.8,129l69.12-69.12a8,8,0,0,0-5.36-13.68l.24.48-37.6-1.28-1.28-37.6a8,8,0,0,0-13.68-5.36l-69,68.72a8,8,0,0,0-2.32,5.92v8a180.48,180.48,0,1,0,46.24,46.24h8A8,8,0,0,0,342.8,129Zm2.4,104.8a164.64,164.64,0,1,1-61.36-128l.4,13.36-32,32a109.6,109.6,0,1,0,11.2,11.36l32-32,13.2.48A164.49,164.49,0,0,1,345.2,233.81Zm-169.76,5.36a8,8,0,0,0,11.28,0l16-16a24.19,24.19,0,1,1-11.28-11.28l-16,16A8,8,0,0,0,175.44,239.17Zm27.68-39a40,40,0,1,0,11.28,11.28l37.92-37.92A93.44,93.44,0,1,1,241,162.21Zm97.28-85.92-1.12-34.08,53.6-53.6.88,26.64a8,8,0,0,0,8,8l26.64.88-53.92,53.28Z"/></svg>