<?xml version="1.0" encoding="utf-8"?>
<!-- Generator: Adobe Illustrator 16.0.0, SVG Export Plug-In . SVG Version: 6.00 Build 0)  -->
<!DOCTYPE svg PUBLIC "-//W3C//DTD SVG 1.1//EN" "http://www.w3.org/Graphics/SVG/1.1/DTD/svg11.dtd">
<svg version="1.1" id="Capa_1" xmlns="http://www.w3.org/2000/svg" xmlns:xlink="http://www.w3.org/1999/xlink" x="0px" y="0px"
	 width="144.343px" height="144.343px" viewBox="0 0 144.343 144.343" enable-background="new 0 0 144.343 144.343"
	 xml:space="preserve">
<g>
	<circle fill="#EA9036" cx="72.171" cy="72.172" r="72.171"/>
	<circle fill="#4059A7" cx="72.17" cy="72.172" r="63.304"/>
	<circle fill="#4059A7" cx="72.17" cy="72.172" r="63.304"/>
	<g>
		<defs>
			<circle id="SVGID_21_" cx="72.169" cy="72.172" r="63.305"/>
		</defs>
		<clipPath id="SVGID_2_">
			<use xlink:href="#SVGID_21_"  overflow="visible"/>
		</clipPath>
		<path clip-path="url(#SVGID_2_)" fill="#FFFFFF" d="M75.73,163.88c-0.992,2.529,7.707,18.31,10.881,29.404
			c0.562,7.755,6.822,17.067,8.161,18.64c2.522,2.136,13.421,2.769,12.655-8.979c0,0-5.277-38.826-13.88-60.798
			C93.548,142.147,68.11,149.338,75.73,163.88z"/>
		<path clip-path="url(#SVGID_2_)" fill="#FFFFFF" d="M52.791,126.887l-3.723,25.164l23.08,10.581h1.486l22.751-13.368
			l-3.394-22.377C92.992,126.887,71.094,115.132,52.791,126.887z"/>
		<path clip-path="url(#SVGID_2_)" fill="#FFFFFF" d="M61.809,57.096c-1.165,1.84-9.95,5.094-9.95,5.094s-14.849,3.261-0.997,29.937
			c0.814,6.977-0.13,7.185,2.14,12.481c0,0,1.772,17.891,20.437,17.161c18.661-0.729,19.032-18.704,19.032-18.704
			c1.849-5.457,1.159-12.611,1.159-12.611s10.521-23.809-3.33-29.767c0,0-9.015-2.558-10.32-4.301L61.809,57.096z"/>
		<path clip-path="url(#SVGID_2_)" fill="#FFFFFF" d="M44.633,90.05c1.758-4.36,22.026-7.294,14.504-26.076
			c0,0-15.82-9.229-25.451,13.818c0,0-6.459,7.649-9.503,18.456c-0.06,0.208-0.118,0.418-0.172,0.629
			c-2.97,11.136-0.868,12.388,7.337,10.319C31.348,107.196,42.875,94.411,44.633,90.05z"/>
		<path clip-path="url(#SVGID_2_)" fill="#FFFFFF" d="M97.385,87.771c-1.816-4.336-22.123-6.997-14.853-25.878
			c0,0,15.694-9.442,25.636,13.474c0,0,6.559,7.562,9.749,18.326c0.062,0.207,0.122,0.416,0.181,0.625
			c3.117,11.096,1.034,12.376-7.199,10.417C110.898,104.736,99.201,92.108,97.385,87.771z"/>
		<path clip-path="url(#SVGID_2_)" fill="#FFFFFF" d="M117.813,113.287l2.587-7.688c0,0,0.624-3.016-4.232-5.461
			c-4.855-2.447-7.812,2.044-7.812,2.044l-2.07,6.49l-4.865,7.951c0,0-5.284,8.371-5.546,14.649c0,0-2.383,9.395-3.287,10.196
			c0,0,0.982,7.228,6.488,3.565c0,0,10.238-16.298,12.692-20.743C111.769,124.29,118.479,113.718,117.813,113.287z"/>
		<path clip-path="url(#SVGID_2_)" fill="#FFFFFF" d="M24.212,113.287l-2.587-7.688c0,0-0.622-3.016,4.234-5.461
			c4.854-2.447,7.812,2.044,7.812,2.044l2.069,6.49l4.864,7.951c0,0,5.284,8.371,5.546,14.649c0,0,2.383,9.395,3.289,10.196
			c0,0-0.982,7.228-6.49,3.565c0,0-10.238-16.298-12.692-20.743C30.257,124.29,23.551,113.718,24.212,113.287z"/>
		<path clip-path="url(#SVGID_2_)" fill="#FFFFFF" d="M98.338,137.024c2.886,5.357,7.217,13.078,7.115,14.125
			c-0.103,1.046,0.037,9.958-2.919,11.716c0,0-1.599,2.602-2.612,2.419c-1.014-0.184-0.514-1.729-0.514-1.729
			s-0.581,0.375-1.146,0.14c-0.566-0.234,1.492-4.968,1.492-4.968s-1.409,1.452-2.262,1.003c-0.857-0.45,3.027-5.136,3.082-7.434
			c0.053-2.298-1.61-3.083-1.61-3.083l-1.146,1.277c0,0,0.497,5.083-0.452,5.542c-0.947,0.459-1.577,0.719-2.975-4.926
			c0,0-2.772-3.471-2.594-5.621c0.181-2.149,1.021-3.032,0.241-4.918C92.039,140.569,92.326,133.562,98.338,137.024z"/>
		<path clip-path="url(#SVGID_2_)" fill="#FFFFFF" d="M43.689,137.024c-2.886,5.357-7.218,13.078-7.116,14.125
			c0.104,1.046-0.036,9.958,2.917,11.716c0,0,1.602,2.602,2.613,2.419c1.012-0.184,0.516-1.729,0.516-1.729s0.581,0.375,1.146,0.14
			c0.564-0.234-1.492-4.968-1.492-4.968s1.407,1.452,2.262,1.003c0.855-0.45-3.03-5.136-3.084-7.434
			c-0.053-2.298,1.61-3.083,1.61-3.083l1.147,1.277c0,0-0.497,5.083,0.45,5.542c0.948,0.459,1.577,0.719,2.976-4.926
			c0,0,2.773-3.471,2.593-5.621c-0.181-2.149-1.021-3.032-0.24-4.918C49.987,140.569,49.703,133.562,43.689,137.024z"/>
		<path clip-path="url(#SVGID_2_)" fill="#FFFFFF" d="M92.992,126.887c-1.128-6.63-4.573-13.338-2.513-18.719
			c0,0-17.765-9.694-37.337-0.02c2.107,6.433,0.638,14.719-0.352,18.739C52.791,126.887,67.281,146.178,92.992,126.887z"/>
		<path clip-path="url(#SVGID_2_)" fill="#FFFFFF" d="M98.622,136.415"/>
		<path clip-path="url(#SVGID_2_)" fill="#FFFFFF" d="M111.115,118.909"/>
		<path clip-path="url(#SVGID_2_)" fill="#FFFFFF" d="M79.979,56.386c-0.618-1.746-0.991-9.555-0.991-9.555l-16.936,0.662
			c0,0,0.924,7.763-0.243,9.604C61.809,57.096,69.617,65.717,79.979,56.386z"/>
		<path clip-path="url(#SVGID_2_)" fill="#FFFFFF" d="M78.987,46.831c2.339-1.886,2.38-7.15,2.38-7.15s0.222,0.919,1.127,0.266
			c0.902-0.655,0.965-6.909,0.699-7.455c-0.27-0.546-1.314-0.32-1.314-0.32s1.165-8.216-1.534-12.319
			c-2.698-4.103-8.718-4.488-11.065-4.395c-2.35,0.092-8.318,0.945-10.688,5.245c-2.371,4.302-0.568,12.402-0.568,12.402
			s-1.059-0.144-1.281,0.422c-0.228,0.566,0.326,6.795,1.277,7.377s1.101-0.353,1.101-0.353s0.454,5.245,2.932,6.942
			c0,0,2.51,3.43,9.1,3.099C77.83,50.254,78.987,46.831,78.987,46.831z"/>
		<g clip-path="url(#SVGID_2_)">
			<path fill="#B85724" stroke="#000000" stroke-width="0.3881" stroke-miterlimit="10" d="M58.898,59.027
				c-3.215-1.234-15.228,4.324-15.228,4.324s17.578,22.597,7.122,35.106l-0.933,34.886c0,0-2.052,9.298,11.018,8.552
				c0,0,8.58,0.768,11.752-7.26V84.418l-5.305-6.962C67.325,77.457,62.111,60.261,58.898,59.027z"/>
			<path fill="#B85724" stroke="#000000" stroke-width="0.3881" stroke-miterlimit="10" d="M85.867,59.027
				c3.215-1.234,14.449,3.936,14.449,3.936s-16.802,22.986-6.346,35.495l0.933,34.886c0,0,2.052,9.298-11.018,8.552
				c0,0-8.578,0.768-11.753-7.26V84.418l5.306-6.962C77.438,77.457,82.652,60.261,85.867,59.027z"/>
			<linearGradient id="SVGID_4_" gradientUnits="userSpaceOnUse" x1="50.3887" y1="109.436" x2="72.1328" y2="109.436">
				<stop  offset="0.5638" style="stop-color:#FFFFFF"/>
				<stop  offset="0.7385" style="stop-color:#EDEDED"/>
				<stop  offset="0.8911" style="stop-color:#E3E3E3"/>
			</linearGradient>
			<polygon fill="url(#SVGID_4_)" points="50.611,105.257 72.133,105.257 72.133,113.615 50.389,113.615 			"/>
			<linearGradient id="SVGID_6_" gradientUnits="userSpaceOnUse" x1="72.1328" y1="109.436" x2="93.8789" y2="109.436">
				<stop  offset="0.5638" style="stop-color:#FFFFFF"/>
				<stop  offset="0.7385" style="stop-color:#EDEDED"/>
				<stop  offset="0.8911" style="stop-color:#E3E3E3"/>
			</linearGradient>
			<polygon fill="url(#SVGID_6_)" points="72.357,105.257 93.879,105.257 93.879,113.615 72.133,113.615 			"/>
			<linearGradient id="SVGID_8_" gradientUnits="userSpaceOnUse" x1="49.8955" y1="127.6733" x2="72.1328" y2="127.6733">
				<stop  offset="0.5638" style="stop-color:#FFFFFF"/>
				<stop  offset="0.7385" style="stop-color:#EDEDED"/>
				<stop  offset="0.8911" style="stop-color:#E3E3E3"/>
			</linearGradient>
			<polygon fill="url(#SVGID_8_)" points="50.124,124.857 72.133,124.857 72.133,130.489 49.896,130.489 			"/>
			<linearGradient id="SVGID_10_" gradientUnits="userSpaceOnUse" x1="72.1328" y1="127.6733" x2="94.3623" y2="127.6733">
				<stop  offset="0.5638" style="stop-color:#FFFFFF"/>
				<stop  offset="0.7385" style="stop-color:#EDEDED"/>
				<stop  offset="0.8911" style="stop-color:#E3E3E3"/>
			</linearGradient>
			<polygon fill="url(#SVGID_10_)" points="72.362,124.857 94.362,124.857 94.362,130.489 72.133,130.489 			"/>
		</g>
	</g>
</g>
</svg>
