<?xml version="1.0" encoding="utf-8"?>
<!-- Generator: Adobe Illustrator 16.0.0, SVG Export Plug-In . SVG Version: 6.00 Build 0)  -->
<!DOCTYPE svg PUBLIC "-//W3C//DTD SVG 1.1//EN" "http://www.w3.org/Graphics/SVG/1.1/DTD/svg11.dtd">
<svg version="1.1" id="Layer_1" xmlns="http://www.w3.org/2000/svg" xmlns:xlink="http://www.w3.org/1999/xlink" x="0px" y="0px"
	 width="822.047px" height="1162.205px" viewBox="0 0 822.047 1162.205" enable-background="new 0 0 822.047 1162.205"
	 xml:space="preserve">
<g>
	<defs>
		<rect id="SVGID_1_" x="-0.001" y="0" width="822.048" height="1162.205"/>
	</defs>
	<clipPath id="SVGID_2_">
		<use xlink:href="#SVGID_1_"  overflow="visible"/>
	</clipPath>
	<g clip-path="url(#SVGID_2_)">
		<g>
			<path fill="none" stroke="#FFFFFF" stroke-miterlimit="10" d="M568.623,1020.363c0,0-65.062-178.956-150.855-234.512
				c-46.532-30.133-83.213,15.413-89.834,24.455c-24.394,33.312-62.49,111.688-88.877,240.896"/>
			<path fill="none" stroke="#FFFFFF" stroke-miterlimit="10" d="M404.849,779.239c-23.578-1.027-54.318,12.704-77.318,50.475
				c-49.308,80.97-70.694,221.335-70.694,221.335l-18.411,0.312l25.908-215.702l5.12,1.91L254.574,962.82"/>
			<path fill="none" stroke="#FFFFFF" stroke-miterlimit="10" d="M256.131,844.259c-60.667,41.062-113.664,71.151-145.759,84.894
				C7.434,973.227-99.555,980.55-108.824,984.093"/>
			<path fill="none" stroke="#FFFFFF" stroke-miterlimit="10" d="M499.693,645.887c-18.894,17.574-39.745,36.821-59.597,54.771
				c-44.381,40.127-103.892,88.539-172.831,136"/>
			<path fill="none" stroke="#FFFFFF" stroke-miterlimit="10" d="M864.152,253.777c0,0-203.76,241.245-336.29,365.808"/>
			<path fill="none" stroke="#FFFFFF" stroke-miterlimit="10" d="M866.01,163.156c0,0-302.333,356.106-458.474,517.178
				c-113.6,117.188-245.965,209.771-304.485,237.014c-95.827,44.609-196.511,49.486-205.152,53.044"/>
			<path fill="none" stroke="#FFFFFF" stroke-miterlimit="10" d="M883.344,74.49c0,0-322.395,431.17-477.824,595.789
				C292.438,790.048,160.434,884.437,102,912.103c-95.688,45.304-196.456,49.762-205.086,53.37"/>
			<path fill="none" stroke="#FFFFFF" stroke-miterlimit="10" d="M886.01,168.49c0,0-319.482,364.989-476.422,522.075
				c-114.182,114.289-246.954,204.845-305.569,231.61c-95.983,43.829-196.573,49.177-205.225,52.679"/>
			<polyline fill="none" stroke="#FFFFFF" stroke-miterlimit="10" points="570.164,1028.049 498.138,636.851 521.356,615.49 			"/>
			<polyline fill="none" stroke="#FFFFFF" stroke-miterlimit="10" points="624.804,1024.732 521.902,615.159 527.933,619.631 			"/>
			<polygon fill="none" stroke="#FFFFFF" stroke-miterlimit="10" points="694.608,1092.569 678.917,1036.017 664.872,1026.012 
				624.804,1024.732 562.676,1028.503 554.204,1039.17 562.696,1092.569 			"/>
			<path fill="none" stroke="#FFFFFF" stroke-miterlimit="10" d="M451.821,814.935c0,0-31.5,10.779-53.907,51.445
				c-27.229,49.418-49.304,129.683-55.168,183.484l-13.383,0.031c9.54-60.776,39.637-153.844,64.681-193.996
				c25.044-40.152,53.746-45.127,53.746-45.127"/>
			<path fill="none" stroke="#FFFFFF" stroke-miterlimit="10" d="M626.261,1024.439c-22.11-126.444,10.845-238.476,33.084-323.365
				c60.404-230.569,191.526-346.958,191.526-346.958"/>
			<path fill="none" stroke="#FFFFFF" stroke-miterlimit="10" d="M835.401,393.158c-46.408,55.248-107.203,178.553-132.716,252.573
				c-13.233,38.394-22.543,77.355-29.82,106.97c-6.11,24.866-10.705,43.663-12.267,54.186c-4.09,27.554-6.367,49.717-8.15,71.488
				c-8.57,104.66,3.593,147.354,3.593,147.354"/>
			<path fill="none" stroke="#FFFFFF" stroke-miterlimit="10" d="M590.446,888.565c0.879-5.801,20.864-137.024,84.304-287.658
				c6.313-14.991,11.788-31.664,19.274-46.755c124.435-250.863,301.858-345.079,402.884-340.733"/>
			<path fill="none" stroke="#FFFFFF" stroke-miterlimit="10" d="M601.071,834.214l-55.61-188.283c0,0-2.915-8.57,1.033-19.307
				c3.275-8.906,12.769-18.866,16.744-22.026c5.699-4.53,13.452-6.081,16.156-4.882l45.826,141.128"/>
			<path fill="none" stroke="#FFFFFF" stroke-miterlimit="10" d="M636.794,703.451l-41.01-102.79c0,0-7.821-13.021,5.286-30.808
				c6.619-8.982,17.049-18.212,25.226-22.237c8.015-3.946,13.843-2.776,13.843-2.776l30.305,66.314"/>
			<path fill="none" stroke="#FFFFFF" stroke-miterlimit="10" d="M433.868,778.581c-7.305-3.835-15.557-7.525-21.797-9.172
				c0,0-9.111-2.488-20.594-3.115"/>
			<path fill="none" stroke="#FFFFFF" stroke-miterlimit="10" d="M477.604,809.602c-10.642-9.057-20.167-16.758-31.588-23.982"/>
			<path fill="none" stroke="#FFFFFF" stroke-miterlimit="10" d="M542.557,876.926c0,0-17.343-22.643-44.443-48.826"/>
			<path fill="none" stroke="#FFFFFF" stroke-miterlimit="10" d="M546.354,899.428c0,0-21.253-27.561-48.477-58.018
				c-30.451-34.068-68.903-72.343-105.569-75.282c-18.198-1.46-41.059,11.096-58.042,29.456c-9.158,9.9-23.976,31.836-36.934,57.711
				c-12.116,24.195-22.501,52.191-28.058,67.017c-12.291,32.796-22.402,66.921-23.792,73.171"/>
			<polyline fill="none" stroke="#FFFFFF" stroke-miterlimit="10" points="664.84,787.722 744.767,818.116 753.754,817.894 			"/>
			<polyline fill="none" stroke="#FFFFFF" stroke-miterlimit="10" points="673.592,749.752 761.658,790.54 753.754,817.894 
				665.131,784.412 			"/>
			<polyline fill="none" stroke="#FFFFFF" stroke-miterlimit="10" points="711.018,622.451 800.227,690.718 791.204,712.362 
				700.457,652.312 			"/>
			<line fill="none" stroke="#FFFFFF" stroke-miterlimit="10" x1="828.951" y1="615.866" x2="748.724" y2="536.558"/>
			<line fill="none" stroke="#FFFFFF" stroke-miterlimit="10" x1="834.333" y1="575.853" x2="766.556" y2="504.47"/>
			<line fill="none" stroke="#FFFFFF" stroke-miterlimit="10" x1="824.484" y1="621.31" x2="745.249" y2="544.7"/>
			<line fill="none" stroke="#FFFFFF" stroke-miterlimit="10" x1="772.742" y1="710.979" x2="697.737" y2="660.745"/>
			<line fill="none" stroke="#FFFFFF" stroke-miterlimit="10" x1="720.169" y1="882.229" x2="686.121" y2="796.312"/>
			<path fill="none" stroke="#FFFFFF" stroke-miterlimit="10" d="M744.429,782.569c0,0,21.908-57.705,28.313-71.59l18.462,1.383"/>
			<path fill="none" stroke="#FFFFFF" stroke-miterlimit="10" d="M786.29,680.053c0,0,19.655-41.131,34.299-62.51"/>
			<path fill="none" stroke="#FFFFFF" stroke-miterlimit="10" d="M681.104,585.799l-27.196-49.782c0,0-2.905-4.334,3.537-17.004
				c5.89-11.583,23.487-30.261,39.695-37.644c12.385-5.641,18.906-0.317,18.906-0.317"/>
			<path fill="none" stroke="#FFFFFF" stroke-miterlimit="10" d="M679.228,590.149l-29.207-53.985c0,0-4.742-12.944,8.463-29.613
				c17.296-21.833,42.753-40.025,56.993-26.333l10.006,14.661"/>
			<path fill="none" stroke="#FFFFFF" stroke-miterlimit="10" d="M596.174,858.152L539.68,644.816c0,0-4.281-15.288,11.059-34.303
				c6.93-8.589,24.206-21.021,28.656-10.798"/>
			<path fill="none" stroke="#FFFFFF" stroke-miterlimit="10" d="M536.986,646.355"/>
			<path fill="none" stroke="#FFFFFF" stroke-miterlimit="10" d="M527.933,619.631l65.726,249.771L527.933,619.631z"/>
			<path fill="none" stroke="#FFFFFF" stroke-miterlimit="10" d="M669.469,789.228"/>
			<path fill="none" stroke="#FFFFFF" stroke-miterlimit="10" d="M735.938,814.76c0,0-18.629,69.898-20.995,98.415"/>
			<path fill="none" stroke="#FFFFFF" stroke-miterlimit="10" d="M678.802,1024.924c0,0-18.096-38.057-28.933-52.684"/>
			<line fill="none" stroke="#FFFFFF" stroke-miterlimit="10" x1="754.533" y1="1020.854" x2="669.584" y2="789.802"/>
			<polyline fill="none" stroke="#FFFFFF" stroke-miterlimit="10" points="806.677,1074.001 779.26,1020.696 676.774,1025.33 
				677.432,1035.304 			"/>
			<line fill="none" stroke="#FFFFFF" stroke-miterlimit="10" x1="649.958" y1="919.276" x2="679.53" y2="1024.778"/>
			<path fill="none" stroke="#FFFFFF" stroke-miterlimit="10" d="M775.177,1020.863c0,0-12.7-57.726-8.048-125.081
				c4.652-67.356,32.09-185.027,64.903-236.828"/>
			<path fill="none" stroke="#FFFFFF" stroke-miterlimit="10" d="M757.05,1021.605c0,0-24.516-86.53,4.356-205.246
				c27.874-114.614,64.544-172.075,64.544-172.075"/>
			<path fill="none" stroke="#FFFFFF" stroke-miterlimit="10" d="M310.265,1038.713c0,0-4.024-36.098-7.311-50.597"/>
			<path fill="none" stroke="#FFFFFF" stroke-miterlimit="10" d="M312.884,1002.604c0,0-2.249-10.975-2.689-13.412"/>
			<polyline fill="none" stroke="#FFFFFF" stroke-miterlimit="10" points="270.453,985.42 323.65,989.903 324.13,974.657 
				274.315,969.992 			"/>
			<polyline fill="none" stroke="#FFFFFF" stroke-miterlimit="10" points="280.711,946.527 347.122,957.028 351.262,944.289 
				284.798,932.723 			"/>
			<polyline fill="none" stroke="#FFFFFF" stroke-miterlimit="10" points="351.262,944.289 347.892,942.601 285.172,931.503 			"/>
			<polyline fill="none" stroke="#FFFFFF" stroke-miterlimit="10" points="297.711,894.306 365.295,907.182 370.726,897.096 
				302.291,882.361 			"/>
			<path fill="none" stroke="#FFFFFF" stroke-miterlimit="10" d="M370.726,897.096l-2.309-2.695c0,0-65.093-14.62-65.234-14.27"/>
			<path fill="none" stroke="#FFFFFF" stroke-miterlimit="10" d="M362.552,906.659c-0.247-0.047-10.22,22.04-14.89,35.355"/>
			<polyline fill="none" stroke="#FFFFFF" stroke-miterlimit="10" points="316.379,850.408 384.507,867.553 389.265,860.409 
				320.661,842.011 			"/>
			<path fill="none" stroke="#FFFFFF" stroke-miterlimit="10" d="M389.265,860.409l-1.543-3.873c0,0-64.984-18.393-65.028-18.312"/>
			<path fill="none" stroke="#FFFFFF" stroke-miterlimit="10" d="M381.315,867.309c0,0-11.14,21.943-13.488,26.96"/>
			<polyline fill="none" stroke="#FFFFFF" stroke-miterlimit="10" points="328.529,900.177 327.74,910.136 294.589,902.929 			"/>
			<polyline fill="none" stroke="#FFFFFF" stroke-miterlimit="10" points="327.74,910.136 324.122,911.619 293.67,905.544 			"/>
			<line fill="none" stroke="#FFFFFF" stroke-miterlimit="10" x1="316.424" y1="952.175" x2="314.69" y2="973.773"/>
			<path fill="none" stroke="#FFFFFF" stroke-miterlimit="10" d="M342.192,956.382c0,0-8.503,29.026-12.184,43.716"/>
			<line fill="none" stroke="#FFFFFF" stroke-miterlimit="10" x1="335.475" y1="955.187" x2="334.662" y2="982.74"/>
			<line fill="none" stroke="#FFFFFF" stroke-miterlimit="10" x1="331.698" y1="954.59" x2="328.149" y2="1050.139"/>
			<polyline fill="none" stroke="#FFFFFF" stroke-miterlimit="10" points="329.363,1049.896 309.374,1050.998 313.837,989.472 			
				"/>
			<path fill="none" stroke="#FFFFFF" stroke-miterlimit="10" d="M263.422,1058.065l56.132-1.024l-0.064,27.677
				c1.08,1.396-23.295-28.646-57.591-1.462"/>
			<path fill="none" stroke="#FFFFFF" stroke-miterlimit="10" d="M503.381,664.573c-6.258-4.767-18.294,1.046-25.297,10.562
				c-6.212,8.443-8.174,17.65-7.638,21.585s20.172,133.058,20.172,133.058l8.396,2.815l-23.87-134.163c0,0-2.372-8.208,5.037-18.979
				c7.409-10.77,22.527-16.258,23.484-13.326"/>
			<path fill="none" stroke="#FFFFFF" stroke-miterlimit="10" d="M464.563,700.436c-0.42-3.664-4.522-6.601-9.714-5.104
				c-5.73,1.652-12.693,8.146-15.405,12.468c-5.17,8.237-4.651,14.917-4.651,14.917l6.127,62.055l5.22,2.461l-7.383-65.8
				c0,0,1.163-9.844,9.557-17.59C454.761,697.893,461.597,693.694,464.563,700.436l13.48,113.878l12.574,15.464"/>
			<polyline fill="none" stroke="#FFFFFF" stroke-miterlimit="10" points="653.57,865.423 674.36,871.739 684.034,898.568 
				651.61,889.317 			"/>
			<polyline fill="none" stroke="#FFFFFF" stroke-miterlimit="10" points="684.034,898.568 667.762,901.831 651.081,897.194 			"/>
			<polyline fill="none" stroke="#FFFFFF" stroke-miterlimit="10" points="625.532,1024.586 632.608,1036.46 644.573,1092.569 			
				"/>
			<line fill="none" stroke="#FFFFFF" stroke-miterlimit="10" x1="540.655" y1="858.616" x2="519.801" y2="850.51"/>
			<line fill="none" stroke="#FFFFFF" stroke-miterlimit="10" x1="536.772" y1="847.106" x2="505.646" y2="835.432"/>
			<line fill="none" stroke="#FFFFFF" stroke-miterlimit="10" x1="540.655" y1="867.443" x2="532.365" y2="864.685"/>
			<path fill="none" stroke="#FFFFFF" stroke-miterlimit="10" d="M410.071,768.918l-2.013-20.865
				c-0.494-4.113,1.364-8.859,5.349-14.664c4.4-6.41,11.379-11.996,14.591-9.558"/>
			<polyline fill="none" stroke="#FFFFFF" stroke-miterlimit="10" points="238.425,1051.361 227.422,1051.768 256.368,840.825 
				264.333,835.659 			"/>
			<path fill="none" stroke="#FFFFFF" stroke-miterlimit="10" d="M228.672,1047.822c2.14-15.591,1.44-149.943-28.385-152.805
				c-23.698-2.273-71.304,100.393-86.192,162.215"/>
			<path fill="none" stroke="#FFFFFF" stroke-miterlimit="10" d="M205.956,897.338c-7.151-0.93-20.994,13.411-33.612,36.826
				c-4.669,8.666-9.9,19.48-14.395,29.592c-6.703,15.081-11.975,31.516-17.105,47.567c-4.944,15.468-9.818,30.549-12.428,45.417"/>
			<path fill="none" stroke="#FFFFFF" stroke-miterlimit="10" d="M230.754,1049.783"/>
			<polyline fill="none" stroke="#FFFFFF" stroke-miterlimit="10" points="342.747,1049.864 349.448,1056.479 349.689,1094.097 
				303.784,1094.097 303.23,1078.946 			"/>
			<polyline fill="none" stroke="#FFFFFF" stroke-miterlimit="10" points="328.149,1050.139 326.938,1056.697 326.909,1094.147 			
				"/>
			<line fill="none" stroke="#FFFFFF" stroke-miterlimit="10" x1="309.374" y1="1050.998" x2="304.469" y2="1057.316"/>
			<polyline fill="none" stroke="#FFFFFF" stroke-miterlimit="10" points="256.921,1050.527 263.471,1058.308 261.205,1094.097 
				216.962,1094.097 219.556,1058.523 228.151,1051.621 			"/>
			<polyline fill="none" stroke="#FFFFFF" stroke-miterlimit="10" points="238.425,1051.361 235.101,1059.196 231.45,1094.149 			
				"/>
			<line fill="none" stroke="#FFFFFF" stroke-miterlimit="10" x1="349.448" y1="1056.479" x2="319.554" y2="1057.041"/>
			<line fill="none" stroke="#FFFFFF" stroke-miterlimit="10" x1="784.611" y1="1031.182" x2="554.204" y2="1039.17"/>
			<line fill="none" stroke="#FFFFFF" stroke-miterlimit="10" x1="792.347" y1="1046.341" x2="556.246" y2="1050.764"/>
			<path fill="none" stroke="#FFFFFF" stroke-miterlimit="10" d="M532.225,821.435c0,0-17.153-9.636-38.246-17.146"/>
			<line fill="none" stroke="#FFFFFF" stroke-miterlimit="10" x1="533.002" y1="826.208" x2="495.149" y2="810.125"/>
			<line fill="none" stroke="#FFFFFF" stroke-miterlimit="10" x1="497.324" y1="820.975" x2="535.15" y2="836.658"/>
			<line fill="none" stroke="#FFFFFF" stroke-miterlimit="10" x1="476.257" y1="797.775" x2="448.987" y2="787.15"/>
			<path fill="none" stroke="#FFFFFF" stroke-miterlimit="10" d="M440.92,784.771l-6.926-4.299l-3.965-52.532
				c0,0-1.449-8.646-8.547-6.244c-7.097,2.402-12.908,10.748-14.734,15.34s-2.461,10.403-2.533,13.828s1.296,16.857,1.296,16.857"/>
			<path fill="none" stroke="#FFFFFF" stroke-miterlimit="10" d="M315.114,968.5c0,0-5.662-13.839-7.375-17.699"/>
			<path fill="none" stroke="#FFFFFF" stroke-miterlimit="10" d="M306.812,973.035c0,0-7.086-18.972-9.345-23.858"/>
			<line fill="none" stroke="#FFFFFF" stroke-miterlimit="10" x1="291.842" y1="948.416" x2="294.25" y2="955.742"/>
			<polyline fill="none" stroke="#FFFFFF" stroke-miterlimit="10" points="278.687,953.694 298.904,956.339 301.34,965.419 
				276.34,962.298 			"/>
			<polyline fill="none" stroke="#FFFFFF" stroke-miterlimit="10" points="301.34,965.419 299.113,968.803 275.389,965.881 			"/>
			<line fill="none" stroke="#FFFFFF" stroke-miterlimit="10" x1="297.644" y1="968.621" x2="299.027" y2="972.306"/>
			<path fill="none" stroke="#FFFFFF" stroke-miterlimit="10" d="M442.498,805.595c0,0-27.389,5.178-54.776,50.941"/>
			<path fill="none" stroke="#FFFFFF" stroke-miterlimit="10" d="M360.078,848.721"/>
			<path fill="none" stroke="#FFFFFF" stroke-miterlimit="10" d="M369.97,851.296"/>
			<path fill="none" stroke="#FFFFFF" stroke-miterlimit="10" d="M633.569,712.859c0,0-41.865-110.338-43.416-115.712
				c-1.551-5.373-3.444-15.405,4.456-27.388c12.785-19.393,38.115-37.327,45.529-24.919"/>
			<path fill="none" stroke="#FFFFFF" stroke-miterlimit="10" d="M271.066,915.532c0,0,8.835-68.847,8.986-71.877
				s0.043-5.382-1.618-5.708c-2.993-0.586-8.857,6.07-10.705,14.179"/>
			<path fill="none" stroke="#FFFFFF" stroke-miterlimit="10" d="M281.037,889.84c0,0,2.789-34.973,4.09-45.939
				c1.301-10.966,9.078-21.052,9.872-14.39"/>
			<path fill="none" stroke="#FFFFFF" stroke-miterlimit="10" d="M291.303,865.915c0,0,3.543-34.195,3.696-36.404
				c0.152-2.21-0.827-3.342-2.435-3.302c-2.876,0.071-8.523,4.741-10.322,14.196c-1.021,5.367-6.4,62.578-6.4,62.578"/>
			<path fill="none" stroke="#FFFFFF" stroke-miterlimit="10" d="M299.644,848.758c0,0,0.94-12.314,1.21-20.422
				c0.269-8.105,8.589-18.111,10.269-11.153"/>
			<path fill="none" stroke="#FFFFFF" stroke-miterlimit="10" d="M310.293,829.602c0,0,0.947-7.896,0.976-10.743
				c0.029-2.848-1.249-5.295-2.954-5.281c-3.391,0.027-8.879,3.948-10.85,15.817l-3.046,29.222"/>
			<path fill="none" stroke="#FFFFFF" stroke-miterlimit="10" d="M264.39,933.714c0,0,7.002-74.87,7.874-82.939
				s7.281-14.85,7.793-8.983"/>
			<line fill="none" stroke="#FFFFFF" stroke-miterlimit="10" x1="239.683" y1="938.053" x2="242.17" y2="949.452"/>
			<path fill="none" stroke="#FFFFFF" stroke-miterlimit="10" d="M235.179,998.476c0.447-27.178-6.695-73.473-18.44-95.743
				c-2.026-3.842-12.86-20.047-27.497-7.988c-23.308,19.204-56.361,92.801-71.057,140.463"/>
			<path fill="none" stroke="#FFFFFF" stroke-miterlimit="10" d="M108.409,1052.732c0.109-25.417-6.7-68.796-17.328-89.751
				c-1.833-3.615-11.592-18.888-24.417-7.762c-6.001,5.206-21.024,31.784-38.648,73.586"/>
			<path fill="none" stroke="#FFFFFF" stroke-miterlimit="10" d="M85.056,955.187c-4.577-1.544-9.321-2.308-15.077,2.686
				c-6.001,5.206-24.637,38.123-37.468,75.33"/>
			<path fill="none" stroke="#FFFFFF" stroke-miterlimit="10" d="M224.344,915.929l-1.176-5.863l6.061-37.02
				c-0.485-4.253-4.092-3.152-6.704-0.203c-2.317,2.617-3.279,7.111-3.279,7.111l-3.594,17.667l3.316,0.472
				c0,0,2.342-15.722,3.451-19.64c0.917-3.238,4.731-10.896,6.792-5.341"/>
			<path fill="none" stroke="#FFFFFF" stroke-miterlimit="10" d="M224.453,902.215c0,0-2.255-4.25-4.65-7.037"/>
			<path fill="none" stroke="#FFFFFF" stroke-miterlimit="10" d="M233.717,922.062c0,0-1.918-5.819-3.915-9.714"/>
			<path fill="none" stroke="#FFFFFF" stroke-miterlimit="10" d="M319.561,1085.25l-9.785,0.238c0,0-9.669-13.22-23.531-13.042"/>
			<line fill="none" stroke="#FFFFFF" stroke-miterlimit="10" x1="319.542" y1="1062.476" x2="263.164" y2="1063.169"/>
			<polyline fill="none" stroke="#FFFFFF" stroke-miterlimit="10" points="263.078,1064.539 235.444,1064.686 219.138,1064.255 			
				"/>
			<polyline fill="none" stroke="#FFFFFF" stroke-miterlimit="10" points="263.471,1058.308 235.436,1058.408 219.556,1058.523 			
				"/>
			<line fill="none" stroke="#FFFFFF" stroke-miterlimit="10" x1="349.485" y1="1061.811" x2="318.976" y2="1062.482"/>
			<path fill="none" stroke="#FFFFFF" stroke-miterlimit="10" d="M182.481,1016.157l-42.616-2.283L182.481,1016.157z"/>
			<polyline fill="none" stroke="#FFFFFF" stroke-miterlimit="10" points="182.425,1016.169 183.897,1006.21 143.251,1003.939 			
				"/>
			<line fill="none" stroke="#FFFFFF" stroke-miterlimit="10" x1="181.359" y1="993.551" x2="178.846" y2="1006.059"/>
			<polyline fill="none" stroke="#FFFFFF" stroke-miterlimit="10" points="147.754,991.256 197.591,994.653 200.884,986.509 
				150.943,982.614 			"/>
			<polyline fill="none" stroke="#FFFFFF" stroke-miterlimit="10" points="200.869,986.74 199.721,984.318 151.706,980.586 			"/>
			<line fill="none" stroke="#FFFFFF" stroke-miterlimit="10" x1="216.518" y1="956.279" x2="212.827" y2="963.106"/>
			<path fill="none" stroke="#FFFFFF" stroke-miterlimit="10" d="M223.719,945.172c0,0-9.542,16.418-18.792,36.927
				c-11.917,26.418-19.591,51.383-24.782,75.576"/>
			<path fill="none" stroke="#FFFFFF" stroke-miterlimit="10" d="M176.971,1015.862c0,0-5.927,26.462-7.858,41.818l20.84-0.011
				c5.433-22.035,8.058-32.84,13.693-49.356c4.071-11.933,9.669-26.694,21.544-52.847"/>
			<path fill="none" stroke="#FFFFFF" stroke-miterlimit="10" d="M195.12,994.485c0,0-7.592,19.672-10.711,31.286"/>
			<path fill="none" stroke="#FFFFFF" stroke-miterlimit="10" d="M189.772,994.121c0,0-10.786,63.555-10.713,63.555"/>
			<polyline fill="none" stroke="#FFFFFF" stroke-miterlimit="10" points="189.953,1057.67 194.179,1062.476 192.56,1083.861 
				161.828,1083.861 161.967,1077.011 			"/>
			<path fill="none" stroke="#FFFFFF" stroke-miterlimit="10" d="M169.112,1057.681c-0.662,0.479-5.359,4.77-5.359,4.77"/>
			<line fill="none" stroke="#FFFFFF" stroke-miterlimit="10" x1="101.682" y1="1062.833" x2="194.179" y2="1062.476"/>
			<path fill="none" stroke="#FFFFFF" stroke-miterlimit="10" d="M128.416,1056.74"/>
			<line fill="none" stroke="#FFFFFF" stroke-miterlimit="10" x1="176.148" y1="1063.059" x2="175.174" y2="1083.861"/>
			<line fill="none" stroke="#FFFFFF" stroke-miterlimit="10" x1="193.877" y1="1065.719" x2="101.08" y2="1066.089"/>
			<line fill="none" stroke="#FFFFFF" stroke-miterlimit="10" x1="178.349" y1="1057.676" x2="175.958" y2="1062.736"/>
			<line fill="none" stroke="#FFFFFF" stroke-miterlimit="10" x1="171.365" y1="1065.842" x2="170.473" y2="1083.861"/>
			<path fill="none" stroke="#FFFFFF" stroke-miterlimit="10" d="M145.69,1072.477c14.378-1.367,18.981,7.836,18.981,7.836
				l4.931-0.081c0,0-15.313-17.731-42.643-0.48"/>
			<polyline fill="none" stroke="#FFFFFF" stroke-miterlimit="10" points="130.271,1063.037 126.127,1083.952 97.806,1083.82 
				101.682,1062.833 107.581,1056.976 128.416,1056.74 130.207,1062.723 			"/>
			<polyline fill="none" stroke="#FFFFFF" stroke-miterlimit="10" points="114.094,1057.232 110.571,1062.439 106.697,1083.861 			
				"/>
			<path fill="none" stroke="#FFFFFF" stroke-miterlimit="10" d="M254.833,855.375c0,0-3.972-0.119-6.444,10.545l-9.873,81.795
				l-5.429-1.245l-1.917-9.561l11.997-69.942c0,0,0.052-3.043-1.283-4.354c-1.853-1.817-8.542,2.281-10.524,11.773
				c-1.723,8.259-7.017,41.542-7.017,41.542l4.888,1.005c0,0,4.554-38.012,5.232-42.032c0.642-3.808,3.959-13.015,8.223-10.648"/>
			<path fill="none" stroke="#FFFFFF" stroke-miterlimit="10" d="M255.251,853.681c0,0-7.863,0.155-10.492,13.662l-11.064,79.005"/>
			<path fill="none" stroke="#FFFFFF" stroke-miterlimit="10" d="M275.23,842.759c0,0-7.393,80.777-7.174,80.449"/>
			<line fill="none" stroke="#FFFFFF" stroke-miterlimit="10" x1="349.661" y1="1076.521" x2="560.67" y2="1074.001"/>
			<line fill="none" stroke="#FFFFFF" stroke-miterlimit="10" x1="218.031" y1="1078.093" x2="192.782" y2="1078.395"/>
			<path fill="none" stroke="#FFFFFF" stroke-miterlimit="10" d="M-102.094,1081.916"/>
			<line fill="none" stroke="#FFFFFF" stroke-miterlimit="10" x1="113.252" y1="1056.912" x2="145.595" y2="912.047"/>
			<path fill="none" stroke="#FFFFFF" stroke-miterlimit="10" d="M429.681,897.542c1.724-3.486,7.447-5.905,14.148-5.67
				c4.791,0.168,8.984,1.655,11.527,3.804c0.881,0.104,1.732,0.26,2.543,0.465c1.541-1.485,4.129-2.412,7.031-2.311
				c3.107,0.109,5.771,1.369,7.137,3.142c0.4-0.044,0.814-0.062,1.237-0.047c3.267,0.115,5.852,2.021,5.772,4.257
				c-0.078,2.236-2.79,3.956-6.057,3.842c-0.001,0-0.003-0.001-0.004-0.001c-1.267,1.602-4.151,2.655-7.469,2.539
				c-0.33-0.012-0.652-0.038-0.971-0.071c-2.267,2.382-6.603,3.902-11.523,3.729c-3.794-0.133-7.171-1.246-9.479-2.909
				c-0.107-0.003-0.214-0.003-0.322-0.007c-3.003-0.105-5.771-0.729-8.046-1.708c-1.145,0.573-2.542,0.892-4.045,0.839
				c-3.74-0.132-6.692-2.48-6.596-5.247C424.647,899.89,426.809,898.032,429.681,897.542z"/>
			<g>
				<defs>
					<polygon id="SVGID_3_" points="515.737,906.545 534.507,942.192 563.71,1007.832 570.74,1027.771 563.138,1028.284 
						553.841,1039.875 560.901,1073.828 349.853,1077.113 349.333,1056.25 342.625,1049.889 348.752,1012.407 355.998,978.617 
						369.189,934.162 389.786,882.537 477.16,845.186 502.27,882.846 					"/>
				</defs>
				<clipPath id="SVGID_4_">
					<use xlink:href="#SVGID_3_"  overflow="visible"/>
				</clipPath>
				<path clip-path="url(#SVGID_4_)" fill="none" stroke="#FFFFFF" stroke-miterlimit="10" d="M382.561,1060.98l4.018-0.456
					l3.916,0.914l2.562-3.757l2.205-2.819l4.878-1.336l5.251-1.337l2.277,0.568l5.326,2.049l4.068-3.788l1.822-3.119l4.138-0.703
					l4.141-0.39l4.814-4.42l3.369-1.303l6.386-1.365l5.201-3.804l2.951-3.455c2.604-1.595,6.37-1.982,6.37-1.982
					s2.639-0.054,3.771-0.077c1.132-0.023,5.991-2.286,5.991-2.286l1.072-2.79l1.082-2.493c0,0,3.344-2.534,4.488-1.944
					c1.142,0.593,4.568,2.066,4.568,2.066l6.063,1.423c0,0,3.024,0.243,3.378-0.998c0.352-1.241,1.781-4.973,1.781-4.973
					c-0.051-2.465,2.183-4.053,3.315-4.076c1.129-0.022,3.378-0.689,4.504-1.021c1.124-0.329,1.092-1.87,1.092-1.87
					s1.863-1.271,2.989-1.605c1.123-0.331,4.169,1.151,4.169,1.151l8.319,0.75l7.093-3.532l2.157-5.291l-0.114-5.547l1.815-3.432
					l4.916,0.516l8.319,1.063c0,0,7.178,0.468,6.406-0.442c-0.772-0.908-0.083-4.003-0.083-4.003l1.854-1.583l8.25-2.326
					c0,0,1.933,2.117,1.952,3.046c0.019,0.921,3.837,3.312,3.837,3.312l6.067,1.415l-4.084,3.167c0,0,4.929,1.133,6.058,1.11
					c1.133-0.023,7.181,0.471,7.181,0.471s-2.188,3.742-2.176,4.364c0.013,0.613,0.458,3.996,3.482,4.242
					c3.024,0.248,4.609,3.92,4.609,3.92s-2.215,2.509-1.804,4.042c0.408,1.538,4.709,7.766,4.352,8.701"/>
				<path clip-path="url(#SVGID_4_)" fill="none" stroke="#FFFFFF" stroke-miterlimit="10" d="M430.098,1005.88
					c-0.987,1.69,0.48,1.966-0.561,2.752c-1.041,0.788-4.171,6.052-4.501,6.615c-0.329,0.563-0.52,0.395-0.423,2.021
					c0.098,1.626,1.662,3.528-0.009,2.902c-1.669-0.627-2.882-2.729-3.946-2.305c-1.061,0.427-3.349-1.431-3.676-0.867
					c-0.33,0.563-1.457-0.095-1.53,1.724c-0.072,1.818,2.5,2.39-0.072,1.818c-2.572-0.572-5.782,0.346-5.666-0.75
					c0.115-1.095,0.177-3.095,0.177-3.095s-0.097-1.624,0.436-1.837c0.53-0.214,2.529-0.151,2.974-1.811
					c0.443-1.659,1.42-3.531,0.506-3.658s-3.541-1.601-3.986,0.057c-0.444,1.659-1.03,0.968-1.337,1.895
					c-0.308,0.926-1.349,1.712-1.349,1.712s-0.99-1.392-1.127-0.657c-0.137,0.733-0.968-1.031-1.381,1.171
					c-0.412,2.201,0.353,2.879,0.353,2.879s-1.89,1.746-3.674,2.215c-1.786,0.469-4.497,0.631-5.4,0.685
					c-0.902,0.054-2.445-1.485-2.667,0.886s0.693,2.498,0.747,3.399c0.054,0.903,1.096,0.116-1.211,0.979
					c-2.305,0.864-4.632,1.366-4.78,1.919c-0.149,0.553,0.353,2.882,0.216,3.613c-0.139,0.733-0.594,2.213-1.273,2.978l-3.08,3.087
					l-1.639,21.13c0,0-1.822,5.912-2,9.007c-0.178,3.091-1.99,9.183-0.945,11.479c1.044,2.295,2.586,3.833,4.256,4.46l-13.179,5.019
					l3.565-28.318l-1.039-5.258l-1.507-4.986l-1.166-3.315l-2.018-5.439l-1.448-4.024c0,0-0.385-2.394-1.166-3.316
					c-0.781-0.921-3.833-7.506-3.833-7.506l-2.1-2.777l-3.162,1.702l-1.415,0.628l-0.14-2.349c0.455-1.479,0.178-3.095,0.178-3.095
					l-1.17-1.38c0,0-0.447-1.424-0.979-1.211c-0.531,0.213-1.456-0.094-1.786,0.47c-0.329,0.563-1.838-0.434-1.838-0.434
					s-1.713-1.35-2.265-1.498c-0.554-0.147-3.892-1.4-3.892-1.4s-0.639-1.592-1.553-1.718c-0.915-0.128-4.254-1.379-4.254-1.379
					l-2.5-2.391c0,0-0.479-1.964-1.233-2.463c-0.756-0.499-3.181-1.624-3.181-1.624s-3.573-2.144-4.104-1.932
					c-0.531,0.213-1.966,0.48-1.753,1.012c0.214,0.531,0.257,1.255,0.257,1.255s-1.998-0.062-3.488-0.698
					c-1.487-0.638-3.995-0.124-3.995-0.124s-2.414-0.944-3.115-0.54c-0.702,0.404-1.403,0.81-1.924,1.204
					c-0.521,0.394-1.626,0.097-2.688,0.523c-1.063,0.425-2.02-0.425-2.338,0.32c-0.319,0.745-2.92,2.715-2.432,1.778
					c0.488-0.936,0.806-1.681,0.401-2.383c-0.404-0.7,0.38-2.74,0.38-2.74c-1.542-1.541-3.463-1.118-3.753-2.135
					c-0.458-1.604-0.122-5.068,0.857-3.858s1.746,1.889,1.746,1.889s0.562,0.329,1.094,0.117c0.532-0.214,1.415-0.629,1.415-0.629
					s0.827-1.317-0.3-1.975c-1.127-0.659-1.723-1.53-1.723-1.53s-1.138-0.839-0.47-1.786c0.668-0.946,1.656-2.636,1.656-2.636
					l1.041-0.788c0,0,1.327-2.075,1.392-0.99c0,0,0.456-1.478-0.108-1.808c-0.563-0.329-0.799-1.222-1.204-1.924
					c-0.403-0.699-1.584-2.262-0.659-1.953c0.924,0.308,2.5,2.389,2.5,2.389l1.646,0.264l1.67,0.626l1.221-0.799l0.117-1.095
					c0,0,0.499-0.753,1.233-0.616c0.733,0.138,1.678,0.805,1.828,0.253c0.147-0.552-0.13-2.169-0.13-2.169s-0.354-2.88-0.895-2.848
					c-0.542,0.032-0.255-1.253,0.308-0.927c0.562,0.33,1.383,1.914,1.383,1.914l1.222-0.8l1.485-2.443c0,0,0.542-0.032-0.99-1.393
					c-1.532-1.359-2.713-2.922-2.713-2.922s-0.119-1.986,0.796-1.858c0.915,0.126,1.871,0.975,1.871,0.975s1.37-1.351,1.699-1.914
					c0.329-0.563,0.966-2.053,1.561-1.182c0.596,0.872,2.306-0.863,2.709-0.161c0.405,0.7,1.024,1.933,1.024,1.933
					s1.286,0.287,1.5,0.816c0.212,0.531,3.613-0.216,2.923,0.369c-0.691,0.585,3.592-0.578,3.592-0.578s0.528-3.294,0.315-3.825
					c-0.212-0.531,0.242-2.011,0.209-2.553c-0.033-0.542,0.518-3.475,0.518-3.475s4.695-3.364,4.623-1.546
					c-0.074,1.817-0.34,0.383-0.074,1.817c0.268,1.436-0.795,1.861-1.464,2.808c-0.668,0.946-0.455,1.478-0.189,2.912
					c0.267,1.437,2.628,1.476,1.619,2.807c-1.008,1.327-2.963,1.988-0.254,1.826c2.711-0.162,3.719-1.491,4.464-1.174
					c0.744,0.318,3.22-0.736,3.783-0.407c0.563,0.329,2.7-0.342,2.635-1.425c-0.065-1.085,0.285-1.287,0.23-2.19
					c-0.054-0.903,0.031-2.541,0.626-1.67c0.596,0.871,4.207-2.426,3.741-1.131c-0.468,1.298-0.243,2.011,0.65,1.775
					c0.893-0.234,3.221-0.736,3.221-0.736l2.666-0.886c0,0,0.232-2.188,1.125-2.424c0.891-0.233,1.412-0.628,1.987-0.118
					c0.574,0.511,3.592-0.576,3.104,0.359c-0.488,0.934-1.114,2.604-1.114,2.604s1.33,0.521,1.703,1.168
					c0.808,1.402,4.252,1.378,4.252,1.378s1.869-2.106,2.017-2.659c0.149-0.554,1.136-2.244,1.136-2.244l2.668-0.883l-0.913,2.954
					c0,0-0.817,1.5,0.086,1.445c0.904-0.054,4.25-1.704,3.697-1.854c-0.552-0.147,1.432-3.349,1.497-2.266
					c0.064,1.085,2.988,1.454,1.109,3.38s-1.847,2.468-1.158,1.883c0.691-0.585,4.281-4.246,4.281-4.246
					c1.266-0.076,2.891,1.782,2.872,2.549c-0.051,2.179,1.926,1.881,0.014,3.263c-1.912,1.384-1.464,2.808-1.464,2.808l1.361,1.552
					c0,0,2.526-3.234,2.844-3.979c0.319-0.744,0.817-1.5,0.573-2.571c-0.247-1.073-0.365-3.062-0.972-4.113
					c-0.606-1.053-2.457-1.666-0.927-3.389c1.529-1.725,6.712-6.023,6.065-4.715c-0.648,1.308-0.752,2.582-1.368,4.434
					c-0.614,1.851-0.261,4.729-0.261,4.729l1.417,2.454c1.369-1.351,2.94-5.434,2.567-5.592c-0.373-0.16-1.172-1.382,0.083-1.638
					c1.253-0.256,4.878-0.292,3.498,0.878c-1.381,1.169-2.197,2.67-1.793,3.371s1.777,2.434,2.616,1.296
					c0.839-1.14,2.654-4.148,3.896-4.586c1.244-0.437,2.275-1.405,3.039-0.725c0.767,0.68,3.105,0.357,1.225,2.282
					c-1.879,1.927-2.059,1.938-2.504,3.597c-0.446,1.657,2.254,1.315,1.765,2.249c-0.488,0.937-2.931,2.534-2.186,2.853
					c0.745,0.317,4.9,0.069,4.9,0.069s4.929-2.472,4.09-1.332c-0.839,1.138,3.231-0.557,1.586,2.263
					c-1.646,2.817,1.756,2.07-0.857,3.858c-2.612,1.789-6.248,1.643-5.854,2.163c0.394,0.521,2.116,2.049,2.85,2.187
					c0.734,0.138,2.818,1.645,2.818,1.645s3.954-0.598,2.299,2.04c-1.656,2.637-1.4,3.891-2.069,4.837
					c-0.668,0.947-1.976,0.301-2.623,1.609c-0.648,1.309,3.537-1.481,2.062,1.146c-1.475,2.625-3.035,3.807-2.451,4.497
					c0.586,0.691,0.661,1.955,1.373,1.732c0.713-0.224,3.795-0.228,3.795-0.228s4.141-3.512,3.209-0.918
					c-0.934,2.595-2.079,4.657-2.216,5.392c-0.139,0.733,1.871,0.977,2.456,1.667s3.849,0.677,3.382,1.973
					C427.631,1004.031,431.085,1004.188,430.098,1005.88z"/>
				<path clip-path="url(#SVGID_4_)" fill="none" stroke="#FFFFFF" stroke-miterlimit="10" d="M519.933,1008.202
					c0,0-4.503-2.489-6.015-2.698c-1.512-0.211-7.032-2.279-7.032-2.279l-4.134-3.952c0,0-0.792-3.248-2.04-4.072
					c-1.249-0.824-5.258-2.685-5.258-2.685s-5.908-3.545-6.786-3.193c-0.879,0.352-3.251,0.795-2.898,1.673
					c0.354,0.878,0.425,2.074,0.425,2.074s-3.304-0.104-5.768-1.155c-2.459-1.053-6.605-0.205-6.605-0.205s-3.99-1.56-5.148-0.893
					c-1.161,0.67-2.321,1.339-3.182,1.991c-0.859,0.651-2.688,0.16-4.443,0.865c-1.759,0.703-3.34-0.701-3.866,0.53
					s-4.828,4.487-4.021,2.939c0.808-1.547,1.334-2.779,0.664-3.939c-0.667-1.158,0.628-4.531,0.628-4.531
					c-2.548-2.547-5.726-1.849-6.205-3.529c-0.757-2.651-0.202-8.379,1.417-6.378c1.618,2,2.886,3.123,2.886,3.123
					s0.93,0.544,1.808,0.192c0.881-0.354,2.339-1.038,2.339-1.038s1.367-2.18-0.496-3.267c-1.863-1.089-2.849-2.529-2.849-2.529
					s-1.882-1.387-0.776-2.952c1.104-1.565,2.737-4.357,2.737-4.357l1.721-1.304c0,0,2.193-3.431,2.301-1.637
					c0,0,0.753-2.443-0.179-2.988c-0.932-0.544-1.321-2.02-1.99-3.181c-0.667-1.156-2.62-3.738-1.09-3.229
					c1.527,0.509,4.134,3.949,4.134,3.949l2.721,0.436l2.762,1.035l2.019-1.321l0.192-1.81c0,0,0.825-1.245,2.039-1.019
					c1.212,0.229,2.774,1.331,3.021,0.419c0.244-0.913-0.215-3.586-0.215-3.586s-0.586-4.762-1.479-4.708
					c-0.896,0.054-0.423-2.072,0.509-1.532c0.93,0.545,2.286,3.163,2.286,3.163l2.021-1.321l2.456-4.04c0,0,0.896-0.053-1.637-2.302
					c-2.533-2.248-4.485-4.831-4.485-4.831s-0.196-3.283,1.315-3.072c1.512,0.209,3.093,1.611,3.093,1.611s2.265-2.232,2.81-3.164
					c0.544-0.933,1.598-3.394,2.581-1.953c0.985,1.44,3.812-1.428,4.479-0.268c0.669,1.158,1.692,3.196,1.692,3.196
					s2.126,0.474,2.479,1.349c0.352,0.879,5.974-0.356,4.833,0.611c-1.143,0.967,5.938-0.955,5.938-0.955s0.873-5.447,0.521-6.325
					c-0.352-0.879,0.399-3.324,0.346-4.22c-0.054-0.896,0.857-5.745,0.857-5.745s7.762-5.562,7.643-2.557
					c-0.122,3.006-0.562,0.634-0.122,3.006c0.443,2.372-1.315,3.077-2.42,4.641c-1.104,1.565-0.753,2.443-0.312,4.815
					c0.441,2.374,4.345,2.44,2.676,4.64c-1.667,2.194-4.899,3.287-0.42,3.019c4.482-0.268,6.149-2.465,7.381-1.94
					c1.229,0.527,5.324-1.217,6.254-0.672c0.932,0.544,4.464-0.566,4.357-2.355c-0.107-1.795,0.471-2.128,0.381-3.622
					c-0.089-1.494,0.051-4.202,1.035-2.762c0.985,1.44,6.956-4.01,6.185-1.869c-0.772,2.146-0.401,3.324,1.075,2.935
					c1.476-0.387,5.324-1.217,5.324-1.217l4.408-1.464c0,0,0.384-3.617,1.86-4.007c1.474-0.387,2.334-1.039,3.285-0.196
					c0.95,0.845,5.938-0.953,5.132,0.595c-0.808,1.543-1.843,4.305-1.843,4.305s2.198,0.861,2.815,1.931
					c1.337,2.319,7.03,2.277,7.03,2.277s3.089-3.481,3.334-4.396c0.246-0.916,1.877-3.711,1.877-3.711l4.411-1.46l-1.509,4.885"/>
				<g clip-path="url(#SVGID_4_)">
					<g>
						<path fill="none" stroke="#FFFFFF" stroke-miterlimit="10" d="M584.76,1001.043c-0.312,0.932-1.314,1.431-2.243,1.12
							c-0.928-0.309-1.43-1.312-1.118-2.242c0.31-0.927,1.313-1.429,2.241-1.119C584.568,999.111,585.069,1000.116,584.76,1001.043z
							"/>
						<path fill="none" stroke="#FFFFFF" stroke-miterlimit="10" d="M575.27,982.834c0.901,1.487,7.486,13.6,7.486,13.6
							s0.796,2.162,0.294,2.237c-0.5,0.073-1.738-1.512-1.738-1.512c-6.275-12.654-6.251-12.668-6.954-13.972
							C573.612,981.803,574.364,981.351,575.27,982.834z"/>
						<path fill="none" stroke="#FFFFFF" stroke-miterlimit="10" d="M573.824,1017.602c0.69-1.596,6.781-13.964,6.781-13.964
							s1.307-1.898,1.656-1.533c0.351,0.367-0.229,2.295-0.229,2.295c-6.714,12.427-6.737,12.415-7.396,13.741
							C573.938,1019.549,573.133,1019.194,573.824,1017.602z"/>
						<path fill="none" stroke="#FFFFFF" stroke-miterlimit="10" d="M602.342,1004.737c-1.725-0.216-15.307-2.575-15.307-2.575
							s-2.19-0.719-1.937-1.161c0.251-0.436,2.264-0.423,2.264-0.423c13.816,2.94,13.811,2.968,15.269,3.228
							C604.18,1004.082,604.067,1004.952,602.342,1004.737z"/>
					</g>
					<rect x="581.102" y="1003.429" fill="none" stroke="#FFFFFF" stroke-miterlimit="10" width="4.034" height="36.309"/>
				</g>
				<g clip-path="url(#SVGID_4_)">
					<path fill="none" stroke="#FFFFFF" stroke-miterlimit="10" d="M533.958,1124.4l0.039-1.42l-0.142-6.401l0.947-4.764
						l0.914-2.409l0.444-1.573l1.758-0.104l2.557,0.103l-0.454-1.638l-0.584-0.38l-1.44,0.413l-1.729-0.395l-0.858,0.789
						l-0.701-0.969c0,0,0.248-1.29-0.093-1.094c-0.341,0.192-1.854,0.244-1.854,0.244l0.518-1.215l-0.771-1.947l-0.507-1.258
						l1.027-0.581l1.267,0.617c0,0,0.95-0.314,1.292-0.509c0.344-0.192,0.979-0.817,0.64-1.243s-0.431-1.52-0.431-1.52l-0.117-1.212
						c0,0,1.051-0.458,1.413,0.087c0.365,0.546,0.973,1.043,0.973,1.043s1.976-0.273,1.851,0.368
						c-0.126,0.642-0.468,0.838-0.25,1.289c0.217,0.452,1.162,1.203,1.312,0.848c0.345-0.811,0.402-2.43,0.402-2.43
						s0.563-0.979,0.93-1.052c0.367-0.073,2.198-1.059,2.198-1.059s0.732-0.146,1.219,0.373c0.483,0.521,2.823,0.793,2.823,0.793
						l-1.308-1.466l-0.948-0.923l1.1-0.839c0,0,0.909-1.173,0.518-1.218c-0.388-0.046-1.461-0.324-1.461-0.324
						s-1.83,0.366-1.759,0.72c0.071,0.359-1.024,0.579-1.024,0.579l-0.849-1.684l0.153-1.146c0,0,0.439-0.332,0.952-0.313
						c0.513,0.02,0.832-0.909,1.757-0.724c0.927,0.187,2.102-0.299,2.514-0.132c0.414,0.164,0.974,0.422,0.999-0.079
						c0.029-0.499-0.088-1.712-0.088-1.712s0.681,0.234,1.166,0.757c0.485,0.52,0.458,1.019,0.946,0.921
						c0.489-0.098,1.416,0.09,1.441-0.411c0.027-0.499-0.383-1.283-0.58-1.617c-0.191-0.33-0.578-1.614-0.137-1.331
						c0.436,0.285,0.58,0.377,1.411,0.09c0.831-0.292,0.617-1.36,1.151-1.22c0.538,0.137,0.95,0.301,1.291,0.73
						c0.339,0.426,0.812,3.422,0.955,4.136c0.142,0.709,0.935,3.397,0.935,3.397s-0.227-3.665-0.346-4.259
						c-0.119-0.596-0.379-2.523-0.449-2.877c-0.072-0.358-0.096-1.096-0.096-1.096s0.688-1.005,1.202-0.98
						c0.511,0.02,0.511,0.02,0.511,0.02l-1.505-1.183c0,0-0.606-1.114-0.19-0.948c0.411,0.163,0.807-0.411,0.807-0.411
						s0.879-0.67,1.245-0.744c0.365-0.073,0.1-0.763,0.1-0.763s-1.141-0.637-1.334-0.968c-0.195-0.334-0.437-0.903-0.437-0.903
						s-1.776-0.633-2.142-0.56c-0.368,0.074-1.677-0.774-1.169-0.755c0.514,0.023-0.215-1.071-0.04-1.476
						c0.172-0.404,1.246-0.744,1.246-0.744s-0.631-0.618,0.873,0.566c1.509,1.182,3.285,1.815,3.285,1.815l1.143,0.636
						c0,0,0.32-0.311,0.59-0.857c0.271-0.55-0.358-1.786-0.358-1.786s-1.386-0.588-1.314-0.23s-1.34-0.349-1.34-0.349l-1.383-1.207
						c0,0-1.413-0.706-0.705-0.354c0.705,0.354-2.531-1.223-2.531-1.223l-1.142-0.636l-1.701-1.516c0,0-1.457-0.944-1.141-1.254
						c0.318-0.312,0.104-1.381,0.277-1.787c0.173-0.404,0.008-1.855,0.008-1.855l-2.368,0.225c0,0-2.766-2.408-2.253-2.389
						c0.512,0.021,2.472-2.23,3.153-1.993c0.681,0.234,2.805,0.057,3.242,0.339c0.438,0.283,1.29,0.112,1.312,0.85
						c0.021,0.739,0.579,0.998,0.833-0.908c0.252-1.905,0.984-2.052,1.132-2.578c0.148-0.522,0.369-0.692,1.173-0.481
						c0.805,0.212,2.51,0.485,3.53,1.148c1.021,0.66,2.237,1.033,2.237,1.033s0.429-2.929,0.77-3.119
						c0.342-0.196,0.517-0.599,1.007-1.316c0.49-0.716-0.505-1.879-0.723-2.329c-0.216-0.45-1.578-0.92-1.82-1.49
						c-0.241-0.567-3.051,0.611-3.463,0.448c-0.414-0.165-1.535-0.062-1.632-0.54c-0.095-0.475-0.276-3.281-0.276-3.281
						s-0.68-0.854-1.388-0.587c-0.709,0.266-2.047-0.085-2.047-0.085l-0.986-3.017c0,0-1.043-0.78-1.558-0.803
						c-0.511-0.02-2.318,0.465-2.191-0.178c0.125-0.641-0.112-2.447-0.53-1.996c-0.413,0.456-1.734,1.463-1.734,1.463
						s-1.512,0.056-1.684,0.461c-0.174,0.407-1.094-1.019-1.39-0.586c-0.293,0.429-2.608,0.275-1.859,1.485
						c0.751,1.208-0.762,1.264-1.149,1.22c-0.393-0.049-1.852-0.374-1.73-0.398c0.122-0.024-1.289-0.729-0.729-1.089
						c0.565-0.358-0.018-1.356,0.692-1.625c0.707-0.264,1.782-0.601,1.542-1.171c-0.244-0.57-1.342-0.35-0.947-0.924
						c0.392-0.572,2.124-0.794,2.298-1.2c0.171-0.408,0.517-1.221,1.053-1.699c0.538-0.479,1.006-0.693,0.396-1.188
						c-0.604-0.5-2.616-2.938-2.616-2.938c-1.042-1.399-1.329-2.83-1.592-3.513c-0.269-0.691-2.385-1.751-2.36-1.629
						c0.023,0.117-1.182,2.339-0.718,2.736c0.461,0.406-0.083,1.503-0.106,2.001c-0.027,0.501-1.323,1.628-1.883,0.751
						c-0.556-0.88-2.105-5.236-2.68-5.772c-1.093-1.016-4.114-0.903-3.532-0.526s-0.472,2.074-0.472,2.074s-0.49,0.718-0.567,0.978
						c-0.073,0.263-3.213-0.841-3.213-0.841s-0.705-0.352-1.118-0.515c-0.413-0.167-1.464-0.326-1.464-0.326
						s-0.248,1.285,0.334,1.665c0.587,0.378,0.043,1.477-0.321,1.549c-0.368,0.074-2.169-0.06-2.169-0.06l-1.486-0.443l-2.264-1.156
						c0,0-2.068-0.201-2.488,0.251c-0.417,0.455-2.563,1.133-2.15,1.298c0.414,0.163,0.579,1.616,0.579,1.616l0.335,1.044
						c0,0-2.737,1.538-2.301,1.819c0.438,0.284,1.95,0.23,2.389,0.515c0,0,0.628,1.234,0.142,1.332
						c-0.489,0.098-2.319,0.465-2.319,0.465s-0.657-0.116,0.827,0.329c1.484,0.442,1.562-0.438,2.268-0.086
						c0.705,0.352,1.479,1.681,0.091,1.716c-1.392,0.029-2.221,0.321-2.221,0.321s-1.88,0.744-1.054,1.076
						c0.827,0.326,1.627,1.154,1.846,1.608c0.218,0.449-0.102,0.759,0.751,1.208c0.85,0.448,0.749,1.212,0.747,1.828
						c-0.004,0.618-0.423,1.69-0.423,1.69s-1.464,0.294-1.2,0.986c0.266,0.686-1.157,2.458-1.157,2.458l0.851,1.063
						c0,0,0.969,1.043,0.627,1.235c-0.34,0.194-1.009,1.931-0.181,2.26c0.826,0.334,0.824,0.95,0.383,1.286
						c-0.441,0.334-1.591,1.554-1.905,1.247c-0.318-0.308-2.437-0.748-1.972-0.965c0.465-0.218-1.186-2.112-0.819-2.186
						s0.129-1.259,0.302-1.667c0.172-0.406,0.836-2.146,0.94-2.908c0.101-0.763,0.104-2.003,0.104-2.003s-0.143-0.711-0.529-1.376
						c-0.386-0.662-2.453-2.105-1.844-2.228s0.934-1.051,0.203-1.521c-0.729-0.474-1.104,1.454-1.104,1.454s-1.536-0.063-1.44,0.413
						c0,0-1.818-2.105-1.405-1.944c0.414,0.167,0.517-1.213,0.517-1.213c-0.144-0.716-2.162-1.298-1.822-0.873
						c0.339,0.426,0.233,1.81,0.233,1.81s-0.491,0.714-0.54,1.096l-1.796-1.99c0,0-0.339-0.426-0.531-0.759
						c-0.194-0.332-3.022-0.505-2.633-0.461c0.392,0.046-0.849-0.445-0.385-0.664c0.461-0.218,0.247-1.284-0.144-1.334
						c-0.389-0.047-2.066-0.818-2.066-0.818l-1.93,0.507c-0.805,0.413-2.514,0.756-2.514,0.756s-0.393,0.568-0.174,1.024
						c0.216,0.45,0.85,0.446,0.677,0.851c-0.17,0.408-0.153,1.762-0.713,1.506c-0.561-0.261-1.632-0.542-1.56-0.183
						c0.071,0.355-0.904,0.551-0.053,0.999c0.851,0.443,0.874,0.564,0.703,0.974c-0.174,0.405-1.227,1.481-1.227,1.481l-0.884,0.669
						c0,0-0.926,0.435-0.588,0.858c0.341,0.43-1.026,0.578-1.026,0.578s-1.461-0.324-1.437-0.204
						c0.022,0.115-0.801-0.828-0.943-1.541c-0.144-0.716-0.843-2.307-0.843-2.307s-2.306-2.009-1.387-0.587
						c0.92,1.424,2.393,4.344,2.393,4.344l-0.103,1.377l-0.902-0.062l-2.288-0.654c0,0-0.632-0.615-0.947-0.925
						c-0.314-0.305-1.727-1.015-1.775-0.63c-0.053,0.381-0.858,0.79-0.664,1.119c0.194,0.334-0.027,0.502,0.433,0.904
						c0.462,0.398,0.606,1.115,0.606,1.115s-2.364-0.392-2.17-0.062c0.193,0.332-1.239-0.491-1.145-0.019
						c0.096,0.479-0.007,1.24,0.455,1.643c0.459,0.401,0.118,0.592,0.772,1.328c0.655,0.733-0.644,2.477-0.644,2.477l-2.975-0.269
						l-2.365,0.229c-0.051,0.382,1.722,2.252,1.722,2.252s-1.516,0.675-1.2,0.983c0.316,0.307-1.488,0.175-1.488,0.175
						s-0.78-0.092,0.119,0.592c0.898,0.685,3.483,0.91,3.483,0.91s2.853-0.323,3.196-0.518c0.342-0.192,1.606,0.423,1.606,0.423
						s-0.68-0.237,0.654,0.732c1.337,0.969,2.333,1.509,1.969,1.581c-0.366,0.074-1.56-0.181-1.71,0.343
						c-0.149,0.525-1.958,1.632-1.791,2.463c0.167,0.832,1.944,1.465,1.944,1.465s0.417-0.454,0.879-0.051
						c0.459,0.399,1.289,0.732,0.871,1.182c-0.417,0.456-1.152,1.223-1.348,1.51c-0.195,0.282-0.877,0.054-0.881,0.672
						c-0.002,0.615-1.585,0.317-1.585,0.317c1.067,0.897,0.824,0.946,1.602,1.038c0.782,0.091,1.946,0.846,1.946,0.846
						c0.46,1.022,1.41,1.322,1.41,1.322s1.027-0.574,0.753,0.594s-1.472,1.53-1.667,1.819c-0.196,0.285-0.609,0.122-0.781,0.528
						c-0.173,0.402-2.362-0.394-1.831,0.366c0.532,0.755-0.396,1.19,0.309,2.162c0.701,0.973,0.262,1.307,1.356,1.706
						c1.095,0.4,0.732-0.146,1.584,0.302c0.852,0.449,1.779,0.015,0.946,0.922c-0.834,0.912-2.736,0.92-2.396,1.347
						c0.339,0.426-1.051,0.459-0.834,0.912c0.219,0.446-2.298,1.198-2.518,1.368c-0.219,0.168-0.227,1.404-0.227,1.404l2.794,1.913
						c0,0-0.509-0.021-0.951,0.315c-0.441,0.332-1.271,0.626-1.271,0.626l2.896,1.151c-0.93,1.05-4.411,0.142-4.051,0.687
						c0.364,0.544-2.633,0.156-2.171,0.561c0.461,0.399-1.223,0.864-0.371,1.31c0.851,0.446,2.329,2.13,2.453,1.486
						c0.128-0.646,1.717-1.581,2.571-1.753c0.853-0.171,2.097-0.296,2.241-0.199c0.147,0.09,0.505,1.875,0.505,1.875
						s-2.371,1.464-3.154,1.993c-0.783,0.53-0.546,1.716-0.474,2.072c0.071,0.357,1.125-0.719,2.588-1.013
						c1.465-0.293,2.222-0.323,2.566-1.134c0.345-0.812,1.594-1.556,2.053-1.154c0.46,0.405,1.218,0.375,0.358,1.784
						c-0.86,1.407-2.576,3.609-2.576,3.609s1.361,0.466-1.027,0.575c-2.391,0.11-3.92-1.191-3.829,0.522
						c0.088,1.713,0.427,2.756,0.596,2.973c0.17,0.21,0.505,1.254,1.188,0.871c0.687-0.385,0.887-1.287,2.108-2.152
						c1.225-0.865,1.615-0.817,1.902-0.012c0.29,0.811,0.014,2.593-0.6,2.716c-0.61,0.122-1.026,1.198-1.079,1.578
						c-0.052,0.38,0.96-2.17,1.837-1.606c0.876,0.569,0.407,1.404-0.132,2.504c-0.544,1.098-1.911,1.865-1.911,1.865
						s1.562-0.441,2.76-1.421c1.2-0.981,1.398-1.886,1.938-2.364c0.538-0.479,0.47-1.455,1.181-2.341
						c0.71-0.886,0.72-2.739,1.572-2.91c0.854-0.172,0.247-0.669,1.397-1.271c1.149-0.602,2.98-1.585,3.64-1.471
						c0.657,0.115,0.806-0.407,0.563-0.977c-0.24-0.571-1.141-1.256-0.648-1.974c0.49-0.718,0.977-0.196,2.022-0.036
						c1.05,0.159-0.119-0.594,1.05,0.159c1.165,0.758,1.256,2.472,1.744,2.374c0.485-0.098,1.136,1.872,1.26,1.229
						c0.125-0.641,0.807,0.212,1.515-0.056c0.708-0.266,1.849,0.987,1.457,0.946c-0.39-0.048,0.41,0.781-0.349,1.429
						c-0.759,0.644,0.674,2.091,0.161,2.067c-0.511-0.02,0.912-1.791,1.229-2.099c0.318-0.312,0.394-0.574,0.435,0.902
						c0.042,1.474-1.33,2.861-1.206,2.837c0.119-0.024-1.224,0.864,0.119-0.024c1.345-0.889,3.225-1.636,3.545-1.947
						c0.318-0.31,1.461,0.324,1.221-0.245c-0.241-0.568,0.652,1.353,0.652,1.353s-2.128,1.419-1.178,1.724
						c0.948,0.302,5.807-0.794,5.955-1.317c0.147-0.525,0.564-0.982,0.564-0.982s0.179-1.641,0.86-1.407
						c0.681,0.233,3.287,0.576,2.896,1.151c-0.394,0.574-0.811,1.027-1.153,1.219c-0.34,0.195,2.212,1.534,2.773,1.176
						c0.563-0.361,0.858-0.79,1.174-0.483c0.316,0.307,3.025-0.732,3.657-0.115c0.632,0.618,1.095,0.399,1.8,0.754
						c0.707,0.354,3.362,0.312,3.701,0.74c0.341,0.425,1.325,3.444,1.325,3.444s-0.406,15.342-0.212,15.674"/>
				</g>
				<use xlink:href="#SVGID_3_"  overflow="visible" fill="none" stroke="#FFFFFF" stroke-miterlimit="10"/>
			</g>
			<path fill="none" stroke="#FFFFFF" stroke-miterlimit="10" d="M261.512,1026.49l7.363-3.996l1.379-3.383l-0.073-3.547
				l1.161-2.194l3.144,0.329l5.319,0.68c0,0,4.589,0.3,4.096-0.282c-0.494-0.58-0.052-2.56-0.052-2.56l1.185-1.012l5.275-1.488
				c0,0,1.235,1.354,1.248,1.948c0.012,0.589,2.454,2.118,2.454,2.118l3.879,0.904l-2.611,2.025c0,0,3.151,0.725,3.874,0.71
				c0.724-0.015,4.591,0.301,4.591,0.301s-1.4,2.393-1.392,2.791c0.008,0.392,0.293,2.555,2.227,2.712
				c1.934,0.159,2.947,2.507,2.947,2.507s-1.416,1.604-1.153,2.584c0.261,0.983,3.011,4.966,2.782,5.564"/>
			<path fill="none" stroke="#FFFFFF" stroke-miterlimit="10" d="M192.104,1049.502l3.531,1.118l1.457,0.363l3.406,1.31l2.601-2.422
				l1.165-1.994l2.646-0.449l2.648-0.25l3.078-2.825l2.154-0.833l4.083-0.873l3.325-2.433l1.887-2.209
				c1.665-1.02,4.98-0.715,4.98-0.715"/>
			<path fill="none" stroke="#FFFFFF" stroke-miterlimit="10" d="M257.352,1047.648l4.936,0.854l2.037,0.274l4.341,3.31l4.091-4.276
				l1.658-1.617l3.713-0.394l3.714-0.233l4.349-2.308l3.03-0.695l5.283-2.73l4.944,2.608l2.973-5.965
				c2.346-0.84,7.385,2.814,7.385,2.814"/>
			<line fill="none" stroke="#FFFFFF" stroke-miterlimit="10" x1="136.854" y1="916.326" x2="107.581" y2="1056.976"/>
			<line fill="none" stroke="#FFFFFF" stroke-miterlimit="10" x1="42.166" y1="953.485" x2="32.897" y2="1017.461"/>
			<line fill="none" stroke="#FFFFFF" stroke-miterlimit="10" x1="37.376" y1="954.175" x2="26.724" y2="1029.34"/>
		</g>
	</g>
	
		<line clip-path="url(#SVGID_2_)" fill="none" stroke="#FFFFFF" stroke-miterlimit="10" x1="561.684" y1="1086.202" x2="349.622" y2="1083.533"/>
	<polyline clip-path="url(#SVGID_2_)" fill="none" stroke="#FFFFFF" stroke-miterlimit="10" points="677.344,1174.49 
		33.885,1078.906 -53.907,1078.906 	"/>
	
		<line clip-path="url(#SVGID_2_)" fill="none" stroke="#FFFFFF" stroke-miterlimit="10" x1="958.344" y1="1163.822" x2="33.885" y2="1078.906"/>
	
		<line clip-path="url(#SVGID_2_)" fill="none" stroke="#FFFFFF" stroke-miterlimit="10" x1="450.678" y1="1194.488" x2="18.988" y2="1078.906"/>
	
		<line clip-path="url(#SVGID_2_)" fill="none" stroke="#FFFFFF" stroke-miterlimit="10" x1="427.507" y1="1194.529" x2="18.988" y2="1078.906"/>
	
		<line clip-path="url(#SVGID_2_)" fill="none" stroke="#FFFFFF" stroke-miterlimit="10" x1="253.593" y1="1194.488" x2="9.843" y2="1078.947"/>
	
		<line clip-path="url(#SVGID_2_)" fill="none" stroke="#FFFFFF" stroke-miterlimit="10" x1="232.343" y1="1194.488" x2="7.843" y2="1078.947"/>
	
		<line clip-path="url(#SVGID_2_)" fill="none" stroke="#FFFFFF" stroke-miterlimit="10" x1="202.343" y1="1194.488" x2="4.843" y2="1078.947"/>
	
		<line clip-path="url(#SVGID_2_)" fill="none" stroke="#FFFFFF" stroke-miterlimit="10" x1="113.926" y1="1192.488" x2="-13.99" y2="1079.488"/>
	
		<line clip-path="url(#SVGID_2_)" fill="none" stroke="#FFFFFF" stroke-miterlimit="10" x1="97.341" y1="1192.156" x2="-16.324" y2="1079.488"/>
	
		<line clip-path="url(#SVGID_2_)" fill="none" stroke="#FFFFFF" stroke-miterlimit="10" x1="45.341" y1="1192.822" x2="-23.324" y2="1078.822"/>
	
		<rect x="0" y="453.543" clip-path="url(#SVGID_2_)" fill="none" stroke="#FFFFFF" stroke-miterlimit="10" width="822.047" height="708.662"/>
	<g clip-path="url(#SVGID_2_)">
		<path fill="none" stroke="#FFFFFF" stroke-miterlimit="10" d="M60.793,208.938c11.181,55.763,65.453,91.903,121.213,80.722
			c55.765-11.182,91.905-65.45,80.724-121.213c-11.181-55.763-65.449-91.904-121.214-80.723
			C85.755,98.905,49.612,153.176,60.793,208.938z"/>
		<circle fill="none" stroke="#FFFFFF" stroke-miterlimit="10" cx="161.761" cy="188.693" r="48.665"/>
	</g>
	<g clip-path="url(#SVGID_2_)">
		<path fill="none" stroke="#FFFFFF" stroke-miterlimit="10" d="M127.894,344.856l6.482,2.401l-0.023-1.426l-5.298-4.171l0.68-3.229
			l-1.963-0.319l-0.329,2.229l-1.815-1.72c0,0,1.896-10.082,0.243-10.326c-0.006-0.001-0.01,0-0.016,0
			c-0.005,0-0.009-0.004-0.015-0.004c-1.649-0.27-2.905,9.911-2.905,9.911l-2.251,1.088l0.363-2.224l-1.967-0.292l-0.333,3.284
			l-6.316,2.366l-0.455,1.352l6.905-0.32l2.947,0.442l-0.623,8.266l-3.42,1.46l-0.167,0.658l3.663,0.009l0.454,0.488l0.581-0.328
			l3.492,1.104l0.042-0.677l-2.815-2.43l1.917-8.065L127.894,344.856z"/>
		<polygon fill="none" stroke="#FFFFFF" stroke-miterlimit="10" points="120.161,340.984 112.683,343.211 111.977,343.774 
			21.559,775.524 34.015,776.231 134.378,347.147 		"/>
		<polygon fill="none" stroke="#FFFFFF" stroke-miterlimit="10" points="120.669,352.926 117.935,353.741 117.676,353.946 
			66.454,595.29 67.702,596.998 69.255,597.238 71.009,595.55 125.867,355.18 		"/>
	</g>
	<g clip-path="url(#SVGID_2_)">
		<g>
			<circle fill="none" stroke="#FFFFFF" stroke-miterlimit="10" cx="115.581" cy="319.744" r="0.401"/>
		</g>
		<g>
			<circle fill="none" stroke="#FFFFFF" stroke-miterlimit="10" cx="315.246" cy="67.279" r="0.401"/>
		</g>
		<g>
			<circle fill="none" stroke="#FFFFFF" stroke-miterlimit="10" cx="258.671" cy="142.786" r="0.823"/>
		</g>
		<g>
			<circle fill="none" stroke="#FFFFFF" stroke-miterlimit="10" cx="705.617" cy="223.235" r="0.4"/>
		</g>
		<g>
			<circle fill="none" stroke="#FFFFFF" stroke-miterlimit="10" cx="741.626" cy="119.865" r="0.401"/>
		</g>
		<g>
			<circle fill="none" stroke="#FFFFFF" stroke-miterlimit="10" cx="691.684" cy="17.719" r="0.401"/>
		</g>
		<g>
			<circle fill="none" stroke="#FFFFFF" stroke-miterlimit="10" cx="26.174" cy="762.823" r="0.401"/>
		</g>
		<g>
			<circle fill="none" stroke="#FFFFFF" stroke-miterlimit="10" cx="38.304" cy="283.663" r="0.401"/>
		</g>
		<g>
			<circle fill="none" stroke="#FFFFFF" stroke-miterlimit="10" cx="310.247" cy="-18.054" r="0.823"/>
		</g>
		<g>
			<circle fill="none" stroke="#FFFFFF" stroke-miterlimit="10" cx="57.832" cy="358.74" r="0.401"/>
		</g>
		<g>
			<circle fill="none" stroke="#FFFFFF" stroke-miterlimit="10" cx="26.575" cy="365.416" r="0.401"/>
		</g>
		<g>
			<circle fill="none" stroke="#FFFFFF" stroke-miterlimit="10" cx="625.937" cy="73.287" r="0.401"/>
		</g>
		<g>
			<circle fill="none" stroke="#FFFFFF" stroke-miterlimit="10" cx="104.225" cy="113.993" r="0.401"/>
		</g>
		<g>
			<circle fill="none" stroke="#FFFFFF" stroke-miterlimit="10" cx="171.75" cy="68.768" r="1.774"/>
		</g>
		<g>
			<circle fill="none" stroke="#FFFFFF" stroke-miterlimit="10" cx="342.323" cy="109.275" r="1.747"/>
		</g>
		<g>
			<circle fill="none" stroke="#FFFFFF" stroke-miterlimit="10" cx="583.822" cy="172.2" r="1.747"/>
		</g>
		<g>
			<circle fill="none" stroke="#FFFFFF" stroke-miterlimit="10" cx="530.66" cy="231.172" r="1.747"/>
		</g>
		<g>
			<circle fill="none" stroke="#FFFFFF" stroke-miterlimit="10" cx="572.057" cy="157.106" r="0.902"/>
		</g>
		<g>
			<circle fill="none" stroke="#FFFFFF" stroke-miterlimit="10" cx="286.029" cy="263.269" r="1.458"/>
		</g>
		<g>
			<g>
				<circle fill="none" stroke="#FFFFFF" stroke-miterlimit="10" cx="209.74" cy="561.214" r="0.558"/>
			</g>
			<g>
				<circle fill="none" stroke="#FFFFFF" stroke-miterlimit="10" cx="250.392" cy="495.509" r="0.557"/>
			</g>
			<g>
				<circle fill="none" stroke="#FFFFFF" stroke-miterlimit="10" cx="168.825" cy="510.416" r="0.836"/>
			</g>
			<g>
				<circle fill="none" stroke="#FFFFFF" stroke-miterlimit="10" cx="211.552" cy="452.794" r="1.254"/>
			</g>
		</g>
		<g>
			<circle fill="none" stroke="#FFFFFF" stroke-miterlimit="10" cx="646.505" cy="67.51" r="1.257"/>
		</g>
		<g>
			<circle fill="none" stroke="#FFFFFF" stroke-miterlimit="10" cx="65.867" cy="252.543" r="1.234"/>
		</g>
		<g>
			<circle fill="none" stroke="#FFFFFF" stroke-miterlimit="10" cx="476.482" cy="36.788" r="0.601"/>
		</g>
		<g>
			<circle fill="none" stroke="#FFFFFF" stroke-miterlimit="10" cx="18.988" cy="13.592" r="0.601"/>
		</g>
		<g>
			<circle fill="none" stroke="#FFFFFF" stroke-miterlimit="10" cx="202.494" cy="98.584" r="0.61"/>
		</g>
		<g>
			<circle fill="none" stroke="#FFFFFF" stroke-miterlimit="10" cx="763.71" cy="283.366" r="0.297"/>
		</g>
		<g>
			<circle fill="none" stroke="#FFFFFF" stroke-miterlimit="10" cx="263.38" cy="88.025" r="1.113"/>
		</g>
		<g>
			<circle fill="none" stroke="#FFFFFF" stroke-miterlimit="10" cx="557.187" cy="239.669" r="0.4"/>
		</g>
		<g>
			<circle fill="none" stroke="#FFFFFF" stroke-miterlimit="10" cx="48.304" cy="381.064" r="0.558"/>
		</g>
		<g>
			<circle fill="none" stroke="#FFFFFF" stroke-miterlimit="10" cx="321.927" cy="334.14" r="0.648"/>
		</g>
		<g>
			<circle fill="none" stroke="#FFFFFF" stroke-miterlimit="10" cx="11.009" cy="140.077" r="0.401"/>
		</g>
		<g>
			<circle fill="none" stroke="#FFFFFF" stroke-miterlimit="10" cx="156.48" cy="310.777" r="0.864"/>
		</g>
		<g>
			<circle fill="none" stroke="#FFFFFF" stroke-miterlimit="10" cx="273.642" cy="214.872" r="0.601"/>
		</g>
		<g>
			<circle fill="none" stroke="#FFFFFF" stroke-miterlimit="10" cx="191.807" cy="495.509" r="1.254"/>
		</g>
		<g>
			<circle fill="none" stroke="#FFFFFF" stroke-miterlimit="10" cx="308.197" cy="202.406" r="0.902"/>
		</g>
		<g>
			<circle fill="none" stroke="#FFFFFF" stroke-miterlimit="10" cx="462.698" cy="860.409" r="0.558"/>
		</g>
		<g>
			<circle fill="none" stroke="#FFFFFF" stroke-miterlimit="10" cx="427.997" cy="856.537" r="0.557"/>
		</g>
		<circle fill="none" stroke="#FFFFFF" stroke-miterlimit="10" cx="666.755" cy="144.883" r="0.401"/>
		<g>
			<circle fill="none" stroke="#FFFFFF" stroke-miterlimit="10" cx="321.136" cy="119.465" r="0.401"/>
		</g>
		<g>
			<circle fill="none" stroke="#FFFFFF" stroke-miterlimit="10" cx="190.617" cy="569.928" r="0.557"/>
		</g>
		<g>
			<circle fill="none" stroke="#FFFFFF" stroke-miterlimit="10" cx="262.177" cy="374.642" r="2.825"/>
		</g>
		<g>
			<circle fill="none" stroke="#FFFFFF" stroke-miterlimit="10" cx="348.694" cy="200.96" r="0.601"/>
		</g>
		<g>
			<circle fill="none" stroke="#FFFFFF" stroke-miterlimit="10" cx="136.446" cy="582.806" r="1.254"/>
		</g>
		<g>
			<circle fill="none" stroke="#FFFFFF" stroke-miterlimit="10" cx="23.433" cy="472.814" r="0.557"/>
		</g>
		<g>
			<g>
				<circle fill="none" stroke="#FFFFFF" stroke-miterlimit="10" cx="625.937" cy="58.026" r="0.401"/>
			</g>
			<g>
				<circle fill="none" stroke="#FFFFFF" stroke-miterlimit="10" cx="596.523" cy="21.508" r="0.601"/>
			</g>
		</g>
		<g>
			<circle fill="none" stroke="#FFFFFF" stroke-miterlimit="10" cx="68.617" cy="583.369" r="0.557"/>
		</g>
		<g>
			<circle fill="none" stroke="#FFFFFF" stroke-miterlimit="10" cx="682.598" cy="186.024" r="0.401"/>
		</g>
		<g>
			<circle fill="none" stroke="#FFFFFF" stroke-miterlimit="10" cx="437.284" cy="9.294" r="0.401"/>
		</g>
		<g>
			<circle fill="none" stroke="#FFFFFF" stroke-miterlimit="10" cx="316.795" cy="16.925" r="1.13"/>
		</g>
		<g>
			<circle fill="none" stroke="#FFFFFF" stroke-miterlimit="10" cx="82.569" cy="665.95" r="0.551"/>
		</g>
		<g>
			<circle fill="none" stroke="#FFFFFF" stroke-miterlimit="10" cx="395.918" cy="926.337" r="1.234"/>
		</g>
		<g>
			<circle fill="none" stroke="#FFFFFF" stroke-miterlimit="10" cx="134.376" cy="56.724" r="0.901"/>
		</g>
		<g>
			<circle fill="none" stroke="#FFFFFF" stroke-miterlimit="10" cx="99.954" cy="503.289" r="1.254"/>
		</g>
		<g>
			<circle fill="none" stroke="#FFFFFF" stroke-miterlimit="10" cx="770.508" cy="80.961" r="0.859"/>
		</g>
		<g>
			<circle fill="none" stroke="#FFFFFF" stroke-miterlimit="10" cx="582.71" cy="64.872" r="0.602"/>
		</g>
		<g>
			<circle fill="none" stroke="#FFFFFF" stroke-miterlimit="10" cx="863.855" cy="185.727" r="0.297"/>
		</g>
		<g>
			<circle fill="none" stroke="#FFFFFF" stroke-miterlimit="10" cx="528.458" cy="188.887" r="0.456"/>
		</g>
		<g>
			<circle fill="none" stroke="#FFFFFF" stroke-miterlimit="10" cx="51.995" cy="86.425" r="0.683"/>
		</g>
		<g>
			<circle fill="none" stroke="#FFFFFF" stroke-miterlimit="10" cx="337.104" cy="188.277" r="0.401"/>
		</g>
	</g>
	<path clip-path="url(#SVGID_2_)" fill="none" stroke="#FFFFFF" stroke-miterlimit="10" d="M648.242,164.85
		c0,0,1.345-4.985,9.103-7.147c7.758-2.161,13.533,0.412,13.533,0.412s5.989-5.269,17.331-4.116
		c11.343,1.153,14.464,5.088,14.464,5.088s1.856-0.438,3.92-0.862c2.068-0.425,4.761-0.496,4.761-0.496s3.466-2.394,7.439-4.224
		c3.972-1.829,8.913-1.668,8.913-1.668s3.686-2.49,7.338-2.399c3.654,0.091,7.101,1.999,7.101,1.999s2.977-0.805,5.813,0.396
		c3.382,1.433,5.247,3.969,5.247,3.969s4.766-1.086,7.883-0.513c3.115,0.572,6.118,3.236,6.118,3.236s13.199,3.153,10.068,12.246
		c-3.929,11.408-20.306,5.436-20.306,5.436l-5.572,1.016c0,0,0.516,11.375-19.581,13.893c-29.358,3.678-42.542-7.149-42.542-7.149
		s-7.956,3.872-14.501,3.518c-6.544-0.355-12.83-3.493-12.83-3.493s-21.35,0.591-22.854-9.094
		C637.895,167.193,648.242,164.85,648.242,164.85z"/>
	<path clip-path="url(#SVGID_2_)" fill="none" stroke="#FFFFFF" stroke-miterlimit="10" d="M-43.585,647.418
		c4-8.098,17.291-13.722,32.857-13.181c11.127,0.387,20.869,3.837,26.777,8.824c2.046,0.24,4.023,0.604,5.908,1.077
		c3.577-3.451,9.586-5.605,16.328-5.371c7.218,0.251,13.406,3.175,16.58,7.29c0.929-0.103,1.89-0.143,2.873-0.108
		c7.587,0.264,13.592,4.688,13.411,9.882c-0.181,5.193-6.478,9.19-14.064,8.927c-0.003,0-0.006,0-0.009,0
		c-2.941,3.719-9.641,6.17-17.346,5.902c-0.765-0.026-1.514-0.087-2.253-0.164c-5.263,5.532-15.333,9.068-26.764,8.671
		c-8.812-0.306-16.655-2.888-22.016-6.75c-0.25-0.005-0.499-0.006-0.75-0.015c-6.973-0.242-13.404-1.688-18.688-3.961
		c-2.659,1.334-5.904,2.074-9.396,1.953c-8.686-0.303-15.546-5.756-15.323-12.182C-55.275,652.876-50.256,648.559-43.585,647.418z"
		/>
	<path clip-path="url(#SVGID_2_)" fill="none" stroke="#FFFFFF" stroke-miterlimit="10" d="M459.7,92.946
		c2.493-5.172,10.909-8.828,20.81-8.579c7.076,0.178,13.291,2.313,17.077,5.448c1.303,0.141,2.562,0.359,3.763,0.649
		c2.253-2.216,6.061-3.622,10.349-3.514c4.59,0.116,8.542,1.937,10.585,4.534c0.59-0.071,1.2-0.102,1.826-0.086
		c4.825,0.122,8.669,2.898,8.586,6.201s-4.062,5.882-8.888,5.761c-0.002,0-0.004,0-0.006,0c-1.848,2.382-6.092,3.982-10.992,3.858
		c-0.486-0.012-0.963-0.046-1.434-0.091c-3.312,3.55-9.693,5.859-16.963,5.676c-5.604-0.142-10.606-1.735-14.038-4.158
		c-0.159-0.002-0.317-0.001-0.477-0.005c-4.436-0.112-8.532-0.992-11.905-2.405c-1.683,0.864-3.741,1.354-5.962,1.299
		c-5.523-0.139-9.919-3.565-9.815-7.651C452.301,96.488,455.466,93.712,459.7,92.946z"/>
	
		<rect x="0" y="453.543" clip-path="url(#SVGID_2_)" fill="none" stroke="#FFFFFF" stroke-miterlimit="10" width="822.047" height="708.662"/>
	<path clip-path="url(#SVGID_2_)" fill="none" stroke="#FFFFFF" stroke-miterlimit="10" d="M232.575,397.471
		c0,0-5.452,2.37-11.443,2.651c-5.99,0.28-13.468-1.543-13.468-1.543s-4.266,2.514-11.443,2.776
		c-6.304,0.231-11.398-2.25-11.398-2.25s-19.453,5.117-23.862-6.202c-1.402-3.604,0.899-7.893,4.432-10.04
		c3.565-2.166,8.21-2.617,8.21-2.617s2.363-2.19,8.072-2.724c5.71-0.536,9.1,1.327,9.1,1.327s1.247-2.281,5.378-3.617
		c3.677-1.191,7.655-0.423,7.655-0.423s3.064-1.574,8.712-1.193c5.647,0.378,8.216,3.122,8.216,3.122s4.323,0.067,8.435,1.421
		c4.112,1.354,7.35,3.86,7.35,3.86s6.211,2.09,6.06,7.456C242.367,397.124,232.575,397.471,232.575,397.471z"/>
	<g clip-path="url(#SVGID_2_)">
		<defs>
			<path id="SVGID_5_" d="M-16.012-155.653c-5.229-4.489,16.484,990.885,16.484,990.885l-150.254,180.28l474.088,33.87
				c0,0,33.946-76.324,44.883-115.22c5.627-20.012,18.886-45.226,25.931-62.564c9.41-23.157,39.167-46.139,41.703-47.568
				c9.375-5.282,19.367,3.347,19.367,3.347l10.484,6.049l35.481,53.425l17.941,27.976l24.617,67.033l-35.671-3.615l-6.195,7.724
				l3.1,17.152l4.229,25.246l-55.065,150.032l-254.12,19.584L-122.99,967.156l118.948-18.888l41.321-11.19l42.845-15.333
				l37.908-17.896l31.963-19.085l35.763-23.991l57.247-42.63l62.929-52.229l45.724-41.683l61.948-62.17l49.931-54.956l73.807-89.337
				l106.872-131.629l172.112-222.573l-61.058-396.982L-16.012-155.653z"/>
		</defs>
		<clipPath id="SVGID_6_">
			<use xlink:href="#SVGID_5_"  overflow="visible"/>
		</clipPath>
		<g clip-path="url(#SVGID_6_)">
			<path fill="none" stroke="#FFFFFF" stroke-miterlimit="10" d="M443.32,378.843l-3.782-17.903l27.049-31.094l83.46,45.023
				c0,0,92.827,200.535,92.429,201.687"/>
			<polyline fill="none" stroke="#FFFFFF" stroke-miterlimit="10" points="467.41,365.356 437.642,398.124 443.32,378.843 
				471.872,346.911 			"/>
			<path fill="none" stroke="#FFFFFF" stroke-miterlimit="10" d="M472.536,349.055"/>
			<line fill="none" stroke="#FFFFFF" stroke-miterlimit="10" x1="466.587" y1="329.846" x2="583.599" y2="707.64"/>
			<path fill="none" stroke="#FFFFFF" stroke-miterlimit="10" d="M587.522,545.619"/>
			<path fill="none" stroke="#FFFFFF" stroke-miterlimit="10" d="M471.872,346.911c0.157,0.506-4.462,18.446-4.462,18.446
				L569.85,725.229"/>
			<line fill="none" stroke="#FFFFFF" stroke-miterlimit="10" x1="437.642" y1="398.124" x2="453.037" y2="470.983"/>
			<polyline fill="none" stroke="#FFFFFF" stroke-miterlimit="10" points="453.742,344.612 371.224,41.552 397.143,65.674 
				417.85,126.32 			"/>
			<polyline fill="none" stroke="#FFFFFF" stroke-miterlimit="10" points="525.734,361.754 465.104,215.477 456.994,224.53 
				425.663,145.808 417.499,155.165 404.363,116.32 431.69,137.949 440.538,156.924 			"/>
			<polyline fill="none" stroke="#FFFFFF" stroke-miterlimit="10" points="425.663,145.808 454.927,167.73 487.927,230.071 			"/>
			<polyline fill="none" stroke="#FFFFFF" stroke-miterlimit="10" points="465.104,215.477 504.453,241.346 524.61,277.894 			"/>
			<polyline fill="none" stroke="#FFFFFF" stroke-miterlimit="10" points="404.363,116.32 397.557,124.893 461.462,335.737 			"/>
			<polyline fill="none" stroke="#FFFFFF" stroke-miterlimit="10" points="371.224,41.552 359.685,66.633 423.457,448.329 			"/>
			<polyline fill="none" stroke="#FFFFFF" stroke-miterlimit="10" points="374.086,154.613 366.551,164.011 372.055,206.638 
				364.033,215.23 372.483,306.749 365.148,315.11 379.463,464.512 			"/>
			<line fill="none" stroke="#FFFFFF" stroke-miterlimit="10" x1="421.03" y1="156.118" x2="486.895" y2="341.065"/>
			<line fill="none" stroke="#FFFFFF" stroke-miterlimit="10" x1="403.189" y1="122.247" x2="474.186" y2="334.002"/>
			<line fill="none" stroke="#FFFFFF" stroke-miterlimit="10" x1="400.582" y1="125.642" x2="466.964" y2="330.316"/>
			<line fill="none" stroke="#FFFFFF" stroke-miterlimit="10" x1="424.22" y1="154.422" x2="495.355" y2="345.365"/>
			<line fill="none" stroke="#FFFFFF" stroke-miterlimit="10" x1="372.193" y1="161.965" x2="416.99" y2="447.377"/>
			<line fill="none" stroke="#FFFFFF" stroke-miterlimit="10" x1="369.147" y1="164.962" x2="411.793" y2="446.475"/>
			<line fill="none" stroke="#FFFFFF" stroke-miterlimit="10" x1="371.208" y1="212.068" x2="402.136" y2="442.619"/>
			<line fill="none" stroke="#FFFFFF" stroke-miterlimit="10" x1="368.376" y1="217.046" x2="397.033" y2="443.069"/>
			<path fill="none" stroke="#FFFFFF" stroke-miterlimit="10" d="M297.913,385.416"/>
			<polyline fill="none" stroke="#FFFFFF" stroke-miterlimit="10" points="458.094,822.646 402.343,462.808 325.219,562.952 
				342.581,919.269 			"/>
			<path fill="none" stroke="#FFFFFF" stroke-miterlimit="10" d="M402.343,462.808"/>
			<polyline fill="none" stroke="#FFFFFF" stroke-miterlimit="10" points="402.343,462.808 460.294,480.435 528.139,762.354 			"/>
			<polyline fill="none" stroke="#FFFFFF" stroke-miterlimit="10" points="325.219,562.952 337.484,517.936 398.92,441.983 
				402.705,465.27 			"/>
			<polyline fill="none" stroke="#FFFFFF" stroke-miterlimit="10" points="398.92,441.983 441.042,454.556 460.294,480.435 			"/>
			<path fill="none" stroke="#FFFFFF" stroke-miterlimit="10" d="M455.311,192.906"/>
			<path fill="none" stroke="#FFFFFF" stroke-miterlimit="10" d="M321.273,348.895"/>
			<path fill="none" stroke="#FFFFFF" stroke-miterlimit="10" d="M469.416,753.305l-50.31-278.504l31.258,9.501
				c28.792,129.065,26.962,124.14,52.308,241.577"/>
		</g>
		<path clip-path="url(#SVGID_6_)" fill="none" stroke="#FFFFFF" stroke-miterlimit="10" d="M560.803,544.638
			c1.706-0.783-69.358-188.141-69.358-188.141l51.975,27.359l48.564,115.485"/>
		<polyline clip-path="url(#SVGID_6_)" fill="none" stroke="#FFFFFF" stroke-miterlimit="10" points="355.713,495.399 
			345.648,346.315 268.098,443.95 263.182,666.775 		"/>
		<polyline clip-path="url(#SVGID_6_)" fill="none" stroke="#FFFFFF" stroke-miterlimit="10" points="619.543,477.963 
			519.174,284.163 592.338,199.958 743.918,404.918 		"/>
		
			<line clip-path="url(#SVGID_6_)" fill="none" stroke="#FFFFFF" stroke-miterlimit="10" x1="345.648" y1="346.315" x2="369.051" y2="355.84"/>
		<path clip-path="url(#SVGID_6_)" fill="none" stroke="#FFFFFF" stroke-miterlimit="10" d="M188.629,883.318
			c-0.108,2.386,13.409-150.042,13.409-150.042l75.781-83.999l-1.188,145.27"/>
		
			<line clip-path="url(#SVGID_6_)" fill="none" stroke="#FFFFFF" stroke-miterlimit="10" x1="277.82" y1="649.277" x2="330.854" y2="656.797"/>
		<polyline clip-path="url(#SVGID_6_)" fill="none" stroke="#FFFFFF" stroke-miterlimit="10" points="592.338,199.958 
			677.165,242.546 757.81,339.608 		"/>
		<polyline clip-path="url(#SVGID_6_)" fill="none" stroke="#FFFFFF" stroke-miterlimit="10" points="90.629,822.443 
			121.288,636.663 172.772,584.634 148.49,795.076 		"/>
		<polyline clip-path="url(#SVGID_6_)" fill="none" stroke="#FFFFFF" stroke-miterlimit="10" points="172.772,584.634 
			238.898,597.746 237.279,617.514 		"/>
		<polyline clip-path="url(#SVGID_6_)" fill="none" stroke="#FFFFFF" stroke-miterlimit="10" points="17.303,944.762 
			30.642,850.018 160.291,790.422 145.595,912.047 		"/>
		<polyline clip-path="url(#SVGID_6_)" fill="none" stroke="#FFFFFF" stroke-miterlimit="10" points="220.8,711.411 
			228.238,629.745 264.458,580.749 		"/>
		
			<line clip-path="url(#SVGID_6_)" fill="none" stroke="#FFFFFF" stroke-miterlimit="10" x1="160.291" y1="790.422" x2="196.364" y2="793.791"/>
		<use xlink:href="#SVGID_5_"  overflow="visible" fill="none" stroke="#FFFFFF" stroke-miterlimit="10"/>
	</g>
	
		<rect x="-0.001" y="0" clip-path="url(#SVGID_2_)" fill="none" stroke="#FFFFFF" stroke-miterlimit="10" width="822.048" height="1162.205"/>
	<path clip-path="url(#SVGID_2_)" fill="none" stroke="#FFFFFF" stroke-miterlimit="10" d="M757.994,1128.729l-1.086-0.417
		l-0.752-0.919l-0.418-1.671l-0.585-1.838v-2.757l-0.919-2.674v-2.172v-1.504l-0.668-1.336l-0.919-1.421l-0.752-2.005v-1.336
		l-1.921-3.008c0,0-2.089-3.843-2.172-4.094c-0.084-0.25-2.423-2.924-2.423-2.924l-2.005-2.256l-1.755-0.919l-0.752-1.671
		l-1.086-2.756l-0.752-3.844l-0.668-2.255v3.676v4.344l1.17,5.848l0.835,3.927l0.752,2.423l0.334,4.093l-0.585,3.509l0.669,2.841
		v2.506l-0.167,3.091l-0.752,0.752l0.25,2.172l0.669,2.089v3.008l-0.167,1.086l-0.502,0.417h-4.344l-2.924,0.502l-2.423,0.585
		l-6.684-0.669l-0.835-1.336l0.585-1.421l1.336-1.169l2.089-0.251l4.428-2.674l1.253-0.751l-0.083-1.504c0,0-1.254-0.418-1.17-0.669
		c0.084-0.25,0.668-3.007,0.668-3.007l-0.919-3.676l-2.172-13.868l-0.167-6.683l-0.418-4.512l-2.924-9.356l-1.587-8.02l0.083-5.096
		v-4.595l-2.589-4.011l-1.504-5.764l-0.585-3.927l0.418-1.086l-2.173-8.688v-1.67l0.836-2.006l-0.836-1.42l1.003-1.671l0.668-12.531
		l0.251-3.676l1.253-0.751l3.927-2.507l1.504-2.005l1.086-1.17l-0.836-2.506l0.084-0.919l0.209-1.713l-1.797-1.002l-0.417-0.919
		l1.921-2.799l-0.417-0.919l-0.418-2.005l-0.919-0.668l0.167-1.964l1.504-1.754l2.715-1.295l5.681-1.211l2.715-0.168l3.133,1.797
		l1.796,1.838l1.045,2.423l0.376,2.381l-0.418,2.965l-1.587,2.799v1.838c0,0,1.963,0.71,2.005,0.836
		c0.041,0.125,1.086,1.712,1.086,1.712l0.585,1.671l0.208,1.504l8.813,4.72l0.543,1.295l2.465,1.671l0.668,1.086l0.46,2.465
		l2.047,0.961l0.543,1.336v1.254l1.921,1.044l0.543,1.378l0.418,1.671l2.674,4.136l1.462,2.047l-0.669,0.584l0.669,1.337v1.629
		l-0.669,0.46l-0.042,1.211l-0.793,1.17c0,0-5.055,2.13-5.138,2.005c-0.084-0.125-4.888,1.462-4.888,1.462l-0.376,0.919
		l-1.211,0.627l-0.292,2.965l0.292,4.219l0.71,3.3l-0.042,3.426l-0.752,2.924l-1.086,0.961l-0.417,4.344l0.041,2.882l-0.877,5.138
		l-1.086,5.389l-0.961,4.637c0,0-0.083,2.005,0,2.13c0.084,0.125,0.251,1.128,0.251,1.128l2.799,2.924l1.504,1.713l0.793,2.423
		l0.71,2.548l0.961,2.924c0,0,2.256,4.302,2.256,4.469c0,0.168-0.418,1.337-0.418,1.337l1.295,2.339l0.334,1.128l0.293,3.635
		l0.543,1.545l0.376,2.089l-0.209,2.339l-0.836,2.339l-1.336,2.298L757.994,1128.729z"/>
	<g clip-path="url(#SVGID_2_)">
		<path fill="none" stroke="#FFFFFF" stroke-miterlimit="10" d="M525.066,1138.002h-1.938h-2.217l-1.523,1.386l-1.385,0.692
			l-13.021-1.039l-0.831-1.593l0.692-0.97l2.909-0.692l3.671-0.415l0.692-1.731l-0.277-1.247c0,0-0.139-1.939-0.069-2.146
			c0.069-0.208,0.762-4.155,0.762-4.155s-0.207-4.641-0.139-4.849c0.069-0.208,0.069-5.125,0-5.401
			c-0.068-0.277-0.692-5.541-0.831-5.749c-0.138-0.207-1.246-6.232-1.246-6.232l-0.208-3.879l-1.593-2.839l-1.385-2.632l0.207-10.25
			l0.485-11.704l-0.347-4.778l0.277-1.594l-0.9-2.839l-0.9-7.965l-0.762-7.133c0,0,1.108-5.333,0.97-5.61
			c-0.139-0.276,0.9-4.225,0.9-4.225l0.762-2.77l-1.662-1.524l0.484-1.731c0,0,0.069-1.662,0.208-1.869
			c0.139-0.208-0.347-2.355-0.347-2.355l-2.354,0.9l-2.146-0.069l-0.9-0.831v-1.8l-0.416-2.286l-1.107-0.484l0.415-2.632v-1.315
			l-0.415-1.455v-1.731l1.593-3.116l2.354-1.178l1.939-0.415h2.632l2.424,0.831l1.801,1.523l0.762,1.579l0.762,2.022l-0.208,2.354
			v1.247l0.623,3.047l1.108,1.385l1.593,1.247l4.986,2.008l2.493,3.394l2.354,3.187l3.048,5.263v3.532l1.385,5.333l1.386,3.463
			v14.197l1.315,2.909l0.554,1.731l2.009,0.623v2.424c0,0-2.701,0.97-2.909,0.865c-0.207-0.104-2.493-0.45-2.493-0.45l-2.632-1.038
			l-2.146,4.848l-1.385,3.324l-1.039,6.233l-0.762,7.756l-1.039,4.849l0.831,6.926l0.692,5.609c0,0,1.178,8.033,1.178,8.241
			s0.831,9.211,0.831,9.211l0.069,5.887L525.066,1138.002z"/>
		<path fill="none" stroke="#FFFFFF" stroke-miterlimit="10" d="M476.068,1060.713l1.246,1.87l1.767,1.87l1.87-1.559l1.35-2.39
			c0,0,1.559-0.831,1.87-1.039c0.312-0.207,1.767,0.728,1.767,0.728l-1.351,3.636l-1.039,2.909l-0.208,3.739
			c0,0-0.207,2.286-0.104,2.598s0.728,0.935,0.728,0.935l-0.624,0.831l0.312,5.194l-0.415,7.168l1.246,6.025l1.247,5.714
			l1.039,4.155l-0.52,10.181l-0.208,10.284l0.104,6.856l-1.454,1.974l-1.766,2.182l-0.728,2.805l1.247,0.936h6.129l1.974-1.767
			l9.661-0.104h1.351l1.143-1.87v-2.39l-1.143-1.038v-3.221v-6.648c0,0-0.623-7.584-0.623-7.896s0-4.052,0-4.052l-2.354-8.83v-4.467
			c0,0,1.523-5.298,1.627-5.609c0.104-0.312,1.974-7.479,1.974-7.792c0-0.312,1.87-4.467,1.975-4.778
			c0.104-0.312-0.416-3.947,0-4.259c0.415-0.312,0.935-2.598,0.935-3.013c0-0.416,0-5.299,0-5.299l0.642-3.002l0.709-14.242
			l0.727-5.194l-0.623-2.805l0.277-4.397l-3.948-1.628c0,0-1.004-0.728-1.107-1.039c-0.104-0.312,0.107-3.954,0.107-3.954
			l-0.107-4.356l-1.351-3.74l-1.835-2.735l-1.905-0.692l-4.882,1.039l-1.87,2.701l-1.454,2.7c0,0-0.416,4.144-0.416,4.772
			c0,0.63-0.728,5.305-0.728,5.305v3.532l-1.869,1.039l-0.624,3.22l-0.831,5.299l-3.844,1.454l-2.285,1.662l-1.559,3.324
			l0.936,2.285l-0.936,2.493L476.068,1060.713z M490.612,1127.821l1.506-6.337c0,0-0.363-4.051,0-4.362
			c0.364-0.312,1.091-4.883,1.091-4.883v-5.298l1.767,1.974l0.831,6.337v11.946v3.117l-4.156,2.597l-1.038-2.078V1127.821z"/>
	</g>
	<g clip-path="url(#SVGID_2_)">
		<defs>
			<polygon id="SVGID_7_" points="145.615,1090.236 61.303,1105.087 61.303,1016.909 151.189,1016.909 155.14,1063.955 
				149.321,1070.158 			"/>
		</defs>
		<clipPath id="SVGID_8_">
			<use xlink:href="#SVGID_7_"  overflow="visible"/>
		</clipPath>
		<g clip-path="url(#SVGID_8_)">
			<path fill="none" stroke="#FFFFFF" stroke-miterlimit="10" d="M68.658,1084.683h0.507h0.58l0.398,0.362l0.362,0.182l3.404-0.271
				l0.217-0.417l-0.181-0.254l-0.761-0.181l-0.959-0.108l-0.181-0.453l0.072-0.325c0,0,0.037-0.508,0.018-0.562
				c-0.018-0.055-0.199-1.087-0.199-1.087s0.055-1.213,0.037-1.268s-0.018-1.34,0-1.412s0.181-1.449,0.217-1.503
				c0.036-0.055,0.326-1.63,0.326-1.63l0.054-1.014l0.417-0.743l0.362-0.688l-0.054-2.681l-0.127-3.06l0.091-1.25l-0.073-0.416
				l0.235-0.742l0.235-2.083l0.199-1.865c0,0-0.29-1.394-0.253-1.467c0.036-0.072-0.235-1.104-0.235-1.104l-0.199-0.724l0.435-0.398
				l-0.127-0.453c0,0-0.018-0.435-0.054-0.489c-0.036-0.054,0.091-0.615,0.091-0.615l0.616,0.235l0.561-0.018l0.235-0.218v-0.471
				l0.109-0.598l0.29-0.127l-0.108-0.688v-0.344l0.108-0.38v-0.453l-0.417-0.814l-0.616-0.308l-0.507-0.109h-0.688l-0.634,0.218
				l-0.471,0.398l-0.199,0.413l-0.199,0.528l0.054,0.615v0.326l-0.163,0.797l-0.29,0.362l-0.417,0.326l-1.304,0.525l-0.652,0.887
				l-0.616,0.833l-0.797,1.376v0.924l-0.362,1.395l-0.362,0.905v3.712l-0.344,0.761l-0.145,0.452l-0.525,0.163v0.634
				c0,0,0.706,0.254,0.76,0.227c0.055-0.027,0.652-0.117,0.652-0.117l0.688-0.272l0.561,1.268l0.362,0.869l0.271,1.63l0.199,2.028
				l0.272,1.268l-0.217,1.811l-0.181,1.467c0,0-0.308,2.101-0.308,2.155c0,0.054-0.217,2.408-0.217,2.408l-0.018,1.539
				L68.658,1084.683z"/>
			<path fill="none" stroke="#FFFFFF" stroke-miterlimit="10" d="M81.144,1063.85l-0.244-0.651l0.244-0.598l-0.407-0.869
				l-0.598-0.435l-1.005-0.381l-0.217-1.385l-0.163-0.842l-0.489-0.272v-0.923c0,0-0.19-1.223-0.19-1.387
				c0-0.165-0.108-1.248-0.108-1.248l-0.38-0.706l-0.489-0.706l-1.277-0.272l-0.498,0.182l-0.479,0.715l-0.354,0.979l-0.028,1.139
				c0,0,0.055,0.952,0.028,1.034c-0.027,0.081-0.29,0.271-0.29,0.271l-1.032,0.426l0.072,1.149l-0.163,0.733l0.19,1.358l0.186,3.724
				l0.167,0.785c0,0,0,1.276,0,1.385s0.136,0.706,0.245,0.788c0.108,0.081-0.027,1.032,0,1.113c0.027,0.082,0.516,1.168,0.516,1.25
				c0,0.081,0.489,1.955,0.516,2.037c0.027,0.081,0.425,1.467,0.425,1.467v1.168l-0.616,2.309c0,0,0,0.978,0,1.06
				c0,0.081-0.163,2.063-0.163,2.063v1.739v0.842l-0.299,0.271v0.625l0.299,0.488h0.353l2.526,0.027l0.516,0.462h1.603l0.326-0.244
				l-0.19-0.733l-0.461-0.57l-0.38-0.517l0.027-1.793l-0.055-2.688l-0.136-2.662l0.271-1.087l0.326-1.493l0.326-1.576l-0.108-1.874
				l0.082-1.357l-0.163-0.218c0,0,0.163-0.163,0.19-0.244c0.027-0.082-0.027-0.68-0.027-0.68l-0.055-0.978l-0.271-0.761l-0.353-0.95
				c0,0,0.38-0.245,0.462-0.19s0.489,0.271,0.489,0.271l0.353,0.625l0.489,0.407l0.462-0.488l0.326-0.489L81.144,1063.85z
				 M77.667,1082.809l-0.271,0.544l-1.087-0.68v-0.814v-3.124l0.217-1.656l0.462-0.517v1.386c0,0,0.19,1.194,0.285,1.276
				c0.095,0.081,0,1.141,0,1.141l0.394,1.657V1082.809z"/>
		</g>
		<g clip-path="url(#SVGID_8_)">
			<path fill="none" stroke="#FFFFFF" stroke-miterlimit="10" d="M144.19,1090.613l-0.853-1.191l1.38-0.578l-0.713-1.101
				l-0.022-1.389l0.667-1.679l-0.034-2.038l-0.728-2.026l-0.774-4.898l-0.732-5.084l-1.389,0.022l-0.065-3.983l-0.021-1.327
				l-0.043-2.655l1.229-4.19l0.89-2.238l1.005-0.851l0.87-0.061c0,0-0.489-1.181-0.486-0.995c0.003,0.185-0.076-0.863-0.076-0.863
				l-1.186-0.723l0.353-1.117l0.669-1.571l1.147-0.667l1.792,0.079l1.312,0.905l0.339,1.368l0.251,0.722l-0.547,0.565l0.148,1.479
				l0.444,0.734l3.168,1.122l1.245,4.365l0.913,6.719l-0.398,2.106l-0.045,0.989l0.091,1.789l-0.787,1.002l-1.042,0.511
				l-0.568-0.731l-1.345,0.824l-1.763,5.526l-0.234,0.808l3.35,4.64l1.615,0.529l0.448,0.981l-1.149,1.501l-0.538,1.121
				l-0.721,1.186l-2.405,0.286l-0.263-0.984l0.48-0.811l0.104-1.176l-0.329-1.229l-1.315-1.091l0.445,2.649l-0.385,0.994
				l0.019,1.174l-0.675,0.258L144.19,1090.613z"/>
			<path fill="none" stroke="#FFFFFF" stroke-miterlimit="10" d="M141.18,1070.615c0,0-0.709,0.955-0.767,1.145
				c-0.057,0.189-0.958,0.519-0.958,0.519l-0.691-1.624l0.401-1.327l1.355-2.098l0.397-1.579"/>
		</g>
		<use xlink:href="#SVGID_7_"  overflow="visible" fill="none" stroke="#FFFFFF" stroke-miterlimit="10"/>
	</g>
	
		<line clip-path="url(#SVGID_2_)" fill="none" stroke="#FFFFFF" stroke-miterlimit="10" x1="689.23" y1="1073.188" x2="860.01" y2="1073.188"/>
	<path clip-path="url(#SVGID_2_)" fill="none" stroke="#FFFFFF" stroke-miterlimit="10" d="M391.359,1102.894l-1.987,0.474h-1.703
		l-2.744-0.474l-1.23-0.662l-1.514-1.324h-1.041h-1.608l-2.555-0.442h-4.542l-2.46-0.599l0.394-2.674l1.214-1.585l0.757-1.229
		c0,0-0.662-3.69-0.662-3.975s-0.189-5.583-0.189-5.867c0-0.283,0.284-4.542,0.284-4.825c0-0.284,0.662-4.826,0.662-4.826
		l0.663-2.934l0.095-4.542l-0.568-5.394c0,0-0.095-1.325-0.378-1.325c-0.284,0-2.271,0-2.271,0l-1.893-15.707
		c0,0-0.189-5.488,0-5.772c0.189-0.284-0.263-10.22-0.084-10.504c0.179-0.283,1.22-4.163,1.22-4.163l0.284-1.23l-2.366-1.514
		l-0.568-1.608l0.946-2.461h1.987l0.094-3.122l1.798-0.663l3.407,1.515l-0.757-3.785l0.094-2.555l1.987-2.177l3.974-1.041
		c0,0,2.744-0.095,2.65,0c-0.095,0.095,1.419,1.23,1.419,1.23l0.852,1.987l0.946,0.946l2.649,0.567l-0.663,1.514l-2.176,0.852
		l-0.757,1.515l0.567,1.041l-0.757,1.135l-0.473,1.515l-0.946,1.893l1.419,1.798l0.757,2.176l0.473,4.354l3.407,7.475l1.893,12.491
		l0.757,12.774l-2.082,1.798l-5.961-1.041l1.325,6.435l0.568,4.637l-0.757,3.596c0,0-0.757,1.987-0.757,2.271
		c0,0.283,0.284,5.677,0.284,5.677l1.609,6.813l0.662,3.501l1.136,1.041l0.662,1.703l1.609,2.082l1.703,1.703L391.359,1102.894z"/>
	<g clip-path="url(#SVGID_2_)">
		<rect x="57.84" y="995.995" fill="none" stroke="#FFFFFF" stroke-miterlimit="10" width="3.284" height="90.507"/>
		<path fill="none" stroke="#FFFFFF" stroke-miterlimit="10" d="M59.235,996.282v-7.594c0,0,0.534-10.057-7.471-15.967"/>
		<polygon fill="none" stroke="#FFFFFF" stroke-miterlimit="10" points="53.817,973.666 52.011,973.994 51.354,973.666 
			50.739,973.214 49.835,973.214 49.056,972.722 48.276,971.982 47.537,970.998 46.921,970.013 47.126,969.396 47.619,968.494 
			49.548,968.083 50.369,968.412 51.19,969.027 52.257,970.341 53.571,972.722 		"/>
		<path fill="none" stroke="#FFFFFF" stroke-miterlimit="10" d="M67.773,975.677l-1.724-1.158l0.288-1.182l1.437-1.806l1.519-1.19
			l0.862-0.41l2.134,0.574l0.369,1.272c0,0,0,2.24-1.19,2.741c-1.19,0.502-2.372,0.296-2.372,0.296L67.773,975.677z"/>
		<path fill="none" stroke="#FFFFFF" stroke-miterlimit="10" d="M60.22,996.857c0,0,0-2.669,0-8.251
			c0-1.847-0.41-8.309,6.896-14.088"/>
		<path fill="none" stroke="#FFFFFF" stroke-miterlimit="10" d="M59.974,996.569c0,0,0-4.187,0-6.115
			c0-1.93,0.862-10.591,13.586-10.714"/>
		<path fill="none" stroke="#FFFFFF" stroke-miterlimit="10" d="M59.974,997.35"/>
		<path fill="none" stroke="#FFFFFF" stroke-miterlimit="10" d="M60.385,996.569c0,0,0-6.608,0-7.922s0.369-8.579,6.731-4.31"/>
		<path fill="none" stroke="#FFFFFF" stroke-miterlimit="10" d="M58.825,996.857c0,0,0-6.034,0-7.717
			c0-1.684-0.041-9.318-13.012-10.632"/>
		<path fill="none" stroke="#FFFFFF" stroke-miterlimit="10" d="M59.489,996.857c0,0,0-4.27,0-5.788
			c0-2.258-1.444-10.631-7.724-4.803"/>
		<path fill="none" stroke="#FFFFFF" stroke-miterlimit="10" d="M72.124,987.991l0.533-1.354l-0.533-1.231l-0.657-0.616
			l-0.821-0.548l-2.627-0.725l-1.251,0.287l-0.554,1.026l1.683,1.437c0,0,0.206,0.657,0.575,1.026
			C68.84,987.662,70.811,988.729,72.124,987.991z"/>
		<path fill="none" stroke="#FFFFFF" stroke-miterlimit="10" d="M77.83,981.916c0,0-0.739-0.616-0.903-0.78
			c-0.164-0.164-2.832-0.369-3.366-0.656s0.041-1.642,1.108-1.971c0.818-0.252,4.862-0.912,6.772-0.369
			c0.58,0.165,1.055,1.832,1.067,1.896c0.169,0.884,0.112,1.424-0.862,1.676"/>
		<polygon fill="none" stroke="#FFFFFF" stroke-miterlimit="10" points="52.504,986.842 51.765,985.881 50.533,985.688 
			47.824,986.842 46.634,989.346 47.085,990.207 47.783,990.823 49.015,990.987 50.369,990.33 51.396,988.688 		"/>
		<path fill="none" stroke="#FFFFFF" stroke-miterlimit="10" d="M45.813,979.002v-1.396l-0.944-0.78c0,0-4.228-1.396-4.926-1.354
			s-2.175,0.082-2.668,1.149s0.246,2.381,0.246,2.381l1.108,0.533l1.272,0.389c0,0,1.888-0.02,1.888-0.184s0.411-0.738,0.411-0.738
			H45.813z"/>
	</g>
	<g clip-path="url(#SVGID_2_)">
		<rect x="208.812" y="970.247" fill="none" stroke="#FFFFFF" stroke-miterlimit="10" width="6.195" height="170.759"/>
		<path fill="none" stroke="#FFFFFF" stroke-miterlimit="10" d="M211.445,970.789v-14.327c0,0,1.007-18.973-14.095-30.125"/>
		<polygon fill="none" stroke="#FFFFFF" stroke-miterlimit="10" points="201.223,928.118 197.815,928.738 196.576,928.118 
			195.415,927.267 193.711,927.267 192.239,926.337 190.768,924.943 189.374,923.085 188.212,921.226 188.6,920.064 189.529,918.36 
			193.169,917.586 194.718,918.206 196.267,919.367 198.28,921.846 200.758,926.337 		"/>
		<path fill="none" stroke="#FFFFFF" stroke-miterlimit="10" d="M227.553,931.913l-3.252-2.185l0.542-2.229l2.71-3.407l2.865-2.246
			l1.626-0.774l4.027,1.084l0.697,2.4c0,0,0,4.228-2.246,5.173c-2.246,0.945-4.475,0.559-4.475,0.559L227.553,931.913z"/>
		<path fill="none" stroke="#FFFFFF" stroke-miterlimit="10" d="M213.304,971.873c0,0,0-5.033,0-15.565
			c0-3.485-0.774-15.676,13.011-26.579"/>
		<path fill="none" stroke="#FFFFFF" stroke-miterlimit="10" d="M212.839,971.331c0,0,0-7.898,0-11.539
			c0-3.64,1.626-19.979,25.633-20.212"/>
		<path fill="none" stroke="#FFFFFF" stroke-miterlimit="10" d="M212.839,972.803"/>
		<path fill="none" stroke="#FFFFFF" stroke-miterlimit="10" d="M213.614,971.331c0,0,0-12.468,0-14.946
			c0-2.478,0.697-16.186,12.701-8.131"/>
		<path fill="none" stroke="#FFFFFF" stroke-miterlimit="10" d="M210.671,971.873c0,0,0-11.384,0-14.559
			c0-3.176-0.078-17.58-24.549-20.058"/>
		<path fill="none" stroke="#FFFFFF" stroke-miterlimit="10" d="M211.924,971.873c0,0,0-8.054,0-10.919
			c0-4.26-2.725-20.058-14.573-9.061"/>
		<path fill="none" stroke="#FFFFFF" stroke-miterlimit="10" d="M235.762,955.146l1.007-2.556l-1.007-2.323l-1.239-1.161
			l-1.549-1.035l-4.956-1.365l-2.362,0.542l-1.045,1.936l3.175,2.711c0,0,0.387,1.239,1.084,1.936
			C229.567,954.526,233.284,956.54,235.762,955.146z"/>
		<path fill="none" stroke="#FFFFFF" stroke-miterlimit="10" d="M246.527,943.685c0,0-1.394-1.162-1.704-1.472
			c-0.31-0.31-5.343-0.697-6.35-1.239s0.078-3.098,2.091-3.717c1.545-0.476,9.175-1.721,12.778-0.697
			c1.094,0.311,1.991,3.457,2.013,3.576c0.319,1.668,0.212,2.688-1.626,3.161"/>
		<polygon fill="none" stroke="#FFFFFF" stroke-miterlimit="10" points="198.745,952.978 197.351,951.165 195.027,950.801 
			189.916,952.978 187.67,957.701 188.522,959.328 189.839,960.489 192.162,960.799 194.718,959.561 196.654,956.462 		"/>
		<path fill="none" stroke="#FFFFFF" stroke-miterlimit="10" d="M186.122,938.186v-2.633l-1.781-1.472c0,0-7.977-2.633-9.293-2.556
			c-1.316,0.078-4.104,0.155-5.034,2.169c-0.93,2.014,0.464,4.491,0.464,4.491l2.091,1.007l2.401,0.733c0,0,3.562-0.036,3.562-0.346
			s0.774-1.395,0.774-1.395H186.122z"/>
	</g>
	<g clip-path="url(#SVGID_2_)">
		<rect x="561.217" y="869.298" fill="none" stroke="#FFFFFF" stroke-miterlimit="10" width="13.292" height="366.355"/>
		<path fill="none" stroke="#FFFFFF" stroke-miterlimit="10" d="M566.866,870.461v-30.737c0,0,2.16-40.707-30.239-64.633"/>
		<polygon fill="none" stroke="#FFFFFF" stroke-miterlimit="10" points="544.935,778.913 537.624,780.242 534.966,778.913 
			532.474,777.085 528.818,777.085 525.661,775.091 522.504,772.101 519.514,768.113 517.021,764.125 517.853,761.633 
			519.846,757.978 527.655,756.316 530.979,757.646 534.301,760.138 538.621,765.455 543.938,775.091 		"/>
		<path fill="none" stroke="#FFFFFF" stroke-miterlimit="10" d="M601.426,787.054l-6.979-4.687l1.163-4.783l5.815-7.311l6.147-4.818
			l3.489-1.662l8.64,2.326l1.495,5.15c0,0,0,9.068-4.818,11.098c-4.818,2.028-9.602,1.198-9.602,1.198L601.426,787.054z"/>
		<path fill="none" stroke="#FFFFFF" stroke-miterlimit="10" d="M570.854,872.787c0,0,0-10.8,0-33.396
			c0-7.478-1.661-33.633,27.913-57.024"/>
		<path fill="none" stroke="#FFFFFF" stroke-miterlimit="10" d="M569.857,871.624c0,0,0-16.947,0-24.756
			c0-7.81,3.488-42.867,54.995-43.365"/>
		<path fill="none" stroke="#FFFFFF" stroke-miterlimit="10" d="M569.857,874.781"/>
		<path fill="none" stroke="#FFFFFF" stroke-miterlimit="10" d="M571.519,871.624c0,0,0-26.75,0-32.066
			c0-5.317,1.495-34.726,27.248-17.446"/>
		<path fill="none" stroke="#FFFFFF" stroke-miterlimit="10" d="M565.205,872.787c0,0,0-24.424,0-31.236
			c0-6.812-0.166-37.716-52.67-43.032"/>
		<path fill="none" stroke="#FFFFFF" stroke-miterlimit="10" d="M567.893,872.787c0,0,0-17.279,0-23.427
			c0-9.139-5.845-43.033-31.266-19.439"/>
		<path fill="none" stroke="#FFFFFF" stroke-miterlimit="10" d="M619.037,836.899l2.16-5.483l-2.16-4.984l-2.658-2.492l-3.323-2.22
			l-10.634-2.931l-5.067,1.162l-2.243,4.154l6.812,5.815c0,0,0.831,2.658,2.326,4.153S613.721,839.89,619.037,836.899z"/>
		<path fill="none" stroke="#FFFFFF" stroke-miterlimit="10" d="M642.132,812.309c0,0-2.99-2.492-3.655-3.156
			c-0.664-0.665-11.464-1.496-13.624-2.659s0.166-6.646,4.486-7.975c3.313-1.02,19.683-3.692,27.414-1.495
			c2.348,0.667,4.271,7.417,4.32,7.672c0.685,3.578,0.454,5.766-3.489,6.783"/>
		<polygon fill="none" stroke="#FFFFFF" stroke-miterlimit="10" points="539.618,832.247 536.627,828.359 531.643,827.577 
			520.677,832.247 515.858,842.382 517.687,845.871 520.511,848.363 525.495,849.028 530.979,846.369 535.132,839.724 		"/>
		<path fill="none" stroke="#FFFFFF" stroke-miterlimit="10" d="M512.535,800.512v-5.648l-3.821-3.157
			c0,0-17.113-5.648-19.938-5.482c-2.825,0.166-8.807,0.332-10.8,4.652c-1.994,4.319,0.997,9.636,0.997,9.636l4.485,2.16l5.15,1.572
			c0,0,7.644-0.077,7.644-0.741c0-0.665,1.661-2.991,1.661-2.991H512.535z"/>
	</g>
	<path clip-path="url(#SVGID_2_)" fill="none" stroke="#FFFFFF" stroke-miterlimit="10" d="M12.84,1078.828
		c0.203,0.522,8.49-10.008,8.49-10.008s12.456-1.36,14.135-7.665c0.396-1.486-1.058-2.409-0.48-3.437
		c0.575-1.025-0.441-3.954-0.441-3.954c2.162-2.275,4.788-1.721,5.216-3.2c0.676-2.334,0.317-7.337-1.062-5.558
		c-1.38,1.78-2.452,2.785-2.452,2.785s-0.782,0.493-1.505,0.201c-0.724-0.294-1.923-0.867-1.923-0.867s-1.096-1.883,0.47-2.867
		c1.567-0.986,2.411-2.265,2.411-2.265s1.587-1.247,0.697-2.598c-0.889-1.351-2.196-3.766-2.196-3.766l-1.405-1.109
		c0,0-1.76-2.964-1.881-1.392c0,0-0.582-2.126,0.202-2.619s1.133-1.792,1.709-2.819c0.575-1.023,2.242-3.319,0.963-2.847
		c-1.277,0.473-3.503,3.531-3.503,3.531l-2.268,0.43l-2.311,0.955l-1.653-1.12l-0.127-1.58c0,0-0.663-1.075-1.675-0.855
		c-1.01,0.222-2.328,1.215-2.517,0.421c-0.187-0.795,0.242-3.143,0.242-3.143s0.572-4.178,1.312-4.147
		c0.743,0.031,0.388-1.82-0.395-1.331c-0.782,0.493-1.955,2.809-1.955,2.809l-1.654-1.12l-1.967-3.492c0,0-0.743-0.03,1.4-2.044
		c2.143-2.013,3.811-4.308,3.811-4.308s0.222-2.878-1.037-2.666c-1.259,0.209-2.597,1.465-2.597,1.465s-1.84-1.913-2.276-2.719
		s-1.266-2.941-2.108-1.663c-0.844,1.278-3.14-1.182-3.715-0.154c-0.577,1.025-1.462,2.828-1.462,2.828s-1.773,0.452-2.083,1.225
		c-0.308,0.775-4.954-0.206-4.024,0.62c0.932,0.827-4.914-0.729-4.914-0.729s-0.627-4.752-0.32-5.526
		c0.308-0.775-0.272-2.902-0.211-3.688c0.06-0.785-0.609-5.013-0.609-5.013s-6.346-4.729-6.3-2.101
		c0.047,2.629,0.456,0.545,0.047,2.629c-0.41,2.084,1.037,2.669,1.926,4.018c0.89,1.351,0.582,2.125,0.174,4.209
		c-0.409,2.086-3.651,2.214-2.305,4.108c1.345,1.892,4.009,2.79,0.294,2.635c-3.717-0.154-5.062-2.047-6.094-1.566
		c-1.03,0.483-4.399-0.97-5.181-0.477c-0.783,0.493-3.696-0.416-3.576-1.984c0.121-1.571-0.353-1.854-0.252-3.162
		c0.101-1.31,0.033-3.677-0.811-2.399c-0.844,1.279-5.704-3.385-5.102-1.524c0.604,1.864,0.274,2.901-0.944,2.587
		c-1.219-0.312-4.399-0.971-4.399-0.971l-3.634-1.202c0,0-0.254-3.159-1.473-3.474c-1.217-0.312-1.92-0.867-2.725-0.113
		c-0.804,0.757-4.914-0.728-4.271,0.612c0.643,1.337,1.453,3.734,1.453,3.734s-1.84,0.794-2.372,1.741
		c-1.151,2.053-5.878,2.118-5.878,2.118s-2.503-2.992-2.69-3.788c-0.188-0.797-1.493-3.214-1.493-3.214l-3.636-1.198l1.165,4.248
		c0,0,1.078,2.146-0.161,2.094"/>
	<path clip-path="url(#SVGID_2_)" fill="none" stroke="#FFFFFF" stroke-miterlimit="10" d="M-10.234,1070.776
		c0.047,0.343,6.769-1.66,6.769-1.66s7.92,4.257,9.912,1.756c0.47-0.59-0.292-1.63,0.221-1.917c0.511-0.287,0.324-2.161,0.324-2.161
		c1.682-0.285,3.225,1.034,3.713,0.461c0.771-0.904,1.304-3.56,0.181-3.213c-1.124,0.347-1.939,0.427-1.939,0.427
		s-0.559-0.062-0.962-0.496c-0.405-0.435-1.061-1.198-1.061-1.198s-0.395-1.381,0.724-1.254c1.119,0.126,1.834-0.182,1.834-0.182
		s1.171,0.003,0.824-1.028s-0.792-2.763-0.792-2.763l-0.703-1.114c0,0-0.643-2.187-0.955-1.445c0,0-0.04-1.298,0.52-1.235
		c0.56,0.063,0.972-0.45,1.484-0.738c0.51-0.286,1.889-0.778,1.025-1.048c-0.862-0.27-2.702,0.384-2.702,0.384l-1.469-0.683
		l-1.576-0.438l-0.854-1.218l0.159-0.845c0,0-0.249-0.803-0.908-1.094c-0.66-0.289-1.625-0.312-1.623-0.786
		c0.005-0.474,0.624-1.482,0.624-1.482s0.984-1.872,1.439-1.563c0.456,0.311,0.515-0.761-0.043-0.825
		c-0.559-0.062-1.635,0.636-1.635,0.636l-0.856-1.219L0.75,1040.3c0,0-0.456-0.311,1.176-0.472c1.631-0.161,3.01-0.652,3.01-0.652
		s0.571-1.358-0.24-1.751c-0.812-0.394-1.83-0.294-1.83-0.294s-0.852-1.691-1-2.269c-0.148-0.577-0.341-1.979-1.055-1.671
		c-0.715,0.307-1.767-1.84-2.278-1.551c-0.512,0.286-1.333,0.84-1.333,0.84s-1.167-0.477-1.475-0.21
		c-0.308,0.267-3.037-2.068-2.586-1.285c0.453,0.785-2.933-2.314-2.933-2.314s0.329-2.637,0.636-2.903
		c0.308-0.268,0.269-1.566,0.425-1.937c0.156-0.37,0.379-2.76,0.379-2.76s-3.217-4.893-3.585-3.554
		c-0.368,1.339,0.2,0.454-0.368,1.339c-0.568,0.885,0.24,1.753,0.587,2.783s0.04,1.298-0.528,2.183
		c-0.567,0.886-2.595-0.336-2.047,1.149c0.548,1.483,2.062,2.992-0.215,1.441c-2.279-1.552-2.826-3.036-3.538-3.204
		c-0.711-0.166-2.579-2.232-3.137-2.294c-0.56-0.063-2.227-1.675-1.916-2.415c0.312-0.741,0.061-1.071,0.321-1.688
		c0.26-0.618,0.575-1.834-0.14-1.526c-0.716,0.308-3.022-3.963-2.93-2.79c0.093,1.176-0.268,1.566-0.975,0.926
		c-0.708-0.641-2.579-2.232-2.579-2.232l-2.07-2.046c0,0,0.319-1.688-0.388-2.329c-0.707-0.639-1.058-1.196-1.671-1.137
		c-0.612,0.061-2.934-2.314-2.738-1.387c0.196,0.926,0.336,2.452,0.336,2.452s-1.26-0.331-1.732-0.066
		c-1.023,0.575-3.961-1.267-3.961-1.267s-1.099-2.496-1.094-2.97c0.004-0.476-0.439-2.207-0.439-2.207l-2.072-2.044l0.081,2.596
		c0,0,0.344,1.506-0.416,0.988"/>
	<path clip-path="url(#SVGID_2_)" fill="none" stroke="#FFFFFF" stroke-miterlimit="10" d="M1002.195,920.714
		c0,0-10.904,6.976-13.179,10.07c-2.278,3.091-13.473,12.824-13.473,12.824l-13.698,4.407c0,0-8.134-2.142-11.454-0.371
		c-3.321,1.775-12.241,8.414-12.241,8.414s-14.924,8.819-15.199,11.184s-2.139,8.142,0.226,8.417
		c2.366,0.271,5.097,1.546,5.097,1.546s-4.189,7.184-9.467,11.374c-5.278,4.177-8.373,14.364-8.373,14.364
		s-8.234,6.959-8.147,10.321c0.09,3.369,0.18,6.738,0.59,9.423c0.41,2.684-2.866,6.138-3.412,10.868
		c-0.553,4.732-5.556,6.546-3.462,9.188s4.139,16.059,1.684,12.419c-2.457-3.64-4.551-6.281-7.92-6.19
		c-3.362,0.087-9.27-6.822-9.27-6.822c-8.69,2.584-10.954,10.451-15.247,9.498c-6.773-1.507-18.777-9.599-12.411-10.782
		c6.366-1.183,10.368-2.641,10.368-2.641s2.319-1.403,2.595-3.767c0.272-2.372,0.505-6.419,0.505-6.419s-3.182-5.636-7.819-2.816
		c-4.643,2.816-9.01,3.269-9.01,3.269s-5.323,2.499-7.461-1.821c-2.14-4.32-6.359-11.281-6.359-11.281l-0.819-5.368
		c0,0-4.961-8.965-0.863-7.052c0,0-4.502-4.595-6.823-3.187c-2.322,1.408-6.054,0.5-9.423,0.591
		c-3.357,0.089-11.411,1.312-8.452-1.462c2.957-2.769,13.692-4.409,13.692-4.409l4.226-5.498l5.601-4.867l-0.503-6.049l-3.772-2.597
		c0,0-1.765-3.317,0.19-5.73c1.959-2.406,6.271-4.542,4.551-6.181c-1.729-1.636-8.189-3.825-8.189-3.825s-11.236-4.412-12.189-2.372
		c-0.956,2.047-5.09-1.548-2.779-2.961c2.319-1.403,9.738-1.266,9.738-1.266l-0.5-6.054l-5.993-10.275c0,0,0.956-2.046-7.056,0.86
		c-8.008,2.909-16.062,4.132-16.062,4.132s-7.499-3.503-5.22-6.594c2.273-3.095,7.271-4.91,7.271-4.91s-2.224-7.687-3.632-10.008
		s-5.591-7.603-1.225-8.05c4.367-0.453,1.41-10.146,4.777-10.23c3.364-0.093,9.1,0.088,9.1,0.088s3.595-4.135,5.956-3.867
		c2.364,0.275,6.371-13.643,7.145-9.96c0.771,3.687,5.006-14.28,5.006-14.28s-11.004-8.46-13.367-8.735
		c-2.364-0.275-6.874-4.868-8.92-5.823c-2.046-0.956-11.682-8.783-11.682-8.783s-2.998-23.838,3.508-19.971
		c6.504,3.872,0.728,2.004,6.504,3.872c5.777,1.864,5.229,6.6,7.363,10.917c2.139,4.319,4.502,4.595,10.278,6.464
		c5.78,1.87,10.605-6.687,13.47-0.357c2.856,6.318,1.397,14.778,6.176,4.548c4.78-10.236,1.919-16.557,4.556-18.653
		c2.639-2.089,3.689-13.237,6.009-14.641c2.321-1.407,4.1-10.553,0.013-12.462c-4.097-1.913-4.143-3.592-7.554-5.186
		c-3.412-1.593-9.235-5.147-4.868-5.601c4.368-0.452-0.532-20.193,3.28-15.921c3.819,4.282,6.871,4.873,7.779,1.141
		c0.913-3.729,3.689-13.237,3.689-13.237l2.047-11.506c0,0-7.542-5.186-6.634-8.918c0.911-3.725,0.501-6.408,3.505-7.504
		c3.007-1.088,5.011-14.277,7.467-10.639c2.446,3.636,7.313,9.236,7.313,9.236s4.541-3.829,7.647-3.912
		c6.731-0.178,13.465-12.822,13.465-12.822s-3.999-11.009-5.728-12.645c-1.73-1.644-5.958-8.603-5.958-8.603l2.059-11.507
		l8.998,9.193"/>
	<use xlink:href="#SVGID_1_"  overflow="visible" fill="none" stroke="#FFFFFF" stroke-miterlimit="10"/>
</g>
</svg>
