<?xml version="1.0" encoding="utf-8"?>
<!-- Generator: Adobe Illustrator 16.0.0, SVG Export Plug-In . SVG Version: 6.00 Build 0)  -->
<!DOCTYPE svg PUBLIC "-//W3C//DTD SVG 1.1//EN" "http://www.w3.org/Graphics/SVG/1.1/DTD/svg11.dtd">
<svg version="1.1" id="OBJECTS" xmlns="http://www.w3.org/2000/svg" xmlns:xlink="http://www.w3.org/1999/xlink" x="0px" y="0px"
	 width="195.034px" height="332.192px" viewBox="0 0 195.034 332.192" enable-background="new 0 0 195.034 332.192"
	 xml:space="preserve">
<g>
	<polygon fill="#DBB765" points="0,275.095 97.516,332.192 195.034,275.095 97.516,217.998 	"/>
	<g>
		<g>
			<polygon fill="#CCCCCC" points="10.303,260.447 96.627,310.99 182.952,260.447 96.627,209.901 			"/>
			<polygon fill="#AAB2AA" points="10.303,260.447 10.303,266.537 96.627,318.587 96.627,310.99 			"/>
			<polygon fill="#B9C1B9" points="96.627,310.99 182.952,260.447 182.952,267.571 96.627,318.587 			"/>
		</g>
		<g>
			<polygon fill="#CCCCCC" points="25.864,255.164 96.627,296.598 167.392,255.164 96.627,213.728 			"/>
			<polygon fill="#AAB2AA" points="25.864,255.164 25.864,260.157 96.627,302.824 96.627,296.598 			"/>
			<polygon fill="#B9C1B9" points="96.627,296.598 167.392,255.164 167.392,261.005 96.627,302.824 			"/>
		</g>
		<g>
			<g>
				<polygon fill="#3394C4" points="77.671,77.664 96.627,89.094 96.627,284.159 77.671,273.699 				"/>
				<polygon fill="#3F9DD7" points="115.581,77.664 96.624,89.094 96.624,284.159 115.581,273.699 				"/>
			</g>
			<g>
				<polygon fill="#29464F" points="36.047,52.566 77.671,77.664 77.671,277.321 36.047,254.349 				"/>
				<g>
					<g>
						<polygon fill="#3394C4" points="39.178,63.071 44.508,66.286 44.508,91.854 39.178,88.912 						"/>
						<polygon fill="#3394C4" points="48.731,68.166 54.062,71.38 54.062,96.948 48.731,94.006 						"/>
						<polygon fill="#3394C4" points="58.282,73.261 63.612,76.475 63.612,102.042 58.282,99.101 						"/>
						<polygon fill="#3394C4" points="67.835,78.354 73.165,81.569 73.165,107.137 67.835,104.196 						"/>
					</g>
					<g>
						<polygon fill="#3394C4" points="39.178,95.337 44.508,98.551 44.508,124.12 39.178,121.178 						"/>
						<polygon fill="#3394C4" points="48.731,100.431 54.062,103.646 54.062,129.214 48.731,126.272 						"/>
						<polygon fill="#3394C4" points="58.282,105.526 63.612,108.741 63.612,134.309 58.282,131.367 						"/>
						<polygon fill="#3394C4" points="67.835,110.621 73.165,113.834 73.165,139.404 67.835,136.461 						"/>
					</g>
					<g>
						<polygon fill="#3394C4" points="39.178,127.603 44.508,130.816 44.508,156.386 39.178,153.444 						"/>
						<polygon fill="#3394C4" points="48.731,132.698 54.062,135.912 54.062,161.48 48.731,158.537 						"/>
						<polygon fill="#3394C4" points="58.282,137.792 63.612,141.006 63.612,166.574 58.282,163.632 						"/>
						<polygon fill="#3394C4" points="67.835,142.886 73.165,146.101 73.165,171.669 67.835,168.727 						"/>
					</g>
					<g>
						<polygon fill="#3394C4" points="39.178,159.869 44.508,163.082 44.508,188.651 39.178,185.708 						"/>
						<polygon fill="#3394C4" points="48.731,164.962 54.062,168.177 54.062,193.746 48.731,190.804 						"/>
						<polygon fill="#3394C4" points="58.282,170.058 63.612,173.271 63.612,198.839 58.282,195.897 						"/>
						<polygon fill="#3394C4" points="67.835,175.153 73.165,178.365 73.165,203.935 67.835,200.992 						"/>
					</g>
					<g>
						<polygon fill="#3394C4" points="39.178,192.134 44.508,195.347 44.508,220.916 39.178,217.976 						"/>
						<polygon fill="#3394C4" points="48.731,197.23 54.062,200.443 54.062,226.011 48.731,223.07 						"/>
						<polygon fill="#3394C4" points="58.282,202.324 63.612,205.537 63.612,231.105 58.282,228.164 						"/>
						<polygon fill="#3394C4" points="67.835,207.418 73.165,210.632 73.165,236.199 67.835,233.258 						"/>
					</g>
					<g>
						<polygon fill="#3394C4" points="39.178,224.4 44.508,227.615 44.508,253.181 39.178,250.24 						"/>
						<polygon fill="#3394C4" points="48.731,229.493 54.062,232.709 54.062,258.277 48.731,255.335 						"/>
						<polygon fill="#3394C4" points="58.282,234.589 63.612,237.801 63.612,263.373 58.282,260.43 						"/>
						<polygon fill="#3394C4" points="67.835,239.683 73.165,242.896 73.165,268.466 67.835,265.525 						"/>
					</g>
				</g>
				<polygon fill="#223E44" points="77.671,77.664 81.129,79.748 81.129,275.613 77.671,277.321 				"/>
			</g>
			<g>
				<polygon fill="#31515E" points="157.206,52.566 115.581,77.664 115.581,277.321 157.206,254.349 				"/>
				<g>
					<g>
						<polygon fill="#3F9DD7" points="153.388,63.071 148.057,66.286 148.057,91.854 153.388,88.912 						"/>
						<polygon fill="#3F9DD7" points="143.835,68.166 138.504,71.38 138.504,96.948 143.835,94.006 						"/>
						<polygon fill="#3F9DD7" points="134.282,73.261 128.951,76.475 128.951,102.042 134.282,99.101 						"/>
						<polygon fill="#3F9DD7" points="124.729,78.354 119.4,81.569 119.4,107.137 124.729,104.196 						"/>
					</g>
					<g>
						<polygon fill="#3F9DD7" points="153.388,95.337 148.057,98.551 148.057,124.12 153.388,121.178 						"/>
						<polygon fill="#3F9DD7" points="143.835,100.431 138.504,103.646 138.504,129.214 143.835,126.272 						"/>
						<polygon fill="#3F9DD7" points="134.282,105.526 128.951,108.741 128.951,134.309 134.282,131.367 						"/>
						<polygon fill="#3F9DD7" points="124.729,110.621 119.4,113.834 119.4,139.404 124.729,136.461 						"/>
					</g>
					<g>
						<polygon fill="#3F9DD7" points="153.388,127.603 148.057,130.816 148.057,156.386 153.388,153.444 						"/>
						<polygon fill="#3F9DD7" points="143.835,132.698 138.504,135.912 138.504,161.48 143.835,158.537 						"/>
						<polygon fill="#3F9DD7" points="134.282,137.792 128.951,141.006 128.951,166.574 134.282,163.632 						"/>
						<polygon fill="#3F9DD7" points="124.729,142.886 119.4,146.101 119.4,171.669 124.729,168.727 						"/>
					</g>
					<g>
						<polygon fill="#3F9DD7" points="153.388,159.869 148.057,163.082 148.057,188.651 153.388,185.708 						"/>
						<polygon fill="#3F9DD7" points="143.835,164.962 138.504,168.177 138.504,193.746 143.835,190.804 						"/>
						<polygon fill="#3F9DD7" points="134.282,170.058 128.951,173.271 128.951,198.839 134.282,195.897 						"/>
						<polygon fill="#3F9DD7" points="124.729,175.153 119.4,178.365 119.4,203.935 124.729,200.992 						"/>
					</g>
					<g>
						<polygon fill="#3F9DD7" points="153.388,192.134 148.057,195.347 148.057,220.916 153.388,217.976 						"/>
						<polygon fill="#3F9DD7" points="143.835,197.23 138.504,200.443 138.504,226.011 143.835,223.07 						"/>
						<polygon fill="#3F9DD7" points="134.282,202.324 128.951,205.537 128.951,231.105 134.282,228.164 						"/>
						<polygon fill="#3F9DD7" points="124.729,207.418 119.4,210.632 119.4,236.199 124.729,233.258 						"/>
					</g>
					<g>
						<polygon fill="#3F9DD7" points="153.388,224.4 148.057,227.615 148.057,253.181 153.388,250.24 						"/>
						<polygon fill="#3F9DD7" points="143.835,229.493 138.504,232.709 138.504,258.277 143.835,255.335 						"/>
						<polygon fill="#3F9DD7" points="134.282,234.589 128.951,237.801 128.951,263.373 134.282,260.43 						"/>
						<polygon fill="#3F9DD7" points="124.729,239.683 119.4,242.896 119.4,268.466 124.729,265.525 						"/>
					</g>
				</g>
				<polygon fill="#29464F" points="115.581,77.664 112.124,79.748 112.124,275.613 115.581,277.321 				"/>
			</g>
		</g>
		<g>
			<polygon fill="#AAB2AA" points="27.714,80.372 58.282,96.205 58.282,117.733 27.714,101.3 			"/>
			<polygon fill="#9EA89E" points="27.714,80.372 36.047,75.277 36.047,81.559 61.749,95.257 61.749,114.745 58.282,117.733 
				58.282,96.205 			"/>
		</g>
		<g>
			<polygon fill="#AAB2AA" points="27.714,172.517 58.282,188.352 58.282,209.878 27.714,193.445 			"/>
			<polygon fill="#9EA89E" points="27.714,172.517 36.047,167.423 36.047,173.705 61.749,187.404 61.749,206.89 58.282,209.878 
				58.282,188.352 			"/>
		</g>
		<g>
			<polygon fill="#CCCCCC" points="165.524,80.372 134.956,96.205 134.956,117.733 165.524,101.3 			"/>
			<polygon fill="#B9C1B9" points="165.524,80.372 157.192,75.277 157.192,81.559 131.489,95.257 131.489,114.745 134.956,117.733 
				134.956,96.205 			"/>
		</g>
		<g>
			<polygon fill="#CCCCCC" points="165.524,172.517 134.956,188.352 134.956,209.878 165.524,193.445 			"/>
			<polygon fill="#B9C1B9" points="165.524,172.517 157.192,167.423 157.192,173.705 131.489,187.404 131.489,206.89 
				134.956,209.878 134.956,188.352 			"/>
		</g>
		<g>
			<polygon fill="#CCCCCC" points="25.864,41.434 96.627,82.867 167.392,41.434 96.627,0 			"/>
			<polygon fill="#AAB2AA" points="25.864,41.434 25.864,46.427 96.627,89.094 96.627,82.867 			"/>
			<polygon fill="#B9C1B9" points="96.627,82.867 167.392,41.434 167.392,47.275 96.627,89.094 			"/>
			<g>
				<polygon fill="#B9C1B9" points="41.379,41.434 96.627,73.783 151.876,41.434 96.627,9.085 				"/>
				<polygon fill="#AAB2AA" points="96.627,9.085 41.379,41.434 44.733,43.397 44.733,43.397 96.627,12.481 148.522,43.397 
					151.876,41.434 				"/>
			</g>
		</g>
	</g>
</g>
</svg>
