<?xml version="1.0" encoding="utf-8"?>
<!-- Generator: Adobe Illustrator 16.0.0, SVG Export Plug-In . SVG Version: 6.00 Build 0)  -->
<!DOCTYPE svg PUBLIC "-//W3C//DTD SVG 1.1//EN" "http://www.w3.org/Graphics/SVG/1.1/DTD/svg11.dtd">
<svg version="1.1" id="Capa_1" xmlns="http://www.w3.org/2000/svg" xmlns:xlink="http://www.w3.org/1999/xlink" x="0px" y="0px"
	 width="134.633px" height="99.901px" viewBox="0 0 134.633 99.901" enable-background="new 0 0 134.633 99.901"
	 xml:space="preserve">
<g>
	<g id="_x35_pmKhs.tif_1_">
		<g>
			<path fill-rule="evenodd" clip-rule="evenodd" fill="#E9BB01" d="M11.369,57.57c0.017-0.28,0.04-0.57,0.059-0.851
				c0.902-4.401,1.421-8.871,2.862-13.198c2.5-7.479,6.368-14.108,11.558-20.004c0.167-0.143,0.347-0.285,0.507-0.428l-0.027-0.015
				c0.79,0.03,1.588,0.3,1.281,1.22c-0.979,2.891,0.347,5.733,0.049,8.605c-0.662,6.324-0.688,12.662-0.007,18.991
				c0.037,0.497,0.066,1.033-0.094,1.476c-0.561,1.514,0,2.862,0.514,4.224c0.079,0.595,0.428,0.856,1.008,0.856
				c4.396-0.015,8.788,0.049,13.164-0.054c1.502-0.04,2.375-1.023,1.876-2.616c-0.332-1.057-0.275-2.095-0.278-3.152
				c-0.015-14.226-0.022-28.457-0.042-42.693c3.543-1.175,6.86-2.99,10.614-3.501c0.344,1.588,0.482,3.187,0.482,4.824
				c-0.035,14.654-0.02,29.308-0.02,43.952c0,3.009,0.221,3.241,3.294,3.241c6.085,0.01,12.173,0.01,18.266,0
				c3.43,0,3.536-0.108,3.536-3.625c0.027-16.139,0.042-32.277,0.057-48.421c3.84,0.812,7.475,2.203,11.035,3.787
				c-0.015,15.205,0,30.414-0.054,45.614c0,1.883,0.696,2.709,2.638,2.67c4.229-0.074,8.468-0.024,12.709-0.024
				c1.682,0.064,1.257-1.19,1.257-2.095c0.037-11.251,0.061-22.512,0.078-33.768c6.622,7.042,11.173,15.229,13.486,24.622
				c0.708,2.872,1.209,5.788,1.805,8.679c0.024,0.836,0.064,1.687,0.103,2.532c0,0.408,0,0.812,0,1.229
				c-1.819,0.024-3.661,0.059-5.49,0.069c-1.689,0.005-2.682,0.836-2.707,2.533c-0.062,3.029-0.076,6.058,0.002,9.087
				c0.042,2.021,1.003,2.818,3.091,2.847c1.694,0.025,3.386,0.04,5.084,0.049c-0.359,2.395,0.054,4.534,1.377,6.683
				c1.987,3.221,3.609,6.678,5.389,10.046c-0.172,0.221-0.352,0.448-0.512,0.664c-2.685-3.31-6.158-5.724-9.436-8.384
				c-3.899-3.162-8-6.063-12.414-8.434c-4.634-2.483-9.353-4.779-14.344-6.564c-6.626-2.375-13.354-4.219-20.314-4.607
				c-7.152-0.394-14.319-0.227-21.413,1.549c-4.999,1.254-9.904,2.764-14.615,4.804c-8.106,3.521-15.701,7.932-22.601,13.493
				c-3.176,2.547-6.267,5.193-9.077,8.144c-0.14,0-0.28,0-0.418,0c-0.02-0.221-0.042-0.443-0.062-0.664
				c1.021-2.729,2.67-5.114,4.022-7.671c1.443-2.744,3.312-5.335,2.859-8.694c0.339,0,0.659-0.069,0.838-0.408
				c1.34-0.005,2.685,0.005,4.025-0.005c2.41-0.029,2.769-0.398,2.783-2.886c0.005-3.034-0.098-6.083,0.04-9.117
				c0.098-2.011-0.693-2.734-2.602-2.458c-0.268,0-0.561,0-0.843,0c-1.138-0.005-2.282-0.005-3.42-0.005
				c-0.342-0.029-0.684-0.069-1.023-0.093C11.328,58.938,11.347,58.259,11.369,57.57z"/>
			<path fill-rule="evenodd" clip-rule="evenodd" fill="#DFA602" d="M28.071,57.59c-0.514-1.362-1.074-2.709-0.514-4.224
				c0.16-0.443,0.13-0.979,0.094-1.476c-0.681-6.329-0.654-12.667,0.007-18.991c0.297-2.872-1.028-5.714-0.049-8.605
				c0.307-0.919-0.492-1.19-1.281-1.22c2.001-1.933,0.961-4.475,1.331-6.737l0,0c2.159-1.864,4.863-2.798,7.226-4.298
				c0.28-0.133,0.565-0.266,0.858-0.388c0.202-0.108,0.408-0.207,0.625-0.305c0.197-0.088,0.418-0.167,0.617-0.255
				c1.001-0.384,2.004-0.772,3.004-1.166c2.978,0.924,2.855,0.934,3.009,4.519c0.16,3.835-0.474,7.612-0.462,11.428
				c0.042,9.908,0,19.827,0.022,29.74c0,1.283,0.04,2.493-1.794,2.404C36.532,57.831,32.28,58.416,28.071,57.59z M28.932,49.235
				c0.088,0.04,0.187,0.079,0.285,0.118c1.042-2.788,2.324-5.513,3.063-8.365c1.402-5.365,3.742-10.405,5.205-15.746
				c1.011-3.688,2.862-7.105,3.55-10.907c0.125-0.723,0.436-1.416-0.219-1.962c-0.703-0.6-1.102,0.162-1.649,0.398
				c-0.332,0.147-0.854,0.108-1.215-0.054c-1.008-0.442-1.768-0.044-2.508,0.59c-0.583,0.507-1.222,0.772-2.023,0.974
				c-3.302,0.826-4.905,3.029-4.913,6.393c-0.01,1.775,0.322,3.531,0.349,5.256C29.01,33.701,28.932,41.466,28.932,49.235z"/>
			<path fill-rule="evenodd" clip-rule="evenodd" fill="#DFA602" d="M12.348,74.187c-0.179,0.339-0.499,0.408-0.838,0.408
				c-1.537-0.521-3.235-0.86-3.43-2.955c-0.022-0.28-0.027-0.571-0.042-0.851c-0.02-0.58-0.02-1.155-0.02-1.735
				c0-0.271,0.02-0.551,0.034-0.826c0.04-1.736,0.059-3.472,0.138-5.218c0.108-2.685,0.448-3.043,3.118-3.388
				c0.339,0.024,0.681,0.064,1.023,0.093c1.138,0.664,2.282,0.664,3.42,0.005c0.283,0,0.575,0,0.843,0
				c0.18,0.988,1.301,1.465,1.279,2.582c-0.025,3.191,0.022,6.363-0.02,9.55c-0.005,1.022-0.445,1.46-1.64,1.687
				C14.924,73.778,13.489,73.276,12.348,74.187z M10.378,61.445c-0.792-0.389-1.431-0.477-1.431,0.674
				c0.01,2.409-0.007,4.829,0.01,7.229c0,0.772,0.268,0.787,1.062,0.62c1.623-0.339,1.32-1.947,2.149-2.808
				c1.283-1.293,2.34-2.817,3.162-4.47c0.561-1.146,0.42-1.697-0.986-1.711C12.989,60.968,11.681,61.116,10.378,61.445z"/>
			<path fill-rule="evenodd" clip-rule="evenodd" fill="#D19B00" d="M40.83,9.409c1.055-0.207,1.996,0.227,2.97,0.521
				c0.02,14.236,0.027,28.467,0.042,42.693c0.002,1.057-0.054,2.095,0.278,3.152c0.499,1.593-0.374,2.577-1.876,2.616
				c-4.376,0.103-8.768,0.039-13.164,0.054c-0.58,0-0.929-0.261-1.008-0.856c4.209,0.826,8.461,0.241,12.692,0.428
				c1.834,0.089,1.794-1.121,1.794-2.404c-0.022-9.914,0.02-19.832-0.022-29.74c-0.012-3.816,0.622-7.593,0.462-11.428
				c-0.154-3.585-0.032-3.595-3.009-4.519c0.012-0.128,0.04-0.261,0.054-0.384C40.308,9.503,40.561,9.449,40.83,9.409z"/>
			<path fill-rule="evenodd" clip-rule="evenodd" fill="#DFA602" d="M126.404,63.535c-0.081,1.849-0.162,3.698-0.236,5.547
				c-0.219,0-0.448,0-0.681,0c0-2.272,0-4.539,0-6.806c0.516-0.315,0.403-0.841,0.462-1.323c0.12,0.024,0.253,0.044,0.381,0.069
				c0.02,0.28,0.039,0.546,0.047,0.821c0,0.143,0,0.285,0,0.433C126.39,62.694,126.39,63.117,126.404,63.535z"/>
			<path fill-rule="evenodd" clip-rule="evenodd" fill="#FAF5CE" d="M36.367,11.347c-0.216,0.099-0.423,0.197-0.625,0.305
				C35.951,11.543,36.15,11.445,36.367,11.347z"/>
			<path fill-rule="evenodd" clip-rule="evenodd" fill="#FAF5CE" d="M126.377,62.276c0-0.147,0-0.29,0-0.433
				c0.066,0.103,0.133,0.202,0.16,0.31C126.549,62.173,126.444,62.232,126.377,62.276z"/>
			<path fill-rule="evenodd" clip-rule="evenodd" fill="#DFA602" d="M3.568,99.118c-1.111,0.413-2.55,1.337-3.305,0.329
				c-0.782-1.038,0.354-2.247,1.121-3.29c0.961-1.289,1.689-2.739,2.522-4.121c0.327,0,0.607-0.079,0.763-0.403l0.02-0.01
				c0.138,0,0.278,0,0.418,0c1.411,0.438,2.085-0.704,2.892-1.421c6.166-5.507,13.08-9.884,20.479-13.503
				c2.503-1.225,5.025-2.429,7.614-3.442c3.784-1.46,7.607-2.817,11.556-3.757c3.905-0.929,7.902-1.273,11.866-1.869
				c6.945-1.047,13.719-0.447,20.564,0.585c5.792,0.855,11.406,2.414,16.859,4.411c4.381,1.598,8.573,3.762,12.716,5.935
				c6.493,3.418,12.434,7.681,18.017,12.446c0.428,0.364,0.723,1.456,1.649,0.615c0.16-0.216,0.34-0.443,0.512-0.664
				c1.49,2.375,2.978,4.746,4.473,7.13c0.266,0.433,0.509,0.964,0.145,1.367c-0.545,0.624-1.347,0.413-1.974,0.172
				c-3.204-1.264-6.386-2.586-9.567-3.885c-0.529-0.207-1.062-0.394-1.583-0.585c-3.516-1.367-6.899-3.108-10.614-3.979
				c-0.071,0.025-0.135,0.035-0.202,0.015c-2.992-1.844-6.361-2.537-9.69-3.373c-0.378-0.31-0.821-0.423-1.295-0.364
				c-1.763-0.989-3.764-1.19-5.658-1.638c-6.26-1.475-12.559-2.769-19.025-2.96c-0.405-0.02-0.826-0.049-1.249-0.059
				c-4.111-0.403-8.212-0.556-12.323-0.03c-0.413,0.03-0.833,0.04-1.254,0.069c-2.602-0.108-5.131,0.344-7.674,0.807
				c-0.28,0.034-0.561,0.059-0.829,0.093c-7.592,0.915-14.927,2.882-22.182,5.222c-1.92,0.629-3.968,0.925-5.625,2.218
				c-3.71,0.954-7.219,2.405-10.58,4.219"/>
			<path fill-rule="evenodd" clip-rule="evenodd" fill="#DFA602" d="M94.131,9.97c2.572,0.334,4.726,1.711,6.976,2.803
				c6.451,3.127,6.331,2.055,6.584,9.81c-0.017,11.256-0.042,22.517-0.078,33.768c0,0.905,0.425,2.159-1.257,2.095
				c-0.546-0.654-1.301-0.418-1.981-0.423c-2.901-0.025-5.81,0.02-8.714-0.015c-2.909-0.029-3.349-0.487-3.349-3.28
				c0-13.734,0-27.474,0.012-41.208c0-0.841-0.012-1.667,0.268-2.508C92.865,10.167,93.313,9.862,94.131,9.97z M105.81,49.29
				c0.684-0.236,0.529-0.733,0.529-1.106c0.012-9.697,0-19.399,0.017-29.096c0-0.772-0.324-1.289-0.787-1.869
				c-2.341-2.901-5.771-4.037-8.994-5.444c-1.613-0.693-3.064,0.861-2.577,2.602c0.521,1.814,1.151,3.619,1.743,5.404
				c1.699,5.045,3.475,10.066,5.104,15.126C102.388,39.74,103.996,44.549,105.81,49.29z"/>
			<path fill-rule="evenodd" clip-rule="evenodd" fill="#D19B00" d="M129.32,91.633c-0.926,0.831-1.222-0.261-1.649-0.625
				c-5.583-4.765-11.524-9.028-18.017-12.446c-4.143-2.173-8.335-4.337-12.716-5.935c-5.454-1.997-11.067-3.555-16.859-4.411
				c-6.845-1.033-13.619-1.633-20.564-0.585c-3.964,0.595-7.961,0.939-11.866,1.869c-3.948,0.939-7.771,2.296-11.556,3.757
				c-2.589,1.013-5.111,2.218-7.614,3.442c-7.398,3.619-14.312,7.996-20.479,13.503c-0.807,0.718-1.48,1.859-2.892,1.421
				c2.81-2.951,5.901-5.596,9.077-8.144c6.899-5.562,14.494-9.972,22.601-13.493c4.711-2.041,9.616-3.55,14.615-4.804
				c7.093-1.775,14.26-1.942,21.413-1.549c6.96,0.388,13.688,2.232,20.314,4.607c4.991,1.785,9.709,4.082,14.344,6.564
				c4.414,2.37,8.515,5.271,12.414,8.434C123.162,85.899,126.635,88.314,129.32,91.633z"/>
			<path fill-rule="evenodd" clip-rule="evenodd" fill="#D19B00" d="M54.414,6.429c0.563-0.742,0.462-1.598,0.442-2.444
				c-0.083-3.811,0.347-4.209,4.298-3.904c-0.01,0.167-0.02,0.349-0.02,0.521c-0.42,0-0.843,0-1.264,0
				c-1.92-0.133-1.721,1.229-1.721,2.439c0,17.21,0,34.421,0.015,51.637c0,0.364-0.015,0.708,0.015,1.062
				c0.103,1.539,0.644,2.365,2.488,2.316c5.37-0.128,10.764-0.04,16.146-0.04c2.923-0.01,3.464-0.536,3.464-3.452
				c0-17.142-0.02-34.279,0.027-51.426c0-1.323-0.302-2.316-1.35-3.083c1.95-0.108,2.872,0.772,2.749,2.773
				c-0.076,1.2-0.091,2.409,0.325,3.57c-0.015,16.144-0.03,32.283-0.057,48.421c0,3.516-0.105,3.625-3.536,3.625
				c-6.093,0.01-12.18,0.01-18.266,0c-3.073,0-3.294-0.231-3.294-3.241c0-14.644-0.015-29.298,0.02-43.952
				C54.896,9.616,54.758,8.018,54.414,6.429z"/>
			<path fill-rule="evenodd" clip-rule="evenodd" fill="#D19B00" d="M94.131,9.97c-0.818-0.108-1.266,0.197-1.539,1.043
				c-0.28,0.841-0.268,1.667-0.268,2.508c-0.012,13.734-0.012,27.473-0.012,41.208c0,2.793,0.44,3.25,3.349,3.28
				c2.904,0.035,5.812-0.01,8.714,0.015c0.681,0.005,1.436-0.231,1.981,0.423c-4.241,0-8.48-0.049-12.709,0.024
				c-1.942,0.04-2.638-0.787-2.638-2.67c0.054-15.2,0.04-30.409,0.054-45.614C92.064,9.891,93.005,8.495,94.131,9.97z"/>
			<path fill-rule="evenodd" clip-rule="evenodd" fill="#D19B00" d="M123.085,59.646c1.116,0.098,2.223,0.187,2.865,1.308
				c-0.059,0.482,0.054,1.008-0.462,1.323c0-0.147-0.002-0.285-0.002-0.428c-0.018-0.871-0.642-0.856-1.259-0.856
				c-0.285,0-0.578,0-0.861,0c-0.765-1.642-2.242-0.747-3.349-0.801c-3.13-0.133-3.828,0.634-3.87,3.806
				c-0.032,2.114-0.012,4.244-0.012,6.363c0.012,2.577,0.833,3.172,3.45,3.457c1.942,0.207,3.695-1.2,5.625-0.442
				c-0.462,0.919-1.401,0.674-2.149,0.855c-1.694-0.01-3.386-0.024-5.08-0.049c-2.087-0.029-3.049-0.826-3.091-2.847
				c-0.079-3.029-0.064-6.058-0.002-9.087c0.025-1.697,1.018-2.528,2.707-2.533C119.424,59.705,121.266,59.67,123.085,59.646z"/>
			<path fill-rule="evenodd" clip-rule="evenodd" fill="#D19B00" d="M12.348,74.187c1.141-0.91,2.577-0.408,3.865-0.649
				c1.195-0.226,1.635-0.664,1.64-1.687c0.042-3.187-0.005-6.358,0.02-9.55c0.022-1.116-1.099-1.593-1.279-2.582
				c1.908-0.275,2.7,0.448,2.602,2.458c-0.138,3.034-0.035,6.083-0.04,9.117c-0.015,2.488-0.374,2.857-2.783,2.886
				C15.033,74.191,13.688,74.181,12.348,74.187z"/>
			<path fill-rule="evenodd" clip-rule="evenodd" fill="#D19B00" d="M15.75,59.719c-1.138,0.659-2.282,0.659-3.42-0.005
				C13.469,59.714,14.612,59.714,15.75,59.719z"/>
			<path fill-rule="evenodd" clip-rule="evenodd" fill="#DFA602" d="M4.172,91.594c0.155-0.211,0.315-0.423,0.455-0.634
				c0.02,0.221,0.042,0.443,0.062,0.664l-0.02,0.01C4.507,91.624,4.35,91.608,4.172,91.594z"/>
			<path fill-rule="evenodd" clip-rule="evenodd" fill="#DFA602" d="M25.848,23.518c0.167-0.143,0.347-0.28,0.507-0.428
				C26.195,23.232,26.016,23.375,25.848,23.518z"/>
			<path fill-rule="evenodd" clip-rule="evenodd" fill="#E9BB01" d="M28.932,49.235c0-7.77,0.079-15.534-0.074-23.304
				c-0.027-1.726-0.359-3.481-0.349-5.256c0.007-3.364,1.61-5.567,4.913-6.393c0.801-0.201,1.44-0.467,2.023-0.974
				c0.74-0.634,1.5-1.032,2.508-0.59c0.361,0.162,0.883,0.202,1.215,0.054c0.548-0.236,0.946-0.999,1.649-0.398
				c0.654,0.546,0.344,1.239,0.219,1.962c-0.688,3.801-2.54,7.219-3.55,10.907c-1.463,5.34-3.803,10.381-5.205,15.746
				c-0.74,2.852-2.021,5.577-3.063,8.365C29.119,49.314,29.02,49.275,28.932,49.235z"/>
			<path fill-rule="evenodd" clip-rule="evenodd" fill="#DFA602" d="M59.134,0.603c0-0.172,0.01-0.354,0.02-0.521
				c5.931-0.01,11.863-0.024,17.801-0.024c1.047,0.767,1.35,1.76,1.35,3.083c-0.046,17.147-0.027,34.284-0.027,51.426
				c0,2.916-0.541,3.442-3.464,3.452c-5.382,0-10.776-0.088-16.146,0.04c-1.844,0.049-2.385-0.777-2.488-2.316
				c-0.03-0.354-0.015-0.698-0.015-1.062c-0.015-17.216-0.015-34.427-0.015-51.637c0-1.21-0.199-2.572,1.721-2.439
				c-0.838,2.001-0.484,4.076-0.479,6.161c0.079,13.449,0.039,26.903,0.039,40.348c0,0.924-0.14,1.819-0.265,2.724
				c-0.263,1.775-0.347,3.604,0.305,5.379c0.381-1.952,1.878-3.413,2.078-5.325c0.327-3.177,1.62-6.083,2.562-9.058
				c1.957-6.117,3.87-12.25,5.54-18.455c0.472-1.77,1.239-3.452,1.652-5.227c0.627-2.734,1.49-5.385,2.304-8.06
				c0.607-2.006,1.106-4.057,1.534-6.112c0.3-1.387-0.246-2.041-1.807-1.997C67.927,1.089,64.539,1.03,61.136,1.01
				C60.452,1.005,59.695,1.242,59.134,0.603z"/>
			<path fill-rule="evenodd" clip-rule="evenodd" fill="#E9BB01" d="M10.378,61.445c1.303-0.33,2.611-0.477,3.966-0.467
				c1.406,0.015,1.546,0.565,0.986,1.711c-0.821,1.652-1.878,3.177-3.162,4.47c-0.829,0.861-0.526,2.469-2.149,2.808
				c-0.794,0.167-1.062,0.152-1.062-0.62c-0.017-2.4,0-4.819-0.01-7.229C8.947,60.968,9.586,61.057,10.378,61.445z"/>
			<path fill-rule="evenodd" clip-rule="evenodd" fill="#DFA602" d="M125.209,73.375c-1.93-0.757-3.683,0.649-5.625,0.442
				c-2.616-0.285-3.438-0.88-3.45-3.457c0-2.119-0.02-4.249,0.012-6.363c0.042-3.172,0.74-3.939,3.87-3.806
				c1.106,0.054,2.584-0.841,3.349,0.801c-0.339,0-0.698-0.034-1.04,0.015c-1.161,0.143-2.768-0.6-3.363,0.418
				c-0.607,1.077,0.821,2.09,1.482,2.985c1.601,2.168,2.355,5.05,5.043,6.363c0.022,0.777,0.042,1.544,0.062,2.312
				C125.431,73.193,125.323,73.286,125.209,73.375z"/>
			<path fill-rule="evenodd" clip-rule="evenodd" fill="#D19B00" d="M125.549,73.085c-0.02-0.768-0.04-1.534-0.062-2.312
				c0-0.561,0-1.131,0-1.691c0.233,0,0.462,0,0.681,0c0.14,1.013,0.162,2.026-0.047,3.039c-0.052,0.162-0.105,0.329-0.152,0.492
				C125.829,72.77,125.689,72.932,125.549,73.085z"/>
			<path fill-rule="evenodd" clip-rule="evenodd" fill="#DFA602" d="M125.969,72.613c0.047-0.163,0.101-0.33,0.152-0.492
				C126.07,72.283,126.016,72.45,125.969,72.613z"/>
			<path fill-rule="evenodd" clip-rule="evenodd" fill="#D19B00" d="M4.172,91.594c0.177,0.015,0.334,0.03,0.497,0.04
				c-0.155,0.325-0.436,0.403-0.763,0.403C3.993,91.889,4.089,91.741,4.172,91.594z"/>
			<path fill-rule="evenodd" clip-rule="evenodd" fill="#E9BB01" d="M125.487,69.082c0,0.561,0,1.131,0,1.691
				c-2.688-1.313-3.442-4.194-5.043-6.363c-0.661-0.895-2.09-1.908-1.482-2.985c0.595-1.018,2.203-0.275,3.363-0.418
				c0.342-0.049,0.701-0.015,1.04-0.015c0.283,0,0.576,0,0.861,0c0.221,0.566,0.656,0.841,1.259,0.856
				c0,0.143,0.002,0.28,0.002,0.428C125.487,64.543,125.487,66.81,125.487,69.082z"/>
			<path fill-rule="evenodd" clip-rule="evenodd" fill="#E9BB01" d="M105.81,49.29c-1.814-4.741-3.422-9.55-4.964-14.383
				c-1.63-5.06-3.405-10.081-5.104-15.126c-0.592-1.785-1.222-3.59-1.743-5.404c-0.487-1.741,0.964-3.295,2.577-2.602
				c3.223,1.407,6.653,2.542,8.994,5.444c0.462,0.58,0.787,1.097,0.787,1.869c-0.017,9.697-0.005,19.399-0.017,29.096
				C106.339,48.557,106.494,49.053,105.81,49.29z"/>
			<path fill-rule="evenodd" clip-rule="evenodd" fill="#E9BB01" d="M59.134,0.603c0.561,0.639,1.318,0.403,2.001,0.408
				c3.403,0.02,6.791,0.079,10.196-0.029c1.561-0.044,2.107,0.61,1.807,1.997c-0.428,2.055-0.927,4.106-1.534,6.112
				c-0.814,2.675-1.677,5.325-2.304,8.06c-0.413,1.775-1.181,3.457-1.652,5.227c-1.669,6.206-3.583,12.338-5.54,18.455
				c-0.942,2.975-2.235,5.881-2.562,9.058c-0.199,1.913-1.696,3.373-2.078,5.325c-0.651-1.775-0.568-3.604-0.305-5.379
				c0.125-0.905,0.265-1.8,0.265-2.724c0-13.444,0.04-26.898-0.039-40.348c-0.005-2.085-0.359-4.16,0.479-6.161
				C58.291,0.603,58.714,0.603,59.134,0.603z"/>
			<path fill-rule="evenodd" clip-rule="evenodd" fill="#DFA602" d="M125.485,61.849c-0.603-0.015-1.038-0.29-1.259-0.856
				C124.843,60.993,125.467,60.978,125.485,61.849z"/>
		</g>
	</g>
</g>
</svg>
