<?xml version="1.0" encoding="utf-8"?>
<!-- Generator: Adobe Illustrator 16.0.0, SVG Export Plug-In . SVG Version: 6.00 Build 0)  -->
<!DOCTYPE svg PUBLIC "-//W3C//DTD SVG 1.1//EN" "http://www.w3.org/Graphics/SVG/1.1/DTD/svg11.dtd">
<svg version="1.1" id="Capa_1" xmlns="http://www.w3.org/2000/svg" xmlns:xlink="http://www.w3.org/1999/xlink" x="0px" y="0px"
	 width="344.791px" height="388.822px" viewBox="0 0 344.791 388.822" enable-background="new 0 0 344.791 388.822"
	 xml:space="preserve">
<g>
	<g opacity="0.1">
		<g>
			<defs>
				<rect id="SVGID_15_" x="27.493" y="14.733" width="289.805" height="359.355"/>
			</defs>
			<clipPath id="SVGID_2_">
				<use xlink:href="#SVGID_15_"  overflow="visible"/>
			</clipPath>
			<path clip-path="url(#SVGID_2_)" d="M172.395,145.515L172.395,145.515h0.004l-0.008,0.012l-0.002-0.01v-0.002H172.395h-0.002
				H172.395z M317.287,324.153V217.731c0-27.424-11.87-43.797-11.87-43.797c-32.541-52.904-20.875-94.143-12.279-115.836
				c7.521-18.982,0.312-22.607-1.606-23.217c-0.274-0.088-0.44-0.114-0.44-0.114l-59.854-19.196l-2.229-0.714l-0.384-0.123
				c-0.021,0.019-0.04,0.037-0.061,0.057c-15.16,14.678-35.045,22.764-56.168,22.764c-21.125,0-41.009-8.086-56.17-22.764
				c-0.019-0.02-0.039-0.038-0.06-0.057l-0.384,0.123l-2.229,0.714L53.699,34.767c0,0-10.642,1.638-2.046,23.331
				c8.596,21.694,20.261,62.933-12.279,115.836c0,0-11.87,16.373-11.87,43.797v14.734v56.191v24.329v11.167
				c0,0-0.08,1.7,0.192,4.462c0.075,0.765,0.179,1.61,0.317,2.526c0.396,2.606,1.1,5.773,2.306,9.187
				c0.112,0.317,0.228,0.637,0.349,0.96c2.004,5.321,5.26,11.168,10.565,16.436c0.015,0.015,0.026,0.029,0.041,0.042
				c5.949,5.894,14.478,11.041,26.647,13.91c3.975,0.938,8.323,1.643,13.117,2.037c2.996,0.247,6.159,0.376,9.499,0.376h20.952
				c35.646,0,51.206-14.786,57.977-28.264c1.254-2.496,2.206-4.948,2.929-7.252l-0.006-0.019v-0.021v-0.001l0.012,0.022
				c-0.003,0.006-0.004,0.013-0.006,0.019c0.289,0.922,0.614,1.867,0.981,2.829c0.368,0.962,0.776,1.94,1.23,2.931
				c0.682,1.484,1.467,2.993,2.37,4.502c7.532,12.578,23.317,25.254,56.322,25.254h20.953c3.339,0,6.502-0.129,9.498-0.376
				s5.823-0.61,8.494-1.077c1.335-0.231,2.631-0.492,3.888-0.773c33.947-7.646,39.942-32.921,40.962-43.247
				C317.367,325.854,317.287,324.153,317.287,324.153"/>
		</g>
	</g>
	<path fill="#FFFFFF" d="M317.287,324.153V217.731c0-27.424-11.87-43.797-11.87-43.797c-32.541-52.904-20.875-94.143-12.279-115.836
		c8.596-21.693-2.047-23.331-2.047-23.331l-59.854-19.196l-2.229-0.714l-0.384-0.123c-0.02,0.019-0.04,0.037-0.061,0.057
		l-0.279,0.75l-3.307,8.868l-39.729,106.56c-3.234,8.915-7.385,14.542-12.854,14.546h0.006l-0.012,0.014v-0.014h0.006
		c-5.469-0.004-9.62-5.631-12.854-14.546l-39.729-106.56l-3.305-8.868l-0.281-0.75c-0.019-0.02-0.039-0.038-0.06-0.057l-0.384,0.123
		l-2.229,0.714L53.7,34.767c0,0-10.643,1.638-2.047,23.331c8.596,21.694,20.261,62.933-12.279,115.836
		c0,0-11.87,16.373-11.87,43.797v106.422c0,0-0.08,1.7,0.192,4.462c1.208,12.237,9.406,45.474,62.842,45.474h20.952
		c42.247,0,56.278-20.768,60.905-35.516l-0.006-0.019v-0.023l0.012,0.023l-0.006,0.019c4.625,14.748,18.658,35.516,60.904,35.516
		h20.953c53.436,0,61.633-33.236,62.842-45.474C317.367,325.854,317.287,324.153,317.287,324.153"/>
	<path fill="#FFFF00" d="M172.389,312.986h144.896v-24.33h-84.097l9.067-56.189h75.029v-14.735c0-3.37-0.183-6.569-0.497-9.595
		h-70.607l9.38-58.13l2.999-18.588l16.428-101.815l-23.432-7.515l-17.016,105.456l-2.999,18.588l-10.006,62.005h-49.146h-16.695
		h-32.441l-10.004-62.005l-3-18.588L93.233,22.088L69.8,29.604l16.43,101.815l2.998,18.588l9.38,58.13H28
		c-0.314,3.025-0.497,6.225-0.497,9.595v14.735h75.03l9.066,56.189H27.503v24.33h128.19H172.389z M127.178,232.467h28.516h16.695
		h45.223l-9.067,56.189h-36.155h-16.695h-19.449L127.178,232.467z"/>
	<path fill="#FFFFFF" d="M119.812,24.409l39.729,106.56c3.234,8.916,7.386,14.543,12.854,14.546
		c5.469-0.003,9.619-5.63,12.854-14.546l39.729-106.56c-14.983,11.696-33.295,18.059-52.582,18.059
		C153.107,42.468,134.795,36.105,119.812,24.409"/>
	<g opacity="0.36">
		<g>
			<defs>
				<rect id="SVGID_17_" x="114.837" y="17.985" width="115.11" height="124.994"/>
			</defs>
			<clipPath id="SVGID_4_">
				<use xlink:href="#SVGID_17_"  overflow="visible"/>
			</clipPath>
			<polygon clip-path="url(#SVGID_4_)" points="214.11,31.517 229.95,17.985 180.678,142.98 			"/>
			<polygon clip-path="url(#SVGID_4_)" points="130.679,31.517 114.84,17.985 164.112,142.98 			"/>
		</g>
	</g>
	<path fill="#332C2E" d="M27.696,328.615c1.208,12.237,9.406,45.474,62.842,45.474h20.952c42.247,0,56.278-20.769,60.905-35.516
		l-0.006-0.018l0.012-0.817v0.817l-0.006,0.018c4.625,14.747,18.658,35.516,60.904,35.516h20.952
		c53.437,0,61.634-33.236,62.843-45.474c0.272-2.762,0.192-4.462,0.192-4.462V217.73c0-27.424-11.87-43.797-11.87-43.797
		c-32.541-52.903-20.875-94.142-12.279-115.836c8.596-21.693-2.047-23.331-2.047-23.331l-59.854-19.196l-2.229-0.714l-0.384-0.123
		c-0.02,0.019-0.04,0.037-0.061,0.057c-15.16,14.679-35.045,22.765-56.168,22.765c-21.124,0-41.009-8.086-56.17-22.765
		c-0.019-0.02-0.039-0.038-0.06-0.057l-0.384,0.123l-2.229,0.714L53.699,34.767c0,0-10.642,1.638-2.046,23.331
		c8.596,21.694,20.261,62.933-12.279,115.836c0,0-11.87,16.373-11.87,43.797v106.423C27.503,324.153,27.423,325.854,27.696,328.615
		 M177.312,149.452c7.604-3.159,11.22-13.129,12.555-16.809L229.58,26.125l1.975-5.294l58.036,18.614l0.628,0.201
		c0.197,0.121,0.515,0.393,0.791,0.983c0.613,1.309,1.604,5.457-2.439,15.661c-16.156,40.775-12.015,80.099,12.662,120.218
		l0.098,0.159l0.109,0.15c0.101,0.141,10.936,15.588,10.936,40.913v106.423v0.115l0.005,0.116c0,0,0.055,1.44-0.174,3.747
		c-1.218,12.341-9.305,41.045-57.954,41.045h-20.952c-37.531,0-51.185-16.879-55.987-31.359V165.563V149.452z M172.389,145.515
		h0.006c-5.469-0.003-9.62-5.63-12.854-14.546l-39.729-106.56c14.984,11.696,33.295,18.059,52.583,18.059
		c19.287,0,37.599-6.363,52.582-18.059l-39.729,106.56c-3.234,8.916-7.385,14.543-12.854,14.546h0.006v0.084L172.389,145.515z
		 M32.411,324.368l0.004-0.1v-0.115V217.73c0-25.325,10.836-40.772,10.945-40.926l0.099-0.139l0.099-0.158
		C68.234,136.389,72.375,97.065,56.219,56.29c-4.043-10.204-3.053-14.352-2.439-15.661c0.297-0.634,0.642-0.901,0.834-1.007
		l0.589-0.003L55.2,39.445l58.036-18.614l1.974,5.294l39.729,106.56c1.322,3.646,4.937,13.609,12.539,16.768v16.111v172.254
		c-4.803,14.48-18.456,31.359-55.987,31.359H90.538c-48.649,0-56.735-28.704-57.954-41.045
		C32.356,325.823,32.41,324.382,32.411,324.368"/>
</g>
</svg>
