<?xml version="1.0" encoding="utf-8"?>
<!-- Generator: Adobe Illustrator 16.0.0, SVG Export Plug-In . SVG Version: 6.00 Build 0)  -->
<!DOCTYPE svg PUBLIC "-//W3C//DTD SVG 1.1//EN" "http://www.w3.org/Graphics/SVG/1.1/DTD/svg11.dtd">
<svg version="1.1" id="Capa_1" xmlns="http://www.w3.org/2000/svg" xmlns:xlink="http://www.w3.org/1999/xlink" x="0px" y="0px"
	 width="344.79px" height="388.822px" viewBox="0 0 344.79 388.822" enable-background="new 0 0 344.79 388.822"
	 xml:space="preserve">
<g>
	<g opacity="0.1">
		<g>
			<defs>
				<rect id="SVGID_9_" x="31.726" y="15.562" width="289.805" height="359.356"/>
			</defs>
			<clipPath id="SVGID_2_">
				<use xlink:href="#SVGID_9_"  overflow="visible"/>
			</clipPath>
			<path clip-path="url(#SVGID_2_)" d="M176.628,146.344L176.628,146.344h0.004l-0.008,0.012l-0.002-0.01v-0.002H176.628h-0.002
				H176.628L176.628,146.344z M321.519,324.982V218.56c0-27.425-11.869-43.798-11.869-43.798
				c-32.541-52.902-20.875-94.142-12.279-115.836c7.52-18.981,0.312-22.606-1.607-23.217c-0.273-0.088-0.439-0.113-0.439-0.113
				l-59.855-19.197l-2.229-0.713l-0.383-0.123c-0.021,0.019-0.041,0.037-0.061,0.057c-15.161,14.678-35.045,22.764-56.168,22.764
				c-21.125,0-41.01-8.086-56.17-22.764c-0.02-0.02-0.039-0.038-0.059-0.057l-0.385,0.123l-2.229,0.713L57.932,35.596
				c0,0-10.642,1.637-2.046,23.33c8.596,21.694,20.261,62.934-12.279,115.836c0,0-11.87,16.373-11.87,43.798v14.734v56.191v24.329
				v11.167c0,0-0.08,1.7,0.192,4.462c0.075,0.765,0.179,1.61,0.317,2.526c0.396,2.606,1.101,5.773,2.306,9.187
				c0.112,0.317,0.228,0.637,0.349,0.96c2.004,5.321,5.26,11.168,10.565,16.436c0.015,0.015,0.026,0.029,0.041,0.042
				c5.951,5.894,14.478,11.041,26.647,13.91c3.976,0.939,8.323,1.643,13.117,2.037c2.996,0.248,6.159,0.377,9.499,0.377h20.952
				c35.647,0,51.207-14.787,57.977-28.264c1.254-2.496,2.207-4.948,2.93-7.252l-0.006-0.019v-0.021v-0.001l0.012,0.022
				c-0.004,0.006-0.004,0.013-0.006,0.019c0.289,0.922,0.613,1.867,0.98,2.829c0.369,0.962,0.777,1.94,1.23,2.931
				c0.682,1.484,1.467,2.993,2.371,4.502c7.531,12.579,23.317,25.254,56.322,25.254h20.952c3.34,0,6.502-0.129,9.498-0.377
				c2.997-0.246,5.825-0.609,8.495-1.076c1.334-0.232,2.631-0.492,3.887-0.773c33.947-7.646,39.943-32.921,40.963-43.248
				C321.599,326.682,321.519,324.982,321.519,324.982"/>
		</g>
	</g>
	<g opacity="0.1">
		<g>
			<defs>
				<rect id="SVGID_11_" x="31.726" y="15.562" width="289.805" height="359.356"/>
			</defs>
			<clipPath id="SVGID_4_">
				<use xlink:href="#SVGID_11_"  overflow="visible"/>
			</clipPath>
			<path clip-path="url(#SVGID_4_)" d="M176.628,146.344L176.628,146.344h0.004l-0.008,0.012l-0.002-0.01v-0.002H176.628h-0.002
				H176.628L176.628,146.344z M321.519,324.982V218.56c0-27.425-11.869-43.798-11.869-43.798
				c-32.541-52.902-20.875-94.142-12.279-115.836c7.52-18.981,0.312-22.606-1.607-23.217c-0.273-0.088-0.439-0.113-0.439-0.113
				l-59.855-19.197l-2.229-0.713l-0.383-0.123c-0.021,0.019-0.041,0.037-0.061,0.057c-15.161,14.678-35.045,22.764-56.168,22.764
				c-21.125,0-41.01-8.086-56.17-22.764c-0.02-0.02-0.039-0.038-0.059-0.057l-0.385,0.123l-2.229,0.713L57.932,35.596
				c0,0-10.642,1.637-2.046,23.33c8.596,21.694,20.261,62.934-12.279,115.836c0,0-11.87,16.373-11.87,43.798v14.734v56.191v24.329
				v11.167c0,0-0.08,1.7,0.192,4.462c0.075,0.765,0.179,1.61,0.317,2.526c0.396,2.606,1.101,5.773,2.306,9.187
				c0.112,0.317,0.228,0.637,0.349,0.96c2.004,5.321,5.26,11.168,10.565,16.436c0.015,0.015,0.026,0.029,0.041,0.042
				c5.951,5.894,14.478,11.041,26.647,13.91c3.976,0.939,8.323,1.643,13.117,2.037c2.996,0.248,6.159,0.377,9.499,0.377h20.952
				c35.647,0,51.207-14.787,57.977-28.264c1.254-2.496,2.207-4.948,2.93-7.252l-0.006-0.019v-0.021v-0.001l0.012,0.022
				c-0.004,0.006-0.004,0.013-0.006,0.019c0.289,0.922,0.613,1.867,0.98,2.829c0.369,0.962,0.777,1.94,1.23,2.931
				c0.682,1.484,1.467,2.993,2.371,4.502c7.531,12.579,23.317,25.254,56.322,25.254h20.952c3.34,0,6.502-0.129,9.498-0.377
				c2.997-0.246,5.825-0.609,8.495-1.076c1.334-0.232,2.631-0.492,3.887-0.773c33.947-7.646,39.943-32.921,40.963-43.248
				C321.599,326.682,321.519,324.982,321.519,324.982"/>
		</g>
	</g>
	<path fill="#D87100" d="M321.519,324.982V218.56c0-27.425-11.869-43.798-11.869-43.798
		c-32.541-52.902-20.875-94.142-12.279-115.836c8.596-21.693-2.047-23.33-2.047-23.33l-59.855-19.197l-2.229-0.713l-0.383-0.123
		c-0.02,0.019-0.041,0.037-0.061,0.057l-0.279,0.75l-3.307,8.868l-39.729,106.56c-3.232,8.915-7.385,14.542-12.854,14.547h0.006
		l-0.012,0.014v-0.014h0.006c-5.469-0.005-9.621-5.632-12.855-14.547l-39.729-106.56l-3.305-8.868l-0.281-0.75
		c-0.02-0.02-0.039-0.038-0.059-0.057l-0.385,0.123l-2.229,0.713L57.933,35.596c0,0-10.643,1.637-2.046,23.33
		c8.595,21.694,20.26,62.934-12.28,115.836c0,0-11.87,16.373-11.87,43.798v106.422c0,0-0.08,1.7,0.192,4.462
		c1.208,12.237,9.406,45.474,62.843,45.474h20.951c42.248,0,56.279-20.768,60.906-35.516l-0.006-0.019v-0.023l0.012,0.023
		l-0.006,0.019c4.625,14.748,18.658,35.516,60.904,35.516h20.952c53.437,0,61.634-33.237,62.843-45.474
		C321.599,326.682,321.519,324.982,321.519,324.982"/>
	<path fill="#FFFF00" d="M176.623,313.815h144.896v-24.33h-84.096l9.066-56.189h75.029V218.56c0-3.37-0.182-6.569-0.496-9.595
		h-70.609l9.38-58.129l3-18.588l16.429-101.816l-23.434-7.516l-17.014,105.455l-3,18.588l-10.006,62.006h-49.146h-16.695h-32.441
		l-10.004-62.006l-3-18.588L97.466,22.917l-23.432,7.516l16.429,101.816l2.998,18.588l9.38,58.129H32.233
		c-0.314,3.025-0.497,6.225-0.497,9.595v14.735h75.03l9.067,56.189H31.736v24.33h128.191H176.623z M131.412,233.295h28.516h16.695
		h45.222l-9.067,56.189h-36.154h-16.695h-19.45L131.412,233.295z"/>
	<path fill="#D87100" d="M124.044,25.237l39.729,106.561c3.234,8.916,7.387,14.543,12.855,14.546
		c5.469-0.003,9.619-5.63,12.854-14.546L229.21,25.237c-14.983,11.697-33.295,18.06-52.582,18.06
		C157.339,43.296,139.03,36.934,124.044,25.237"/>
	<g opacity="0.41">
		<g>
			<defs>
				<rect id="SVGID_13_" x="119.072" y="18.814" width="115.111" height="124.995"/>
			</defs>
			<clipPath id="SVGID_6_">
				<use xlink:href="#SVGID_13_"  overflow="visible"/>
			</clipPath>
			<polygon clip-path="url(#SVGID_6_)" points="218.344,32.346 234.183,18.814 184.912,143.809 			"/>
			<polygon clip-path="url(#SVGID_6_)" points="134.912,32.346 119.074,18.814 168.345,143.809 			"/>
		</g>
	</g>
	<path fill="#332C2E" d="M31.929,329.444c1.208,12.237,9.406,45.474,62.842,45.474h20.952c42.248,0,56.279-20.769,60.906-35.516
		l-0.006-0.018l0.012-0.817v0.817l-0.006,0.018c4.625,14.747,18.658,35.516,60.904,35.516h20.952
		c53.437,0,61.634-33.237,62.843-45.474c0.271-2.762,0.191-4.462,0.191-4.462V218.559c0-27.424-11.869-43.797-11.869-43.797
		c-32.541-52.902-20.875-94.142-12.279-115.836c8.596-21.693-2.047-23.331-2.047-23.331l-59.855-19.196l-2.229-0.713l-0.383-0.123
		c-0.02,0.019-0.041,0.037-0.061,0.057c-15.161,14.679-35.045,22.765-56.168,22.765c-21.125,0-41.01-8.086-56.17-22.765
		c-0.02-0.02-0.039-0.038-0.059-0.057l-0.385,0.123l-2.229,0.713L57.932,35.595c0,0-10.643,1.638-2.046,23.331
		c8.596,21.694,20.261,62.934-12.279,115.836c0,0-11.87,16.373-11.87,43.797v106.423C31.736,324.982,31.656,326.682,31.929,329.444
		 M181.544,150.282c7.604-3.16,11.221-13.131,12.555-16.809l39.713-106.52l1.975-5.294l58.037,18.614l0.627,0.201
		c0.197,0.12,0.516,0.393,0.791,0.982c0.613,1.309,1.605,5.457-2.439,15.661c-16.156,40.774-12.014,80.099,12.662,120.218
		l0.098,0.159l0.111,0.149c0.1,0.142,10.934,15.588,10.934,40.914v106.423v0.115l0.006,0.116c0,0,0.055,1.44-0.174,3.747
		c-1.219,12.341-9.305,41.045-57.954,41.045h-20.952c-37.532,0-51.186-16.879-55.988-31.36V166.393V150.282z M176.623,146.343h0.006
		c-5.469-0.003-9.621-5.63-12.855-14.546L124.044,25.237c14.985,11.697,33.295,18.06,52.584,18.06
		c19.287,0,37.599-6.362,52.582-18.06l-39.729,106.561c-3.234,8.916-7.385,14.543-12.854,14.546h0.006v0.084L176.623,146.343z
		 M36.644,325.197l0.004-0.1v-0.115V218.559c0-25.326,10.836-40.772,10.945-40.926l0.099-0.139l0.098-0.158
		c24.678-40.119,28.82-79.443,12.663-120.218c-4.043-10.204-3.052-14.353-2.439-15.661c0.297-0.634,0.642-0.9,0.834-1.007
		l0.589-0.003l-0.003-0.174l58.036-18.614l1.975,5.294l39.729,106.561c1.322,3.645,4.936,13.608,12.539,16.768v16.111v172.253
		c-4.803,14.48-18.456,31.36-55.988,31.36H94.771c-48.649,0-56.735-28.705-57.954-41.045
		C36.589,326.652,36.643,325.21,36.644,325.197"/>
</g>
</svg>
