<?xml version="1.0" encoding="utf-8"?>
<!-- Generator: Adobe Illustrator 16.0.0, SVG Export Plug-In . SVG Version: 6.00 Build 0)  -->
<!DOCTYPE svg PUBLIC "-//W3C//DTD SVG 1.1//EN" "http://www.w3.org/Graphics/SVG/1.1/DTD/svg11.dtd">
<svg version="1.1" id="Capa_1" xmlns="http://www.w3.org/2000/svg" xmlns:xlink="http://www.w3.org/1999/xlink" x="0px" y="0px"
	 width="344.79px" height="388.822px" viewBox="0 0 344.79 388.822" enable-background="new 0 0 344.79 388.822"
	 xml:space="preserve">
<g>
	<g opacity="0.1">
		<g>
			<defs>
				<rect id="SVGID_5_" x="27.492" y="14.733" width="289.806" height="359.355"/>
			</defs>
			<clipPath id="SVGID_2_">
				<use xlink:href="#SVGID_5_"  overflow="visible"/>
			</clipPath>
			<path clip-path="url(#SVGID_2_)" d="M172.396,145.516h-0.002h0.004l-0.008,0.012v-0.01v-0.002h0.004l0,0l0,0H172.396z
				 M317.287,324.153V217.731c0-27.425-11.87-43.798-11.87-43.798c-32.54-52.902-20.875-94.142-12.278-115.836
				c7.52-18.981,0.312-22.606-1.607-23.217c-0.274-0.088-0.44-0.113-0.44-0.113L231.237,15.57l-2.229-0.713l-0.384-0.123
				c-0.021,0.019-0.04,0.037-0.06,0.057c-15.16,14.678-35.045,22.764-56.17,22.764c-21.123,0-41.006-8.086-56.168-22.764
				c-0.02-0.02-0.041-0.038-0.06-0.057l-0.384,0.123l-2.229,0.713L53.7,34.768c0,0-10.642,1.637-2.047,23.33
				c8.596,21.694,20.262,62.934-12.279,115.836c0,0-11.87,16.373-11.87,43.798v14.734v56.191v24.329v11.167
				c0,0-0.08,1.7,0.192,4.462c0.075,0.765,0.179,1.61,0.319,2.526c0.396,2.606,1.099,5.773,2.304,9.187
				c0.112,0.317,0.228,0.637,0.349,0.96c2.004,5.321,5.262,11.168,10.566,16.436c0.014,0.015,0.027,0.029,0.039,0.042
				c5.951,5.894,14.479,11.041,26.648,13.91c3.975,0.938,8.323,1.643,13.118,2.037c2.996,0.247,6.159,0.376,9.498,0.376h20.952
				c35.646,0,51.206-14.786,57.977-28.264c1.254-2.496,2.206-4.948,2.928-7.252l-0.004-0.019v-0.021v-0.001l0.01,0.022
				c-0.002,0.006-0.004,0.013-0.006,0.019c0.289,0.922,0.617,1.867,0.982,2.829c0.368,0.962,0.776,1.94,1.23,2.931
				c0.683,1.484,1.467,2.993,2.369,4.502c7.535,12.578,23.318,25.254,56.324,25.254h20.952c3.341,0,6.503-0.129,9.498-0.376
				c2.996-0.247,5.824-0.61,8.494-1.077c1.335-0.231,2.631-0.492,3.888-0.773c33.947-7.646,39.942-32.921,40.963-43.247
				C317.367,325.854,317.287,324.153,317.287,324.153"/>
		</g>
	</g>
	<path fill="#FF0606" d="M317.287,324.153V217.731c0-27.425-11.87-43.798-11.87-43.798c-32.54-52.902-20.875-94.142-12.278-115.836
		c8.594-21.693-2.047-23.33-2.047-23.33L231.237,15.57l-2.229-0.713l-0.384-0.123c-0.021,0.019-0.04,0.037-0.06,0.057l-0.28,0.75
		l-3.306,8.868l-39.729,106.56c-3.234,8.915-7.386,14.542-12.855,14.547h0.006l-0.01,0.014v-0.014h0.004
		c-5.467-0.005-9.619-5.632-12.853-14.547l-39.729-106.56l-3.305-8.868l-0.281-0.75c-0.02-0.02-0.041-0.038-0.06-0.057l-0.384,0.123
		l-2.229,0.713L53.7,34.768c0,0-10.642,1.637-2.046,23.33c8.596,21.694,20.261,62.934-12.28,115.836c0,0-11.87,16.373-11.87,43.798
		v106.422c0,0-0.08,1.7,0.192,4.462c1.209,12.237,9.405,45.474,62.843,45.474h20.951c42.247,0,56.279-20.768,60.904-35.516
		l-0.004-0.019v-0.023l0.01,0.023l-0.006,0.019c4.627,14.748,18.66,35.516,60.906,35.516h20.952
		c53.435,0,61.634-33.236,62.843-45.474C317.367,325.854,317.287,324.153,317.287,324.153"/>
	<path fill="#FFFF00" d="M172.39,312.986h144.897v-24.33h-84.096l9.065-56.189h75.03v-14.735c0-3.37-0.183-6.569-0.498-9.595
		h-70.606l9.38-58.129l2.998-18.588l16.43-101.816l-23.433-7.516l-17.017,105.455l-3,18.588l-10.004,62.006H172.39h-16.694h-32.442
		l-10.005-62.006l-3-18.588L93.234,22.088l-23.433,7.516L86.23,131.42l2.999,18.588l9.38,58.129H28.001
		c-0.314,3.025-0.497,6.225-0.497,9.595v14.735h75.029l9.067,56.189H27.504v24.33h128.191H172.39z M127.179,232.467h28.517h16.694
		h45.224l-9.067,56.189H172.39h-16.694h-19.449L127.179,232.467z"/>
	<path fill="#FF0606" d="M119.812,24.408l39.729,106.561c3.234,8.916,7.386,14.543,12.854,14.546
		c5.469-0.003,9.62-5.63,12.854-14.546l39.729-106.561c-14.984,11.697-33.295,18.06-52.583,18.06S134.797,36.105,119.812,24.408"/>
	<g opacity="0.51">
		<g>
			<defs>
				<rect id="SVGID_7_" x="114.841" y="17.985" width="115.11" height="124.995"/>
			</defs>
			<clipPath id="SVGID_4_">
				<use xlink:href="#SVGID_7_"  overflow="visible"/>
			</clipPath>
			<polygon clip-path="url(#SVGID_4_)" points="214.111,31.518 229.95,17.985 180.68,142.98 			"/>
			<polygon clip-path="url(#SVGID_4_)" points="130.68,31.518 114.841,17.985 164.113,142.98 			"/>
		</g>
	</g>
	<path fill="#332C2E" d="M27.696,328.615c1.209,12.237,9.405,45.474,62.842,45.474h20.952c42.247,0,56.279-20.769,60.904-35.516
		l-0.004-0.018l0.011-0.817v0.817l-0.007,0.018c4.627,14.747,18.66,35.516,60.906,35.516h20.951
		c53.436,0,61.635-33.236,62.844-45.474c0.271-2.762,0.191-4.462,0.191-4.462V217.73c0-27.424-11.87-43.797-11.87-43.797
		c-32.54-52.902-20.875-94.142-12.278-115.836c8.594-21.693-2.047-23.331-2.047-23.331L231.237,15.57l-2.229-0.713l-0.384-0.123
		c-0.021,0.019-0.04,0.037-0.06,0.057c-15.16,14.679-35.045,22.765-56.17,22.765c-21.123,0-41.006-8.086-56.168-22.765
		c-0.02-0.02-0.041-0.038-0.06-0.057l-0.384,0.123l-2.229,0.713L53.7,34.767c0,0-10.644,1.638-2.047,23.331
		c8.596,21.694,20.262,62.934-12.279,115.836c0,0-11.87,16.373-11.87,43.797v106.423C27.504,324.153,27.424,325.854,27.696,328.615
		 M177.312,149.453c7.604-3.16,11.22-13.131,12.555-16.809l39.714-106.52l1.974-5.294l58.037,18.614l0.627,0.201
		c0.197,0.12,0.516,0.393,0.791,0.982c0.613,1.309,1.604,5.457-2.439,15.661c-16.156,40.774-12.014,80.099,12.662,120.218
		l0.098,0.159l0.109,0.149c0.101,0.142,10.937,15.588,10.937,40.914v106.423v0.115l0.005,0.116c0,0,0.053,1.44-0.174,3.747
		c-1.219,12.341-9.305,41.045-57.955,41.045h-20.951c-37.531,0-51.186-16.879-55.988-31.359V165.564V149.453z M172.391,145.515
		h0.004c-5.467-0.003-9.619-5.63-12.853-14.546L119.812,24.408c14.984,11.697,33.295,18.06,52.582,18.06
		c19.289,0,37.6-6.362,52.584-18.06L185.25,130.969c-3.234,8.916-7.386,14.543-12.855,14.546h0.007v0.084L172.391,145.515z
		 M32.411,324.368l0.004-0.1l0.001-0.115V217.73c0-25.326,10.835-40.772,10.944-40.926l0.099-0.139l0.1-0.158
		C68.234,136.389,72.377,97.064,56.221,56.29c-4.043-10.204-3.053-14.353-2.44-15.661c0.298-0.634,0.642-0.9,0.835-1.007
		l0.588-0.003L55.2,39.445l58.036-18.614l1.975,5.294l39.729,106.561c1.322,3.645,4.936,13.608,12.539,16.768v16.111v172.253
		c-4.803,14.48-18.457,31.359-55.988,31.359H90.538c-48.649,0-56.735-28.704-57.954-41.045
		C32.355,325.823,32.41,324.382,32.411,324.368"/>
</g>
</svg>
