<?xml version="1.0" encoding="utf-8"?>
<!-- Generator: Adobe Illustrator 16.0.0, SVG Export Plug-In . SVG Version: 6.00 Build 0)  -->
<!DOCTYPE svg PUBLIC "-//W3C//DTD SVG 1.1//EN" "http://www.w3.org/Graphics/SVG/1.1/DTD/svg11.dtd">
<svg version="1.1" id="OBJECTS" xmlns="http://www.w3.org/2000/svg" xmlns:xlink="http://www.w3.org/1999/xlink" x="0px" y="0px"
	 width="684.082px" height="391.066px" viewBox="-469.607 187.211 684.082 391.066"
	 enable-background="new -469.607 187.211 684.082 391.066" xml:space="preserve">
<g>
	<g>
		<g enable-background="new    ">
			<g>
				<path fill="#9B9B9B" d="M214.475,424.106l-0.048,9.599c-0.002,0.736-0.485,1.471-1.451,2.032l0.048-9.6
					C213.989,425.577,214.473,424.843,214.475,424.106z"/>
			</g>
			<g>
				<path fill="#D8D8D8" d="M-469.607,327.455l0.048-9.6c-0.002,0.742,0.488,1.487,1.472,2.057l-0.048,9.599
					C-469.119,328.943-469.609,328.198-469.607,327.455z"/>
			</g>
			<g>
				<polygon fill="#AAA9A9" points="213.023,426.139 212.976,435.737 -32.854,577.434 -32.807,567.835 				"/>
			</g>
			<g>
				<polygon fill="#CECECE" points="-39.866,567.831 -39.913,577.43 -468.136,329.511 -468.088,319.912 				"/>
			</g>
			<g>
				<path fill="#B7B7B7" d="M-32.807,567.835l-0.047,9.599c-1.938,1.126-5.103,1.126-7.059-0.004l0.047-9.599
					C-37.909,568.961-34.744,568.961-32.807,567.835z"/>
			</g>
			<g>
				<path fill="#8FAD45" d="M213,422.046c1.957,1.13,1.967,2.963,0.023,4.093l-245.83,141.696c-1.937,1.126-5.102,1.126-7.059-0.004
					l-428.222-247.919c-1.957-1.13-1.96-2.959-0.023-4.085l219.855-127.766c1.944-1.13,5.102-1.134,7.059-0.004L213,422.046z"/>
			</g>
			<path fill="#606060" d="M-468.111,315.827c-1.938,1.126-1.934,2.955,0.023,4.085l428.222,247.919
				c1.957,1.13,5.122,1.13,7.059,0.004l31.329-18.206l-435.304-252.008L-468.111,315.827z"/>
		</g>
	</g>
	<g>
		<g>
			<g>
				<g enable-background="new    ">
					<g>
						<polygon fill="#259D63" points="-380.54,279.908 -387.048,283.697 -393.611,279.908 -387.091,276.118 						"/>
					</g>
					<g>
						<polygon fill="#218C59" points="-380.54,279.908 -380.54,284.361 -387.048,288.15 -387.048,283.697 						"/>
					</g>
					<g>
						<polygon fill="#17623E" points="-387.048,283.697 -387.048,288.15 -393.611,284.361 -393.611,279.908 						"/>
					</g>
				</g>
			</g>
			<g>
				<g enable-background="new    ">
					<g>
						<polygon fill="#654123" points="-384.98,271.732 -387.06,272.941 -389.153,271.732 -387.074,270.523 						"/>
					</g>
					<g>
						<polygon fill="#5A3B20" points="-384.98,271.732 -384.998,280.15 -387.078,281.359 -387.06,272.941 						"/>
					</g>
					<g>
						<polygon fill="#3F2916" points="-387.06,272.941 -387.078,281.359 -389.171,280.15 -389.153,271.732 						"/>
					</g>
				</g>
			</g>
		</g>
		<g>
			<g enable-background="new    ">
				<g>
					<polygon fill="#218C59" points="-374.759,269.6 -387.023,276.742 -387.023,245.633 					"/>
				</g>
				<g>
					<polygon fill="#17623E" points="-387.023,245.633 -387.023,276.742 -399.393,269.6 					"/>
				</g>
			</g>
		</g>
		<g>
			<g enable-background="new    ">
				<g>
					<polygon fill="#1F8253" points="-374.759,263.547 -387.023,270.689 -387.023,239.58 					"/>
				</g>
				<g>
					<polygon fill="#145233" points="-387.023,239.58 -387.023,270.689 -399.393,263.547 					"/>
				</g>
			</g>
		</g>
	</g>
	<g>
		<g>
			<g>
				<g enable-background="new    ">
					<g>
						<polygon fill="#259D63" points="-348.546,262.814 -355.055,266.604 -361.618,262.814 -355.097,259.025 						"/>
					</g>
					<g>
						<polygon fill="#218C59" points="-348.546,262.814 -348.546,267.27 -355.055,271.059 -355.055,266.604 						"/>
					</g>
					<g>
						<polygon fill="#17623E" points="-355.055,266.604 -355.055,271.059 -361.618,267.27 -361.618,262.814 						"/>
					</g>
				</g>
			</g>
			<g>
				<g enable-background="new    ">
					<g>
						<polygon fill="#654123" points="-352.987,254.641 -355.066,255.85 -357.16,254.641 -355.08,253.432 						"/>
					</g>
					<g>
						<polygon fill="#5A3B20" points="-352.987,254.641 -353.005,263.059 -355.084,264.268 -355.066,255.85 						"/>
					</g>
					<g>
						<polygon fill="#3F2916" points="-355.066,255.85 -355.084,264.268 -357.177,263.059 -357.16,254.641 						"/>
					</g>
				</g>
			</g>
		</g>
		<g>
			<g enable-background="new    ">
				<g>
					<polygon fill="#218C59" points="-342.765,252.508 -355.03,259.648 -355.03,228.54 					"/>
				</g>
				<g>
					<polygon fill="#17623E" points="-355.03,228.54 -355.03,259.648 -367.399,252.508 					"/>
				</g>
			</g>
		</g>
		<g>
			<g enable-background="new    ">
				<g>
					<polygon fill="#1F8253" points="-342.765,246.455 -355.03,253.596 -355.03,222.487 					"/>
				</g>
				<g>
					<polygon fill="#145233" points="-355.03,222.487 -355.03,253.596 -367.399,246.455 					"/>
				</g>
			</g>
		</g>
	</g>
	<g>
		<g>
			<g>
				<g enable-background="new    ">
					<g>
						<polygon fill="#259D63" points="-316.553,245.722 -323.061,249.512 -329.624,245.722 -323.104,241.933 						"/>
					</g>
					<g>
						<polygon fill="#218C59" points="-316.553,245.722 -316.553,250.176 -323.061,253.965 -323.061,249.512 						"/>
					</g>
					<g>
						<polygon fill="#17623E" points="-323.061,249.512 -323.061,253.965 -329.624,250.176 -329.624,245.722 						"/>
					</g>
				</g>
			</g>
			<g>
				<g enable-background="new    ">
					<g>
						<polygon fill="#654123" points="-320.994,237.547 -323.073,238.756 -325.166,237.547 -323.086,236.339 						"/>
					</g>
					<g>
						<polygon fill="#5A3B20" points="-320.994,237.547 -321.011,245.965 -323.091,247.174 -323.073,238.756 						"/>
					</g>
					<g>
						<polygon fill="#3F2916" points="-323.073,238.756 -323.091,247.174 -325.184,245.965 -325.166,237.547 						"/>
					</g>
				</g>
			</g>
		</g>
		<g>
			<g enable-background="new    ">
				<g>
					<polygon fill="#218C59" points="-310.771,235.415 -323.037,242.557 -323.037,211.448 					"/>
				</g>
				<g>
					<polygon fill="#17623E" points="-323.037,211.448 -323.037,242.557 -335.406,235.415 					"/>
				</g>
			</g>
		</g>
		<g>
			<g enable-background="new    ">
				<g>
					<polygon fill="#1F8253" points="-310.771,229.362 -323.037,236.503 -323.037,205.395 					"/>
				</g>
				<g>
					<polygon fill="#145233" points="-323.037,205.395 -323.037,236.503 -335.406,229.362 					"/>
				</g>
			</g>
		</g>
	</g>
	<g>
		<g>
			<g>
				<g enable-background="new    ">
					<g>
						<polygon fill="#259D63" points="-284.56,228.629 -291.067,232.419 -297.631,228.629 -291.11,224.84 						"/>
					</g>
					<g>
						<polygon fill="#218C59" points="-284.56,228.629 -284.56,233.083 -291.067,236.873 -291.067,232.419 						"/>
					</g>
					<g>
						<polygon fill="#17623E" points="-291.067,232.419 -291.067,236.873 -297.631,233.083 -297.631,228.629 						"/>
					</g>
				</g>
			</g>
			<g>
				<g enable-background="new    ">
					<g>
						<polygon fill="#654123" points="-289,220.455 -291.08,221.663 -293.172,220.455 -291.093,219.246 						"/>
					</g>
					<g>
						<polygon fill="#5A3B20" points="-289,220.455 -289.018,228.873 -291.097,230.081 -291.08,221.663 						"/>
					</g>
					<g>
						<polygon fill="#3F2916" points="-291.08,221.663 -291.097,230.081 -293.19,228.873 -293.172,220.455 						"/>
					</g>
				</g>
			</g>
		</g>
		<g>
			<g enable-background="new    ">
				<g>
					<polygon fill="#218C59" points="-278.778,218.322 -291.043,225.464 -291.043,194.355 					"/>
				</g>
				<g>
					<polygon fill="#17623E" points="-291.043,194.355 -291.043,225.464 -303.412,218.322 					"/>
				</g>
			</g>
		</g>
		<g>
			<g enable-background="new    ">
				<g>
					<polygon fill="#1F8253" points="-278.778,212.27 -291.043,219.411 -291.043,188.302 					"/>
				</g>
				<g>
					<polygon fill="#145233" points="-291.043,188.302 -291.043,219.411 -303.412,212.27 					"/>
				</g>
			</g>
		</g>
	</g>
	<g>
		<g>
			<g>
				<g>
					<g enable-background="new    ">
						<g>
							<polygon fill="#259D63" points="-199.073,407.578 -205.581,411.367 -212.145,407.578 -205.624,403.789 							"/>
						</g>
						<g>
							<polygon fill="#218C59" points="-199.073,407.578 -199.073,412.032 -205.581,415.821 -205.581,411.367 							"/>
						</g>
						<g>
							<polygon fill="#17623E" points="-205.581,411.367 -205.581,415.821 -212.145,412.032 -212.145,407.578 							"/>
						</g>
					</g>
				</g>
				<g>
					<g enable-background="new    ">
						<g>
							<polygon fill="#654123" points="-203.514,399.403 -205.594,400.611 -207.687,399.403 -205.607,398.194 							"/>
						</g>
						<g>
							<polygon fill="#5A3B20" points="-203.514,399.403 -203.531,407.821 -205.611,409.03 -205.594,400.611 							"/>
						</g>
						<g>
							<polygon fill="#3F2916" points="-205.594,400.611 -205.611,409.03 -207.704,407.821 -207.687,399.403 							"/>
						</g>
					</g>
				</g>
			</g>
			<g>
				<g enable-background="new    ">
					<g>
						<polygon fill="#218C59" points="-193.292,397.271 -205.557,404.412 -205.557,373.304 						"/>
					</g>
					<g>
						<polygon fill="#17623E" points="-205.557,373.304 -205.557,404.412 -217.926,397.271 						"/>
					</g>
				</g>
			</g>
			<g>
				<g enable-background="new    ">
					<g>
						<polygon fill="#1F8253" points="-193.292,391.218 -205.557,398.359 -205.557,367.251 						"/>
					</g>
					<g>
						<polygon fill="#145233" points="-205.557,367.251 -205.557,398.359 -217.926,391.218 						"/>
					</g>
				</g>
			</g>
		</g>
		<g>
			<g>
				<g>
					<g enable-background="new    ">
						<g>
							<polygon fill="#259D63" points="-167.08,390.485 -173.588,394.274 -180.151,390.485 -173.631,386.696 							"/>
						</g>
						<g>
							<polygon fill="#218C59" points="-167.08,390.485 -167.08,394.939 -173.588,398.729 -173.588,394.274 							"/>
						</g>
						<g>
							<polygon fill="#17623E" points="-173.588,394.274 -173.588,398.729 -180.151,394.939 -180.151,390.485 							"/>
						</g>
					</g>
				</g>
				<g>
					<g enable-background="new    ">
						<g>
							<polygon fill="#654123" points="-171.521,382.311 -173.6,383.519 -175.693,382.311 -173.613,381.103 							"/>
						</g>
						<g>
							<polygon fill="#5A3B20" points="-171.521,382.311 -171.538,390.729 -173.617,391.938 -173.6,383.519 							"/>
						</g>
						<g>
							<polygon fill="#3F2916" points="-173.6,383.519 -173.617,391.938 -175.711,390.729 -175.693,382.311 							"/>
						</g>
					</g>
				</g>
			</g>
			<g>
				<g enable-background="new    ">
					<g>
						<polygon fill="#218C59" points="-161.299,380.179 -173.563,387.319 -173.563,356.211 						"/>
					</g>
					<g>
						<polygon fill="#17623E" points="-173.563,356.211 -173.563,387.319 -185.933,380.179 						"/>
					</g>
				</g>
			</g>
			<g>
				<g enable-background="new    ">
					<g>
						<polygon fill="#1F8253" points="-161.299,374.125 -173.563,381.267 -173.563,350.158 						"/>
					</g>
					<g>
						<polygon fill="#145233" points="-173.563,350.158 -173.563,381.267 -185.933,374.126 						"/>
					</g>
				</g>
			</g>
		</g>
	</g>
	<g>
		<g>
			<g>
				<g>
					<g>
						<g enable-background="new    ">
							<g>
								<polygon fill="#259D63" points="-382.195,315.023 -387.084,317.87 -392.014,315.023 -387.116,312.177 								"/>
							</g>
							<g>
								<polygon fill="#218C59" points="-382.195,315.023 -382.195,318.369 -387.084,321.215 -387.084,317.87 								"/>
							</g>
							<g>
								<polygon fill="#17623E" points="-387.084,317.87 -387.084,321.215 -392.014,318.369 -392.014,315.023 								"/>
							</g>
						</g>
					</g>
					<g>
						<g enable-background="new    ">
							<g>
								<polygon fill="#654123" points="-385.531,308.883 -387.093,309.791 -388.665,308.883 -387.103,307.976 								"/>
							</g>
							<g>
								<polygon fill="#5A3B20" points="-385.531,308.883 -385.544,315.206 -387.106,316.114 -387.093,309.791 								"/>
							</g>
							<g>
								<polygon fill="#3F2916" points="-387.093,309.791 -387.106,316.114 -388.678,315.206 -388.665,308.883 								"/>
							</g>
						</g>
					</g>
					<g>
						<g enable-background="new    ">
							<g>
								<polygon fill="#259D63" points="-377.853,301.365 -387.065,306.729 -396.356,301.365 -387.126,296.001 								"/>
							</g>
							<g>
								<polygon fill="#218C59" points="-377.853,301.365 -377.853,307.281 -387.065,312.646 -387.065,306.729 								"/>
							</g>
							<g>
								<polygon fill="#17623E" points="-387.065,306.729 -387.065,312.646 -396.356,307.281 -396.356,301.365 								"/>
							</g>
						</g>
					</g>
					<g>
						<g enable-background="new    ">
							<g>
								<polygon fill="#259D63" points="-377.853,293.732 -387.065,299.098 -396.356,293.732 -387.126,288.369 								"/>
							</g>
							<g>
								<polygon fill="#218C59" points="-377.853,293.732 -377.853,299.648 -387.065,305.014 -387.065,299.098 								"/>
							</g>
							<g>
								<polygon fill="#17623E" points="-387.065,299.098 -387.065,305.014 -396.356,299.648 -396.356,293.732 								"/>
							</g>
						</g>
					</g>
					<g>
						<g enable-background="new    ">
							<g>
								<polygon fill="#259D63" points="-380.791,289.682 -387.078,293.343 -393.418,289.682 -387.119,286.021 								"/>
							</g>
							<g>
								<polygon fill="#218C59" points="-380.791,289.682 -380.791,293.721 -387.078,297.381 -387.078,293.343 								"/>
							</g>
							<g>
								<polygon fill="#17623E" points="-387.078,293.343 -387.078,297.381 -393.418,293.721 -393.418,289.682 								"/>
							</g>
						</g>
					</g>
				</g>
			</g>
		</g>
		<g>
			<g>
				<g>
					<g>
						<g enable-background="new    ">
							<g>
								<polygon fill="#259D63" points="-365.969,324.349 -370.857,327.195 -375.787,324.349 -370.889,321.503 								"/>
							</g>
							<g>
								<polygon fill="#218C59" points="-365.969,324.349 -365.969,327.694 -370.857,330.541 -370.857,327.195 								"/>
							</g>
							<g>
								<polygon fill="#17623E" points="-370.857,327.195 -370.857,330.541 -375.787,327.694 -375.787,324.349 								"/>
							</g>
						</g>
					</g>
					<g>
						<g enable-background="new    ">
							<g>
								<polygon fill="#654123" points="-369.304,318.209 -370.866,319.116 -372.438,318.209 -370.876,317.301 								"/>
							</g>
							<g>
								<polygon fill="#5A3B20" points="-369.304,318.209 -369.317,324.532 -370.879,325.439 -370.866,319.116 								"/>
							</g>
							<g>
								<polygon fill="#3F2916" points="-370.866,319.116 -370.879,325.439 -372.452,324.532 -372.438,318.209 								"/>
							</g>
						</g>
					</g>
					<g>
						<g enable-background="new    ">
							<g>
								<polygon fill="#259D63" points="-361.626,310.69 -370.838,316.055 -380.129,310.69 -370.899,305.327 								"/>
							</g>
							<g>
								<polygon fill="#218C59" points="-361.626,310.69 -361.626,316.607 -370.838,321.972 -370.838,316.055 								"/>
							</g>
							<g>
								<polygon fill="#17623E" points="-370.838,316.055 -370.838,321.972 -380.129,316.607 -380.129,310.69 								"/>
							</g>
						</g>
					</g>
					<g>
						<g enable-background="new    ">
							<g>
								<polygon fill="#259D63" points="-361.626,303.059 -370.838,308.423 -380.129,303.059 -370.899,297.693 								"/>
							</g>
							<g>
								<polygon fill="#218C59" points="-361.626,303.059 -361.626,308.975 -370.838,314.339 -370.838,308.423 								"/>
							</g>
							<g>
								<polygon fill="#17623E" points="-370.838,308.423 -370.838,314.339 -380.129,308.975 -380.129,303.059 								"/>
							</g>
						</g>
					</g>
					<g>
						<g enable-background="new    ">
							<g>
								<polygon fill="#259D63" points="-364.564,299.008 -370.851,302.669 -377.192,299.008 -370.892,295.348 								"/>
							</g>
							<g>
								<polygon fill="#218C59" points="-364.564,299.008 -364.564,303.046 -370.851,306.706 -370.851,302.669 								"/>
							</g>
							<g>
								<polygon fill="#17623E" points="-370.851,302.669 -370.851,306.706 -377.192,303.046 -377.192,299.008 								"/>
							</g>
						</g>
					</g>
				</g>
			</g>
		</g>
		<g>
			<g>
				<g>
					<g>
						<g enable-background="new    ">
							<g>
								<polygon fill="#259D63" points="-349.742,333.675 -354.63,336.521 -359.56,333.675 -354.662,330.828 								"/>
							</g>
							<g>
								<polygon fill="#218C59" points="-349.742,333.675 -349.742,337.021 -354.63,339.866 -354.63,336.521 								"/>
							</g>
							<g>
								<polygon fill="#17623E" points="-354.63,336.521 -354.63,339.866 -359.56,337.021 -359.56,333.675 								"/>
							</g>
						</g>
					</g>
					<g>
						<g enable-background="new    ">
							<g>
								<polygon fill="#654123" points="-353.077,327.534 -354.639,328.442 -356.211,327.534 -354.649,326.627 								"/>
							</g>
							<g>
								<polygon fill="#5A3B20" points="-353.077,327.534 -353.09,333.857 -354.652,334.765 -354.639,328.442 								"/>
							</g>
							<g>
								<polygon fill="#3F2916" points="-354.639,328.442 -354.652,334.765 -356.225,333.857 -356.211,327.534 								"/>
							</g>
						</g>
					</g>
					<g>
						<g enable-background="new    ">
							<g>
								<polygon fill="#259D63" points="-345.399,320.017 -354.612,325.381 -363.902,320.017 -354.672,314.652 								"/>
							</g>
							<g>
								<polygon fill="#218C59" points="-345.399,320.017 -345.399,325.933 -354.612,331.297 -354.612,325.381 								"/>
							</g>
							<g>
								<polygon fill="#17623E" points="-354.612,325.381 -354.612,331.297 -363.902,325.933 -363.902,320.017 								"/>
							</g>
						</g>
					</g>
					<g>
						<g enable-background="new    ">
							<g>
								<polygon fill="#259D63" points="-345.399,312.384 -354.612,317.748 -363.902,312.384 -354.672,307.021 								"/>
							</g>
							<g>
								<polygon fill="#218C59" points="-345.399,312.384 -345.399,318.301 -354.612,323.664 -354.612,317.748 								"/>
							</g>
							<g>
								<polygon fill="#17623E" points="-354.612,317.748 -354.612,323.664 -363.902,318.301 -363.902,312.384 								"/>
							</g>
						</g>
					</g>
					<g>
						<g enable-background="new    ">
							<g>
								<polygon fill="#259D63" points="-348.337,308.333 -354.624,311.994 -360.965,308.333 -354.666,304.673 								"/>
							</g>
							<g>
								<polygon fill="#218C59" points="-348.337,308.333 -348.337,312.371 -354.624,316.032 -354.624,311.994 								"/>
							</g>
							<g>
								<polygon fill="#17623E" points="-354.624,311.994 -354.624,316.032 -360.965,312.371 -360.965,308.333 								"/>
							</g>
						</g>
					</g>
				</g>
			</g>
		</g>
	</g>
	<g>
		<g>
			<g>
				<g>
					<g>
						<g enable-background="new    ">
							<g>
								<polygon fill="#259D63" points="-279.657,375.074 -284.545,377.921 -289.475,375.075 -284.577,372.229 								"/>
							</g>
							<g>
								<polygon fill="#218C59" points="-279.657,375.074 -279.657,378.42 -284.545,381.267 -284.545,377.921 								"/>
							</g>
							<g>
								<polygon fill="#17623E" points="-284.545,377.921 -284.545,381.267 -289.475,378.42 -289.475,375.075 								"/>
							</g>
						</g>
					</g>
					<g>
						<g enable-background="new    ">
							<g>
								<polygon fill="#654123" points="-282.992,368.935 -284.554,369.842 -286.126,368.935 -284.564,368.026 								"/>
							</g>
							<g>
								<polygon fill="#5A3B20" points="-282.992,368.935 -283.006,375.257 -284.568,376.165 -284.554,369.842 								"/>
							</g>
							<g>
								<polygon fill="#3F2916" points="-284.554,369.842 -284.568,376.165 -286.14,375.257 -286.126,368.935 								"/>
							</g>
						</g>
					</g>
					<g>
						<g enable-background="new    ">
							<g>
								<polygon fill="#259D63" points="-275.314,361.416 -284.527,366.78 -293.818,361.417 -284.587,356.053 								"/>
							</g>
							<g>
								<polygon fill="#218C59" points="-275.314,361.416 -275.314,367.333 -284.527,372.697 -284.527,366.78 								"/>
							</g>
							<g>
								<polygon fill="#17623E" points="-284.527,366.78 -284.527,372.697 -293.818,367.333 -293.818,361.417 								"/>
							</g>
						</g>
					</g>
					<g>
						<g enable-background="new    ">
							<g>
								<polygon fill="#259D63" points="-275.314,353.784 -284.527,359.148 -293.818,353.784 -284.587,348.42 								"/>
							</g>
							<g>
								<polygon fill="#218C59" points="-275.314,353.784 -275.314,359.7 -284.527,365.064 -284.527,359.148 								"/>
							</g>
							<g>
								<polygon fill="#17623E" points="-284.527,359.148 -284.527,365.064 -293.818,359.7 -293.818,353.784 								"/>
							</g>
						</g>
					</g>
					<g>
						<g enable-background="new    ">
							<g>
								<polygon fill="#259D63" points="-278.252,349.733 -284.54,353.395 -290.88,349.733 -284.581,346.072 								"/>
							</g>
							<g>
								<polygon fill="#218C59" points="-278.252,349.733 -278.252,353.771 -284.54,357.432 -284.54,353.395 								"/>
							</g>
							<g>
								<polygon fill="#17623E" points="-284.54,353.395 -284.54,357.432 -290.88,353.771 -290.88,349.733 								"/>
							</g>
						</g>
					</g>
				</g>
			</g>
		</g>
		<g>
			<g>
				<g>
					<g>
						<g enable-background="new    ">
							<g>
								<polygon fill="#259D63" points="-263.43,384.4 -268.318,387.246 -273.248,384.4 -268.351,381.554 								"/>
							</g>
							<g>
								<polygon fill="#218C59" points="-263.43,384.4 -263.43,387.746 -268.318,390.592 -268.318,387.246 								"/>
							</g>
							<g>
								<polygon fill="#17623E" points="-268.318,387.246 -268.318,390.592 -273.248,387.746 -273.248,384.4 								"/>
							</g>
						</g>
					</g>
					<g>
						<g enable-background="new    ">
							<g>
								<polygon fill="#654123" points="-266.766,378.26 -268.328,379.168 -269.899,378.26 -268.338,377.353 								"/>
							</g>
							<g>
								<polygon fill="#5A3B20" points="-266.766,378.26 -266.779,384.583 -268.341,385.49 -268.328,379.168 								"/>
							</g>
							<g>
								<polygon fill="#3F2916" points="-268.328,379.168 -268.341,385.49 -269.913,384.583 -269.899,378.26 								"/>
							</g>
						</g>
					</g>
					<g>
						<g enable-background="new    ">
							<g>
								<polygon fill="#259D63" points="-259.088,370.742 -268.3,376.106 -277.591,370.742 -268.36,365.378 								"/>
							</g>
							<g>
								<polygon fill="#218C59" points="-259.088,370.742 -259.088,376.658 -268.3,382.022 -268.3,376.106 								"/>
							</g>
							<g>
								<polygon fill="#17623E" points="-268.3,376.106 -268.3,382.022 -277.591,376.658 -277.591,370.742 								"/>
							</g>
						</g>
					</g>
					<g>
						<g enable-background="new    ">
							<g>
								<polygon fill="#259D63" points="-259.088,363.109 -268.3,368.474 -277.591,363.109 -268.36,357.746 								"/>
							</g>
							<g>
								<polygon fill="#218C59" points="-259.088,363.109 -259.088,369.026 -268.3,374.39 -268.3,368.474 								"/>
							</g>
							<g>
								<polygon fill="#17623E" points="-268.3,368.474 -268.3,374.39 -277.591,369.026 -277.591,363.109 								"/>
							</g>
						</g>
					</g>
					<g>
						<g enable-background="new    ">
							<g>
								<polygon fill="#259D63" points="-262.025,359.059 -268.312,362.72 -274.653,359.059 -268.354,355.398 								"/>
							</g>
							<g>
								<polygon fill="#218C59" points="-262.025,359.059 -262.025,363.097 -268.312,366.758 -268.312,362.72 								"/>
							</g>
							<g>
								<polygon fill="#17623E" points="-268.312,362.72 -268.312,366.758 -274.653,363.097 -274.653,359.059 								"/>
							</g>
						</g>
					</g>
				</g>
			</g>
		</g>
		<g>
			<g>
				<g>
					<g>
						<g enable-background="new    ">
							<g>
								<polygon fill="#259D63" points="-247.204,393.726 -252.092,396.572 -257.021,393.726 -252.124,390.88 								"/>
							</g>
							<g>
								<polygon fill="#218C59" points="-247.204,393.726 -247.204,397.071 -252.092,399.918 -252.092,396.572 								"/>
							</g>
							<g>
								<polygon fill="#17623E" points="-252.092,396.572 -252.092,399.918 -257.021,397.071 -257.021,393.726 								"/>
							</g>
						</g>
					</g>
					<g>
						<g enable-background="new    ">
							<g>
								<polygon fill="#654123" points="-250.539,387.586 -252.101,388.493 -253.673,387.586 -252.111,386.678 								"/>
							</g>
							<g>
								<polygon fill="#5A3B20" points="-250.539,387.586 -250.552,393.908 -252.114,394.816 -252.101,388.493 								"/>
							</g>
							<g>
								<polygon fill="#3F2916" points="-252.101,388.493 -252.114,394.816 -253.686,393.908 -253.673,387.586 								"/>
							</g>
						</g>
					</g>
					<g>
						<g enable-background="new    ">
							<g>
								<polygon fill="#259D63" points="-242.861,380.067 -252.073,385.432 -261.364,380.067 -252.134,374.704 								"/>
							</g>
							<g>
								<polygon fill="#218C59" points="-242.861,380.067 -242.861,385.984 -252.073,391.348 -252.073,385.432 								"/>
							</g>
							<g>
								<polygon fill="#17623E" points="-252.073,385.432 -252.073,391.348 -261.364,385.984 -261.364,380.067 								"/>
							</g>
						</g>
					</g>
					<g>
						<g enable-background="new    ">
							<g>
								<polygon fill="#259D63" points="-242.861,372.436 -252.073,377.8 -261.364,372.436 -252.134,367.071 								"/>
							</g>
							<g>
								<polygon fill="#218C59" points="-242.861,372.436 -242.861,378.352 -252.073,383.716 -252.073,377.8 								"/>
							</g>
							<g>
								<polygon fill="#17623E" points="-252.073,377.8 -252.073,383.716 -261.364,378.352 -261.364,372.436 								"/>
							</g>
						</g>
					</g>
					<g>
						<g enable-background="new    ">
							<g>
								<polygon fill="#259D63" points="-245.798,368.385 -252.086,372.046 -258.426,368.385 -252.127,364.724 								"/>
							</g>
							<g>
								<polygon fill="#218C59" points="-245.798,368.385 -245.798,372.422 -252.086,376.083 -252.086,372.046 								"/>
							</g>
							<g>
								<polygon fill="#17623E" points="-252.086,372.046 -252.086,376.083 -258.426,372.423 -258.426,368.385 								"/>
							</g>
						</g>
					</g>
				</g>
			</g>
		</g>
	</g>
	<g>
		<g>
			<polygon fill="#FFFFFF" points="-420.629,324.148 -423.23,325.66 -440.805,315.513 -438.205,314.002 			"/>
		</g>
		<g>
			<polygon fill="#FFFFFF" points="-395.084,338.897 -397.685,340.408 -415.263,330.26 -412.663,328.748 			"/>
		</g>
		<g>
			<polygon fill="#FFFFFF" points="-369.542,353.645 -372.142,355.155 -389.721,345.007 -387.12,343.495 			"/>
		</g>
		<g>
			<polygon fill="#FFFFFF" points="-344,368.392 -346.6,369.902 -364.175,359.755 -361.575,358.244 			"/>
		</g>
		<g>
			<polygon fill="#FFFFFF" points="-318.457,383.138 -321.058,384.649 -338.633,374.502 -336.032,372.991 			"/>
		</g>
		<g>
			<polygon fill="#FFFFFF" points="-292.912,397.887 -295.512,399.398 -313.09,389.249 -310.49,387.738 			"/>
		</g>
		<g>
			<polygon fill="#FFFFFF" points="-267.369,412.634 -269.97,414.145 -287.548,403.996 -284.948,402.484 			"/>
		</g>
		<g>
			<polygon fill="#FFFFFF" points="-241.827,427.381 -244.427,428.892 -262.002,418.745 -259.402,417.233 			"/>
		</g>
	</g>
	<g>
		<g>
			<polygon fill="#FFFFFF" points="-215.343,442.759 -217.943,444.271 -235.519,434.123 -232.918,432.612 			"/>
		</g>
		<g>
			<polygon fill="#FFFFFF" points="-189.797,457.508 -192.398,459.019 -209.977,448.87 -207.376,447.358 			"/>
		</g>
		<g>
			<polygon fill="#FFFFFF" points="-164.255,472.255 -166.855,473.766 -184.434,463.617 -181.833,462.105 			"/>
		</g>
		<g>
			<polygon fill="#FFFFFF" points="-138.713,487.002 -141.313,488.513 -158.889,478.365 -156.288,476.854 			"/>
		</g>
		<g>
			<polygon fill="#FFFFFF" points="-113.17,501.748 -115.771,503.26 -133.346,493.112 -130.746,491.602 			"/>
		</g>
		<g>
			<polygon fill="#FFFFFF" points="-87.625,516.497 -90.225,518.009 -107.804,507.859 -105.203,506.349 			"/>
		</g>
		<g>
			<polygon fill="#FFFFFF" points="-62.083,531.244 -64.683,532.755 -82.261,522.606 -79.661,521.095 			"/>
		</g>
		<g>
			<polygon fill="#FFFFFF" points="-36.541,545.991 -39.141,547.502 -56.716,537.355 -54.115,535.844 			"/>
		</g>
	</g>
</g>
<g>
	<g>
		<path fill="#01923F" d="M21.987,502.932c-0.03-0.2-0.082-0.378-0.08-0.556c0.052-4.347,0.117-8.694,0.152-13.046
			c0.004-0.463,0.133-0.668,0.98-0.735c23.184-1.848,42.172-8.484,56.747-20.052c9.968-7.977,15.79-17.2,17.827-27.486
			c0.096-0.487,0.315-0.612,1.069-0.604c6.681,0.092,13.363,0.143,20.048,0.24c0.84,0.01,1.105-0.094,1.098-0.682
			c-0.063-4.008-0.078-8.016-0.062-12.025c0.002-0.515-0.202-0.638-0.977-0.641c-6.569-0.032-13.136-0.113-19.701-0.128
			c-1.084-0.001-1.43-0.167-1.587-0.89c-3.158-14.568-13.288-26.643-30.422-36.072c-12.446-6.821-26.802-10.841-42.855-12.261
			c-0.91-0.081-1.143-0.276-1.135-0.86c0.066-4.598,0.059-9.194,0.117-13.797c0.007-0.529-0.207-0.662-1.012-0.648
			c-5.977,0.078-11.953,0.138-17.926,0.173c-0.895,0.006-1.202,0.116-1.201,0.758c0.014,4.444-0.081,8.89-0.055,13.331
			c0.005,0.751-0.34,0.935-1.44,1.037c-24.368,2.236-44.136,9.695-59.196,22.293c-9.188,7.615-14.698,16.218-16.889,25.618
			c-0.11,0.477-0.353,0.592-1.09,0.59c-6.258-0.025-12.517-0.004-18.771-0.037c-0.95-0.006-1.12,0.159-1.128,0.722
			c-0.058,3.78-0.154,7.562-0.313,11.341c-0.026,0.618,0.304,0.689,1.146,0.688c6.164-0.004,12.326,0.035,18.491,0.031
			c0.845-0.001,1.142,0.106,1.251,0.684c2.857,15.024,13.645,27.339,32.526,36.883c12.562,6.38,26.972,10.171,42.931,11.608
			c0.875,0.077,1.123,0.234,1.106,0.807c-0.112,4.24-0.163,8.481-0.22,12.722c-0.003,0.264-0.281,0.626,0.602,0.643
			c6.412,0.114,12.824,0.254,19.238,0.387C21.458,502.968,21.662,502.947,21.987,502.932z"/>
		<path fill="#FCFDFD" d="M21.987,502.932c-0.325,0.017-0.529,0.036-0.73,0.033c-6.414-0.133-12.827-0.271-19.238-0.387
			c-0.883-0.018-0.604-0.379-0.602-0.644c0.057-4.238,0.108-8.479,0.22-12.721c0.016-0.571-0.231-0.729-1.106-0.807
			c-15.959-1.438-30.369-5.229-42.931-11.608c-18.881-9.544-29.669-21.857-32.526-36.883c-0.109-0.576-0.406-0.685-1.251-0.684
			c-6.165,0.004-12.328-0.035-18.491-0.031c-0.843,0.001-1.173-0.07-1.146-0.688c0.159-3.778,0.255-7.561,0.313-11.341
			c0.008-0.562,0.178-0.728,1.128-0.722c6.254,0.033,12.514,0.012,18.771,0.037c0.737,0.002,0.98-0.113,1.09-0.59
			c2.191-9.4,7.702-18.004,16.889-25.618c15.06-12.598,34.828-20.057,59.196-22.293c1.1-0.104,1.445-0.286,1.44-1.037
			c-0.026-4.441,0.068-8.887,0.055-13.331c-0.001-0.643,0.306-0.752,1.201-0.758c5.973-0.035,11.949-0.095,17.926-0.173
			c0.805-0.014,1.019,0.119,1.012,0.648c-0.058,4.602-0.05,9.199-0.117,13.797c-0.008,0.584,0.225,0.779,1.135,0.86
			c16.054,1.42,30.41,5.438,42.855,12.261c17.134,9.431,27.264,21.504,30.422,36.072c0.157,0.723,0.502,0.889,1.587,0.89
			c6.565,0.015,13.132,0.095,19.701,0.128c0.775,0.003,0.979,0.126,0.977,0.641c-0.016,4.011-0.001,8.019,0.062,12.025
			c0.007,0.588-0.258,0.69-1.098,0.682c-6.685-0.099-13.368-0.148-20.048-0.24c-0.754-0.009-0.973,0.116-1.069,0.604
			c-2.037,10.286-7.859,19.511-17.827,27.486c-14.575,11.566-33.563,18.204-56.747,20.052c-0.848,0.067-0.976,0.272-0.98,0.735
			c-0.035,4.352-0.1,8.699-0.152,13.046C21.905,502.554,21.957,502.73,21.987,502.932z M32.479,474.844
			c-3.313-0.056-6.344-0.093-9.374-0.169c-0.688-0.017-0.883,0.092-0.881,0.536c0.006,2.446-0.023,4.891-0.089,7.333
			c-0.013,0.479,0.163,0.605,0.921,0.537c15.488-1.372,29.128-5.279,40.787-11.839c8.796-4.979,15.455-10.996,19.974-18.012
			c2.538-3.954,4.252-8.067,5.159-12.333c0.048-0.228,0.347-0.539-0.442-0.545c-4.175-0.023-8.35-0.066-12.523-0.119
			c-0.579-0.009-0.587,0.182-0.583,0.459c0.014,0.835,0,1.669,0.002,2.503c-0.001,1.162,0.006,2.324,0.011,3.579
			c-0.28-0.1-0.405-0.132-0.504-0.181c-8.527-4.2-17.041-8.385-25.539-12.556c-1.248-0.611-1.232-0.619,0.028-1.214
			c7.253-3.438,14.499-6.886,21.74-10.342c1.376-0.659,2.761-1.312,4.324-2.054c-0.012,2.065,0.027,3.982-0.061,5.896
			c-0.029,0.632,0.285,0.729,1.156,0.729c3.784-0.007,7.57,0.014,11.354,0.078c0.95,0.017,1.15-0.114,0.998-0.73
			c-3.643-14.765-14.791-26.45-33.524-34.9c-9.474-4.254-20.003-6.827-31.367-7.955c-0.762-0.075-1.008-0.017-1,0.536
			c0.037,2.216,0.013,4.434-0.04,6.65c-0.01,0.451,0.187,0.561,0.865,0.55c2.62-0.035,5.241-0.031,7.864-0.029
			c0.392,0.001,0.821-0.1,1.187,0.088c-0.032,0.051-0.049,0.098-0.088,0.131c-6.497,5.659-13.013,11.299-19.521,16.931
			c-0.465,0.4-0.689,0.321-1.098-0.036c-4.934-4.332-9.884-8.645-14.822-12.95c-1.499-1.305-2.99-2.609-4.495-3.925
			c0.41-0.174,0.761-0.104,1.09-0.106c2.654-0.019,5.308-0.043,7.962-0.025c0.705,0.003,0.927-0.102,0.922-0.581
			c-0.018-2.25-0.007-4.503,0.072-6.755c0.021-0.596-0.306-0.625-1.057-0.55c-25.246,2.565-44.56,10.9-57.88,24.943
			c-5.167,5.404-8.342,11.277-9.924,17.479c-0.109,0.432-0.08,0.606,0.742,0.602c4.324-0.022,8.649-0.011,12.973,0.016
			c0.692,0.006,0.861-0.119,0.861-0.547c-0.003-1.755,0.051-3.514,0.095-5.271c0.005-0.159-0.123-0.352,0.224-0.505
			c0.093,0.042,0.2,0.087,0.302,0.136c8.542,4.094,17.088,8.214,25.676,12.323c0.74,0.354,0.589,0.479-0.038,0.771
			c-7.266,3.37-14.522,6.743-21.792,10.102c-1.576,0.727-3.16,1.444-4.908,2.242c0.05-2.028,0.071-3.912,0.159-5.797
			c0.024-0.471-0.121-0.646-0.934-0.636c-2.112,0.029-4.229-0.004-6.343-0.015c-2.492-0.017-4.982-0.035-7.514-0.055
			c0.029,0.247,0.035,0.421,0.073,0.593c3.475,15.719,15.926,27.824,37.435,36.303c9.079,3.598,19.038,5.764,29.616,6.791
			c0.721,0.071,1.03,0.062,1.026-0.507c-0.02-2.522,0.035-5.044,0.108-7.566c0.011-0.425-0.186-0.514-0.816-0.517
			c-2.792-0.018-5.582-0.063-8.373-0.112c-0.277-0.004-0.637,0.104-0.849-0.156c6.559-5.419,13.109-10.857,19.65-16.311
			c0.825-0.69,0.822-0.682,1.632,0.032c3.557,3.125,7.122,6.25,10.687,9.382C26.62,469.689,29.467,472.194,32.479,474.844z"/>
		<path fill="#02923F" d="M32.479,474.844c-3.013-2.648-5.86-5.153-8.704-7.652c-3.565-3.133-7.13-6.258-10.687-9.383
			c-0.81-0.713-0.807-0.723-1.632-0.031c-6.541,5.451-13.091,10.892-19.65,16.311c0.212,0.26,0.572,0.152,0.849,0.156
			c2.791,0.049,5.581,0.096,8.373,0.112c0.63,0.003,0.827,0.092,0.816,0.517c-0.073,2.521-0.128,5.044-0.108,7.566
			c0.004,0.568-0.305,0.577-1.026,0.507c-10.578-1.027-20.537-3.193-29.616-6.791c-21.509-8.479-33.96-20.584-37.435-36.304
			c-0.038-0.171-0.043-0.345-0.073-0.592c2.531,0.02,5.021,0.038,7.514,0.055c2.114,0.011,4.23,0.044,6.343,0.015
			c0.813-0.012,0.958,0.165,0.934,0.636c-0.088,1.885-0.109,3.769-0.159,5.797c1.748-0.798,3.332-1.517,4.908-2.243
			c7.269-3.356,14.525-6.729,21.792-10.101c0.627-0.291,0.778-0.416,0.038-0.771c-8.588-4.108-17.134-8.229-25.676-12.322
			c-0.103-0.049-0.209-0.095-0.302-0.137c-0.347,0.154-0.219,0.347-0.224,0.506c-0.044,1.759-0.098,3.518-0.095,5.271
			c0,0.427-0.168,0.552-0.861,0.547c-4.324-0.025-8.648-0.038-12.973-0.016c-0.822,0.006-0.852-0.17-0.742-0.603
			c1.582-6.2,4.756-12.073,9.924-17.479c13.321-14.043,32.635-22.378,57.88-24.943c0.75-0.075,1.078-0.046,1.057,0.55
			c-0.079,2.252-0.09,4.505-0.072,6.755c0.005,0.479-0.217,0.584-0.922,0.581c-2.654-0.018-5.308,0.008-7.962,0.025
			c-0.33,0.003-0.68-0.066-1.09,0.106c1.504,1.314,2.996,2.62,4.495,3.925c4.938,4.307,9.888,8.618,14.822,12.95
			c0.409,0.357,0.633,0.438,1.098,0.036c6.509-5.633,13.024-11.271,19.521-16.931c0.04-0.034,0.056-0.08,0.088-0.131
			c-0.366-0.188-0.795-0.087-1.187-0.088c-2.623-0.002-5.244-0.006-7.864,0.029c-0.678,0.011-0.875-0.099-0.865-0.55
			c0.053-2.218,0.077-4.436,0.04-6.65c-0.008-0.553,0.237-0.611,1-0.536c11.364,1.128,21.894,3.701,31.367,7.955
			c18.734,8.45,29.882,20.137,33.524,34.9c0.153,0.616-0.047,0.746-0.998,0.73c-3.785-0.065-7.57-0.085-11.354-0.078
			c-0.871,0.001-1.185-0.097-1.156-0.729c0.088-1.913,0.049-3.83,0.061-5.896c-1.563,0.742-2.948,1.395-4.324,2.053
			c-7.241,3.456-14.487,6.905-21.74,10.343c-1.26,0.595-1.276,0.603-0.028,1.214c8.498,4.171,17.012,8.354,25.539,12.556
			c0.099,0.049,0.224,0.081,0.504,0.18c-0.005-1.254-0.012-2.417-0.011-3.578c-0.002-0.834,0.012-1.668-0.002-2.504
			c-0.004-0.276,0.004-0.467,0.583-0.459c4.173,0.054,8.348,0.097,12.523,0.12c0.79,0.005,0.491,0.317,0.442,0.544
			c-0.907,4.267-2.621,8.379-5.159,12.333c-4.519,7.017-11.177,13.032-19.974,18.013c-11.659,6.56-25.299,10.467-40.787,11.839
			c-0.759,0.067-0.935-0.059-0.921-0.537c0.066-2.442,0.095-4.887,0.089-7.333c-0.002-0.444,0.193-0.553,0.881-0.536
			C26.135,474.751,29.167,474.788,32.479,474.844z M29.449,445.16c10.128-6.456,10.081-17.002-0.07-23.571
			c-9.812-6.334-26.178-6.261-36.154,0.115c-9.994,6.346-10.095,16.764-0.191,23.167C3.01,451.337,19.46,451.49,29.449,445.16z"/>
		<path fill="#FCFDFD" d="M29.449,445.16c-9.989,6.33-26.439,6.177-36.415-0.289c-9.904-6.403-9.803-16.821,0.191-23.167
			c9.977-6.376,26.343-6.449,36.154-0.115C39.53,428.158,39.577,438.704,29.449,445.16z"/>
	</g>
</g>
</svg>
