<?xml version="1.0" encoding="utf-8"?>
<!-- Generator: Adobe Illustrator 16.0.0, SVG Export Plug-In . SVG Version: 6.00 Build 0)  -->
<!DOCTYPE svg PUBLIC "-//W3C//DTD SVG 1.1//EN" "http://www.w3.org/Graphics/SVG/1.1/DTD/svg11.dtd">
<svg version="1.1" id="Capa_1" xmlns="http://www.w3.org/2000/svg" xmlns:xlink="http://www.w3.org/1999/xlink" x="0px" y="0px"
	 width="25.99px" height="25.99px" viewBox="0 0 25.99 25.99" enable-background="new 0 0 25.99 25.99" xml:space="preserve">
<g id="eO27lO.tif_14_">
	<g>
		<g>
			<path fill-rule="evenodd" clip-rule="evenodd" fill="#41A548" d="M25.99,13c0.019,7.152-5.794,12.976-12.965,12.991
				C5.823,26.005,0.015,20.206,0,12.986C-0.015,5.82,5.823,0.002,13.028,0C20.177-0.001,25.972,5.811,25.99,13z M24.938,13.017
				c0-6.598-5.337-11.959-11.908-11.963C6.418,1.051,1.046,6.401,1.05,12.985c0.005,6.601,5.344,11.947,11.939,11.954
				C19.575,24.946,24.938,19.594,24.938,13.017z"/>
			<path fill-rule="evenodd" clip-rule="evenodd" fill="#41A548" d="M18.626,7.322c0.854,0.855,1.666,1.67,2.475,2.48
				c-3.658,3.658-7.324,7.322-10.982,10.979c-1.627-1.63-3.267-3.271-4.897-4.905c0.805-0.801,1.628-1.619,2.444-2.432
				c0.798,0.791,1.615,1.601,2.432,2.409C12.941,13.007,15.783,10.166,18.626,7.322z"/>
		</g>
	</g>
</g>
</svg>
