<?xml version="1.0" encoding="utf-8"?>
<!-- Generator: Adobe Illustrator 16.0.0, SVG Export Plug-In . SVG Version: 6.00 Build 0)  -->
<!DOCTYPE svg PUBLIC "-//W3C//DTD SVG 1.1//EN" "http://www.w3.org/Graphics/SVG/1.1/DTD/svg11.dtd">
<svg version="1.1" id="Capa_1" xmlns="http://www.w3.org/2000/svg" xmlns:xlink="http://www.w3.org/1999/xlink" x="0px" y="0px"
	 width="25.99px" height="25.99px" viewBox="0 0 25.99 25.99" enable-background="new 0 0 25.99 25.99" xml:space="preserve">
<g id="eO27lO.tif_4_">
	<g>
		<g>
			<path fill-rule="evenodd" clip-rule="evenodd" fill="#E81A38" d="M25.99,12.999c0.019,7.151-5.794,12.976-12.965,12.991
				C5.823,26.004,0.015,20.205,0,12.986C-0.015,5.82,5.823,0.002,13.028,0C20.177-0.002,25.972,5.811,25.99,12.999z M24.938,13.017
				c0-6.598-5.337-11.959-11.908-11.963C6.418,1.051,1.046,6.4,1.05,12.984c0.005,6.602,5.344,11.947,11.939,11.954
				C19.575,24.945,24.938,19.594,24.938,13.017z"/>
			<path fill-rule="evenodd" clip-rule="evenodd" fill="#E81A38" d="M6.237,17.185c1.631,1.634,0.905,0.909,2.532,2.54
				c3.658-3.658,7.324-7.322,10.982-10.979c-0.809-0.81-1.621-1.624-2.475-2.479c-2.843,2.843-5.685,5.685-8.529,8.531L6.237,17.185
				z"/>
			<path fill-rule="evenodd" clip-rule="evenodd" fill="#E81A38" d="M17.185,19.752c1.634-1.631,0.909-0.905,2.54-2.532
				c-3.658-3.658-7.322-7.324-10.979-10.982c-0.81,0.809-1.624,1.621-2.479,2.475c2.843,2.843,5.685,5.685,8.531,8.529
				L17.185,19.752z"/>
		</g>
	</g>
</g>
</svg>
