<?xml version="1.0" encoding="utf-8"?>
<!-- Generator: Adobe Illustrator 16.0.0, SVG Export Plug-In . SVG Version: 6.00 Build 0)  -->
<!DOCTYPE svg PUBLIC "-//W3C//DTD SVG 1.1//EN" "http://www.w3.org/Graphics/SVG/1.1/DTD/svg11.dtd">
<svg version="1.1" id="Capa_1" xmlns="http://www.w3.org/2000/svg" xmlns:xlink="http://www.w3.org/1999/xlink" x="0px" y="0px"
	 width="527.41px" height="525.48px" viewBox="0 0 527.41 525.48" enable-background="new 0 0 527.41 525.48" xml:space="preserve">
<circle fill="#09488F" cx="264.67" cy="262.74" r="262.74"/>
<circle fill="#FA6300" cx="264.67" cy="262.74" r="217.514"/>
<g>
	<defs>
		<circle id="SVGID_1_" cx="264.67" cy="262.74" r="217.514"/>
	</defs>
	<clipPath id="SVGID_2_">
		<use xlink:href="#SVGID_1_"  overflow="visible"/>
	</clipPath>
	<g clip-path="url(#SVGID_2_)">
		<path fill="#D9C39A" d="M601.077,691.872l0.019,0.329l0.329,0.024c1.578,0.114,3.19,0.536,4.792,1.249l0.212,0.096l0.18-0.149
			c2.523-2.095,5.453-3.157,8.704-3.157c4.194,0,7.726,1.791,8.781,2.386l-0.058,0.092l0.544,0.503
			c2.511-1.918,6.013-3.019,9.609-3.019c0.95,0,1.884,0.078,2.773,0.231c3.304,0.568,5.785,2.082,6.984,4.261l0.174,0.314
			l0.32-0.157c1.297-0.634,3.59-1.395,6.135-1.634l0.354-0.033l-0.014-0.357c-1.412-34.907-9.834-81.384-14.091-101.082
			c-2.948-13.659-11.354-21.956-18.78-29.284c-4.952-4.89-9.631-9.509-12.141-15.121c-7.367-16.464-17.791-50.653-24.961-97.238
			c-0.951-6.191-1.867-12.219-2.756-18.07l-0.392-2.582c-6.09-40.13-10.899-71.827-17.014-90.645
			c-6.916-21.278-29.899-61.998-53.368-79.964c-15.503-11.869-29.83-17.396-45.092-17.396c-3.769,0-7.58,0.323-12,1.017
			c-7.07,1.111-13.28,2.605-19.868,4.188c-8.815,2.117-17.93,4.306-30.704,6.071c-3.904,0.541-8.087,0.814-12.433,0.815
			c-12.101,0-23.612-2.032-33.805-3.831c-5.039-0.889-9.797-1.729-13.804-2.143c-3.311-0.344-7.536-0.518-12.558-0.518
			c-9.833,0-20.276,0.65-25.625,1.038l-0.12,0.723c12.447,5.269,18.913,11.353,25.594,21.551
			c-4.018-4.85-10.336-11.48-18.167-16.365c-9.059-5.649-22.301-9.342-32.826-11.928l-0.696-0.171l0.254,0.67
			c3.787,9.988,6.827,18.773,9.226,26.681c-1.865-4.19-4.425-10.101-5.704-13.753c-3.508-10.029-7.05-18.981-9.636-25.52
			c-1.342-3.394-2.292-5.985-2.825-7.703l-0.219-0.703l-1.942,2.591c-6.076,8.135-10.272,13.467-13.137,13.467
			c-2.134,0-4.203-1.02-6.15-3.029c-2.962-3.061-5.434-8.199-7.149-14.86l-0.139-0.547l-0.453,0.341
			c-7.964,6.033-16.848,9.946-22.121,11.148c-6.134,1.398-13.689,3.244-17.697,5.112c-3.948,1.841-15.318,8.945-21.76,13.166
			c-9.414,6.165-18.303,11.988-22.459,13.653c-6.309,2.527-14.695,3.492-18.007,3.789l11.022,1.616l-12.124,4.886
			c-1.041,2.688-6.816,0.047-6.816,0.047l0.601,13.04c3.819,19.415,12.525,49.805,16.307,62.683
			c-5.894-14.799-11.389-36.209-15.149-52.533l-0.73-0.019c-2.674,9.375-16.195,57.019-19.845,74.315
			c-4.13,19.553-2.542,48.226,1.295,63.578c1.712,6.847,4.604,15.411,7.686,24.542c3.968,11.759,8.072,23.917,10.334,34.349
			c2.785,12.821,2.915,28.257,3.021,40.718c0.046,5.672,0.088,10.57,0.369,14.397c0.219,3.027,1.035,8.22,2.068,14.793
			c3.128,19.921,8.362,53.263,4.938,77.894c-1.069,7.701-1.066,13.883-1.062,19.338c0.009,12.303,0.016,22.021-11.13,41.363
			l-0.352,0.608l0.701-0.044c0.285-0.017,0.577-0.027,0.875-0.027c3.518,0,7.938,1.177,11.471,2.349
			c-3.222-0.697-7.113-1.355-10.312-1.355c-1.434,0-2.652,0.132-3.623,0.393c-9.946,2.673-18.997,25.943-18.378,34.97
			c0.524,7.681,6.181,13.478,8.837,15.08c1.968,1.188,4.714,1.79,8.165,1.79c4.071,0,8.125-0.837,10.178-1.336l0.723-0.176
			l-0.568-0.479c-3.716-3.136-6.016-7.338-6.308-11.533c-0.757-10.981,8.256-31.281,16.754-33.626
			c1.001-0.274,2.11-0.415,3.29-0.415c4.115,0,8.525,1.653,11.792,3.227c-3.181-1.084-7.315-2.176-11.062-2.176
			c-1.379,0-2.631,0.152-3.718,0.452c-7.333,2.023-16.71,21.134-15.927,32.459c0.268,3.896,2.525,7.96,6.034,10.866
			c3.07,2.546,6.735,3.947,10.317,3.947c0.525,0,1.048-0.03,1.565-0.092c12.744-1.51,27.613-5.024,29.48-18.921
			c1.005-7.486,4.861-33.61,12.267-55.473c3.386-9.999,2.586-18.874,1.738-28.3c-0.582-6.462-1.182-13.146-0.385-20.416
			c0.851-7.793,3.411-22.412,6.141-38.004c3.334-19.063,6.784-38.775,6.734-44.43c-0.062-6.896-1.424-17.545-2.231-23.28
			l-0.021-0.143l-0.11-0.094c-1.953-1.644-3.901-3.323-5.831-5.012c-7.444-6.511-17.977-20.764-25.69-31.865
			c8.112,10.76,19.076,24.578,26.432,31.015c12.152,10.633,24.931,21.085,35.858,21.939c0.594,0.047,1.217,0.068,1.866,0.068
			c12.246,0,33.817-8.01,38.017-9.616l0.342-0.131l-0.122-0.345c-3.296-9.486-8.542-19.727-11.492-25.186
			c2.174,2.916,5.197,7.397,7.544,12.502c3.899,8.486,6.412,15.578,7.467,21.081c0.612,3.192,1.05,8.352,1.612,14.995
			c0.735,8.692,1.65,19.514,3.435,32.085l0.483,3.402c3.371,23.648,7.986,56.035,6.277,72.004
			c-0.965,9.04,0.005,14.962,0.942,20.689c0.963,5.888,1.875,11.45,0.709,19.87c-1.092,7.898-3.354,15.269-5.061,20.06l-0.164,0.461
			l0.487,0.04c1.325,0.107,2.682,0.424,4.031,0.938l0.219,0.083l0.171-0.159c2.619-2.418,5.868-3.645,9.658-3.645
			c4.137,0,7.686,1.45,9.018,2.074l0.197,0.091l0.177-0.123c2.558-1.769,5.96-2.782,9.333-2.782c0.667,0,1.325,0.04,1.961,0.119
			c3.327,0.421,5.871,1.821,7.166,3.944l0.188,0.306l0.314-0.17c1.886-1.025,5.167-2.06,8.247-2.06c0.888,0,1.721,0.085,2.485,0.254
			l0.492,0.107l-0.037-0.503c-0.919-12.734-1.244-23.151-0.993-31.861c0.236-8.241,0.422-14.75-1.981-30.482
			c-2.286-14.974-0.74-27.1,1.217-42.452c2.148-16.858,4.823-37.84,3.077-70.418c-0.511-9.521,0.501-16.637,1.483-23.528
			c1.113-7.82,2.167-15.208,0.773-25.23c-1.46-10.501-3.872-28.666-5.688-42.426c2.154,12.625,4.883,28.992,6.436,39.689
			l0.086,0.599l0.5-0.342c5.043-3.449,9.893-7.284,14.416-11.396c0.663-0.602,1.46-1.354,2.386-2.231l0.2-0.188
			c10.075-9.524,36.838-34.826,68.825-36.592l1.193-0.066l-1.015-0.629c-4.617-2.865-8.683-5.271-11.504-6.91
			c3.546,1.457,8.833,3.887,14.321,7.339c11.579,7.284,20.582,13.705,26.76,19.083c11.811,10.281,29.924,32.772,44.478,50.845
			c4.698,5.837,9.137,11.348,12.928,15.903c4.948,5.951,12.778,13.492,21.843,22.225c18.604,17.924,41.762,40.231,49.87,59.069
			C592.515,627.561,599.561,665.513,601.077,691.872z"/>
		<path fill="#BCA176" d="M270.471,230.623c-1.146-2.819-3.805-9.879-3.805-9.879l-4.559-18.765
			c-7.964,6.033-25.955,9.566-31.228,10.768c-6.134,1.398-14.838,3.157-18.846,5.025c-3.947,1.842-29.124,12.458-41.096,21.536
			c-5.005,3.766-35.814,16.348-43.87,19.382c-4.155,1.565,0.143,14.167,0.143,14.167s-1.014,7.519,2.364,20.82
			c-0.052-0.115-0.097-0.233-0.149-0.348c-0.082-0.177-2.226,3.952-2.214,4.106c1.957,25.403,20.937,70.623,26.735,83.281
			c-1.513-11.65-8.615-35.508-12.496-49.229c-0.184-0.651-0.359-1.306-0.539-1.958c6.7,9.987,16.916,16.098,25.532,15.265
			c15.323-1.482,43.753-18.871,75.717-86.122c-6.887,35.65-17.065,89.525-27.536,125.527
			c17.953-37.859,35.059-96.407,43.823-137.376c8.199-2.721,14.43-9.791,14.43-9.791S271.203,232.421,270.471,230.623z"/>
		<path fill="#BCA176" d="M91.005,736.888c0.002-6.206,4.813-21.326,11.456-29.497l-0.489-0.558
			c-7.698,4.713-15.629,22.545-16.267,29.306c-0.647,6.871,4.484,11.852,6.333,13.055c1.228,0.798,2.831,1.285,4.766,1.445
			l1.052,0.089l-0.759-0.734C94.821,747.795,91.004,743.169,91.005,736.888z"/>
		<path fill="#D9C39A" d="M91.023,736.479c0.191-6.428,4.93-21.082,11.438-29.088l-0.489-0.558
			c-7.666,4.693-15.556,22.384-16.253,29.209C87.342,736.904,89.163,736.859,91.023,736.479z"/>
		<path fill="#BCA176" d="M105.428,738.392c-0.553-8.122,6.374-27.438,15.314-34.137l0.596-0.445l-0.713-0.216
			c-2.217-0.672-4.058-0.972-5.968-0.972c-1.661,0-3.323,0.232-5.083,0.71c-9.144,2.481-17.438,25.481-17.44,33.556
			c-0.002,7.58,6.207,13.075,8.381,14.402c1.812,1.104,4.205,1.663,7.112,1.663h0.002c1.261,0,2.626-0.105,4.06-0.315l0.741-0.107
			l-0.529-0.529C110.112,750.208,105.901,745.296,105.428,738.392z"/>
		<path fill="#D9C39A" d="M114.657,702.623c-1.661,0-3.323,0.232-5.083,0.71c-9.144,2.481-17.438,25.481-17.44,33.556
			c0,0.029,0.004,0.057,0.004,0.086c3.638,2.142,7.311,2.348,11.431,0.65c0.478-8.931,5.525-27.254,17.173-33.85
			C120.742,703.775,116.567,702.623,114.657,702.623z"/>
		<path fill="#BCA176" d="M324.956,727.981c-0.56-2.625-3.17-4.481-6.98-4.962c-0.622-0.078-1.266-0.119-1.92-0.119
			c-4.069,0-9.647,1.661-11.974,6.338c-3.203,6.443-5.008,20.543-5.221,28.042c-0.239,8.466,3.351,12.848,6.071,15.405
			c1.295,1.221,4.611,1.948,8.868,1.948c0.001,0,0,0,0.001,0c4.591,0,8.789-0.864,10.693-2.201c2.939-2.064,4.621-9.784,4.55-16.055
			C328.983,750.81,327.226,738.602,324.956,727.981z"/>
		<path fill="#BCA176" d="M656.706,695.361c-1.186-0.714-2.713-1.077-4.541-1.077c-2.822,0-5.816,0.878-7.404,1.694l-0.189,0.389
			l0.066,0.286c1.611,9.661,2.936,24.649,2.725,30.842c-0.137,4.112-1.051,8.08-2.506,10.888l-0.203,0.394l0.422,0.138
			c1.309,0.425,2.99,0.65,4.861,0.65c2.961,0,6.035-0.551,8.023-1.436c3.203-1.427,8.307-7.924,8.307-12.933
			C666.267,716.357,661.544,698.279,656.706,695.361z"/>
		<path fill="#BCA176" d="M643.524,696.838c-0.443-2.646-2.969-4.618-6.753-5.271c-0.849-0.146-1.737-0.221-2.638-0.221
			c-4.011,0-9.144,1.526-11.521,5.81c-3.257,5.869-6.026,19.345-6.477,27.769c-0.375,7.094,2.529,12.748,5.372,15.674
			c1.706,1.757,6.657,2.381,10.379,2.381c0,0,0,0,0.002,0c4.019,0,7.448-0.657,9.172-1.756c2.877-1.833,4.959-7.366,5.174-13.768
			C646.444,721.33,645.128,706.45,643.524,696.838z"/>
		<path fill="#BCA176" d="M143.097,708.525c-12.571,3.313-17.707,21.46-18.267,32.456c-6.108,1.703-13.211,1.395-18.266-2.591
			c0.555,7.643,6.181,13.406,8.828,15.005c1.968,1.188,4.714,1.79,8.165,1.79c4.071,0,8.125-0.837,10.178-1.336l0.723-0.176
			l-0.568-0.479c-3.611-3.046-5.868-7.103-6.262-11.18c-0.054-1.688-0.106-2.703,0.043-3.965
			C128.618,727.349,135.85,711.945,143.097,708.525z"/>
		<path fill="#BCA176" d="M340.548,499.804c-0.64-4.603-1.462-10.678-2.338-17.209c-1.62,21.872-7.214,50.447-27.47,38.361
			c-6.544-3.905-15.743-13.031-20.438-18.96c-22.831-28.821-29.038-68.312-45.132-74.489c-16.095-6.18-41.845,6.886-56.184,8.549
			c-55.483,6.434-79.677-15.304-81.902-20.034c0.654,6.868,1.644,13.116,2.867,18.007c1.712,6.847,4.604,15.411,7.686,24.542
			c3.968,11.759,8.072,23.917,10.334,34.349c2.785,12.821,2.915,28.257,3.021,40.718c0.046,5.672,0.088,10.57,0.369,14.397
			c0.219,3.027,1.035,8.22,2.068,14.793c3.128,19.921,8.362,53.263,4.938,77.894c-1.069,7.701-1.066,13.883-1.062,19.338
			c0.002,2.988,0.001,5.827-0.157,8.687c5.19-5.737,14.197-5.406,18.415,2.5c8.827,16.548,1.679,39.016,1.679,39.016
			s5.829,19.206,2.086,26.872c-4.522,9.26-22.265,8.725-30.632,3.332c0.005,0.372-0.009,0.759,0.016,1.117
			c0.268,3.896,2.525,7.96,6.034,10.866c3.07,2.546,6.735,3.947,10.317,3.947c0.525,0,1.048-0.03,1.565-0.092
			c12.744-1.51,27.613-5.024,29.48-18.921c1.005-7.486,4.861-33.61,12.267-55.473c3.386-9.999,2.586-18.874,1.738-28.3
			c-0.582-6.462-1.182-13.146-0.385-20.416c0.851-7.793,3.411-22.412,6.141-38.004c3.334-19.063,6.784-38.775,6.734-44.43
			c-0.062-6.896-1.424-17.545-2.231-23.28l-0.021-0.143l-0.11-0.094c-1.953-1.644-3.901-3.323-5.831-5.012
			c-7.444-6.511-17.977-20.764-25.69-31.865c8.112,10.76,19.076,24.578,26.432,31.015c12.152,10.633,24.931,21.085,35.858,21.939
			c0.594,0.047,1.217,0.068,1.866,0.068c12.246,0,33.817-8.01,38.017-9.616l0.342-0.131l-0.122-0.345
			c-3.296-9.486-8.542-19.727-11.492-25.186c1.459,1.958,3.299,4.631,5.062,7.714c2.562,4.479,4.59,9.293,6.423,14.11
			c1.454,3.82,2.756,7.737,3.526,11.759c0.612,3.192,1.05,8.352,1.612,14.995c0.907,10.722,1.922,21.431,3.435,32.085l0.483,3.402
			c3.371,23.648,7.986,56.035,6.277,72.004c-0.965,9.04,0.005,14.962,0.942,20.689c0.963,5.888,1.875,11.45,0.709,19.87
			c-1.092,7.898-3.354,15.269-5.061,20.06l-0.164,0.461l0.487,0.04c1.325,0.107,2.682,0.424,4.031,0.938l0.219,0.083l0.171-0.159
			c2.619-2.418,4.326-2.21,4.326-2.21s0.469-14.054,7.044-22.795c3.859-5.132,9.132-5.204,14.454-5.801
			c5.742-0.646,10.396-1.496,13.957-5.551c-17.108,3.756-28.056-2.09-29.467-6.904c-1.41-4.815-1.801-8.376-1.363-12.148
			c0.639-5.517,1.86-10.953,2.042-16.52c0.231-7.053-1.444-14.042-2.659-20.957c-3.373-19.211-1.081-75.647,12.923-86.543
			c13.995-10.889,26.671,11.116,30.319,21.395c-0.081-2.153-0.938-17.305-1.059-19.566c-0.511-9.521,0.501-16.637,1.483-23.528
			C340.888,517.214,341.941,509.827,340.548,499.804z"/>
		<path fill="#BCA176" d="M603.727,541.564c-1.112,5.097-2.584,11.9-7.561,12.485c-16.076,1.886-52.209-26.377-63.877-40.859
			c-12.071-14.983-49.844-70.544-91.616-89.123c-20.571-9.148-34.703,13.923-76.919,14.503c-12.368,0.17-33.345-10.164-31.691,0.426
			c0.871,5.582,2.797,18.297,2.797,18.297s4.883,28.992,6.436,39.689l0.086,0.598l0.5-0.342c5.043-3.449,9.893-7.283,14.416-11.396
			c0.663-0.602,1.46-1.354,2.386-2.23l0.2-0.188c10.075-9.525,36.838-34.828,68.825-36.592l1.193-0.067l-1.015-0.63
			c-4.617-2.864-8.683-5.27-11.504-6.908c3.546,1.455,8.833,3.885,14.321,7.338c11.579,7.285,20.582,13.705,26.76,19.083
			c11.811,10.281,29.924,32.773,44.478,50.846c4.698,5.835,9.137,11.346,12.928,15.902c4.948,5.951,12.778,13.493,21.843,22.225
			c11.582,11.158,24.906,24.013,35.285,36.674c-0.022-0.006-0.044-0.008-0.064-0.013c6.332,7.712,11.574,15.353,14.649,22.495
			c5.932,13.785,12.978,51.737,14.493,78.096l0.019,0.329l0.329,0.024c1.578,0.114,3.19,0.536,4.792,1.249
			c0,0,3.658-17.098-1.769-69.201c-0.914-8.757,18.117-41.81,3.755-72.517C607.615,550.5,604.43,542.811,603.727,541.564z"/>
		<path fill="#BCA176" d="M615.011,724.867c0.399-7.572,2.924-21.604,6.613-28.258c0.451-0.812,1.063-1.583,1.926-2.424l0.355-0.346
			l-0.429-0.249c-0.911-0.531-4.194-2.265-8.11-2.265c-3.517,0-6.616,1.356-9.22,4.027c-4.564,4.688-11.83,22.394-11.83,30.909
			c0,6.723,5.507,13.329,7.846,14.049c2.491,0.769,5.947,1.226,9.245,1.226c0.001,0,0.001,0,0.001,0c3.283,0,6.04-0.443,7.762-1.252
			l0.417-0.195l-0.275-0.371C616.292,735.664,614.724,730.25,615.011,724.867z"/>
		<path fill="#D9C39A" d="M667.667,165.524c-7.645-18.292-18.057-33.075-32.77-46.525c-15.282-13.97-32.381-17.03-37.682-17.03
			c-0.759,0-1.35,0.054-1.753,0.162c-0.46,0.122-0.824,0.461-0.975,0.905c-0.146,0.432-0.063,0.906,0.215,1.268
			c0.864,1.115,2.489,2.812,3.674,4.052c1.855,1.941,6.827,8.062,7.407,8.865c20.33,28.209,27.86,51.421,23.691,73.055
			c-4.381,22.742-23.549,43.354-50.028,53.793c-22.438,8.847-48.472,10.616-73.209,11.67l-1.071,0.045l0.865,0.634
			c0.686,0.504,1.374,1.016,2.068,1.548c8.469,6.485,17.683,16.62,26.64,29.311l0.094,0.133l0.162,0.023
			c6.009,0.835,12.425,1.259,19.07,1.259c18.229,0,38.278-3.208,57.977-9.276c28.716-8.842,52.298-31.646,60.083-58.094
			C677.149,204.25,675.565,184.435,667.667,165.524z"/>
		<path fill="#BCA176" d="M665.155,163.309c15.725,95.897-91.643,112.122-151.385,100.192c3.62,4.206,14.856,16.456,18.459,21.561
			l0.095,0.133l0.161,0.023c6.007,0.835,12.424,1.259,19.07,1.259c18.229,0,38.278-3.208,57.978-9.276
			c28.715-8.842,52.298-31.646,60.083-58.094C674.64,202.035,673.054,182.219,665.155,163.309z"/>
		<path fill="#BCA176" d="M297.731,757.249c0.221-7.828,2.024-21.849,5.339-28.513c0.443-0.892,1.062-1.731,1.948-2.645l0.344-0.355
			l-0.434-0.236c-0.858-0.47-3.954-2-7.743-2c-3.775,0-7.02,1.503-9.644,4.467c-4.317,4.877-10.726,22.941-10.341,31.508
			c0.305,6.782,6.044,13.178,8.388,13.789c2.11,0.548,4.821,0.852,7.635,0.852c3.923,0,7.312-0.586,9.297-1.61l0.426-0.219
			l-0.316-0.362C299.167,767.954,297.564,763.153,297.731,757.249z"/>
		<path fill="#9E8763" d="M420.176,697.388c0.398-4.958,6.496-22.252,11.809-26.528c0.814-0.654,1.868-1.308,3.131-1.942
			l-0.209-0.711c-1.694,0.187-4.343,0.742-7.339,2.33c-7.108,3.763-12.523,24.021-12.963,28.359
			c-0.647,6.4,2.259,10.084,4.814,12.049c1.232,0.947,2.756,1.498,4.528,1.635l0.846,0.065l-0.519-0.671
			C421.595,708.509,419.795,702.102,420.176,697.388z"/>
		<path fill="#BCA176" d="M338.06,725.912c-1.083-0.589-2.432-0.886-4.005-0.886c-3.188,0-6.471,1.219-7.901,2.037l-0.169,0.402
			l0.078,0.28c1.94,9.086,4.04,22.204,4.109,28.619c0.041,3.495-0.516,9.005-2.212,13.024l-0.162,0.386l0.401,0.12
			c1.123,0.338,2.489,0.509,4.058,0.509h0.002c3.185,0,6.792-0.733,8.978-1.826c2.97-1.484,8.056-9.341,7.826-14.453
			C348.635,744.709,342.875,728.529,338.06,725.912z"/>
		<path fill="#BCA176" d="M276.076,759.525c-0.366-8.055,5.433-25.968,10.336-31.945l0.352-0.427l-0.525-0.171
			c-1.279-0.414-2.557-0.625-3.796-0.625c-2.88,0-5.493,1.121-7.769,3.332c-4.223,4.11-11.479,19.603-11.921,27.043
			c-0.342,5.758,4.093,11.836,6.133,12.971c1.595,0.89,4.502,1.419,7.781,1.419c1.229,0,2.448-0.08,3.529-0.23l0.643-0.09
			l-0.396-0.513C277.858,766.942,276.227,762.917,276.076,759.525z"/>
		<path fill="#D9C39A" d="M327.762,758.203c0.012-0.451,0.018-0.898,0.013-1.338c-0.061-5.568-1.817-17.775-4.087-28.397
			c-0.561-2.625-2.451-5.567-7.632-5.567c-4.069,0-8.366,1.857-10.692,6.535c-3.204,6.441-5.009,20.541-5.222,28.041
			c-0.028,1.004,0.005,1.943,0.078,2.837C308.69,765.514,322.725,762.933,327.762,758.203z"/>
		<path fill="#D9C39A" d="M298.336,738.011c1.004-4.087,2.479-10.032,6.189-12.723c-1.206-0.604-4.001-1.789-7.339-1.789
			c-3.775,0-5.52,1.796-8.145,4.761c-4.293,4.85-10.648,22.732-10.341,31.354c4.848,3.367,12.231,2.938,16.876,1.444
			C295.61,753.365,296.518,745.403,298.336,738.011z"/>
		<path fill="#D9C39A" d="M338.06,725.912c-1.083-0.589-2.432-0.886-4.005-0.886c-2.71,0-5.477,0.879-7.128,1.646
			c3.158,6.73,4.691,24.265,4.829,30.558c5.43,1.27,12.552-0.19,17.3-2.846c0-0.085,0.009-0.176,0.005-0.26
			C348.635,744.709,342.875,728.529,338.06,725.912z"/>
		<path fill="#D9C39A" d="M286.076,726.944c-1.225-0.381-2.448-0.587-3.634-0.587c-2.88,0-3.93,0.854-6.205,3.065
			c-4.224,4.11-11.108,20.225-11.551,27.665c-0.036,0.601-0.009,1.204,0.052,1.806c2.417,1.678,6.208,1.972,9.877,0.326
			C274.596,748.676,279.636,731.787,286.076,726.944z"/>
		<path fill="#BCA176" d="M593.188,726.262c0-8.802,7.141-26.288,11.979-31.5l0.379-0.406l-0.519-0.2
			c-1.476-0.571-2.955-0.861-4.394-0.861c-2.689,0-5.186,1.007-7.419,2.992c-4.441,3.949-12.439,19.105-13.212,26.479
			c-0.598,5.702,3.616,11.992,5.628,13.235c1.766,1.091,5.294,1.795,8.989,1.795c0.756,0,1.497-0.031,2.2-0.095l0.651-0.059
			l-0.38-0.534C594.648,733.675,593.188,729.621,593.188,726.262z"/>
		<path fill="#D9C39A" d="M656.706,695.361c-1.186-0.714-2.713-1.077-4.541-1.077c-2.535,0-5.199,0.709-6.867,1.443
			c3.588,9.323,4.197,21.146,3.365,31.12c5.609,1.188,12.395-0.033,17.572-2.625C665.927,715.1,661.374,698.178,656.706,695.361z"/>
		<path fill="#D9C39A" d="M644.935,726.142c0.014-6.742-1.236-20.317-2.732-29.298c-0.441-2.648-1.646-4.624-5.431-5.276
			c-0.849-0.146-1.737-0.221-2.638-0.221c-4.011,0-8.051,1.218-10.428,5.5c-3.257,5.869-5.489,20.79-5.939,29.214
			C627.547,729.289,635.063,728.559,644.935,726.142z"/>
		<path fill="#D9C39A" d="M623.196,693.434c-1.171-0.646-4.218-2.108-7.829-2.108c-3.517,0-5.281,1.687-7.883,4.359
			c-4.452,4.572-11.458,21.512-11.797,30.246c5.528,2.52,11.304,2.338,16.983,0.409
			C613.175,715.565,617.216,696.351,623.196,693.434z"/>
		<path fill="#D9C39A" d="M604.818,694.084c-1.406-0.52-2.813-0.79-4.184-0.79c-2.689,0-4.084,0.901-6.317,2.888
			c-4.442,3.949-11.932,19.455-12.702,26.828c2.729,1.743,6.674,2.979,10.118,2.589C591.88,719.073,596.324,701.593,604.818,694.084
			z"/>
		<path fill="#9E8763" d="M504.248,553.232c-7.233-8.653-16.237-19.422-20.737-31.238c-5.112-13.417-6.97-27.788-7.622-35.158
			l-0.012-0.122l-0.079-0.091c-8.024-9.296-14.264-15.85-19.075-20.038c-6.024-5.245-14.762-11.493-25.969-18.569l-0.094-0.059
			h-0.111c-19.749,0.252-40.622,9.775-62.04,28.308l-0.167,0.146l0.045,0.216c0.997,4.737,6.653,29.323,20.076,48.171
			c7.094,9.961,20.914,21.086,34.281,31.842c15.046,12.11,29.256,23.55,34.607,33.454c10.308,19.087,14.342,73.069,5.993,80.224
			c-0.932,0.799-2.217,1.204-3.819,1.204c-3.486,0-7.844-1.868-11.024-3.231c-1.033-0.444-2.3-0.669-3.765-0.669
			c-4.012,0-9.077,1.732-12.043,4.12c-4.895,3.938-11.022,21.176-11.392,25.739c-0.437,5.413,2.132,12.92,5.181,15.153
			c2.128,1.562,7.387,2.262,11.654,2.262c1.182,0,2.276-0.055,3.17-0.159l0.806-0.095l-0.592-0.554
			c-2.281-2.139-6.106-6.811-6.082-14.069c0.016-6.104,7.062-25.66,13.522-26.84c1.14-0.208,2.333-0.313,3.554-0.313
			c3.341,0,6.99,0.784,10.89,2.335c-2.854-0.606-6.81-1.279-10.31-1.279c-1.51,0-2.838,0.125-3.946,0.372
			c-5.56,1.238-12.564,19.421-12.582,25.729c-0.016,5.937,3.071,11.816,7.867,14.981c1.594,1.053,7.716,1.733,15.594,1.734
			c0.002,0,0.002,0,0.002,0c2.51,0,5.142-0.07,7.818-0.207c13.326-0.681,24.105-2.816,29.572-5.859
			c4.767-2.654,9.881-17.271,12.435-35.542c5.324-38.097,8.918-100.05,5.214-107.352
			C513.005,563.706,508.952,558.857,504.248,553.232z"/>
		<path fill="#FFEAC2" d="M212.034,372.81c11.909-31.57,21.019-86.399,21.019-86.399S217.311,340.253,212.034,372.81z"/>
		<path fill="#FFEAC2" d="M126.823,308.353c-5.787,16.828-14.085,46.715-16.876,67.274
			C115.669,355.071,124.021,321.726,126.823,308.353z"/>
		<path fill="#FFEAC2" d="M277.102,243.564l1.298,3.029c0,0,31.647,6.151,49.729,29.8
			C314.765,249.964,277.102,243.564,277.102,243.564z"/>
		<path fill="#FFEAC2" d="M470.268,243.575c-16.682-2.157-34.815,3.404-50.709,7.579c-19.911,5.23-35.957,5.482-56.107,2.203
			c-16.625-2.705-35.324-6.774-56.405-3.961c35.551-1.289,69.624,13.578,102.354,7.345c17.015-3.24,36.062-10.559,53.6-10.587
			c23.947-0.039,51.216,20.432,51.216,20.432S492.925,246.505,470.268,243.575z"/>
		<path fill="#FFEAC2" d="M632.6,176.068c-0.551,28.33-13.285,44.808-31.679,58.759c-27.257,20.673-84.089,22.723-84.089,22.723
			s53.66,3.809,86.37-20.269C621.962,223.471,636.546,205.147,632.6,176.068z"/>
		<path fill="#FFEAC2" d="M648.622,136.279c-11.251-17.028-32.576-31.935-51.686-33.41
			C617.069,107.609,633.649,119.867,648.622,136.279z"/>
		<path fill="#FFEAC2" d="M613.584,560.945c0,0,11.924,15.785,15.562,24.346c5.271,12.398,12.137,43.375,12.137,43.375
			s-4.125-31.884-9.567-45.1C627.933,574.376,613.584,560.945,613.584,560.945z"/>
		<path fill="#FFEAC2" d="M105.557,707.153c3.277-1.679,7.01-3.191,13.388-3.096C110.535,702.177,105.557,707.153,105.557,707.153z"
			/>
		<path fill="#FFEAC2" d="M143.359,706.516c0,0-9.411-2.765-15.174-2.396c-5.765,0.369-8.487,3.896-8.487,3.896s4.19-2.532,8.5-2.7
			C134.75,705.06,143.359,706.516,143.359,706.516z"/>
		<path fill="#FFEAC2" d="M141.566,712.583c0,0,1.857-2.168,4.979-2.735c3.121-0.566,9.827,1.085,9.827,1.085
			s-5.917-0.522-9.44,0.024C142.618,711.626,141.566,712.583,141.566,712.583z"/>
		<path fill="#FFEAC2" d="M303.016,725.847c0,0-5.289-3.381-10.99,0.055C295.627,724.762,298.999,724.866,303.016,725.847z"/>
		<path fill="#FFEAC2" d="M308.232,726.337c0,0,2.854-2.345,6.943-2.617c4.09-0.272,7.216,2.054,7.216,2.054
			s-2.927-1.29-7.325-1.107C311.442,724.816,308.232,726.337,308.232,726.337z"/>
		<path fill="#FFEAC2" d="M284.995,727.266c0,0-5.044-1.364-8.049,2.036C276.945,729.302,280.352,727.162,284.995,727.266z"/>
		<path fill="#FFEAC2" d="M328.16,727.026c0,0,3.777-1.583,7.069-1.169s4.892,3.292,4.892,3.292s-1.609-2.067-5.036-2.429
			C331.451,726.337,328.16,727.026,328.16,727.026z"/>
		<path fill="#FFEAC2" d="M621.347,693.837c0,0-5.44-3.381-11.303,0.055C613.749,692.751,617.215,692.855,621.347,693.837z"/>
		<path fill="#FFEAC2" d="M625.879,694.99c0,0,3.06-2.345,7.443-2.617c4.385-0.272,7.737,2.054,7.737,2.054s-3.139-1.29-7.853-1.108
			C629.321,693.468,625.879,694.99,625.879,694.99z"/>
		<path fill="#FFEAC2" d="M603.013,694.555c0,0-5.045-1.365-8.05,2.035C594.963,696.59,598.37,694.45,603.013,694.555z"/>
		<path fill="#FFEAC2" d="M646.177,696.287c0,0,3.779-1.583,7.07-1.17c3.291,0.414,4.893,3.292,4.893,3.292
			s-1.609-2.067-5.037-2.428C649.47,695.598,646.177,696.287,646.177,696.287z"/>
		<path fill="#381000" d="M226.483,348.548c8.425-36.004,15.632-70.146,20.966-101.425
			C243.733,281.447,236.677,315.571,226.483,348.548z"/>
		<path fill="#381000" d="M202.317,498.193c-8.729-18.572-16.304-37.908-22.516-57.472
			C183.976,460.891,191.276,480.167,202.317,498.193z"/>
		<path fill="#381000" d="M261.519,202.402c0.499-0.668,6.004,23.743,7.581,27.729c2.54,6.421,6.134,15.514,9.631,25.505
			c2.169,6.198,7.931,18.699,7.931,18.699c-3.129-11.128-7.17-22.452-10.749-31.883c12.423,3.052,24.343,6.657,32.719,11.881
			c13.895,8.666,22.882,22.673,22.882,22.673c-8.1-13.848-14.21-21.859-29.964-28.525c6.748-0.49,26.416-1.735,38.118-0.522
			c3.996,0.414,8.754,1.253,13.789,2.142c13.34,2.354,29.939,5.287,46.342,3.016c12.8-1.769,21.926-3.961,30.754-6.082
			c6.575-1.581,12.786-3.072,19.826-4.179c14.563-2.289,32.701-2.146,56.806,16.306c23.405,17.92,46.337,58.55,53.237,79.783
			c6.105,18.789,10.913,50.474,17.001,90.589c1.011,6.655,2.055,13.545,3.147,20.647c7.174,46.617,17.61,80.846,24.988,97.336
			c2.54,5.68,7.247,10.325,12.228,15.243c7.382,7.284,15.745,15.54,18.67,29.087c4.316,19.967,12.673,66.233,14.083,101.019
			c-2.465,0.231-4.793,0.952-6.266,1.671c-1.232-2.242-3.787-3.856-7.248-4.451c-3.944-0.679-8.722,0.083-12.232,2.536
			c0,0-0.393-0.239-0.761-0.438c-2.254-1.217-10.533-4.973-17.665,0.947c-1.33-0.594-3.021-1.144-4.917-1.282
			c-1.503-26.134-8.477-64.175-14.523-78.222c-8.137-18.909-31.325-41.244-49.955-59.192c-9.059-8.727-16.881-16.262-21.813-22.193
			c-3.757-4.517-8.21-10.045-12.924-15.898c-14.564-18.087-32.694-40.596-44.523-50.894c-7.396-6.437-17.862-13.49-26.807-19.118
			c-9.769-6.145-18.787-9.027-18.787-9.027c0.14,0.077,6.897,3.855,15.57,9.237c-32.082,1.771-58.633,26.835-69.063,36.694
			c-1.011,0.954-1.873,1.771-2.581,2.414c-5.202,4.73-10.167,8.484-14.375,11.363c-2.857-19.676-9.607-58.018-9.607-58.018
			s5.523,42.225,8.112,60.859c1.387,9.976,0.336,17.339-0.774,25.137c-0.982,6.9-1.999,14.036-1.486,23.592
			c1.744,32.538-0.926,53.504-3.074,70.349c-1.96,15.386-3.508,27.538-1.214,42.558c2.398,15.708,2.211,22.204,1.976,30.43
			c-0.191,6.636-0.119,16.45,0.994,31.885c-3.876-0.855-8.608,0.547-10.992,1.842c-1.332-2.184-3.957-3.682-7.439-4.121
			c-3.771-0.472-8.207,0.412-11.556,2.727c-2.345-1.097-11.984-4.927-19.092,1.637c-1.162-0.444-2.575-0.834-4.132-0.961
			c1.686-4.732,3.975-12.142,5.08-20.136c1.172-8.476,0.256-14.065-0.712-19.982c-0.934-5.703-1.898-11.6-0.939-20.587
			c1.713-16.015-2.906-48.429-6.278-72.098l-0.484-3.4c-1.782-12.557-2.698-23.373-3.433-32.065
			c-0.559-6.595-0.998-11.804-1.618-15.034c-1.24-6.47-4.333-14.288-7.495-21.167c-4.174-9.084-10.409-16.119-10.409-16.119
			c0.108,0.188,8.93,15.477,13.661,29.084c-4.67,1.786-28.034,10.439-39.718,9.524c-10.816-0.846-23.536-11.256-35.64-21.847
			c-13.027-11.398-37.102-45.595-37.102-45.595s22.632,35.436,35.863,47.011c1.932,1.69,3.881,3.371,5.836,5.017
			c0.849,6.021,2.167,16.418,2.229,23.232c0.049,5.631-3.407,25.378-6.749,44.476c-2.711,15.485-5.271,30.111-6.124,37.912
			c-0.801,7.32-0.196,14.031,0.387,20.521c0.843,9.359,1.637,18.199-1.72,28.116c-7.413,21.882-11.278,48.046-12.285,55.544
			c-1.833,13.641-16.541,17.104-29.151,18.597c-3.923,0.467-8.147-0.91-11.599-3.771c-3.431-2.843-5.637-6.807-5.899-10.603
			c-0.773-11.199,8.441-30.082,15.651-32.069c7.486-2.068,19.862,3.828,19.862,3.828c-0.487-0.325-12.041-7.933-20.361-5.643
			c-8.633,2.381-17.796,22.915-17.03,34.014c0.299,4.31,2.646,8.597,6.439,11.797c-3.453,0.838-12.894,2.709-18.06-0.412
			c-2.601-1.569-8.142-7.247-8.656-14.782c-0.613-8.933,8.301-31.947,18.101-34.581c6.11-1.643,20.114,2.573,20.114,2.573
			s-11.548-5.109-18.646-4.671c11.154-19.354,11.191-29.275,11.181-41.552c-0.003-5.444-0.007-11.614,1.06-19.286
			c3.431-24.68-1.809-58.061-4.941-78.004c-1.031-6.565-1.845-11.751-2.064-14.762c-0.281-3.828-0.321-8.742-0.369-14.433
			c-0.104-12.419-0.235-27.876-3.029-40.735c-2.271-10.471-6.388-22.663-10.368-34.455c-3.06-9.063-5.949-17.625-7.655-24.446
			c-3.828-15.313-5.411-43.911-1.294-63.409c3.655-17.311,17.025-64.417,19.841-74.29c4.408,19.137,10.896,44.007,17.683,58.431
			c0,0-18.2-65.018-19.97-94.442c-1.178,0.055-2.635,0.122-2.635,0.122s2.414,23.095,4.007,31.874
			c-2.717,9.574-17.057,60.339-20.767,77.917c-4.172,19.761-2.569,48.738,1.308,64.254c1.726,6.896,4.626,15.492,7.7,24.593
			c3.962,11.741,8.06,23.883,10.312,34.253c2.752,12.67,2.88,28.018,2.985,40.351c0.047,5.724,0.088,10.666,0.373,14.556
			c0.226,3.087,1.045,8.306,2.082,14.915c3.115,19.84,8.329,53.049,4.937,77.453c-1.084,7.801-1.081,14.041-1.077,19.545
			c0.008,12.274-0.052,22.159-11.749,41.995c-0.48,0.157-0.957,0.346-1.429,0.583c-3.6-1.229-7.73-2.323-13.438-0.776
			c-1.35,0.366-2.669,1.122-3.943,2.158c-0.402,0.077-0.8,0.149-1.227,0.262c-9.41,2.506-19.112,24.414-19.816,31.894
			c-0.717,7.604,4.751,12.93,6.918,14.341c2.001,1.3,4.561,1.73,7.079,1.73c0.323,0,0.64-0.021,0.959-0.035
			c0.21,0.146,0.408,0.278,0.583,0.385c2.332,1.422,5.197,1.893,7.969,1.893c2.069,0,4.068-0.267,5.774-0.592
			c0.396,0.303,0.779,0.573,1.134,0.788c2.509,1.514,5.79,2.008,9.009,2.008c4.58,0,9.856-1.126,12.122-1.669
			c2.905,1.861,6.154,2.878,9.328,2.878c0.581,0,1.16-0.033,1.731-0.102c12.249-1.45,28.766-5.124,30.793-20.216
			c1.004-7.455,4.845-33.469,12.204-55.19c3.487-10.293,2.672-19.325,1.812-28.889c-0.575-6.397-1.171-13.013-0.39-20.147
			c0.847-7.739,3.402-22.338,6.105-37.792c3.357-19.181,6.83-39.015,6.778-44.816c-0.056-6.203-1.129-15.247-1.967-21.434
			c9.845,8.087,19.797,14.808,28.752,15.508c0.631,0.049,1.291,0.073,1.976,0.073c12.555,0,33.751-7.865,38.489-9.686
			c0.765,2.361,1.389,4.649,1.795,6.77c0.602,3.132,1.039,8.298,1.59,14.838c0.738,8.715,1.656,19.561,3.446,32.17l0.485,3.402
			c3.357,23.57,7.956,55.85,6.269,71.632c-0.987,9.239,0,15.265,0.951,21.091c0.948,5.773,1.838,11.226,0.706,19.422
			c-1.137,8.221-3.548,15.807-5.215,20.393c-2.482,0.195-5.187,1.178-7.762,3.683c-4.488,4.368-11.907,20.165-12.376,28.032
			c-0.376,6.324,4.257,12.903,6.906,14.376c1.832,1.021,5.298,1.609,8.716,1.609c1.648,0,3.267-0.148,4.703-0.439
			c1.292,1.341,2.584,2.258,3.637,2.532c2.151,0.56,5.112,0.905,8.124,0.905c3.928,0,7.929-0.599,10.352-2.064
			c0.074,0.072,0.137,0.15,0.212,0.222c1.733,1.629,5.679,2.358,9.806,2.358c4.594,0,9.413-0.904,11.653-2.478
			c0.775-0.545,1.445-1.343,2.028-2.308c1.376,0.339,3.369,0.554,4.843,0.554c3.529,0,7.364-0.826,9.681-1.984
			c3.448-1.725,8.918-10.051,8.655-15.868c-0.41-9.116-5.966-26.292-11.778-29.463c-1.129-15.422-1.502-25.669-1.303-32.622
			c0.239-8.319,0.428-14.891-1.996-30.767c-2.253-14.759-0.721-26.796,1.222-42.034c2.156-16.921,4.837-37.981,3.084-70.689
			c-0.502-9.371,0.501-16.414,1.472-23.226c1.128-7.933,2.196-15.424,0.774-25.659c-0.023-0.164-0.049-0.341-0.072-0.508
			c4.428-2.985,9.76-6.971,15.343-12.046c0.717-0.65,1.588-1.476,2.608-2.44c1.888-1.785,4.324-4.08,7.219-6.641
			c1.398,6.246,7.264,29.684,20.099,47.707c7.21,10.126,21.116,21.318,34.563,32.142c14.924,12.013,29.02,23.358,34.229,32.997
			c9.828,18.201,14.152,71.666,6.336,78.364c-2.664,2.282-9.563-0.679-13.271-2.269c-2.735-1.169-6.464-0.936-9.974,0.064
			c-4.994-0.311-8.845,0.43-12.258,2.237c-8.055,4.264-13.362,25.678-13.752,29.538c-0.76,7.466,3.053,11.597,5.392,13.395
			c2.177,1.673,4.691,1.985,6.267,1.985c0.517,0,0.914-0.032,1.184-0.062c2.529,1.583,7.848,2.358,12.193,2.358
			c2.025,0,3.799-0.177,5-0.504c0.153,0.109,0.307,0.242,0.458,0.344c1.935,1.275,8.578,2.007,16.757,2.007
			c12.979,0,29.819-1.844,37.79-6.28c6.462-3.597,11.146-21.991,13.194-36.65c5.417-38.763,8.98-100.527,5.066-108.241
			c-2.143-4.225-6.251-9.139-11.007-14.828c-7.534-9.013-16.074-19.229-20.489-30.809c-4.497-11.809-6.442-24.359-7.271-32.109
			c7.772,9.112,15.89,19.191,23.126,28.177c4.721,5.858,9.178,11.393,12.941,15.919c5.002,6.013,12.857,13.581,21.955,22.347
			c18.51,17.83,41.545,40.021,49.534,58.581c5.857,13.604,12.855,51.874,14.363,77.486c-2.335,0.191-4.867,1.097-7.348,3.304
			c-4.718,4.193-12.893,19.646-13.709,27.446c-0.657,6.269,3.727,13.063,6.335,14.674c2.012,1.242,6.121,2.027,9.934,2.027
			c1.188,0,2.31-0.106,3.361-0.273c1.251,1.405,2.525,2.39,3.581,2.716c2.524,0.776,6.206,1.303,9.783,1.303
			c3.356,0,6.606-0.473,8.734-1.629c0.063,0.069,0.128,0.157,0.194,0.224c1.869,1.926,6.615,2.833,11.297,2.833
			c4.074,0,8.102-0.688,10.143-1.988c0.85-0.541,1.572-1.305,2.219-2.173c1.596,0.516,3.857,0.753,5.793,0.753
			c3.219,0,6.562-0.623,8.691-1.57c3.619-1.611,9.199-8.479,9.199-14.308c0-8.311-4.449-27.601-10.291-31.123
			c-1.463-0.885-3.248-1.241-5.061-1.275c-1.416-34.918-9.799-81.325-14.125-101.347c-3.044-14.096-11.62-22.561-19.187-30.03
			c-4.853-4.79-9.435-9.314-11.834-14.673c-7.325-16.377-17.699-50.42-24.843-96.853c-1.093-7.101-2.139-13.989-3.146-20.644
			c-6.102-40.2-10.92-71.954-17.073-90.889c-4.071-12.527-13.677-31.738-25.68-49.173c12.146,1.502,42.515,2.354,75.956-8.333
			c30.252-9.667,53.479-33.275,61.083-59.11c5.121-17.402,3.518-37.576-4.518-56.803c-6.635-15.885-16.828-32.015-33.077-46.993
			c-17.299-15.949-38.805-18.385-42.052-16.825c-0.704,0.337-1.138,0.771-1.291,1.293c-0.453,1.542,1.284,3.454,4.654,6.978
			c1.849,1.935,6.534,7.685,7.037,8.381c20.239,27.975,27.763,50.969,23.671,72.211c-5.122,26.586-28.723,44.644-49.104,52.678
			c-22.667,8.939-51.02,10.536-75.31,11.545c-22.33-15.434-39.513-15.415-53.497-13.217c-7.113,1.119-13.359,2.62-19.973,4.209
			c-8.784,2.109-17.864,4.292-30.571,6.048c-16.114,2.226-32.551-0.674-45.758-3.006c-5.071-0.895-9.86-1.74-13.922-2.162
			c-12.212-1.263-35.937,0.112-42.974,0.566c-5.91-2.162-13.036-4.221-21.792-6.343c-1.572-4.102-3.033-7.796-4.249-10.87
			c-1.433-3.624-2.686-7.315-3.146-8.93L261.519,202.402z M92.244,748.878c-1.798-1.171-6.794-6.018-6.164-12.704
			c0.623-6.614,8.418-24.324,16.088-29.021c-6.721,8.271-11.538,23.525-11.54,29.735c-0.001,5.957,3.362,10.628,6.206,13.376
			C95.149,750.125,93.538,749.72,92.244,748.878z M100.711,750.97c-2.128-1.299-8.203-6.673-8.201-14.082
			c0.002-7.993,8.164-30.751,17.162-33.192c4.447-1.208,7.799-0.665,10.843,0.258c-8.958,6.711-16.04,26.037-15.464,34.465
			c0.404,5.899,3.578,10.839,6.582,13.848C108.125,752.779,103.797,752.849,100.711,750.97z M269.068,769.375
			c-1.979-1.101-6.274-7.012-5.942-12.62c0.44-7.375,7.627-22.724,11.811-26.795c3.98-3.868,8.27-3.563,11.186-2.617
			c-4.928,6.004-10.794,23.987-10.423,32.199c0.175,3.906,2.154,8.009,4.444,10.977
			C276.391,771.042,271.376,770.662,269.068,769.375z M285.684,772.898c-2.202-0.573-7.814-6.938-8.107-13.44
			c-0.382-8.497,5.97-26.411,10.247-31.241c6.669-7.532,15.559-3.132,16.925-2.387c-0.786,0.809-1.495,1.695-2.015,2.738
			c-3.341,6.716-5.157,20.809-5.379,28.67c-0.168,5.99,1.471,10.896,4.994,14.933C298.674,774.063,290.533,774.161,285.684,772.898z
			 M324.276,772.124c-3.84,2.698-16.328,2.885-19.088,0.288c-2.667-2.509-6.187-6.807-5.951-15.12
			c0.211-7.469,2.005-21.496,5.181-27.886c2.079-4.18,7.114-6.129,11.638-6.129c0.637,0,1.266,0.039,1.873,0.115
			c3.646,0.46,6.134,2.206,6.66,4.668c2.264,10.6,4.018,22.775,4.078,28.321C328.735,762.42,327.076,770.157,324.276,772.124z
			 M337.88,726.244c4.725,2.568,10.383,18.57,10.804,27.896c0.225,4.992-4.725,12.655-7.618,14.103
			c-3.054,1.525-9.118,2.385-12.76,1.292c1.666-3.949,2.283-9.428,2.242-13.175c-0.07-6.439-2.174-19.59-4.119-28.693
			c-0.021-0.096-0.063-0.183-0.087-0.277C328.525,726.138,334.328,724.313,337.88,726.244z M419.649,710.646
			c-2.477-1.905-5.301-5.482-4.668-11.713c0.435-4.306,5.856-24.409,12.764-28.065c2.632-1.394,5.14-2.061,7.202-2.287
			c-1.188,0.598-2.294,1.259-3.197,1.985c-5.376,4.327-11.546,21.789-11.948,26.792c-0.402,4.981,1.512,11.402,4.176,14.847
			C422.72,712.107,421.082,711.747,419.649,710.646z M483.159,522.128c4.521,11.873,13.549,22.671,20.801,31.346
			c4.683,5.601,8.729,10.438,10.772,14.472c3.681,7.254,0.065,69.083-5.251,107.129c-2.539,18.163-7.575,32.666-12.247,35.267
			c-5.417,3.016-16.135,5.134-29.405,5.812c-12.19,0.623-21.355-0.257-23.188-1.467c-4.694-3.098-7.714-8.854-7.696-14.666
			c0.018-6.191,7.037-24.193,12.287-25.362c6.445-1.437,18.002,1.851,18.002,1.851c-6.858-3.428-13.032-4.675-18.341-3.701
			c-6.763,1.234-13.812,20.852-13.831,27.208c-0.019,6.327,2.892,11.241,6.201,14.346c-3.97,0.464-11.884-0.07-14.558-2.032
			c-2.967-2.173-5.454-9.516-5.028-14.821c0.365-4.52,6.418-21.585,11.254-25.476c3.749-3.019,11.312-5.162,15.421-3.399
			c4.655,1.996,11.689,5.01,15.238,1.969c8.424-7.22,4.449-61.515-5.907-80.688c-5.388-9.972-19.626-21.434-34.703-33.568
			c-13.349-10.743-27.149-21.853-34.21-31.767c-13.515-18.977-19.19-44.111-20.015-48.03c13.553-11.727,36.064-27.887,61.799-28.215
			c8.732,5.514,18.785,12.32,25.923,18.535c5.335,4.645,11.995,11.844,19.037,20C476.168,494.262,478.027,508.661,483.159,522.128z
			 M585.832,735.681c-1.952-1.206-6.035-7.321-5.453-12.877c0.765-7.31,8.689-22.325,13.086-26.236
			c4.216-3.748,8.557-3.174,11.428-2.061c-4.842,5.212-12.081,22.881-12.081,31.755c0,3.868,1.804,8.016,3.975,11.063
			C593.018,737.669,588.065,737.061,585.832,735.681z M602.274,739.953c-2.199-0.678-7.581-7.248-7.581-13.69
			c0-8.445,7.201-26.002,11.724-30.646c6.805-6.988,15.181-2.684,16.872-1.699c-0.763,0.741-1.461,1.55-1.993,2.51
			c-3.715,6.698-6.257,20.808-6.662,28.421c-0.339,6.396,1.845,11.695,4.377,15.097
			C615.282,741.694,607.082,741.435,602.274,739.953z M640.858,740.906c-3.955,2.522-16.438,2.151-19.081-0.568
			c-2.788-2.87-5.635-8.419-5.265-15.392c0.445-8.382,3.194-21.78,6.428-27.606c2.584-4.657,8.896-6.24,13.767-5.4
			c3.62,0.624,6.03,2.479,6.444,4.963c1.6,9.585,2.916,24.429,2.707,30.541C645.647,733.727,643.638,739.137,640.858,740.906z
			 M656.513,695.685c4.744,2.859,9.377,20.751,9.377,29.511c0,4.877-4.965,11.2-8.082,12.588c-3.066,1.365-9.004,1.947-12.617,0.771
			c1.654-3.191,2.428-7.39,2.551-11.048c0.211-6.21-1.117-21.234-2.732-30.916c-0.016-0.097-0.055-0.185-0.074-0.279
			C647.173,695.162,653.052,693.597,656.513,695.685z M535.048,287.061c-8.197-11.614-17.417-22.271-26.72-29.394
			c-0.698-0.534-1.388-1.048-2.075-1.552c24.062-1.026,50.677-2.765,73.331-11.697c26.597-10.486,45.855-31.205,50.26-54.073
			c4.182-21.703-3.374-45.066-23.757-73.345c-0.583-0.81-5.55-6.929-7.439-8.906c-1.243-1.3-2.807-2.935-3.646-4.022
			c-0.443-0.572-0.143-1.393,0.558-1.579c3.141-0.837,22.326,1.463,39.085,16.783c16.593,15.169,26.132,30.735,32.675,46.393
			c7.865,18.83,9.445,38.556,4.447,55.545c-7.428,25.237-30.074,48.677-59.833,57.842
			C583.692,287.756,556.731,290.075,535.048,287.061z"/>
	</g>
</g>
<g>
	<g>
		<path fill="#FFFFFF" d="M140.494,124.617c-0.074,1.553,0.773,3.305,2.452,5.066c3.373,3.541,10.512,7.351,18.215,7.351
			c0.003,0,0.003,0,0.003,0c3.083,0,5.909-0.628,8.396-1.868c2.146-1.071,3.014-3.929,2.512-8.266
			c-0.951-8.207-7.04-20.747-11.733-21.856c-0.439-0.104-0.912-0.156-1.403-0.156C152.032,104.888,140.939,115.47,140.494,124.617z"
			/>
		<path fill="#CECECC" d="M171.289,122.893c-2.005-7.764-6.973-16.908-10.951-17.848c-0.439-0.104-0.912-0.156-1.403-0.156
			c-1.553,0-3.32,0.557-5.127,1.491C162.435,106.917,168.283,115.108,171.289,122.893z"/>
		<path fill="#FFFFFF" d="M82.662,106.459l0.296,0.124l0.21-0.242c0.334-0.383,0.655-0.764,0.88-1.118
			c5.24-8.17,8.098-18.816,8.044-29.978l-0.003-0.281c0,0-1.812-1.02-4.497-0.393c-2.061,0.481-4.785,2.339-6.689,3.905
			c-1.467,1.206-3.479,3.186-5.314,5.916c-2.074,3.084-2.903,6.646-2.755,9.789C73.194,101.731,79.826,105.283,82.662,106.459z"/>
		<path fill="#CECECC" d="M91.791,84.24c0.539-3.336,0.319-5.499,0.303-8.995l-0.003-0.281c0,0-1.812-1.02-4.497-0.393
			c-0.874,0.204-1.868,0.663-2.866,1.234C86.658,75.412,91.817,76.618,91.791,84.24z"/>
		<path fill="#D9C39A" d="M307.181,179.76c-0.825-1.266-2.502-2.324-4.825-3.788c-2.191-1.381-4.918-3.1-8.237-5.768
			c-3.883-3.126-8.046-9.507-10.854-14.311l-0.828,0.305c0.592,3.285,1.63,6.795,2.49,9.416c-4.814-9.048-7.259-21.424-9.458-32.549
			c-1.68-8.497-3.268-16.521-5.651-21.042c-5.515-10.466-12.67-13.315-19.583-14.833c-3.44-0.755-13.249-2.351-21.061-3.585
			c2.121,0.165,4.386,0.349,6.631,0.545l1.039,0.09l-0.651-0.814c-2.864-3.591-13.053-16.012-23.88-25.075
			c-14.639-12.257-29.565-14.816-33.79-15.31c-5.096-0.594-12.21-0.865-16.62-0.981c1.104-0.265,2.209-0.573,2.965-0.893l0.992-0.42
			l-0.999-0.406c-8.471-3.432-15.211-5.349-20.608-5.861c-1.943-0.183-3.875-0.275-5.741-0.275c-8.987,0-15.459,2.107-20.092,3.944
			c-4.95,1.962-15.319,5.875-19.547,7.468l-1.079,0.405l1.07,0.428c3.487,1.397,6.202,4.881,7.903,7.642
			c-2.295-2.512-5.711-5.672-9.105-6.659c-1.21-0.353-2.5-0.53-3.834-0.53c-5.563,0-10.554,3.05-12.719,7.773
			c-1.054,2.303-2.017,4.511-2.945,6.637c-3.043,6.981-5.671,13.011-9.861,18.558c-1.199,1.585-3.253,3.341-5.648,5.388
			c-2.222,1.901-4.738,4.053-6.787,6.313c-4.167,4.603-5.32,14.456-5.823,21.468l-0.048,0.658l0.628-0.201
			c6.13-1.954,10.624-3.612,13.354-4.926c8.202-3.945,14.579-7.845,17.953-10.979l0.56-0.519l-0.725-0.234
			c-3.915-1.263-9.164-6.473-9.714-10.754c-0.561-4.37,0.996-9.094,4.501-13.535c0.119-0.151,3.46-4.099,6.759-6.298
			c2.748-1.844,5.457-2.719,7.012-2.719c0.445,0,0.806,0.075,1.045,0.217l0.704,0.416l-0.02-0.539
			c0.59,2.496,1.162,5.958,0.954,9.461c-0.462,7.784-3.098,15.476-7.83,22.86c-3.157,4.92-14.271,10.778-20.618,13.833
			c-4.939,2.378-13.12,4.946-17.556,6.264l-1.637,0.487l1.667,0.377c7.374,1.677,18.296,6.045,24.808,12.837
			c3.913,4.081,5.71,8.478,5.351,13.072c-0.731,9.352-11.392,19.438-21.124,25.76c-9.02,5.86-18.381,9.359-25.042,9.359
			c-1.222,0-2.456-0.157-3.774-0.482l-0.445-0.109l-0.099,0.448c-0.744,3.39-3.037,14.848-1.333,19.95
			c0.925,2.784,2.946,4.623,5.762,7.185c3.234,2.939,7.258,6.595,11.494,13.396c8.339,13.377,24.165,29.665,36.221,33.767
			c3.162,1.075,6.85,1.62,10.958,1.62c0.002,0,0,0,0.002,0c11.26,0,23.077-4.087,27.526-5.625
			c14.76-5.103,45.048-30.942,61.253-49.765l0.391-0.452l2.506,2.083l-0.317,0.678c-4.326,9.228-16.725,28.029-23.177,37.543
			c-10.999,16.215-32.629,36.014-50.096,48.758c-11.874,8.664-24.56,15.736-34.5,16.492c-16.903,1.284-27.15-10.364-30.036-14.933
			c-3.042-4.818-2.539-6.988-1.155-9.681c1.239-2.408,8.659-12.7,12.953-18.835c4.294-6.135,8.197-14.68,8.197-14.68l-4.888-4.915
			c-1.012,4.14-5.053,12.75-7.326,16.96c-2.273,4.21-10.602,15.634-13.192,19.433c-2.589,3.798-4.086,3.861-5.611,10.712
			c-1.015,4.558,1.513,10.746,6.198,15.421c4.372,4.363,15.994,11.593,26.77,13.462s24.414-5.612,24.414-5.612
			c6.271-3.63,12.258-7.812,18.109-11.937c5.228-3.158,11.752-7.429,18.185-11.642c0.433-0.283,0.892-0.582,1.362-0.888
			c3.999-2.291,7.556-4.15,7.556-4.15s1.636-1.093,4.2-3.292c5.352-3.299,10.488-6.326,13.151-7.56
			c5.236-2.426,13.995-4.411,19.793-5.724l1.247-0.283c6.355-1.449,17.816-6.698,26.542-13.574l0.221-0.174l-0.061-0.275
			c-2.022-8.949-2.893-19.686-2.524-31.046c0.582-17.878,5.887-37.675,14.194-52.957c1.767-3.25,4.91-7.576,8.551-12.585
			c8.699-11.971,21.848-30.061,24.6-47.099l0.033-0.202l-0.13-0.156c-1.616-1.925-3.446-4.105-8.484-6.583
			c-1.213-0.596-2.986-1.251-4.708-1.833c1.676,0.296,3.347,0.672,4.98,1.193c3.187,1.02,5.866,2.538,7.964,4.513l0.676,0.639
			l0.074-0.93c0.081-1.021,0.129-1.957,0.142-2.837c0.621,2.417,1.087,6.473-0.37,11.805c-4.233,15.508-15.433,30.917-23.692,42.276
			c-3.612,4.972-6.732,9.265-8.457,12.437c-8.213,15.109-13.458,34.683-14.032,52.36c-0.735,22.611,3.667,42.259,11.214,50.056
			c2.047,2.116,4.18,3.189,6.339,3.189c2.762,0,8.208-6.992,14.541-15.474c4.096-5.482,7.973-10.674,10.741-12.773l0.76-0.513
			c8.351-5.235,17.698-9.003,25.978-12.341c7.274-2.931,14.145-5.7,18.917-8.928c9.521-6.442,16.647-16.71,20.062-28.914
			C310.434,193.725,311.371,186.194,307.181,179.76z M161.089,138.285c-1.873,0-3.699-0.189-5.283-0.546
			c-6.529-1.468-12.267-5.452-14.347-7.618c-0.867-0.901-2.253-1.328-3.593-1.74c-1.985-0.612-3.193-1.068-3.24-2.228
			c-0.057-1.358,0.703-1.766,1.852-2.384c0.857-0.461,1.831-0.984,2.576-2.037c0.241-0.34,0.571-0.922,0.998-1.676
			c2.469-4.373,8.247-14.614,19.466-16.388l0.611-0.097l-0.283-0.55c-0.382-0.74-0.789-1.428-1.228-2.076
			c12.85,10.608,15.644,27.609,15.641,30.767C174.25,136.027,167.627,138.285,161.089,138.285z"/>
		<path fill="#BCA176" d="M262.995,221.732c-8.746-2.953-24.178-11.292-31.094-19.782c-12.479-15.318-10.465,39.517,8.876,55.085
			c7.841-4.633,19.996-11.554,27.643-14.637c7.274-2.93,14.145-5.7,18.917-8.927c1.633-1.105,8.914-7.386,10.4-8.707
			C287.784,226.068,272.783,225.036,262.995,221.732z"/>
		<path fill="#BCA176" d="M149.545,100.579c-5.792,5.141-8.531,14.162-10.836,18.848c-1.347,2.736-5.49,3.843-4.343,7.488
			c0.194,0.612,2.615,0.21,5.689,1.385c2.06,0.787,3.792,3.885,6.074,5.015c8.904,4.408,19.537,7.75,27.559,1.267
			c4.384-3.543-2.182-24.206-7.821-31.287C161.139,97.357,157.515,93.503,149.545,100.579z M161.089,138.285
			c-1.873,0-3.699-0.189-5.283-0.546c-6.529-1.468-12.267-5.452-14.347-7.618c-0.867-0.9-2.253-1.327-3.593-1.74
			c-1.985-0.612-3.193-1.067-3.24-2.228c-0.057-1.357,0.703-1.766,1.852-2.384c0.857-0.461,1.831-0.984,2.576-2.037
			c0.241-0.34,0.571-0.922,0.998-1.676c2.469-4.373,8.247-14.614,19.466-16.388l0.611-0.097l-0.283-0.55
			c-0.382-0.74-0.789-1.428-1.228-2.076c12.85,10.608,15.644,27.609,15.641,30.767C174.25,136.027,167.627,138.285,161.089,138.285z
			"/>
		<path fill="#BCA176" d="M71.974,94.88c-0.161-4.026,1.395-8.294,4.582-12.331c0.119-0.151,3.46-4.099,6.759-6.299
			c2.748-1.843,5.457-2.718,7.012-2.718c0.445,0,0.806,0.075,1.045,0.217l0.704,0.416c0,0-0.078-2.592-0.676-4.407
			C90.495,67.013,70.727,78.065,71.974,94.88z"/>
		<path fill="#D9C39A" d="M63.981,118.569c8.202-3.946,14.579-7.845,17.953-10.979l0.56-0.519l-0.725-0.234
			c-3.559-1.148-8.182-5.553-9.414-9.562c-1.943-2.435-3.21-5.329-3.279-8.488c-0.257,0.361-0.504,0.725-0.772,1.082
			c-1.199,1.585-3.253,3.341-5.648,5.388c-2.222,1.9-4.738,4.053-6.787,6.313c-4.167,4.603-5.32,14.456-5.823,21.468l-0.048,0.658
			l0.628-0.201C56.757,121.542,61.251,119.884,63.981,118.569z"/>
		<path fill="#9C6C68" d="M26.53,185.902c1.264,0.449,2.758,0.676,4.439,0.676c0.001,0,0,0,0.001,0
			c6.463,0,15.573-3.412,24.371-9.127c11.888-7.723,19.942-17.433,20.517-24.737c0.328-4.198-1.35-8.248-4.981-12.038
			c-8.322-8.682-23.717-13.224-29.635-13.224l-0.411,0.007c-4.176,0.15-21.359,6.476-26.116,14.338
			c-2.878,4.759-3.026,19.239,1.096,30.774C17.591,177.551,20.896,183.907,26.53,185.902z"/>
		<path fill="#664744" d="M58.371,154.659c-5.199-0.856-9.779-5.326-14.258-7.857c-7.965-4.502-16.757-8.742-25.826-6.972
			c-0.87,0.17-2.032,0.45-2.899,0.733c-0.214,0.291-0.496,0.938-0.674,1.234c-2.878,4.759-3.026,19.239,1.096,30.774
			c1.782,4.98,5.086,11.335,10.721,13.331c1.264,0.449,2.758,0.676,4.439,0.676c0.001,0,0,0,0.001,0
			c6.463,0,15.573-3.412,24.371-9.127c11.888-7.723,19.942-17.433,20.517-24.737c0.139-1.785-0.106-3.54-0.687-5.261
			c-1.143,0.974-2.378,1.973-3.626,2.88C67.529,153.246,63.052,155.429,58.371,154.659z"/>
		<path fill="#D9C39A" d="M40.784,126.119c0,0,1.1-0.002,1.209-0.003c1.328-0.382,3.626-1.056,6.342-1.898l0.292-0.09l0.02-0.305
			c0.609-8.722,1.827-18.292,6.228-23.153c2.118-2.336,4.667-4.516,6.958-6.471c2.209-1.89,4.293-3.675,5.399-5.136
			c4.094-5.417,6.693-11.381,9.703-18.286l0.117-0.266c0.895-2.05,1.826-4.178,2.84-6.394c2.869-6.265,9.092-8.497,13.958-8.497
			c0.102,0,0.672-0.001,0.919-0.011c5.259-1.941,18.041-6.679,23.153-8.706c2.928-1.16,7.506-2.792,13.451-3.57l1.08-0.142
			l-0.869-0.658c-1.703-1.288-3.995-2.911-5.25-3.331c-0.797-0.266-2.048-0.618-3.701-0.618c-2.5,0-5.268,0.786-8.46,2.402
			c-5.639,2.852-15.229,5.273-28.504,7.198c-2.832,0.411-5.726,0.657-8.523,0.896c-7.914,0.676-15.386,1.313-22.04,5.24
			c-8.748,5.163-18.051,23.724-19.563,31.42c-1.533,7.809-1.81,15.568-2.08,23.078c-0.248,6.927-0.483,13.469-1.755,19.06
			l-0.184,0.812l0.778-0.294C35.805,127.07,39.131,126.178,40.784,126.119z"/>
		<path fill="#FFEAC2" d="M129.832,42.232c-2.91-2.027-5.29-2.499-6.942-2.499c-2.499,0-5.268,0.786-8.459,2.402
			c-5.64,2.852-15.229,5.273-28.504,7.198c-2.831,0.41-5.727,0.656-8.523,0.896c-7.913,0.676-15.386,1.313-22.041,5.239
			c-7.474,4.412-13.854,16.883-17.064,24.906c4.573-9.077,11.193-19.46,17.532-23.201c6.654-3.926,14.127-4.564,22.041-5.239
			c2.796-0.239,5.691-0.486,8.523-0.896c13.275-1.924,22.856-4.669,28.495-7.521c3.191-1.617,5.625-2.716,8.125-2.716
			C124.666,40.801,127.096,41.187,129.832,42.232z"/>
		<path fill="#BCA176" d="M58.64,91.151c-6.731,2.834-19.086,5.556-24.119-0.984c-1.426,7.595-0.793,11.343-1.057,18.65
			c-0.248,6.927-0.483,13.469-1.755,19.06l-0.184,0.812l0.778-0.294c3.502-1.325,6.828-2.217,8.48-2.276c0,0,1.1-0.002,1.209-0.003
			c1.328-0.382,3.626-1.056,6.342-1.898l0.292-0.09l0.02-0.305c0.609-8.722,1.827-18.292,6.228-23.153
			c2.118-2.336,4.667-4.516,6.958-6.471c2.209-1.89,4.293-3.675,5.399-5.136c4.094-5.417,6.693-11.381,9.703-18.286l0.117-0.266
			c0.185-0.425,0.381-0.868,0.57-1.3C74.7,73.266,68.594,86.959,58.64,91.151z"/>
		<path fill="#D9C39A" d="M16.949,215.541l1.186-1.245c2.085-2.194,4.239-4.463,5.803-5.715l0.24-0.193l-0.094-0.294
			c-1.81-5.582,0.587-17.347,1.365-20.819l0.078-0.357l-0.334-0.148c-4.458-1.986-8.141-6.74-10.645-13.746
			c-1.32-3.691-2.3-8.032-2.832-12.554l-0.181-1.54l-0.666,1.4c-2.318,4.874-7.829,16.989-8.892,24.213
			c-1.356,9.241,4.827,34.36,6.252,38.067l0.143,0.368l0.384-0.095C10.171,222.53,13.43,219.217,16.949,215.541z"/>
		<path fill="#BCA176" d="M25.192,186.769c-4.458-1.986-8.141-6.74-10.645-13.746c-0.223-0.621-0.419-1.284-0.623-1.939
			c1.203,10.461,8.08,18.053,6.137,29.544c-1.338,7.918-6.849,13.191-13.161,17.476c0.438,1.662,0.819,2.993,1.103,3.859
			c2.799-2.537,5.598-5.04,8.284-7.743c2.346-2.361,4.554-5.279,7.652-6.669c-1.511-5.765,0.753-16.909,1.507-20.275l0.078-0.357
			L25.192,186.769z"/>
		<path fill="#BCA176" d="M88.931,108.001c0.502,0,12.384,0.097,21.486,8.459C103.604,112.271,96.459,109.381,88.931,108.001z"/>
		<path fill="#FFFFFF" d="M59.232,155.924c-2.834-0.513-5.278-2.191-7.437-3.657c-5.532-3.751-10.528-7.148-16.196-9.218
			c-9.19-3.355-17.313-3.22-17.313-3.22c5.564-1.693,13.366-0.708,18.12,1.135c5.846,2.269,10.997,5.624,16.642,9.454
			c2.075,1.408,4.209,2.938,6.594,3.308c4.559,0.705,11.901-3.394,11.901-3.394S64.311,156.843,59.232,155.924z"/>
		<path fill="#FFFFFF" d="M47.426,178.928c-3.48-0.298-6.844-2.433-8.986-5.193c-2.14-2.765-2.842-6.029-2.486-9.604
			c0,0,0.442,5.303,3.203,8.91C41.916,176.647,47.426,178.928,47.426,178.928z"/>
		<path fill="#FFFFFF" d="M16.049,168.944c4.484,0.774,6.275,0.027,6.833-6.086C21.601,168.083,19.813,168.812,16.049,168.944z"/>
		<path fill="#782E1E" d="M169.656,116.426c-5.063-5.231-13.385-5.648-18.937-0.808c-5.366,4.681-6.23,12.605-2.218,18.303
			c0.274,0.389,7.138,3.075,14.423,3.884c2.078-0.505,4.183,0.08,5.906-1.422c2.617-2.283,4.15-5.338,4.583-8.529
			C172.221,124.025,171.116,120.134,169.656,116.426z"/>
		<path fill="#5B2317" d="M169.656,116.426c-5.063-5.231-13.385-5.648-18.937-0.808c-1.563,1.364-2.733,3.008-3.524,4.788
			c4.329-1.64,10.42-0.264,14.359,1.557c4.543,2.102,8.012,5.718,10.707,9.843c0.586-1.266,0.961-2.607,1.145-3.972
			C172.217,124.012,171.113,120.127,169.656,116.426z"/>
		<circle fill="#111111" cx="159.775" cy="126.001" r="8.581"/>
		<circle fill="#FFFFFF" cx="154.443" cy="119.888" r="3.358"/>
		<path fill="#782E1E" d="M83.352,107.171c5.129-7.814,7.602-14.812,9.008-24.279c-5.47-1.254-11.591,1.766-14.59,7.606
			c-2.501,4.869-2.149,10.365,0.475,14.211C79.035,105.867,82.396,107.23,83.352,107.171z"/>
		<path fill="#5B2317" d="M90.398,91.834c0.839-2.815,1.49-5.77,1.961-8.942c-5.47-1.254-11.591,1.766-14.59,7.606
			c-0.947,1.846-1.474,3.781-1.634,5.684c3.25-3.21,8.899-4.453,12.826-4.427C89.447,91.758,89.923,91.792,90.398,91.834z"/>
		<path fill="#111111" d="M84.691,103.699c0.171,0.088,0.356,0.128,0.531,0.2c2.885-5.057,4.875-10.16,6.177-15.893
			c-3.518-1.07-7.589,0.791-9.542,4.592C79.693,96.813,80.962,101.784,84.691,103.699z"/>
		
			<ellipse transform="matrix(0.6572 0.7537 -0.7537 0.6572 95.4614 -31.1152)" fill="#FFFFFF" cx="81.938" cy="89.392" rx="3.029" ry="3.358"/>
		<path fill="#FFEAC2" d="M227.034,94.942c0,0,21.999,2.486,27.867,5.432c2.955,1.483,10.065,5.891,12.897,12.203
			c8.238,18.367,4.591,30.704,14.45,52.551c-12.698-20.191-8.78-33.567-17.136-51.202c-3.302-6.967-8.554-10.09-11.505-11.542
			C246.953,99.112,227.034,94.942,227.034,94.942z"/>
		<path fill="#FFEAC2" d="M302.188,177.68c-3.206-2.09-6.285-3.54-9.23-6.184c-2.795-2.509-5.801-6.428-7.826-10.031
			c1.351,4.497,4.629,9.736,8.271,12.703c1.739,1.416,3.779,2.894,5.761,3.936c5.506,2.894,6.435,6.28,7.886,12.958
			C307.172,185.878,306.883,180.741,302.188,177.68z"/>
		<path fill="#FFEAC2" d="M251.683,109.465c4.241,17.981-6.029,33.719-17.316,49.983c-3.846,5.543-8.057,11.903-11.327,17.516
			c-10.124,17.379-15.844,38.086-15.78,59.376c2.367-24.074,8.084-40.952,17.477-57.339c3.183-5.555,7.56-12.577,11.628-18.01
			C246.6,147.32,259.044,125.799,251.683,109.465z"/>
		<path fill="#FFEAC2" d="M170.515,192.632c0,0,16.353,4.012,20.721,11.935C188.24,192.624,170.515,192.632,170.515,192.632z"/>
		<path fill="#FFEAC2" d="M52.509,125.553c0,0,26.337-8.399,33.274-18.38c9.638-13.869,8.458-30.309,8.458-30.309
			s3.322,17.721-6.87,30.805C77.997,119.704,52.509,125.553,52.509,125.553z"/>
		<path fill="#FFEAC2" d="M114.5,112.763c0,0,10.41-16.537,22.918-20.399C122.14,92.249,114.5,112.763,114.5,112.763z"/>
		<path fill="#BCA176" d="M143.522,156.921c3.957,3.866,15.82,7.19,28.197-7.832c-6.255,1.85-13.005,2.13-19.322,0.368
			c-12.823-3.578-21.729-17.03-21.729-17.03S135.501,149.085,143.522,156.921z"/>
		<path fill="#BCA176" d="M65.28,101.711c0,0,0.966,8.785,8.493,12.036l-11.278,6.393C62.495,120.139,62.108,109.596,65.28,101.711z
			"/>
		<path fill="#FFEAC2" d="M141.815,132.093c0,0,12.15,13.215,29.174,5.713C153.151,142.909,141.815,132.093,141.815,132.093z"/>
		<path fill="#FFEAC2" d="M70.715,96.182c0,0,2.552,8.592,10.086,11.322C71.84,106.242,70.715,96.182,70.715,96.182z"/>
		<path fill="#FFEAC2" d="M153.351,85.295c0,0,8.424-3.151,14.773-0.876c6.35,2.276,11.08,15.881,11.08,15.881
			s-5.612-11.543-11.825-13.868S153.351,85.295,153.351,85.295z"/>
		<path fill="#FFEAC2" d="M84.247,62.299c0,0,4.393-4.559,9.942-4.446c5.55,0.112,10.153,5.223,10.153,5.223
			s-4.542-3.371-10.222-3.585C88.44,59.277,84.247,62.299,84.247,62.299z"/>
		<path fill="#FFEAC2" d="M110.559,53.171c0,0,13.63-6.614,23.779-7.377c12.198-0.917,26.256,4.151,26.256,4.151
			s-13.923-3.612-26.418-2.425C123.285,48.556,110.559,53.171,110.559,53.171z"/>
		<path fill="#FFEAC2" d="M156.821,53.531c0,0,17.197-0.196,26.537,1.968c9.338,2.165,18.007,6.311,25.661,12.457
			c10.507,8.437,23.711,23.216,23.711,23.216s-19.181-17.279-24.921-21.212c-5.738-3.934-15.16-9.908-25.367-12.576
			C173.083,54.936,156.821,53.531,156.821,53.531z"/>
		<path fill="#57222B" d="M148.62,260.309l-11.395-8.359c0,0-16.156,8.26-24.954,11.64c-8.797,3.379-19.004,2.725-29.727,2.126
			c-10.723-0.597-18.804-11.681-18.804-11.681s-4.963,10.434-7.504,14.613c-2.541,4.178-9.894,14.376-12.31,17.959
			s-4.473,5.907-0.55,12.638c3.922,6.731,13.925,11.896,26.531,13.6c12.607,1.704,24.105-7.278,39.41-17.114
			C124.624,285.897,148.62,260.309,148.62,260.309z"/>
		<path fill="#D494A2" d="M136.415,247.584c0,0,11.89,2.452,15.019,9.112l-3.349,3.688c0,0-8.111,2.575-14.968,5.563
			c-6.858,2.988-10.055,4.969-15.395,8.866c-5.339,3.898-11.045,10.015-14.155,14.758c-3.109,4.743-5.386,8.6-9.708,11.776
			c-4.323,3.176-8.377,6.255-10.378,7.473c-1.999,1.217-21.616-2.92-27.084-8.583c-5.466-5.663-3.866-10.236-2.482-12.933
			c1.384-2.698,5.437-6.822,6.998-10.772s5.232-16.356,7.192-19.315c0,0,5.423,4.599,12.748,5.833
			c7.326,1.234,16.908,1.128,26.242-1.399C116.428,259.126,128.581,252.484,136.415,247.584z"/>
		<path fill="#A3727D" d="M138.4,246.171c-12.653,9.566-21.972,12.955-31.306,15.481c-9.334,2.527-19.18,2.59-26.506,1.355
			s-12.496-5.355-12.496-5.355c-0.812,1.227-2.405,5.223-3.413,8.041c4.959-0.901,11.438,2.058,15.023,4.428
			c2.556,1.688,2.566,2.219,5.681,3.006c4.344,1.098,8.102,3.058,11.64,5.84c6.38,5.019,4.474,9.064,0.01,14.821
			c-5.319,6.858-11.283,10.944-17.913,14.994c2.232,0.312,3.857,0.347,4.36,0.04c2.001-1.217,6.055-4.297,10.378-7.473
			c4.322-3.176,6.599-7.033,9.708-11.776c3.109-4.744,10.342-12.03,15.681-15.927c5.34-3.898,13.245-7.503,20.104-10.491
			c6.858-2.988,8.733-2.771,8.733-2.771l3.349-3.688C148.305,250.036,138.4,246.171,138.4,246.171z"/>
		<path fill="#FFEAC2" d="M160.838,243.974c-4.132,6.28-9.886,14.268-16.383,21.094c-5.662,5.945-21.716,20.81-35.5,31.233
			c-9.813,7.423-19.021,11.942-20.04,12.326c-2.448,0.922-10.809,4.219-15.515,4.795c-4.706,0.575-10.11-1.1-14.814-2.63
			c-4.704-1.531-11.462-7.653-15.209-11.546c-1.899-1.973-2.551-8.043-2.469-9.865c-2.754,4.598-1.293,8.564,1.245,12.057
			c5.418,7.453,17.151,14.887,27.325,14.707c15.43-0.272,29.094-9.49,38.908-16.912c13.784-10.424,30.303-25.062,35.964-31.007
			c7.103-7.461,23.033-27.941,29.317-42.31C173.489,225.506,161.011,244.389,160.838,243.974z"/>
		<path fill="#BCA176" d="M56.062,268.643c3.925-5.968,7.887-14.37,7.887-14.37l-5.275-4.542c-0.754,3.08-3.384,9.279-5.514,13.656
			C54.563,264.511,55.477,266.575,56.062,268.643z"/>
		<path fill="#BCA176" d="M238.489,151.072c12.213-18.292,15.918-37.297,10.495-43.661c-5.028-5.899-21.535-3.902-24.167-2.144
			c-2.631,1.758,4.072,8.869,1.599,26.025c-0.995,6.9-4.339,17.397-7.493,23.547c-4.971,9.691-19.63,28.999-23.128,50.652
			c-1.444-3.273-3.617-6.07-6.804-8.287c7.647,13.06,3.361,16.986,0.814,19.72c-0.993-4.827-2.42-8.16-5.554-11.451
			c-9.028-9.479-29.141,4.508-29.141,4.508s11.649-2.761,17.112,0.389c-17.79,15.626-38.019,35.3-59.871,42.454
			c-19.496,6.381-36.404,4.17-51.057-8.768c-9.424-8.32-14.078-19.516-22.786-28.488c-4.226-4.355-10.562-10.075-9.228-16.938
			c1.213-6.242,6.313-6.783,11.444-8.512c9.926-3.345,20.494-10.765,26.34-20.23c-3.395,3.28-7.26,6.262-10.994,8.688
			c-9.02,5.86-18.381,9.359-25.042,9.359c-1.222,0-2.562,0.277-3.882-0.048c0,0-2.28,13.988-0.578,19.089
			c0.925,2.784,2.933,4.091,5.749,6.653c3.233,2.938,7.081,6.714,11.318,13.515c8.337,13.377,23.516,28.829,35.61,32.811
			c9.874,3.251,23.388,0.994,37.236-3.732c13.484-4.603,40.062-25.976,57.515-42.802c2.297-2.365,6.014-4.369,6.014-4.369
			s-1.099,6.153-1.141,6.23c2.68,1.587,8.096,6.777,11.154,22.396c1.578,8.06-1.103,13.982-4.374,18.342
			c-5.923,7.896-12.511,10.006-19.754,12.613c-19.731,7.101-38.374,21.354-58.587,36.26c-8.685,6.405-24.807,15.213-35.906,15.749
			c-10.463,0.505-24.922-7.158-31.418-14.439c-3.961-4.441-5.195-8.621-2.093-16.593c0,0-2.958,3.868-3.525,8.022
			c-0.632,4.627,1.481,8.615,6.166,13.291c4.373,4.364,15.584,11.23,26.419,12.73c6.318,0.875,12.412-0.053,21.674-4.833
			c6.711-3.464,13.877-8.075,19.647-12.015c0.763-0.521,35.137-25.725,52.883-30.398c16.012-4.218,25.918-8.015,38.465-16.704
			c-0.892-5.506-2.153-21.902-2.13-28.459c0.252-2.303,1.001-16.896,4.744-28.605c3.741-11.71,5.086-17.331,9.465-25.385
			c1.767-3.25,4.91-7.576,8.551-12.585c8.699-11.971,21.848-30.061,24.6-47.099l0.404-3.357c0.081-1.021,0.142-2.837-0.391-5.596
			c2.633,4.076,3.457,9.603,1.534,16.572c-6.315,22.892-26.705,45.011-31.537,53.823c-8.268,15.079-13.256,33.439-13.831,51.117
			c-0.733,22.611,2.282,39.314,9.38,47.612c1.915,2.238,5.346,5.515,10.244,1.039c-5.541,1.694-9.133-2.931-11.533-7.954
			c-6.818-14.272-2.867-53.711-0.802-62.348C213.586,186.45,226.21,169.462,238.489,151.072z"/>
		<path fill="#FFFFFF" d="M64.727,300.756l-0.192-0.167c-1.135-0.999-2.395-1.902-3.543-2.543c-0.44-0.246-0.876-0.458-1.294-0.629
			c-0.277-0.11-0.595-0.1-0.875,0.029c-0.278,0.13-0.492,0.368-0.583,0.649c-1.076,3.247-0.679,7.854,0.743,8.648l0.136,0.065
			c1.775,0.689,4.159-0.718,5.035-1.509l0.151-0.137l0.002-0.204c0.021-1.603,0.258-3.146,0.383-3.952L64.727,300.756z"/>
		<path fill="#FFFFFF" d="M46.833,296.617c0.066,1.207,1.082,1.779,1.854,1.978c0.968,0.25,1.964,0.118,2.945,0.041l0.031-0.162
			c0.353-1.914,1.146-4,1.75-5.413l0.102-0.24l-0.151-0.212c-0.999-1.409-1.956-2.356-2.999-2.939
			c-0.002-0.001-0.004-0.003-0.004-0.003c-0.478-0.256-1.102-0.076-1.361,0.396C47.951,291.968,46.953,295.126,46.833,296.617z"/>
		<path fill="#57222B" d="M75.088,311.229c-1.17-0.921-2.116-2.479-2.411-3.975l-0.206-1.039l-0.625,0.855
			c-0.873,1.189-3.158,3.864-5.551,2.991c-0.109-0.041-0.217-0.09-0.318-0.146c-0.877-0.49-1.415-1.615-1.599-3.345l-0.083-0.788
			l-0.649,0.458c-1.096,0.775-2.785,1.551-4.608,0.842c-0.088-0.034-0.17-0.074-0.25-0.118c-0.931-0.52-1.425-1.806-1.47-3.822
			l-0.016-0.676l-0.626,0.254c-1.04,0.423-2.575,0.761-3.985-0.026c-0.14-0.078-0.28-0.165-0.418-0.268
			c-0.679-0.499-0.922-1.574-0.724-3.197l0.045-0.374c-1.381,0.105-2.768,0.237-4.042-0.436c-1.017-0.536-1.023-2.095-0.687-3.527
			l0.187-0.758l-0.756,0.198c-0.9,0.237-1.673,0.185-2.466-0.258l-0.035-0.019c-0.556-0.378-0.879-0.967-0.931-1.702l-0.925-0.025
			c-0.24,1.869-0.798,6.242,11.478,14.843c0.847,0.59,1.713,1.133,2.593,1.625c5.707,3.187,12.127,4.335,19.08,3.411l0.932-0.294
			L75.088,311.229z"/>
		<path fill="#FFFFFF" d="M66.28,309.601l0.152,0.077c0.658,0.294,1.416,0.257,2.194-0.107c1.582-0.744,3.114-2.803,3.727-5.009
			c0.128-0.467-0.081-0.96-0.533-1.213c-1.912-1.003-4.092-1.715-5.832-1.908c-0.598-0.064-1.173,0.388-1.255,0.99
			C64.246,306.107,64.823,308.788,66.28,309.601z"/>
		<path fill="#FFFFFF" d="M58.266,296.591l-0.147-0.184c-0.999-1.24-2.187-2.278-3.344-2.924l-0.282-0.152
			c-0.229-0.116-0.492-0.132-0.74-0.042c-0.268,0.096-0.486,0.3-0.6,0.556c-0.495,1.105-2.846,6.713-0.498,8.493
			c0.114,0.084,0.231,0.16,0.349,0.229c1.387,0.774,3.118,0.307,4.027-0.042l0.283-0.107l0.014-0.305
			c0.105-2.144,0.609-4.264,0.878-5.295L58.266,296.591z"/>
		<path fill="#FFFFFF" d="M44.48,293.825c0.615,0.343,1.415,0.417,2.379,0.225l0.261-0.053l0.087-0.25
			c0.548-1.564,1.403-3.183,2.064-4.391c0.066-0.062,0.305-0.129,0.397-0.111c0.281,0.065,0.573,0.182,0.867,0.345
			c0.46,0.257,0.937,0.633,1.459,1.148l0.787,0.781l0.005-1.109c0.001-0.085,0.022-8.667-1.827-9.7l-0.198-0.088l-0.065-0.013
			c-0.418-0.095-1.094,0.042-2.644,1.951c-2.113,2.605-5.436,8.242-4.538,10.199C43.733,293.23,44.058,293.589,44.48,293.825z"/>
		<path fill="#FFFFFF" d="M83.754,274.157c-2.759,3.115-3.243,6.279-5.804,10.61C80.636,281.144,81.627,277.967,83.754,274.157z"/>
		<path fill="#FFFFFF" d="M77.172,311.878c3.387-0.324,5.634-1.987,6.01-4.452c0.527-3.456-0.591-10.541-2.669-11.701
			c-0.113-0.063-0.229-0.112-0.346-0.141c-0.421-0.108-0.898,0.042-1.421,0.448c-2.294,1.779-5.618,8.504-5.619,10.264
			c0.005,1.403,1.354,3.945,2.632,4.947c0.142,0.111,0.305,0.225,0.486,0.326C76.512,311.718,76.778,311.819,77.172,311.878z"/>
		<path fill="#B7BDC2" d="M47.687,297.117c-0.128-0.313-0.168-1.057-0.167-1.38c0.248,0.725,0.661,1.621,1.596,1.416
			c2.082-0.457,3.222-2.921,3.795-4.834c0.075,0.096,0.146,0.177,0.222,0.277l0.123,0.166l-0.068,0.195
			c-0.488,1.399-1.111,4.675-1.78,5.537C49.884,298.53,48.228,298.44,47.687,297.117z"/>
		<path fill="#B7BDC2" d="M66.946,307.774l0.125,0.062c0.553,0.246,1.184,0.188,1.827-0.166c1.188-0.658,2.407-2.257,3.063-3.33
			c-0.456,2.013-1.689,3.924-3,4.649c-0.643,0.354-1.272,0.412-1.826,0.166l-0.125-0.062c-0.984-0.549-1.517-2.224-1.526-4.593
			C65.656,306.167,66.156,307.333,66.946,307.774z"/>
		<path fill="#B7BDC2" d="M77.904,309.471c1.114-0.212,3.282-2.428,3.414-5.665c0.038-0.943-0.201-4.345-0.88-6.876
			c1.868,2.842,1.924,7.342,1.987,7.99c0.115,1.167-0.064,3.832-0.752,4.844c-0.788,1.157-1.166,0.999-2.232,1.372
			c-1.413,0.494-3.929-1.742-4.277-2.22C75.261,308.985,76.346,309.768,77.904,309.471z"/>
		<path fill="#B7BDC2" d="M54.868,300.933c1.36-0.679,2.313-3.569,2.673-4.609c0.078-0.265,0.329-0.066,0.394,0.011l0.118,0.143
			l-0.08,0.407c-0.123,0.649-0.525,2.945-0.493,5.233l-0.388,0.006c-0.865,0.357-2.264,0.445-3.392-0.225
			c-0.977-0.58-1.207-1.899-1.164-3.279C52.704,300.036,53.341,301.696,54.868,300.933z"/>
		<path fill="#B7BDC2" d="M63.76,300.6l0.583,0.317c-0.028,0.694-0.088,2.137,0.071,3.649l0.017,0.159l-0.579,0.458
			c-2.97,1.896-4.703,1.522-5.369-1.83c0.823,2.23,2.477,2.229,3.356,1.331C63.11,303.383,63.744,300.989,63.76,300.6z"/>
		<path fill="#B7BDC2" d="M49.669,289.233c-0.101-0.024-0.363,0.056-0.418,0.113c-0.541,1.151-1.192,2.63-1.646,4.109
			c-0.415,0.042-2.021,0.33-2.887-0.687c-0.443-0.521-0.371-1.449-0.151-2.465c0.384,1.52,1.611,2.277,3.206,0.381
			c1.886-2.241,3.132-5.606,2.624-8.795c1.373,2.22,1.712,8.902,1.712,8.902c-0.559-0.538-1.062-0.929-1.541-1.196
			C50.262,289.424,49.958,289.301,49.669,289.233z"/>
		<path fill="#FFFFFF" d="M73.213,291.546c-0.74,0.406-2.36,2.685-1.66,2.392C72.254,293.645,73.955,291.14,73.213,291.546z"/>
		<path fill="#A3727D" d="M45.681,297.67c0,0,0.753,2.787,4.139,2.239C45.504,301.365,45.681,297.67,45.681,297.67z"/>
		<path fill="#A3727D" d="M42.604,294.068c0,0,0.933,1.62,2.811,1.352C43.187,296.337,42.604,294.068,42.604,294.068z"/>
		<path fill="#A3727D" d="M50.64,301.817c0,0,0.899,2.834,4.018,2.413C51.078,305.965,50.64,301.817,50.64,301.817z"/>
		<path fill="#A3727D" d="M56.962,306.087c0,0,1.218,2.783,4.383,2.14C57.842,310.223,56.962,306.087,56.962,306.087z"/>
		<path fill="#A3727D" d="M64.065,309.216c0,0,1.485,2.651,4.572,1.701C65.346,313.246,64.065,309.216,64.065,309.216z"/>
		<path fill="#A3727D" d="M72.533,309.547c0,0,0.313,1.214,1.779,2.009l-1.104-0.013C73.208,311.543,72.539,310.687,72.533,309.547z
			"/>
		<path fill="#381000" d="M182.414,107.893c-0.207-0.652-1.28-4.339-1.631-5.477c-2.088-6.775-5.792-16.723-12.065-18.976
			c-8.246-2.963-19.434,2.736-19.434,2.736c0.438-0.335,10.804-8.211,20.189-4.841c7.275,2.613,11.166,12.985,13.436,20.377
			c0.35,1.143,1.433,4.866,1.637,5.503c1.679,5.29,4.219,9.971,4.244,10.018C188.788,117.233,184.158,113.385,182.414,107.893z"/>
		<path fill="#381000" d="M27.085,180.31c-0.632-10.832,1.085-21.835,4.964-31.823C29.39,158.258,27.737,168.866,27.085,180.31z"/>
		<path fill="#381000" d="M162.713,141.5c-6.742-0.156-13.533-2.317-19.125-6.083C148.839,139.985,155.073,142.331,162.713,141.5z"
			/>
		<path fill="#381000" d="M77.292,108.253c-3.059-2.299-5.606-5.311-7.368-8.707C71.101,103.57,73.506,106.517,77.292,108.253z"/>
		<path fill="#381000" d="M141.136,130.432c1.877,1.953,7.633,6.184,14.572,7.745c7.35,1.654,18.988-0.35,18.997-6.464
			c0.004-3.027-3.047-22.923-18.923-33.423c1.764,1.684,2.867,3.387,3.667,4.937c-13.34,2.11-19.106,15.92-20.758,18.249
			c-1.653,2.328-4.624,1.897-4.512,4.698C134.284,128.854,139.259,128.479,141.136,130.432z M160.236,105.48
			c6.285,1.483,16.1,25.807,9.123,29.285c-11.809,5.888-28.724-3.832-28.418-10.126C141.397,115.242,153.646,103.924,160.236,105.48
			z"/>
		<path fill="#381000" d="M46.482,171.492c1.02-1.685,2.834-3.406,3.501-6.009c0.954-3.723-1.002-6.648-3.501-7.895
			c-4.653-2.32-9.513,0.856-9.576,5.925c-0.034,2.75,0.143,6.04,4.938,10.673c4.796,4.633,12.23,4.741,12.23,4.741l3.987-2.748
			C50.633,180.397,44.928,174.062,46.482,171.492z"/>
		<path fill="#381000" d="M13.656,166.458c0,0,3.475-0.027,2.748-2.789c-1.573-5.975-3.19-13.668,1.464-12.807
			c3.948,0.731,5.505,8.213,3.974,13.384c-1.212,4.096-5.031,4.102-7.446,3.625C11.98,167.394,13.656,166.458,13.656,166.458z"/>
		<path fill="#381000" d="M94.55,264.809c0,0-9.242,4-12.858,11.08c-3.616,7.079-6.084,13.81-13.296,19.223
			c8.25-8.635,8.643-12.904,12.116-19.801c3.471-6.896,12.182-10.783,12.182-10.783L94.55,264.809z"/>
		<path fill="#381000" d="M235.853,264.485c2.784-3.627,5.386-6.774,7.187-8.008c8.311-5.271,17.734-9.069,26.047-12.42
			c7.367-2.969,14.327-5.773,19.252-9.105c9.873-6.678,17.253-17.302,20.783-29.912c3.173-11.328,4.117-19.255-0.442-26.255
			c-1.038-1.592-2.854-2.738-5.369-4.324c-2.154-1.359-4.838-3.05-8.068-5.649c-5.809-4.671-13.283-19.079-15.239-22.973
			c-1.036-4.366-1.928-8.809-2.769-13.064c-1.784-9.028-3.325-16.824-5.834-21.584c-5.873-11.144-13.801-14.213-20.78-15.747
			c-2.2-0.482-6.724-0.997-11.704-1.463c-1.937-2.458-13.688-17.152-25.453-27.001c-15.022-12.576-30.384-15.208-34.735-15.715
			c-2.886-0.336-5.869-0.556-8.504-0.701c-3.756-1.704-15.916-6.927-25.802-7.863c-3.405-0.324-6.489-0.338-9.336-0.167
			c-2.065-1.485-6.319-4.406-8.185-5.028c-2.54-0.847-6.7-1.573-13.533,1.884c-5.465,2.765-14.87,5.126-27.952,7.024
			c-2.769,0.4-5.641,0.646-8.42,0.883c-7.766,0.663-15.795,1.35-22.796,5.481c-9.855,5.817-19.013,25.509-20.408,32.616
			c-1.561,7.949-1.842,15.782-2.115,23.358c-0.262,7.328-0.866,14.696-2.381,20.373c-6.286,2.726-13.164,6.873-16.112,11.746
			c-1.851,3.06-2.581,8.836-2.277,15.243c-2.13,4.365-9.475,19.844-10.7,28.169c-1.435,9.797,5.035,35.794,6.433,39.163
			c0.276,0.668,0.792,1.104,1.449,1.227c0.124,0.023,0.251,0.035,0.38,0.035c2.08-0.001,4.995-2.936,9.774-7.93
			c2.389-2.499,4.845-5.061,6.48-6.209c1.232,2.057,3.052,3.715,5.212,5.679c3.152,2.866,7.073,6.429,11.181,13.022
			c1.731,2.778,12.443,16.411,17.746,21.458c5.304,5.048,15.296,14.783,30.945,14.766c11.582-0.013,23.423-4.094,28.116-5.719
			c5.113-1.768,12.048-5.974,19.609-11.489c0.644-0.469,9.568-7.387,10.716-8.332c11.42-9.393,23.012-20.465,31.169-29.833
			c-7.404,17.821-25.713,42.997-27.8,45.396c-4.511-7.201-12.292-9.598-12.292-9.598l-1.755,0.937c0,0,9.906,3.964,12.672,10.219
			c-0.618,0.684-2.011,2.178-2.011,2.178c-7.31,2.41-17.245,6.408-22.834,9.403c-9.111,4.881-20.099,15.632-23.693,22.303
			c-3.818,7.083-16.95,16.102-17.608,16.243c0.059-1.33-0.287-4.214-0.545-5.714c-0.56-3.262-1.498-6.318-3.219-6.735
			c-1.061-0.256-2.129,0.248-3.175,1.497c-1.161,1.386-2.968,4.079-4.076,6.583c-2.447-1.159-4.923-2.021-7.433-2.548
			c-0.088-0.083-0.184-0.171-0.293-0.265c-1.297-1.117-4.482-2.898-6.188-3.821c-1.698-1.81-3.362-3.313-4.918-3.855
			c-0.891-2.781,1.088-6.249,2.973-8.711c1.345-1.757,3.919-4.893,5.382-8.784c0.254-0.675,0.562-1.649,0.933-2.822
			c0.841-2.656,3.609-10.056,5.266-13.626c-0.546-0.36-1.068-0.742-1.567-1.148c-1.826,3.819-4.691,11.499-5.583,14.323
			c-0.36,1.133-0.655,2.073-0.901,2.725c-1.344,3.576-3.731,6.48-5.043,8.204c-1.045,1.371-1.708,2.531-2.186,3.534
			c-0.274-2.62-0.912-5.458-2.378-6.071c-0.445-0.187-1.185-0.265-2.175,0.424c-0.067,0.047-0.139,0.113-0.208,0.167
			c3.395-3.862,11.539-16.373,15.632-25.472c-0.44-0.489-0.869-0.99-1.282-1.507c-4.924,11.562-17.115,27.745-19.867,31.888
			c-0.925,1.391-1.641,2.468-2.111,3.198c-2.406,3.73-0.883,11.122,11.327,19.679c0.902,0.632,1.828,1.213,2.77,1.739
			c8.964,5.007,19.692,5.298,30.872,0.555c3.074-1.304,9.943-4.365,16.803-9.073c16.631-11.415,34.633-27.513,43.363-36.683
			c5.969-6.269,13.207-16.942,18.162-24.605c6.161-8.707,11.996-18.473,17.146-29.459c4.773,5.039,7.431,12.533,7.431,12.533
			c-0.114-0.818-1.451-12.331-8.397-16.604c-6.935-4.267-20.484,1.255-21.01,1.426c0,0,12.263-3.048,18.656-0.146
			c-16.061,18.654-46.337,44.542-61.061,49.633c-6.128,2.12-24.783,8.566-38.197,4.005c-11.961-4.069-27.688-20.269-35.984-33.58
			c-4.271-6.855-8.322-10.536-11.575-13.493c-2.755-2.506-4.748-4.315-5.639-6.992c-1.658-4.968,0.58-16.208,1.347-19.713
			c1.224,0.301,2.505,0.495,3.882,0.495c7.82,0,17.717-4.515,25.287-9.432c9.822-6.38,20.58-16.586,21.324-26.099
			c0.372-4.726-1.469-9.24-5.474-13.416c-6.406-6.684-17.336-11.214-25.033-12.964c4.545-1.35,12.662-3.901,17.625-6.291
			c6.388-3.075,17.583-8.979,20.798-13.994c4.449-6.935,7.4-14.638,7.902-23.075c0.403-6.799-2.057-13.356-2.057-13.356
			c0.113,1.199,0.157,2.403,0.201,3.606c-1.812-1.072-7.619,0.922-13.009,6.464c-6.253,6.43-7.552,11.866-6.98,16.313
			c0.593,4.623,6.081,9.852,10.02,11.123c-3.314,3.076-9.536,6.905-17.844,10.903c-3.241,1.561-8.565,3.396-13.294,4.903
			c0.402-5.624,1.41-16.453,5.708-21.2c2.031-2.241,4.542-4.387,6.755-6.279c2.401-2.054,4.475-3.826,5.704-5.452
			c4.218-5.583,6.859-11.639,9.916-18.648c0.925-2.123,1.888-4.33,2.94-6.631c2.954-6.441,10.459-8.616,16.022-6.999
			c5.702,1.66,11.645,9.85,11.645,9.85c-0.166-0.391-3.943-9.19-10.152-11.677c4.038-1.519,14.524-5.475,19.554-7.469
			c5.75-2.279,13.865-4.75,25.627-3.639c7.241,0.686,15.763,3.917,20.482,5.83c-2.04,0.862-6.823,1.67-6.823,1.67
			c0.084,0,12.78,0.149,20.601,1.061c4.192,0.489,19.011,3.031,33.555,15.208c10.836,9.071,21.059,21.551,23.818,25.011
			c-8.298-0.725-16.804-1.279-17.412-1.319c0,0,25.64,3.91,31.707,5.242c6.804,1.495,13.853,4.298,19.283,14.604
			c2.358,4.472,3.94,12.489,5.62,20.977c2.513,12.718,5.363,27.133,11.751,36.351c0,0-2.772-7.099-3.914-13.439
			c2.992,5.12,7.091,11.322,10.961,14.433c3.332,2.68,6.073,4.409,8.278,5.798c2.274,1.434,3.917,2.47,4.687,3.653
			c4.097,6.291,3.163,13.722,0.164,24.432c-3.387,12.102-10.448,22.281-19.885,28.664c-4.728,3.198-11.579,5.96-18.833,8.883
			c-8.276,3.336-17.638,7.11-26.023,12.362c-0.135,0.085-0.677,0.445-0.8,0.539c-2.828,2.138-6.731,7.367-10.856,12.889
			c-4.815,6.448-11.408,15.278-14.172,15.278c-2.033,0-4.059-1.027-6.019-3.053c-7.468-7.715-11.82-27.235-11.088-49.73
			c0.572-17.612,5.798-37.111,13.978-52.16c1.709-3.146,4.822-7.429,8.427-12.388c8.155-11.221,19.492-26.783,23.762-42.422
			c2.524-9.246-0.595-14.682-0.595-14.682c0.148,1.831,0.093,3.69-0.055,5.561c-2.103-1.983-4.807-3.549-8.133-4.612
			c-3.471-1.11-7.087-1.56-10.588-1.996c0,0,6.902,1.948,9.985,3.463c4.848,2.382-7.213,41.029-16.186,53.374
			c-3.649,5.022-6.802,9.36-8.581,12.635c-8.338,15.34-13.665,35.212-14.25,53.155c-0.378,11.624,0.54,22.319,2.534,31.16
			c-8.489,6.689-19.751,11.982-26.364,13.488c-5.858,1.335-15.465,3.413-21.127,6.037c-2.048,0.949-5.548,2.946-9.53,5.344
			c-3.523,2.121-21.897,12.977-30.622,19.291c-6.771,4.901-12.288,8.864-20.221,13.314c-3.062,1.718-9.729,5.02-14.674,6.062
			c-14.345,3.023-30.323-5.285-39.127-14.399c-3.413-3.534-7.584-13.326-1.759-19.946c1.824-2.072,17.874-23.858,23.348-39.891
			c-0.417-0.604-0.836-1.21-1.257-1.821c-5.99,19.005-21.845,38.581-23.569,40.539c-6.117,6.952-2.846,17.687,1.753,22.451
			c3.404,3.523,7.699,6.869,12.507,9.554c8.552,4.775,18.744,7.523,28.429,5.361c5.484-1.224,10.79-3.795,14.401-5.803
			c7.484-4.162,14.037-8.818,20.977-13.589c8.833-6.072,30.235-18.743,30.998-19.2c3.845-2.311,7.183-4.216,9.039-5.082
			c4.507-2.102,12.992-4.232,20.931-6.042c6.759-1.54,17.469-6.521,26.445-13.32c2.023,7.853,4.939,14.064,8.604,17.851
			c2.4,2.478,4.965,3.734,7.626,3.734c3.622,0,8.446-6.111,15.963-16.176c0.592-0.794,1.187-1.588,1.78-2.377L235.853,264.485z
			 M65.193,302.489c0.045-0.343,0.392-0.625,0.744-0.586c1.808,0.198,3.976,0.972,5.666,1.857c0.243,0.127,0.374,0.411,0.3,0.677
			c-0.822,2.969-3.403,5.657-5.281,4.813C65.418,308.71,64.672,306.423,65.193,302.489z M58.679,298.241
			c0.112-0.338,0.516-0.526,0.844-0.393c1.511,0.614,3.282,1.838,4.705,3.091c-0.116,0.751-0.368,2.332-0.388,4.016
			c-0.76,0.683-3.003,2.023-4.554,1.42C58.133,305.926,57.59,301.531,58.679,298.241z M53.577,294.035
			c0.122-0.271,0.445-0.419,0.706-0.288c1.246,0.632,2.476,1.713,3.473,2.951l-0.059,0.221c-0.195,0.745-0.727,2.948-0.834,5.17
			c-0.912,0.349-2.673,0.824-3.928-0.124C51.236,300.68,52.484,296.475,53.577,294.035z M51.205,298.391
			c-0.95,0.133-2.55,0.235-3.429-0.423c-1.237-0.926-0.062-4.599,1.631-7.679c0.133-0.243,0.473-0.351,0.732-0.211
			c1.026,0.551,1.96,1.556,2.847,2.802C52.419,294.205,51.578,296.372,51.205,298.391z M50.594,281.063
			c1.331,0.301,1.741,6.478,1.729,9.345c-0.822-0.812-1.657-1.41-2.548-1.619c-0.266-0.063-0.768,0.092-0.89,0.314
			c-0.681,1.233-1.552,2.88-2.117,4.488c-0.772,0.155-2.221,0.29-2.829-1.028C42.9,290.306,49.135,280.733,50.594,281.063z
			 M53.683,306.791c-11.948-8.373-11.522-12.548-11.285-14.402c0.065,0.882,0.457,1.592,1.133,2.052
			c0.07,0.048,0.142,0.092,0.216,0.134c0.94,0.524,1.974,0.391,2.665,0.21c-0.397,1.624-0.334,3.084,0.757,3.863
			c1.214,0.867,2.693,0.692,3.915,0.527c-0.189,1.565-0.015,2.946,0.91,3.626c0.155,0.113,0.311,0.213,0.468,0.301
			c1.568,0.875,3.237,0.52,4.391,0.05c0.04,1.833,0.458,3.521,1.708,4.219c0.099,0.055,0.203,0.104,0.313,0.147
			c1.995,0.774,3.816-0.034,5.038-0.898c0.169,1.593,0.668,3.048,1.836,3.701c0.123,0.069,0.252,0.129,0.388,0.178
			c2.354,0.86,4.626-1.161,6.083-3.154c0.311,1.568,1.297,3.239,2.58,4.25c0.074,0.058,0.15,0.098,0.225,0.151
			C67.198,312.786,59.918,311.15,53.683,306.791z M82.723,307.356c-0.318,2.079-2.176,3.734-5.593,4.06
			c-0.416-0.085-0.803-0.319-1.086-0.539c-1.131-0.891-2.448-3.316-2.45-4.583c-0.002-1.91,4.564-10.747,6.459-10.258
			C81.946,296.525,83.284,303.686,82.723,307.356z M102.072,299.509c-1.288,0.842-8.205,6.471-18.136,9.957
			c2.144-0.802,15.459-10.196,19.51-17.716c3.396-6.3,14.102-16.773,22.835-21.453c5.687-3.046,13.053-6.139,19.534-8.553
			C136.314,271.399,116.958,289.787,102.072,299.509z M73.283,94.16c-0.428-9.017,8.606-18.971,16.311-19.287
			c0.936-0.039,1.599,0.16,2.053,0.374c0.051,10.789-2.687,21.493-7.974,29.735c-0.216,0.337-0.521,0.699-0.84,1.065
			C80.369,105.025,73.633,101.566,73.283,94.16z M23.658,208.232c-1.894,1.516-4.653,4.513-7.032,7
			c-2.484,2.596-6.568,6.866-7.979,7.218c-1.429-3.721-7.564-28.731-6.226-37.842c1.043-7.103,6.408-18.95,8.852-24.086
			c0.511,4.343,1.461,8.757,2.854,12.652c2.566,7.181,6.322,11.972,10.884,14.003C24.25,190.58,21.812,202.537,23.658,208.232z
			 M70.552,140.984c3.542,3.696,5.176,7.63,4.859,11.694c-0.562,7.169-8.536,16.747-20.315,24.398
			c-11.178,7.261-22.339,10.557-28.417,8.405c-5.468-1.938-8.7-8.171-10.448-13.061c-4.083-11.422-3.962-25.717-1.135-30.393
			c4.688-7.743,21.63-13.975,25.749-14.122C46.67,127.686,62.42,132.501,70.552,140.984z M117.76,46.486
			c-5.304,2.102-19.009,7.175-23.146,8.703c-5.808-0.266-12.275,2.509-15.128,8.74c-1.062,2.314-2.029,4.533-2.961,6.667
			c-3,6.88-5.59,12.823-9.649,18.196c-1.083,1.431-3.167,3.212-5.373,5.1c-2.266,1.936-4.833,4.13-6.96,6.478
			c-4.474,4.942-5.723,14.581-6.341,23.421c-2.712,0.84-5.007,1.513-6.332,1.895c-0.392-0.018-0.769-0.026-1.104-0.013
			c-1.642,0.058-4.887,0.891-8.621,2.304c1.277-5.613,1.517-12.207,1.766-19.144c0.269-7.489,0.545-15.232,2.071-23.008
			c1.5-7.628,10.7-26.015,19.351-31.121c6.565-3.874,13.989-4.508,21.851-5.18c2.812-0.24,5.717-0.489,8.549-0.899
			c13.325-1.931,22.961-4.368,28.641-7.24c6.019-3.048,9.48-2.538,11.817-1.76c1.169,0.391,3.389,1.952,5.121,3.264
			C125.753,43.617,121.309,45.079,117.76,46.486z"/>
		<path fill="#381000" d="M137.57,246.856c0,0,18.201-13.682,24.678-20.286s17.541-18.34,17.541-18.34l1.085,0.589
			c0,0-5.292,11.693-9.96,19.728c-4.669,8.034-16.11,24.312-19.307,28.561C151.607,257.107,145.815,246.971,137.57,246.856z"/>
		<path fill="#381000" d="M187.034,196.548c-6.65-4.555-15.866-4.792-15.866-4.792s9.346-0.69,16.735,3.922
			c4.473,2.792,7.543,12.227,7.543,12.227S191.814,199.822,187.034,196.548z"/>
	</g>
	<g>
		<g>
			<g>
				<path fill="#261954" d="M94.695,130.108c-11.991-3.998-46.966-3.998-46.966-3.998s-19.653-5.328-3.664-44.633
					c15.988-39.306,40.543-33.169,40.543-33.169s158.646,46.494,158.646,59.15c0,12.656,7.993,7.66,4.663,20.651
					c-3.331,12.99-19.986,24.648-19.986,24.648s-13.323,14.991-36.306,13.658c-22.984-1.333-48.298-10.448-48.298-10.448
					S106.687,134.104,94.695,130.108z M222.935,101.628C215.94,87.139,114.014,54.163,84.036,57.161
					c-12.191-1.999-28.979,20.984-28.979,20.984s-14.206,39.149,5.779,35.152c19.986-3.997,32.243-0.031,56.843,7.482
					c22.984,9.993,27.313,22.318,46.299,25.316c18.986,2.998,44.968,7.994,58.958-20.985
					C222.935,125.111,229.93,116.118,222.935,101.628z"/>
				<path fill="#FB867A" stroke="#050F28" stroke-width="1.9985" stroke-miterlimit="10" d="M235.26,131.107
					c-25.648,28.313-44.363,26.434-66.798,22.891c-22.436-3.542-34.949-16.744-62.108-28.553c-29.07-8.878-30.178-8.72-53.795-3.997
					c-23.617,4.725-2.831-46.966-2.831-46.966s18.895-28.405,33.301-26.043c35.425-3.542,149.644,27.357,155.101,53.014
					C238.923,108.79,243.526,120.478,235.26,131.107z M222.935,101.628C215.94,87.139,114.014,54.163,84.036,57.161
					c-12.191-1.999-28.979,20.984-28.979,20.984s-14.206,39.149,5.779,35.152c19.986-3.997,32.243-0.031,56.843,7.482
					c22.984,9.993,27.313,22.318,46.299,25.316c18.986,2.998,44.968,7.994,58.958-20.985
					C222.935,125.111,229.93,116.118,222.935,101.628z"/>
			</g>
			<polygon fill="#261954" points="202.594,163.844 218.228,175.678 228,162.998 218.528,158.28 			"/>
		</g>
		<path opacity="0.3" fill="#FFFFFF" d="M222.935,101.628C215.94,87.139,114.014,54.163,84.036,57.161
			c-12.191-1.999-28.979,20.984-28.979,20.984s-14.206,39.149,5.779,35.152c19.986-3.997,32.243-0.031,56.843,7.482
			c22.984,9.993,27.313,22.318,46.299,25.316c18.986,2.998,44.968,7.994,58.958-20.985
			C222.935,125.111,229.93,116.118,222.935,101.628z"/>
	</g>
</g>
</svg>
