<?xml version="1.0" encoding="utf-8"?>
<!-- Generator: Adobe Illustrator 16.0.0, SVG Export Plug-In . SVG Version: 6.00 Build 0)  -->
<!DOCTYPE svg PUBLIC "-//W3C//DTD SVG 1.1//EN" "http://www.w3.org/Graphics/SVG/1.1/DTD/svg11.dtd">
<svg version="1.1" id="Capa_1" xmlns="http://www.w3.org/2000/svg" xmlns:xlink="http://www.w3.org/1999/xlink" x="0px" y="0px"
	 width="209.547px" height="209.548px" viewBox="0 0 209.547 209.548" enable-background="new 0 0 209.547 209.548"
	 xml:space="preserve">
<g>
	<circle fill="#09488F" cx="103.897" cy="105.189" r="106.581"/>
	<circle fill="#FA6300" cx="103.898" cy="105.189" r="88.235"/>
	<g>
		<defs>
			<circle id="SVGID_1_" cx="103.898" cy="105.189" r="88.235"/>
		</defs>
		<clipPath id="SVGID_2_">
			<use xlink:href="#SVGID_1_"  overflow="visible"/>
		</clipPath>
		<g clip-path="url(#SVGID_2_)">
			<g>
				<path fill="#C5A771" d="M245.188,283.841l0.008,0.134l0.134,0.01c0.64,0.046,1.294,0.218,1.943,0.507l0.086,0.038l0.072-0.06
					c1.023-0.851,2.213-1.281,3.532-1.281c1.701,0,3.133,0.727,3.562,0.967l-0.023,0.038l0.22,0.204
					c1.018-0.778,2.439-1.225,3.897-1.225c0.387,0,0.766,0.031,1.126,0.094c1.341,0.23,2.347,0.845,2.832,1.729l0.071,0.128
					l0.13-0.064c0.526-0.256,1.457-0.565,2.487-0.663l0.145-0.014l-0.006-0.145c-0.572-14.161-3.989-33.013-5.716-41.004
					c-1.196-5.54-4.606-8.906-7.618-11.879c-2.009-1.984-3.907-3.857-4.925-6.135c-2.988-6.679-7.217-20.547-10.125-39.444
					c-0.387-2.511-0.758-4.957-1.119-7.331l-0.158-1.046c-2.471-16.279-4.421-29.137-6.901-36.771
					c-2.806-8.631-12.13-25.15-21.649-32.438c-6.288-4.815-12.101-7.057-18.291-7.057c-1.528,0-3.075,0.131-4.868,0.413
					c-2.868,0.451-5.388,1.057-8.06,1.699c-3.575,0.859-7.273,1.747-12.455,2.463c-1.584,0.219-3.281,0.331-5.044,0.331
					c-4.908,0-9.578-0.824-13.713-1.555c-2.044-0.36-3.975-0.701-5.6-0.869c-1.342-0.139-3.057-0.21-5.094-0.21
					c-3.989,0-8.226,0.264-10.395,0.421l-0.048,0.293c5.049,2.137,7.671,4.605,10.382,8.742c-1.631-1.967-4.193-4.657-7.369-6.638
					c-3.676-2.292-9.047-3.79-13.316-4.839l-0.283-0.069l0.104,0.272c1.536,4.052,2.769,7.615,3.742,10.823
					c-0.755-1.7-1.794-4.098-2.313-5.579c-1.423-4.068-2.859-7.7-3.909-10.353c-0.544-1.376-0.929-2.427-1.146-3.125l-0.089-0.285
					l-0.788,1.051c-2.465,3.3-4.167,5.463-5.33,5.463c-0.866,0-1.705-0.414-2.494-1.229c-1.202-1.242-2.205-3.326-2.9-6.028
					l-0.057-0.222l-0.184,0.139c-3.23,2.447-6.834,4.034-8.973,4.522c-2.489,0.567-5.554,1.316-7.179,2.074
					c-1.602,0.747-6.214,3.628-8.828,5.341c-3.818,2.5-7.424,4.863-9.11,5.538c-2.56,1.025-5.962,1.417-7.305,1.537l4.472,0.656
					l-4.918,1.982c-0.423,1.09-2.765,0.019-2.765,0.019l0.243,5.29c1.55,7.876,5.081,20.204,6.615,25.427
					c-2.391-6.003-4.62-14.688-6.145-21.31l-0.296-0.008c-1.085,3.803-6.57,23.13-8.05,30.146
					c-1.675,7.931-1.031,19.562,0.525,25.79c0.694,2.778,1.868,6.251,3.117,9.955c1.61,4.77,3.275,9.702,4.193,13.935
					c1.129,5.2,1.183,11.462,1.225,16.518c0.019,2.3,0.036,4.287,0.149,5.84c0.088,1.228,0.42,3.334,0.839,6
					c1.269,8.081,3.392,21.606,2.003,31.599c-0.434,3.123-0.433,5.632-0.43,7.844c0.003,4.991,0.006,8.933-4.516,16.779
					l-0.143,0.247l0.285-0.018c0.115-0.008,0.233-0.011,0.354-0.011c1.427,0,3.22,0.477,4.653,0.952
					c-1.307-0.283-2.886-0.55-4.184-0.55c-0.582,0-1.076,0.054-1.47,0.159c-4.034,1.084-7.707,10.523-7.455,14.186
					c0.212,3.114,2.507,5.467,3.584,6.118c0.799,0.481,1.912,0.726,3.312,0.726c1.652,0,3.296-0.34,4.129-0.542l0.292-0.071
					l-0.23-0.193c-1.507-1.272-2.44-2.978-2.559-4.679c-0.307-4.455,3.349-12.69,6.796-13.642c0.407-0.111,0.856-0.168,1.335-0.168
					c1.669,0,3.458,0.671,4.782,1.309c-1.291-0.439-2.967-0.883-4.487-0.883c-0.559,0-1.067,0.062-1.508,0.184
					c-2.974,0.82-6.779,8.573-6.461,13.168c0.109,1.579,1.024,3.229,2.447,4.407c1.247,1.032,2.732,1.602,4.186,1.602
					c0.214,0,0.425-0.013,0.635-0.038c5.169-0.612,11.201-2.037,11.958-7.676c0.408-3.036,1.972-13.634,4.977-22.503
					c1.374-4.056,1.049-7.655,0.705-11.479c-0.236-2.622-0.479-5.332-0.156-8.282c0.345-3.161,1.384-9.091,2.491-15.415
					c1.352-7.733,2.752-15.729,2.731-18.024c-0.024-2.797-0.577-7.117-0.904-9.442l-0.008-0.06l-0.045-0.037
					c-0.793-0.667-1.583-1.349-2.366-2.033c-3.02-2.642-7.292-8.423-10.421-12.926c3.292,4.363,7.738,9.97,10.723,12.581
					c4.929,4.313,10.112,8.554,14.546,8.899c0.241,0.019,0.493,0.027,0.757,0.027c4.968,0,13.718-3.249,15.421-3.899l0.139-0.054
					l-0.049-0.141c-1.337-3.848-3.465-8.001-4.662-10.216c0.881,1.183,2.107,3.001,3.06,5.071c1.583,3.442,2.602,6.318,3.029,8.551
					c0.249,1.296,0.426,3.388,0.654,6.084c0.298,3.525,0.67,7.915,1.394,13.015l0.195,1.38c1.368,9.593,3.24,22.73,2.546,29.209
					c-0.392,3.667,0.002,6.069,0.382,8.393c0.391,2.389,0.761,4.645,0.288,8.06c-0.443,3.205-1.36,6.194-2.053,8.138l-0.066,0.188
					l0.197,0.017c0.538,0.043,1.087,0.171,1.635,0.38l0.088,0.034l0.069-0.065c1.062-0.98,2.381-1.478,3.918-1.478
					c1.678,0,3.117,0.588,3.659,0.841l0.079,0.036l0.073-0.049c1.037-0.717,2.417-1.129,3.786-1.129c0.27,0,0.538,0.017,0.795,0.049
					c1.35,0.171,2.382,0.738,2.907,1.6l0.076,0.124l0.128-0.069c0.766-0.416,2.096-0.835,3.345-0.835
					c0.361,0,0.699,0.034,1.009,0.103l0.2,0.044l-0.015-0.204c-0.373-5.165-0.505-9.392-0.402-12.924
					c0.095-3.344,0.171-5.984-0.805-12.365c-0.926-6.075-0.3-10.994,0.494-17.222c0.872-6.839,1.956-15.35,1.248-28.565
					c-0.207-3.861,0.204-6.749,0.602-9.544c0.453-3.172,0.88-6.17,0.313-10.234c-0.592-4.261-1.571-11.629-2.307-17.211
					c0.874,5.121,1.981,11.761,2.612,16.101l0.035,0.242l0.201-0.138c2.046-1.4,4.015-2.956,5.849-4.623
					c0.269-0.244,0.593-0.551,0.968-0.905l0.082-0.077c4.086-3.863,14.943-14.127,27.919-14.843l0.483-0.026l-0.411-0.256
					c-1.873-1.163-3.522-2.139-4.667-2.803c1.438,0.591,3.583,1.576,5.81,2.976c4.696,2.957,8.35,5.561,10.854,7.742
					c4.792,4.171,12.139,13.294,18.043,20.626c1.906,2.367,3.707,4.602,5.244,6.45c2.007,2.414,5.184,5.473,8.86,9.017
					c7.547,7.27,16.94,16.319,20.23,23.962C241.716,257.753,244.574,273.148,245.188,283.841z"/>
				<path fill="#FFFFFF" stroke="#000000" stroke-width="0.2184" stroke-miterlimit="10" d="M67.507,110.133
					c-0.004,13.641-1.459,30.098,6.264,41.923c4.611,7.06,12.172,1.385,16.559,8.521c3.631,5.904,1.123,16.697,6.605,21.669
					c1.711,1.551,8.049,1.171,10.413,3.326c2.548,2.322,1.997,6.401,5.825,7.102c3.735,7.215,11.191,13.841,13.162,21.67
					c1.145,4.551,0.147,10.567,0.147,15.243c0,6.84,2.316,21.863-4.587,26.245c-7.739,4.913-4.584-8.683-5.21-13.463
					c-0.925-7.071-2.72-18.384-5.421-24.689c-2.096,0.416-4.658,0.596-6.912,1.267c-1.714,0.511-3.12,2.244-4.704,2.618
					c-6.501,1.539-10.305-2.787-16.299-3.881c-0.787,13.503-3.264,26.473-3.506,39.836c-5.229-2.345-8.694-14.943-10.188-20.581
					c-2.274-8.586-1.136-16.722-0.658-25.22c0.773-13.724-7.309-25.665-12.148-37.938c-3.257-8.258-6.395-14.93-6.379-24.185
					c0.006-3.78,0.933-18.316,3.817-19.903c0.168-2.743-1.713-14.073,0.216-16.15c2.311-2.49,9.896-0.263,13.004-1.444"/>
				<path fill="#C5A771" d="M111.077,96.733c-0.464-1.143-1.543-4.007-1.543-4.007l-1.849-7.612
					c-3.23,2.447-10.529,3.881-12.668,4.369c-2.487,0.567-6.019,1.28-7.645,2.038c-1.601,0.747-11.813,5.054-16.67,8.736
					c-2.031,1.527-14.528,6.632-17.796,7.863c-1.685,0.634,0.059,5.747,0.059,5.747s-0.412,3.05,0.958,8.446
					c-0.021-0.046-0.04-0.095-0.061-0.141c-0.033-0.072-0.903,1.603-0.897,1.666c0.793,10.305,8.492,28.648,10.844,33.784
					c-0.613-4.727-3.494-14.404-5.068-19.971c-0.075-0.264-0.146-0.529-0.219-0.794c2.717,4.052,6.863,6.53,10.357,6.192
					c6.217-0.601,17.749-7.655,30.715-34.936c-2.794,14.462-6.922,36.317-11.17,50.921c7.282-15.358,14.221-39.108,17.776-55.727
					c3.327-1.104,5.854-3.972,5.854-3.972S111.375,97.464,111.077,96.733z"/>
				<path fill="#BCA176" d="M38.276,302.102c0.001-2.518,1.953-8.65,4.648-11.965l-0.199-0.227
					c-3.123,1.912-6.34,9.146-6.599,11.888c-0.263,2.787,1.819,4.808,2.569,5.295c0.499,0.325,1.148,0.522,1.933,0.587l0.427,0.037
					l-0.309-0.299C39.824,306.526,38.276,304.649,38.276,302.102z"/>
				<path fill="#D9C39A" d="M38.284,301.937c0.078-2.608,2-8.554,4.64-11.8l-0.199-0.227c-3.11,1.904-6.311,9.08-6.593,11.849
					C36.791,302.108,37.529,302.09,38.284,301.937z"/>
				<path fill="#BCA176" d="M44.127,302.712c-0.224-3.295,2.586-11.13,6.213-13.848l0.241-0.182l-0.29-0.087
					c-0.898-0.272-1.646-0.393-2.42-0.393c-0.673,0-1.348,0.094-2.062,0.287c-3.708,1.006-7.074,10.336-7.075,13.611
					c-0.001,3.075,2.519,5.305,3.4,5.843c0.734,0.447,1.705,0.675,2.885,0.675h0.001c0.511,0,1.065-0.043,1.646-0.128l0.301-0.044
					l-0.216-0.214C46.028,307.505,44.319,305.513,44.127,302.712z"/>
				<path fill="#D9C39A" d="M47.871,288.203c-0.673,0-1.348,0.094-2.062,0.287c-3.708,1.006-7.074,10.336-7.075,13.611
					c0,0.012,0.002,0.023,0.002,0.035c1.476,0.869,2.966,0.952,4.636,0.264c0.194-3.623,2.241-11.056,6.967-13.731
					C50.34,288.669,48.646,288.203,47.871,288.203z"/>
				<path fill="#BCA176" d="M133.18,298.489c-0.228-1.065-1.287-1.819-2.833-2.014c-0.252-0.031-0.513-0.049-0.778-0.049
					c-1.651,0-3.914,0.675-4.858,2.572c-1.299,2.612-2.031,8.333-2.117,11.375c-0.097,3.435,1.358,5.211,2.462,6.249
					c0.526,0.495,1.871,0.79,3.598,0.79l0,0c1.862,0,3.566-0.35,4.338-0.893c1.192-0.838,1.874-3.97,1.845-6.513
					C134.812,307.748,134.1,302.796,133.18,298.489z"/>
				<path fill="#BCA176" d="M267.756,285.256c-0.482-0.289-1.102-0.437-1.844-0.437c-1.145,0-2.359,0.356-3.003,0.688l-0.077,0.158
					l0.027,0.115c0.653,3.919,1.19,9.999,1.105,12.512c-0.056,1.668-0.427,3.277-1.017,4.416l-0.083,0.159l0.171,0.056
					c0.532,0.172,1.214,0.264,1.973,0.264c1.2,0,2.448-0.223,3.255-0.582c1.299-0.579,3.369-3.214,3.369-5.246
					C271.633,293.773,269.718,286.439,267.756,285.256z"/>
				<path fill="#BCA176" d="M262.406,285.854c-0.178-1.073-1.202-1.872-2.738-2.137c-0.344-0.06-0.704-0.089-1.07-0.089
					c-1.627,0-3.709,0.618-4.673,2.356c-1.321,2.38-2.444,7.846-2.627,11.264c-0.152,2.877,1.025,5.172,2.179,6.358
					c0.692,0.713,2.7,0.965,4.211,0.965l0,0c1.631,0,3.021-0.266,3.722-0.711c1.166-0.745,2.011-2.988,2.098-5.586
					C263.592,295.791,263.058,289.755,262.406,285.854z"/>
				<path fill="#BCA176" d="M59.408,290.596c-5.1,1.345-7.183,8.705-7.41,13.167c-2.478,0.69-5.36,0.565-7.41-1.052
					c0.225,3.101,2.507,5.438,3.581,6.088c0.799,0.481,1.912,0.726,3.312,0.726c1.652,0,3.296-0.34,4.129-0.542l0.292-0.071
					l-0.23-0.193c-1.464-1.236-2.38-2.882-2.54-4.536c-0.021-0.686-0.043-1.097,0.018-1.608
					C53.534,298.232,56.468,291.983,59.408,290.596z"/>
				<path fill="#FFFFFF" stroke="#000000" stroke-width="0.2184" stroke-miterlimit="10" d="M246.264,222.868
					c-0.451,2.068-1.048,4.828-3.067,5.064c-6.521,0.765-21.179-10.7-25.911-16.574c-4.897-6.079-20.22-28.617-37.165-36.153
					c-8.345-3.711-14.076,5.647-31.203,5.884c-5.016,0.068-13.525-4.124-12.854,0.172c0.353,2.264,1.134,7.423,1.134,7.423
					s1.981,11.76,2.612,16.1l0.035,0.242l0.201-0.139c2.046-1.399,4.015-2.954,5.849-4.622c0.269-0.244,0.593-0.55,0.968-0.905
					l0.082-0.076c4.086-3.864,14.943-14.128,27.919-14.844l0.483-0.027l-0.411-0.256c-1.873-1.161-3.522-2.138-4.667-2.803
					c1.438,0.592,3.583,1.578,5.81,2.978c4.696,2.954,8.35,5.559,10.854,7.741c4.792,4.17,12.139,13.295,18.043,20.626
					c1.906,2.367,3.707,4.603,5.244,6.45c2.007,2.414,5.184,5.474,8.86,9.015c4.698,4.527,10.104,9.742,14.313,14.878
					c-0.009-0.002-0.018-0.003-0.025-0.005c2.568,3.128,4.694,6.227,5.942,9.126c2.406,5.591,5.265,20.986,5.879,31.679l0.008,0.134
					l0.134,0.01c0.64,0.046,1.294,0.218,1.943,0.507c0,0,1.484-6.936-0.718-28.071c-0.37-3.553,7.35-16.961,1.523-29.418
					C247.841,226.492,246.55,223.374,246.264,222.868z"/>
				<path fill="#BCA176" d="M250.841,297.226c0.162-3.072,1.186-8.765,2.684-11.463c0.182-0.33,0.431-0.643,0.78-0.983l0.145-0.142
					l-0.174-0.1c-0.369-0.216-1.701-0.918-3.29-0.918c-1.426,0-2.684,0.55-3.74,1.633c-1.852,1.901-4.799,9.084-4.799,12.538
					c0,2.728,2.234,5.407,3.184,5.699c1.009,0.312,2.411,0.497,3.75,0.497l0,0c1.332,0,2.45-0.18,3.148-0.508l0.17-0.079
					l-0.112-0.15C251.36,301.605,250.725,299.409,250.841,297.226z"/>
				<path fill="#C5A771" d="M272.201,70.327c-3.101-7.42-7.325-13.417-13.293-18.874c-6.199-5.667-13.136-6.908-15.286-6.908
					c-0.308,0-0.548,0.022-0.711,0.066c-0.187,0.049-0.334,0.187-0.396,0.367c-0.059,0.176-0.026,0.368,0.087,0.515
					c0.352,0.453,1.01,1.141,1.491,1.644c0.752,0.788,2.769,3.271,3.004,3.596c8.247,11.443,11.303,20.859,9.611,29.635
					c-1.777,9.226-9.554,17.587-20.295,21.822c-9.102,3.588-19.662,4.306-29.697,4.734l-0.435,0.018l0.351,0.257
					c0.279,0.204,0.559,0.412,0.839,0.627c3.436,2.631,7.174,6.742,10.808,11.89l0.037,0.054l0.066,0.01
					c2.438,0.339,5.039,0.511,7.735,0.511c7.395,0,15.528-1.302,23.519-3.763c11.648-3.586,21.215-12.837,24.373-23.565
					C276.047,86.036,275.406,77.998,272.201,70.327z"/>
				<path fill="#BCA176" d="M271.182,69.428c6.379,38.901-37.175,45.483-61.41,40.644c1.469,1.706,6.027,6.675,7.488,8.746
					l0.038,0.054l0.066,0.01c2.437,0.339,5.04,0.511,7.735,0.511c7.396,0,15.528-1.302,23.52-3.763
					c11.647-3.587,21.215-12.837,24.373-23.566C275.029,85.137,274.387,77.099,271.182,69.428z"/>
				<path fill="#BCA176" d="M122.136,310.361c0.09-3.177,0.821-8.862,2.166-11.567c0.18-0.36,0.431-0.702,0.791-1.071l0.139-0.146
					l-0.175-0.096c-0.349-0.189-1.604-0.812-3.142-0.812c-1.53,0-2.846,0.611-3.911,1.812c-1.751,1.979-4.352,9.307-4.196,12.781
					c0.124,2.752,2.453,5.345,3.403,5.594c0.856,0.223,1.956,0.345,3.097,0.345c1.592,0,2.967-0.237,3.772-0.653l0.172-0.087
					l-0.128-0.147C122.718,314.704,122.067,312.756,122.136,310.361z"/>
				<path fill="#9E8763" d="M171.806,286.079c0.162-2.012,2.635-9.027,4.79-10.763c0.33-0.265,0.759-0.53,1.271-0.787l-0.085-0.288
					c-0.688,0.075-1.762,0.301-2.977,0.945c-2.884,1.526-5.08,9.744-5.259,11.503c-0.264,2.598,0.916,4.092,1.952,4.888
					c0.501,0.385,1.119,0.608,1.838,0.664l0.343,0.026l-0.21-0.271C172.382,290.59,171.652,287.991,171.806,286.079z"/>
				<path fill="#BCA176" d="M138.495,297.649c-0.439-0.238-0.986-0.36-1.625-0.36c-1.293,0-2.624,0.495-3.205,0.827l-0.068,0.163
					l0.031,0.113c0.788,3.687,1.639,9.008,1.667,11.61c0.017,1.417-0.209,3.652-0.897,5.282l-0.065,0.157l0.163,0.048
					c0.456,0.138,1.009,0.207,1.646,0.207h0.001c1.292,0,2.756-0.297,3.643-0.74c1.204-0.603,3.267-3.789,3.174-5.864
					C142.785,305.274,140.448,298.711,138.495,297.649z"/>
				<path fill="#BCA176" d="M113.351,311.284c-0.148-3.267,2.204-10.534,4.192-12.959l0.143-0.173l-0.214-0.069
					c-0.519-0.168-1.037-0.254-1.54-0.254c-1.167,0-2.228,0.455-3.15,1.353c-1.713,1.668-4.657,7.952-4.837,10.97
					c-0.139,2.336,1.661,4.801,2.488,5.262c0.648,0.361,1.827,0.575,3.157,0.575c0.499,0,0.994-0.031,1.431-0.093l0.26-0.036
					l-0.16-0.209C114.074,314.293,113.412,312.661,113.351,311.284z"/>
				<path fill="#D9C39A" d="M134.317,310.747c0.005-0.183,0.007-0.363,0.005-0.542c-0.025-2.258-0.738-7.21-1.658-11.52
					c-0.228-1.064-0.995-2.259-3.096-2.259c-1.651,0-3.394,0.754-4.338,2.651c-1.299,2.612-2.031,8.333-2.118,11.375
					c-0.012,0.407,0.002,0.788,0.031,1.15C126.581,313.714,132.274,312.667,134.317,310.747z"/>
				<path fill="#D9C39A" d="M122.381,302.558c0.408-1.659,1.005-4.069,2.51-5.161c-0.489-0.245-1.624-0.727-2.978-0.727
					c-1.53,0-2.238,0.729-3.303,1.933c-1.742,1.967-4.319,9.221-4.195,12.719c1.967,1.366,4.963,1.191,6.847,0.585
					C121.275,308.786,121.644,305.557,122.381,302.558z"/>
				<path fill="#D9C39A" d="M138.495,297.649c-0.439-0.238-0.986-0.36-1.625-0.36c-1.099,0-2.222,0.356-2.891,0.668
					c1.282,2.73,1.903,9.844,1.958,12.396c2.203,0.516,5.093-0.078,7.019-1.154c0-0.034,0.004-0.072,0.002-0.106
					C142.785,305.274,140.448,298.711,138.495,297.649z"/>
				<path fill="#D9C39A" d="M117.408,298.068c-0.497-0.155-0.993-0.239-1.475-0.239c-1.167,0-1.593,0.347-2.517,1.245
					c-1.713,1.667-4.506,8.203-4.685,11.222c-0.015,0.243-0.004,0.488,0.021,0.732c0.98,0.68,2.519,0.799,4.007,0.132
					C112.75,306.884,114.795,300.032,117.408,298.068z"/>
				<path fill="#BCA176" d="M241.988,297.791c0-3.57,2.896-10.664,4.86-12.777l0.153-0.165l-0.21-0.081
					c-0.599-0.231-1.199-0.35-1.782-0.35c-1.092,0-2.104,0.408-3.01,1.214c-1.802,1.602-5.046,7.75-5.36,10.74
					c-0.242,2.313,1.468,4.865,2.283,5.37c0.717,0.441,2.147,0.728,3.646,0.728c0.307,0,0.607-0.013,0.893-0.038l0.265-0.023
					l-0.153-0.217C242.58,300.799,241.988,299.153,241.988,297.791z"/>
				<path fill="#D9C39A" d="M267.756,285.256c-0.482-0.289-1.102-0.437-1.844-0.437c-1.027,0-2.108,0.287-2.785,0.585
					c1.456,3.782,1.702,8.579,1.365,12.624c2.275,0.482,5.027-0.014,7.129-1.064C271.495,293.264,269.649,286.399,267.756,285.256z"
					/>
				<path fill="#D9C39A" d="M262.979,297.742c0.006-2.734-0.501-8.241-1.108-11.884c-0.18-1.075-0.667-1.876-2.203-2.141
					c-0.344-0.06-0.704-0.089-1.07-0.089c-1.627,0-3.266,0.493-4.229,2.23c-1.321,2.38-2.227,8.433-2.41,11.851
					C255.927,299.019,258.976,298.723,262.979,297.742z"/>
				<path fill="#D9C39A" d="M254.161,284.475c-0.475-0.261-1.711-0.854-3.176-0.854c-1.426,0-2.143,0.683-3.198,1.768
					c-1.806,1.854-4.647,8.726-4.785,12.269c2.243,1.022,4.586,0.949,6.891,0.167C250.097,293.451,251.736,285.658,254.161,284.475z
					"/>
				<path fill="#D9C39A" d="M246.706,284.738c-0.57-0.211-1.141-0.32-1.696-0.32c-1.092,0-1.658,0.365-2.563,1.171
					c-1.802,1.603-4.841,7.893-5.152,10.883c1.107,0.708,2.707,1.208,4.104,1.051C241.458,294.875,243.26,287.784,246.706,284.738z"
					/>
				<path fill="#9E8763" d="M205.909,227.603c-2.934-3.512-6.586-7.88-8.411-12.673c-2.074-5.443-2.828-11.272-3.093-14.263
					l-0.004-0.049l-0.032-0.037c-3.255-3.771-5.786-6.43-7.738-8.129c-2.444-2.127-5.988-4.662-10.535-7.531l-0.037-0.026
					l-0.046,0.002c-8.011,0.101-16.479,3.965-25.166,11.482l-0.068,0.06l0.02,0.088c0.403,1.921,2.698,11.895,8.144,19.54
					c2.877,4.04,8.483,8.554,13.906,12.917c6.104,4.912,11.867,9.553,14.038,13.571c4.182,7.741,5.817,29.64,2.432,32.542
					c-0.378,0.323-0.899,0.488-1.55,0.488c-1.414,0-3.182-0.757-4.472-1.311c-0.419-0.181-0.933-0.271-1.527-0.271
					c-1.628,0-3.683,0.703-4.885,1.672c-1.986,1.598-4.472,8.59-4.621,10.44c-0.178,2.196,0.864,5.241,2.101,6.147
					c0.864,0.634,2.997,0.918,4.729,0.918c0.479,0,0.923-0.023,1.286-0.065l0.326-0.038l-0.24-0.226
					c-0.925-0.866-2.477-2.762-2.467-5.708c0.006-2.475,2.864-10.407,5.485-10.886c0.462-0.085,0.946-0.128,1.441-0.128
					c1.354,0,2.836,0.318,4.418,0.948c-1.158-0.247-2.764-0.519-4.183-0.519c-0.612,0-1.15,0.05-1.601,0.15
					c-2.256,0.502-5.097,7.877-5.104,10.437c-0.007,2.407,1.245,4.794,3.19,6.077c0.646,0.427,3.13,0.703,6.326,0.704
					c0.001,0,0.001,0,0.001,0c1.018,0,2.085-0.029,3.172-0.085c5.405-0.276,9.777-1.143,11.995-2.376
					c1.934-1.077,4.009-7.006,5.044-14.419c2.16-15.454,3.618-40.586,2.115-43.547C209.463,231.85,207.818,229.883,205.909,227.603z
					"/>
				<path fill="#FFEAC2" d="M87.372,154.412c4.832-12.806,8.526-35.048,8.526-35.048S89.513,141.206,87.372,154.412z"/>
				<path fill="#FFEAC2" d="M52.806,128.265c-2.347,6.827-5.713,18.95-6.847,27.29C48.282,147.216,51.669,133.69,52.806,128.265z"/>
				<path fill="#FFEAC2" d="M113.768,101.983l0.526,1.229c0,0,12.838,2.495,20.173,12.088
					C129.045,104.58,113.768,101.983,113.768,101.983z"/>
				<path fill="#FFEAC2" d="M192.126,101.988c-6.768-0.875-14.123,1.381-20.57,3.074c-8.077,2.122-14.586,2.224-22.76,0.894
					c-6.744-1.098-14.329-2.748-22.881-1.606c14.422-0.523,28.242,5.507,41.521,2.979c6.901-1.313,14.629-4.283,21.743-4.294
					c9.714-0.016,20.775,8.288,20.775,8.288S201.317,103.177,192.126,101.988z"/>
				<path fill="#FFEAC2" d="M257.976,74.604c-0.222,11.492-5.389,18.177-12.85,23.836c-11.057,8.386-34.11,9.217-34.11,9.217
					s21.767,1.545,35.035-8.222C253.66,93.833,259.576,86.4,257.976,74.604z"/>
				<path fill="#FFEAC2" d="M264.477,58.463c-4.565-6.907-13.215-12.954-20.968-13.552
					C251.677,46.833,258.402,51.806,264.477,58.463z"/>
				<path fill="#FFEAC2" d="M250.263,230.73c0,0,4.837,6.402,6.312,9.875c2.139,5.03,4.923,17.595,4.923,17.595
					s-1.673-12.933-3.88-18.294C256.083,236.179,250.263,230.73,250.263,230.73z"/>
				<path fill="#FFEAC2" d="M44.18,290.039c1.33-0.681,2.844-1.294,5.431-1.256C46.199,288.021,44.18,290.039,44.18,290.039z"/>
				<path fill="#FFEAC2" d="M59.514,289.781c0,0-3.817-1.122-6.155-0.973c-2.338,0.149-3.443,1.581-3.443,1.581
					s1.7-1.027,3.448-1.096C56.021,289.191,59.514,289.781,59.514,289.781z"/>
				<path fill="#FFEAC2" d="M58.787,292.242c0,0,0.753-0.879,2.019-1.108c1.267-0.23,3.986,0.439,3.986,0.439
					s-2.399-0.213-3.83,0.01C59.214,291.854,58.787,292.242,58.787,292.242z"/>
				<path fill="#FFEAC2" d="M124.279,297.622c0,0-2.145-1.37-4.458,0.023C121.282,297.183,122.65,297.226,124.279,297.622z"/>
				<path fill="#FFEAC2" d="M126.395,297.822c0,0,1.158-0.951,2.816-1.062c1.659-0.11,2.928,0.834,2.928,0.834
					s-1.188-0.524-2.971-0.449C127.697,297.204,126.395,297.822,126.395,297.822z"/>
				<path fill="#FFEAC2" d="M116.969,298.198c0,0-2.046-0.553-3.266,0.826C113.703,299.024,115.085,298.156,116.969,298.198z"/>
				<path fill="#FFEAC2" d="M134.479,298.101c0,0,1.533-0.642,2.868-0.474c1.336,0.168,1.985,1.336,1.985,1.336
					s-0.653-0.839-2.042-0.986C135.813,297.822,134.479,298.101,134.479,298.101z"/>
				<path fill="#FFEAC2" d="M253.412,284.638c0,0-2.207-1.371-4.585,0.021C250.328,284.198,251.735,284.24,253.412,284.638z"/>
				<path fill="#FFEAC2" d="M255.25,285.105c0,0,1.241-0.952,3.02-1.062c1.778-0.11,3.139,0.833,3.139,0.833
					s-1.273-0.522-3.187-0.45C256.646,284.488,255.25,285.105,255.25,285.105z"/>
				<path fill="#FFEAC2" d="M245.975,284.93c0,0-2.046-0.554-3.267,0.825C242.708,285.755,244.091,284.886,245.975,284.93z"/>
				<path fill="#FFEAC2" d="M263.483,285.632c0,0,1.534-0.643,2.868-0.475c1.336,0.168,1.984,1.336,1.984,1.336
					s-0.652-0.839-2.042-0.986C264.818,285.353,263.483,285.632,263.483,285.632z"/>
				<path fill="#381000" d="M93.233,144.57c3.417-14.604,6.342-28.454,8.505-41.143C100.231,117.351,97.369,131.193,93.233,144.57z"
					/>
				<path fill="#381000" d="M83.431,205.275c-3.541-7.535-6.614-15.379-9.133-23.314C75.991,190.144,78.952,197.962,83.431,205.275z
					"/>
				<path fill="#381000" d="M107.446,85.286c0.203-0.271,2.435,9.631,3.075,11.249c1.03,2.604,2.489,6.293,3.907,10.346
					c0.879,2.514,3.216,7.585,3.216,7.585c-1.269-4.514-2.908-9.108-4.359-12.933c5.04,1.237,9.874,2.7,13.272,4.819
					c5.636,3.515,9.282,9.197,9.282,9.197c-3.285-5.617-5.764-8.867-12.155-11.571c2.737-0.198,10.716-0.704,15.463-0.212
					c1.62,0.167,3.551,0.509,5.594,0.869c5.411,0.956,12.145,2.145,18.799,1.224c5.192-0.718,8.895-1.606,12.475-2.467
					c2.668-0.642,5.187-1.246,8.043-1.695c5.908-0.929,13.266-0.871,23.044,6.614c9.494,7.27,18.797,23.751,21.596,32.364
					c2.477,7.622,4.428,20.475,6.896,36.747c0.41,2.7,0.834,5.495,1.277,8.376c2.91,18.912,7.144,32.796,10.136,39.485
					c1.031,2.304,2.94,4.188,4.961,6.183c2.995,2.956,6.388,6.305,7.574,11.799c1.749,8.101,5.141,26.868,5.712,40.979
					c-0.999,0.094-1.943,0.387-2.541,0.679c-0.499-0.909-1.537-1.564-2.94-1.806c-1.6-0.275-3.538,0.034-4.962,1.029
					c0,0-0.159-0.098-0.308-0.178c-0.915-0.494-4.273-2.017-7.167,0.385c-0.539-0.241-1.226-0.465-1.995-0.521
					c-0.609-10.601-3.438-26.032-5.891-31.73c-3.301-7.67-12.707-16.731-20.264-24.012c-3.675-3.539-6.849-6.596-8.849-9.002
					c-1.524-1.833-3.331-4.075-5.244-6.45c-5.908-7.336-13.263-16.468-18.061-20.645c-2.999-2.61-7.246-5.473-10.874-7.755
					c-3.962-2.493-7.62-3.662-7.62-3.662c0.056,0.031,2.798,1.564,6.315,3.747c-13.014,0.718-23.784,10.885-28.017,14.885
					c-0.409,0.388-0.76,0.718-1.047,0.979c-2.109,1.919-4.124,3.442-5.83,4.609c-1.159-7.981-3.897-23.535-3.897-23.535
					s2.24,17.129,3.29,24.688c0.563,4.046,0.137,7.034-0.313,10.197c-0.398,2.799-0.812,5.693-0.603,9.569
					c0.708,13.2-0.376,21.704-1.247,28.539c-0.795,6.24-1.423,11.169-0.493,17.263c0.973,6.372,0.897,9.006,0.801,12.344
					c-0.077,2.692-0.048,6.673,0.404,12.934c-1.572-0.347-3.492,0.223-4.459,0.747c-0.54-0.886-1.605-1.493-3.018-1.671
					c-1.53-0.192-3.33,0.166-4.687,1.105c-0.952-0.445-4.862-1.998-7.745,0.664c-0.472-0.18-1.045-0.339-1.677-0.39
					c0.684-1.92,1.613-4.926,2.061-8.168c0.476-3.438,0.104-5.705-0.289-8.106c-0.378-2.312-0.77-4.705-0.381-8.351
					c0.696-6.497-1.178-19.646-2.546-29.247l-0.196-1.38c-0.723-5.094-1.094-9.48-1.393-13.007
					c-0.227-2.675-0.405-4.788-0.656-6.098c-0.502-2.626-1.757-5.798-3.041-8.587c-1.693-3.686-4.222-6.538-4.222-6.538
					c0.043,0.074,3.622,6.277,5.541,11.797c-1.895,0.724-11.372,4.235-16.112,3.863c-4.388-0.343-9.548-4.565-14.457-8.862
					c-5.284-4.623-15.05-18.495-15.05-18.495s9.18,14.374,14.547,19.069c0.784,0.687,1.574,1.368,2.367,2.035
					c0.345,2.443,0.88,6.661,0.904,9.425c0.02,2.284-1.382,10.295-2.738,18.041c-1.099,6.282-2.138,12.215-2.483,15.379
					c-0.326,2.971-0.08,5.693,0.156,8.325c0.343,3.797,0.665,7.383-0.697,11.404c-3.007,8.878-4.575,19.49-4.984,22.532
					c-0.743,5.533-6.71,6.938-11.825,7.544c-1.591,0.189-3.304-0.369-4.705-1.529c-1.392-1.153-2.286-2.762-2.393-4.301
					c-0.314-4.544,3.423-12.203,6.348-13.01c3.038-0.839,8.058,1.554,8.058,1.554c-0.198-0.133-4.885-3.219-8.261-2.289
					c-3.501,0.966-7.219,9.295-6.908,13.799c0.122,1.746,1.074,3.485,2.612,4.784c-1.4,0.34-5.23,1.098-7.326-0.168
					c-1.055-0.636-3.302-2.938-3.51-5.995c-0.249-3.624,3.367-12.96,7.341-14.028c2.479-0.666,8.16,1.044,8.16,1.044
					s-4.684-2.073-7.564-1.895c4.525-7.852,4.54-11.875,4.536-16.856c-0.001-2.208-0.002-4.712,0.43-7.824
					c1.392-10.011-0.733-23.552-2.004-31.642c-0.418-2.664-0.748-4.767-0.836-5.987c-0.114-1.554-0.13-3.548-0.149-5.854
					c-0.043-5.038-0.096-11.309-1.229-16.525c-0.921-4.248-2.591-9.193-4.205-13.977c-1.242-3.676-2.413-7.15-3.106-9.917
					c-1.553-6.212-2.195-17.812-0.525-25.722c1.482-7.022,6.907-26.131,8.049-30.136c1.788,7.763,4.419,17.852,7.173,23.703
					c0,0-7.383-26.375-8.102-38.311c-0.477,0.022-1.068,0.049-1.068,0.049s0.979,9.369,1.625,12.93
					c-1.103,3.884-6.92,24.477-8.425,31.607c-1.691,8.016-1.042,19.77,0.531,26.065c0.7,2.797,1.876,6.284,3.123,9.977
					c1.607,4.762,3.27,9.688,4.183,13.894c1.116,5.14,1.168,11.366,1.211,16.369c0.019,2.321,0.036,4.327,0.151,5.904
					c0.092,1.253,0.424,3.369,0.844,6.05c1.264,8.049,3.379,21.52,2.003,31.419c-0.441,3.166-0.439,5.696-0.438,7.929
					c0.003,4.979-0.02,8.989-4.765,17.036c-0.195,0.063-0.388,0.14-0.581,0.235c-1.46-0.497-3.136-0.941-5.45-0.313
					c-0.548,0.148-1.083,0.454-1.6,0.875c-0.163,0.031-0.324,0.06-0.497,0.106c-3.818,1.017-7.752,9.903-8.039,12.938
					c-0.291,3.084,1.927,5.244,2.806,5.816c0.812,0.528,1.851,0.702,2.872,0.702c0.131,0,0.259-0.009,0.388-0.014
					c0.085,0.059,0.167,0.113,0.237,0.156c0.946,0.577,2.109,0.768,3.232,0.768c0.84,0,1.651-0.107,2.343-0.24
					c0.16,0.123,0.316,0.233,0.46,0.319c1.017,0.614,2.348,0.814,3.654,0.814c1.858,0,3.999-0.457,4.917-0.677
					c1.18,0.756,2.498,1.168,3.785,1.168c0.236,0,0.471-0.013,0.702-0.042c4.969-0.588,11.669-2.078,12.492-8.199
					c0.407-3.025,1.965-13.578,4.95-22.39c1.414-4.175,1.084-7.839,0.735-11.718c-0.234-2.596-0.475-5.278-0.158-8.173
					c0.344-3.141,1.38-9.062,2.476-15.33c1.363-7.78,2.771-15.827,2.75-18.181c-0.022-2.516-0.458-6.185-0.798-8.695
					c3.994,3.281,8.031,6.007,11.663,6.292c0.256,0.02,0.524,0.028,0.801,0.028c5.093,0,13.692-3.188,15.614-3.928
					c0.31,0.957,0.563,1.885,0.728,2.745c0.244,1.271,0.421,3.366,0.645,6.02c0.3,3.535,0.672,7.936,1.398,13.051l0.198,1.38
					c1.362,9.562,3.227,22.655,2.542,29.058c-0.4,3.747,0,6.192,0.386,8.555c0.384,2.342,0.746,4.555,0.287,7.879
					c-0.461,3.334-1.439,6.412-2.116,8.272c-1.006,0.079-2.104,0.478-3.148,1.494c-1.821,1.771-4.83,8.181-5.021,11.371
					c-0.152,2.566,1.727,5.234,2.802,5.832c0.743,0.414,2.149,0.653,3.535,0.653c0.669,0,1.326-0.062,1.908-0.18
					c0.524,0.544,1.048,0.916,1.475,1.026c0.873,0.229,2.074,0.368,3.295,0.368c1.594,0,3.217-0.242,4.2-0.838
					c0.03,0.03,0.056,0.062,0.086,0.09c0.703,0.662,2.303,0.958,3.978,0.958c1.863,0,3.817-0.366,4.727-1.005
					c0.315-0.222,0.586-0.545,0.823-0.937c0.558,0.138,1.367,0.224,1.965,0.224c1.431,0,2.987-0.334,3.926-0.805
					c1.399-0.699,3.618-4.077,3.512-6.437c-0.167-3.698-2.421-10.665-4.778-11.952c-0.457-6.256-0.609-10.412-0.528-13.232
					c0.097-3.375,0.174-6.041-0.81-12.48c-0.914-5.986-0.292-10.87,0.497-17.052c0.874-6.864,1.963-15.407,1.25-28.675
					c-0.204-3.802,0.204-6.659,0.598-9.422c0.457-3.218,0.89-6.256,0.313-10.409c-0.01-0.065-0.021-0.138-0.029-0.206
					c1.796-1.21,3.959-2.828,6.224-4.886c0.291-0.265,0.645-0.6,1.058-0.99c0.767-0.724,1.755-1.655,2.929-2.693
					c0.567,2.533,2.946,12.04,8.153,19.353c2.925,4.107,8.566,8.647,14.021,13.038c6.055,4.873,11.772,9.476,13.885,13.386
					c3.987,7.383,5.741,29.07,2.571,31.788c-1.081,0.925-3.881-0.275-5.384-0.92c-1.109-0.476-2.623-0.379-4.046,0.026
					c-2.026-0.127-3.589,0.173-4.972,0.907c-3.268,1.729-5.422,10.416-5.579,11.982c-0.308,3.027,1.238,4.703,2.188,5.433
					c0.883,0.68,1.902,0.805,2.542,0.805c0.209,0,0.37-0.013,0.479-0.025c1.026,0.643,3.184,0.957,4.946,0.957
					c0.822,0,1.541-0.071,2.028-0.203c0.062,0.045,0.125,0.098,0.187,0.139c0.784,0.518,3.479,0.815,6.797,0.815
					c5.265-0.001,12.097-0.749,15.329-2.549c2.622-1.459,4.522-8.92,5.353-14.867c2.198-15.725,3.644-40.779,2.056-43.908
					c-0.869-1.714-2.536-3.708-4.466-6.016c-3.056-3.656-6.52-7.799-8.311-12.497c-1.825-4.79-2.613-9.882-2.95-13.024
					c3.154,3.695,6.446,7.784,9.382,11.429c1.915,2.377,3.724,4.622,5.249,6.458c2.029,2.438,5.216,5.509,8.906,9.065
					c7.509,7.231,16.854,16.234,20.094,23.764c2.377,5.519,5.216,21.041,5.827,31.433c-0.948,0.076-1.975,0.443-2.981,1.34
					c-1.913,1.7-5.229,7.969-5.561,11.134c-0.267,2.542,1.512,5.299,2.569,5.951c0.816,0.505,2.483,0.824,4.03,0.824
					c0.481,0,0.937-0.044,1.363-0.111c0.508,0.57,1.025,0.969,1.453,1.102c1.023,0.314,2.518,0.528,3.968,0.528
					c1.362,0,2.68-0.191,3.544-0.661c0.025,0.028,0.052,0.064,0.078,0.091c0.759,0.781,2.684,1.149,4.583,1.149
					c1.652,0,3.286-0.279,4.114-0.807c0.345-0.22,0.638-0.529,0.9-0.882c0.647,0.209,1.565,0.306,2.351,0.306
					c1.304,0,2.662-0.252,3.525-0.637c1.467-0.654,3.73-3.44,3.73-5.805c0-3.371-1.805-11.196-4.174-12.624
					c-0.593-0.358-1.317-0.504-2.054-0.519c-0.573-14.165-3.974-32.989-5.729-41.111c-1.236-5.718-4.714-9.152-7.783-12.181
					c-1.97-1.944-3.827-3.779-4.801-5.953c-2.973-6.643-7.18-20.453-10.078-39.288c-0.442-2.882-0.866-5.676-1.276-8.374
					c-2.475-16.308-4.429-29.188-6.926-36.87c-1.651-5.082-5.548-12.875-10.417-19.947c4.928,0.609,17.247,0.955,30.812-3.38
					c12.272-3.922,21.695-13.499,24.779-23.979c2.077-7.06,1.426-15.243-1.832-23.042c-2.693-6.444-6.827-12.987-13.419-19.063
					c-7.018-6.469-15.741-7.458-17.058-6.825c-0.286,0.137-0.462,0.312-0.524,0.524c-0.184,0.626,0.521,1.401,1.889,2.831
					c0.75,0.784,2.65,3.117,2.854,3.399c8.209,11.348,11.262,20.676,9.602,29.292c-2.077,10.785-11.65,18.11-19.919,21.369
					c-9.194,3.626-20.696,4.274-30.55,4.684c-9.058-6.261-16.028-6.253-21.7-5.361c-2.886,0.454-5.42,1.062-8.103,1.707
					c-3.562,0.856-7.246,1.741-12.4,2.454c-6.537,0.903-13.205-0.273-18.562-1.219c-2.059-0.363-4-0.706-5.648-0.877
					c-4.954-0.512-14.579,0.045-17.433,0.229c-2.397-0.877-5.288-1.712-8.84-2.573c-0.638-1.664-1.23-3.163-1.724-4.41
					c-0.581-1.47-1.09-2.967-1.276-3.623L107.446,85.286z M38.779,306.965c-0.73-0.474-2.757-2.44-2.501-5.152
					c0.253-2.684,3.416-9.868,6.526-11.773c-2.726,3.354-4.68,9.544-4.681,12.062c0,2.417,1.364,4.312,2.518,5.427
					C39.958,307.471,39.304,307.307,38.779,306.965z M42.213,307.814c-0.862-0.527-3.327-2.708-3.325-5.713
					c0-3.242,3.311-12.474,6.961-13.465c1.804-0.489,3.164-0.27,4.398,0.104c-3.634,2.723-6.506,10.563-6.273,13.981
					c0.164,2.393,1.451,4.397,2.67,5.617C45.222,308.548,43.465,308.576,42.213,307.814z M110.508,315.28
					c-0.802-0.447-2.545-2.845-2.41-5.12c0.178-2.991,3.094-9.218,4.791-10.868c1.615-1.569,3.354-1.446,4.537-1.062
					c-1.999,2.436-4.378,9.73-4.227,13.062c0.07,1.584,0.873,3.248,1.802,4.452C113.479,315.957,111.444,315.802,110.508,315.28z
					 M117.249,316.709c-0.894-0.232-3.17-2.814-3.289-5.451c-0.156-3.447,2.422-10.715,4.156-12.674
					c2.706-3.056,6.312-1.271,6.866-0.968c-0.319,0.328-0.606,0.688-0.817,1.11c-1.354,2.725-2.092,8.441-2.182,11.63
					c-0.069,2.43,0.597,4.421,2.026,6.058C122.518,317.182,119.216,317.222,117.249,316.709z M132.903,316.396
					c-1.557,1.095-6.624,1.17-7.743,0.117c-1.081-1.019-2.51-2.762-2.414-6.135c0.086-3.028,0.813-8.719,2.102-11.312
					c0.843-1.696,2.887-2.485,4.722-2.485c0.258,0,0.513,0.015,0.759,0.047c1.479,0.186,2.489,0.895,2.702,1.893
					c0.919,4.299,1.63,9.238,1.654,11.488C134.712,312.459,134.039,315.597,132.903,316.396z M138.422,297.784
					c1.917,1.042,4.213,7.533,4.383,11.315c0.091,2.025-1.916,5.134-3.09,5.722c-1.239,0.618-3.698,0.967-5.176,0.523
					c0.677-1.602,0.928-3.824,0.911-5.345c-0.029-2.612-0.883-7.946-1.671-11.64c-0.009-0.038-0.025-0.073-0.035-0.111
					C134.627,297.741,136.981,297.001,138.422,297.784z M171.592,291.457c-1.005-0.774-2.15-2.225-1.893-4.752
					c0.176-1.747,2.375-9.901,5.177-11.384c1.067-0.566,2.085-0.837,2.921-0.929c-0.481,0.242-0.93,0.51-1.297,0.806
					c-2.18,1.756-4.683,8.838-4.846,10.868c-0.163,2.021,0.612,4.625,1.693,6.022C172.838,292.049,172.173,291.903,171.592,291.457z
					 M197.354,214.984c1.835,4.816,5.496,9.196,8.438,12.715c1.9,2.272,3.54,4.233,4.369,5.871
					c1.493,2.942,0.027,28.023-2.13,43.456c-1.029,7.368-3.072,13.251-4.968,14.307c-2.197,1.223-6.546,2.082-11.928,2.357
					c-4.945,0.253-8.664-0.104-9.406-0.595c-1.905-1.256-3.13-3.591-3.123-5.949c0.007-2.512,2.854-9.813,4.985-10.288
					c2.614-0.583,7.302,0.751,7.302,0.751c-2.782-1.391-5.286-1.896-7.439-1.502c-2.743,0.501-5.604,8.458-5.611,11.036
					c-0.007,2.568,1.173,4.562,2.516,5.82c-1.61,0.188-4.82-0.029-5.905-0.825c-1.203-0.882-2.213-3.859-2.04-6.011
					c0.148-1.833,2.604-8.757,4.565-10.335c1.521-1.225,4.588-2.094,6.255-1.379c1.89,0.809,4.742,2.032,6.182,0.798
					c3.418-2.929,1.805-24.953-2.396-32.73c-2.186-4.045-7.962-8.695-14.077-13.618c-5.415-4.357-11.014-8.864-13.879-12.886
					c-5.481-7.697-7.784-17.894-8.118-19.483c5.497-4.756,14.63-11.312,25.068-11.445c3.544,2.236,7.62,4.998,10.517,7.52
					c2.164,1.883,4.866,4.804,7.722,8.112C194.519,203.681,195.273,209.521,197.354,214.984z M239.004,301.611
					c-0.792-0.488-2.448-2.969-2.211-5.223c0.31-2.965,3.523-9.057,5.309-10.643c1.709-1.52,3.471-1.287,4.635-0.837
					c-1.964,2.115-4.9,9.283-4.9,12.882c0,1.57,0.731,3.252,1.612,4.489C241.92,302.419,239.91,302.172,239.004,301.611z
					 M245.674,303.345c-0.892-0.275-3.075-2.94-3.075-5.554c0-3.426,2.922-10.547,4.757-12.432c2.76-2.834,6.158-1.089,6.843-0.689
					c-0.309,0.301-0.592,0.629-0.808,1.019c-1.507,2.717-2.538,8.44-2.702,11.528c-0.138,2.596,0.748,4.745,1.774,6.124
					C250.951,304.052,247.624,303.946,245.674,303.345z M261.326,303.731c-1.604,1.023-6.668,0.873-7.74-0.23
					c-1.131-1.163-2.286-3.415-2.136-6.244c0.182-3.399,1.296-8.834,2.607-11.198c1.049-1.889,3.609-2.53,5.585-2.191
					c1.469,0.255,2.446,1.007,2.614,2.014c0.648,3.889,1.182,9.91,1.098,12.39C263.27,300.819,262.454,303.014,261.326,303.731z
					 M267.677,285.388c1.923,1.161,3.804,8.418,3.804,11.971c0,1.978-2.014,4.544-3.278,5.107c-1.245,0.553-3.653,0.789-5.119,0.312
					c0.672-1.294,0.984-2.997,1.034-4.48c0.087-2.519-0.452-8.615-1.107-12.542c-0.007-0.039-0.022-0.075-0.03-0.113
					C263.888,285.176,266.272,284.541,267.677,285.388z M218.404,119.628c-3.326-4.711-7.065-9.035-10.84-11.923
					c-0.282-0.217-0.562-0.425-0.842-0.629c9.762-0.417,20.558-1.122,29.748-4.745c10.788-4.253,18.601-12.658,20.388-21.935
					c1.695-8.804-1.368-18.281-9.637-29.753c-0.236-0.328-2.252-2.811-3.018-3.612c-0.505-0.527-1.14-1.19-1.479-1.631
					c-0.181-0.232-0.058-0.565,0.227-0.641c1.272-0.339,9.057,0.594,15.854,6.808c6.731,6.153,10.6,12.468,13.254,18.819
					c3.191,7.639,3.833,15.64,1.804,22.532c-3.013,10.238-12.199,19.747-24.27,23.464
					C238.137,119.911,227.2,120.851,218.404,119.628z"/>
				<path fill="#424141" d="M106.168,108.604c0.133,9.134,4.358,12.647,9.85,19.149c3.978,4.708,8.378,9.755,11.284,15.333
					c2.699,5.181,4.259,11.969,8.907,15.83c1.201-9.568-3.112-19.995-2.42-29.939c3.602-1.384,5.643-2.02,10.318-2.007
					c-0.542,10.692,6.767,17.8,11.335,26.045c3.574,6.45,10.046,9.057,15.616,11.957c7.966,4.146,16.699,6.51,24.412-0.823
					c8.824-8.388,14.03-20.599,27.878-20.273c4.803-4.464,0.772-14.23-5.687-15.693c-0.722-13.868-17.396-27.245-30.879-25.491
					c-17.814,8.154-45.979,2.864-60.868,1.658c1.272,3.786,7.03,8.096,9.924,11.2c-5.296-4.373-9.201-9.327-19.884-12.657
					c0.263,3.492,3.152,5.891,3.888,8.89c-7.363,2.258-5.826-4.799-7.889-8.958c-0.244,0.034-1.511,0.027-1.757-0.016
					c-0.881,4.33-0.788,8.458-3.374,11.694"/>
			</g>
			<path fill="#424141" d="M255.572,63.608c4.117-8.442-9.555-20.912-16.386-23.442c14.724-1.545,27.739,9.413,32.287,22.784
				c1.52,4.464,1.859,18.176-2.028,20.921c-0.422-2.172-1.332-4.378-2.604-6.32c-0.061,1.395-0.774,2.602-0.953,3.692
				c-0.914-1.775-2.145-4.223-2.966-5.899c-0.449,6.62-4.582,9.728-6.072,15.585c0.221-12.367,0.214-20.937-6.667-31.252
				c-4.813-7.217-11.133-13.969-18.147-18.218c3.684-0.232,8.374-0.726,11.74,0.525"/>
			<g>
				<path fill="#C5A771" d="M109.021,93.811c4.586,0.328,9.5,0.655,13.759,0c-3.604,0.983-7.535,2.293-11.139,2.949
					c1.966,0.328,3.932,0,5.896-0.328c-2.948,7.862-13.103,7.862-16.379,0.655c3.276-1.638,7.863-1.638,11.138-3.604"/>
			</g>
			<g>
				<path fill="#FFFFFF" d="M218.8,119.126c11.357,0,22.714,3.932,34.072,1.747c-1.748-0.874-3.495-1.747-5.679-2.184
					c3.931-0.874,7.426-2.184,10.92-4.368c-0.874,0.437-2.185,0.437-3.058,0.874c9.173-4.805,18.346-14.414,23.15-23.587
					c-1.311,1.311-3.494,2.184-4.368,3.494c1.311-3.931,3.494-7.862,6.115-11.793c-0.437,0.437-1.747,1.311-2.185,1.747
					c-1.31-3.058-0.437-6.552-0.437-10.046c-6.115,4.805-7.862,13.541-13.104,19.219c-4.368,5.242-10.92,11.357-17.472,13.978
					c-9.611,3.932-21.404,3.495-31.015,6.989c1.311,2.184,2.185,4.368,3.495,6.552"/>
			</g>
			<g>
				<path fill="#C5A771" d="M208.754,107.769c4.805-0.874,10.046-3.495,11.356-8.299c0,0.874,0.874,3.058,0.874,4.368
					c3.931,0.437,6.552-3.931,9.609-6.115c-0.437,1.311-0.437,2.621-0.873,3.931c1.747-2.184,3.057-4.805,4.367-6.989
					c-0.437,1.747,0,3.495,0,5.242c1.311-2.622,2.621-5.679,3.932-8.3c0,1.747,0.873,4.369,0.873,6.116
					c2.186-3.495,3.059-7.426,5.243-10.484c0,1.311,0.873,3.495,0.873,4.805c2.621-3.058,3.932-6.989,4.805-10.92
					c0,1.748,0.438,3.495,0.438,5.679c1.747-4.805,3.494-8.299,3.058-13.541c3.931,14.415,0.437,23.15-12.667,30.577
					c-5.243,3.058-11.358,5.678-17.036,7.862c-7.426,3.058-9.61,1.311-14.852-4.368"/>
			</g>
			<g>
				<path fill="#C5A771" d="M112.722,92.44c2.62,1.311,3.275,3.932,7.207,3.276c-1.965,2.622-5.241,4.369-8.518,4.369
					c2.621,1.965,5.242,4.367,8.518,4.367c-3.932,0-7.862,0-12.45,0c0,0,0,0,0.655,0c4.587,0,7.863-3,9.173-8
					c-3.931,0-6.552,0-9.829,0c-0.655,3-1.311,5.857-0.655,8.478"/>
			</g>
			<g>
				<path fill="#C5A771" d="M48.139,130.152c-0.864,6.954-6.924,13.136-15.581,14.681c3.463-0.772,7.791,0,12.119,0
					c-2.597,0.772-6.924,3.864-9.521,4.636c2.597-0.772,5.193-0.772,6.924-0.772c-2.597,3.09-7.791,6.181-11.253,7.727
					c2.597-0.772,7.791-0.772,9.522-1.546c-1.731,3.864-4.328,7.728-8.657,10.046c1.731-0.773,5.194-1.546,6.926-2.318
					c-0.866,0-1.731,3.091-2.597,3.863c0.865-0.772,3.462-3.091,4.328-3.863c0,1.545,0.866,3.863,0.866,5.409
					c7.791-11.591,14.715-27.818,14.715-41.726c-1.731,0-2.597,1.545-4.328,3.09"/>
			</g>
			<path fill="#91201B" d="M112.053,99.333c0,0-25.863,24.728-63.259,24.048c0,0-6.972,9.866-2.24,9.084
				c4.731-0.782,61.434-8.88,66.687-29.747C115.955,102.892,112.053,99.333,112.053,99.333z"/>
			<path fill="#A4A7AB" stroke="#000000" stroke-width="0.186" stroke-miterlimit="10" d="M79.458,117.04
				c3.736-0.184,2.977,5.33,3.124,7.242c0.944,0.106,1.659-0.006,2.479-0.324c0.217-2.69,1.167-7.654-3.781-7.812
				c-0.523,0.619-0.562,1.25-0.511,1.528"/>
			<path fill="#A4A7AB" stroke="#000000" stroke-width="0.2184" stroke-miterlimit="10" d="M52.377,123.931
				c0.137-0.327,0.63-0.513,0.5-1.248c4.252-1.069,8.354-1.957,12.975-1.744c0.066,3.314,1.425,6.507,0.874,9.914
				c-4.274,0.373-9.073,2.448-13.398,1.737c-1.843-2.767-0.856-5.982-1.824-9.097 M53.808,124.494
				c0.678,2.179-0.013,4.429,1.276,6.365c3.027,0.497,6.383-0.955,9.375-1.215c0.385-2.384-0.566-4.619-0.612-6.938
				c-3.232-0.149-6.104,0.473-9.079,1.22c0.092,0.514-0.253,0.644-0.349,0.873"/>
			<path fill="#A4A7AB" stroke="#000000" stroke-width="0.2184" stroke-miterlimit="10" d="M54.312,126.898
				c1.695,0.565,3.61,0.495,5.185-0.295c1.418,2.576-2.808,3.873-4.807,3.521c0.151-0.868-0.25-1.98-0.099-2.849
				c-0.325-0.084-0.612,0.009-0.934-0.05"/>
		</g>
	</g>
	<g>
		<g>
			<path fill="#424141" d="M40.47,43.699c1.374-3.596-0.63-8.331,0.857-11.773c1.535-3.552,5.309-4.452,7.68-7.002
				c10.021-10.781,10.48-9.899,18.029-21.77c1.068,20.167,8.737,24.835,6.182,45.221c-0.954,7.611-17.078,29.772-26.51,19.495"/>
			<g>
				<g>
					<path fill="#C5A771" d="M112.352,77.727c-1.313-1.057-2.721-3.215-3.67-4.84l-0.281,0.104c0.201,1.111,0.552,2.298,0.842,3.185
						c-1.628-3.061-2.455-7.246-3.198-11.009c-0.568-2.873-1.106-5.587-1.912-7.116c-1.866-3.54-4.285-4.503-6.622-5.017
						c-1.165-0.256-4.481-0.795-7.123-1.213c0.717,0.056,1.483,0.118,2.242,0.185l0.352,0.03l-0.221-0.275
						c-0.969-1.214-4.414-5.415-8.076-8.48c-4.951-4.145-10-5.011-11.428-5.178c-1.723-0.201-4.129-0.292-5.62-0.332
						c0.374-0.089,0.747-0.194,1.002-0.302l0.336-0.143l-0.338-0.137c-2.865-1.161-5.144-1.809-6.969-1.982
						c-0.657-0.062-1.311-0.093-1.942-0.093c-3.039,0-5.228,0.713-6.794,1.334c-1.675,0.664-5.182,1.987-6.611,2.525l-0.366,0.137
						l0.363,0.145c1.179,0.472,2.097,1.651,2.672,2.584c-0.776-0.849-1.932-1.917-3.079-2.252c-0.41-0.119-0.845-0.179-1.297-0.179
						c-1.881,0-3.57,1.032-4.302,2.628c-0.356,0.779-0.682,1.526-0.996,2.245c-1.029,2.361-1.917,4.401-3.335,6.277
						c-0.406,0.536-1.099,1.13-1.909,1.822c-0.751,0.643-1.603,1.37-2.296,2.134c-1.41,1.557-1.799,4.889-1.969,7.261l-0.016,0.222
						l0.212-0.068c2.072-0.66,3.592-1.221,4.517-1.665c2.773-1.335,4.929-2.653,6.071-3.713l0.189-0.175l-0.246-0.08
						c-1.323-0.427-3.099-2.189-3.285-3.637c-0.19-1.478,0.336-3.075,1.521-4.577c0.041-0.051,1.171-1.386,2.286-2.131
						c0.93-0.623,1.847-0.919,2.372-0.919c0.15,0,0.272,0.025,0.353,0.074l0.238,0.141l-0.006-0.182
						c0.2,0.844,0.393,2.015,0.322,3.2c-0.157,2.632-1.048,5.233-2.648,7.73c-1.067,1.664-4.826,3.645-6.972,4.678
						c-1.671,0.805-4.438,1.673-5.938,2.119l-0.554,0.165l0.563,0.128c2.494,0.566-3.303,5.136-1.1,7.434
						c1.322,1.38,1.931,2.867,1.809,4.421c-0.248,3.163-3.852,6.574-7.144,8.712c-3.05,1.982-6.216,3.165-8.469,3.165
						c-0.413,0-0.83-0.053-1.276-0.163l-0.15-0.037l-0.033,0.151c-0.252,1.147-1.028,5.022-0.451,6.747
						c0.312,0.941,0.997,1.564,1.949,2.43c1.094,0.994,2.455,2.231,3.887,4.53c2.821,4.525,8.173,10.034,12.25,11.42
						c1.069,0.364,2.317,0.547,3.707,0.547c0.001,0,0,0,0.001,0c3.808,0,17.295-4.475,18.8-4.994
						c4.992-1.726,15.235-10.464,20.715-16.831l0.132-0.153l0.847,0.705l-0.106,0.229c-1.463,3.121-5.656,9.48-7.838,12.697
						c-3.721,5.483-11.036,12.179-16.943,16.489c-4.016,2.93-17.797,8.415-21.159,8.67c-5.716,0.435-9.182-3.505-10.158-5.05
						c-1.029-1.629-0.858-2.364-0.391-3.274c0.419-0.814,2.929-4.295,4.381-6.37c1.452-2.074,2.772-4.964,2.772-4.964l-1.653-1.662
						c-0.343,1.399-1.709,4.312-2.479,5.735c-0.768,1.424-3.584,5.288-4.461,6.572c-0.876,1.284-1.382,1.306-1.899,3.623
						c-0.342,1.541,0.513,3.634,2.098,5.215c1.478,1.476,9.267,3.638,12.911,4.27c3.645,0.632,4.398-1.615,4.398-1.615
						c2.121-1.228,13.637-5.734,15.616-7.13c1.767-1.067,3.974-2.512,6.149-3.937c0.146-0.096,0.302-0.198,0.461-0.301
						c1.352-0.774,2.555-1.403,2.555-1.403s0.554-0.37,1.421-1.113c1.81-1.116,3.547-2.14,4.447-2.557
						c1.771-0.821,4.733-1.492,6.695-1.936l0.421-0.096c2.149-0.49,6.025-2.265,8.977-4.591l0.074-0.059l-0.02-0.093
						c-0.685-3.026,18.808,0.534,25.401-9.668c0.723-1.117,7.345-2.775,8.534-4.514c1.606-2.348-2.045-4.723,0.258-4.99
						c-3.49-1.862,0.428-6.073,1.272-4.604c1.573,2.741-3.739-6.9-3.739-6.9 M67.361,66.932c-0.633,0-1.25-0.063-1.786-0.184
						c-2.208-0.497-4.149-1.844-4.853-2.577c-0.293-0.304-0.762-0.449-1.214-0.588c-0.672-0.207-1.08-0.361-1.096-0.753
						c-0.019-0.459,0.237-0.598,0.626-0.806c0.29-0.156,0.619-0.333,0.871-0.689c0.081-0.115,0.193-0.312,0.337-0.567
						c0.835-1.479,2.789-4.942,6.583-5.542l0.206-0.033l-0.095-0.186c-0.129-0.25-0.267-0.482-0.417-0.702
						c4.346,3.588,5.292,9.337,5.291,10.405C71.812,66.168,69.574,66.932,67.361,66.932z"/>
					<g>
						<path fill="#424141" d="M52.886,65.234c0.973-7.46,1.297-6.811,7.135-11.027c6.163-4.216,7.46-9.082,11.676,0.324
							c2.919,7.135,6.812,13.622-1.296,17.514c-7.46,3.243-15.893,1.621-16.542-7.46"/>
					</g>
					<path fill="#FFFFFF" d="M60.396,62.31c-0.025,0.525,0.261,1.118,0.829,1.713c1.141,1.197,3.555,2.486,6.16,2.486
						c0.001,0,0.001,0,0.001,0c1.043,0,1.999-0.212,2.84-0.632c0.726-0.362,1.02-1.329,0.85-2.796
						c-0.322-2.775-2.381-7.016-3.968-7.392c-0.148-0.035-0.309-0.052-0.475-0.052C64.298,55.638,60.547,59.215,60.396,62.31z"/>
					<path fill="#CECECC" d="M70.812,61.726c-0.679-2.625-2.358-5.718-3.703-6.036c-0.148-0.035-0.309-0.052-0.475-0.052
						c-0.525,0-1.123,0.188-1.734,0.503C67.817,56.323,69.794,59.093,70.812,61.726z"/>
					<path fill="#FFFFFF" d="M40.838,56.168l0.1,0.042l0.072-0.082c0.113-0.13,0.222-0.259,0.298-0.378
						c1.771-2.764,2.738-6.364,2.72-10.139l-0.001-0.095c0,0-0.613-0.345-1.521-0.133c-0.697,0.163-1.618,0.792-2.263,1.321
						c-0.496,0.408-1.176,1.078-1.797,2c-0.701,1.043-0.982,2.248-0.932,3.311C37.636,54.57,39.878,55.771,40.838,56.168z"/>
					<path fill="#CECECC" d="M43.925,48.654c0.182-1.128,0.108-1.859,0.103-3.042l-0.001-0.095c0,0-0.613-0.345-1.521-0.133
						c-0.295,0.069-0.632,0.224-0.969,0.418C42.189,45.668,43.934,46.077,43.925,48.654z"/>
					<path fill="#BCA176" d="M63.458,54.18c-1.959,1.739-2.886,4.789-3.665,6.374c-0.456,0.926-1.857,1.3-1.469,2.533
						c0.065,0.207,0.884,0.071,1.923,0.468c0.697,0.267,1.283,1.314,2.054,1.697c3.012,1.49,6.607,2.621,9.32,0.428
						c1.484-1.198-0.737-8.186-2.645-10.581C67.378,53.09,66.153,51.787,63.458,54.18z M67.361,66.932
						c-0.633,0-1.25-0.063-1.786-0.184c-2.208-0.497-4.149-1.844-4.853-2.577c-0.293-0.304-0.762-0.449-1.214-0.588
						c-0.672-0.207-1.08-0.361-1.096-0.753c-0.019-0.459,0.237-0.598,0.626-0.806c0.29-0.156,0.619-0.333,0.871-0.689
						c0.081-0.115,0.193-0.312,0.337-0.567c0.835-1.479,2.789-4.942,6.583-5.542l0.206-0.033l-0.095-0.186
						c-0.129-0.25-0.267-0.482-0.417-0.702c4.346,3.588,5.292,9.337,5.291,10.405C71.812,66.168,69.574,66.932,67.361,66.932z"/>
					<path fill="#BCA176" d="M37.223,52.253c-0.055-1.363,0.472-2.806,1.549-4.171c0.041-0.051,1.171-1.386,2.286-2.13
						c0.93-0.623,1.847-0.919,2.372-0.919c0.15,0,0.272,0.025,0.353,0.074l0.238,0.141c0,0-0.025-0.876-0.229-1.49
						C43.487,42.828,36.802,46.566,37.223,52.253z"/>
					<path fill="#C5A771" d="M34.521,60.265c2.773-1.335,4.929-2.653,6.071-3.713l0.189-0.175l-0.246-0.08
						c-1.204-0.388-2.766-1.877-3.184-3.234c-0.657-0.823-1.085-1.802-1.109-2.871c-0.086,0.122-0.17,0.246-0.261,0.366
						c-0.406,0.536-1.099,1.13-1.909,1.822c-0.751,0.643-1.603,1.37-2.296,2.134c-1.41,1.557-7.281,7.709-7.452,10.08l5.467-2.597
						l0.212-0.068C32.077,61.27,33.597,60.709,34.521,60.265z"/>
					<path fill="#424141" d="M12.364,86.128c0.427,0.151,0.933,0.229,1.5,0.229c0.001,0,0,0,0.001,0
						c2.186,0,5.267-1.154,8.241-3.087c4.021-2.612,6.745-5.896,6.939-8.365c0.111-1.42-0.457-2.79-1.686-4.072
						c-2.814-2.936,1.471-7.564-0.53-7.564l-0.14,0.002c-1.412,0.051-16.714,5.282-18.324,7.941
						c-0.973,1.609-1.022,6.506,0.372,10.408C9.34,83.304,10.458,85.453,12.364,86.128z"/>
					<path fill="#212121" d="M23.131,75.562c-1.758-0.289-3.306-1.8-4.822-2.657c-2.694-1.523-5.667-2.957-8.733-2.358
						c-0.295,0.058-0.688,0.152-0.981,0.248c-0.073,0.098-0.167,0.318-0.229,0.417c-0.973,1.609-1.022,6.506,0.372,10.408
						c0.602,1.684,1.719,3.833,3.625,4.509c0.427,0.151,0.933,0.229,1.5,0.229c0.001,0,0,0,0.001,0c2.186,0,5.267-1.154,8.241-3.087
						c4.021-2.612,6.745-5.896,6.939-8.365c0.047-0.604-0.036-1.197-0.233-1.78c-0.386,0.33-0.804,0.667-1.226,0.974
						C26.229,75.084,24.715,75.822,23.131,75.562z"/>
					<path fill="#424141" d="M9.124,96.152l0.4-0.421c0.706-0.742,1.435-1.51,1.963-1.933l0.081-0.066l-0.032-0.099
						c-0.611-1.888,0.2-5.867,0.462-7.041l0.027-0.121l-0.113-0.05c-1.508-0.672-2.753-2.28-3.6-4.648
						c-0.447-1.248-0.778-2.716-0.958-4.246l-0.061-0.521L7.067,77.48c-0.784,1.648-2.648,5.746-3.007,8.188
						c-0.458,3.125,1.633,11.621,2.115,12.874l0.048,0.125l0.129-0.033C6.831,98.516,7.934,97.396,9.124,96.152z"/>
					<path fill="#282828" d="M11.911,86.421c-1.508-0.672-2.753-2.28-3.6-4.648c-0.076-0.21-0.142-0.435-0.211-0.656
						c0.408,3.538,2.733,6.105,2.076,9.991c-0.453,2.679-2.316,4.461-4.451,5.911c0.147,0.562,0.277,1.012,0.373,1.305
						c0.947-0.858,1.894-1.704,2.802-2.619c0.794-0.799,1.54-1.785,2.589-2.255c-0.511-1.95,0.254-5.718,0.509-6.857l0.027-0.121
						L11.911,86.421z"/>
					<path fill="#BCA176" d="M42.958,56.69c0.169,0,4.188,0.032,7.266,2.861C47.92,58.134,45.504,57.157,42.958,56.69z"/>
					<path fill="#FFFFFF" d="M23.423,75.99c-0.958-0.174-1.785-0.741-2.515-1.237c-1.871-1.269-3.561-2.417-5.478-3.117
						c-3.107-1.135-5.854-1.09-5.854-1.09c1.881-0.572,4.52-0.24,6.128,0.384c1.977,0.767,3.718,1.902,5.627,3.197
						c0.703,0.477,1.424,0.994,2.231,1.119c1.541,0.238,4.024-1.148,4.024-1.148S25.141,76.301,23.423,75.99z"/>
					<path fill="#FFFFFF" d="M19.43,83.77c-1.177-0.101-2.314-0.823-3.038-1.756c-0.725-0.935-0.962-2.039-0.841-3.248
						c0,0,0.149,1.793,1.083,3.013C17.566,82.998,19.43,83.77,19.43,83.77z"/>
					<path fill="#FFFFFF" d="M8.819,80.394c1.516,0.261,2.122,0.009,2.311-2.059C10.696,80.102,10.091,80.348,8.819,80.394z"/>
					<path fill="#782E1E" d="M70.259,59.54c-1.712-1.77-4.526-1.911-6.403-0.273c-1.815,1.583-2.108,4.263-0.75,6.19
						c0.093,0.131,2.414,1.04,4.877,1.313c0.703-0.171,1.415,0.027,1.998-0.481c0.885-0.772,1.403-1.805,1.549-2.885
						C71.126,62.109,70.753,60.793,70.259,59.54z"/>
					<path fill="#5B2317" d="M70.259,59.54c-1.712-1.77-4.526-1.911-6.403-0.273c-0.529,0.461-0.924,1.017-1.192,1.619
						c1.463-0.555,3.524-0.089,4.856,0.527c1.537,0.711,2.71,1.934,3.621,3.329c0.199-0.428,0.326-0.882,0.388-1.344
						C71.125,62.104,70.752,60.791,70.259,59.54z"/>
					<circle fill="#111111" cx="66.917" cy="62.778" r="2.902"/>
					<circle fill="#FFFFFF" cx="65.114" cy="60.71" r="1.136"/>
					<path fill="#782E1E" d="M41.072,56.41c1.734-2.643,2.571-5.009,3.046-8.211c-1.85-0.424-3.92,0.597-4.934,2.573
						c-0.846,1.646-0.727,3.505,0.16,4.806C39.611,55.968,40.748,56.429,41.072,56.41z"/>
					<path fill="#5B2317" d="M43.455,51.223c0.283-0.952,0.504-1.951,0.663-3.024c-1.85-0.424-3.92,0.597-4.934,2.573
						c-0.321,0.624-0.5,1.278-0.553,1.922c1.099-1.086,3.01-1.506,4.337-1.497C43.132,51.197,43.293,51.208,43.455,51.223z"/>
					<path fill="#111111" d="M41.524,55.235c0.058,0.029,0.121,0.043,0.179,0.067c0.977-1.71,1.65-3.437,2.09-5.375
						c-1.19-0.362-2.566,0.267-3.228,1.553C39.833,52.906,40.264,54.587,41.524,55.235z"/>
					
						<ellipse transform="matrix(0.6575 0.7535 -0.7535 0.6575 51.8783 -13.3239)" fill="#FFFFFF" cx="40.594" cy="50.396" rx="1.025" ry="1.136"/>
					<path fill="#FFEAC2" d="M89.665,52.273c0,0,7.44,0.84,9.424,1.837c1,0.501,3.405,1.992,4.362,4.126
						c2.787,6.212,1.553,10.384,4.887,17.772c-4.293-6.828-2.969-11.353-5.795-17.316c-1.116-2.356-2.893-3.412-3.891-3.903
						C96.401,53.684,89.665,52.273,89.665,52.273z"/>
					<path fill="#FFEAC2" d="M70.55,85.312c0,0,5.53,1.357,7.007,4.036C76.545,85.309,70.55,85.312,70.55,85.312z"/>
					<path fill="#FFEAC2" d="M30.64,62.626c0,0,8.907-2.841,11.253-6.216c3.259-4.69,2.861-10.25,2.861-10.25
						s1.123,5.993-2.324,10.418C39.26,60.647,30.64,62.626,30.64,62.626z"/>
					<path fill="#FFEAC2" d="M51.605,58.3c0,0,3.521-5.592,7.751-6.899C54.189,51.363,51.605,58.3,51.605,58.3z"/>
					<path fill="#BCA176" d="M34.959,54.563c0,0,0.328,2.971,2.872,4.07l-3.813,2.162C34.018,60.795,33.887,57.229,34.959,54.563z"
						/>
					<path fill="#FFEAC2" d="M60.844,64.838c0,0,4.108,4.468,9.866,1.931C64.677,68.496,60.844,64.838,60.844,64.838z"/>
					<path fill="#FFEAC2" d="M36.798,52.693c0,0,0.862,2.906,3.411,3.83C37.178,56.095,36.798,52.693,36.798,52.693z"/>
					<path fill="#FFEAC2" d="M64.745,49.011c0,0,2.849-1.065,4.996-0.296c2.147,0.77,3.747,5.372,3.747,5.372
						s-1.897-3.904-3.999-4.69C67.388,48.609,64.745,49.011,64.745,49.011z"/>
					<path fill="#FFEAC2" d="M41.374,41.233c0,0,1.487-1.541,3.363-1.503c1.877,0.038,3.434,1.767,3.434,1.767
						s-1.536-1.14-3.457-1.212C42.792,40.212,41.374,41.233,41.374,41.233z"/>
					<path fill="#FFEAC2" d="M50.272,38.146c0,0,4.609-2.237,8.043-2.495c4.125-0.31,8.879,1.404,8.879,1.404
						s-4.71-1.222-8.935-0.82C54.577,36.586,50.272,38.146,50.272,38.146z"/>
					<path fill="#FFEAC2" d="M65.918,38.269c0,0,5.816-0.067,8.974,0.666c3.159,0.732,6.091,2.134,8.679,4.213
						c3.553,2.853,8.019,7.852,8.019,7.852s-6.488-5.844-8.429-7.174c-1.94-1.331-5.127-3.351-8.579-4.253
						C71.418,38.744,65.918,38.269,65.918,38.269z"/>
					<path fill="#57222B" d="M63.145,108.2l-3.853-2.827c0,0-5.464,2.793-8.439,3.936c-2.976,1.143-15.918,4.014-19.545,3.812
						s-6.359-3.951-6.359-3.951s-1.678,3.529-2.538,4.942c-0.859,1.414-3.346,4.862-4.163,6.074
						c-0.817,1.212-1.513,1.998-0.186,4.274c1.326,2.276,4.709,4.023,8.973,4.599s17.643-5.553,22.819-8.88
						C55.029,116.854,63.145,108.2,63.145,108.2z"/>
					<path fill="#D494A2" d="M59.018,103.896c0,0,4.02,0.83,5.079,3.082l-1.133,1.248c0,0-2.744,0.871-5.063,1.882
						c-2.319,1.01-3.4,1.68-5.206,2.999c-1.806,1.318-3.735,3.387-4.787,4.991c-1.052,1.604-11.312,6.001-12.775,7.075
						c-1.462,1.074-2.833,2.116-3.509,2.527c-0.676,0.412-7.311-0.987-9.16-2.902c-1.848-1.915-1.307-3.461-0.84-4.374
						c0.469-0.913,1.839-2.308,2.367-3.643c0.527-1.336,1.77-5.532,2.433-6.533c0,0,1.834,1.555,4.312,1.973
						s15.209-2.71,18.365-3.565C52.257,107.8,56.367,105.554,59.018,103.896z"/>
					<path fill="#A3727D" d="M59.688,103.419c-4.279,3.235-7.431,4.381-10.588,5.235c-3.156,0.855-15.978,3.969-18.455,3.551
						c-2.477-0.417-4.226-1.811-4.226-1.811c-0.274,0.415-0.813,1.766-1.154,2.719c1.677-0.305,3.868,0.696,5.08,1.497
						c0.864,0.572,0.869,0.751,1.921,1.017c1.47,0.372,12.232-2.058,13.428-1.117c2.158,1.697,1.513,3.065,0.003,5.013
						c-1.798,2.32-13.307,6.794-15.549,8.164c0.754,0.105,1.304,0.117,1.475,0.013c0.676-0.411,2.047-1.453,3.509-2.527
						c1.462-1.074,11.723-5.471,12.775-7.075c1.051-1.604,3.497-4.068,5.302-5.386c1.807-1.318,4.48-2.537,6.799-3.548
						c2.319-1.01,2.954-0.937,2.954-0.937l1.133-1.248C63.038,104.726,59.688,103.419,59.688,103.419z"/>
					<path fill="#FFEAC2" d="M67.277,102.676c-1.398,2.124-3.344,4.825-5.54,7.134c-1.916,2.011-7.345,7.038-12.007,10.562
						c-3.319,2.511-15.923,7.132-16.268,7.262c-0.828,0.312-3.656,1.426-5.248,1.621s-3.419-0.372-5.01-0.889
						c-1.591-0.518-3.876-2.588-5.143-3.905c-0.644-0.667-0.863-2.721-0.835-3.336c-0.932,1.555-0.438,2.896,0.421,4.078
						c1.833,2.52,5.799,5.035,9.241,4.973c5.218-0.092,19.33-6.301,22.649-8.812c4.661-3.525,10.249-8.476,12.163-10.486
						c2.402-2.523,7.79-9.45,9.916-14.309C71.556,96.43,67.335,102.815,67.277,102.676z"/>
					<path fill="#BCA176" d="M22.351,114.111c1.328-2.019,2.667-4.86,2.667-4.86l-1.785-1.536c-0.254,1.042-1.144,3.139-1.864,4.618
						C21.844,112.713,22.152,113.412,22.351,114.111z"/>
					<path fill="#FFFFFF" d="M25.28,124.972l-0.064-0.057c-0.384-0.337-0.81-0.643-1.198-0.86c-0.148-0.083-0.297-0.155-0.438-0.213
						c-0.094-0.037-0.202-0.034-0.296,0.01c-0.095,0.044-0.167,0.124-0.198,0.22c-0.363,1.098-0.229,2.656,0.251,2.925l0.046,0.022
						c0.601,0.232,1.407-0.243,1.704-0.51l0.051-0.046v-0.069c0.007-0.542,0.087-1.064,0.13-1.336L25.28,124.972z"/>
					<path fill="#FFFFFF" d="M19.229,123.571c0.022,0.408,0.366,0.602,0.628,0.669c0.328,0.084,0.664,0.04,0.996,0.014l0.011-0.056
						c0.12-0.646,0.387-1.353,0.592-1.83l0.034-0.081l-0.051-0.072c-0.338-0.477-0.662-0.797-1.015-0.994
						c0,0-0.001-0.001-0.001-0.001c-0.161-0.087-0.373-0.026-0.46,0.134C19.608,122,19.27,123.067,19.229,123.571z"/>
					<path fill="#57222B" d="M28.785,128.514c-0.395-0.312-0.716-0.839-0.815-1.344l-0.069-0.352l-0.211,0.29
						c-0.296,0.402-1.068,1.307-1.877,1.011c-0.038-0.014-0.074-0.03-0.108-0.049c-0.296-0.166-0.479-0.546-0.541-1.131
						l-0.028-0.267l-0.22,0.155c-0.371,0.262-0.941,0.524-1.558,0.285c-0.03-0.011-0.058-0.025-0.084-0.04
						c-0.315-0.176-0.482-0.61-0.497-1.292l-0.005-0.229l-0.212,0.086c-0.351,0.143-0.871,0.257-1.348-0.008
						c-0.047-0.027-0.094-0.056-0.141-0.091c-0.229-0.168-0.312-0.532-0.245-1.081l0.015-0.126c-0.468,0.036-0.936,0.08-1.367-0.147
						c-0.345-0.181-0.346-0.708-0.233-1.193l0.063-0.256l-0.255,0.067c-0.305,0.08-0.566,0.063-0.834-0.087l-0.011-0.006
						c-0.189-0.128-0.298-0.327-0.316-0.576l-0.313-0.008c-0.081,0.632-0.27,2.111,3.882,5.02c0.287,0.2,0.58,0.384,0.877,0.55
						c1.929,1.078,4.101,1.466,6.452,1.154l0.316-0.1L28.785,128.514z"/>
					<path fill="#FFFFFF" d="M25.807,127.963l0.051,0.026c0.223,0.1,0.478,0.087,0.742-0.037c0.536-0.251,1.053-0.948,1.26-1.693
						c0.044-0.159-0.026-0.325-0.18-0.411c-0.646-0.339-1.384-0.58-1.972-0.646c-0.202-0.021-0.397,0.131-0.425,0.335
						C25.118,126.782,25.313,127.688,25.807,127.963z"/>
					<path fill="#FFFFFF" d="M23.096,123.562l-0.049-0.062c-0.338-0.419-0.74-0.771-1.131-0.989l-0.095-0.052
						c-0.078-0.039-0.167-0.044-0.25-0.014c-0.091,0.032-0.165,0.101-0.203,0.188c-0.168,0.374-0.963,2.271-0.169,2.873
						c0.039,0.028,0.078,0.054,0.119,0.077c0.468,0.263,1.054,0.104,1.362-0.014l0.095-0.037l0.005-0.103
						c0.035-0.725,0.206-1.441,0.297-1.791L23.096,123.562z"/>
					<path fill="#FFFFFF" d="M18.434,122.627c0.208,0.116,0.478,0.141,0.805,0.076l0.088-0.018l0.029-0.084
						c0.185-0.529,0.475-1.077,0.698-1.485c0.022-0.021,0.103-0.043,0.134-0.038c0.095,0.022,0.194,0.061,0.294,0.117
						c0.156,0.087,0.317,0.214,0.493,0.388l0.267,0.264l0.001-0.375c0.001-0.029,0.007-2.931-0.618-3.28l-0.066-0.03l-0.022-0.004
						c-0.142-0.033-0.371,0.013-0.895,0.66c-0.715,0.881-1.837,2.787-1.535,3.449C18.181,122.426,18.291,122.548,18.434,122.627z"/>
					<path fill="#FFFFFF" d="M31.716,115.976c-0.933,1.053-1.096,2.124-1.962,3.589C30.662,118.338,30.997,117.264,31.716,115.976z"
						/>
					<path fill="#FFFFFF" d="M29.49,128.733c1.146-0.109,1.906-0.672,2.033-1.506c0.178-1.168-0.2-3.564-0.903-3.957
						c-0.038-0.022-0.077-0.039-0.116-0.048c-0.143-0.036-0.305,0.015-0.48,0.152c-0.777,0.602-1.901,2.876-1.901,3.471
						c0.001,0.475,0.458,1.334,0.89,1.673c0.048,0.037,0.103,0.076,0.165,0.11C29.267,128.679,29.357,128.713,29.49,128.733z"/>
					<path fill="#B7BDC2" d="M19.519,123.741c-0.043-0.106-0.057-0.357-0.057-0.467c0.084,0.246,0.223,0.548,0.54,0.479
						c0.704-0.155,1.09-0.988,1.283-1.635c0.026,0.033,0.05,0.06,0.076,0.094l0.042,0.056l-0.023,0.066
						c-0.165,0.473-0.376,1.581-0.602,1.872C20.261,124.219,19.702,124.188,19.519,123.741z"/>
					<path fill="#B7BDC2" d="M26.032,127.345l0.042,0.021c0.188,0.083,0.4,0.063,0.618-0.055c0.402-0.223,0.814-0.764,1.036-1.126
						c-0.154,0.68-0.571,1.327-1.015,1.572c-0.218,0.12-0.43,0.139-0.617,0.056l-0.042-0.021c-0.333-0.186-0.513-0.752-0.517-1.553
						C25.595,126.801,25.765,127.196,26.032,127.345z"/>
					<path fill="#B7BDC2" d="M29.737,127.919c0.377-0.072,1.11-0.821,1.155-1.916c0.013-0.319-0.068-1.47-0.298-2.326
						c0.632,0.961,0.651,2.484,0.672,2.703c0.039,0.395-0.022,1.295-0.254,1.638c-0.267,0.391-0.395,0.338-0.755,0.463
						c-0.479,0.167-1.329-0.589-1.446-0.75C28.844,127.755,29.211,128.019,29.737,127.919z"/>
					<path fill="#B7BDC2" d="M21.947,125.032c0.46-0.23,0.783-1.208,0.904-1.559c0.025-0.09,0.111-0.022,0.132,0.003l0.041,0.049
						l-0.027,0.138c-0.042,0.22-0.178,0.996-0.167,1.77l-0.131,0.002c-0.292,0.12-0.765,0.15-1.147-0.076
						c-0.33-0.196-0.408-0.643-0.393-1.109C21.215,124.728,21.431,125.29,21.947,125.032z"/>
					<path fill="#B7BDC2" d="M24.954,124.918l0.197,0.107c-0.01,0.235-0.03,0.723,0.023,1.234l0.006,0.054l-0.195,0.155
						c-1.005,0.641-1.591,0.515-1.816-0.62c0.279,0.754,0.838,0.754,1.136,0.451C24.734,125.86,24.949,125.05,24.954,124.918z"/>
					<path fill="#B7BDC2" d="M20.188,121.074c-0.034-0.008-0.123,0.019-0.141,0.039c-0.183,0.389-0.403,0.889-0.556,1.389
						c-0.141,0.014-0.684,0.112-0.977-0.231c-0.15-0.177-0.126-0.491-0.051-0.834c0.129,0.515,0.544,0.77,1.084,0.129
						c0.637-0.757,1.059-1.896,0.887-2.974c0.464,0.751,0.579,3.011,0.579,3.011c-0.189-0.182-0.358-0.314-0.521-0.404
						C20.389,121.139,20.287,121.097,20.188,121.074z"/>
					<path fill="#FFFFFF" d="M28.151,121.857c-0.25,0.137-0.798,0.908-0.562,0.809C27.827,122.566,28.402,121.72,28.151,121.857z"/>
					<path fill="#A3727D" d="M18.84,123.928c0,0,0.255,0.943,1.4,0.757C18.78,125.177,18.84,123.928,18.84,123.928z"/>
					<path fill="#A3727D" d="M17.8,122.709c0,0,0.315,0.548,0.95,0.458C17.997,123.477,17.8,122.709,17.8,122.709z"/>
					<path fill="#A3727D" d="M20.518,125.33c0,0,0.304,0.958,1.358,0.816C20.666,126.733,20.518,125.33,20.518,125.33z"/>
					<path fill="#A3727D" d="M22.655,126.774c0,0,0.412,0.942,1.482,0.724C22.953,128.173,22.655,126.774,22.655,126.774z"/>
					<path fill="#A3727D" d="M25.058,127.833c0,0,0.502,0.896,1.546,0.575C25.491,129.196,25.058,127.833,25.058,127.833z"/>
					<path fill="#A3727D" d="M27.922,127.944c0,0,0.106,0.411,0.601,0.68l-0.374-0.005C28.149,128.619,27.923,128.33,27.922,127.944
						z"/>
					<path fill="#381000" d="M74.574,56.653c-0.07-0.22-0.433-1.467-0.552-1.852c-0.707-2.291-1.958-5.655-4.08-6.417
						c-2.789-1.001-6.573,0.925-6.573,0.925c0.148-0.113,3.654-2.777,6.828-1.637c2.461,0.884,3.776,4.391,4.544,6.892
						c0.119,0.386,0.484,1.645,0.553,1.86c0.568,1.79,1.427,3.373,1.436,3.388C76.729,59.812,75.164,58.511,74.574,56.653z"/>
					<path fill="#381000" d="M12.551,84.237c-0.214-3.664,0.367-7.385,1.679-10.763C13.331,76.779,12.771,80.366,12.551,84.237z"/>
					<path fill="#381000" d="M67.911,68.019c-2.279-0.053-4.576-0.783-6.467-2.057C63.219,67.507,65.327,68.3,67.911,68.019z"/>
					<path fill="#381000" d="M39.022,56.775c-1.035-0.778-1.896-1.796-2.492-2.945C36.929,55.191,37.742,56.188,39.022,56.775z"/>
					<path fill="#381000" d="M60.614,64.276c0.635,0.661,2.582,2.091,4.927,2.62c2.487,0.559,6.422-0.119,6.425-2.187
						c0.002-1.024-1.03-7.753-6.399-11.304c0.595,0.57,0.969,1.146,1.24,1.67c-4.512,0.713-6.462,5.384-7.02,6.172
						c-0.56,0.787-1.565,0.641-1.526,1.588C58.297,63.742,59.979,63.615,60.614,64.276z M67.073,55.837
						c2.126,0.502,5.445,8.728,3.086,9.904c-3.995,1.992-9.715-1.296-9.612-3.425C60.703,59.139,64.845,55.312,67.073,55.837z"/>
					<path fill="#381000" d="M19.111,81.255c0.345-0.571,0.958-1.152,1.185-2.033c0.322-1.259-0.339-2.249-1.185-2.67
						c-1.573-0.785-3.217,0.29-3.238,2.004c-0.012,0.93,0.048,2.043,1.67,3.61c1.621,1.567,4.136,1.604,4.136,1.604l1.349-0.929
						C20.515,84.267,18.585,82.124,19.111,81.255z"/>
					<path fill="#381000" d="M8.009,79.552c0,0,1.175-0.009,0.93-0.943c-0.533-2.021-1.079-4.623,0.495-4.331
						c1.335,0.248,1.861,2.777,1.344,4.526c-0.41,1.385-1.703,1.388-2.518,1.227C7.442,79.869,8.009,79.552,8.009,79.552z"/>
					<path fill="#381000" d="M35.367,112.814c0,0-3.125,1.353-4.348,3.747c-1.224,2.394-2.059,4.671-4.498,6.501
						c2.791-2.92,2.923-4.364,4.099-6.696c1.174-2.333,4.12-3.647,4.12-3.647L35.367,112.814z"/>
					<path fill="#424141" d="M80.384,108.554c-2.871,2.262-6.68,4.052-8.917,4.562c-1.98,0.451-5.229,1.154-7.145,2.042
						c-0.693,0.322-1.876,0.997-3.222,1.807c-1.192,0.718-7.406,4.389-10.356,6.524c-2.291,1.658-13.647,6.09-16.33,7.595
						c-1.035,0.581-3.291,1.698-4.963,2.05c-4.852,1.022-10.255-1.788-13.233-4.869c-1.154-1.196-2.564-4.507-0.594-6.746
						c0.617-0.701,6.045-8.07,7.896-13.491c-0.14-0.205-0.283-0.409-0.425-0.616c-2.025,6.427-7.388,13.047-7.97,13.71
						c-2.069,2.351-0.963,5.981,0.592,7.592c1.151,1.191,2.604,2.323,4.23,3.231c2.893,1.615,10.198,2.262,13.473,1.531
						c1.855-0.415-0.209-1.001,1.012-1.68c2.53-1.408,14.238-6.075,16.585-7.688c2.987-2.053,10.226-6.339,10.484-6.494
						c1.3-0.781,2.429-1.426,3.057-1.719c1.525-0.711,4.394-1.431,7.079-2.042c2.286-0.521,5.908-2.206,8.943-4.505 M80.282,98.04
						 M107.579,69.486c-0.35-1.476-0.652-2.979-0.937-4.418c-0.603-3.054-1.124-5.689-1.973-7.3
						c-1.987-3.768-4.668-4.807-7.028-5.325c-0.744-0.163-2.274-0.337-3.958-0.495c-0.655-0.832-4.629-5.801-8.608-9.131
						c-5.08-4.253-10.275-5.144-11.747-5.315c-0.976-0.114-1.985-0.188-2.876-0.238c-1.27-0.576-5.382-2.342-8.726-2.659
						c-1.152-0.11-2.195-0.114-3.158-0.057c-0.698-0.502-7.395,2.542-8.027,2.331c-0.583-0.194-3.949,1.267-10.331,3.595
						c-1.763,8.23-9.539,13.096-9.569,13.918c-0.088,2.478-7.851,9.441-7.851,9.441c-2.126,0.922-13.942,5.417-14.94,7.064
						c-0.625,1.036-0.873,2.989-0.77,5.156c-0.72,1.476-3.205,6.71-3.619,9.526c-0.485,3.313,1.704,12.106,2.176,13.245
						c0.093,0.227,0.267,0.374,0.49,0.415c0.042,0.008,0.084,0.012,0.128,0.012c0.703,0,1.689-0.993,3.305-2.682
						c0.808-0.845,1.639-1.711,2.192-2.101c0.417,0.697,1.032,1.257,1.763,1.921c1.065,0.969,2.392,2.174,3.781,4.403
						c0.585,0.94,4.208,5.55,6.001,7.257c1.794,1.707,5.173,5,10.466,4.994c3.917-0.004,17.413-4.477,19-5.026
						c1.729-0.598,4.075-2.02,6.632-3.885c0.218-0.159,3.235-2.498,3.624-2.818c3.862-3.177,7.783-6.921,10.542-10.089
						c-2.504,6.027-8.696,14.542-9.403,15.353c-1.525-2.436-4.157-3.246-4.157-3.246l-0.593,0.317c0,0,3.35,1.34,4.286,3.456
						c-0.209,0.231-0.681,0.736-0.681,0.736c-2.472,0.815-5.832,2.167-7.722,3.18c-3.082,1.65-6.798,5.287-8.013,7.543
						c-1.292,2.396-15.225,8.538-15.446,8.586c0.019-0.45-0.097-1.426-0.185-1.932c-0.189-1.104-0.507-2.137-1.089-2.278
						c-0.358-0.086-0.72,0.084-1.074,0.506c-0.393,0.469-1.004,1.379-1.379,2.227c-0.827-0.392-1.665-0.684-2.513-0.862
						c-0.03-0.028-0.062-0.058-0.099-0.09c-0.439-0.377-1.516-0.98-2.093-1.292c-0.574-0.612-1.137-1.121-1.663-1.303
						c-0.302-0.94,0.368-2.113,1.005-2.946c0.455-0.595,1.326-1.655,1.82-2.971c0.086-0.228,0.19-0.558,0.316-0.954
						c0.284-0.899,1.221-3.401,1.78-4.608c-0.184-0.122-0.36-0.251-0.529-0.389c-0.618,1.292-1.587,3.889-1.888,4.844
						c-0.122,0.383-0.222,0.702-0.305,0.922c-0.455,1.209-1.263,2.191-1.706,2.773c-0.354,0.464-0.578,0.856-0.74,1.196
						c-0.093-0.886-0.307-1.846-0.804-2.053c-0.15-0.063-0.401-0.089-0.735,0.143c-0.023,0.016-0.047,0.039-0.07,0.057
						c1.147-1.306,3.902-5.538,5.286-8.615c-0.148-0.166-0.293-0.335-0.433-0.51c-1.666,3.91-5.788,9.383-6.72,10.785
						c-0.312,0.47-0.554,0.834-0.713,1.081c-0.814,1.262-0.299,3.762,3.831,6.655c0.305,0.214,0.618,0.411,0.937,0.588
						c3.031,1.693,6.66,1.792,10.44,0.188c1.04-0.44,12.855-4.568,15.174-6.161c5.625-3.86,11.713-9.305,14.666-12.406
						c2.019-2.12,4.467-5.73,6.143-8.322c2.083-2.945,4.056-6.247,5.798-9.963c1.613,1.705,2.512,4.239,2.512,4.239
						c-0.039-0.276-0.491-4.17-2.839-5.615c-2.346-1.443-6.929,0.424-7.106,0.482c0,0,4.147-1.031,6.309-0.049
						c-5.431,6.309-15.67,15.063-20.65,16.786c-2.072,0.717-17.873,5.989-22.409,4.447c-4.046-1.376-9.364-6.855-12.17-11.356
						c-1.445-2.319-2.814-3.564-3.915-4.564c-0.932-0.847-1.605-1.459-1.907-2.365c-0.561-1.68,0.196-5.481,0.456-6.667
						c0.414,0.102,0.847,0.167,1.312,0.167c2.645,0,5.992-1.527,8.552-3.189c3.321-2.158,6.96-5.609,7.211-8.827
						c0.126-1.599-0.496-3.125-1.851-4.538c-2.166-2.26,3.629-6.885,1.025-7.477c1.537-0.457,4.283-1.32,5.96-2.128
						c2.161-1.04,5.947-3.037,7.034-4.732c1.505-2.345,2.502-4.951,2.672-7.804c0.137-2.298-0.696-4.516-0.696-4.516
						c0.039,0.405,0.054,0.812,0.068,1.219c-0.614-0.362-2.577,0.312-4.4,2.187c-2.114,2.174-2.554,4.013-2.36,5.517
						c0.2,1.563,2.056,3.332,3.388,3.761c-1.121,1.041-8.857,5.145-11.667,6.497c-1.096,0.528-2.896,1.148-4.497,1.658
						c0.137-1.902,6.11-8.373,7.564-9.979c0.686-0.758,1.536-1.483,2.285-2.124c0.811-0.695,1.512-1.294,1.929-1.843
						c1.427-1.889,2.32-3.937,3.353-6.307c0.314-0.718,0.64-1.464,0.995-2.243c0.999-2.179,3.537-2.914,5.419-2.367
						c1.928,0.561,3.938,3.331,3.938,3.331c-0.056-0.132-1.333-3.107-3.434-3.949c1.366-0.514,4.913-1.852,6.614-2.526
						c1.945-0.771,4.688-1.606,8.667-1.231c2.448,0.232,5.33,1.325,6.926,1.972c-0.69,0.291-2.308,0.564-2.308,0.564
						c0.029,0,4.323,0.05,6.967,0.358c1.417,0.166,6.429,1.025,11.348,5.144c3.665,3.067,7.122,7.289,8.056,8.458
						c-2.807-0.245-5.683-0.433-5.889-0.446c0,0,8.671,1.322,10.723,1.772c2.302,0.505,4.685,1.454,6.522,4.939
						c0.797,1.512,1.332,4.224,1.901,7.094c0.849,4.302,1.813,9.176,3.973,12.294c0,0-0.937-2.401-1.323-4.545
						c1.012,1.731,2.398,3.829,3.708,4.881 M25.438,125.558c0.016-0.116,0.132-0.211,0.252-0.198
						c0.611,0.067,1.345,0.329,1.917,0.628c0.083,0.043,0.126,0.139,0.102,0.229c-0.278,1.004-1.151,1.913-1.787,1.628
						C25.515,127.662,25.262,126.888,25.438,125.558z M23.236,124.121c0.038-0.115,0.175-0.178,0.286-0.133
						c0.511,0.208,1.11,0.622,1.591,1.045c-0.04,0.255-0.125,0.789-0.131,1.359c-0.257,0.231-1.016,0.685-1.54,0.48
						C23.051,126.72,22.869,125.233,23.236,124.121z M21.51,122.698c0.042-0.091,0.152-0.142,0.239-0.097
						c0.421,0.213,0.838,0.58,1.174,0.998l-0.019,0.075c-0.065,0.251-0.246,0.997-0.282,1.748c-0.309,0.118-0.904,0.279-1.329-0.042
						C20.719,124.945,21.141,123.524,21.51,122.698z M20.708,124.171c-0.321,0.045-0.862,0.08-1.16-0.144
						c-0.418-0.313-0.021-1.555,0.552-2.596c0.045-0.083,0.16-0.119,0.248-0.072c0.347,0.186,0.663,0.526,0.963,0.947
						C21.119,122.756,20.834,123.488,20.708,124.171z M20.501,118.312c0.45,0.101,0.589,2.19,0.585,3.16
						c-0.279-0.275-0.561-0.477-0.861-0.548c-0.091-0.021-0.261,0.032-0.301,0.106c-0.23,0.417-0.525,0.974-0.716,1.518
						c-0.262,0.052-0.751,0.098-0.957-0.348C17.899,121.438,20.008,118.2,20.501,118.312z M21.546,127.013
						c-4.041-2.832-3.897-4.244-3.817-4.871c0.022,0.298,0.155,0.539,0.383,0.694c0.023,0.017,0.048,0.031,0.074,0.046
						c0.318,0.177,0.667,0.132,0.901,0.071c-0.135,0.549-0.113,1.043,0.256,1.306c0.411,0.294,0.912,0.234,1.325,0.179
						c-0.064,0.529-0.005,0.996,0.307,1.226c0.052,0.039,0.105,0.073,0.159,0.102c0.529,0.296,1.094,0.176,1.484,0.017
						c0.013,0.619,0.155,1.191,0.578,1.426c0.033,0.019,0.069,0.035,0.106,0.051c0.675,0.261,1.291-0.012,1.704-0.304
						c0.058,0.538,0.226,1.03,0.621,1.251c0.042,0.023,0.085,0.043,0.131,0.06c0.796,0.291,1.564-0.393,2.058-1.067
						c0.104,0.531,0.438,1.096,0.872,1.438c0.025,0.019,0.051,0.033,0.076,0.05C26.117,129.04,23.655,128.487,21.546,127.013z
						 M31.368,127.204c-0.108,0.703-0.736,1.263-1.892,1.373c-0.14-0.029-0.271-0.108-0.367-0.182
						c-0.382-0.301-0.828-1.122-0.828-1.55c-0.001-0.646,1.543-3.635,2.184-3.47C31.105,123.541,31.557,125.962,31.368,127.204z
						 M47.402,121.458c-0.435,0.284-12.266,5.281-15.625,6.459c0.726-0.271,14.72-6.541,16.09-9.084
						c1.148-2.13,4.769-5.672,7.723-7.254c1.923-1.031,4.415-2.076,6.606-2.893C58.983,111.951,52.437,118.169,47.402,121.458z
						 M37.666,52.009c-0.144-3.05,2.91-6.416,5.517-6.523c0.316-0.013,0.54,0.054,0.694,0.126c0.017,3.649-0.908,7.269-2.697,10.057
						c-0.072,0.114-0.176,0.236-0.284,0.36C40.063,55.684,37.784,54.514,37.666,52.009z M11.393,93.68
						c-0.642,0.512-1.574,1.526-2.379,2.367c-0.84,0.878-2.221,2.322-2.698,2.441C5.832,97.23,3.757,88.771,4.21,85.691
						c0.352-2.403,2.167-6.409,2.994-8.146c0.173,1.468,0.494,2.961,0.964,4.279c0.869,2.428,2.139,4.048,3.681,4.736
						C11.592,87.71,10.768,91.754,11.393,93.68z M27.25,70.937c1.199,1.25,1.751,2.581,1.644,3.955
						c-0.19,2.425-2.886,5.664-6.87,8.251c-3.78,2.456-7.555,3.571-9.611,2.843c-1.849-0.655-2.942-2.764-3.534-4.417
						c-1.381-3.863-2.417-12.311,5.249-13.087c3.045-0.309,11.174-5.01,12.567-5.059C28.666,63.347,24.501,68.068,27.25,70.937z"/>
					<path fill="#381000" d="M59.408,103.65c0,0,6.155-4.627,8.346-6.861c2.191-2.233,5.933-6.202,5.933-6.202l0.367,0.199
						c0,0-1.79,3.955-3.369,6.672c-1.579,2.716-5.448,8.222-6.529,9.658C64.155,107.117,62.197,103.689,59.408,103.65z"/>
					<path fill="#381000" d="M76.136,86.636c-2.249-1.54-5.366-1.621-5.366-1.621s3.161-0.233,5.661,1.327
						c1.512,0.944,2.551,4.135,2.551,4.135S77.753,87.744,76.136,86.636z"/>
				</g>
			</g>
			<path fill="#424141" d="M85.692,62.997c1.374-3.595-0.629-8.331,0.858-11.773c1.534-3.552,5.308-4.451,7.679-7.001
				c10.022-10.781,10.48-9.899,18.029-21.77c1.069,20.167,8.736,24.836,6.183,45.221c-0.954,7.612-17.079,29.773-26.511,19.496"/>
			<path fill="#C5A771" d="M85.692,62.997c1.374-3.595-0.629-8.331,0.858-11.773c1.534-3.552,4.761,3.275,7.132,0.726
				c10.023-10.782,8.39-5.585,15.938-17.456c1.069,20.167,6.396,20.859,3.841,41.244c-0.954,7.612-12.1,21.709-21.532,11.432"/>
			<path fill="#424141" d="M80.531,108.521"/>
			<path fill="#424141" d="M32.554,64.073c-6.926-1.575-1.969,9.467-4.865,6.445c-1.324-1.38,1.931,2.867,1.809,4.421
				c-0.248,3.163-3.852,6.574-7.144,8.712c-3.05,1.982-6.216,3.165-8.469,3.165c-0.413,0-0.83-0.053-1.276-0.163l-0.15-0.037
				l-0.033,0.151c-0.252,1.147-1.028,5.022-0.451,6.747c0.312,0.941,0.997,1.564,1.949,2.43c1.094,0.994,2.455,2.231,3.887,4.53
				c2.821,4.525,8.173,10.034,12.25,11.42c1.069,0.364,2.317,0.547,3.707,0.547c0.001,0,0,0,0.001,0
				c3.808,0,17.295-4.475,18.8-4.994c4.992-1.726,15.235-10.464,20.715-16.831l0.132-0.153l0.847,0.705l-0.106,0.229
				c-1.463,3.121-5.656,9.48-7.838,12.697c-3.721,5.483-11.036,12.179-16.943,16.489c-4.016,2.93-17.797,8.415-21.159,8.67
				c-5.716,0.435-9.182-3.505-10.158-5.05c-1.029-1.629-0.858-2.364-0.391-3.274c0.419-0.814,2.929-4.295,4.381-6.37
				c1.452-2.074,2.772-4.964,2.772-4.964l-1.653-1.662c-0.343,1.399-1.709,4.312-2.479,5.735c-0.768,1.424-3.584,5.288-4.461,6.572
				c-0.876,1.284-1.382,1.306-1.899,3.623c-0.342,1.541,0.513,3.634,2.098,5.215c1.478,1.476,9.267,3.638,12.911,4.27
				c3.645,0.632,4.398-1.615,4.398-1.615c2.121-1.228,13.637-5.734,15.616-7.13c1.767-1.067,3.974-2.512,6.149-3.937
				c0.146-0.096,0.302-0.198,0.461-0.301c1.352-0.774,2.555-1.403,2.555-1.403s0.554-0.37,1.421-1.113
				c1.81-1.116,3.547-2.14,4.447-2.557c1.771-0.821,16.663-24.891,10.491-27.555C65.411,83.655,65.996,83.503,32.554,64.073z"/>
			<path fill="#424141" d="M44.015,45.064"/>
			<path fill="#A17C72" d="M97.388,66.896c0.032-5.605,0.279-9.563,3.271-14.032c2.54-3.792,6.91-6.343,6.825-11.521
				c1.717,5.811,13.75,42.549-2.145,37.91c-3.025-4.828-5.555-9.463-8.731-13.917"/>
			<g>
				<g>
					<path fill="#424141" d="M89.143,55.452c0.005,0,0.533,15.516,5.304,22.715c0.207,0.313,0.714,0.141,0.505-0.174
						c-4.71-7.108-5.219-14.541-5.224-22.541C89.727,54.452,89.143,54.452,89.143,55.452C89.143,55.452,89.143,54.452,89.143,55.452
						z"/>
				</g>
			</g>
			<g>
				<g>
					<path fill="#424141" d="M89.132,50.213c-0.212-1.179-0.082-2.338,0.796-3.216c0.912-0.912,2.385-1.076,3.602-1.092
						c0.377-0.005,0.377-0.59,0-0.585c-1.497,0.021-3.048,0.297-4.146,1.394c-0.962,0.962-1.043,2.392-0.815,3.654
						C88.635,50.739,89.198,50.582,89.132,50.213L89.132,50.213z"/>
				</g>
			</g>
			<g>
				<g>
					<path fill="#424141" d="M51.673,36.987c2.278-4.388,5.299-8.324,7.534-12.734c0.766-1.511,2.252-4.611,2.093-5.711
						c0.466,3.208,1.002,6.406,1.535,9.603c0.062,0.372,0.625,0.213,0.563-0.155c-0.616-3.7-1.215-7.4-1.754-11.112
						c-0.042-0.291-0.503-0.269-0.563,0c-1.684,7.543-6.436,13.116-9.912,19.814C50.995,37.026,51.5,37.322,51.673,36.987
						L51.673,36.987z"/>
				</g>
			</g>
		</g>
		<g>
			<g>
				<g>
					<path fill="#261954" d="M41.981,65.834c-3.725-1.242-14.589-1.242-14.589-1.242s-6.104-1.655-1.138-13.864
						c4.966-12.21,12.594-10.303,12.594-10.303s49.28,14.442,49.28,18.374c0,3.932,2.483,2.379,1.448,6.415
						c-1.034,4.035-6.208,7.657-6.208,7.657s-4.138,4.656-11.277,4.242c-7.139-0.414-15.002-3.245-15.002-3.245
						S45.706,67.076,41.981,65.834z M81.816,56.988c-2.173-4.501-33.834-14.745-43.146-13.813c-3.788-0.621-9.002,6.519-9.002,6.519
						s-4.413,12.161,1.795,10.92c6.208-1.242,10.015-0.01,17.657,2.324c7.14,3.104,8.485,6.933,14.382,7.864
						c5.897,0.932,13.968,2.484,18.314-6.519C81.816,64.282,83.989,61.489,81.816,56.988z"/>
					<path fill="#FB867A" stroke="#050F28" stroke-width="0.6208" stroke-miterlimit="10" d="M85.645,66.145
						c-7.966,8.795-13.781,8.211-20.75,7.111c-6.969-1.101-10.856-5.201-19.292-8.87c-9.03-2.758-9.374-2.708-16.71-1.242
						c-7.336,1.468-0.879-14.589-0.879-14.589s5.87-8.823,10.345-8.089c11.003-1.1,46.484,8.498,48.179,16.468
						C86.783,59.212,88.212,62.844,85.645,66.145z M81.816,56.988c-2.173-4.501-33.834-14.745-43.146-13.813
						c-3.788-0.621-9.002,6.519-9.002,6.519s-4.413,12.161,1.795,10.92c6.208-1.242,10.015-0.01,17.657,2.324
						c7.14,3.104,8.485,6.933,14.382,7.864c5.897,0.932,13.968,2.484,18.314-6.519C81.816,64.282,83.989,61.489,81.816,56.988z"/>
				</g>
				<path fill="#261954" d="M75.498,76.314l32.274,15.236c0,0,1.16-2.308,0-5.036c-19.328-4.088-27.325-11.929-27.325-11.929
					L75.498,76.314z"/>
			</g>
			<path opacity="0.3" fill="#FFFFFF" d="M81.816,56.988c-2.173-4.501-33.834-14.745-43.146-13.813
				c-3.788-0.621-9.002,6.519-9.002,6.519s-4.413,12.161,1.795,10.92c6.208-1.242,10.015-0.01,17.657,2.324
				c7.14,3.104,8.485,6.933,14.382,7.864c5.897,0.932,13.968,2.484,18.314-6.519C81.816,64.282,83.989,61.489,81.816,56.988z"/>
		</g>
	</g>
</g>
</svg>
