<?xml version="1.0" encoding="utf-8"?>
<!-- Generator: Adobe Illustrator 16.0.0, SVG Export Plug-In . SVG Version: 6.00 Build 0)  -->
<!DOCTYPE svg PUBLIC "-//W3C//DTD SVG 1.1//EN" "http://www.w3.org/Graphics/SVG/1.1/DTD/svg11.dtd">
<svg version="1.1" id="icons" xmlns="http://www.w3.org/2000/svg" xmlns:xlink="http://www.w3.org/1999/xlink" x="0px" y="0px"
	 width="57.334px" height="61.333px" viewBox="0 0 57.334 61.333" enable-background="new 0 0 57.334 61.333" xml:space="preserve">
<g id="IshmZz.tif">
	<g>
		<path fill-rule="evenodd" clip-rule="evenodd" fill="#505050" d="M48.531,8.356c0.196-0.249,0.573-0.355,0.865-0.527
			c0.066,0.338,0.245,0.699,0.181,1.01c-0.446,2.139-1.238,4.141-2.479,5.957c-0.244,0.356-0.426,0.779-0.541,1.197
			c-0.869,3.161-2.734,5.742-4.826,8.165c-0.562,0.65-1.399,1.088-2.161,1.536c-0.684,0.401-1.438,0.683-2.28,1.071
			c2.174,2.494,4.641,4.43,7.705,5.396c1.149,0.362,2.482,0.142,3.731,0.193c0.282,0.012,0.563,0.053,0.845,0.08
			c-0.032,0.285,0.042,0.67-0.115,0.839c-0.59,0.636-1.255,1.201-1.985,1.88c0.734-0.036,1.463-0.091,2.193-0.1
			c0.366-0.005,0.734,0.07,1.102,0.109c-0.214,0.342-0.353,0.866-0.655,0.991c-1.227,0.507-2.504,0.891-3.8,1.333
			c-0.023-0.135-0.01-0.069-0.002-0.004c0.051,0.431,0.101,0.86,0.151,1.291c-0.377-0.16-0.771-0.289-1.128-0.484
			c-1.079-0.589-2.08-1.478-3.229-1.743c-1.92-0.444-3.926-0.567-5.904-0.693c-2.431-0.154-4.886-0.024-7.301-0.287
			c-3.288-0.356-6.372-1.408-8.04-4.563c-0.864-1.636-1.463-3.464-1.87-5.276c-0.45-2.001-0.588-4.079-0.774-6.131
			c-0.113-1.247-0.715-2.083-1.826-2.511c-1.181-0.454-2.411-0.775-3.61-1.184c-0.229-0.078-0.496-0.251-0.587-0.451
			c-0.058-0.128,0.14-0.527,0.286-0.566c1.301-0.348,2.036-1.369,2.879-2.281c0.222-0.238,0.571-0.382,0.886-0.508
			c2.886-1.146,6.513,0.445,7.71,3.301c0.446,1.066,1.007,2.105,1.66,3.057c0.571,0.832,1.439,1.327,2.306,1.307
			c0.453-1.766,0.753-3.461,1.333-5.055c0.602-1.652,1.921-2.542,3.688-2.953c1.477-0.342,3.03-0.793,4.268-1.618
			c1.695-1.132,3.116-2.673,4.676-4.015c0.327-0.281,0.746-0.457,1.123-0.682c-0.001,0.434,0.122,0.913-0.021,1.292
			c-0.813,2.148-1.691,4.272-2.618,6.581C43.53,12.214,46.446,10.99,48.531,8.356z M23.049,15.983
			c-0.918-2.436-3.449-3.676-6.005-3.069c-1.28,0.304-1.796,1.238-2.172,2.356c0.8,0.367,1.623,0.698,2.4,1.115
			c1.131,0.605,1.773,1.543,1.931,2.859c0.3,2.523,0.554,5.062,1.05,7.548c0.625,3.131,2.124,5.729,5.306,6.95
			c2.09,0.802,4.285,1.068,6.51,1.086c1.685,0.014,3.369-0.019,5.054-0.023c2.497-0.008,4.936,0.277,7.176,1.496
			c0.703-1.731,1.693,0.341,2.476-0.292c-0.474-0.263-0.994-0.493-1.441-0.823c-0.24-0.177-0.354-0.527-0.523-0.799
			c0.288-0.12,0.566-0.293,0.866-0.35c0.52-0.098,1.054-0.123,1.575-0.263c-3.14-0.374-5.774-1.711-8.012-3.877
			c-0.924-0.896-1.769-1.887-2.77-2.682c-0.438-0.349-1.185-0.299-1.78-0.465c-0.304-0.086-0.583-0.252-0.874-0.381
			c0.291-0.159,0.581-0.452,0.875-0.457c2.742-0.04,5.099-0.922,6.92-3.039c0.106-0.124,0.197-0.261,0.18-0.237
			c-0.98,0-2.023,0.049-3.058-0.029c-0.316-0.024-0.606-0.399-0.908-0.613c0.333-0.129,0.679-0.395,0.996-0.364
			c3.04,0.288,5.402-1.407,6.183-4.47c-0.883,0.379-1.763,0.822-2.689,1.119c-0.311,0.1-0.74-0.172-1.116-0.273
			c0.282-0.23,0.53-0.578,0.853-0.674c2.685-0.804,5.426-3.898,5.766-6.671c-3.433,2.737-7.456,3.836-11.568,4.745
			c-2.184,0.481-4.157,1.439-5.743,3.064c-1.577,1.613-2.413,3.557-2.542,5.819c-0.018,0.302-0.316,0.588-0.485,0.881
			c-0.172-0.314-0.518-0.646-0.485-0.939c0.121-1.114,0.364-2.215,0.575-3.393C25.074,20.203,23.905,18.257,23.049,15.983z
			 M37.466,14.076c0.994-0.173,1.604-0.629,1.987-1.526c0.546-1.275,1.133-2.535,1.702-3.801c-0.074-0.045-0.148-0.09-0.222-0.133
			c-0.335,0.285-0.666,0.574-1.004,0.854c-2.062,1.712-4.247,3.14-7.03,3.392c-1.092,0.098-1.947,0.769-2.417,1.738
			c-0.5,1.029-0.832,2.14-1.238,3.215c0.109,0.051,0.219,0.103,0.327,0.154C31.722,15.685,34.471,14.597,37.466,14.076z"/>
		<path fill-rule="evenodd" clip-rule="evenodd" fill="#505050" d="M27.221,45.835c3.608,1.124,7.227,2.218,10.819,3.392
			c0.952,0.312,1.725,0.27,2.62-0.209c3.332-1.783,6.706-3.489,10.068-5.217c0.971-0.499,1.936-0.482,2.808,0.211
			c0.797,0.635,1.202,1.549,0.808,2.471c-0.299,0.696-0.895,1.426-1.552,1.783c-3.625,1.965-7.289,3.858-10.986,5.682
			c-0.829,0.409-1.842,0.594-2.776,0.614c-2.956,0.063-5.92-0.115-8.871,0.02c-3.058,0.139-5.921-0.326-8.662-1.715
			c-1.313-0.665-2.715-1.172-4.108-1.653c-0.463-0.16-1.09-0.173-1.539,0.006c-3.13,1.24-6.239,2.534-9.339,3.85
			c-0.609,0.259-1.086,0.244-1.412-0.33c-0.638-1.126-1.412-2.22-1.797-3.433c-0.84-2.644-0.42-5.297,0.326-7.92
			c0.219-0.769,0.629-1.046,1.384-1.077c0.961-0.04,1.918-0.165,2.876-0.259c2.354-0.23,4.704-0.366,6.857-1.589
			c1.517-0.862,3.203-1.422,4.758-2.226c1.213-0.626,2.477-0.694,3.709-0.414c4.39,0.999,8.761,2.077,13.128,3.171
			c1.389,0.348,2.105,1.612,1.797,2.923c-0.298,1.262-1.587,2.057-2.953,1.779c-0.875-0.178-1.737-0.419-2.605-0.631
			c-2.229-0.542-4.46-1.083-6.697-1.626C25.585,45.326,25.585,45.326,27.221,45.835z M39.078,53.53
			c0.8-0.029,1.659-0.203,2.369-0.557c3.567-1.775,7.095-3.631,10.635-5.461c0.243-0.126,0.506-0.235,0.712-0.41
			c0.58-0.49,0.847-1.102,0.46-1.825c-0.405-0.756-1.07-0.92-1.849-0.651c-0.289,0.1-0.555,0.27-0.83,0.411
			c-3.419,1.764-6.829,3.546-10.268,5.271c-0.438,0.22-1.072,0.318-1.528,0.182c-4.31-1.292-8.595-2.666-12.902-3.967
			c-0.893-0.271-1.165-0.749-1.157-1.645c0.026-2.795-0.002-2.799,2.677-2.148c2.537,0.616,5.071,1.248,7.609,1.859
			c1.163,0.279,1.957-0.102,2.131-0.984c0.167-0.85-0.342-1.458-1.48-1.735c-3.972-0.968-7.947-1.919-11.916-2.898
			c-1.488-0.367-2.89-0.314-4.285,0.421c-1.305,0.688-2.737,1.142-4.011,1.877c-2.382,1.375-4.993,1.62-7.633,1.821
			c-0.446,0.034-0.891,0.077-1.334,0.131c-1.868,0.226-1.886,0.224-2.257,2.133c-0.539,2.772-0.492,5.465,1.062,7.973
			c0.425,0.685,0.823,0.811,1.58,0.484c2.934-1.265,5.906-2.438,8.844-3.691c0.659-0.281,1.208-0.265,1.856,0.009
			c2.31,0.975,4.624,1.944,6.974,2.817c0.876,0.325,1.848,0.492,2.784,0.533c1.854,0.081,3.713,0.024,5.569,0.024
			c0,0.018,0,0.034,0,0.052C34.953,53.556,37.019,53.606,39.078,53.53z"/>
		<path fill-rule="evenodd" clip-rule="evenodd" fill="#505050" d="M27.565,20.84c-2.491-0.637-3.66-2.583-4.517-4.856
			c-0.918-2.436-3.449-3.676-6.005-3.069c-1.28,0.304-1.796,1.238-2.172,2.356c0.8,0.367,1.623,0.698,2.4,1.115
			c1.131,0.605,1.773,1.543,1.931,2.859c0.3,2.523,0.554,5.062,1.05,7.548c0.625,3.131,2.124,5.729,5.306,6.95
			c2.09,0.802,4.285,1.068,6.51,1.086c1.685,0.014,3.369-0.019,5.054-0.023c2.497-0.008,4.936,0.277,7.176,1.496
			c0.703-1.731,1.693,0.341,2.476-0.292c-0.474-0.263-0.994-0.493-1.441-0.823c-0.24-0.177-0.354-0.527-0.523-0.799
			c0.288-0.12,0.566-0.293,0.866-0.35c0.52-0.098,1.054-0.123,1.575-0.263c-3.14-0.374-5.774-1.711-8.012-3.877
			c-0.924-0.896-1.769-1.887-2.77-2.682c-0.438-0.349-1.185-0.299-1.78-0.465c-0.304-0.086-0.583-0.252-0.874-0.381
			c0.291-0.159,0.581-0.452,0.875-0.457c2.742-0.04,5.099-0.922,6.92-3.039c0.106-0.124,0.197-0.261,0.18-0.237
			c-0.98,0-2.023,0.049-3.058-0.029c-0.316-0.024-0.606-0.399-0.908-0.613c0.333-0.129,0.679-0.395,0.996-0.364
			c3.04,0.288,5.402-1.407,6.183-4.47c-0.883,0.379-1.763,0.822-2.689,1.119c-0.311,0.1-0.74-0.172-1.116-0.273
			c0.282-0.23,0.53-0.578,0.853-0.674c2.685-0.804,5.426-3.898,5.766-6.671c-3.433,2.737-7.456,3.836-11.568,4.745
			c-2.184,0.481-4.157,1.439-5.743,3.064c-1.577,1.613-2.413,3.557-2.542,5.819c-0.018,0.302-0.316,0.588-0.485,0.881
			c-0.172-0.314-0.518-0.646-0.485-0.939C27.111,23.118,27.354,22.018,27.565,20.84z"/>
		<path fill-rule="evenodd" clip-rule="evenodd" fill="#505050" d="M29.571,17.97c2.15-2.285,4.899-3.373,7.895-3.894
			c0.994-0.173,1.604-0.629,1.987-1.526c0.546-1.275,1.133-2.535,1.702-3.801c-0.074-0.045-0.148-0.09-0.222-0.133
			c-0.335,0.285-0.666,0.574-1.004,0.854c-2.062,1.712-4.247,3.14-7.03,3.392c-1.092,0.098-1.947,0.769-2.417,1.738
			c-0.5,1.029-0.832,2.14-1.238,3.215C29.354,17.866,29.463,17.918,29.571,17.97z"/>
		<path fill-rule="evenodd" clip-rule="evenodd" fill="#505050" d="M32.891,53.556c2.062,0,4.128,0.051,6.188-0.025
			c0.8-0.029,1.659-0.203,2.369-0.557c3.567-1.775,7.095-3.631,10.635-5.461c0.243-0.126,0.506-0.235,0.712-0.41
			c0.58-0.49,0.847-1.102,0.46-1.825c-0.405-0.756-1.07-0.92-1.849-0.651c-0.289,0.1-0.555,0.27-0.83,0.411
			c-3.419,1.764-6.829,3.546-10.268,5.271c-0.438,0.22-1.072,0.318-1.528,0.182c-4.31-1.292-8.595-2.666-12.902-3.967
			c-0.893-0.271-1.165-0.749-1.157-1.645c0.026-2.795-0.002-2.799,2.677-2.148c2.537,0.616,5.071,1.248,7.609,1.859
			c1.163,0.279,1.957-0.102,2.131-0.984c0.167-0.85-0.342-1.458-1.48-1.735c-3.972-0.968-7.947-1.919-11.916-2.898
			c-1.488-0.367-2.89-0.314-4.285,0.421c-1.305,0.688-2.737,1.142-4.011,1.877c-2.382,1.375-4.993,1.62-7.633,1.821
			c-0.446,0.034-0.891,0.077-1.334,0.131c-1.868,0.226-1.886,0.224-2.257,2.133c-0.539,2.772-0.492,5.465,1.062,7.973
			c0.425,0.685,0.823,0.811,1.58,0.484c2.934-1.265,5.906-2.438,8.844-3.691c0.659-0.281,1.208-0.265,1.856,0.009
			c2.31,0.975,4.624,1.944,6.974,2.817c0.876,0.325,1.848,0.492,2.784,0.533c1.854,0.081,3.713,0.024,5.569,0.024
			C32.891,53.521,32.891,53.538,32.891,53.556z"/>
	</g>
</g>
</svg>
