<?xml version="1.0" encoding="utf-8"?>
<!-- Generator: Adobe Illustrator 16.0.0, SVG Export Plug-In . SVG Version: 6.00 Build 0)  -->
<!DOCTYPE svg PUBLIC "-//W3C//DTD SVG 1.1//EN" "http://www.w3.org/Graphics/SVG/1.1/DTD/svg11.dtd">
<svg version="1.1" id="icons" xmlns="http://www.w3.org/2000/svg" xmlns:xlink="http://www.w3.org/1999/xlink" x="0px" y="0px"
	 width="57.334px" height="61.333px" viewBox="0 0 57.334 61.333" enable-background="new 0 0 57.334 61.333" xml:space="preserve">
<g id="VtMFnV.tif">
	<g>
		<path fill-rule="evenodd" clip-rule="evenodd" fill="#505050" d="M3.788,50.452c-1.014,0.014-0.948-0.641-0.948-1.291
			c0.002-5.331,0.009-10.663,0.017-15.993c0-0.552,0.019-1.104-0.003-1.654c-0.024-0.617,0.24-0.909,0.861-0.907
			c2.573,0.005,5.146,0.001,7.72,0.001c0.593,0,0.915,0.252,0.886,0.89c-0.023,0.536-0.005,1.076-0.005,1.737
			c0.341-0.168,0.574-0.238,0.756-0.378c3.351-2.578,7.04-2.673,10.906-1.5c0.177,0.054,0.364,0.07,0.531,0.145
			c0.864,0.383,1.489,0.158,2.287-0.409c1.007-0.717,2.288-1.052,3.679-1.65c0-1.19,0-2.68,0-4.17
			c-0.001-3.339-0.02-6.679,0.01-10.019c0.006-0.691-0.133-0.966-0.903-0.953c-2.935,0.048-5.872,0.02-8.962,0.02
			c0.156,0.346,0.241,0.588,0.367,0.807c1.159,2.016,2.308,4.038,3.503,6.033c0.424,0.709,0.511,1.396,0.324,2.189
			c-0.595,2.524-2.866,4.406-5.261,4.314c-2.775-0.11-5.031-2.052-5.382-4.727c-0.066-0.502,0.061-1.114,0.306-1.56
			c1.41-2.541,2.899-5.037,4.321-7.571c0.306-0.544,0.69-0.683,1.262-0.68c3.096,0.018,6.19,0.008,9.284,0.007
			c0.333,0,0.664,0,1.111,0c0-0.929,0.039-1.779-0.029-2.623c-0.017-0.201-0.365-0.436-0.609-0.552
			c-1.675-0.794-2.449-2.432-1.899-4.084c0.556-1.674,2.138-2.556,3.928-2.188c1.248,0.258,2.287,1.405,2.487,2.748
			c0.198,1.338-0.495,2.844-1.746,3.343c-0.823,0.326-1.014,0.798-0.945,1.572c0.047,0.543,0.008,1.093,0.008,1.786
			c0.5,0,0.913,0,1.327,0c3.033,0.001,6.066,0.017,9.1-0.011c0.635-0.007,1.009,0.219,1.315,0.762
			c1.312,2.315,2.578,4.664,4.016,6.898c0.845,1.315,0.621,2.529,0.065,3.735c-1.044,2.264-3.742,3.47-6.15,2.869
			c-2.296-0.573-3.94-2.447-4.136-4.808c-0.035-0.419,0.139-0.905,0.349-1.284c1.154-2.052,2.352-4.08,3.528-6.12
			c0.128-0.225,0.221-0.472,0.374-0.805c-3.304,0-6.475,0-9.726,0c-0.02,0.287-0.057,0.553-0.057,0.818
			c-0.006,4.503,0.008,9.006-0.02,13.51c-0.005,0.775,0.235,1.091,1.024,1.294c1.751,0.45,3.233,1.323,3.743,3.259
			c0.044,0.161,0.156,0.333,0.286,0.44c1.393,1.161,1.741,2.538,0.785,4.083c-0.636,1.03-1.546,1.892-2.475,2.995
			c1.054-0.202,2.084-0.273,3.024-0.606c3.665-1.296,7.294-2.695,10.95-4.017c2.729-0.985,5.337,0.794,5.515,3.69
			c0.08,1.335-0.588,2.22-1.646,2.854c-1.547,0.929-3.092,1.87-4.698,2.69c-3.077,1.57-6.179,3.098-9.305,4.566
			c-1.596,0.748-3.319,0.96-5.099,0.972c-5.044,0.033-9.896-1.118-14.765-2.219c-1.909-0.433-3.844-0.751-5.77-1.114
			c-0.26-0.048-0.527-0.054-0.887-0.088c0,0.714-0.017,1.353,0.003,1.989c0.022,0.642-0.218,0.964-0.904,0.959 M12.32,46.181
			c2.148,0.414,4.157,0.809,6.168,1.19c3.844,0.732,7.671,1.601,11.545,2.143c2.868,0.4,5.849,0.623,8.575-0.754
			c4.556-2.3,9.081-4.665,13.578-7.08c1.315-0.707,1.458-1.867,0.66-3.224c-0.746-1.266-1.967-1.735-3.379-1.222
			c-3.709,1.351-7.403,2.747-11.12,4.086c-0.708,0.254-1.479,0.405-2.229,0.459c-3.684,0.26-7.214-0.875-10.828-1.272
			c-0.228-0.026-0.416-0.411-0.621-0.628c0.276-0.17,0.569-0.508,0.825-0.48c1.49,0.155,2.971,0.399,4.457,0.605
			c1.423,0.197,2.838,0.139,4.133-0.514c1.486-0.748,2.594-1.843,2.663-3.651c0.025-0.658-0.247-1.062-0.969-1.03
			c-3.489,0.154-6.775-0.817-10.092-1.719c-2.085-0.566-4.228-1.032-6.373-1.236c-2.653-0.253-4.669,1.423-6.744,2.772
			c-0.14,0.092-0.238,0.356-0.238,0.54C12.318,38.84,12.32,42.513,12.32,46.181z M11.049,49.199c0-5.823,0-11.56,0-17.401
			c-2.04,0-4.022,0.045-6.001-0.02c-0.83-0.027-1.022,0.231-1.018,1.029c0.034,5.14,0.019,10.28,0.02,15.418c0,0.3,0,0.6,0,0.974
			C6.412,49.199,8.688,49.199,11.049,49.199z M38.806,21.453c2.586,0,4.985,0,7.542,0c-1.275-2.21-2.482-4.3-3.76-6.514
			C41.286,17.183,40.08,19.26,38.806,21.453z M15.769,21.499c2.559,0,4.945,0,7.511,0c-1.272-2.205-2.474-4.287-3.755-6.504
			C18.233,17.229,17.047,19.286,15.769,21.499z M15.42,22.782c0.197,2.082,1.993,3.585,4.181,3.561
			c2.044-0.023,3.856-1.605,4.008-3.561C20.879,22.782,18.152,22.782,15.42,22.782z M38.479,22.703
			c0.083,2.098,2.247,3.85,4.561,3.61c1.967-0.202,3.708-1.956,3.553-3.61C43.905,22.703,41.218,22.703,38.479,22.703z
			 M33.166,6.833c-0.021-1.157-0.963-2.056-2.143-2.04c-1.148,0.013-2.114,0.988-2.085,2.104c0.029,1.172,1.052,2.157,2.196,2.117
			C32.243,8.976,33.186,7.963,33.166,6.833z M35.164,33.601c-0.288-1.302-1.287-2.098-2.961-2.458
			c-1.951-0.424-3.975,0.046-4.81,1.158C29.914,33.083,32.439,33.663,35.164,33.601z"/>
		<path fill-rule="evenodd" clip-rule="evenodd" fill="#505050" d="M12.32,46.181c0-3.668-0.002-7.341,0.011-11.015
			c0-0.184,0.099-0.448,0.238-0.54c2.075-1.35,4.091-3.025,6.744-2.772c2.146,0.204,4.288,0.67,6.373,1.236
			c3.316,0.901,6.603,1.873,10.092,1.719c0.722-0.032,0.994,0.372,0.969,1.03c-0.069,1.809-1.177,2.903-2.663,3.651
			c-1.295,0.652-2.71,0.711-4.133,0.514c-1.486-0.206-2.967-0.45-4.457-0.605c-0.256-0.027-0.549,0.311-0.825,0.48
			c0.205,0.217,0.394,0.602,0.621,0.628c3.614,0.397,7.145,1.532,10.828,1.272c0.751-0.054,1.521-0.205,2.229-0.459
			c3.717-1.339,7.411-2.735,11.12-4.086c1.412-0.514,2.633-0.044,3.379,1.222c0.798,1.356,0.655,2.517-0.66,3.224
			c-4.497,2.415-9.022,4.78-13.578,7.08c-2.727,1.377-5.707,1.154-8.575,0.754c-3.874-0.542-7.701-1.41-11.545-2.143
			C16.478,46.989,14.469,46.595,12.32,46.181z"/>
		<path fill-rule="evenodd" clip-rule="evenodd" fill="#505050" d="M11.049,49.199c-2.36,0-4.637,0-6.999,0c0-0.374,0-0.674,0-0.974
			c-0.001-5.138,0.015-10.278-0.02-15.418c-0.005-0.798,0.188-1.057,1.018-1.029c1.979,0.064,3.961,0.02,6.001,0.02
			C11.049,37.64,11.049,43.376,11.049,49.199z"/>
	</g>
</g>
</svg>
