<?xml version="1.0" encoding="utf-8"?>
<!-- Generator: Adobe Illustrator 16.0.0, SVG Export Plug-In . SVG Version: 6.00 Build 0)  -->
<!DOCTYPE svg PUBLIC "-//W3C//DTD SVG 1.1//EN" "http://www.w3.org/Graphics/SVG/1.1/DTD/svg11.dtd">
<svg version="1.1" id="icons" xmlns="http://www.w3.org/2000/svg" xmlns:xlink="http://www.w3.org/1999/xlink" x="0px" y="0px"
	 width="57.334px" height="61.333px" viewBox="0 0 57.334 61.333" enable-background="new 0 0 57.334 61.333" xml:space="preserve">
<g id="JhJ7eS.tif">
	<g>
		<path fill-rule="evenodd" clip-rule="evenodd" fill="#505050" d="M41.872,1.055c0.334,0.318,0.679,0.626,0.998,0.957
			c0.361,0.373,0.369,0.683-0.012,1.004c-0.966,0.814-1.95,1.607-2.932,2.403c-0.315,0.257-0.611,0.206-0.901-0.07
			c-0.285-0.271-0.592-0.585-0.292-0.957c0.913-1.134,1.875-2.228,2.817-3.337C41.658,1.055,41.766,1.055,41.872,1.055z"/>
		<path fill-rule="evenodd" clip-rule="evenodd" fill="#505050" d="M17.318,1.055c0.448,0.502,0.904,0.998,1.342,1.51
			c0.429,0.5,0.839,1.016,1.255,1.525c0.437,0.535,0.435,0.748-0.002,1.183c-0.429,0.427-0.644,0.424-1.185-0.02
			c-0.866-0.711-1.737-1.417-2.599-2.135c-0.518-0.431-0.53-0.712-0.06-1.186c0.3-0.302,0.617-0.587,0.927-0.878
			C17.104,1.055,17.211,1.055,17.318,1.055z"/>
		<path fill-rule="evenodd" clip-rule="evenodd" fill="#505050" d="M22.397,46.939c1.501,0.151,3,0.392,4.505,0.434
			c2.607,0.073,5.218,0.027,7.826,0.022c2.525-0.005,5.82-1.739,6.44-4.98c0.033-0.174,0.18-0.347,0.313-0.478
			c1.854-1.81,3.697-3.631,5.583-5.407c0.803-0.757,1.689-1.427,2.557-2.112c0.247-0.195,0.552-0.329,0.846-0.456
			c1.442-0.623,2.537-0.034,2.87,1.513c0.201,0.93,0.07,1.839-0.29,2.676c-0.455,1.06-0.908,2.168-1.604,3.067
			c-2.143,2.768-4.385,5.458-6.617,8.154c-1.516,1.829-3.63,2.669-5.821,3.319c-3.673,1.091-7.447,1.497-11.265,1.509
			c-1.445,0.004-2.807-0.494-4.137-1.012c-2.758-1.075-5.515-2.157-8.242-3.306c-2.085-0.877-4.271-0.928-6.465-0.991
			c-0.769-0.022-1.539-0.052-2.305-0.011c-0.799,0.042-1.395-0.287-1.698-0.969c-0.368-0.822-0.703-1.685-0.876-2.563
			c-0.469-2.378-0.406-4.76,0.239-7.107c0.126-0.46,0.317-0.91,0.534-1.337c0.365-0.715,0.924-1.05,1.779-1.146
			c1.065-0.118,2.152-0.379,3.139-0.795c2.059-0.867,4.158-1.38,6.396-1.283c3.011,0.129,5.689,1.092,7.966,3.11
			c0.201,0.178,0.53,0.299,0.801,0.3c3.198,0.021,6.397,0,9.596,0.017c1.622,0.009,3.046,0.562,4.181,1.749
			c1.4,1.466,1.408,3.546,0.014,5.017c-1.131,1.192-2.557,1.741-4.178,1.758c-2.358,0.023-4.718,0.001-7.076,0.006
			c-1.547,0.003-3.06,0.213-4.501,0.81c-0.175,0.072-0.344,0.161-0.516,0.242C22.394,46.772,22.396,46.855,22.397,46.939z"/>
		<path fill-rule="evenodd" clip-rule="evenodd" fill="#505050" d="M24.328,31.951c2.175,0,4.314,0,6.455,0
			c0.007-0.038,0.014-0.076,0.021-0.113c-2.155-0.549-4.312-1.097-6.492-1.651c0-0.443-0.021-0.854,0.004-1.261
			c0.116-2.015-0.477-3.846-1.454-5.566c-0.652-1.148-1.361-2.265-2.034-3.4c-0.969-1.638-1.601-3.387-1.655-5.308
			c-0.126-4.486,2.975-8.509,7.514-9.765c5.406-1.495,11.096,1.611,12.641,6.913c0.725,2.487,0.403,4.887-0.769,7.163
			c-0.628,1.22-1.377,2.377-2.069,3.563c-0.831,1.422-1.623,2.872-1.851,4.527c-0.115,0.844-0.065,1.71-0.078,2.566
			c-0.01,0.732,0.004,1.465-0.004,2.197c-0.009,0.862-0.406,1.406-1.208,1.702c-0.142,0.053-0.302,0.129-0.389,0.242
			c-1.053,1.376-2.518,1.674-4.114,1.53c-1.19-0.106-2.257-0.521-2.971-1.577c-0.075-0.111-0.265-0.155-0.41-0.209
			C24.8,33.262,24.429,32.78,24.328,31.951z M31.77,26.787c0.045-0.152,0.095-0.285,0.121-0.423
			c0.332-1.731,0.969-3.354,1.786-4.906c0.581-1.104,1.233-2.171,1.827-3.269c0.755-1.395,1.121-2.856,0.936-4.474
			c-0.46-4.032-4.717-6.973-8.649-5.976c-4.069,1.031-6.963,5.769-4.526,10.259c0.773,1.426,1.642,2.809,2.311,4.282
			c0.65,1.434,1.101,2.959,1.661,4.506C28.658,26.787,30.206,26.787,31.77,26.787z"/>
		<path fill-rule="evenodd" clip-rule="evenodd" fill="#505050" d="M41.11,39.796c-0.252-0.475-0.508-0.922-0.724-1.388
			c-0.056-0.12-0.044-0.361,0.039-0.441c1.644-1.586,3.258-3.208,4.98-4.704c0.661-0.574,1.554-0.916,2.388-1.248
			c0.579-0.231,1.062,0.018,1.46,0.526C46.079,34.434,43.905,37.445,41.11,39.796z"/>
		<path fill-rule="evenodd" clip-rule="evenodd" fill="#505050" d="M46.165,30.665c-2.913,1.502-4.827,4.095-7.196,6.197
			c-0.412-0.247-0.819-0.491-1.223-0.732c0.005-0.046-0.006-0.092,0.013-0.109c1.556-1.493,3.066-3.039,4.696-4.447
			c0.676-0.584,1.586-0.922,2.431-1.275C45.387,30.089,45.792,30.275,46.165,30.665z"/>
		<path fill-rule="evenodd" clip-rule="evenodd" fill="#505050" d="M10.588,14.769c0-0.161-0.006-0.321,0.001-0.481
			c0.019-0.447,0.232-0.715,0.701-0.675c1.259,0.107,2.518,0.226,3.774,0.353c0.526,0.053,0.635,0.409,0.63,0.878
			c-0.005,0.458-0.202,0.709-0.647,0.754c-1.187,0.119-2.373,0.242-3.562,0.338c-0.703,0.057-0.891-0.142-0.897-0.846
			C10.586,14.982,10.587,14.875,10.588,14.769z"/>
		<path fill-rule="evenodd" clip-rule="evenodd" fill="#505050" d="M48.279,14.797c0,0.179,0.016,0.358-0.003,0.534
			c-0.043,0.387-0.243,0.646-0.659,0.61c-1.293-0.11-2.587-0.229-3.877-0.368c-0.552-0.06-0.568-0.488-0.561-0.924
			c0.008-0.477,0.282-0.656,0.707-0.698c1.026-0.101,2.055-0.19,3.079-0.311C48.106,13.507,48.285,13.653,48.279,14.797z"/>
		<path fill-rule="evenodd" clip-rule="evenodd" fill="#505050" d="M20.323,24.771c-0.135,0.252-0.194,0.423-0.302,0.555
			c-0.75,0.933-1.505,1.861-2.271,2.782c-0.408,0.491-0.688,0.491-1.155,0.042c-1.17-1.123-1.17-1.143,0.08-2.165
			c0.733-0.6,1.453-1.216,2.209-1.785c0.183-0.137,0.544-0.235,0.715-0.146C19.886,24.206,20.085,24.521,20.323,24.771z"/>
		<path fill-rule="evenodd" clip-rule="evenodd" fill="#505050" d="M43.222,27.03c-0.173,0.237-0.293,0.451-0.459,0.622
			c-1.082,1.122-1.102,1.119-2.081-0.073c-0.598-0.729-1.198-1.456-1.791-2.19c-0.373-0.461-0.357-0.691,0.052-1.1
			c0.413-0.412,0.637-0.43,1.1-0.056c0.913,0.738,1.824,1.479,2.725,2.233C42.934,26.606,43.048,26.811,43.222,27.03z"/>
		<path fill-rule="evenodd" clip-rule="evenodd" fill="#505050" d="M29.436,9.655c0.321,0,0.643-0.007,0.964,0.002
			c0.545,0.015,0.765,0.225,0.724,0.755c-0.147,1.921-0.312,3.841-0.469,5.762c-0.038,0.462-0.07,0.925-0.113,1.387
			c-0.039,0.425-0.271,0.618-0.706,0.632c-1.461,0.048-1.471,0.021-1.573-1.435c-0.139-1.993-0.309-3.984-0.491-5.975
			c-0.088-0.965,0.035-1.127,1.022-1.128C29.007,9.655,29.221,9.655,29.436,9.655z"/>
		<path fill-rule="evenodd" clip-rule="evenodd" fill="#505050" d="M29.402,23.331c-0.899-0.018-1.662-0.798-1.658-1.696
			c0.005-0.921,0.807-1.705,1.724-1.685c0.902,0.021,1.665,0.802,1.657,1.696C31.116,22.571,30.321,23.349,29.402,23.331z"/>
	</g>
</g>
</svg>
