<?xml version="1.0" encoding="utf-8"?>
<!-- Generator: Adobe Illustrator 16.0.0, SVG Export Plug-In . SVG Version: 6.00 Build 0)  -->
<!DOCTYPE svg PUBLIC "-//W3C//DTD SVG 1.1//EN" "http://www.w3.org/Graphics/SVG/1.1/DTD/svg11.dtd">
<svg version="1.1" id="Capa_1" xmlns="http://www.w3.org/2000/svg" xmlns:xlink="http://www.w3.org/1999/xlink" x="0px" y="0px"
	 width="17.75px" height="17.274px" viewBox="0 0 17.75 17.274" enable-background="new 0 0 17.75 17.274" xml:space="preserve">
<g id="tUhG7S.tif_8_">
	<g>
		<path fill-rule="evenodd" clip-rule="evenodd" fill="#4059A7" d="M10.292,15.704c0-1.4,0-2.794,0-4.203c-0.948,0-1.88,0-2.829,0
			c0,0.065,0,0.127,0,0.189c0,1.285-0.001,2.57,0.003,3.854c0.001,0.129-0.027,0.173-0.167,0.173
			c-1.318-0.006-2.639-0.003-3.957-0.003c-0.521,0-0.809-0.289-0.809-0.811c0-1.688,0.001-3.375-0.002-5.062
			c0-0.123,0.033-0.204,0.131-0.283c1.951-1.604,3.899-3.212,5.849-4.818c0.085-0.071,0.177-0.137,0.256-0.214
			c0.08-0.078,0.138-0.067,0.219,0.001c0.679,0.564,1.36,1.125,2.041,1.686c1.354,1.117,2.707,2.234,4.063,3.348
			c0.091,0.075,0.131,0.15,0.129,0.269c-0.002,1.702-0.001,3.404-0.002,5.105c0,0.477-0.293,0.778-0.768,0.778
			c-1.343,0.003-2.686,0.001-4.029,0.001C10.383,15.713,10.346,15.708,10.292,15.704z"/>
		<path fill-rule="evenodd" clip-rule="evenodd" fill="#4059A7" d="M8.873,3.474c-0.429,0.357-0.85,0.707-1.27,1.057
			C5.511,6.275,3.42,8.02,1.326,9.764C1.089,9.962,0.9,9.942,0.701,9.706C0.516,9.487,0.332,9.268,0.15,9.048
			c-0.214-0.257-0.201-0.434,0.052-0.645c0.915-0.765,1.832-1.527,2.749-2.291c1.635-1.362,3.27-2.723,4.903-4.087
			c0.257-0.214,0.522-0.396,0.871-0.427c0.392-0.035,0.736,0.066,1.038,0.32c0.828,0.694,1.658,1.386,2.488,2.079
			c0.039,0.033,0.079,0.064,0.146,0.118c0-0.088,0-0.14,0-0.19c0-0.616-0.001-1.232,0-1.847c0-0.342,0.121-0.46,0.466-0.461
			c0.63,0,1.261,0,1.891,0c0.341,0,0.462,0.124,0.462,0.466c0,1.416,0.001,2.832-0.002,4.248c0,0.096,0.029,0.159,0.104,0.221
			c0.719,0.592,1.433,1.188,2.148,1.783c0.049,0.04,0.099,0.079,0.145,0.122c0.164,0.155,0.188,0.341,0.046,0.518
			c-0.211,0.266-0.429,0.526-0.653,0.781c-0.165,0.188-0.36,0.191-0.563,0.021c-0.991-0.825-1.981-1.651-2.972-2.477
			c-1.481-1.236-2.963-2.472-4.445-3.707C8.979,3.557,8.933,3.521,8.873,3.474z"/>
	</g>
</g>
</svg>
