<?xml version="1.0" encoding="utf-8"?>
<!-- Generator: Adobe Illustrator 16.0.0, SVG Export Plug-In . SVG Version: 6.00 Build 0)  -->
<!DOCTYPE svg PUBLIC "-//W3C//DTD SVG 1.1//EN" "http://www.w3.org/Graphics/SVG/1.1/DTD/svg11.dtd">
<svg version="1.1" id="icons" xmlns="http://www.w3.org/2000/svg" xmlns:xlink="http://www.w3.org/1999/xlink" x="0px" y="0px"
	 width="57.334px" height="61.333px" viewBox="0 0 57.334 61.333" enable-background="new 0 0 57.334 61.333" xml:space="preserve">
<g>
	<g id="lv4B5Y.tif">
		<g>
			<path fill="#505050" d="M49.847,9.558c-2.215,4.5-4.141,8.376-8.175,10.863c1.913-2.651,3.897-4.96,5.371-7.558
				c1.858-3.279,1.573-6.262-0.199-8.268c-0.82,2.797-1.434,5.722-2.53,8.452c-2.179,5.422-6.415,9.07-11.11,12.315
				c-0.778,0.538-1.235,1.97-1.25,2.997c-0.008,0.474,1.361,1.236,2.193,1.389c1.228,0.224,2.544,0.119,3.799-0.034
				c1.034-0.126,2.036-0.526,3.051-0.806c-0.041-0.155-0.082-0.31-0.123-0.463c-0.863-0.145-1.726-0.288-3.222-0.54
				c6.056-0.478,10.57-4.533,11.194-9.73c-1.236,1.046-2.285,2.055-3.459,2.894c-1.133,0.811-2.347,1.54-3.606,2.133
				c-1.214,0.571-2.531,0.923-3.804,1.371C48.339,18.992,50.648,16.365,49.847,9.558z M20.496,28.486
				c1.951,1.663,3.846,0.928,5.699,1.026c1.593,0.084,3.03,0.315,3.649-1.327c0.682-1.803-0.829-2.58-2.103-3.422
				c-5.757-3.805-10.103-8.699-11.751-15.601c-0.396-1.654-0.677-3.335-1.012-5.005c-3.706,7.684,1.68,12.13,6.078,16.931
				c-4.515-2.41-6.858-6.599-9.276-10.719c-0.447,8.627,6.267,10.94,12.145,14.141c-2.068-0.592-4.13-1.253-5.957-2.318
				c-1.814-1.06-3.392-2.526-5.541-4.175c2.07,6.901,7.64,6.912,12.525,8.345c-2.863-0.548-5.726-1.094-8.793-1.681
				c1.669,2.804,4.377,2.937,6.94,3.41C22.354,28.205,21.607,28.318,20.496,28.486z"/>
			<path fill-rule="evenodd" clip-rule="evenodd" fill="#505050" d="M49.847,9.558c0.802,6.808-1.508,9.435-11.87,15.016
				c1.272-0.448,2.59-0.8,3.804-1.371c1.26-0.593,2.474-1.322,3.606-2.133c1.174-0.839,2.223-1.848,3.459-2.894
				c-0.624,5.197-5.139,9.253-11.194,9.73c1.496,0.252,2.358,0.396,3.222,0.54c0.041,0.153,0.082,0.308,0.123,0.463
				c-1.015,0.279-2.017,0.68-3.051,0.806c-1.255,0.153-2.571,0.258-3.799,0.034c-0.832-0.152-2.201-0.915-2.193-1.389
				c0.015-1.027,0.472-2.459,1.25-2.997c4.695-3.245,8.932-6.894,11.11-12.315c1.097-2.73,1.71-5.655,2.53-8.452
				c1.772,2.006,2.058,4.988,0.199,8.268c-1.474,2.598-3.458,4.906-5.371,7.558C45.706,17.934,47.632,14.058,49.847,9.558z"/>
			<path fill-rule="evenodd" clip-rule="evenodd" fill="#505050" d="M20.496,28.486c1.111-0.168,1.858-0.281,2.604-0.395
				c-2.563-0.474-5.271-0.606-6.94-3.41c3.067,0.587,5.93,1.133,8.793,1.681c-4.886-1.433-10.455-1.443-12.525-8.345
				c2.149,1.648,3.727,3.115,5.541,4.175c1.827,1.065,3.889,1.727,5.957,2.318c-5.878-3.2-12.592-5.514-12.145-14.141
				c2.418,4.12,4.762,8.309,9.276,10.719c-4.398-4.801-9.784-9.247-6.078-16.931c0.335,1.67,0.616,3.351,1.012,5.005
				c1.648,6.901,5.994,11.796,11.751,15.601c1.273,0.842,2.784,1.619,2.103,3.422c-0.619,1.643-2.057,1.411-3.649,1.327
				C24.342,29.414,22.447,30.149,20.496,28.486z"/>
		</g>
	</g>
	<g id="fXcvcm.tif">
		<g>
			<path fill="#505050" d="M8.271,37.896c-0.519,0.236-1.035,0.474-1.557,0.712c0.048,0.103,0.059,0.14,0.08,0.172
				c0.6,0.864,1.201,1.729,1.807,2.592c0.039,0.054,0.122,0.077,0.184,0.114c0.01,0.07-0.003,0.156,0.033,0.209
				c0.655,0.95,1.316,1.898,1.978,2.845c0.606,0.866,1.215,1.731,1.819,2.599c0.559,0.803,1.11,1.611,1.678,2.41
				c0.066,0.096,0.213,0.208,0.314,0.199c1.58-0.12,3.147-0.056,4.713,0.213c1.664,0.287,3.276,0.74,4.842,1.362
				c2.18,0.867,4.309,1.873,6.653,2.271c0.829,0.141,1.63,0.21,2.416-0.161c1.677-0.795,3.229-1.796,4.782-2.806
				c0.949-0.618,1.939-1.176,2.933-1.725c1.114-0.616,2.24-1.217,3.229-2.022c1.552-1.263,2.969-2.674,4.327-4.138
				c0.78-0.839,1.533-1.703,2.288-2.565c0.455-0.52,0.894-1.056,1.34-1.585c0.327-0.445,0.656-0.89,0.981-1.337
				c0.261-0.359,0.347-0.766,0.14-1.16c-0.179-0.34-0.564-0.406-0.912-0.436c-0.801-0.064-1.549,0.148-2.259,0.506
				c-0.071,0.037-0.115,0.129-0.173,0.196c-0.079,0.005-0.183-0.02-0.235,0.021c-0.423,0.315-0.891,0.591-1.237,0.977
				c-0.771,0.861-1.626,1.598-2.617,2.2c-0.69,0.418-1.31,0.951-1.989,1.454c0.164,0.104,0.271,0.173,0.379,0.238
				c0.888,0.527,1.359,1.274,1.239,2.338c-0.08,0.719-0.355,1.332-1.061,1.602c-0.792,0.303-1.6,0.589-2.427,0.766
				c-0.663,0.144-1.363,0.154-2.048,0.156c-1.807,0.003-3.614,0.016-5.416-0.06c-1.932-0.082-3.858-0.235-5.784,0.069
				c-0.495,0.077-0.994,0.123-1.492,0.184c0.099-0.062,0.197-0.104,0.301-0.129c1.398-0.325,2.806-0.553,4.251-0.48
				c1.118,0.058,2.235,0.117,3.354,0.121c1.688,0.006,3.375-0.053,5.062-0.054c1.311-0.001,2.571-0.22,3.781-0.729
				c0.947-0.4,1.158-0.826,1.138-1.951c-0.007-0.438-0.166-0.81-0.487-1.097c-0.224-0.2-0.472-0.381-0.728-0.537
				c-0.832-0.511-1.766-0.632-2.712-0.656c-2.236-0.054-4.474-0.059-6.708-0.142c-1.521-0.059-3.04-0.279-4.46-0.827
				c-1.898-0.733-3.776-1.532-5.606-2.416c-1.642-0.791-3.335-1.218-5.145-1.275c-1.582-0.05-3.159-0.002-4.729,0.186
				c-0.248,0.03-0.492,0.105-0.738,0.16c-0.09-0.007-0.184-0.033-0.271-0.016c-1.139,0.23-2.285,0.432-3.409,0.718
				C9.479,37.345,8.883,37.653,8.271,37.896z M49.553,36.007c0.085-0.021,0.178-0.024,0.251-0.063c0.923-0.509,1.9-0.736,2.985-0.56
				c0-0.362,0.03-0.712-0.01-1.054c-0.027-0.246-0.171-0.495-0.442-0.528c-0.383-0.048-0.787-0.102-1.157-0.028
				c-0.881,0.17-1.613,0.67-2.317,1.202c-0.061,0.047-0.09,0.138-0.133,0.207c-0.088,0.05-0.188,0.086-0.261,0.152
				c-0.647,0.583-1.279,1.182-1.934,1.756c-0.558,0.492-1.145,0.947-1.7,1.442c-0.583,0.521-1.141,1.07-1.716,1.602
				c-0.165,0.152-0.353,0.281-0.56,0.445c0.269,0.078,0.498,0.112,0.696,0.209c0.206,0.102,0.335,0.037,0.494-0.086
				c0.643-0.495,1.262-1.025,1.947-1.454c0.931-0.582,1.763-1.257,2.466-2.102c0.24-0.29,0.56-0.516,0.853-0.759
				C49.186,36.249,49.374,36.133,49.553,36.007z M48.42,34.88c0.404-0.283,0.808-0.567,1.212-0.852
				c-0.421-0.338-1.524-0.255-1.896,0.138c-0.004,0.006,0,0.02,0,0.029c-0.089,0.026-0.193,0.033-0.264,0.085
				c-0.257,0.195-0.55,0.368-0.741,0.616c-0.483,0.634-1.044,1.171-1.668,1.667c-0.687,0.547-1.263,1.229-1.96,1.758
				c-0.784,0.592-1.532,1.213-2.217,1.913c-0.061,0.062-0.114,0.133-0.18,0.208c0.446,0.029,0.845,0.061,1.246,0.077
				c0.077,0.003,0.174-0.036,0.235-0.088c0.531-0.432,1.089-0.837,1.576-1.315c0.888-0.871,1.812-1.693,2.786-2.469
				C47.219,36.115,47.8,35.474,48.42,34.88z M5.846,44.429c0.006,0.073-0.006,0.155,0.022,0.222
				c0.908,2.179,1.939,4.299,3.146,6.328c0.688,1.16,1.413,2.3,2.127,3.458c0.101-0.064,0.163-0.094,0.213-0.138
				c0.132-0.117,0.258-0.242,0.384-0.363c0.907-0.857,1.713-1.803,2.412-2.837c0.111-0.165,0.139-0.284,0.01-0.466
				c-0.702-0.989-1.389-1.99-2.08-2.988c-0.889-1.278-1.775-2.56-2.668-3.835c-0.402-0.572-0.815-1.138-1.225-1.706
				c-0.012-0.036-0.017-0.078-0.038-0.108c-0.758-1.092-1.52-2.183-2.294-3.296c-0.449,0.113-0.896,0.219-1.339,0.337
				c-0.63,0.167-0.638,0.174-0.42,0.789c0.498,1.411,1.002,2.819,1.513,4.226C5.659,44.188,5.766,44.303,5.846,44.429z
				 M36.719,17.054c-0.01,0.015-0.02,0.03-0.029,0.045c0.236,0.098,0.467,0.218,0.71,0.29c0.422,0.126,0.862,0.193,1.272,0.345
				c0.33,0.12,0.658,0.296,0.821,0.619c-0.381-0.121-0.754-0.263-1.14-0.358c-0.331-0.084-0.688-0.082-1.009-0.186
				c-0.289-0.094-0.633-0.218-0.803-0.441c-0.342-0.456-0.794-0.68-1.303-0.831c-0.466-0.139-0.943-0.176-1.464-0.088
				c0.239,0.294,0.459,0.555,0.24,0.904c-0.106,0.171-0.263,0.268-0.512,0.195c0.226-0.176,0.313-0.396,0.14-0.579
				c-0.347-0.362-0.816-0.551-1.298-0.595c-0.603-0.056-1.215-0.028-1.821-0.009c-1.155,0.035-2.31,0.081-3.463,0.141
				c-0.351,0.017-0.596,0.213-0.717,0.559c-0.127,0.356-0.374,0.555-0.769,0.575c-0.293,0.014-0.588,0.054-0.875,0.112
				c-0.181,0.038-0.351,0.129-0.548,0.206c0.417,0.155,0.778,0.291,1.14,0.427c-0.166,0.04-0.313,0.029-0.453-0.012
				c-0.479-0.142-0.927-0.059-1.36,0.165c-0.192,0.098-0.384,0.207-0.59,0.265c-0.397,0.113-0.747,0.293-1.02,0.605
				c-0.399,0.46-0.912,0.674-1.501,0.787c-0.309,0.06-0.64,0.177-0.878,0.369c-0.315,0.258-0.649,0.447-1.015,0.614
				c-0.542,0.245-0.687,0.675-0.497,1.238c0.169,0.497,0.563,0.782,0.933,1.105c0.386,0.341,0.793,0.68,1.094,1.089
				c0.236,0.322,0.316,0.755,0.145,1.169c-0.07-0.255-0.08-0.536-0.216-0.731c-0.225-0.321-0.498-0.627-0.808-0.867
				c-0.615-0.477-1.334-0.843-1.542-1.716c-0.48,0.354-0.779,0.787-0.919,1.323c-0.128,0.494-0.246,0.983-0.541,1.418
				c-0.353,0.521-0.352,1.072-0.097,1.648c0.15,0.34,0.242,0.705,0.36,1.062c-0.026,0.011-0.055,0.023-0.081,0.035
				c-0.294-0.56-0.59-1.12-0.926-1.758c-0.189,0.629-0.478,1.207-0.518,1.8c-0.065,0.963-0.151,1.908-0.396,2.846
				c-0.119,0.452-0.006,0.896,0.34,1.251c0.225,0.231,0.453,0.461,0.668,0.702c0.453,0.511,0.995,0.657,1.644,0.438
				c0.368-0.124,0.846-0.733,0.818-1.107c-0.026-0.358-0.073-0.72-0.135-1.075c-0.086-0.495-0.145-0.998,0.195-1.41
				c0.425-0.516,0.905-0.987,1.361-1.479c0.032,0.027,0.062,0.057,0.094,0.084c-0.28,0.349-0.562,0.697-0.84,1.047
				c-0.351,0.44-0.539,0.918-0.414,1.501c0.079,0.371,0.08,0.759,0.145,1.135c0.159,0.947,0.752,1.433,1.721,1.377
				c-0.681-0.681-0.841-1.432-0.388-1.955c0,0.078,0.005,0.133-0.001,0.187c-0.035,0.377,0.017,0.749,0.299,1.011
				c0.427,0.395,0.889,0.756,1.348,1.113c0.141,0.108,0.324,0.161,0.487,0.239c-0.234-0.451-0.425-0.879-0.425-1.429
				c0.137,0.309,0.224,0.578,0.365,0.815c0.451,0.76,1.197,1.146,1.979,1.446c1.593,0.615,3.267,0.784,4.962,0.807
				c0.043,0.001,0.088-0.017,0.159-0.03c-0.11-0.344-0.212-0.668-0.314-0.991c0.191,0.237,0.351,0.488,0.444,0.762
				c0.165,0.479,0.476,0.779,0.962,0.893c0.247,0.058,0.5,0.104,0.752,0.124c0.629,0.048,1.244,0.139,1.822,0.416
				c0.297,0.144,0.6,0.341,0.916,0.374c0.855,0.088,1.725,0.109,2.56-0.169c0.389-0.129,0.755-0.319,1.133-0.482
				c-0.007-0.038-0.011-0.075-0.017-0.113c-0.527-0.312-1.056-0.628-1.587-0.933c-0.271-0.155-0.566-0.27-0.826-0.439
				c-0.287-0.191-0.44-0.478-0.436-0.831c0.137,0.337,0.317,0.649,0.681,0.764c0.901,0.286,1.709,0.762,2.535,1.199
				c0.431,0.229,0.896,0.229,1.278-0.072c0.333-0.261,0.653-0.57,0.881-0.921c0.626-0.971,0.702-2.006-0.118-2.854
				c-0.185-0.19-0.413-0.337-0.621-0.504c0.775,0.258,1.275,0.785,1.501,1.514c0.806-0.023,1.58-0.045,2.353-0.071
				c0.709-0.026,1.364-0.188,1.942-0.648c0.25-0.198,0.587-0.325,0.905-0.394c0.367-0.08,0.758-0.046,1.137-0.089
				c0.386-0.045,0.781-0.082,1.148-0.195c0.485-0.146,0.644-0.998,0.401-1.284c0.126-0.138,0.243-0.283,0.376-0.409
				c0.395-0.377,0.512-0.858,0.389-1.35c-0.207-0.834-0.485-1.65-0.745-2.472c-0.129-0.405-0.368-0.705-0.845-0.742
				c0.107-0.034,0.214-0.066,0.33-0.103c-0.131-1.203-1.042-1.782-1.866-2.446c0.19,0.037,0.382,0.073,0.589,0.114
				c-0.206-0.261-0.42-0.482-0.577-0.738c-0.163-0.265-0.263-0.567-0.41-0.843c-0.076-0.143-0.171-0.302-0.302-0.384
				c-1.051-0.665-2.125-1.294-3.168-1.973c-0.967-0.628-1.905-1.303-2.855-1.959c-0.295-0.204-0.599-0.376-0.977-0.342
				C37.721,16.961,37.22,17.007,36.719,17.054z M46.305,34.807c-0.341-0.051-0.617-0.009-0.857,0.201
				c-0.588,0.516-1.175,1.034-1.77,1.541c-0.566,0.48-1.112,0.994-1.722,1.411c-0.997,0.684-1.976,1.378-2.777,2.293
				c-0.052,0.059-0.107,0.114-0.202,0.218c0.392,0,0.715,0.013,1.033-0.009c0.121-0.008,0.254-0.079,0.346-0.161
				c0.631-0.571,1.241-1.165,1.882-1.726c0.573-0.501,1.188-0.954,1.765-1.452c0.4-0.343,0.729-0.78,1.156-1.077
				C45.633,35.719,46.005,35.333,46.305,34.807z"/>
			<path fill-rule="evenodd" clip-rule="evenodd" fill="#505050" d="M36.719,17.054c0.501-0.047,1.002-0.093,1.504-0.139
				c0.378-0.034,0.682,0.138,0.977,0.342c0.95,0.656,1.889,1.331,2.855,1.959c1.043,0.679,2.117,1.308,3.168,1.973
				c0.131,0.082,0.226,0.241,0.302,0.384c0.147,0.275,0.247,0.578,0.41,0.843c0.157,0.256,0.371,0.478,0.577,0.738
				c-0.207-0.041-0.398-0.077-0.589-0.114c0.824,0.664,1.735,1.243,1.866,2.446c-0.116,0.036-0.223,0.068-0.33,0.103
				c0.477,0.037,0.716,0.337,0.845,0.742c0.26,0.821,0.538,1.638,0.745,2.472c0.123,0.491,0.006,0.973-0.389,1.35
				c-0.133,0.126-0.25,0.271-0.376,0.409c0.242,0.286,0.084,1.138-0.401,1.284c-0.367,0.113-0.763,0.15-1.148,0.195
				c-0.379,0.043-0.77,0.009-1.137,0.089c-0.318,0.068-0.655,0.195-0.905,0.394c-0.578,0.461-1.233,0.622-1.942,0.648
				c-0.772,0.026-1.547,0.048-2.353,0.071c-0.226-0.729-0.726-1.256-1.501-1.514c0.208,0.167,0.437,0.313,0.621,0.504
				c0.82,0.848,0.744,1.883,0.118,2.854c-0.228,0.351-0.548,0.66-0.881,0.921c-0.383,0.301-0.848,0.302-1.278,0.072
				c-0.826-0.438-1.634-0.913-2.535-1.199c-0.363-0.114-0.544-0.427-0.681-0.764c-0.005,0.354,0.148,0.64,0.436,0.831
				c0.26,0.17,0.556,0.284,0.826,0.439c0.531,0.305,1.06,0.621,1.587,0.933c0.006,0.038,0.01,0.075,0.017,0.113
				c-0.378,0.163-0.744,0.354-1.133,0.482c-0.835,0.278-1.704,0.257-2.56,0.169c-0.316-0.033-0.619-0.23-0.916-0.374
				c-0.578-0.277-1.193-0.368-1.822-0.416c-0.252-0.02-0.505-0.066-0.752-0.124c-0.486-0.113-0.797-0.414-0.962-0.893
				c-0.094-0.273-0.253-0.524-0.444-0.762c0.103,0.323,0.204,0.647,0.314,0.991c-0.071,0.014-0.116,0.031-0.159,0.03
				c-1.695-0.022-3.369-0.191-4.962-0.807c-0.782-0.301-1.528-0.687-1.979-1.446c-0.142-0.237-0.229-0.507-0.365-0.815
				c0,0.55,0.19,0.978,0.425,1.429c-0.163-0.078-0.347-0.131-0.487-0.239c-0.459-0.357-0.921-0.719-1.348-1.113
				c-0.282-0.262-0.334-0.634-0.299-1.011c0.006-0.054,0.001-0.108,0.001-0.187c-0.453,0.523-0.293,1.274,0.388,1.955
				c-0.969,0.056-1.562-0.43-1.721-1.377c-0.064-0.376-0.065-0.764-0.145-1.135c-0.125-0.583,0.063-1.061,0.414-1.501
				c0.278-0.35,0.56-0.698,0.84-1.047c-0.032-0.027-0.062-0.057-0.094-0.084c-0.456,0.491-0.937,0.963-1.361,1.479
				c-0.34,0.412-0.281,0.915-0.195,1.41c0.062,0.355,0.108,0.717,0.135,1.075c0.027,0.374-0.45,0.983-0.818,1.107
				c-0.648,0.22-1.19,0.073-1.644-0.438c-0.215-0.241-0.443-0.471-0.668-0.702c-0.346-0.355-0.459-0.799-0.34-1.251
				c0.244-0.938,0.33-1.883,0.396-2.846c0.04-0.593,0.328-1.171,0.518-1.8c0.336,0.638,0.632,1.198,0.926,1.758
				c0.026-0.012,0.055-0.024,0.081-0.035c-0.118-0.356-0.21-0.722-0.36-1.062c-0.255-0.576-0.256-1.128,0.097-1.648
				c0.295-0.435,0.413-0.924,0.541-1.418c0.14-0.536,0.438-0.969,0.919-1.323c0.208,0.873,0.927,1.239,1.542,1.716
				c0.31,0.24,0.583,0.546,0.808,0.867c0.136,0.195,0.146,0.477,0.216,0.731c0.172-0.414,0.092-0.847-0.145-1.169
				c-0.301-0.409-0.708-0.748-1.094-1.089c-0.369-0.323-0.764-0.608-0.933-1.105c-0.189-0.563-0.045-0.993,0.497-1.238
				c0.365-0.167,0.699-0.356,1.015-0.614c0.238-0.192,0.569-0.31,0.878-0.369c0.589-0.113,1.102-0.327,1.501-0.787
				c0.272-0.312,0.622-0.492,1.02-0.605c0.206-0.058,0.397-0.167,0.59-0.265c0.434-0.224,0.882-0.307,1.36-0.165
				c0.14,0.041,0.287,0.052,0.453,0.012c-0.361-0.136-0.723-0.271-1.14-0.427c0.197-0.077,0.367-0.168,0.548-0.206
				c0.287-0.059,0.582-0.099,0.875-0.112c0.395-0.021,0.642-0.219,0.769-0.575c0.121-0.346,0.366-0.542,0.717-0.559
				c1.153-0.06,2.308-0.105,3.463-0.141c0.606-0.02,1.219-0.047,1.821,0.009c0.481,0.044,0.951,0.232,1.298,0.595
				c0.174,0.183,0.086,0.403-0.14,0.579c0.249,0.072,0.405-0.024,0.512-0.195c0.219-0.35-0.001-0.61-0.24-0.904
				c0.521-0.088,0.998-0.051,1.464,0.088c0.509,0.151,0.961,0.375,1.303,0.831c0.17,0.224,0.514,0.348,0.803,0.441
				c0.321,0.104,0.678,0.102,1.009,0.186c0.386,0.096,0.759,0.237,1.14,0.358c-0.163-0.323-0.491-0.499-0.821-0.619
				c-0.41-0.151-0.851-0.219-1.272-0.345c-0.243-0.072-0.474-0.192-0.71-0.29C36.699,17.084,36.709,17.068,36.719,17.054z
				 M21.447,21.443c0.31-0.141,0.618-0.286,0.931-0.421c0.402-0.175,0.795-0.422,1.216-0.495c0.787-0.134,1.525,0.062,2.198,0.646
				c-0.176-0.39-0.451-0.589-0.755-0.736c-0.796-0.389-1.608-0.462-2.44-0.055c0.339-0.526,0.856-0.798,1.4-1.058
				c-0.623-0.31-1.583,0.234-1.57,0.899c0.005,0.277-0.112,0.356-0.292,0.452c-0.095,0.052-0.199,0.091-0.283,0.156
				c-0.161,0.124-0.284,0.11-0.46-0.007c-0.526-0.352-1.478-0.322-1.831-0.019c0.232,0,0.526-0.026,0.812,0.006
				c0.449,0.049,0.863,0.188,1.083,0.64c-0.342,0.227-0.715,0.417-1.015,0.689c-0.227,0.206-0.408,0.499-0.526,0.786
				c-0.17,0.421,0.105,0.834,0.552,0.924c-0.341-0.56-0.326-0.749,0.099-1.249c0.107-0.127,0.222-0.248,0.322-0.383
				C21.078,21.965,21.261,21.703,21.447,21.443z M24.002,25.065c-0.1,0.178-0.225,0.346-0.293,0.534
				c-0.232,0.638-0.337,1.296-0.209,2.045c-0.469-0.311-0.906-0.271-1.342-0.097c-0.395,0.158-0.783,0.333-1.206,0.512
				c0.38,0.098,0.733,0.131,1.115,0.011c0.416-0.13,0.846-0.214,1.274-0.292c0.087-0.017,0.206,0.068,0.292,0.13
				c0.297,0.216,0.577,0.452,0.878,0.661c0.335,0.232,0.699,0.428,1.026,0.67c0.494,0.367,0.938,0.806,1.457,1.129
				c0.837,0.521,1.709,0.481,2.548-0.045c0.101-0.062,0.188-0.146,0.282-0.221c-0.015-0.02-0.028-0.04-0.041-0.062
				c-0.126,0.064-0.25,0.129-0.378,0.188c-0.685,0.32-1.372,0.331-2.024-0.061c-0.341-0.205-0.663-0.454-0.953-0.725
				c-0.606-0.564-1.236-1.077-2.029-1.368c-0.317-0.117-0.542-0.379-0.575-0.727c-0.036-0.386-0.042-0.779-0.012-1.165
				c0.028-0.379,0.119-0.751,0.181-1.127c0.073,0.072,0.167,0.13,0.213,0.215c0.293,0.538,0.739,0.933,1.191,1.327
				c-0.147-0.299-0.313-0.585-0.499-0.855c-0.595-0.869-0.738-1.778-0.261-2.744c0.167-0.335,0.366-0.654,0.555-0.988
				c-0.661,0.401-1.071,0.996-1.198,1.744C23.922,24.179,23.994,24.629,24.002,25.065z M33.41,19.978
				c-0.145-0.254-0.258-0.533-0.44-0.756c-0.295-0.357-0.636-0.676-0.961-1.016c0.033,0.006,0.078,0.008,0.118,0.021
				c0.663,0.23,1.335,0.439,1.986,0.698c0.498,0.197,0.96,0.241,1.427-0.062c0.146-0.095,0.308-0.175,0.471-0.239
				c0.521-0.206,0.991,0.021,1.1,0.568c0.062,0.312,0.061,0.646,0.032,0.963c-0.027,0.324-0.122,0.643-0.188,0.963
				c0.358-0.664,0.634-1.351,0.462-2.12c-0.094-0.421-0.357-0.701-0.795-0.815c-0.471-0.123-0.874,0.039-1.247,0.285
				c-0.354,0.233-0.694,0.231-1.089,0.11c-0.624-0.19-1.263-0.337-1.899-0.485c-0.472-0.111-0.969-0.153-1.341-0.524
				c-0.097-0.098-0.208-0.181-0.312-0.272c0.01,0.115,0.05,0.202,0.112,0.27c0.393,0.421,0.78,0.847,1.189,1.251
				c0.44,0.438,0.894,0.862,1.043,1.49c0.076,0.318,0.089,0.649,0.13,0.975c0.013,0.005,0.026,0.01,0.041,0.016
				c0.051-0.248,0.104-0.495,0.165-0.789c0.332,0.533,0.574,1.053,0.689,1.622c0.187,0.931,0.371,1.862,0.521,2.798
				c0.125,0.773,0.432,1.539,0.127,2.342c0.025,0.018,0.052,0.033,0.078,0.049c0.021-0.07,0.041-0.141,0.068-0.229
				c0.22,0.281,0.416,0.433,0.687,0.375c-0.169-0.378-0.392-0.728-0.477-1.106c-0.099-0.444-0.055-0.917-0.107-1.374
				c-0.089-0.757-0.195-1.512-0.315-2.267c-0.043-0.275-0.146-0.542-0.234-0.857c0.516,0.113,0.88-0.067,1.106-0.474
				c0.203-0.364,0.308-0.76,0.141-1.236c-0.091,0.209-0.148,0.364-0.221,0.512c-0.074,0.15-0.143,0.306-0.243,0.435
				c-0.103,0.133-0.243,0.236-0.367,0.353C34.381,20.956,33.895,20.468,33.41,19.978z M26.123,27.301
				c0.418-0.314,0.812-0.258,1.212,0.085c0.22,0.188,0.511,0.335,0.791,0.396c0.319,0.069,0.663,0.034,0.996,0.026
				c0.481-0.015,0.947,0.027,1.349,0.315c0.23,0.164,0.439,0.359,0.66,0.539c0.366,0.3,0.766,0.368,1.208,0.178
				c0.277-0.12,0.562-0.139,0.856-0.03c0.283,0.104,0.579,0.181,0.865,0.279c0.15,0.054,0.291,0.132,0.437,0.198
				c-0.317,0.025-0.542,0.169-0.655,0.427c-0.175,0.395-0.504,0.49-0.878,0.505c-0.37,0.015-0.74,0.004-1.102,0.004
				c0.351,0.339,1.11,0.474,1.704,0.311c0.279-0.078,0.461-0.242,0.563-0.512c0.146-0.384,0.677-0.565,1.037-0.361
				c0.314,0.18,0.624,0.367,0.941,0.54c0.444,0.242,0.908,0.433,1.421,0.485c-0.812-0.243-1.466-0.766-2.169-1.202
				c-0.53-0.328-1.081-0.633-1.648-0.886c-0.413-0.185-0.865-0.379-1.335-0.187c-0.455,0.186-0.823,0.117-1.171-0.237
				c-0.616-0.627-1.373-0.881-2.249-0.781c-0.164,0.02-0.349,0.052-0.496,0c-0.318-0.112-0.652-0.229-0.91-0.434
				c-0.116-0.092-0.086-0.395-0.088-0.604c-0.004-0.347-0.083-0.666-0.313-0.927c-0.165-0.19-0.133-0.346,0.02-0.512
				c0.204-0.224,0.421-0.439,0.606-0.679c0.168-0.216,0.212-0.47,0.1-0.795c-0.284,0.605-0.974,0.867-1.029,1.632
				c-0.227-0.255-0.41-0.467-0.601-0.672c-0.239-0.261-0.228-0.573-0.178-0.887c0.045-0.279,0.329-0.439,0.567-0.338
				c0.449,0.193,0.54,0.144,0.647-0.376c-0.104,0.086-0.188,0.155-0.274,0.226c-0.06-0.045-0.106-0.079-0.152-0.115
				c-0.303-0.24-0.555-0.256-0.826-0.054c-0.27,0.201-0.356,0.539-0.251,0.862c0.175,0.528,0.449,0.991,0.836,1.393
				c0.436,0.449,0.649,0.97,0.449,1.599C26.373,26.815,26.165,26.946,26.123,27.301z M45.059,25.42
				c-0.336-0.414-0.338-0.908-0.396-1.395c-0.021-0.187-0.085-0.4-0.201-0.54c-0.654-0.78-1.33-1.542-1.997-2.31
				c-0.244-0.279-0.487-0.561-0.731-0.84c0.019-0.022,0.038-0.045,0.059-0.066c0.529,0.261,1.153,0.347,1.578,0.842
				c-0.083-0.179-0.163-0.379-0.31-0.494c-0.631-0.501-1.305-0.908-2.161-0.845c-0.293,0.023-0.593,0.056-0.882,0.021
				c-0.373-0.046-0.743-0.139-1.107-0.241c-0.192-0.055-0.369-0.171-0.554-0.26c0.485,0.591,1.103,0.904,1.861,0.917
				c0.372,0.007,0.745,0.008,1.118,0.002c0.165-0.002,0.25,0.058,0.336,0.209c0.253,0.439,0.537,0.863,0.812,1.289
				c0.066,0.102,0.15,0.191,0.206,0.261c-0.287,0.094-0.548,0.193-0.817,0.263c-0.172,0.043-0.356,0.063-0.532,0.05
				c-0.204-0.016-0.404-0.079-0.605-0.122c-0.019,0.025-0.035,0.053-0.054,0.079c0.162,0.171,0.323,0.344,0.492,0.523
				c-0.148,0.215-0.317,0.455-0.483,0.695c0.021,0.019,0.042,0.037,0.063,0.055c0.131-0.081,0.267-0.154,0.391-0.243
				c0.396-0.287,0.788-0.58,1.182-0.87c0.348-0.255,0.526-0.222,0.782,0.109c0.155,0.199,0.326,0.392,0.512,0.564
				c0.396,0.369,0.696,0.782,0.799,1.333C44.494,24.816,44.66,25.191,45.059,25.42z M46.201,28.205
				c-0.093,0.066-0.138,0.087-0.171,0.121c-0.528,0.538-1.175,0.563-1.856,0.426c-0.372-0.074-0.634-0.291-0.684-0.673
				c-0.05-0.373-0.047-0.752-0.07-1.174c0.271,0.134,0.487,0.242,0.703,0.349c0.015-0.021,0.028-0.044,0.043-0.065
				c-0.513-0.329-0.785-0.806-0.898-1.39c-0.033-0.172-0.104-0.336-0.17-0.501c-0.179-0.446-0.442-0.605-0.92-0.633
				c-0.238-0.013-0.474-0.096-0.706-0.163c-0.126-0.037-0.242-0.105-0.363-0.159c-0.01,0.015-0.02,0.03-0.029,0.045
				c0.129,0.121,0.259,0.242,0.39,0.364c-0.059,0.04-0.102,0.068-0.124,0.084c0.346,0.089,0.698,0.156,1.033,0.274
				c0.453,0.16,0.279,0.638,0.437,0.95c0.013,0.025,0.005,0.064,0.021,0.085c0.273,0.366,0.188,0.786,0.177,1.193
				c-0.005,0.157-0.021,0.313-0.013,0.47c0.022,0.455,0.114,0.906,0.557,1.126c0.466,0.23,0.99,0.271,1.494,0.167
				c0.619-0.127,1.22-0.339,1.837-0.477c0.259-0.058,0.546-0.058,0.808-0.014c0.337,0.055,0.477,0.325,0.494,0.668
				c0.171-0.392,0.13-0.678-0.188-0.86c-0.251-0.144-0.562-0.259-0.844-0.255c-0.337,0.005-0.672,0.151-0.997,0.233
				C46.166,28.372,46.176,28.318,46.201,28.205z M31.922,32.656c0.422,0.264,0.922,0.221,1.424,0.009
				c0.288-0.122,0.571-0.255,0.855-0.388c0.752-0.355,0.913-0.319,1.281,0.431c0.259,0.528,0.629,0.939,1.112,1.255
				c0.279,0.182,0.574,0.339,0.968,0.26c-0.11-0.04-0.191-0.072-0.273-0.102c0.139-0.064,0.27-0.053,0.399-0.065
				c0.44-0.047,0.736-0.407,0.687-0.828c-0.027-0.234-0.127-0.344-0.369-0.221c0.109,0.212,0.031,0.458-0.184,0.536
				c-0.274,0.1-0.563,0.164-0.833,0.272c-0.155,0.064-0.245,0.017-0.358-0.075c-0.453-0.361-0.692-0.859-0.928-1.37
				c-0.323-0.698-0.732-0.855-1.45-0.567c-0.362,0.147-0.712,0.323-1.072,0.475c-0.486,0.204-1.023,0.228-1.415-0.252
				c-0.13-0.158-0.288-0.294-0.439-0.433c-0.6-0.55-1.332-0.774-2.126-0.854c0.956,0.28,1.776,0.752,2.317,1.573
				c-0.164,0.203-0.312,0.39-0.463,0.579c0.027,0.035,0.055,0.071,0.083,0.106C31.384,32.891,31.632,32.782,31.922,32.656z
				 M31.728,21.903c-0.397-0.345-0.827-0.32-1.285-0.181c-0.208,0.063-0.433,0.068-0.668,0.102c0.23,0.183,0.506,0.227,0.788,0.198
				c0.396-0.037,0.751,0.018,0.981,0.378c0.201,0.316,0.476,0.622,0.559,0.973c0.207,0.853,0.305,1.731,0.483,2.592
				c0.068,0.337,0.249,0.644,0.57,0.833c-0.097-0.186-0.234-0.354-0.271-0.541c-0.117-0.604-0.211-1.212-0.285-1.822
				c-0.076-0.631-0.08-1.273-0.183-1.899c-0.16-0.971-0.654-1.668-1.716-1.813c-0.095-0.013-0.186-0.06-0.277-0.093
				c-0.562-0.203-0.632-0.374-0.37-0.922c0.081-0.171,0.163-0.342,0.245-0.512c-0.026-0.013-0.051-0.028-0.076-0.041
				c-0.164,0.275-0.349,0.541-0.485,0.829c-0.152,0.323-0.035,0.627,0.29,0.786c0.308,0.15,0.624,0.283,0.945,0.398
				C31.333,21.298,31.601,21.512,31.728,21.903z M37.81,29.99c0.267,0.006,0.283-0.003,0.773-0.399
				c0.378-0.305,0.489-0.312,0.877-0.025c0.173,0.128,0.336,0.146,0.547,0.092c0.475-0.119,0.546-0.605,0.844-0.894
				c-0.24,0.106-0.456,0.245-0.665,0.395c-0.148,0.107-0.285,0.192-0.479,0.081c-0.246-0.141-0.504-0.26-0.72-0.371
				c-0.211-0.254-0.394-0.516-0.618-0.733c-0.5-0.486-0.583-1.085-0.174-1.65c0.196-0.271,0.432-0.513,0.662-0.781
				c-0.459,0.087-0.757,0.396-1.068,0.701c-0.115-0.21-0.192-0.435-0.339-0.597c-0.429-0.471-0.255-0.989-0.182-1.545
				c-0.087,0.028-0.229,0.029-0.269,0.093c-0.128,0.204-0.217,0.43-0.326,0.657c-0.501-0.153-0.577-0.135-0.649,0.226
				c0.178-0.191,0.313-0.115,0.443,0.038c0.315,0.373,0.623,0.756,0.958,1.111c0.159,0.171,0.206,0.319,0.13,0.544
				c-0.053,0.151-0.048,0.326-0.043,0.49c0.021,0.542,0.399,0.817,0.812,1.073c0.189,0.117,0.359,0.269,0.508,0.383
				C38.462,29.281,38.141,29.63,37.81,29.99z M38.244,30.885c-0.006,0.026-0.013,0.053-0.018,0.081
				c0.496,0.089,0.991,0.211,1.492,0.261c0.8,0.082,1.568,0.047,2.113-0.701c0.204-0.279,0.519-0.306,0.848-0.132
				c0.231,0.123,0.447,0.28,0.67,0.42c0.567,0.357,1.157,0.341,1.652-0.108c0.473-0.428,0.961-0.513,1.538-0.254
				c0.284,0.128,0.591,0.207,0.888,0.309c0.009-0.023,0.017-0.046,0.024-0.069c-0.183-0.082-0.367-0.165-0.551-0.248
				c-0.293-0.132-0.575-0.302-0.881-0.389c-0.531-0.15-0.942,0.163-1.345,0.444c-0.293,0.206-0.578,0.196-0.875,0.027
				c-0.221-0.126-0.445-0.249-0.66-0.382c-0.707-0.436-1.211-0.36-1.737,0.276c-0.209,0.252-0.466,0.427-0.789,0.458
				c-0.457,0.046-0.917,0.072-1.376,0.076C38.906,30.957,38.575,30.909,38.244,30.885z M40.301,21.278
				c0.001-0.021,0.002-0.043,0.004-0.063c-0.321,0-0.644,0-0.913,0c-0.033-0.254-0.067-0.522-0.102-0.792
				c-0.032,0.003-0.064,0.005-0.097,0.007c0.104,0.5-0.107,0.87-0.455,1.198c-0.146,0.139-0.238,0.331-0.371,0.483
				c-0.069,0.08-0.172,0.178-0.262,0.18c-0.272,0.007-0.546-0.04-0.818-0.044c-0.389-0.007-0.785-0.047-1.161,0.021
				c-0.509,0.095-0.886,0.582-0.865,1.019c0.379-0.674,0.956-0.836,1.659-0.708c0.43,0.079,0.862,0.143,1.307,0.216
				c0.056,0.337,0.266,0.594,0.601,0.742c0.585,0.257,0.967,0.685,1.134,1.303c0.014,0.051,0.049,0.097,0.073,0.146
				c-0.034-0.471-0.013-0.96-0.392-1.309c-0.223-0.205-0.473-0.38-0.717-0.559c-0.202-0.147-0.343-0.354-0.241-0.578
				c0.254-0.556,0.536-1.106,1.244-1.202C40.054,21.323,40.176,21.299,40.301,21.278z M26.058,19.071
				c-0.016-0.009-0.03-0.018-0.047-0.027c-0.089,0.337-0.219,0.669-0.253,1.011c-0.03,0.303-0.016,0.638,0.089,0.917
				c0.218,0.587,0.76,0.771,1.316,0.904c0.343,0.081,0.692,0.141,1.022,0.257c0.666,0.235,0.897,0.706,0.73,1.388
				c-0.056,0.228-0.109,0.458-0.143,0.69c-0.09,0.66,0.372,1.319,0.99,1.369c0.357,0.027,0.722-0.032,1.083-0.052
				c-0.286-0.075-0.571-0.072-0.853-0.106c-0.599-0.073-0.91-0.438-0.865-1.041c0.02-0.288,0.107-0.575,0.185-0.856
				c0.205-0.755-0.019-1.358-0.742-1.669c-0.484-0.207-1.024-0.302-1.546-0.404c-0.69-0.135-1.09-0.553-1.078-1.247
				C25.952,19.825,26.02,19.448,26.058,19.071z M48.135,26.953c-0.26-0.056-0.462-0.06-0.629-0.139
				c-0.511-0.241-1.015-0.467-1.65-0.207c0-0.667,0-1.272,0-1.855c0.204,0.045,0.449,0.099,0.656,0.145
				c-0.566-0.615-1.129-1.224-1.69-1.831c0.094,0.452,0.191,0.901,0.517,1.226c0.281,0.281,0.338,0.589,0.286,0.963
				c-0.067,0.461-0.152,0.932-0.131,1.395c0.009,0.257,0.009,0.501-0.038,0.75c-0.011,0.058-0.011,0.119-0.017,0.178
				c0.019,0.018,0.038,0.035,0.059,0.053c0.165-0.552,0.572-0.704,1.064-0.702c0.512,0.001,0.767,0.419,1.119,0.692
				c-0.073-0.16-0.148-0.322-0.216-0.47C47.684,27.085,47.883,27.026,48.135,26.953z M17.85,27.535
				c-0.248-0.517-0.455-0.97-0.683-1.413C17,25.793,16.89,25.47,17.102,25.123c0.089-0.148,0.19-0.291,0.287-0.437
				c0.245,0.211,0.48,0.413,0.715,0.615c0.011-0.014,0.021-0.027,0.031-0.04c-0.241-0.315-0.481-0.63-0.73-0.955
				c-0.149,0.159-0.31,0.305-0.44,0.472c-0.295,0.372-0.459,0.784-0.271,1.256c0.288,0.721,0.591,1.438,0.889,2.158
				c0.385-0.279,0.826-0.57,1.232-0.904c0.254-0.208,0.481-0.461,0.676-0.726c0.288-0.395,0.251-0.842-0.071-1.148
				c0.214,0.502,0.064,0.903-0.304,1.204C18.71,26.951,18.268,27.235,17.85,27.535z M27.115,17.345
				c0.922,0.521,1.656,1.195,2.124,2.236c0.105-0.472-0.072-0.804-0.21-1.16c0.48-0.004,0.767-0.256,1.012-0.717
				c-0.258,0.079-0.455,0.109-0.621,0.196c-0.379,0.2-0.72,0.263-1.021-0.128c-0.058-0.074-0.158-0.114-0.239-0.168
				c-0.197-0.135-0.19-0.337,0.023-0.455c0.102-0.055,0.215-0.093,0.325-0.13c0.336-0.115,0.675-0.226,1.014-0.338
				c-0.006-0.039-0.01-0.078-0.016-0.116c-0.258,0-0.515-0.009-0.772,0.001c-0.654,0.025-0.909,0.224-1.084,0.826
				C27.472,17.378,27.294,17.361,27.115,17.345z M29.159,33.583c-0.128-0.02-0.256-0.044-0.384-0.059
				c-0.738-0.086-1.486-0.129-2.216-0.266c-1.048-0.196-1.278-0.588-1.065-1.637c0.076-0.378,0.147-0.757,0.222-1.134
				c-0.029-0.009-0.057-0.017-0.086-0.025c-0.18,0.502-0.395,0.993-0.535,1.506c-0.254,0.924,0.358,1.507,1.188,1.678
				C27.237,33.844,28.194,33.721,29.159,33.583z M20.428,29.574c-0.016,0.021-0.033,0.04-0.05,0.062
				c0.109,0.13,0.251,0.245,0.325,0.394c0.185,0.376,0.328,0.772,0.509,1.15c0.247,0.519,0.464,1.06,0.783,1.532
				c0.463,0.685,1.849,0.94,2.666,0.558c0.012-0.005,0.015-0.03,0.013-0.025c-0.293-0.024-0.595-0.04-0.895-0.073
				c-0.818-0.088-1.434-0.449-1.788-1.234c-0.275-0.604-0.589-1.195-0.935-1.761C20.912,29.936,20.641,29.772,20.428,29.574z
				 M20.337,27.311c0,0.339-0.009,0.655,0.003,0.973c0.039,1.052,1.051,1.878,2.025,1.838c0.342-0.014,0.685-0.026,1.027-0.042
				c0.488-0.021,0.982-0.068,1.32,0.431c-0.062-0.182-0.127-0.384-0.262-0.456c-0.261-0.137-0.555-0.242-0.846-0.284
				c-0.346-0.051-0.704-0.017-1.057-0.028c-0.845-0.028-1.493-0.394-1.835-1.18C20.544,28.173,20.465,27.746,20.337,27.311z
				 M29.98,33.207c-0.026-0.005-0.053-0.011-0.08-0.015c-0.056,0.182-0.117,0.362-0.165,0.547c-0.128,0.491,0.178,0.961,0.679,1.039
				c0.213,0.033,0.436,0.012,0.643,0.063c0.285,0.071,0.562,0.18,0.839,0.285c0.25,0.098,0.497,0.315,0.734,0.3
				c0.571-0.035,1.034-0.361,1.515-0.787c-0.442,0.152-0.812,0.273-1.174,0.41c-0.299,0.11-0.51-0.012-0.749-0.182
				c-0.247-0.174-0.532-0.32-0.823-0.401c-0.267-0.072-0.562-0.038-0.844-0.056c-0.434-0.027-0.638-0.248-0.625-0.682
				C29.933,33.555,29.963,33.382,29.98,33.207z M20.375,26.465c1.646-0.759,2.8-2.461,2.395-3.442
				C22.366,24.434,21.424,25.486,20.375,26.465z M16.083,30.834c0.794,0.349,0.81,0.353,1.067,0.235
				c-0.739-0.416-0.834-0.547-1.072-1.398c-0.059-0.212-0.152-0.415-0.231-0.621c-0.049,0.008-0.098,0.017-0.146,0.026
				c0,0.732,0,1.464,0,2.209C15.814,31.15,15.948,30.992,16.083,30.834z M42.316,27.894c-0.018-0.382-0.104-0.685-0.361-0.929
				c-0.354-0.335-0.802-0.354-1.097,0.023c-0.217,0.28-0.478,0.413-0.804,0.477c-0.182,0.035-0.357,0.092-0.548,0.141
				c0.514,0.257,1.291,0.12,1.659-0.279c0.211-0.229,0.433-0.259,0.654-0.046C41.992,27.445,42.124,27.652,42.316,27.894z
				 M40.958,32.792c0.01,0.023,0.021,0.047,0.032,0.07c0.725-0.396,1.275-1.153,2.239-1.053c-0.008-0.041-0.016-0.083-0.021-0.125
				c-0.271-0.063-0.538-0.126-0.795-0.187c-0.027-0.17-0.057-0.346-0.097-0.589C41.833,31.579,41.395,32.186,40.958,32.792z
				 M26.128,31.904c0.158,0.082,0.247,0.131,0.339,0.175c0.298,0.142,0.599,0.274,0.892,0.424c0.324,0.165,0.678,0.143,0.915-0.123
				c0.215-0.241,0.386-0.518,0.578-0.78c-0.02-0.021-0.037-0.041-0.057-0.063c-0.25,0.178-0.485,0.381-0.753,0.522
				c-0.143,0.075-0.38,0.117-0.508,0.049C27.11,31.882,26.672,31.862,26.128,31.904z M22.601,31.569
				c-0.062,0.238,0.05,0.377,0.218,0.477c0.316,0.188,0.638,0.168,0.957,0.026c0.007-0.033,0.014-0.066,0.021-0.098
				C23.409,31.842,23.022,31.711,22.601,31.569z"/>
			<path fill-rule="evenodd" clip-rule="evenodd" fill="#505050" d="M13.792,36.479c0.246-0.055,0.49-0.13,0.738-0.16
				c1.57-0.188,3.147-0.235,4.729-0.186c1.81,0.058,3.503,0.484,5.145,1.275c1.83,0.884,3.708,1.683,5.606,2.416
				c1.42,0.548,2.939,0.769,4.46,0.827c2.234,0.083,4.472,0.088,6.708,0.142c0.946,0.024,1.88,0.146,2.712,0.656
				c0.256,0.156,0.504,0.337,0.728,0.537c0.321,0.287,0.48,0.659,0.487,1.097c0.021,1.125-0.19,1.551-1.138,1.951
				c-1.21,0.51-2.471,0.729-3.781,0.729c-1.687,0.001-3.374,0.06-5.062,0.054c-1.118-0.004-2.235-0.063-3.354-0.121
				c-1.445-0.072-2.853,0.155-4.251,0.48c-0.104,0.024-0.202,0.067-0.301,0.129c0.498-0.061,0.997-0.106,1.492-0.184
				c1.926-0.305,3.853-0.151,5.784-0.069c1.802,0.075,3.609,0.062,5.416,0.06c0.685-0.002,1.385-0.013,2.048-0.156
				c0.827-0.177,1.635-0.463,2.427-0.766c0.705-0.27,0.98-0.883,1.061-1.602c0.12-1.063-0.352-1.811-1.239-2.338
				c-0.108-0.065-0.215-0.135-0.379-0.238c0.68-0.503,1.299-1.036,1.989-1.454c0.991-0.603,1.846-1.339,2.617-2.2
				c0.347-0.386,0.814-0.661,1.237-0.977c0.053-0.041,0.156-0.017,0.235-0.021c0.742,0.743,1.482,1.487,2.223,2.23
				c-0.446,0.529-0.885,1.065-1.34,1.585c-0.755,0.862-1.508,1.727-2.288,2.565c-1.358,1.464-2.775,2.875-4.327,4.138
				c-0.989,0.806-2.115,1.406-3.229,2.022c-0.993,0.549-1.983,1.106-2.933,1.725c-1.553,1.01-3.105,2.011-4.782,2.806
				c-0.786,0.371-1.587,0.302-2.416,0.161c-2.345-0.397-4.474-1.403-6.653-2.271c-1.565-0.622-3.178-1.075-4.842-1.362
				c-1.565-0.269-3.133-0.333-4.713-0.213c-0.102,0.009-0.248-0.104-0.314-0.199c-0.567-0.799-1.119-1.607-1.678-2.41
				c-0.604-0.867-1.213-1.732-1.819-2.599c-0.661-0.946-1.322-1.895-1.978-2.845c-0.036-0.053-0.023-0.139-0.033-0.209
				c0.508-0.514,1.014-1.029,1.521-1.541c0.047-0.037,0.097-0.067,0.138-0.109C11.56,38.718,12.676,37.599,13.792,36.479z"/>
			<path fill-rule="evenodd" clip-rule="evenodd" fill="#505050" d="M8.188,42.104c0.409,0.568,0.822,1.134,1.225,1.706
				c0.893,1.275,1.779,2.557,2.668,3.835c0.691,0.998,1.378,1.999,2.08,2.988c0.129,0.182,0.102,0.301-0.01,0.466
				c-0.699,1.034-1.505,1.979-2.412,2.837c-0.126,0.121-0.252,0.246-0.384,0.363c-0.05,0.044-0.112,0.073-0.213,0.138
				c-0.714-1.158-1.438-2.298-2.127-3.458c-1.207-2.029-2.238-4.149-3.146-6.328c-0.028-0.066-0.017-0.148-0.022-0.222
				C6.626,43.654,7.407,42.879,8.188,42.104z"/>
			<path fill-rule="evenodd" clip-rule="evenodd" fill="#505050" d="M8.188,42.104c-0.78,0.775-1.562,1.551-2.342,2.325
				c-0.08-0.126-0.187-0.241-0.236-0.378c-0.511-1.406-1.015-2.814-1.513-4.226c-0.218-0.615-0.21-0.622,0.42-0.789
				c0.442-0.118,0.89-0.224,1.339-0.337c0.774,1.113,1.536,2.204,2.294,3.296C8.171,42.025,8.176,42.067,8.188,42.104z"/>
			<path fill-rule="evenodd" clip-rule="evenodd" fill="#505050" d="M48.42,34.88c-0.62,0.594-1.201,1.235-1.869,1.768
				c-0.975,0.775-1.898,1.598-2.786,2.469c-0.487,0.479-1.045,0.884-1.576,1.315c-0.062,0.052-0.158,0.091-0.235,0.088
				c-0.401-0.017-0.8-0.048-1.246-0.077c0.065-0.075,0.119-0.146,0.18-0.208c0.685-0.7,1.433-1.321,2.217-1.913
				c0.697-0.528,1.273-1.211,1.96-1.758c0.624-0.496,1.185-1.033,1.668-1.667c0.191-0.248,0.484-0.421,0.741-0.616
				c0.07-0.052,0.175-0.059,0.264-0.085C47.965,34.425,48.192,34.651,48.42,34.88z"/>
			<path fill-rule="evenodd" clip-rule="evenodd" fill="#505050" d="M49.553,36.007c-0.179,0.126-0.367,0.242-0.537,0.382
				c-0.293,0.243-0.612,0.469-0.853,0.759c-0.703,0.845-1.535,1.52-2.466,2.102c-0.686,0.429-1.305,0.959-1.947,1.454
				c-0.159,0.123-0.288,0.188-0.494,0.086c-0.198-0.097-0.428-0.131-0.696-0.209c0.207-0.164,0.395-0.293,0.56-0.445
				c0.575-0.531,1.133-1.081,1.716-1.602c0.556-0.495,1.143-0.95,1.7-1.442c0.654-0.574,1.286-1.173,1.934-1.756
				c0.072-0.066,0.173-0.103,0.261-0.152C49.004,35.458,49.279,35.731,49.553,36.007z"/>
			<path fill-rule="evenodd" clip-rule="evenodd" fill="#505050" d="M13.792,36.479c-1.116,1.119-2.232,2.238-3.349,3.356
				c-0.041,0.042-0.091,0.072-0.137,0.109c-0.056-0.067-0.105-0.14-0.167-0.201c-0.622-0.616-1.246-1.231-1.868-1.848
				c0.611-0.243,1.208-0.552,1.841-0.715c1.124-0.286,2.271-0.487,3.409-0.718C13.608,36.446,13.702,36.473,13.792,36.479z"/>
			<path fill-rule="evenodd" clip-rule="evenodd" fill="#505050" d="M8.271,37.896c0.622,0.616,1.246,1.231,1.868,1.848
				c0.062,0.062,0.111,0.134,0.167,0.201c-0.508,0.512-1.014,1.027-1.521,1.541c-0.062-0.037-0.145-0.061-0.184-0.114
				c-0.605-0.862-1.207-1.728-1.807-2.592c-0.021-0.032-0.032-0.069-0.08-0.172C7.236,38.37,7.753,38.133,8.271,37.896z"/>
			<path fill-rule="evenodd" clip-rule="evenodd" fill="#505050" d="M52.131,38.592c-0.74-0.743-1.48-1.487-2.223-2.23
				c0.058-0.067,0.102-0.159,0.173-0.196c0.71-0.357,1.458-0.57,2.259-0.506c0.348,0.029,0.733,0.096,0.912,0.436
				c0.207,0.395,0.121,0.801-0.14,1.16C52.787,37.702,52.458,38.146,52.131,38.592z"/>
			<path fill-rule="evenodd" clip-rule="evenodd" fill="#505050" d="M46.305,34.807c-0.3,0.526-0.672,0.912-1.146,1.239
				c-0.428,0.297-0.756,0.734-1.156,1.077c-0.577,0.498-1.191,0.951-1.765,1.452c-0.641,0.561-1.251,1.154-1.882,1.726
				c-0.092,0.082-0.225,0.153-0.346,0.161c-0.318,0.021-0.642,0.009-1.033,0.009c0.095-0.104,0.15-0.159,0.202-0.218
				c0.802-0.915,1.78-1.609,2.777-2.293c0.609-0.417,1.155-0.931,1.722-1.411c0.595-0.507,1.182-1.025,1.77-1.541
				C45.688,34.798,45.964,34.756,46.305,34.807z"/>
			<path fill-rule="evenodd" clip-rule="evenodd" fill="#505050" d="M49.553,36.007c-0.273-0.275-0.549-0.549-0.823-0.824
				c0.043-0.069,0.072-0.16,0.133-0.207c0.704-0.532,1.437-1.032,2.317-1.202c0.37-0.073,0.774-0.02,1.157,0.028
				c0.271,0.033,0.415,0.282,0.442,0.528c0.04,0.342,0.01,0.691,0.01,1.054c-1.085-0.177-2.062,0.051-2.985,0.56
				C49.73,35.982,49.638,35.986,49.553,36.007z"/>
			<path fill-rule="evenodd" clip-rule="evenodd" fill="#505050" d="M48.42,34.88c-0.228-0.229-0.455-0.455-0.684-0.685
				c0-0.01-0.004-0.023,0-0.029c0.371-0.393,1.475-0.476,1.896-0.138C49.228,34.312,48.824,34.597,48.42,34.88z"/>
			<path fill-rule="evenodd" clip-rule="evenodd" fill="#FFFFFF" d="M34.867,21.447c0.124-0.116,0.265-0.22,0.367-0.353
				c0.101-0.129,0.169-0.284,0.243-0.435c0.072-0.147,0.13-0.303,0.221-0.512c0.167,0.477,0.062,0.872-0.141,1.236
				c-0.227,0.406-0.591,0.587-1.106,0.474c0.089,0.315,0.191,0.582,0.234,0.857c0.12,0.755,0.227,1.51,0.315,2.267
				c0.053,0.457,0.009,0.93,0.107,1.374c0.085,0.379,0.308,0.729,0.477,1.106c-0.271,0.058-0.467-0.094-0.687-0.375
				c-0.027,0.089-0.048,0.159-0.068,0.229c-0.026-0.016-0.053-0.031-0.078-0.049c0.305-0.803-0.002-1.568-0.127-2.342
				c-0.15-0.936-0.335-1.867-0.521-2.798c-0.115-0.569-0.357-1.089-0.689-1.622c-0.062,0.294-0.114,0.541-0.165,0.789
				c-0.015-0.006-0.028-0.011-0.041-0.016c-0.041-0.325-0.054-0.656-0.13-0.975c-0.149-0.628-0.603-1.053-1.043-1.49
				c-0.409-0.404-0.797-0.83-1.189-1.251c-0.062-0.067-0.103-0.154-0.112-0.27c0.104,0.092,0.216,0.175,0.312,0.272
				c0.372,0.371,0.869,0.413,1.341,0.524c0.637,0.148,1.275,0.295,1.899,0.485c0.395,0.121,0.735,0.123,1.089-0.11
				c0.373-0.246,0.776-0.408,1.247-0.285c0.438,0.114,0.701,0.395,0.795,0.815c0.172,0.77-0.104,1.456-0.462,2.12
				c0.065-0.32,0.16-0.639,0.188-0.963c0.028-0.317,0.03-0.651-0.032-0.963c-0.108-0.547-0.578-0.774-1.1-0.568
				c-0.163,0.064-0.324,0.145-0.471,0.239c-0.467,0.304-0.929,0.26-1.427,0.062c-0.651-0.259-1.323-0.468-1.986-0.698
				c-0.04-0.013-0.085-0.015-0.118-0.021c0.325,0.34,0.666,0.658,0.961,1.016c0.183,0.223,0.296,0.502,0.44,0.756
				c0.036,0.103,0.054,0.216,0.109,0.305c0.22,0.356,0.462,0.697,0.672,1.058C34.356,21.624,34.591,21.674,34.867,21.447z"/>
			<path fill-rule="evenodd" clip-rule="evenodd" fill="#FFFFFF" d="M26.123,27.301c0.042-0.354,0.25-0.485,0.94-0.587
				c0.2-0.629-0.014-1.149-0.449-1.599c-0.387-0.401-0.661-0.864-0.836-1.393c-0.105-0.323-0.019-0.661,0.251-0.862
				c0.271-0.202,0.523-0.187,0.826,0.054c0.046,0.036,0.093,0.07,0.152,0.115c0.086-0.07,0.171-0.14,0.274-0.226
				c-0.107,0.52-0.198,0.569-0.647,0.376c-0.238-0.102-0.522,0.059-0.567,0.338c-0.05,0.313-0.062,0.626,0.178,0.887
				c0.19,0.205,0.374,0.417,0.601,0.672c0.056-0.765,0.745-1.026,1.029-1.632c0.112,0.325,0.068,0.579-0.1,0.795
				c-0.186,0.239-0.402,0.455-0.606,0.679c-0.152,0.166-0.185,0.321-0.02,0.512c0.23,0.261,0.31,0.58,0.313,0.927
				c0.002,0.209-0.028,0.512,0.088,0.604c0.258,0.204,0.592,0.321,0.91,0.434c0.147,0.052,0.332,0.02,0.496,0
				c0.876-0.1,1.633,0.154,2.249,0.781c0.348,0.354,0.716,0.423,1.171,0.237c0.47-0.192,0.922,0.002,1.335,0.187
				c0.567,0.253,1.118,0.558,1.648,0.886c0.703,0.437,1.356,0.959,2.169,1.202c-0.513-0.053-0.977-0.243-1.421-0.485
				c-0.317-0.173-0.627-0.36-0.941-0.54c-0.36-0.204-0.892-0.022-1.037,0.361c-0.103,0.27-0.284,0.434-0.563,0.512
				c-0.594,0.163-1.354,0.028-1.704-0.311c0.361,0,0.731,0.011,1.102-0.004c0.374-0.015,0.703-0.11,0.878-0.505
				c0.113-0.258,0.338-0.401,0.655-0.427c-0.146-0.066-0.286-0.145-0.437-0.198c-0.286-0.099-0.582-0.175-0.865-0.279
				c-0.295-0.108-0.579-0.09-0.856,0.03c-0.442,0.19-0.842,0.122-1.208-0.178c-0.221-0.18-0.43-0.375-0.66-0.539
				c-0.401-0.288-0.867-0.33-1.349-0.315c-0.333,0.008-0.677,0.043-0.996-0.026c-0.28-0.062-0.571-0.209-0.791-0.396
				C26.935,27.043,26.541,26.986,26.123,27.301z"/>
			<path fill-rule="evenodd" clip-rule="evenodd" fill="#FFFFFF" d="M45.059,25.42c-0.398-0.229-0.564-0.604-0.64-1.013
				c-0.103-0.551-0.403-0.964-0.799-1.333c-0.186-0.173-0.356-0.365-0.512-0.564c-0.256-0.331-0.435-0.364-0.782-0.109
				c-0.394,0.29-0.786,0.583-1.182,0.87c-0.124,0.089-0.26,0.162-0.391,0.243c-0.021-0.018-0.042-0.036-0.063-0.055
				c0.166-0.24,0.335-0.48,0.483-0.695c-0.169-0.18-0.33-0.353-0.492-0.523c0.019-0.026,0.035-0.054,0.054-0.079
				c0.201,0.043,0.401,0.106,0.605,0.122c0.176,0.014,0.36-0.007,0.532-0.05c0.27-0.069,0.53-0.169,0.817-0.263
				c-0.056-0.069-0.14-0.159-0.206-0.261c-0.275-0.426-0.56-0.85-0.812-1.289c-0.086-0.151-0.171-0.211-0.336-0.209
				c-0.373,0.006-0.746,0.005-1.118-0.002c-0.759-0.013-1.376-0.326-1.861-0.917c0.185,0.089,0.361,0.205,0.554,0.26
				c0.364,0.103,0.734,0.195,1.107,0.241c0.289,0.034,0.589,0.002,0.882-0.021c0.856-0.063,1.53,0.344,2.161,0.845
				c0.146,0.115,0.227,0.315,0.31,0.494c-0.425-0.495-1.049-0.581-1.578-0.842c-0.021,0.021-0.04,0.044-0.059,0.066
				c0.244,0.279,0.487,0.561,0.731,0.84c0.667,0.768,1.343,1.529,1.997,2.31c0.116,0.14,0.18,0.354,0.201,0.54
				C44.721,24.512,44.723,25.006,45.059,25.42z"/>
			<path fill-rule="evenodd" clip-rule="evenodd" fill="#FFFFFF" d="M46.201,28.205c-0.025,0.113-0.035,0.167-0.041,0.192
				c0.325-0.082,0.66-0.229,0.997-0.233c0.282-0.004,0.593,0.111,0.844,0.255c0.317,0.183,0.358,0.469,0.188,0.86
				c-0.018-0.343-0.157-0.613-0.494-0.668c-0.262-0.044-0.549-0.044-0.808,0.014c-0.617,0.138-1.218,0.35-1.837,0.477
				c-0.504,0.104-1.028,0.063-1.494-0.167c-0.442-0.22-0.534-0.671-0.557-1.126c-0.009-0.156,0.008-0.312,0.013-0.47
				c0.012-0.407,0.097-0.827-0.177-1.193c-0.016-0.021-0.008-0.06-0.021-0.085c-0.157-0.312,0.017-0.79-0.437-0.95
				c-0.335-0.118-0.688-0.186-1.033-0.274c0.022-0.016,0.065-0.044,0.124-0.084c-0.131-0.122-0.261-0.243-0.39-0.364
				c0.01-0.015,0.02-0.03,0.029-0.045c0.121,0.054,0.237,0.122,0.363,0.159c0.232,0.067,0.468,0.15,0.706,0.163
				c0.478,0.027,0.741,0.187,0.92,0.633c0.065,0.165,0.137,0.329,0.17,0.501c0.113,0.584,0.386,1.061,0.898,1.39
				c-0.015,0.021-0.028,0.044-0.043,0.065c-0.216-0.106-0.432-0.215-0.703-0.349c0.023,0.422,0.021,0.801,0.07,1.174
				c0.05,0.382,0.312,0.599,0.684,0.673c0.682,0.138,1.328,0.112,1.856-0.426C46.063,28.292,46.108,28.271,46.201,28.205z"/>
			<path fill-rule="evenodd" clip-rule="evenodd" fill="#FFFFFF" d="M31.922,32.656c-0.29,0.126-0.538,0.234-0.784,0.341
				c-0.028-0.035-0.056-0.071-0.083-0.106c0.15-0.189,0.299-0.376,0.463-0.579c-0.541-0.821-1.361-1.293-2.317-1.573
				c0.794,0.08,1.526,0.305,2.126,0.854c0.151,0.139,0.31,0.274,0.439,0.433c0.392,0.479,0.929,0.456,1.415,0.252
				c0.36-0.151,0.71-0.327,1.072-0.475c0.718-0.288,1.127-0.131,1.45,0.567c0.235,0.511,0.475,1.009,0.928,1.37
				c0.113,0.092,0.203,0.14,0.358,0.075c0.27-0.108,0.559-0.173,0.833-0.272c0.215-0.078,0.293-0.324,0.184-0.536
				c0.242-0.123,0.342-0.014,0.369,0.221c0.05,0.421-0.246,0.781-0.687,0.828c-0.13,0.013-0.261,0.001-0.399,0.065
				c0.082,0.029,0.163,0.062,0.273,0.102c-0.394,0.079-0.688-0.078-0.968-0.26c-0.483-0.315-0.854-0.727-1.112-1.255
				c-0.368-0.75-0.529-0.786-1.281-0.431c-0.284,0.133-0.567,0.266-0.855,0.388C32.844,32.877,32.344,32.92,31.922,32.656z"/>
			<path fill-rule="evenodd" clip-rule="evenodd" fill="#FFFFFF" d="M23.994,25.059c-0.062,0.375-0.153,0.747-0.182,1.126
				c-0.03,0.386-0.024,0.779,0.012,1.165c0.033,0.348,0.258,0.609,0.575,0.727c0.793,0.291,1.423,0.804,2.029,1.368
				c0.29,0.271,0.612,0.52,0.953,0.725c0.652,0.392,1.34,0.381,2.024,0.061c0.128-0.06,0.252-0.124,0.378-0.188
				c0.013,0.021,0.026,0.042,0.041,0.062c-0.094,0.074-0.182,0.158-0.282,0.221c-0.839,0.526-1.711,0.566-2.548,0.045
				c-0.52-0.323-0.963-0.762-1.457-1.129c-0.327-0.242-0.691-0.438-1.026-0.67c-0.301-0.209-0.581-0.445-0.878-0.661
				c-0.086-0.062-0.205-0.146-0.292-0.13c-0.429,0.078-0.858,0.162-1.274,0.292c-0.382,0.12-0.735,0.087-1.115-0.011
				c0.423-0.179,0.812-0.354,1.206-0.512c0.436-0.174,0.873-0.214,1.342,0.097c-0.128-0.749-0.023-1.407,0.209-2.045
				c0.068-0.188,0.193-0.356,0.293-0.534L23.994,25.059z"/>
			<path fill-rule="evenodd" clip-rule="evenodd" fill="#FFFFFF" d="M31.728,21.903c-0.127-0.392-0.395-0.605-0.755-0.735
				c-0.321-0.115-0.638-0.248-0.945-0.398c-0.325-0.159-0.442-0.463-0.29-0.786c0.137-0.288,0.321-0.554,0.485-0.829
				c0.025,0.013,0.05,0.028,0.076,0.041c-0.082,0.17-0.164,0.341-0.245,0.512c-0.262,0.548-0.192,0.719,0.37,0.922
				c0.092,0.033,0.183,0.08,0.277,0.093c1.062,0.146,1.556,0.843,1.716,1.813c0.103,0.626,0.106,1.269,0.183,1.899
				c0.074,0.61,0.168,1.219,0.285,1.822c0.037,0.188,0.175,0.355,0.271,0.541c-0.321-0.189-0.502-0.496-0.57-0.833
				c-0.179-0.86-0.276-1.739-0.483-2.592c-0.083-0.351-0.357-0.656-0.559-0.973c-0.23-0.36-0.586-0.415-0.981-0.378
				c-0.282,0.028-0.558-0.016-0.788-0.198c0.235-0.033,0.46-0.038,0.668-0.102C30.9,21.583,31.33,21.559,31.728,21.903z"/>
			<path fill-rule="evenodd" clip-rule="evenodd" fill="#FFFFFF" d="M37.81,29.99c0.331-0.36,0.652-0.709,1.022-1.112
				c-0.148-0.114-0.318-0.266-0.508-0.383c-0.412-0.256-0.79-0.531-0.812-1.073c-0.005-0.164-0.01-0.339,0.043-0.49
				c0.076-0.225,0.029-0.373-0.13-0.544c-0.335-0.355-0.643-0.738-0.958-1.111c-0.13-0.153-0.266-0.229-0.443-0.038
				c0.072-0.36,0.148-0.379,0.649-0.226c0.109-0.228,0.198-0.453,0.326-0.657c0.04-0.063,0.182-0.064,0.269-0.093
				c-0.073,0.556-0.247,1.074,0.182,1.545c0.146,0.162,0.224,0.387,0.339,0.597c0.312-0.306,0.609-0.614,1.068-0.701
				c-0.23,0.269-0.466,0.51-0.662,0.781c-0.409,0.565-0.326,1.164,0.174,1.65c0.225,0.218,0.407,0.479,0.618,0.733
				c0.216,0.111,0.474,0.23,0.72,0.371c0.193,0.111,0.33,0.026,0.479-0.081c0.209-0.149,0.425-0.288,0.665-0.395
				c-0.298,0.288-0.369,0.774-0.844,0.894c-0.211,0.054-0.374,0.036-0.547-0.092c-0.388-0.286-0.499-0.279-0.877,0.025
				C38.093,29.987,38.076,29.996,37.81,29.99z"/>
			<path fill-rule="evenodd" clip-rule="evenodd" fill="#FFFFFF" d="M38.244,30.885c0.331,0.024,0.662,0.072,0.994,0.069
				c0.459-0.004,0.919-0.03,1.376-0.076c0.323-0.031,0.58-0.206,0.789-0.458c0.526-0.637,1.03-0.712,1.737-0.276
				c0.215,0.133,0.439,0.256,0.66,0.382c0.297,0.169,0.582,0.179,0.875-0.027c0.402-0.281,0.813-0.595,1.345-0.444
				c0.306,0.087,0.588,0.257,0.881,0.389c0.184,0.083,0.368,0.166,0.551,0.248c-0.008,0.023-0.016,0.046-0.024,0.069
				c-0.297-0.102-0.604-0.181-0.888-0.309c-0.577-0.259-1.065-0.174-1.538,0.254c-0.495,0.449-1.085,0.466-1.652,0.108
				c-0.223-0.14-0.438-0.297-0.67-0.42c-0.329-0.174-0.644-0.147-0.848,0.132c-0.545,0.748-1.313,0.783-2.113,0.701
				c-0.501-0.05-0.996-0.172-1.492-0.261C38.231,30.938,38.238,30.911,38.244,30.885z"/>
			<path fill-rule="evenodd" clip-rule="evenodd" fill="#FFFFFF" d="M40.301,21.278c-0.125,0.021-0.247,0.045-0.372,0.061
				c-0.708,0.096-0.99,0.646-1.244,1.202c-0.102,0.224,0.039,0.431,0.241,0.578c0.244,0.179,0.494,0.354,0.717,0.559
				c0.379,0.349,0.357,0.838,0.392,1.309c-0.024-0.05-0.06-0.096-0.073-0.146c-0.167-0.618-0.549-1.046-1.134-1.303
				c-0.335-0.148-0.545-0.405-0.601-0.742c-0.444-0.073-0.877-0.137-1.307-0.216c-0.703-0.128-1.28,0.034-1.659,0.708
				c-0.021-0.437,0.356-0.924,0.865-1.019c0.376-0.068,0.772-0.028,1.161-0.021c0.272,0.004,0.546,0.051,0.818,0.044
				c0.09-0.002,0.192-0.1,0.262-0.18c0.133-0.152,0.226-0.345,0.371-0.483c0.348-0.328,0.559-0.698,0.455-1.198
				c0.032-0.002,0.064-0.004,0.097-0.007c0.034,0.27,0.068,0.538,0.102,0.792c0.27,0,0.592,0,0.913,0
				C40.303,21.235,40.302,21.257,40.301,21.278z"/>
			<path fill-rule="evenodd" clip-rule="evenodd" fill="#FFFFFF" d="M26.058,19.071c-0.038,0.377-0.105,0.754-0.11,1.133
				c-0.012,0.694,0.388,1.112,1.078,1.247c0.521,0.103,1.062,0.197,1.546,0.404c0.724,0.311,0.947,0.914,0.742,1.669
				c-0.077,0.281-0.165,0.568-0.185,0.856c-0.045,0.604,0.267,0.968,0.865,1.041c0.281,0.034,0.566,0.031,0.853,0.106
				c-0.361,0.02-0.726,0.079-1.083,0.052c-0.618-0.05-1.08-0.709-0.99-1.369c0.033-0.232,0.087-0.463,0.143-0.69
				c0.167-0.682-0.064-1.152-0.73-1.388c-0.33-0.116-0.68-0.176-1.022-0.257c-0.557-0.133-1.099-0.317-1.316-0.904
				c-0.104-0.279-0.119-0.614-0.089-0.917c0.034-0.342,0.164-0.674,0.253-1.011C26.027,19.054,26.042,19.062,26.058,19.071z"/>
			<path fill-rule="evenodd" clip-rule="evenodd" fill="#FFFFFF" d="M21.455,21.453c-0.219-0.452-0.633-0.591-1.082-0.64
				c-0.286-0.032-0.58-0.006-0.812-0.006c0.354-0.304,1.305-0.333,1.831,0.019c0.176,0.117,0.299,0.131,0.46,0.007
				c0.084-0.065,0.188-0.104,0.283-0.156c0.18-0.096,0.297-0.175,0.292-0.452c-0.013-0.665,0.947-1.209,1.57-0.899
				c-0.544,0.26-1.062,0.531-1.4,1.058c0.832-0.407,1.645-0.334,2.44,0.055c0.304,0.147,0.579,0.347,0.755,0.736
				c-0.673-0.584-1.411-0.78-2.198-0.646c-0.421,0.073-0.813,0.32-1.216,0.495c-0.312,0.135-0.621,0.28-0.931,0.421L21.455,21.453z"
				/>
			<path fill-rule="evenodd" clip-rule="evenodd" fill="#FFFFFF" d="M48.135,26.953c-0.252,0.073-0.451,0.132-0.67,0.196
				c0.067,0.147,0.143,0.31,0.216,0.47c-0.353-0.273-0.607-0.691-1.119-0.692c-0.492-0.002-0.899,0.15-1.064,0.702
				c-0.021-0.018-0.04-0.035-0.059-0.053c0.006-0.059,0.006-0.12,0.017-0.178c0.047-0.249,0.047-0.493,0.038-0.75
				c-0.021-0.463,0.063-0.934,0.131-1.395c0.052-0.374-0.005-0.682-0.286-0.963c-0.325-0.324-0.423-0.773-0.517-1.226
				c0.562,0.607,1.124,1.216,1.69,1.831c-0.207-0.046-0.452-0.1-0.656-0.145c0,0.583,0,1.188,0,1.855
				c0.636-0.26,1.14-0.034,1.65,0.207C47.673,26.894,47.875,26.897,48.135,26.953z"/>
			<path fill-rule="evenodd" clip-rule="evenodd" fill="#FFFFFF" d="M17.85,27.535c0.418-0.3,0.86-0.584,1.266-0.917
				c0.368-0.301,0.518-0.702,0.304-1.204c0.322,0.307,0.359,0.754,0.071,1.148c-0.194,0.265-0.422,0.518-0.676,0.726
				c-0.406,0.334-0.848,0.625-1.232,0.904c-0.298-0.721-0.601-1.438-0.889-2.158c-0.188-0.472-0.024-0.884,0.271-1.256
				c0.131-0.167,0.291-0.312,0.44-0.472c0.249,0.325,0.489,0.64,0.73,0.955c-0.011,0.013-0.021,0.026-0.031,0.04
				c-0.234-0.202-0.47-0.404-0.715-0.615c-0.097,0.146-0.198,0.288-0.287,0.437c-0.212,0.347-0.102,0.67,0.065,0.999
				C17.395,26.565,17.602,27.019,17.85,27.535z"/>
			<path fill-rule="evenodd" clip-rule="evenodd" fill="#FFFFFF" d="M27.115,17.345c0.179,0.017,0.356,0.033,0.535,0.048
				c0.175-0.603,0.43-0.801,1.084-0.826c0.258-0.01,0.515-0.001,0.772-0.001c0.006,0.038,0.01,0.077,0.016,0.116
				c-0.339,0.112-0.678,0.223-1.014,0.338c-0.11,0.037-0.224,0.075-0.325,0.13c-0.214,0.118-0.221,0.32-0.023,0.455
				c0.081,0.054,0.182,0.094,0.239,0.168c0.301,0.391,0.642,0.328,1.021,0.128c0.166-0.087,0.363-0.117,0.621-0.196
				c-0.245,0.461-0.531,0.713-1.012,0.717c0.138,0.356,0.315,0.688,0.21,1.16C28.771,18.54,28.037,17.865,27.115,17.345z"/>
			<path fill-rule="evenodd" clip-rule="evenodd" fill="#FFFFFF" d="M29.159,33.583c-0.965,0.138-1.922,0.261-2.876,0.063
				c-0.83-0.171-1.442-0.754-1.188-1.678c0.141-0.513,0.355-1.004,0.535-1.506c0.029,0.009,0.057,0.017,0.086,0.025
				c-0.074,0.377-0.146,0.756-0.222,1.134c-0.213,1.049,0.018,1.44,1.065,1.637c0.729,0.137,1.478,0.18,2.216,0.266
				C28.903,33.539,29.031,33.563,29.159,33.583z"/>
			<path fill-rule="evenodd" clip-rule="evenodd" fill="#FFFFFF" d="M20.428,29.574c0.213,0.198,0.484,0.361,0.629,0.602
				c0.346,0.565,0.659,1.156,0.935,1.761c0.354,0.785,0.97,1.146,1.788,1.234c0.3,0.033,0.602,0.049,0.895,0.073
				c0.002-0.005-0.001,0.021-0.013,0.025c-0.817,0.383-2.203,0.127-2.666-0.558c-0.319-0.473-0.536-1.014-0.783-1.532
				c-0.181-0.378-0.324-0.774-0.509-1.15c-0.074-0.148-0.216-0.264-0.325-0.394C20.395,29.614,20.412,29.596,20.428,29.574z"/>
			<path fill-rule="evenodd" clip-rule="evenodd" fill="#FFFFFF" d="M20.337,27.311c0.128,0.436,0.207,0.862,0.377,1.251
				c0.342,0.786,0.99,1.151,1.835,1.18c0.353,0.012,0.711-0.022,1.057,0.028c0.291,0.042,0.585,0.147,0.846,0.284
				c0.135,0.072,0.2,0.274,0.262,0.456c-0.338-0.499-0.832-0.451-1.32-0.431c-0.343,0.016-0.686,0.028-1.027,0.042
				c-0.975,0.04-1.986-0.786-2.025-1.838C20.328,27.966,20.337,27.649,20.337,27.311z"/>
			<path fill-rule="evenodd" clip-rule="evenodd" fill="#FFFFFF" d="M29.98,33.207c-0.018,0.175-0.048,0.348-0.051,0.522
				c-0.013,0.434,0.191,0.654,0.625,0.682c0.282,0.018,0.577-0.017,0.844,0.056c0.291,0.081,0.576,0.228,0.823,0.401
				c0.239,0.17,0.45,0.292,0.749,0.182c0.362-0.137,0.731-0.258,1.174-0.41c-0.48,0.426-0.943,0.752-1.515,0.787
				c-0.237,0.016-0.484-0.202-0.734-0.3c-0.276-0.105-0.554-0.214-0.839-0.285c-0.207-0.052-0.43-0.03-0.643-0.063
				c-0.501-0.078-0.807-0.548-0.679-1.039c0.048-0.185,0.109-0.365,0.165-0.547C29.928,33.196,29.954,33.202,29.98,33.207z"/>
			<path fill-rule="evenodd" clip-rule="evenodd" fill="#FFFFFF" d="M24.002,25.065c-0.008-0.437-0.08-0.887-0.008-1.31
				c0.127-0.748,0.537-1.343,1.198-1.744c-0.188,0.334-0.388,0.653-0.555,0.988c-0.478,0.966-0.334,1.875,0.261,2.744
				c0.186,0.271,0.352,0.557,0.499,0.855c-0.452-0.395-0.898-0.789-1.191-1.327c-0.046-0.085-0.14-0.143-0.212-0.214L24.002,25.065z
				"/>
			<path fill-rule="evenodd" clip-rule="evenodd" fill="#FFFFFF" d="M20.375,26.465c1.049-0.979,1.991-2.031,2.395-3.442
				C23.175,24.004,22.021,25.706,20.375,26.465z"/>
			<path fill-rule="evenodd" clip-rule="evenodd" fill="#FFFFFF" d="M16.083,30.834c-0.135,0.158-0.269,0.316-0.383,0.451
				c0-0.745,0-1.477,0-2.209c0.049-0.01,0.098-0.019,0.146-0.026c0.079,0.206,0.173,0.409,0.231,0.621
				c0.238,0.852,0.333,0.982,1.072,1.398C16.893,31.187,16.877,31.183,16.083,30.834z"/>
			<path fill-rule="evenodd" clip-rule="evenodd" fill="#FFFFFF" d="M42.316,27.894c-0.192-0.241-0.324-0.448-0.496-0.613
				c-0.222-0.213-0.443-0.184-0.654,0.046c-0.368,0.399-1.146,0.536-1.659,0.279c0.19-0.049,0.366-0.105,0.548-0.141
				c0.326-0.063,0.587-0.196,0.804-0.477c0.295-0.377,0.743-0.358,1.097-0.023C42.213,27.209,42.299,27.512,42.316,27.894z"/>
			<path fill-rule="evenodd" clip-rule="evenodd" fill="#FFFFFF" d="M40.958,32.792c0.437-0.606,0.875-1.213,1.358-1.883
				c0.04,0.243,0.069,0.419,0.097,0.589c0.257,0.061,0.524,0.123,0.795,0.187c0.006,0.042,0.014,0.084,0.021,0.125
				c-0.964-0.101-1.515,0.657-2.239,1.053C40.979,32.839,40.968,32.815,40.958,32.792z"/>
			<path fill-rule="evenodd" clip-rule="evenodd" fill="#FFFFFF" d="M21.447,21.443c-0.187,0.26-0.369,0.521-0.56,0.777
				c-0.101,0.135-0.215,0.256-0.322,0.383c-0.425,0.5-0.439,0.689-0.099,1.249c-0.446-0.09-0.722-0.503-0.552-0.924
				c0.118-0.287,0.3-0.58,0.526-0.786c0.3-0.272,0.673-0.463,1.014-0.689L21.447,21.443z"/>
			<path fill-rule="evenodd" clip-rule="evenodd" fill="#FFFFFF" d="M26.128,31.904c0.544-0.042,0.982-0.022,1.406,0.203
				c0.128,0.068,0.365,0.026,0.508-0.049c0.268-0.142,0.503-0.345,0.753-0.522c0.02,0.022,0.037,0.043,0.057,0.063
				c-0.192,0.263-0.363,0.539-0.578,0.78c-0.237,0.266-0.591,0.288-0.915,0.123c-0.293-0.149-0.594-0.282-0.892-0.424
				C26.375,32.035,26.286,31.986,26.128,31.904z"/>
			<path fill-rule="evenodd" clip-rule="evenodd" fill="#505050" d="M34.867,21.447c-0.276,0.227-0.511,0.177-0.676-0.107
				c-0.21-0.36-0.452-0.701-0.672-1.058c-0.056-0.089-0.073-0.202-0.109-0.305C33.895,20.468,34.381,20.956,34.867,21.447z"/>
			<path fill-rule="evenodd" clip-rule="evenodd" fill="#FFFFFF" d="M22.601,31.569c0.422,0.142,0.809,0.272,1.196,0.405
				c-0.008,0.031-0.015,0.064-0.021,0.098c-0.319,0.142-0.641,0.161-0.957-0.026C22.65,31.946,22.538,31.808,22.601,31.569z"/>
		</g>
	</g>
</g>
</svg>
