<?xml version="1.0" encoding="utf-8"?>
<!-- Generator: Adobe Illustrator 16.0.0, SVG Export Plug-In . SVG Version: 6.00 Build 0)  -->
<!DOCTYPE svg PUBLIC "-//W3C//DTD SVG 1.1//EN" "http://www.w3.org/Graphics/SVG/1.1/DTD/svg11.dtd">
<svg version="1.1" id="Capa_1" xmlns="http://www.w3.org/2000/svg" xmlns:xlink="http://www.w3.org/1999/xlink" x="0px" y="0px"
	 width="20px" height="21.287px" viewBox="0 0 20 21.287" enable-background="new 0 0 20 21.287" xml:space="preserve">
<path fill-rule="evenodd" clip-rule="evenodd" fill="#4059A7" d="M17.51,8.098c-0.051,1.59-0.52,3.027-1.438,4.319
	c-1.812,2.549-3.625,5.099-5.436,7.648c-0.371,0.523-0.822,0.522-1.195-0.002c-1.807-2.543-3.611-5.088-5.421-7.631
	c-0.937-1.317-1.412-2.78-1.409-4.399C2.615,4.641,5.08,1.584,8.396,0.866c4.094-0.887,8.017,1.622,8.912,5.711
	C17.416,7.075,17.444,7.591,17.51,8.098z M10.061,11.001c1.598,0,2.894-1.295,2.894-2.894s-1.296-2.894-2.894-2.894
	S7.167,6.51,7.167,8.108S8.463,11.001,10.061,11.001z"/>
</svg>
