<?xml version="1.0" encoding="utf-8"?>
<!-- Generator: Adobe Illustrator 16.0.0, SVG Export Plug-In . SVG Version: 6.00 Build 0)  -->
<!DOCTYPE svg PUBLIC "-//W3C//DTD SVG 1.1//EN" "http://www.w3.org/Graphics/SVG/1.1/DTD/svg11.dtd">
<svg version="1.1" id="Capa_1" xmlns="http://www.w3.org/2000/svg" xmlns:xlink="http://www.w3.org/1999/xlink" x="0px" y="0px"
	 width="21.5px" height="20.919px" viewBox="0 0 21.5 20.919" enable-background="new 0 0 21.5 20.919" xml:space="preserve">
<g>
	<g id="KwKNxJ.tif_7_">
		<g>
			<path fill-rule="evenodd" clip-rule="evenodd" fill="#4059A7" d="M10.827,19.692c-1.751-0.001-3.501,0.004-5.25-0.002
				c-2.096-0.008-3.639-1.558-3.64-3.647C1.936,12.521,1.936,9,1.937,5.478C1.938,3.489,3.529,1.892,5.516,1.89
				c3.536-0.002,7.072-0.001,10.607,0.002c1.762,0,3.188,1.16,3.548,2.884c0.039,0.188,0.062,0.384,0.062,0.575
				c0.003,3.622,0.009,7.244,0,10.866c-0.003,1.718-1.345,3.238-3.058,3.423c-0.767,0.082-1.547,0.046-2.32,0.05
				C13.18,19.697,12.003,19.692,10.827,19.692z M10.83,17.216c3.531,0.017,6.412-2.838,6.433-6.37
				c0.021-3.547-2.828-6.464-6.327-6.479c-3.627-0.016-6.504,2.814-6.522,6.418C4.395,14.325,7.264,17.201,10.83,17.216z"/>
			<path fill-rule="evenodd" clip-rule="evenodd" fill="#4059A7" d="M14.56,10.859c-0.024-1.438-0.6-2.496-1.765-3.222
				c-0.244-0.151-0.42-0.338-0.383-0.64c0.052-0.434,0.506-0.646,0.895-0.424c0.607,0.348,1.102,0.822,1.502,1.395
				c0.585,0.837,0.914,1.766,0.922,2.791c0.016,2.283-1.564,4.276-3.789,4.795c-2.75,0.643-5.484-1.201-5.926-3.992
				c-0.305-1.937,0.617-3.93,2.292-4.951c0.337-0.205,0.688-0.15,0.871,0.136c0.193,0.3,0.099,0.642-0.251,0.858
				c-1.209,0.75-1.811,1.836-1.803,3.26c0.008,1.717,1.301,3.264,2.992,3.584c1.846,0.348,3.646-0.691,4.248-2.455
				c0.056-0.162,0.104-0.33,0.13-0.498C14.531,11.263,14.543,11.026,14.56,10.859z"/>
			<path fill-rule="evenodd" clip-rule="evenodd" fill="#4059A7" d="M11.511,8.47c0,0.581,0.005,1.162-0.002,1.742
				c-0.006,0.516-0.411,0.834-0.867,0.695c-0.298-0.09-0.46-0.328-0.465-0.716c-0.006-0.624-0.003-1.247-0.003-1.87
				c0-0.537-0.005-1.074,0.004-1.612c0.008-0.515,0.42-0.831,0.873-0.684c0.285,0.093,0.456,0.347,0.459,0.704
				C11.514,7.31,11.511,7.89,11.511,8.47z"/>
		</g>
	</g>
</g>
</svg>
