<?xml version="1.0" encoding="utf-8"?>
<!-- Generator: Adobe Illustrator 16.0.0, SVG Export Plug-In . SVG Version: 6.00 Build 0)  -->
<!DOCTYPE svg PUBLIC "-//W3C//DTD SVG 1.1//EN" "http://www.w3.org/Graphics/SVG/1.1/DTD/svg11.dtd">
<svg version="1.1" id="icons" xmlns="http://www.w3.org/2000/svg" xmlns:xlink="http://www.w3.org/1999/xlink" x="0px" y="0px"
	 width="57.334px" height="61.333px" viewBox="0 0 57.334 61.333" enable-background="new 0 0 57.334 61.333" xml:space="preserve">
<g id="sU6UHB.tif">
	<g>
		<path fill-rule="evenodd" clip-rule="evenodd" fill="#505050" d="M4.52,55.593c0-3.274,0-6.401,0-9.559
			c2.867-0.632,4.998-2.469,7.129-4.295c1.806-1.548,3.812-2.533,6.252-2.307c0.642,0.06,1.309,0.189,1.894,0.446
			c3.757,1.655,7.495,3.354,11.236,5.042c0.276,0.125,0.547,0.269,0.802,0.431c1.243,0.781,1.692,2.386,1.063,3.765
			c-0.611,1.341-1.998,1.967-3.446,1.485c-2.079-0.692-4.144-1.431-6.215-2.149c-0.23-0.08-0.464-0.157-0.748-0.09
			c1.418,0.568,2.863,1.077,4.248,1.719c3.499,1.62,7.138,1.688,10.837,1.054c4.021-0.69,8.034-1.441,12.05-2.166
			c1.363-0.246,2.291,0.46,2.414,1.838c0.146,1.606-0.994,3.269-2.532,3.768c-4.48,1.454-8.978,2.857-13.421,4.414
			c-3.028,1.062-5.897,0.959-8.841-0.302c-3.365-1.44-6.801-2.715-10.21-4.051c-2.867-1.124-5.754-1.255-8.686-0.2
			C7.124,54.875,5.858,55.191,4.52,55.593z"/>
		<path fill-rule="evenodd" clip-rule="evenodd" fill="#505050" d="M31.646,21.287c3.549-0.481,7.046-0.955,10.627-1.441
			c0.901,2.982,1.304,6.199,1.417,9.521c-4.031,0-8.01,0-12.044,0C31.646,26.615,31.646,23.875,31.646,21.287z"/>
		<path fill-rule="evenodd" clip-rule="evenodd" fill="#505050" d="M31.659,31.191c4.002,0,7.981,0,12.021,0
			c-0.089,3.307-0.511,6.519-1.452,9.674c-1.372-0.27-2.701-0.606-4.054-0.78c-1.963-0.25-3.941-0.391-5.914-0.562
			c-0.37-0.032-0.679-0.008-0.674-0.542c0.021-2.474,0.009-4.947,0.012-7.422C31.599,31.448,31.634,31.336,31.659,31.191z"/>
		<path fill-rule="evenodd" clip-rule="evenodd" fill="#505050" d="M29.805,29.386c-3.999,0-7.939,0-11.877,0
			c-0.393-1.27,0.504-7.675,1.291-9.532c3.534,0.477,7.029,0.949,10.586,1.432C29.805,23.858,29.805,26.582,29.805,29.386z"/>
		<path fill-rule="evenodd" clip-rule="evenodd" fill="#505050" d="M29.824,31.212c0,2.766,0,5.471,0,8.235
			c-1.077,0.072-2.141,0.124-3.199,0.22c-1.02,0.092-2.037,0.242-3.058,0.33c-0.305,0.026-0.643-0.016-0.928-0.124
			c-1.256-0.486-2.503-1-3.742-1.526c-0.159-0.068-0.352-0.26-0.373-0.416c-0.31-2.21-0.593-4.424-0.893-6.719
			C21.812,31.212,25.785,31.212,29.824,31.212z"/>
		<path fill-rule="evenodd" clip-rule="evenodd" fill="#505050" d="M53.231,29.385c-2.639,0-5.176,0-7.771,0
			c-0.133-3.481-0.571-6.889-1.54-10.17c1.627-0.789,3.214-1.558,4.881-2.365C51.522,20.504,53,24.685,53.231,29.385z"/>
		<path fill-rule="evenodd" clip-rule="evenodd" fill="#505050" d="M16.019,29.385c-2.626,0-5.142,0-7.767,0
			c0.183-4.695,1.699-8.849,4.378-12.506c1.597,0.729,3.102,1.4,4.587,2.115c0.138,0.066,0.236,0.41,0.206,0.6
			c-0.414,2.457-0.876,4.906-1.274,7.367C16.025,27.734,16.06,28.535,16.019,29.385z"/>
		<path fill-rule="evenodd" clip-rule="evenodd" fill="#505050" d="M41.711,17.936c-3.368,0.942-6.67,1.281-10.063,1.395
			c0-3.859,0-7.672,0-11.514c1.438-0.009,2.75,0.135,3.927,1.047c2.178,1.688,3.718,3.852,4.913,6.287
			C40.916,16.025,41.273,16.937,41.711,17.936z"/>
		<path fill-rule="evenodd" clip-rule="evenodd" fill="#505050" d="M48.804,43.703c-1.68-0.812-3.247-1.571-4.879-2.36
			c0.94-3.248,1.416-6.646,1.522-10.141c2.597,0,5.149,0,7.779,0C53.006,35.854,51.53,40.023,48.804,43.703z"/>
		<path fill-rule="evenodd" clip-rule="evenodd" fill="#505050" d="M29.817,7.834c0,3.822,0,7.6,0,11.477
			c-3.37-0.062-6.674-0.449-9.891-1.32c-0.032-0.094-0.068-0.143-0.058-0.174c1.188-3.35,2.899-6.347,5.667-8.677
			C26.778,8.094,28.175,7.731,29.817,7.834z"/>
		<path fill-rule="evenodd" clip-rule="evenodd" fill="#505050" d="M10.856,40.855c-1.608-3.05-2.481-6.215-2.606-9.651
			c2.598,0,5.131,0,7.683,0c0.24,2.296,0.482,4.602,0.732,6.989C14.501,38.411,12.582,39.334,10.856,40.855z"/>
		<path fill-rule="evenodd" clip-rule="evenodd" fill="#505050" d="M41.668,42.595c-0.949,2.649-2.177,5.012-3.948,7.069
			c-0.128,0.148-0.33,0.3-0.514,0.323c-1.153,0.149-2.312,0.265-3.589,0.404c0.146-0.325,0.235-0.526,0.328-0.728
			c0.963-2.066,0.233-4.394-1.769-5.475c-0.463-0.251-0.63-0.529-0.595-1.035c0.042-0.6,0.01-1.205,0.01-1.905
			C35.027,41.285,38.327,41.708,41.668,42.595z"/>
		<path fill-rule="evenodd" clip-rule="evenodd" fill="#505050" d="M38.779,9.328c3.447,1.247,6.344,3.277,8.912,6.137
			c-1.464,0.702-2.845,1.365-4.301,2.063C42.249,14.459,40.841,11.719,38.779,9.328z"/>
		<path fill-rule="evenodd" clip-rule="evenodd" fill="#505050" d="M13.763,15.48c2.579-2.879,5.479-4.909,8.935-6.168
			c-2.054,2.396-3.494,5.129-4.619,8.208C16.634,16.838,15.258,16.188,13.763,15.48z"/>
		<path fill-rule="evenodd" clip-rule="evenodd" fill="#505050" d="M40.336,49.398c1.02-2.008,2.06-4.06,3.189-6.287
			c1.278,0.601,2.663,1.252,4.183,1.966C45.525,47.36,43.582,49.603,40.336,49.398z"/>
		<path fill-rule="evenodd" clip-rule="evenodd" fill="#505050" d="M29.824,41.219c0,0.654,0,1.163,0,1.776
			c-1.166-0.506-2.274-0.985-3.385-1.467c0.009-0.041,0.018-0.082,0.025-0.123C27.56,41.344,28.654,41.283,29.824,41.219z"/>
	</g>
</g>
<g id="hJQ7jU.tif">
	<g>
		<path fill="#FFFFFF" d="M29.019,23.307c-0.001,3.579-0.008,7.157,0.007,10.736c0.002,0.375-0.102,0.479-0.464,0.456
			c-0.494-0.031-0.993-0.028-1.487,0c-0.306,0.017-0.444-0.079-0.542-0.374c-0.444-1.334-0.913-2.659-1.373-3.988
			c-0.026-0.074-0.06-0.146-0.13-0.323c-0.013,0.19-0.024,0.283-0.024,0.375c-0.001,1.288-0.018,2.574,0.01,3.861
			c0.008,0.386-0.119,0.469-0.471,0.449c-0.494-0.029-0.992-0.021-1.486-0.002c-0.263,0.01-0.342-0.068-0.338-0.335
			c0.014-1.031,0.005-2.063,0.005-3.096c0-2.439,0-4.879,0.001-7.318c0-0.146,0.011-0.295,0.018-0.441c0.777,0,1.555,0,2.332,0
			c0.274,1.063,0.674,2.086,1.006,3.131c0.184,0.576,0.382,1.148,0.573,1.723c0.074-1.041,0.066-2.065,0.076-3.09
			c0.007-0.588-0.047-1.177,0.035-1.764C27.517,23.307,28.267,23.307,29.019,23.307z"/>
		<path fill="#FFFFFF" d="M33.121,23.307c1.608,0.549,2.125,1.896,2.379,3.373c0.311,1.818,0.221,3.63-0.374,5.395
			c-0.219,0.651-0.531,1.256-1.021,1.754c-0.434,0.44-0.95,0.675-1.579,0.666c-0.856-0.012-1.714-0.011-2.571,0.002
			c-0.235,0.003-0.325-0.049-0.325-0.307c0.009-3.575,0.007-7.15,0.008-10.725c0-0.053,0.017-0.105,0.024-0.158
			C30.814,23.307,31.968,23.307,33.121,23.307z M31.897,28.859c0,0.75-0.004,1.501,0.004,2.251c0.001,0.151-0.09,0.358,0.082,0.443
			c0.197,0.096,0.397-0.011,0.551-0.149c0.118-0.105,0.242-0.226,0.308-0.366c0.646-1.383,0.738-2.782,0.071-4.186
			c-0.127-0.269-0.327-0.493-0.622-0.6c-0.253-0.091-0.405-0.06-0.398,0.272C31.907,27.303,31.897,28.08,31.897,28.859z"/>
		<path fill="#FFFFFF" d="M20.409,23.307c0.665,3.622,1.328,7.244,1.998,10.865c0.045,0.24,0.011,0.335-0.264,0.326
			c-0.589-0.021-1.18-0.017-1.769-0.002c-0.218,0.006-0.326-0.061-0.335-0.278c-0.001-0.027-0.009-0.053-0.014-0.079
			c-0.206-1.221-0.206-1.218-1.463-1.116c-0.162,0.013-0.239,0.055-0.258,0.226c-0.033,0.307-0.107,0.608-0.129,0.914
			c-0.018,0.251-0.099,0.346-0.364,0.336c-0.562-0.021-1.126-0.022-1.688,0c-0.291,0.012-0.324-0.086-0.273-0.344
			c0.68-3.483,1.352-6.967,2.022-10.451c0.025-0.131,0.029-0.264,0.042-0.396C18.747,23.307,19.578,23.307,20.409,23.307z
			 M19.187,28.305c-0.035,0.004-0.07,0.006-0.106,0.01c-0.091,0.59-0.177,1.181-0.275,1.77c-0.033,0.196,0.03,0.293,0.225,0.252
			c0.149-0.032,0.443,0.145,0.413-0.185C19.385,29.533,19.275,28.922,19.187,28.305z"/>
		<path fill="#FFFFFF" d="M40.845,23.307c0.098,0.908,0.02,1.816,0.04,2.726c0.005,0.218-0.16,0.173-0.285,0.173
			c-0.616,0.003-1.233,0.015-1.849-0.004c-0.273-0.009-0.37,0.062-0.367,0.351c0.007,0.702-0.007,0.692,0.689,0.706
			c0.396,0.007,0.911-0.172,1.158,0.08c0.227,0.23,0.049,0.74,0.06,1.125c0.009,0.336-0.012,0.671,0.002,1.005
			c0.009,0.218-0.076,0.275-0.28,0.271c-0.442-0.012-0.885,0.007-1.326-0.009c-0.227-0.008-0.309,0.06-0.301,0.293
			c0.018,0.414,0.018,0.831,0,1.245c-0.009,0.242,0.064,0.326,0.317,0.319c0.643-0.018,1.286,0.005,1.929-0.012
			c0.249-0.006,0.32,0.07,0.315,0.317c-0.015,0.763-0.015,1.527,0,2.291c0.006,0.25-0.072,0.315-0.317,0.313
			c-1.42-0.012-2.841-0.008-4.262-0.003c-0.188,0.001-0.291-0.023-0.291-0.255c0.012-3.644,0.016-7.288,0.021-10.933
			C37.68,23.307,39.263,23.307,40.845,23.307z"/>
		<path fill="#FFFFFF" d="M17.272,23.307c-0.156,0.883-0.321,1.766-0.464,2.65c-0.034,0.213-0.123,0.256-0.314,0.253
			c-0.616-0.009-1.232,0.006-1.849-0.008c-0.229-0.005-0.293,0.068-0.297,0.295c-0.014,0.757-0.023,0.757,0.714,0.757
			c0.39,0,0.778,0.012,1.166-0.005c0.23-0.011,0.275,0.075,0.235,0.282c-0.129,0.656-0.252,1.314-0.364,1.976
			c-0.031,0.186-0.113,0.239-0.293,0.233c-0.374-0.011-0.751,0.015-1.125-0.009c-0.27-0.017-0.335,0.08-0.333,0.339
			c0.013,1.34-0.002,2.68,0.013,4.02c0.003,0.298-0.05,0.427-0.39,0.41c-0.642-0.03-1.286-0.01-1.929-0.01
			c0-3.625,0.002-7.25-0.006-10.875c0-0.233,0.03-0.318,0.299-0.316C13.981,23.314,15.627,23.307,17.272,23.307z"/>
		<path fill="#FFFFFF" d="M43.821,23.307c-0.006,2.316-0.012,4.635-0.017,6.951c-0.001,0.308,0.018,0.617-0.006,0.923
			c-0.022,0.305,0.058,0.424,0.391,0.409c0.615-0.029,1.232,0.006,1.848-0.015c0.274-0.01,0.34,0.087,0.335,0.343
			c-0.015,0.736-0.015,1.474,0,2.21c0.006,0.267-0.052,0.374-0.349,0.371c-1.406-0.017-2.812-0.012-4.22-0.004
			c-0.224,0.001-0.332-0.029-0.33-0.299c0.012-3.63,0.012-7.26,0.015-10.89C42.266,23.307,43.043,23.307,43.821,23.307z"/>
		<path fill="#FFFFFF" d="M49.131,23.307c-0.002,3.578-0.009,7.154,0.004,10.731c0.001,0.363-0.084,0.489-0.459,0.462
			c-0.493-0.034-0.992-0.028-1.486-0.001c-0.31,0.018-0.376-0.088-0.375-0.383c0.01-3.442,0.007-6.886,0.005-10.329
			c0-0.16-0.014-0.32-0.021-0.48C47.576,23.307,48.354,23.307,49.131,23.307z"/>
	</g>
</g>
</svg>
