<?xml version="1.0" encoding="utf-8"?>
<!-- Generator: Adobe Illustrator 16.0.0, SVG Export Plug-In . SVG Version: 6.00 Build 0)  -->
<!DOCTYPE svg PUBLIC "-//W3C//DTD SVG 1.1//EN" "http://www.w3.org/Graphics/SVG/1.1/DTD/svg11.dtd">
<svg version="1.1" id="icons" xmlns="http://www.w3.org/2000/svg" xmlns:xlink="http://www.w3.org/1999/xlink" x="0px" y="0px"
	 width="57.334px" height="61.333px" viewBox="0 0 57.334 61.333" enable-background="new 0 0 57.334 61.333" xml:space="preserve">
<g>
	<path fill="#505050" d="M14.17,44.145h5.437c3.589,0,2.196,3.624,7.248,3.624c1.009,0,20.767,0,20.767,0
		c1.76,0,3.803-1.78,3.803-3.542l2.534-15.214c0.57-3.399-2.051-6.613-5.499-6.613h-5.295"/>
	<path fill="#505050" d="M14.17,22.399c0,0,5.739,0,7.249,0c1.858,0,10.872-6.22,10.872-12.685V7.771
		c0-1.983,4.468-2.365,6.054-0.312c1.571,2.035,3.007,4.001,3.007,7.69c0,3.643-1.812,5.721-1.812,7.249c0,0.701,0,2.918,0,2.918
		c0,4.923-20.799,16.618-25.369,18.827V22.399"/>
	<rect x="3.298" y="18.775" fill="#505050" width="10.872" height="28.993"/>
</g>
</svg>
