<?xml version="1.0" encoding="utf-8"?>
<!-- Generator: Adobe Illustrator 16.0.0, SVG Export Plug-In . SVG Version: 6.00 Build 0)  -->
<!DOCTYPE svg PUBLIC "-//W3C//DTD SVG 1.1//EN" "http://www.w3.org/Graphics/SVG/1.1/DTD/svg11.dtd">
<svg version="1.1" id="Capa_1" xmlns="http://www.w3.org/2000/svg" xmlns:xlink="http://www.w3.org/1999/xlink" x="0px" y="0px"
	 width="326.809px" height="692.766px" viewBox="1678.524 107.234 326.809 692.766"
	 enable-background="new 1678.524 107.234 326.809 692.766" xml:space="preserve">
<path fill="#CDA349" d="M1787.462,399.5h108.936v108.936h-108.936V399.5z"/>
<g>
	<path fill="#C3922E" d="M1787.46,404.606v108.937h-108.936V404.606H1787.46z"/>
</g>
<g>
	<path fill="#E2C675" d="M1678.524,309.287h326.809v95.319h-326.809V309.287z"/>
	<path fill="#E2C675" d="M1678.524,106.734h326.809v95.319h-326.809V106.734z"/>
	<path fill="#E2C675" d="M1678.524,704.181h326.809V799.5h-326.809V704.181z"/>
</g>
<path fill="#C3922E" d="M1896.397,595.245v108.936H1787.46V595.245H1896.397z"/>
<path fill="#CDA349" d="M1896.397,595.245h108.936v108.936h-108.936V595.245z"/>
<path fill="#CDA349" d="M1896.397,200.352h108.936v108.936h-108.936V200.352z"/>
<path fill="#C3922E" d="M1787.46,202.053h108.938v108.936H1787.46V202.053z"/>
<path fill="#E2C675" d="M1678.524,499.926h326.809v95.319h-326.809V499.926z"/>
</svg>
