<?xml version="1.0" encoding="utf-8"?>
<!-- Generator: Adobe Illustrator 16.0.0, SVG Export Plug-In . SVG Version: 6.00 Build 0)  -->
<!DOCTYPE svg PUBLIC "-//W3C//DTD SVG 1.1//EN" "http://www.w3.org/Graphics/SVG/1.1/DTD/svg11.dtd">
<svg version="1.1" id="Capa_1" xmlns="http://www.w3.org/2000/svg" xmlns:xlink="http://www.w3.org/1999/xlink" x="0px" y="0px"
	 width="1200px" height="692.766px" viewBox="2376.5 107.234 1200 692.766" enable-background="new 2376.5 107.234 1200 692.766"
	 xml:space="preserve">
<path fill="#CDA349" d="M2892.417,464.799l106.235,24.103l-24.103,106.235l-106.235-24.103L2892.417,464.799z"/>
<path fill="#C3922E" d="M2914.393,607.98l-51.115,96.2l-96.198-51.114l51.115-96.2L2914.393,607.98z"/>
<path fill="#C3922E" d="M3454.664,569.054l-22.933,106.495l-106.494-22.932l22.933-106.496L3454.664,569.054z"/>
<path fill="#E2C675" d="M2579.883,514.286l291.303-148.146l43.207,84.966l-291.301,148.143L2579.883,514.286z"/>
<path fill="#E2C675" d="M2396.011,696.246l303.85-120.327l35.095,88.622l-303.85,120.327L2396.011,696.246z"/>
<path fill="#E2C675" d="M2804.079,704.181h326.808V799.5h-326.808V704.181z"/>
<path fill="#C3922E" d="M3021.951,595.245v108.936h-108.938V595.245H3021.951z"/>
<path fill="#CDA349" d="M2660.208,694.107l99.478-44.395l44.395,99.479l-99.478,44.394L2660.208,694.107z"/>
<path fill="#CDA349" d="M3050.398,575.919l105.156,28.446l-28.447,105.155l-105.155-28.446L3050.398,575.919z"/>
<path fill="#CDA349" d="M3167.924,475.441l101.303,40.056l-40.057,101.304l-101.303-40.057L3167.924,475.441z"/>
<path fill="#CDA349" d="M3007.951,475.5h108.936v108.936h-108.936V475.5z"/>
<path fill="#C3922E" d="M2922.031,356.947h108.938v108.936h-108.938V356.947z"/>
<path fill="#E2C675" d="M3157.194,610.835l316.419,81.744l-23.842,92.289l-316.419-81.743L3157.194,610.835z"/>
</svg>
