<?xml version="1.0" encoding="utf-8"?>
<!-- Generator: Adobe Illustrator 16.0.0, SVG Export Plug-In . SVG Version: 6.00 Build 0)  -->
<!DOCTYPE svg PUBLIC "-//W3C//DTD SVG 1.1//EN" "http://www.w3.org/Graphics/SVG/1.1/DTD/svg11.dtd">
<svg version="1.1" id="Capa_1" xmlns="http://www.w3.org/2000/svg" xmlns:xlink="http://www.w3.org/1999/xlink" x="0px" y="0px"
	 width="326.809px" height="692.766px" viewBox="696.621 107.234 326.809 692.766"
	 enable-background="new 696.621 107.234 326.809 692.766" xml:space="preserve">
<path fill="#CDA349" d="M805.559,399.5h108.936v108.936H805.559V399.5z"/>
<g>
	<path fill="#C3922E" d="M805.557,404.606v108.937H696.621V404.606H805.557z"/>
	<path fill="#C3922E" d="M1023.43,404.606v108.937H914.494V404.606H1023.43z"/>
</g>
<g>
	<path fill="#E2C675" d="M696.621,309.287h326.809v95.319H696.621V309.287z"/>
	<path fill="#E2C675" d="M696.621,106.734h326.809v95.319H696.621V106.734z"/>
	<path fill="#E2C675" d="M696.621,704.181h326.809V799.5H696.621V704.181z"/>
</g>
<path fill="#C3922E" d="M914.494,595.245v108.936H805.557V595.245H914.494z"/>
<path fill="#CDA349" d="M914.494,595.245h108.936v108.936H914.494V595.245z"/>
<path fill="#CDA349" d="M696.621,200.352h108.936v108.936H696.621V200.352z"/>
<path fill="#CDA349" d="M914.494,200.352h108.936v108.936H914.494V200.352z"/>
<path fill="#C3922E" d="M805.557,202.053h108.938v108.936H805.557V202.053z"/>
<path fill="#E2C675" d="M696.621,499.926h326.809v95.319H696.621V499.926z"/>
</svg>
