<?xml version="1.0" encoding="utf-8"?>
<!-- Generator: Adobe Illustrator 16.0.0, SVG Export Plug-In . SVG Version: 6.00 Build 0)  -->
<!DOCTYPE svg PUBLIC "-//W3C//DTD SVG 1.1//EN" "http://www.w3.org/Graphics/SVG/1.1/DTD/svg11.dtd">
<svg version="1.1" id="Capa_1" xmlns="http://www.w3.org/2000/svg" xmlns:xlink="http://www.w3.org/1999/xlink" x="0px" y="0px"
	 width="714.479px" height="648.764px" viewBox="3856 151.236 714.479 648.764"
	 enable-background="new 3856 151.236 714.479 648.764" xml:space="preserve">
<g id="GGMy60.tif">
	<g>
		<path fill-rule="evenodd" clip-rule="evenodd" fill="#7A7A7A" d="M4316.774,233.998c11.426,0.666,22.844,1.332,34.269,1.994
			c24.407,6.124,45.579,17.574,61.635,37.447c14.995,25.946,19.556,53.211,7.905,83.452c13.988,0,25.566-0.693,37.037,0.121
			c41.951,2.974,80.109,14.887,101.193,54.869c21.893,41.509,10.256,80.916-12.627,118.416c-0.766,1.25-1.341,2.712-2.377,3.683
			c-20.6,19.328-26.432,39.325-20.394,69.865c9.829,49.688-52.962,107.508-106.406,104.339c-9.171-0.541-15.025-2.827-18.042,10.564
			c-11.285,50.049-45.402,69.867-93.504,51.574c-20.415-7.766-31.452-3.953-47.246,8.614c-37.465,29.801-117.586,26.56-154.754-4.05
			c-6.576-5.411-11.109-8.299-20.793-5.669c-24.97,6.787-49.777,8.755-63.676-20.875c-2.867-6.115-9.791-5.496-15.508-6.348
			c-55.387-8.234-90.701-56.71-77.632-110.041c3.808-15.533,0.382-20.889-12.353-28.341c-32.598-19.086-49.738-54.372-37.824-87.649
			c8.793-24.567,5.776-41.562-12.37-57.91c-1.899-7.242-3.799-14.488-5.698-21.734c-0.207-9.021-0.404-18.043-0.609-27.067
			c0.291-2.743,0.574-5.489,0.863-8.235c0.43-2.952,11.698-71.399,47.692-79.932s10.066-0.958,11.497-3.516
			c25.112-0.37,38.552-9.347,46.43-37.112c14.716-51.845,43.59-68.598,98.61-67.885c8.905,0.116,14.147-0.533,18.231-10.246
			c9.326-22.176,27.618-35.1,50.193-42.592c61.989-20.569,111.998-4.001,155.613,51.858
			C4293.515,222.935,4289.062,250.463,4316.774,233.998z M4132.63,250.682c-12.215,5.957-19.994,0.73-27.584-4.904
			c-11.294-8.381-23.054-15.249-37.516-17.028c-46.206-5.69-76.411,11.531-91.352,62.693c-8.604,29.475-20.582,43.894-51.02,51.893
			c-41.393,10.877-63.191,70.41-44.053,106.479c7.724,14.553,16.474,24.919,33.196,9.916c2.936-2.635,7.187-7.277,11.3-2.855
			c5.707,6.139-2.304,8.463-4.844,12.082c-3.787,5.386-8.205,10.314-12.146,15.602c-34.67,46.511-24.201,84.461,28.706,109.054
			c7.427,3.455,40.58,2.562,9.897,24.18c-1.268,0.894-0.787,4.181-1.254,6.326c-12.331,56.53,10.37,98.404,65.504,100.433
			c11.414,0.416,20.129,4.35,26.307,16.061c11.324,21.48,39.269,20.459,52.27-2.023c2.772,4.005,5.062,7.603,7.629,10.984
			c26.174,34.486,63.088,35.814,101.434,32.866c35.861-2.756,59.926-21.103,72.698-54.549c3.653-9.575,6.997-19.275,10.968-28.714
			c1.549-3.67,2.785-9.301,8.75-7.594c4.102,1.173,4.02,5.703,4.433,9.192c1.404,11.837,0.326,23.527-4.376,34.499
			c-4.853,11.312-0.365,15.056,10.576,17.746c50.732,12.472,69.062,1.522,79.21-48.635c0.731-3.589,0.916-7.302,1.866-10.822
			c1.762-6.532,4.649-9.197,12.688-6.988c35.796,9.826,81.512-8.884,99.83-41.307c18.919-33.492,12.596-56.705-20.188-86.979
			c-4.112-3.795-13.465-7.701-7.938-15.318c3.48-4.795,12.592-3.146,16.4,0.009c23.764,19.715,32.775-0.901,43.061-15.562
			c7.938-11.319,15.24-23.479,20.486-36.226c16.539-40.164,1.008-83.104-37.682-102.972c-34.557-17.746-71.396-22.844-111.995-14.79
			c2.038-9.356,4.007-18.387,5.971-27.425c12.312-56.607-28.034-100.411-85.739-92.98c-10.541,1.358-19.614,4.087-22.734,16.796
			c-2.459,10.04-3.773,26.952-15.98,24.859c-13.825-2.368-5.668-18.528-5.475-28.207c0.68-33.359-4.736-65.018-36.944-81.096
			c-40.804-20.368-83.257-22.147-123.524,3.889c-6.009,3.881-11.432,9.228-15.838,14.9c-6.104,7.865-7.616,15.391,4.221,20.802
			C4113.698,230.388,4123.398,238.893,4132.63,250.682z"/>
		<path fill-rule="evenodd" clip-rule="evenodd" fill="#B2B2B2" d="M4132.63,250.682c-9.231-11.789-18.932-20.294-30.781-25.714
			c-11.837-5.411-10.324-12.937-4.221-20.802c4.406-5.673,9.829-11.019,15.838-14.9c40.268-26.036,82.721-24.257,123.524-3.889
			c32.208,16.078,37.624,47.736,36.944,81.096c-0.193,9.679-8.351,25.839,5.475,28.207c12.207,2.093,13.521-14.819,15.98-24.859
			c3.12-12.709,12.193-15.438,22.734-16.796c57.705-7.431,98.052,36.373,85.739,92.98c-1.964,9.038-3.933,18.068-5.971,27.425
			c40.599-8.055,77.438-2.956,111.995,14.79c38.689,19.868,54.221,62.808,37.682,102.972c-5.246,12.747-12.549,24.906-20.486,36.226
			c-10.285,14.661-19.297,35.277-43.061,15.562c-3.809-3.154-12.92-4.804-16.4-0.009c-5.527,7.617,3.825,11.523,7.938,15.318
			c32.783,30.274,39.106,53.487,20.188,86.979c-18.318,32.423-64.034,51.133-99.83,41.307c-8.038-2.209-10.926,0.456-12.688,6.988
			c-0.95,3.521-1.135,7.233-1.866,10.822c-10.147,50.157-28.478,61.106-79.21,48.635c-10.941-2.69-15.429-6.434-10.576-17.746
			c4.702-10.972,5.78-22.662,4.376-34.499c-0.413-3.489-0.331-8.02-4.433-9.192c-5.965-1.707-7.201,3.924-8.75,7.594
			c-3.971,9.438-7.314,19.139-10.968,28.714c-12.772,33.446-36.837,51.793-72.698,54.549c-38.346,2.948-75.26,1.62-101.434-32.866
			c-2.566-3.382-4.856-6.979-7.629-10.984c-13.001,22.482-40.945,23.504-52.27,2.023c-6.178-11.711-14.893-15.645-26.307-16.061
			c-55.134-2.028-77.835-43.902-65.504-100.433c0.467-2.146-0.014-5.433,1.254-6.326c30.683-21.618-2.471-20.725-9.897-24.18
			c-52.907-24.593-63.376-62.543-28.706-109.054c3.941-5.287,8.359-10.216,12.146-15.602c2.54-3.619,10.551-5.943,4.844-12.082
			c-4.113-4.422-8.364,0.221-11.3,2.855c-16.723,15.003-25.473,4.637-33.196-9.916c-19.139-36.068,2.66-95.602,44.053-106.479
			c30.438-7.999,42.416-22.418,51.02-51.893c14.94-51.162,45.146-68.383,91.352-62.693c14.462,1.779,26.222,8.647,37.516,17.028
			C4112.636,251.413,4120.415,256.639,4132.63,250.682z M4068.179,617.529c-7.306-4.951-13.632-9.923-20.561-13.817
			c-40.039-22.508-53.895-67.291-11.334-97.179c3.469-2.432,10.405-5.635,6.727-11.879c-3.154-5.359-9.211-2.889-14.07-1.767
			c-8.949,2.071-15.606,7.534-21.283,14.621c-22.504,28.091-18.592,68.629,9.219,95.46c6.149,5.931,12.975,10.563,16.264,19.838
			c14.169,39.928,41.297,55.829,83.579,49.783c7.608-1.088,13.139-0.637,20.183,3.641c20.131,12.219,40.418,6.103,56.229-15.211
			c-9.47-4.462-16.886,2.85-24.837,4.93c-9.464,2.479-19.015,3.185-24.215-4.207c-8.578-12.202-17.277-8.639-28.416-5.602
			c-30.34,8.282-58.177-5.729-66.945-33.05C4054.306,620.212,4062.067,626.74,4068.179,617.529z M4338.764,570.881
			c6.434,9.21,14.84,9.959,23.741,9.043c6.533-0.676,14.484-7.221,17.656,4.65c2.811,10.517-0.844,18.79-9.447,24.781
			c-8.119,5.651-18.037,5.337-27.273,7.371c-8.301,1.83-15.903,6.683-4.84,13.718c16.551,10.521,4.606,13.96-3.49,17.799
			c-5.828,2.763-12.688,3.252-18.92,5.265c-3.227,1.039-7.925,1.628-8.053,6.046c-0.173,6.129,5.389,6.408,9.455,6.581
			c18.781,0.786,35.406-3.809,42.811-23.171c2.506-6.545,4.508-11.136,11.445-14.268c21.209-9.581,27.893-27.425,22.605-48.88
			c-2.136-8.682-0.859-12.753,5.748-18.197c26.577-21.911,33.738-45.029,22.997-70.567c-11.024-26.212-41.947-44.628-70.743-42.184
			c-8.586,0.731-16.761,2.116-22.327,10.673c8.153,4.98,15.335,1.177,22.255,1.384c32.293,0.945,56.491,18.132,60.482,43.701
			c3.799,24.291-11.629,42.861-44.035,54.591C4359.015,562.771,4347.333,562.336,4338.764,570.881z M4080.272,362.847
			c21.422-5.161,36.695-8.849,54.274-13.086c-18.12-11.428-18.245-16.19-3.542-26.076c39.678-26.676,79.291-12.498,92.25,32.823
			c1.078,3.769-0.826,9.159,4.711,11.166c13.408-19.066,23.26-19.903,42.711-4.513c17.105,13.525,22.246,31.714,22.537,52.438
			c0.159,10.959-2.242,22.653,5.021,33.729c28.537-39.458,0.627-101.007-48.34-109.024c-10.103-1.655-16.894-3.92-22.82-12.915
			c-15.31-23.23-37.83-28.632-65.014-27.171C4122.22,302.359,4106.499,333.497,4080.272,362.847z M4013.64,430.057
			c-1.643-2.694-2.114-4.288-3.176-5.092c-35.033-26.535-36.36-41.819-6.004-72.922c2.105-2.153,5.01-3.976,3.043-6.902
			c-1.44-2.14-4.487-4.212-6.985-4.44c-8.672-0.787-15.94,2.978-20.673,10.023c-10.984,16.353-17.994,34.052-10.138,53.693
			c3.983,9.957,4.822,18.553,1.728,29.259c-5.312,18.403,4.818,42.27,17.836,48.105c4.117,1.845,8.441,3.877,11.986-0.291
			c2.944-3.46,0.006-6.567-1.736-9.773C3982.382,440.14,3982.42,440.118,4013.64,430.057z M4249.506,552.267
			c-2.286,10.284-9.313,13.298-16.649,17.002c-4.42,2.235-16.384,0.404-11.033,10.994c4.26,8.437,11.109,6.206,18.08,0.714
			c7.595-5.986,14.984-11.824,18.176-21.193c1.905-5.578,3.691-9.881,9.59-13.374c25.159-14.905,24.979-47.802,0.133-63.592
			c-2.195-1.392-5.871-2.729-7.783-1.821c-4.363,2.062-2.656,6.111-0.773,9.228c2.251,3.729,5.234,7.018,7.474,10.748
			c11.126,18.541,7.259,26.732-13.896,32.686c-9.576,2.698-21.944,1.534-27.609,15.411
			C4234.118,550.237,4241.589,551.223,4249.506,552.267z M4165.628,377.49c-8.462-11.466-8.462-11.466-15.549-12.249
			c-17.672-1.942-67.746,30.79-72.694,47.568c-0.61,2.085-0.989,4.264-1.224,6.427c-0.533,4.915,1.365,9.093,6.219,9.992
			c4.512,0.834,5.664-3.508,6.67-7.033c6.064-21.342,21.072-23.473,39.566-18.689c7.375,1.907,15.003,4.356,22.877-0.318
			c-2.729-10.917-14.965-10.178-18.717-18.004C4141.903,373.772,4155.494,383.289,4165.628,377.49z"/>
		<path fill-rule="evenodd" clip-rule="evenodd" fill="#7A7A7A" d="M4068.179,617.529c-6.111,9.211-13.873,2.683-19.461,5.562
			c8.769,27.321,36.605,41.332,66.945,33.05c11.139-3.037,19.838-6.601,28.416,5.602c5.2,7.392,14.751,6.687,24.215,4.207
			c7.951-2.08,15.367-9.392,24.837-4.93c-15.812,21.313-36.099,27.43-56.229,15.211c-7.044-4.277-12.574-4.729-20.183-3.641
			c-42.282,6.046-69.41-9.855-83.579-49.783c-3.289-9.274-10.114-13.907-16.264-19.838c-27.811-26.831-31.723-67.369-9.219-95.46
			c5.677-7.087,12.334-12.55,21.283-14.621c4.859-1.122,10.916-3.593,14.07,1.767c3.679,6.244-3.258,9.447-6.727,11.879
			c-42.561,29.888-28.705,74.671,11.334,97.179C4054.547,607.606,4060.873,612.578,4068.179,617.529z"/>
		<path fill-rule="evenodd" clip-rule="evenodd" fill="#7A7A7A" d="M4338.764,570.881c8.569-8.545,20.251-8.109,30.067-11.664
			c32.406-11.729,47.834-30.3,44.035-54.591c-3.991-25.569-28.189-42.756-60.482-43.701c-6.92-0.207-14.102,3.597-22.255-1.384
			c5.566-8.557,13.741-9.941,22.327-10.673c28.796-2.444,59.719,15.972,70.743,42.184c10.741,25.538,3.58,48.656-22.997,70.567
			c-6.607,5.444-7.884,9.516-5.748,18.197c5.287,21.455-1.396,39.299-22.605,48.88c-6.938,3.132-8.939,7.723-11.445,14.268
			c-7.404,19.362-24.029,23.957-42.811,23.171c-4.066-0.173-9.628-0.452-9.455-6.581c0.128-4.418,4.826-5.007,8.053-6.046
			c6.232-2.013,13.092-2.502,18.92-5.265c8.097-3.839,20.041-7.277,3.49-17.799c-11.063-7.035-3.461-11.888,4.84-13.718
			c9.236-2.034,19.154-1.72,27.273-7.371c8.604-5.991,12.258-14.265,9.447-24.781c-3.172-11.871-11.123-5.326-17.656-4.65
			C4353.604,580.84,4345.197,580.091,4338.764,570.881z"/>
		<path fill-rule="evenodd" clip-rule="evenodd" fill="#7A7A7A" d="M4080.272,362.847c26.227-29.35,41.947-60.487,81.789-62.627
			c27.184-1.461,49.704,3.941,65.014,27.171c5.927,8.995,12.718,11.26,22.82,12.915c48.967,8.017,76.877,69.566,48.34,109.024
			c-7.264-11.076-4.862-22.771-5.021-33.729c-0.291-20.725-5.432-38.913-22.537-52.438c-19.451-15.391-29.303-14.553-42.711,4.513
			c-5.537-2.007-3.633-7.397-4.711-11.166c-12.959-45.32-52.572-59.499-92.25-32.823c-14.703,9.886-14.578,14.647,3.542,26.076
			C4116.968,353.998,4101.694,357.686,4080.272,362.847z"/>
		<path fill-rule="evenodd" clip-rule="evenodd" fill="#7A7A7A" d="M4013.64,430.057c-31.22,10.062-31.258,10.083-14.119,41.66
			c1.742,3.206,4.681,6.313,1.736,9.773c-3.545,4.168-7.869,2.136-11.986,0.291c-13.018-5.836-23.148-29.702-17.836-48.105
			c3.095-10.706,2.256-19.302-1.728-29.259c-7.856-19.642-0.847-37.34,10.138-53.693c4.732-7.045,12.001-10.81,20.673-10.023
			c2.498,0.228,5.545,2.3,6.985,4.44c1.967,2.926-0.938,4.749-3.043,6.902c-30.356,31.103-29.029,46.387,6.004,72.922
			C4011.525,425.769,4011.997,427.362,4013.64,430.057z"/>
		<path fill-rule="evenodd" clip-rule="evenodd" fill="#7A7A7A" d="M4249.506,552.267c-7.917-1.044-15.388-2.029-24.292-3.198
			c5.665-13.877,18.033-12.713,27.609-15.411c21.154-5.953,25.021-14.145,13.896-32.686c-2.239-3.73-5.223-7.019-7.474-10.748
			c-1.883-3.116-3.59-7.166,0.773-9.228c1.912-0.908,5.588,0.43,7.783,1.821c24.846,15.79,25.026,48.687-0.133,63.592
			c-5.898,3.493-7.685,7.796-9.59,13.374c-3.191,9.369-10.581,15.207-18.176,21.193c-6.971,5.492-13.82,7.723-18.08-0.714
			c-5.351-10.59,6.613-8.759,11.033-10.994C4240.192,565.564,4247.22,562.551,4249.506,552.267z"/>
		<path fill-rule="evenodd" clip-rule="evenodd" fill="#7A7A7A" d="M4165.628,377.49c-10.134,5.799-23.725-3.717-32.852,7.693
			c3.752,7.827,15.987,7.087,18.717,18.004c-7.874,4.675-15.502,2.226-22.877,0.318c-18.494-4.783-33.502-2.652-39.566,18.689
			c-1.006,3.525-2.158,7.867-6.67,7.033c-4.854-0.899-6.752-5.077-6.219-9.992c0.234-2.163,0.613-4.342,1.224-6.427
			c4.948-16.778,55.022-49.51,72.694-47.568C4157.166,366.024,4157.166,366.024,4165.628,377.49z"/>
	</g>
</g>
</svg>
