<?xml version="1.0" encoding="utf-8"?>
<!-- Generator: Adobe Illustrator 16.0.0, SVG Export Plug-In . SVG Version: 6.00 Build 0)  -->
<!DOCTYPE svg PUBLIC "-//W3C//DTD SVG 1.1//EN" "http://www.w3.org/Graphics/SVG/1.1/DTD/svg11.dtd">
<svg version="1.1" id="Capa_1" xmlns="http://www.w3.org/2000/svg" xmlns:xlink="http://www.w3.org/1999/xlink" x="0px" y="0px"
	 width="326.809px" height="692.766px" viewBox="116.079 107.234 326.809 692.766"
	 enable-background="new 116.079 107.234 326.809 692.766" xml:space="preserve">
<path fill="#CDA349" d="M225.016,399.5h108.936v108.936H225.016V399.5z"/>
<g>
	<path fill="#C3922E" d="M225.014,404.606v108.937H116.079V404.606H225.014z"/>
	<path fill="#C3922E" d="M442.887,404.606v108.937H333.951V404.606H442.887z"/>
</g>
<g>
	<path fill="#E2C675" d="M116.079,309.287h326.808v95.319H116.079V309.287z"/>
	<path fill="#E2C675" d="M116.079,106.734h326.808v95.319H116.079V106.734z"/>
	<path fill="#E2C675" d="M116.079,704.181h326.808V799.5H116.079V704.181z"/>
</g>
<path fill="#C3922E" d="M333.951,595.245v108.936H225.014V595.245H333.951z"/>
<path fill="#CDA349" d="M116.079,595.245h108.935v108.936H116.079V595.245z"/>
<path fill="#CDA349" d="M333.951,595.245h108.936v108.936H333.951V595.245z"/>
<path fill="#CDA349" d="M116.079,200.352h108.935v108.936H116.079V200.352z"/>
<path fill="#CDA349" d="M333.951,200.352h108.936v108.936H333.951V200.352z"/>
<path fill="#C3922E" d="M225.014,202.053h108.938v108.936H225.014V202.053z"/>
<path fill="#E2C675" d="M116.079,499.926h326.808v95.319H116.079V499.926z"/>
</svg>
