<?xml version="1.0" encoding="iso-8859-1"?>
<!-- Generator: Adobe Illustrator 19.0.0, SVG Export Plug-In . SVG Version: 6.00 Build 0)  -->
<svg version="1.1" id="Capa_1" xmlns="http://www.w3.org/2000/svg" xmlns:xlink="http://www.w3.org/1999/xlink" x="0px" y="0px"
	 viewBox="0 0 470 470" style="enable-background:new 0 0 470 470;" xml:space="preserve">
<g>
	<path style="fill:#CDA349;" d="M307,0h64v64h-64V0z"/>
	<path style="fill:#CDA349;" d="M371,0h64v64h-64V0z"/>
</g>
<g>
	<path style="fill:#C3922E;" d="M307,238v64h-64v-64H307z"/>
	<path style="fill:#C3922E;" d="M435,238v64h-64v-64H435z"/>
</g>
<g>
	<path style="fill:#E2C675;" d="M243,182h192v56H243V182z"/>
	<path style="fill:#E2C675;" d="M243,63h192v56H243V63z"/>
	<path style="fill:#E2C675;" d="M243,414h192v56H243V414z"/>
</g>
<path style="fill:#C3922E;" d="M371,350v64h-64v-64H371z"/>
<g>
	<path style="fill:#CDA349;" d="M243,350h64v64h-64V350z"/>
	<path style="fill:#CDA349;" d="M307,119h64v64h-64V119z"/>
</g>
<path style="fill:#C3922E;" d="M243,470L67,382l24-48l152,76V470z"/>
<path style="fill:#E2C675;" d="M243,294h192v56H243V294z"/>
<path style="fill:#CDA349;" d="M35,414h64v56H35V414z"/>
<g>
</g>
<g>
</g>
<g>
</g>
<g>
</g>
<g>
</g>
<g>
</g>
<g>
</g>
<g>
</g>
<g>
</g>
<g>
</g>
<g>
</g>
<g>
</g>
<g>
</g>
<g>
</g>
<g>
</g>
</svg>
