<?xml version="1.0" encoding="utf-8"?>
<!-- Generator: Adobe Illustrator 16.0.0, SVG Export Plug-In . SVG Version: 6.00 Build 0)  -->
<!DOCTYPE svg PUBLIC "-//W3C//DTD SVG 1.1//EN" "http://www.w3.org/Graphics/SVG/1.1/DTD/svg11.dtd">
<svg version="1.1" id="Capa_1" xmlns="http://www.w3.org/2000/svg" xmlns:xlink="http://www.w3.org/1999/xlink" x="0px" y="0px"
	 width="88.189px" height="90.702px" viewBox="0 0 88.189 90.702" enable-background="new 0 0 88.189 90.702" xml:space="preserve">
<g id="Uq0QiL.tif_9_">
	<g>
		<path fill-rule="evenodd" clip-rule="evenodd" fill="#D78528" d="M44.042,90.7C20.111,90.767,0.021,71.284,0,46.641
			C-0.012,22.158,19.789,2.533,43.938,2.527c11.595-0.003,21.798,3.892,30.271,11.864c9.228,8.68,13.948,19.465,13.98,32.143
			c0.033,11.802-4.122,22.045-12.258,30.605C67.406,86.106,55.605,90.81,44.042,90.7z M2.736,46.534
			c0,22.813,18.463,41.367,41.154,41.443c23.009,0.083,41.395-18.513,41.584-40.98C85.662,23.909,66.961,5.158,43.973,5.239
			C21.271,5.319,2.812,23.669,2.736,46.534z"/>
		<path fill-rule="evenodd" clip-rule="evenodd" fill="#4059A7" d="M2.736,46.534C2.812,23.669,21.271,5.319,43.973,5.239
			c22.988-0.082,41.689,18.669,41.502,41.757c-0.189,22.467-18.575,41.064-41.584,40.98C21.199,87.9,2.736,69.347,2.736,46.534z
			 M43.781,78.252c17.266-0.018,31.316-14.059,31.301-31.312c-0.01-17.293-14.039-31.284-31.366-31.272
			c-17.244,0.009-31.243,14.024-31.232,31.281C12.494,64.217,26.541,78.271,43.781,78.252z M59.375,14.521
			c-0.188-1.061-0.428-1.956-0.492-2.866c-0.084-0.977-0.551-1.488-1.465-1.746c-0.305-0.085-0.432-0.065-0.566,0.223
			c-0.602,1.38-1.246,2.75-1.83,4.137c-0.49,1.151-0.461,1.142,0.718,1.633c0.354,0.149,0.479,0.063,0.62-0.27
			c0.352-0.834,0.732-1.648,1.174-2.609c0.186,0.999,0.436,1.846,0.486,2.701c0.055,1.035,0.555,1.561,1.498,1.844
			c0.301,0.091,0.406,0.096,0.536-0.207c0.591-1.347,1.2-2.683,1.802-4.021c0.541-1.191,0.533-1.169-0.645-1.746
			c-0.396-0.192-0.504-0.076-0.649,0.27C60.209,12.705,59.822,13.532,59.375,14.521z M12.82,29.072
			c-0.018-0.076-0.036-0.109-0.036-0.15c0.054-1.062-0.337-1.686-1.247-1.992c-0.758-0.25-1.363,0.003-1.933,0.93
			c-0.562,0.936-1.048,1.909-1.592,2.859c-0.21,0.372-0.105,0.553,0.269,0.734c1.225,0.624,2.429,1.287,3.654,1.918
			c0.417,0.214,0.874,0.724,1.24,0.567c0.348-0.152,0.486-0.776,0.736-1.184c0.159-0.256,0.152-0.433-0.16-0.575
			c-0.486-0.227-0.957-0.488-1.425-0.74c-0.138-0.083-0.399-0.105-0.38-0.297c0.025-0.208,0.206-0.375,0.416-0.44
			c0.156-0.051,0.33-0.071,0.508-0.074c0.595-0.018,1.186-0.011,1.777-0.018c0.174-0.004,0.358,0.056,0.46-0.142
			c0.298-0.562,0.591-1.131,0.925-1.764C14.908,28.798,13.836,28.463,12.82,29.072z M47.733,11.586
			c-0.007,1.86,1.298,3.021,3.397,3.047c1.77,0.025,2.955-1.347,2.959-3.43c0-1.833-1.306-2.977-3.401-2.97
			C48.887,8.234,47.736,9.532,47.733,11.586z M19.158,24.092c-0.015-1.554-1.799-3.245-3.394-3.234
			c-1.563,0.013-3.202,1.764-3.198,3.41c0.015,1.579,1.748,3.236,3.383,3.224C17.498,27.489,19.169,25.706,19.158,24.092z
			 M26.747,17.098c-0.247-0.148-0.275-0.437-0.435-0.646c-0.225-0.292-0.186-0.457,0.178-0.618c0.518-0.237,0.996-0.558,1.497-0.839
			c0.707-0.397,0.692-0.381,0.308-1.113c-0.174-0.328-0.337-0.319-0.616-0.145c-0.565,0.347-1.167,0.655-1.733,1.003
			c-0.377,0.23-0.529,0.089-0.732-0.243c-0.229-0.372-0.076-0.486,0.219-0.633c0.504-0.266,1.008-0.537,1.504-0.823
			c0.893-0.5,0.874-0.491,0.363-1.385c-0.131-0.23-0.215-0.19-0.389-0.096c-1.302,0.725-2.6,1.449-3.908,2.159
			c-0.229,0.12-0.236,0.227-0.12,0.442c0.889,1.581,1.772,3.164,2.644,4.757c0.17,0.31,0.297,0.27,0.562,0.118
			c1.08-0.62,2.156-1.226,3.256-1.813c0.898-0.484,0.892-0.462,0.387-1.363c-0.148-0.272-0.253-0.299-0.511-0.145
			c-0.692,0.41-1.403,0.787-2.103,1.171C27.004,16.949,26.893,17.02,26.747,17.098z M40.301,7.841
			c-1.759-0.001-2.995,0.738-3.293,2.029c-0.289,1.3-0.148,2.571,0.859,3.577c0.976,0.984,2.176,0.876,3.376,0.539
			c0.815-0.232,1.327-0.787,1.599-1.584c0.171-0.482,0.131-0.776-0.471-0.776c-0.182-0.003-0.381-0.038-0.555-0.102
			c-0.399-0.143-0.562-0.045-0.639,0.395c-0.105,0.553-0.584,0.867-1.135,0.859c-0.551-0.014-0.889-0.299-1.052-0.809
			c-0.177-0.537-0.261-1.086-0.192-1.641c0.059-0.469,0.309-0.825,0.766-0.995c0.432-0.158,0.892-0.136,1.149,0.241
			c0.298,0.417,0.591,0.372,0.968,0.208c0.207-0.089,0.421-0.182,0.643-0.238c0.308-0.078,0.285-0.215,0.148-0.444
			C41.932,8.263,41.203,7.787,40.301,7.841z M70.754,19.056c0-0.37-0.062-0.722-0.229-1.055c-1.113-2.15-3.561-2.545-5.174-0.774
			c-2.104,2.298-0.682,4.541,1.551,5.342c0.45,0.154,0.907,0.085,1.354-0.08c0.91-0.343,0.895-0.372,0.412-1.178
			c-0.304-0.504-0.568-0.767-1.174-0.39c-0.396,0.25-0.816,0.007-1.139-0.286c-0.315-0.276-0.442-0.638-0.297-1.037
			c0.257-0.705,0.703-1.287,1.341-1.673c0.729-0.442,1.784,0.094,1.708,0.908c-0.047,0.551,0.167,0.707,0.588,0.892
			C70.685,20.182,70.746,20.15,70.754,19.056z M35.203,10.48c-0.65-0.919-1.404-1.258-2.47-1.125
			c-1.465,0.188-2.705,1.113-2.883,2.264c-0.222,1.439,0.203,2.71,1.353,3.635c1.139,0.917,2.342,0.551,3.502-0.015
			c0.664-0.319,1.053-0.852,1.23-1.566c0.231-0.91,0.178-0.982-0.726-0.982c-0.134,0-0.272,0.018-0.399,0
			c-0.395-0.054-0.533,0.087-0.518,0.493c0.01,0.547-0.32,0.875-0.82,1.046c-0.479,0.162-0.902,0.06-1.182-0.337
			c-0.42-0.602-0.678-1.291-0.631-2.043c0.062-0.828,1.066-1.369,1.697-0.857c0.445,0.363,0.717,0.198,1.076-0.023
			C34.684,10.801,34.949,10.644,35.203,10.48z M10.127,35.33c0.007-0.758-0.596-1.454-1.557-1.688
			c-0.898-0.219-1.623,0.076-2.001,0.907c-0.468,1.004-0.735,2.09-1.087,3.134c-0.113,0.343,0.006,0.424,0.282,0.515
			c1.345,0.424,2.694,0.866,4.039,1.303c1.479,0.477,1.476,0.477,1.871-1.053c0.062-0.243,0.032-0.341-0.21-0.41
			c-0.399-0.12-0.791-0.312-1.197-0.375c-0.612-0.1-0.692-0.366-0.461-0.885C10.007,36.362,10.115,35.912,10.127,35.33z
			 M75.441,22.935c-0.979,1.385-1.896,2.698-2.839,3.994c-0.976,1.334-0.976,1.323-0.025,2.679c0.178,0.256,0.312,0.361,0.649,0.249
			c0.67-0.208,1.367-0.341,2.056-0.506c1.276-0.303,2.549-0.613,3.876-0.932c-0.294-0.448-0.58-0.811-0.801-1.206
			c-0.186-0.321-0.378-0.386-0.732-0.267c-1.259,0.413-2.535,0.792-3.884,1.206c0.065-0.14,0.079-0.192,0.116-0.236
			c0.822-1.024,1.649-2.05,2.465-3.087c0.105-0.13,0.305-0.229,0.109-0.477C76.098,23.919,75.793,23.452,75.441,22.935z
			 M22.033,22.06c0.359-0.265,0.715-0.562,1.092-0.811c0.297-0.197,0.301-0.339,0.076-0.618c-0.766-0.977-1.486-1.99-2.248-2.966
			c-0.232-0.303-0.258-0.475,0.105-0.646c0.102-0.045,0.178-0.143,0.264-0.214c0.926-0.738,0.926-0.738,0.171-1.639
			c-0.011-0.015-0.025-0.033-0.028-0.049c-0.109-0.192-0.207-0.149-0.359-0.035c-1.367,1.044-2.738,2.083-4.111,3.115
			c-0.192,0.136-0.236,0.219-0.08,0.442c0.692,0.993,0.682,0.999,1.635,0.263c0.095-0.071,0.196-0.132,0.266-0.219
			c0.275-0.319,0.445-0.183,0.648,0.098c0.732,1.002,1.482,1.996,2.227,2.986C21.772,21.882,21.834,22.047,22.033,22.06z
			 M77.168,40.082c0.293-0.092,0.584-0.201,0.881-0.267c0.322-0.07,0.362-0.219,0.261-0.518c-0.225-0.653-0.374-1.327-0.608-1.973
			c-0.146-0.395-0.033-0.524,0.34-0.634c1.193-0.337,2.379-0.722,3.564-1.068c0.269-0.082,0.392-0.151,0.269-0.468
			c-0.152-0.372-0.258-0.762-0.353-1.151c-0.051-0.205-0.107-0.301-0.34-0.221c-1.773,0.539-3.547,1.075-5.323,1.604
			c-0.235,0.069-0.29,0.161-0.21,0.406c0.417,1.329,0.822,2.667,1.232,3.999C76.925,39.928,76.925,40.118,77.168,40.082z
			 M80.492,31.474c-0.199-0.44-0.416-0.905-0.623-1.378c-0.091-0.185-0.215-0.096-0.33-0.042c-1.68,0.785-3.354,1.564-5.029,2.34
			c-0.182,0.082-0.279,0.176-0.17,0.394c0.203,0.391,0.384,0.79,0.562,1.187c0.091,0.189,0.196,0.236,0.399,0.136
			c1.66-0.783,3.32-1.552,4.981-2.328C80.395,31.728,80.547,31.695,80.492,31.474z M74.277,21.608
			c-0.043-0.053-0.108-0.125-0.162-0.202c-0.258-0.279-0.533-0.547-0.766-0.845c-0.199-0.254-0.338-0.247-0.576-0.029
			c-1.07,0.975-2.165,1.938-3.246,2.902c-0.326,0.292-0.898,0.616-0.888,0.908c0.019,0.357,0.54,0.686,0.806,1.052
			c0.25,0.342,0.435,0.301,0.717,0.043c1.303-1.186,2.622-2.355,3.924-3.534C74.169,21.831,74.285,21.784,74.277,21.608z
			 M46.156,10.816c0-0.558,0-1.111,0-1.668c0-1.439,0-1.425-1.439-1.403C44.361,7.747,44.26,7.85,44.26,8.2
			c0.021,1.416,0.011,2.828,0.011,4.25c0,1.485,0,1.474,1.472,1.432c0.326-0.011,0.432-0.108,0.418-0.428
			C46.148,12.571,46.156,11.695,46.156,10.816z M50.797,7.899c0.986,0.319,1.461-0.46,2.129-0.819
			C51.87,6.523,51.229,6.945,50.797,7.899z"/>
		<path fill-rule="evenodd" clip-rule="evenodd" fill="#FDFDFD" d="M43.781,78.252c-17.24,0.018-31.287-14.036-31.298-31.304
			c-0.011-17.257,13.988-31.272,31.232-31.281c17.327-0.011,31.356,13.979,31.366,31.272C75.098,64.193,61.047,78.234,43.781,78.252
			z M44.728,75.981c6.915-0.091,13.851-2.863,19.536-8.516c5.594-5.556,8.419-12.371,8.51-20.241
			c0.203-16.186-12.872-29.077-28.582-29.286C27.943,17.723,14.804,30.867,14.76,46.846C14.717,62.763,27.559,75.847,44.728,75.981z
			"/>
		<path fill-rule="evenodd" clip-rule="evenodd" fill="#FDFDFD" d="M59.375,14.521c0.447-0.99,0.834-1.816,1.187-2.656
			c0.146-0.346,0.253-0.462,0.649-0.27c1.178,0.576,1.186,0.555,0.645,1.746c-0.602,1.338-1.211,2.674-1.802,4.021
			c-0.13,0.303-0.235,0.297-0.536,0.207c-0.943-0.283-1.443-0.809-1.498-1.844c-0.051-0.855-0.301-1.702-0.486-2.701
			c-0.441,0.961-0.822,1.775-1.174,2.609c-0.142,0.333-0.266,0.419-0.62,0.27c-1.179-0.491-1.208-0.482-0.718-1.633
			c0.584-1.387,1.229-2.757,1.83-4.137c0.135-0.288,0.262-0.308,0.566-0.223c0.914,0.257,1.381,0.769,1.465,1.746
			C58.947,12.565,59.188,13.461,59.375,14.521z"/>
		<path fill-rule="evenodd" clip-rule="evenodd" fill="#FDFDFD" d="M12.82,29.072c1.016-0.609,2.088-0.273,3.213-0.368
			c-0.334,0.632-0.627,1.202-0.925,1.764c-0.102,0.198-0.286,0.138-0.46,0.142c-0.592,0.007-1.183,0-1.777,0.018
			c-0.178,0.003-0.352,0.023-0.508,0.074c-0.21,0.065-0.391,0.232-0.416,0.44c-0.02,0.192,0.242,0.214,0.38,0.297
			c0.468,0.252,0.938,0.513,1.425,0.74c0.312,0.142,0.319,0.319,0.16,0.575c-0.25,0.408-0.389,1.032-0.736,1.184
			c-0.366,0.156-0.823-0.354-1.24-0.567c-1.226-0.631-2.43-1.294-3.654-1.918c-0.374-0.181-0.479-0.362-0.269-0.734
			c0.544-0.95,1.03-1.923,1.592-2.859c0.569-0.926,1.175-1.18,1.933-0.93c0.91,0.306,1.301,0.93,1.247,1.992
			C12.784,28.963,12.803,28.996,12.82,29.072z M11.457,29.458c0-0.42-0.195-0.651-0.576-0.685c-0.309-0.037-1.131,0.847-1.033,1.2
			c0.108,0.415,0.682,0.636,0.932,0.585C11.262,30.457,11.279,29.844,11.457,29.458z"/>
		<path fill-rule="evenodd" clip-rule="evenodd" fill="#FDFDFD" d="M47.733,11.586c0.003-2.054,1.153-3.352,2.955-3.352
			c2.096-0.007,3.401,1.137,3.401,2.97c-0.004,2.083-1.189,3.455-2.959,3.43C49.031,14.607,47.727,13.446,47.733,11.586z
			 M49.582,11.701c-0.014,0.836,0.363,1.363,1.052,1.461c0.726,0.105,1.208-0.248,1.443-1.069c0.104-0.366,0.171-0.743,0.155-1.129
			c-0.035-0.709-0.377-1.128-1.021-1.248c-0.668-0.12-1.172,0.187-1.414,0.865C49.67,10.946,49.59,11.314,49.582,11.701z"/>
		<path fill-rule="evenodd" clip-rule="evenodd" fill="#FDFDFD" d="M19.158,24.092c0.011,1.614-1.66,3.397-3.209,3.399
			c-1.635,0.013-3.368-1.645-3.383-3.224c-0.004-1.646,1.635-3.397,3.198-3.41C17.359,20.847,19.144,22.538,19.158,24.092z
			 M17.53,24.531c0.011-0.792-1.425-2.036-2.208-1.927c-0.932,0.13-1.429,1.149-0.896,1.913c0.374,0.537,0.837,0.988,1.493,1.18
			C16.707,25.93,17.52,25.33,17.53,24.531z"/>
		<path fill-rule="evenodd" clip-rule="evenodd" fill="#FDFDFD" d="M26.747,17.098c0.146-0.078,0.257-0.148,0.37-0.212
			c0.699-0.384,1.41-0.762,2.103-1.171c0.258-0.154,0.362-0.127,0.511,0.145c0.505,0.901,0.512,0.879-0.387,1.363
			c-1.1,0.587-2.176,1.193-3.256,1.813c-0.266,0.152-0.393,0.192-0.562-0.118c-0.871-1.594-1.755-3.176-2.644-4.757
			c-0.116-0.216-0.108-0.323,0.12-0.442c1.309-0.71,2.606-1.434,3.908-2.159c0.174-0.094,0.258-0.134,0.389,0.096
			c0.511,0.894,0.529,0.885-0.363,1.385c-0.496,0.286-1,0.557-1.504,0.823c-0.295,0.147-0.447,0.261-0.219,0.633
			c0.203,0.332,0.355,0.473,0.732,0.243c0.566-0.348,1.168-0.656,1.733-1.003c0.279-0.174,0.442-0.183,0.616,0.145
			c0.385,0.732,0.399,0.716-0.308,1.113c-0.501,0.281-0.979,0.602-1.497,0.839c-0.363,0.162-0.402,0.326-0.178,0.618
			C26.472,16.661,26.5,16.949,26.747,17.098z"/>
		<path fill-rule="evenodd" clip-rule="evenodd" fill="#FDFDFD" d="M40.301,7.841c0.902-0.054,1.631,0.422,2.172,1.26
			c0.137,0.229,0.159,0.366-0.148,0.444c-0.222,0.056-0.436,0.149-0.643,0.238c-0.377,0.163-0.67,0.208-0.968-0.208
			c-0.258-0.377-0.718-0.399-1.149-0.241c-0.457,0.17-0.707,0.526-0.766,0.995c-0.068,0.555,0.016,1.104,0.192,1.641
			c0.163,0.51,0.501,0.794,1.052,0.809c0.551,0.007,1.029-0.306,1.135-0.859c0.076-0.44,0.239-0.538,0.639-0.395
			c0.174,0.063,0.373,0.098,0.555,0.102c0.602,0,0.642,0.293,0.471,0.776c-0.271,0.798-0.783,1.353-1.599,1.584
			c-1.2,0.337-2.4,0.446-3.376-0.539c-1.008-1.006-1.148-2.277-0.859-3.577C37.306,8.579,38.542,7.839,40.301,7.841z"/>
		<path fill-rule="evenodd" clip-rule="evenodd" fill="#FDFDFD" d="M70.754,19.056c-0.008,1.095-0.069,1.126-1.059,0.669
			c-0.421-0.185-0.635-0.341-0.588-0.892c0.076-0.814-0.979-1.351-1.708-0.908c-0.638,0.386-1.084,0.968-1.341,1.673
			c-0.146,0.399-0.019,0.761,0.297,1.037c0.322,0.293,0.743,0.537,1.139,0.286c0.605-0.377,0.87-0.114,1.174,0.39
			c0.482,0.807,0.498,0.835-0.412,1.178c-0.446,0.165-0.903,0.234-1.354,0.08c-2.232-0.801-3.654-3.044-1.551-5.342
			c1.613-1.771,4.061-1.376,5.174,0.774C70.691,18.334,70.754,18.686,70.754,19.056z"/>
		<path fill-rule="evenodd" clip-rule="evenodd" fill="#FDFDFD" d="M35.203,10.48c-0.254,0.163-0.52,0.321-0.77,0.488
			c-0.359,0.221-0.631,0.386-1.076,0.023c-0.631-0.511-1.636,0.029-1.697,0.857c-0.047,0.752,0.211,1.441,0.631,2.043
			c0.279,0.397,0.703,0.499,1.182,0.337c0.5-0.17,0.83-0.499,0.82-1.046c-0.016-0.406,0.123-0.547,0.518-0.493
			c0.127,0.018,0.266,0,0.399,0c0.903,0,0.957,0.073,0.726,0.982c-0.178,0.714-0.566,1.248-1.23,1.566
			c-1.16,0.566-2.363,0.932-3.502,0.015c-1.149-0.924-1.574-2.195-1.353-3.635c0.178-1.151,1.418-2.076,2.883-2.264
			C33.799,9.222,34.553,9.562,35.203,10.48z"/>
		<path fill-rule="evenodd" clip-rule="evenodd" fill="#FDFDFD" d="M10.127,35.33c-0.012,0.582-0.12,1.032-0.32,1.448
			c-0.231,0.519-0.151,0.785,0.461,0.885c0.406,0.063,0.798,0.256,1.197,0.375c0.242,0.069,0.271,0.167,0.21,0.41
			c-0.396,1.53-0.392,1.53-1.871,1.053c-1.345-0.437-2.694-0.879-4.039-1.303c-0.276-0.091-0.396-0.172-0.282-0.515
			c0.352-1.044,0.619-2.13,1.087-3.134c0.378-0.831,1.103-1.126,2.001-0.907C9.531,33.876,10.134,34.572,10.127,35.33z
			 M8.034,35.422C7.6,35.435,7.2,35.954,7.175,36.459c-0.007,0.143,0.917,0.653,1.128,0.551c0.355-0.18,0.359-0.586,0.373-0.925
			C8.68,35.653,8.412,35.446,8.034,35.422z"/>
		<path fill-rule="evenodd" clip-rule="evenodd" fill="#FDFDFD" d="M75.441,22.935c0.352,0.517,0.656,0.984,0.99,1.418
			c0.195,0.248-0.004,0.346-0.109,0.477c-0.815,1.037-1.643,2.063-2.465,3.087c-0.037,0.043-0.051,0.096-0.116,0.236
			c1.349-0.414,2.625-0.792,3.884-1.206c0.354-0.12,0.547-0.055,0.732,0.267c0.221,0.395,0.507,0.758,0.801,1.206
			c-1.327,0.319-2.6,0.629-3.876,0.932c-0.688,0.165-1.386,0.297-2.056,0.506c-0.338,0.112-0.472,0.007-0.649-0.249
			c-0.95-1.356-0.95-1.345,0.025-2.679C73.545,25.633,74.463,24.32,75.441,22.935z"/>
		<path fill-rule="evenodd" clip-rule="evenodd" fill="#FDFDFD" d="M22.033,22.06c-0.199-0.013-0.261-0.178-0.344-0.292
			c-0.744-0.99-1.494-1.983-2.227-2.986c-0.203-0.281-0.373-0.417-0.648-0.098c-0.069,0.087-0.171,0.148-0.266,0.219
			c-0.953,0.736-0.942,0.73-1.635-0.263c-0.156-0.223-0.112-0.307,0.08-0.442c1.373-1.032,2.744-2.07,4.111-3.115
			c0.152-0.114,0.25-0.158,0.359,0.035c0.003,0.016,0.018,0.034,0.028,0.049c0.755,0.901,0.755,0.901-0.171,1.639
			c-0.086,0.071-0.162,0.169-0.264,0.214c-0.363,0.17-0.338,0.343-0.105,0.646c0.762,0.976,1.482,1.989,2.248,2.966
			c0.225,0.279,0.221,0.421-0.076,0.618C22.748,21.498,22.393,21.795,22.033,22.06z"/>
		<path fill-rule="evenodd" clip-rule="evenodd" fill="#FDFDFD" d="M77.168,40.082c-0.243,0.036-0.243-0.154-0.287-0.29
			c-0.41-1.333-0.815-2.67-1.232-3.999c-0.08-0.245-0.025-0.337,0.21-0.406c1.776-0.529,3.55-1.066,5.323-1.604
			c0.232-0.08,0.289,0.017,0.34,0.221c0.095,0.39,0.2,0.78,0.353,1.151c0.123,0.317,0,0.386-0.269,0.468
			c-1.186,0.346-2.371,0.73-3.564,1.068c-0.373,0.11-0.485,0.239-0.34,0.634c0.234,0.646,0.384,1.32,0.608,1.973
			c0.102,0.299,0.062,0.448-0.261,0.518C77.752,39.88,77.461,39.989,77.168,40.082z"/>
		<path fill-rule="evenodd" clip-rule="evenodd" fill="#FDFDFD" d="M80.492,31.474c0.055,0.221-0.098,0.254-0.21,0.31
			c-1.661,0.776-3.321,1.544-4.981,2.328c-0.203,0.1-0.309,0.053-0.399-0.136c-0.178-0.397-0.358-0.796-0.562-1.187
			c-0.109-0.218-0.012-0.312,0.17-0.394c1.676-0.776,3.35-1.556,5.029-2.34c0.115-0.055,0.239-0.144,0.33,0.042
			C80.076,30.569,80.293,31.034,80.492,31.474z"/>
		<path fill-rule="evenodd" clip-rule="evenodd" fill="#FDFDFD" d="M74.277,21.608c0.008,0.176-0.108,0.223-0.191,0.297
			c-1.302,1.179-2.621,2.348-3.924,3.534c-0.282,0.257-0.467,0.299-0.717-0.043c-0.266-0.366-0.787-0.694-0.806-1.052
			c-0.011-0.292,0.562-0.616,0.888-0.908c1.081-0.964,2.176-1.927,3.246-2.902c0.238-0.218,0.377-0.225,0.576,0.029
			c0.232,0.297,0.508,0.566,0.766,0.845C74.169,21.483,74.234,21.556,74.277,21.608z"/>
		<path fill-rule="evenodd" clip-rule="evenodd" fill="#FDFDFD" d="M46.156,10.816c0,0.879-0.008,1.755,0.004,2.638
			c0.014,0.319-0.092,0.417-0.418,0.428c-1.472,0.042-1.472,0.053-1.472-1.432c0-1.421,0.011-2.833-0.011-4.25
			c0-0.35,0.102-0.453,0.457-0.455c1.439-0.022,1.439-0.037,1.439,1.403C46.156,9.705,46.156,10.258,46.156,10.816z"/>
		<path fill-rule="evenodd" clip-rule="evenodd" fill="#FDFDFD" d="M50.797,7.899c0.432-0.954,1.073-1.376,2.129-0.819
			C52.258,7.438,51.783,8.218,50.797,7.899z"/>
		<path fill-rule="evenodd" clip-rule="evenodd" fill="#EA9036" d="M44.728,75.981C27.559,75.847,14.717,62.763,14.76,46.846
			c0.044-15.979,13.184-29.123,29.432-28.907c15.71,0.208,28.785,13.1,28.582,29.286c-0.091,7.87-2.916,14.685-8.51,20.241
			C58.578,73.118,51.643,75.89,44.728,75.981z M43.995,21.82c-7.074,12.904-14.108,25.73-21.135,38.541
			c0.134,0.152,0.25,0.104,0.358,0.104c13.804,0,27.611,0,41.414,0.013c0.457,0,0.525-0.073,0.287-0.497
			c-2.375-4.32-4.742-8.649-7.11-12.977c-2.324-4.244-4.648-8.484-6.973-12.729c-1.544-2.817-3.085-5.638-4.626-8.456
			C45.496,24.516,44.764,23.216,43.995,21.82z"/>
		<path fill-rule="evenodd" clip-rule="evenodd" fill="#4059A7" d="M11.457,29.458c-0.178,0.386-0.195,0.999-0.678,1.101
			c-0.25,0.051-0.823-0.17-0.932-0.585c-0.098-0.354,0.725-1.237,1.033-1.2C11.262,28.807,11.457,29.038,11.457,29.458z"/>
		<path fill-rule="evenodd" clip-rule="evenodd" fill="#4059A7" d="M49.582,11.701c0.008-0.386,0.088-0.754,0.215-1.121
			c0.242-0.678,0.746-0.984,1.414-0.865c0.645,0.12,0.986,0.539,1.021,1.248c0.016,0.386-0.051,0.763-0.155,1.129
			c-0.235,0.821-0.718,1.175-1.443,1.069C49.945,13.064,49.568,12.537,49.582,11.701z"/>
		<path fill-rule="evenodd" clip-rule="evenodd" fill="#4059A7" d="M17.53,24.531c-0.011,0.799-0.823,1.399-1.61,1.166
			c-0.656-0.192-1.119-0.644-1.493-1.18c-0.533-0.763-0.036-1.782,0.896-1.913C16.105,22.495,17.541,23.738,17.53,24.531z"/>
		<path fill-rule="evenodd" clip-rule="evenodd" fill="#4059A7" d="M8.034,35.422c0.378,0.024,0.646,0.23,0.642,0.664
			c-0.014,0.339-0.018,0.745-0.373,0.925c-0.211,0.102-1.135-0.408-1.128-0.551C7.2,35.954,7.6,35.435,8.034,35.422z"/>
		<path fill-rule="evenodd" clip-rule="evenodd" fill="#4059A7" d="M43.995,21.82c0.769,1.396,1.501,2.696,2.216,3.999
			c1.541,2.817,3.082,5.638,4.626,8.456c2.324,4.244,4.648,8.484,6.973,12.729c2.368,4.327,4.735,8.657,7.11,12.977
			c0.238,0.424,0.17,0.497-0.287,0.497c-13.803-0.013-27.61-0.013-41.414-0.013c-0.108,0-0.225,0.049-0.358-0.104
			C29.887,47.551,36.921,34.725,43.995,21.82z"/>
	</g>
</g>
</svg>
