<?xml version="1.0" encoding="utf-8"?>
<!-- Generator: Adobe Illustrator 16.0.0, SVG Export Plug-In . SVG Version: 6.00 Build 0)  -->
<!DOCTYPE svg PUBLIC "-//W3C//DTD SVG 1.1//EN" "http://www.w3.org/Graphics/SVG/1.1/DTD/svg11.dtd">
<svg version="1.1" xmlns="http://www.w3.org/2000/svg" xmlns:xlink="http://www.w3.org/1999/xlink" x="0px" y="0px"
	 width="141.596px" height="164.893px" viewBox="0 0 141.596 164.893" enable-background="new 0 0 141.596 164.893"
	 xml:space="preserve">
<g id="fondo">
</g>
<g id="Capa_1">
	<g>
		<path fill-rule="evenodd" clip-rule="evenodd" fill="#F93121" d="M128.281,124.883c-0.812,0.054-1.586,0.151-2.361,0.151
			c-33.401,0.009-66.804,0.009-100.203,0.011c-2.563,0-2.584-0.002-2.52-2.645c0.535-21.858,1.059-43.717,1.627-65.575
			c0.312-12.054,0.677-24.106,1.058-36.158c0.294-9.3,7.471-17.954,16.563-19.901c2.115-0.453,4.316-0.72,6.479-0.728
			c17.893-0.057,35.787-0.033,53.682-0.033c13.531,0,22.986,9.209,23.322,22.785c0.363,14.703,0.648,29.412,1.021,44.117
			c0.337,13.248,0.755,26.492,1.111,39.737c0.15,5.564,0.24,11.13,0.343,16.694C128.414,123.794,128.336,124.25,128.281,124.883z"/>
		<path fill-rule="evenodd" clip-rule="evenodd" d="M141.596,164.893c-3.887,0-7.518,0.001-11.145,0c-2.45,0-4.898-0.005-7.35-0.005
			c-36.518-0.003-73.039-0.003-109.559-0.003c-2.762,0-2.746-0.004-2.768-2.701c-0.043-5.891,0.026-11.787-0.188-17.673
			c-0.251-6.917,6.069-13.107,13.073-13.075c35.06,0.165,70.121,0.063,105.186,0.094c7.421,0.006,12.724,5.382,12.746,12.783
			C141.61,151.063,141.596,157.813,141.596,164.893z"/>
	</g>
</g>
<g id="contenedor">
</g>
</svg>
