<?xml version="1.0" encoding="utf-8"?>
<!-- Generator: Adobe Illustrator 16.0.0, SVG Export Plug-In . SVG Version: 6.00 Build 0)  -->
<!DOCTYPE svg PUBLIC "-//W3C//DTD SVG 1.1//EN" "http://www.w3.org/Graphics/SVG/1.1/DTD/svg11.dtd">
<svg version="1.1" xmlns="http://www.w3.org/2000/svg" xmlns:xlink="http://www.w3.org/1999/xlink" x="0px" y="0px"
	 width="183.63px" height="190.292px" viewBox="0 0 183.63 190.292" enable-background="new 0 0 183.63 190.292"
	 xml:space="preserve">
<g id="fondo">
</g>
<g id="Capa_1">
	<g>
		<g>
			<path fill="#FFFFFF" d="M98.665,81.19c-0.583-0.08-1.166-0.16-1.749-0.239c-0.602-2.224-1.445-4.415-1.768-6.681
				c-1.48-10.409-2.916-20.828-4.156-31.27c-0.583-4.9-2.143-9.13-7.739-8.946c-5.833,0.192-8.745,4.098-8.655,9.864
				c0.156,9.834,0.482,19.666,0.795,29.495c0.296,9.305,1.463,18.671,0.754,27.895c-0.589,7.626-5.388,9.202-11.828,4.792
				c-4.429-3.032-8.261-6.961-12.775-9.839c-6.275-4.003-13.136-5.441-19.688-0.62c-2.042,1.502-4.843,4.758-4.361,6.292
				c0.831,2.65,3.681,6.068,6.171,6.528c6.483,1.2,9.189,5.689,12.28,10.473c6.341,9.814,12.573,19.748,19.617,29.051
				c7.588,10.021,17.849,16.379,30.462,18.555c10.463,1.805,21.775-3.093,25.804-11.467c4.563-9.481,9.523-18.827,13.286-28.624
				c5.235-13.637,13.648-24.987,23.207-35.681c6.17-6.903,7.898-13.982,4.039-17.324c-3.935-3.406-10.005-1.09-16.696,6.167
				c-4.149,4.499-8.483,8.829-12.733,13.233c-0.186-3.893,1.023-6.848,2.16-9.834c3.073-8.077,6.639-16.02,8.976-24.306
				c1.402-4.968,4.442-12.145-2.923-14.658c-7.252-2.474-9.174,4.817-11.475,9.684c-3.846,8.136-7.196,16.506-10.755,24.779
				c-0.836-1.597-0.85-2.951-0.56-4.236c2.424-10.714,5.056-21.384,7.297-32.136c0.969-4.646,1.486-10.681-4.312-11.58
				c-2.939-0.456-8.033,3.495-9.749,6.729c-3.005,5.665-4.271,12.279-6.056,18.556C103.139,64.262,100.945,72.739,98.665,81.19z"/>
			<path fill-rule="evenodd" clip-rule="evenodd" d="M98.665,81.19c2.28-8.451,4.474-16.928,6.868-25.348
				c1.785-6.276,3.051-12.891,6.056-18.556c1.716-3.234,6.81-7.185,9.749-6.729c5.799,0.899,5.281,6.934,4.312,11.58
				c-2.241,10.752-4.873,21.422-7.297,32.136c-0.29,1.285-0.276,2.639,0.56,4.236c3.559-8.272,6.909-16.643,10.755-24.779
				c2.301-4.867,4.223-12.158,11.475-9.684c7.365,2.513,4.325,9.689,2.923,14.658c-2.337,8.286-5.902,16.229-8.976,24.306
				c-1.137,2.986-2.346,5.941-2.16,9.834c4.25-4.404,8.584-8.734,12.733-13.233c6.691-7.256,12.762-9.573,16.696-6.167
				c3.859,3.342,2.131,10.421-4.039,17.324c-9.559,10.693-17.972,22.043-23.207,35.681c-3.763,9.797-8.723,19.143-13.286,28.624
				c-4.028,8.374-15.341,13.271-25.804,11.467c-12.613-2.176-22.874-8.534-30.462-18.555c-7.044-9.303-13.276-19.236-19.617-29.051
				c-3.091-4.784-5.797-9.273-12.28-10.473c-2.49-0.46-5.34-3.878-6.171-6.528c-0.481-1.534,2.319-4.789,4.361-6.292
				c6.553-4.821,13.413-3.383,19.688,0.62c4.515,2.878,8.347,6.807,12.775,9.839c6.44,4.41,11.239,2.834,11.828-4.792
				c0.709-9.224-0.458-18.59-0.754-27.895c-0.312-9.83-0.639-19.661-0.795-29.495c-0.09-5.767,2.822-9.672,8.655-9.864
				C88.85,33.87,90.409,38.1,90.992,43c1.24,10.441,2.676,20.861,4.156,31.27c0.322,2.266,1.166,4.457,1.768,6.681
				C97.499,81.03,98.082,81.11,98.665,81.19z M83.972,41.538c-0.593-0.033-1.185-0.067-1.777-0.102
				c-0.364,1.218-1.063,2.441-1.042,3.652c0.174,9.371,0.378,18.746,0.786,28.109c0.386,8.869,1.624,17.746,1.351,26.585
				c-0.18,5.732-1.682,12.104-8.19,14.428c-6.626,2.367-12.279-0.44-17.444-4.699c-3.773-3.108-7.547-6.433-11.857-8.591
				c-2.727-1.365-6.438-0.76-9.707-1.039c-0.184,0.786-0.369,1.57-0.553,2.354c8.373,1.134,12.209,7.104,16.16,13.422
				c6.199,9.91,12.699,19.679,19.748,28.996c6.1,8.062,14.526,13.126,24.594,15.172c9.577,1.946,16.896-1.93,21.172-10.53
				c11.312-22.744,19.131-47.559,38.509-65.599c0.89-0.828,0.915-2.584,1.345-3.907c-2.633,0.685-4.283,1.922-5.654,3.416
				c-6.021,6.561-11.807,13.352-18.042,19.702c-1.696,1.729-5.754,3.723-6.807,2.956c-2.047-1.489-3.731-4.847-3.733-7.433
				c-0.003-3.347,1.569-6.782,2.848-10.028c3.344-8.487,6.969-16.864,10.322-25.348c0.963-2.436,1.387-5.087,2.059-7.64
				c-0.534-0.187-1.067-0.374-1.602-0.56c-2.372,5.255-4.715,10.522-7.121,15.76c-2.824,6.145-5.302,12.509-8.785,18.259
				c-1.182,1.95-4.964,2.327-7.558,3.424c-1.012-2.426-3.056-4.948-2.84-7.258c0.583-6.257,2.003-12.451,3.313-18.622
				c1.916-9.013,4.023-17.985,6.051-26.975c-0.732-0.202-1.463-0.406-2.194-0.609c-1.713,5.678-3.462,11.346-5.124,17.037
				c-2.818,9.645-5.27,19.411-8.57,28.883c-0.883,2.532-4.285,4.183-6.533,6.238c-2.053-2.268-4.652-4.256-6.012-6.883
				c-1.462-2.828-2.039-6.217-2.52-9.434C86.918,63.648,85.485,52.587,83.972,41.538z"/>
		</g>
		<g id="_x32_qgO4H.tif_5_">
			<g>
				<path fill-rule="evenodd" clip-rule="evenodd" fill="#FC2438" d="M101.687,120.26c0.954-1.118,1.795-2.265,2.796-3.25
					c4.91-4.832,11.838-1.539,13.736,2.765c2.141,4.85,1.279,9.286-2.012,13.217c-1.51,1.803-3.427,3.282-5.239,4.811
					c-2.435,2.052-4.962,3.99-7.415,6.02c-0.66,0.547-1.192,1.249-1.824,1.921c-3.576-4.224-8.433-6.919-12.479-10.575
					c-2.72-2.457-4.689-5.389-5.07-9.148c-0.433-4.252,1.323-9.294,6.672-11.002c3.206-1.023,6.519-0.035,8.987,2.838
					C100.507,118.635,101.092,119.483,101.687,120.26z"/>
			</g>
		</g>
	</g>
</g>
<g id="contenedor">
</g>
</svg>
