<?xml version="1.0" encoding="utf-8"?>
<!-- Generator: Adobe Illustrator 16.0.0, SVG Export Plug-In . SVG Version: 6.00 Build 0)  -->
<!DOCTYPE svg PUBLIC "-//W3C//DTD SVG 1.1//EN" "http://www.w3.org/Graphics/SVG/1.1/DTD/svg11.dtd">
<svg version="1.1" xmlns="http://www.w3.org/2000/svg" xmlns:xlink="http://www.w3.org/1999/xlink" x="0px" y="0px"
	 width="233.342px" height="102.062px" viewBox="0 0 233.342 102.062" enable-background="new 0 0 233.342 102.062"
	 xml:space="preserve">
<g id="fondo">
</g>
<g id="Capa_1">
	<g>
		<path fill-rule="evenodd" clip-rule="evenodd" fill="#58923E" d="M222.231,91.166c0,1.053-0.672,1.708-1.908,1.708H21.139
			c-1.235,0-1.907-0.655-1.907-1.708V5.582c0-1.053,0.672-1.708,1.907-1.708h199.185c1.236,0,1.908,0.655,1.908,1.708V91.166z"/>
		<path fill-rule="evenodd" clip-rule="evenodd" fill="#F7FAF7" d="M207.265,48.697c-5.002,2.719-9.477,5.149-13.95,7.581
			c-7.76,4.217-15.535,8.406-23.27,12.67c-1.948,1.074-2.694,0.91-2.597-1.548c0.114-2.882,1.003-6.847-0.479-8.399
			c-1.912-2.005-5.913-0.642-9.003-0.646c-42.658-0.046-85.318-0.068-127.977,0.046c-3.119,0.008-3.979-0.839-3.783-3.852
			c0.26-4.014,0.232-8.066,0.008-12.085c-0.154-2.754,0.657-3.559,3.489-3.548c29.894,0.107,59.787,0.069,89.682,0.07
			c15.002,0,30.006-0.062,45.009,0.059c2.529,0.021,3.357-0.659,3.148-3.182c-0.219-2.658-0.049-5.348-0.049-8.695
			C180.827,34.385,193.729,41.37,207.265,48.697z"/>
		<text transform="matrix(1 0 0 1 59.9014 29.395)" fill="#FFFFFF" font-family="'Helvetica-Bold'" font-size="20.4001">RUTA DE</text>
		<text transform="matrix(1 0 0 1 28.9824 82.0435)" fill="#FFFFFF" font-family="'Helvetica-Bold'" font-size="20.4001">EVACUACIÓN</text>
	</g>
</g>
<g id="contenedor">
</g>
</svg>
