<?xml version="1.0" encoding="utf-8"?>
<!-- Generator: Adobe Illustrator 16.0.0, SVG Export Plug-In . SVG Version: 6.00 Build 0)  -->
<!DOCTYPE svg PUBLIC "-//W3C//DTD SVG 1.1//EN" "http://www.w3.org/Graphics/SVG/1.1/DTD/svg11.dtd">
<svg version="1.1" id="Capa_1" xmlns="http://www.w3.org/2000/svg" xmlns:xlink="http://www.w3.org/1999/xlink" x="0px" y="0px"
	 width="587.512px" height="680.221px" viewBox="0 0 587.512 680.221" enable-background="new 0 0 587.512 680.221"
	 xml:space="preserve">
<g>
	<g>
		<path fill="#C5A771" d="M513.132,607.082l0.015,0.285l0.285,0.021c1.37,0.1,2.77,0.464,4.159,1.085l0.185,0.083l0.156-0.13
			c2.189-1.818,4.731-2.741,7.554-2.741c3.641,0,6.705,1.556,7.622,2.071l-0.051,0.079l0.472,0.438
			c2.181-1.665,5.219-2.62,8.34-2.62c0.826,0,1.636,0.066,2.407,0.201c2.869,0.493,5.022,1.807,6.062,3.698l0.15,0.271l0.279-0.137
			c1.126-0.55,3.116-1.21,5.323-1.418l0.308-0.027l-0.011-0.311c-1.227-30.297-8.535-70.635-12.23-87.73
			c-2.56-11.854-9.856-19.057-16.3-25.416c-4.298-4.243-8.358-8.252-10.537-13.124c-6.395-14.289-15.44-43.962-21.664-84.394
			c-0.825-5.374-1.619-10.605-2.392-15.684l-0.341-2.241c-5.285-34.829-9.459-62.339-14.765-78.672
			c-6.003-18.467-25.951-53.808-46.319-69.402c-13.455-10.301-25.891-15.098-39.137-15.098c-3.271,0-6.579,0.281-10.414,0.883
			c-6.136,0.965-11.526,2.261-17.244,3.635c-7.651,1.837-15.562,3.738-26.648,5.269c-3.39,0.469-7.019,0.707-10.791,0.708
			c-10.501,0-20.492-1.764-29.34-3.325c-4.372-0.771-8.503-1.5-11.979-1.86c-2.874-0.298-6.54-0.449-10.9-0.449
			c-8.534,0-17.598,0.565-22.24,0.901l-0.105,0.627c10.804,4.573,16.416,9.853,22.214,18.704c-3.487-4.21-8.972-9.963-15.767-14.203
			c-7.864-4.903-19.356-8.108-28.491-10.353l-0.604-0.149l0.221,0.582c3.287,8.669,5.925,16.293,8.006,23.157
			c-1.618-3.637-3.838-8.767-4.95-11.937c-3.045-8.704-6.118-16.474-8.364-22.148c-1.165-2.945-1.988-5.194-2.451-6.685l-0.19-0.611
			l-1.686,2.249c-5.275,7.061-8.916,11.689-11.404,11.689c-1.851,0-3.647-0.885-5.336-2.629c-2.571-2.656-4.717-7.116-6.205-12.897
			l-0.122-0.476l-0.393,0.297c-6.912,5.236-14.623,8.632-19.198,9.675c-5.325,1.214-11.881,2.816-15.36,4.437
			c-3.427,1.599-13.295,7.764-18.887,11.428c-8.169,5.35-15.886,10.404-19.492,11.849c-5.476,2.193-12.754,3.031-15.628,3.289
			l9.566,1.402l-10.523,4.24c-0.903,2.333-5.915,0.041-5.915,0.041l0.521,11.318c3.313,16.85,10.87,43.226,14.153,54.402
			c-5.117-12.844-9.886-31.426-13.148-45.593l-0.634-0.016c-2.322,8.136-14.056,49.486-17.224,64.498
			c-3.583,16.97-2.206,41.856,1.124,55.18c1.488,5.942,3.996,13.376,6.672,21.3c3.444,10.206,7.005,20.758,8.968,29.812
			c2.418,11.127,2.531,24.524,2.623,35.338c0.041,4.924,0.076,9.175,0.321,12.496c0.19,2.627,0.897,7.134,1.794,12.84
			c2.715,17.29,7.258,46.227,4.287,67.604c-0.929,6.685-0.926,12.05-0.922,16.782c0.007,10.68,0.014,19.112-9.661,35.9l-0.304,0.527
			l0.608-0.037c0.246-0.015,0.5-0.023,0.759-0.023c3.053,0,6.89,1.022,9.954,2.037c-2.795-0.604-6.171-1.175-8.949-1.175
			c-1.244,0-2.301,0.113-3.144,0.34c-8.633,2.32-16.489,22.518-15.95,30.351c0.454,6.666,5.364,11.697,7.668,13.088
			c1.709,1.032,4.092,1.554,7.087,1.554c3.534,0,7.051-0.726,8.834-1.159l0.627-0.152l-0.494-0.416
			c-3.225-2.722-5.218-6.368-5.473-10.009c-0.656-9.531,7.165-27.149,14.542-29.185c0.869-0.238,1.831-0.361,2.855-0.361
			c3.571,0,7.399,1.436,10.232,2.801c-2.76-0.939-6.347-1.888-9.599-1.888c-1.197,0-2.283,0.132-3.228,0.392
			c-6.364,1.758-14.502,18.343-13.824,28.172c0.234,3.383,2.192,6.909,5.237,9.433c2.665,2.208,5.846,3.425,8.956,3.425
			c0.457,0,0.908-0.026,1.358-0.08c11.062-1.311,23.965-4.361,25.586-16.423c0.872-6.495,4.22-29.17,10.647-48.145
			c2.937-8.678,2.244-16.38,1.508-24.562c-0.504-5.608-1.026-11.408-0.334-17.719c0.739-6.764,2.96-19.452,5.33-32.984
			c2.893-16.545,5.888-33.652,5.845-38.562c-0.054-5.983-1.236-15.227-1.937-20.204l-0.018-0.124l-0.095-0.08
			c-1.695-1.429-3.387-2.886-5.061-4.351c-6.46-5.651-15.604-18.022-22.297-27.657c7.041,9.34,16.556,21.333,22.94,26.918
			c10.547,9.229,21.638,18.3,31.122,19.042c0.517,0.04,1.055,0.06,1.621,0.06c10.628,0,29.35-6.952,32.994-8.347l0.297-0.112
			l-0.105-0.299c-2.861-8.234-7.414-17.121-9.974-21.859c1.887,2.53,4.51,6.419,6.548,10.85c3.385,7.366,5.564,13.52,6.48,18.296
			c0.531,2.772,0.911,7.248,1.399,13.016c0.637,7.545,1.433,16.937,2.982,27.847l0.418,2.953
			c2.926,20.524,6.932,48.634,5.449,62.493c-0.838,7.846,0.003,12.985,0.817,17.955c0.836,5.111,1.628,9.939,0.616,17.246
			c-0.947,6.855-2.911,13.252-4.392,17.411l-0.144,0.4l0.423,0.034c1.149,0.093,2.328,0.366,3.498,0.812l0.191,0.072l0.148-0.139
			c2.272-2.098,5.091-3.162,8.381-3.162c3.59,0,6.67,1.259,7.827,1.8l0.171,0.079l0.153-0.106c2.22-1.534,5.171-2.415,8.099-2.415
			c0.579,0,1.149,0.035,1.703,0.104c2.888,0.365,5.095,1.58,6.218,3.424l0.164,0.265l0.272-0.147
			c1.636-0.89,4.484-1.788,7.158-1.788c0.77,0,1.493,0.074,2.156,0.222l0.427,0.092l-0.031-0.436
			c-0.797-11.053-1.08-20.094-0.862-27.653c0.204-7.153,0.366-12.803-1.72-26.456c-1.984-12.994-0.643-23.52,1.056-36.845
			c1.865-14.631,4.187-32.842,2.67-61.116c-0.442-8.264,0.436-14.439,1.289-20.42c0.967-6.787,1.879-13.2,0.672-21.898
			c-1.269-9.114-3.361-24.881-4.937-36.821c1.869,10.956,4.239,25.161,5.586,34.447l0.075,0.519l0.433-0.296
			c4.377-2.995,8.587-6.322,12.513-9.893c0.575-0.521,1.267-1.176,2.07-1.935l0.174-0.164c8.745-8.266,31.973-30.227,59.734-31.759
			l1.036-0.057l-0.881-0.548c-4.008-2.484-7.534-4.573-9.985-5.996c3.077,1.265,7.668,3.372,12.431,6.37
			c10.05,6.322,17.863,11.895,23.225,16.562c10.252,8.923,25.972,28.442,38.604,44.128c4.076,5.066,7.93,9.849,11.22,13.803
			c4.295,5.165,11.091,11.71,18.959,19.289c16.146,15.557,36.243,34.917,43.281,51.267
			C505.699,551.266,511.814,584.204,513.132,607.082z"/>
		<path fill="#C5A771" d="M226.194,206.759c-0.996-2.446-3.303-8.575-3.303-8.575l-3.955-16.286
			c-6.913,5.235-22.527,8.302-27.103,9.346c-5.324,1.214-12.879,2.74-16.357,4.361c-3.425,1.598-25.275,10.812-35.668,18.691
			c-4.344,3.268-31.082,14.188-38.075,16.822c-3.606,1.359,0.124,12.296,0.124,12.296s-0.879,6.525,2.052,18.07
			c-0.045-0.1-0.085-0.203-0.129-0.302c-0.072-0.154-1.932,3.431-1.922,3.564c1.698,22.047,18.171,61.295,23.204,72.28
			c-1.314-10.112-7.478-30.819-10.846-42.728c-0.16-0.565-0.312-1.133-0.466-1.7c5.814,8.668,14.682,13.971,22.159,13.249
			c13.299-1.286,37.974-16.378,65.716-74.746c-5.977,30.941-14.811,77.7-23.899,108.947c15.581-32.858,30.428-83.673,38.034-119.231
			c7.117-2.361,12.524-8.497,12.524-8.497S226.83,208.32,226.194,206.759z"/>
		<path fill="#BCA176" d="M70.434,646.153c0.002-5.388,4.177-18.509,9.942-25.603l-0.424-0.483
			c-6.681,4.091-13.564,19.567-14.117,25.436c-0.562,5.962,3.89,10.286,5.495,11.33c1.065,0.692,2.457,1.115,4.137,1.255
			l0.911,0.076l-0.658-0.637C73.745,655.619,70.433,651.604,70.434,646.153z"/>
		<path fill="#D9C39A" d="M70.449,645.797c0.166-5.578,4.279-18.297,9.927-25.246l-0.424-0.483
			c-6.653,4.073-13.501,19.428-14.106,25.352C67.255,646.166,68.835,646.128,70.449,645.797z"/>
		<path fill="#BCA176" d="M82.95,647.458c-0.479-7.049,5.533-23.814,13.293-29.627l0.516-0.387l-0.619-0.188
			c-1.923-0.583-3.521-0.842-5.179-0.842c-1.442,0-2.884,0.2-4.413,0.614c-7.936,2.154-15.134,22.117-15.136,29.125
			c-0.002,6.578,5.388,11.348,7.274,12.499c1.571,0.957,3.649,1.443,6.174,1.443h0.001c1.095,0,2.279-0.091,3.523-0.273l0.644-0.094
			l-0.46-0.459C87.017,657.714,83.362,653.451,82.95,647.458z"/>
		<path fill="#D9C39A" d="M90.962,616.414c-1.442,0-2.884,0.2-4.413,0.614c-7.936,2.154-15.134,22.117-15.136,29.125
			c0,0.023,0.004,0.049,0.004,0.073c3.158,1.859,6.345,2.037,9.921,0.565c0.415-7.752,4.794-23.654,14.905-29.379
			C96.243,617.413,92.619,616.414,90.962,616.414z"/>
		<path fill="#BCA176" d="M273.482,638.422c-0.485-2.278-2.751-3.889-6.059-4.306c-0.54-0.067-1.099-0.104-1.667-0.104
			c-3.532,0-8.373,1.441-10.393,5.501c-2.779,5.593-4.346,17.828-4.531,24.338c-0.208,7.348,2.908,11.15,5.269,13.37
			c1.125,1.06,4.002,1.691,7.697,1.691l0,0c3.985,0,7.629-0.749,9.282-1.91c2.55-1.792,4.01-8.491,3.949-13.935
			C276.977,658.236,275.452,647.641,273.482,638.422z"/>
		<path fill="#BCA176" d="M561.412,610.111c-1.03-0.62-2.354-0.936-3.942-0.936c-2.448,0-5.047,0.763-6.426,1.47l-0.165,0.339
			l0.059,0.247c1.397,8.386,2.549,21.395,2.366,26.77c-0.121,3.568-0.913,7.012-2.175,9.448l-0.178,0.342l0.366,0.119
			c1.136,0.369,2.595,0.565,4.219,0.565c2.57,0,5.238-0.479,6.965-1.247c2.778-1.237,7.209-6.877,7.209-11.224
			C569.71,628.334,565.61,612.643,561.412,610.111z"/>
		<path fill="#BCA176" d="M549.971,611.393c-0.384-2.297-2.576-4.009-5.859-4.574c-0.738-0.126-1.508-0.191-2.291-0.191
			c-3.481,0-7.935,1.324-9.999,5.043c-2.825,5.094-5.229,16.789-5.62,24.101c-0.325,6.156,2.195,11.064,4.662,13.603
			c1.48,1.525,5.777,2.066,9.008,2.066c0,0,0,0,0.002,0c3.487,0,6.463-0.57,7.961-1.524c2.498-1.59,4.304-6.393,4.49-11.948
			C552.505,632.649,551.363,619.735,549.971,611.393z"/>
		<path fill="#BCA176" d="M115.645,621.536c-10.91,2.875-15.368,18.624-15.852,28.169c-5.303,1.479-11.468,1.21-15.854-2.249
			c0.48,6.634,5.364,11.635,7.66,13.022c1.709,1.032,4.092,1.554,7.087,1.554c3.534,0,7.051-0.726,8.834-1.159l0.627-0.152
			l-0.494-0.416c-3.134-2.643-5.092-6.164-5.434-9.701c-0.046-1.466-0.093-2.347,0.038-3.441
			C103.079,637.873,109.354,624.504,115.645,621.536z"/>
		<path fill="#BCA176" d="M525.225,635.719c0.347-6.571,2.537-18.751,5.739-24.524c0.392-0.706,0.923-1.375,1.673-2.104l0.308-0.301
			l-0.371-0.215c-0.792-0.462-3.641-1.966-7.04-1.966c-3.053,0-5.742,1.177-8.002,3.495c-3.961,4.069-10.267,19.436-10.267,26.827
			c0,5.834,4.778,11.569,6.809,12.192c2.161,0.667,5.162,1.064,8.023,1.064c0.002,0,0.002,0,0.002,0
			c2.849,0,5.242-0.385,6.735-1.087l0.363-0.17l-0.239-0.321C526.337,645.089,524.977,640.391,525.225,635.719z"/>
		<path fill="#C5A771" d="M570.925,150.259c-6.634-15.875-15.671-28.706-28.44-40.379C529.22,97.755,514.38,95.1,509.779,95.1
			c-0.658,0-1.172,0.046-1.521,0.14c-0.399,0.106-0.715,0.4-0.846,0.786c-0.126,0.375-0.056,0.786,0.187,1.101
			c0.749,0.967,2.161,2.44,3.188,3.517c1.61,1.685,5.926,6.997,6.429,7.694c17.645,24.482,24.181,44.629,20.562,63.405
			c-3.804,19.738-20.438,37.627-43.421,46.688c-19.475,7.678-42.068,9.214-63.539,10.129l-0.929,0.039l0.75,0.55
			c0.595,0.438,1.194,0.882,1.795,1.344c7.353,5.627,15.349,14.424,23.121,25.439l0.081,0.115l0.143,0.021
			c5.213,0.725,10.782,1.093,16.549,1.093c15.821,0,33.223-2.785,50.32-8.051c24.922-7.673,45.39-27.466,52.146-50.419
			C579.154,183.871,577.781,166.673,570.925,150.259z"/>
		<path fill="#BCA176" d="M568.744,148.337c13.648,83.23-79.537,97.312-131.388,86.958c3.141,3.651,12.894,14.283,16.021,18.713
			l0.083,0.115l0.14,0.02c5.213,0.726,10.782,1.093,16.551,1.093c15.822,0,33.223-2.786,50.319-8.051
			c24.921-7.674,45.391-27.466,52.146-50.42C576.978,181.948,575.602,164.75,568.744,148.337z"/>
		<path fill="#BCA176" d="M249.854,663.823c0.192-6.794,1.757-18.963,4.634-24.746c0.385-0.773,0.921-1.503,1.69-2.294l0.299-0.309
			l-0.377-0.207c-0.744-0.408-3.431-1.734-6.719-1.734c-3.277,0-6.093,1.304-8.37,3.876c-3.747,4.232-9.31,19.911-8.976,27.345
			c0.265,5.888,5.246,11.438,7.279,11.969c1.831,0.476,4.184,0.739,6.627,0.739c3.405,0,6.346-0.51,8.07-1.397l0.37-0.189
			l-0.275-0.315C251.1,673.114,249.709,668.947,249.854,663.823z"/>
		<path fill="#9E8763" d="M356.124,611.87c0.348-4.304,5.64-19.312,10.251-23.024c0.707-0.568,1.62-1.135,2.717-1.687l-0.182-0.616
			c-1.471,0.163-3.77,0.645-6.37,2.023c-6.169,3.264-10.869,20.848-11.25,24.612c-0.563,5.555,1.96,8.752,4.179,10.456
			c1.068,0.823,2.392,1.302,3.929,1.421l0.735,0.057l-0.45-0.583C357.357,621.522,355.796,615.962,356.124,611.87z"/>
		<path fill="#BCA176" d="M284.855,636.626c-0.939-0.511-2.111-0.769-3.475-0.769c-2.769,0-5.618,1.057-6.858,1.768l-0.147,0.35
			l0.067,0.243c1.684,7.886,3.506,19.271,3.566,24.84c0.037,3.032-0.447,7.813-1.92,11.302l-0.141,0.336l0.349,0.104
			c0.974,0.292,2.161,0.44,3.521,0.44h0.001c2.764,0,5.896-0.636,7.793-1.584c2.578-1.288,6.99-8.107,6.791-12.544
			C294.033,652.94,289.034,638.896,284.855,636.626z"/>
		<path fill="#BCA176" d="M231.058,665.8c-0.317-6.991,4.715-22.538,8.971-27.726l0.305-0.371l-0.456-0.146
			c-1.11-0.361-2.219-0.544-3.293-0.544c-2.499,0-4.767,0.974-6.744,2.892c-3.665,3.567-9.963,17.014-10.346,23.472
			c-0.298,4.996,3.551,10.271,5.322,11.257c1.384,0.772,3.908,1.231,6.753,1.231c1.066,0,2.125-0.07,3.064-0.2l0.556-0.079
			l-0.343-0.444C232.605,672.237,231.19,668.743,231.058,665.8z"/>
		<path fill="#D9C39A" d="M275.917,664.651c0.01-0.392,0.016-0.779,0.011-1.16c-0.053-4.833-1.578-15.427-3.548-24.647
			c-0.485-2.277-2.126-4.832-6.624-4.832c-3.532,0-7.261,1.612-9.28,5.672c-2.78,5.592-4.347,17.829-4.533,24.337
			c-0.024,0.872,0.005,1.687,0.067,2.462C259.364,670.997,271.547,668.758,275.917,664.651z"/>
		<path fill="#D9C39A" d="M250.378,647.128c0.873-3.548,2.152-8.707,5.372-11.043c-1.046-0.524-3.472-1.552-6.369-1.552
			c-3.277,0-4.79,1.559-7.069,4.131c-3.727,4.209-9.243,19.73-8.976,27.213c4.207,2.922,10.616,2.55,14.646,1.254
			C248.013,660.452,248.802,653.543,250.378,647.128z"/>
		<path fill="#D9C39A" d="M284.855,636.626c-0.939-0.511-2.111-0.769-3.475-0.769c-2.354,0-4.755,0.763-6.188,1.429
			c2.741,5.842,4.072,21.06,4.191,26.521c4.714,1.103,10.896-0.166,15.016-2.47c0-0.074,0.008-0.153,0.004-0.226
			C294.033,652.94,289.034,638.896,284.855,636.626z"/>
		<path fill="#D9C39A" d="M239.737,637.521c-1.062-0.329-2.123-0.508-3.153-0.508c-2.499,0-3.412,0.741-5.387,2.66
			c-3.665,3.567-9.64,17.553-10.023,24.012c-0.032,0.52-0.009,1.044,0.044,1.566c2.097,1.456,5.388,1.711,8.571,0.282
			C229.774,656.385,234.149,641.726,239.737,637.521z"/>
		<path fill="#BCA176" d="M506.283,636.931c0-7.64,6.198-22.816,10.397-27.339l0.328-0.354l-0.449-0.174
			c-1.28-0.496-2.563-0.748-3.812-0.748c-2.335,0-4.501,0.875-6.439,2.598c-3.854,3.427-10.797,16.582-11.467,22.98
			c-0.52,4.949,3.139,10.408,4.885,11.486c1.532,0.948,4.595,1.559,7.801,1.559c0.656,0,1.301-0.027,1.911-0.082l0.565-0.051
			l-0.33-0.464C507.551,643.365,506.283,639.845,506.283,636.931z"/>
		<path fill="#D9C39A" d="M561.412,610.111c-1.03-0.62-2.354-0.936-3.942-0.936c-2.2,0-4.511,0.614-5.958,1.253
			c3.113,8.092,3.641,18.351,2.92,27.009c4.868,1.032,10.758-0.028,15.252-2.277C569.413,627.242,565.464,612.556,561.412,610.111z"
			/>
		<path fill="#D9C39A" d="M551.194,636.825c0.013-5.851-1.071-17.634-2.369-25.427c-0.386-2.299-1.431-4.015-4.714-4.58
			c-0.738-0.126-1.508-0.191-2.291-0.191c-3.481,0-6.988,1.058-9.05,4.774c-2.827,5.094-4.765,18.044-5.155,25.354
			C536.104,639.558,542.627,638.924,551.194,636.825z"/>
		<path fill="#D9C39A" d="M532.328,608.438c-1.016-0.561-3.66-1.83-6.795-1.83c-3.053,0-4.583,1.465-6.841,3.784
			c-3.864,3.968-9.944,18.67-10.241,26.25c4.801,2.186,9.812,2.029,14.742,0.356C523.63,627.646,527.138,610.971,532.328,608.438z"
			/>
		<path fill="#D9C39A" d="M516.378,609.004c-1.22-0.451-2.441-0.688-3.631-0.688c-2.335,0-3.545,0.783-5.482,2.507
			c-3.856,3.428-10.356,16.886-11.025,23.285c2.369,1.513,5.793,2.585,8.782,2.247C505.149,630.69,509.007,615.52,516.378,609.004z"
			/>
		<path fill="#9E8763" d="M429.092,486.756c-6.278-7.511-14.093-16.856-17.999-27.112c-4.437-11.646-6.049-24.117-6.614-30.515
			l-0.011-0.104l-0.068-0.08c-6.964-8.068-12.38-13.756-16.556-17.392c-5.229-4.552-12.812-9.975-22.539-16.116l-0.081-0.052
			l-0.096,0.001c-17.141,0.219-35.258,8.484-53.847,24.567l-0.145,0.127l0.041,0.188c0.863,4.112,5.772,25.449,17.423,41.808
			c6.157,8.646,18.15,18.302,29.753,27.637c13.059,10.509,25.392,20.439,30.036,29.034c8.946,16.566,12.446,63.418,5.202,69.627
			c-0.809,0.693-1.924,1.046-3.315,1.046c-3.025,0-6.808-1.621-9.568-2.805c-0.896-0.385-1.996-0.58-3.269-0.58
			c-3.48,0-7.877,1.504-10.45,3.575c-4.249,3.418-9.567,18.379-9.888,22.339c-0.378,4.699,1.85,11.214,4.496,13.152
			c1.848,1.356,6.412,1.963,10.115,1.963c1.025,0,1.976-0.048,2.752-0.138l0.699-0.082l-0.515-0.482
			c-1.979-1.854-5.3-5.91-5.279-12.209c0.016-5.299,6.13-22.271,11.737-23.295c0.989-0.181,2.024-0.272,3.084-0.272
			c2.899,0,6.067,0.681,9.452,2.026c-2.478-0.526-5.911-1.109-8.947-1.109c-1.311,0-2.464,0.107-3.426,0.322
			c-4.827,1.075-10.905,16.856-10.921,22.33c-0.013,5.151,2.666,10.256,6.828,13.003c1.384,0.914,6.697,1.503,13.533,1.505
			c0.003,0,0.003,0,0.003,0c2.179,0,4.462-0.06,6.784-0.179c11.566-0.591,20.924-2.444,25.668-5.087
			c4.136-2.304,8.575-14.988,10.791-30.847c4.621-33.065,7.74-86.834,4.524-93.171C436.693,495.846,433.174,491.637,429.092,486.756
			z"/>
		<path fill="#FFEAC2" d="M175.476,330.164c10.337-27.399,18.243-74.986,18.243-74.986S180.057,301.909,175.476,330.164z"/>
		<path fill="#FFEAC2" d="M101.52,274.222c-5.022,14.605-12.224,40.544-14.646,58.388C91.841,314.769,99.088,285.828,101.52,274.222
			z"/>
		<path fill="#FFEAC2" d="M231.949,217.991l1.127,2.629c0,0,27.468,5.338,43.16,25.864
			C264.637,223.546,231.949,217.991,231.949,217.991z"/>
		<path fill="#FFEAC2" d="M399.6,218.001c-14.477-1.873-30.216,2.955-44.01,6.577c-17.281,4.54-31.208,4.758-48.695,1.913
			c-14.43-2.349-30.659-5.879-48.955-3.438c30.854-1.119,60.427,11.784,88.834,6.374c14.768-2.812,31.3-9.164,46.521-9.189
			c20.783-0.033,44.451,17.733,44.451,17.733S419.266,220.544,399.6,218.001z"/>
		<path fill="#FFEAC2" d="M540.489,159.411c-0.477,24.587-11.529,38.89-27.493,50.998c-23.656,17.942-72.981,19.721-72.981,19.721
			s46.571,3.306,74.961-17.591C531.258,200.553,543.914,184.649,540.489,159.411z"/>
		<path fill="#FFEAC2" d="M554.396,124.878c-9.766-14.778-28.273-27.716-44.86-28.997C527.012,99.994,541.4,110.633,554.396,124.878
			z"/>
		<path fill="#FFEAC2" d="M523.986,493.45c0,0,10.35,13.698,13.507,21.13c4.575,10.76,10.533,37.645,10.533,37.645
			s-3.581-27.672-8.303-39.143C536.439,505.107,523.986,493.45,523.986,493.45z"/>
		<path fill="#FFEAC2" d="M83.063,620.345c2.845-1.457,6.085-2.77,11.619-2.687C87.384,616.026,83.063,620.345,83.063,620.345z"/>
		<path fill="#FFEAC2" d="M115.871,619.793c0,0-8.166-2.4-13.169-2.08c-5.003,0.319-7.366,3.38-7.366,3.38s3.637-2.197,7.379-2.343
			C108.401,618.527,115.871,619.793,115.871,619.793z"/>
		<path fill="#FFEAC2" d="M114.316,625.058c0,0,1.612-1.882,4.321-2.373c2.709-0.493,8.528,0.94,8.528,0.94
			s-5.135-0.453-8.193,0.022C115.229,624.228,114.316,625.058,114.316,625.058z"/>
		<path fill="#FFEAC2" d="M254.439,636.57c0,0-4.59-2.935-9.537,0.047C248.027,635.629,250.953,635.718,254.439,636.57z"/>
		<path fill="#FFEAC2" d="M258.968,636.996c0,0,2.476-2.036,6.024-2.272c3.549-0.236,6.263,1.782,6.263,1.782
			s-2.54-1.119-6.356-0.961C261.752,635.676,258.968,636.996,258.968,636.996z"/>
		<path fill="#FFEAC2" d="M238.799,637.802c0,0-4.378-1.185-6.987,1.767C231.812,639.568,234.77,637.71,238.799,637.802z"/>
		<path fill="#FFEAC2" d="M276.262,637.593c0,0,3.279-1.373,6.137-1.015c2.856,0.358,4.245,2.857,4.245,2.857
			s-1.396-1.795-4.371-2.107C279.12,636.996,276.262,637.593,276.262,637.593z"/>
		<path fill="#FFEAC2" d="M530.725,608.788c0,0-4.722-2.934-9.81,0.047C524.128,607.846,527.138,607.937,530.725,608.788z"/>
		<path fill="#FFEAC2" d="M534.657,609.788c0,0,2.655-2.034,6.461-2.271c3.804-0.237,6.714,1.782,6.714,1.782
			s-2.724-1.12-6.815-0.962C537.645,608.468,534.657,609.788,534.657,609.788z"/>
		<path fill="#FFEAC2" d="M514.812,609.411c0,0-4.378-1.185-6.987,1.766C507.824,611.177,510.781,609.319,514.812,609.411z"/>
		<path fill="#FFEAC2" d="M552.274,610.914c0,0,3.279-1.373,6.136-1.015s4.248,2.857,4.248,2.857s-1.398-1.796-4.373-2.108
			C555.131,610.316,552.274,610.914,552.274,610.914z"/>
		<path fill="#381000" d="M188.017,309.108c7.312-31.248,13.567-60.88,18.196-88.028
			C202.988,250.87,196.864,280.487,188.017,309.108z"/>
		<path fill="#381000" d="M167.042,438.987c-7.576-16.119-14.15-32.902-19.543-49.882
			C151.125,406.612,157.46,423.342,167.042,438.987z"/>
		<path fill="#381000" d="M218.424,182.266c0.434-0.581,5.212,20.607,6.58,24.067c2.205,5.572,5.325,13.464,8.36,22.136
			c1.883,5.379,6.882,16.229,6.882,16.229c-2.715-9.659-6.222-19.487-9.328-27.672c10.781,2.648,21.127,5.779,28.397,10.312
			c12.06,7.521,19.859,19.679,19.859,19.679c-7.03-12.018-12.333-18.972-26.005-24.757c5.855-0.426,22.925-1.507,33.083-0.454
			c3.467,0.358,7.598,1.087,11.967,1.859c11.578,2.043,25.984,4.588,40.222,2.617c11.108-1.535,19.029-3.438,26.691-5.278
			c5.706-1.372,11.097-2.666,17.207-3.628c12.641-1.986,28.382-1.863,49.302,14.152c20.315,15.554,40.217,50.816,46.207,69.245
			c5.298,16.307,9.471,43.807,14.754,78.624c0.877,5.775,1.784,11.756,2.73,17.921c6.228,40.459,15.285,70.165,21.688,84.478
			c2.205,4.931,6.29,8.963,10.613,13.23c6.405,6.322,13.665,13.487,16.203,25.245c3.746,17.328,11,57.483,12.223,87.675
			c-2.138,0.201-4.159,0.826-5.438,1.449c-1.068-1.944-3.287-3.346-6.289-3.863c-3.425-0.588-7.57,0.073-10.618,2.202
			c0,0-0.34-0.208-0.659-0.38c-1.956-1.057-9.143-4.316-15.332,0.822c-1.154-0.516-2.622-0.992-4.268-1.113
			c-1.304-22.681-7.356-55.698-12.605-67.889c-7.062-16.412-27.187-35.797-43.357-51.374c-7.86-7.574-14.65-14.114-18.931-19.263
			c-3.261-3.92-7.126-8.719-11.218-13.799c-12.64-15.697-28.375-35.232-38.642-44.17c-6.417-5.586-15.503-11.709-23.267-16.593
			c-8.476-5.332-16.305-7.835-16.305-7.835c0.121,0.067,5.986,3.347,13.514,8.018c-27.844,1.536-50.888,23.289-59.94,31.848
			c-0.878,0.827-1.626,1.536-2.241,2.093c-4.515,4.106-8.825,7.367-12.476,9.864c-2.48-17.077-8.338-50.354-8.338-50.354
			s4.794,36.647,7.041,52.82c1.202,8.658,0.291,15.049-0.673,21.816c-0.852,5.99-1.735,12.182-1.289,20.476
			c1.513,28.241-0.805,46.438-2.667,61.057c-1.702,13.353-3.045,23.9-1.054,36.936c2.082,13.634,1.918,19.271,1.714,26.41
			c-0.166,5.761-0.103,14.279,0.863,27.675c-3.363-0.743-7.471,0.474-9.539,1.598c-1.157-1.896-3.436-3.194-6.457-3.577
			c-3.274-0.408-7.125,0.357-10.03,2.367c-2.036-0.952-10.401-4.277-16.57,1.42c-1.009-0.385-2.235-0.725-3.587-0.833
			c1.463-4.108,3.451-10.538,4.409-17.477c1.019-7.356,0.223-12.207-0.617-17.345c-0.81-4.948-1.647-10.066-0.815-17.866
			c1.486-13.899-2.522-42.032-5.449-62.574l-0.419-2.952c-1.547-10.897-2.342-20.285-2.979-27.829
			c-0.485-5.724-0.867-10.245-1.404-13.048c-1.076-5.615-3.76-12.402-6.504-18.371c-3.623-7.885-9.034-13.99-9.034-13.99
			c0.094,0.162,7.75,13.433,11.856,25.242c-4.053,1.55-24.331,9.061-34.472,8.266c-9.387-0.732-20.427-9.769-30.933-18.96
			c-11.306-9.893-32.2-39.572-32.2-39.572s19.642,30.755,31.125,40.8c1.677,1.468,3.369,2.927,5.065,4.355
			c0.736,5.227,1.88,14.249,1.934,20.163c0.043,4.886-2.958,22.025-5.857,38.601c-2.354,13.441-4.575,26.135-5.315,32.904
			c-0.695,6.354-0.171,12.178,0.336,17.811c0.731,8.123,1.419,15.796-1.494,24.402c-6.434,18.992-9.788,41.699-10.662,48.206
			c-1.59,11.841-14.356,14.846-25.3,16.141c-3.405,0.407-7.071-0.789-10.067-3.272c-2.978-2.467-4.892-5.907-5.121-9.202
			c-0.67-9.72,7.327-26.108,13.584-27.833c6.496-1.794,17.238,3.323,17.238,3.323c-0.422-0.283-10.451-6.885-17.671-4.897
			c-7.493,2.066-15.446,19.889-14.781,29.521c0.26,3.739,2.297,7.46,5.59,10.238c-2.998,0.727-11.192,2.352-15.675-0.357
			c-2.257-1.362-7.067-6.291-7.512-12.83c-0.532-7.752,7.204-27.728,15.709-30.014c5.302-1.427,17.457,2.233,17.457,2.233
			s-10.021-4.435-16.183-4.053c9.681-16.798,9.713-25.409,9.704-36.065c-0.002-4.724-0.005-10.079,0.92-16.738
			c2.978-21.418-1.57-50.391-4.288-67.699c-0.895-5.699-1.602-10.2-1.791-12.812c-0.245-3.322-0.28-7.588-0.321-12.527
			c-0.091-10.778-0.204-24.192-2.629-35.354c-1.972-9.087-5.544-19.669-8.999-29.902c-2.655-7.868-5.161-15.299-6.643-21.219
			c-3.323-13.291-4.698-38.11-1.123-55.033c3.172-15.024,14.776-55.909,17.219-64.477c3.826,16.609,9.457,38.194,15.348,50.712
			c0,0-15.796-56.429-17.333-81.967c-1.021,0.048-2.287,0.105-2.287,0.105s2.096,20.044,3.479,27.663
			c-2.358,8.31-14.805,52.369-18.025,67.626c-3.62,17.15-2.229,42.3,1.135,55.767c1.5,5.983,4.015,13.444,6.684,21.345
			c3.438,10.19,6.995,20.727,8.949,29.728c2.389,10.995,2.5,24.316,2.591,35.021c0.041,4.967,0.076,9.256,0.324,12.632
			c0.195,2.68,0.906,7.209,1.807,12.946c2.703,17.219,7.228,46.041,4.283,67.221c-0.94,6.771-0.938,12.188-0.934,16.963
			c0.006,10.654-0.045,19.232-10.197,36.449c-0.417,0.137-0.83,0.301-1.241,0.506c-3.124-1.067-6.709-2.017-11.662-0.673
			c-1.172,0.316-2.317,0.973-3.424,1.873c-0.349,0.065-0.693,0.129-1.063,0.227c-8.168,2.176-16.588,21.188-17.2,27.681
			c-0.621,6.6,4.125,11.222,6.004,12.445c1.737,1.129,3.958,1.503,6.145,1.503c0.28,0,0.554-0.019,0.833-0.03
			c0.183,0.127,0.354,0.242,0.507,0.334c2.024,1.233,4.51,1.643,6.917,1.643c1.796,0,3.53-0.231,5.012-0.515
			c0.342,0.264,0.676,0.498,0.983,0.685c2.177,1.314,5.024,1.742,7.819,1.742c3.975,0,8.555-0.977,10.521-1.448
			c2.522,1.617,5.34,2.498,8.095,2.498c0.505,0,1.006-0.028,1.504-0.089c10.631-1.259,24.965-4.446,26.726-17.545
			c0.871-6.47,4.205-29.047,10.591-47.9c3.026-8.933,2.319-16.772,1.573-25.073c-0.5-5.552-1.017-11.293-0.337-17.484
			c0.734-6.718,2.952-19.388,5.298-32.801c2.914-16.647,5.927-33.862,5.884-38.898c-0.051-5.383-0.981-13.231-1.708-18.601
			c8.543,7.019,17.182,12.851,24.954,13.459c0.547,0.043,1.12,0.062,1.714,0.062c10.897,0,29.293-6.825,33.405-8.405
			c0.664,2.05,1.206,4.036,1.559,5.875c0.522,2.718,0.902,7.202,1.38,12.879c0.641,7.562,1.437,16.977,2.991,27.919l0.422,2.954
			c2.914,20.456,6.904,48.474,5.44,62.171c-0.855,8.019,0,13.248,0.825,18.305c0.824,5.01,1.597,9.742,0.615,16.856
			c-0.987,7.136-3.081,13.717-4.528,17.699c-2.154,0.168-4.501,1.021-6.736,3.195c-3.895,3.79-10.335,17.502-10.742,24.329
			c-0.326,5.49,3.695,11.2,5.994,12.479c1.589,0.885,4.6,1.396,7.565,1.396c1.431,0,2.836-0.128,4.082-0.382
			c1.12,1.163,2.243,1.961,3.157,2.197c1.867,0.486,4.437,0.787,7.051,0.787c3.409,0,6.882-0.52,8.984-1.792
			c0.064,0.062,0.119,0.131,0.185,0.192c1.504,1.413,4.928,2.047,8.511,2.047c3.986,0,8.168-0.784,10.113-2.15
			c0.673-0.473,1.255-1.165,1.759-2.002c1.195,0.294,2.925,0.48,4.205,0.48c3.062,0,6.392-0.717,8.401-1.724
			c2.993-1.495,7.741-8.722,7.512-13.771c-0.356-7.913-5.178-22.82-10.223-25.571c-0.979-13.386-1.304-22.279-1.13-28.314
			c0.208-7.22,0.371-12.923-1.732-26.702c-1.957-12.809-0.625-23.257,1.061-36.481c1.871-14.686,4.198-32.965,2.677-61.354
			c-0.435-8.133,0.435-14.245,1.277-20.156c0.979-6.885,1.907-13.388,0.673-22.271c-0.021-0.143-0.043-0.296-0.062-0.44
			c3.842-2.591,8.47-6.051,13.316-10.455c0.623-0.564,1.377-1.281,2.263-2.118c1.639-1.548,3.752-3.541,6.265-5.763
			c1.214,5.421,6.305,25.762,17.443,41.404c6.259,8.79,18.328,18.503,29.999,27.896c12.952,10.427,25.188,20.274,29.707,28.64
			c8.531,15.795,12.284,62.198,5.501,68.012c-2.313,1.98-8.302-0.589-11.519-1.969c-2.374-1.014-5.61-0.812-8.656,0.057
			c-4.335-0.27-7.677,0.373-10.637,1.941c-6.993,3.7-11.6,22.285-11.938,25.636c-0.659,6.48,2.649,10.065,4.68,11.627
			c1.889,1.45,4.073,1.724,5.438,1.724c0.449,0,0.794-0.029,1.026-0.057c2.195,1.375,6.812,2.048,10.584,2.048
			c1.758,0,3.298-0.153,4.339-0.438c0.134,0.097,0.267,0.212,0.398,0.3c1.679,1.107,7.444,1.742,14.542,1.742
			c11.266,0,25.882-1.601,32.8-5.452c5.607-3.121,9.674-19.085,11.451-31.809c4.702-33.643,7.794-87.248,4.396-93.943
			c-1.858-3.666-5.425-7.932-9.553-12.87c-6.54-7.822-13.95-16.689-17.782-26.739c-3.903-10.249-5.593-21.142-6.31-27.867
			c6.745,7.908,13.79,16.656,20.07,24.454c4.098,5.084,7.966,9.888,11.232,13.816c4.341,5.219,11.159,11.786,19.055,19.395
			c16.064,15.476,36.058,34.735,42.991,50.843c5.083,11.809,11.158,45.023,12.466,67.251c-2.026,0.168-4.224,0.953-6.377,2.869
			c-4.094,3.639-11.189,17.05-11.897,23.82c-0.571,5.441,3.234,11.337,5.497,12.735c1.746,1.078,5.313,1.76,8.622,1.76
			c1.03,0,2.005-0.094,2.917-0.238c1.086,1.221,2.191,2.076,3.108,2.357c2.19,0.674,5.386,1.131,8.49,1.131
			c2.914,0,5.734-0.409,7.581-1.414c0.056,0.062,0.111,0.136,0.17,0.194c1.622,1.673,5.741,2.46,9.804,2.46
			c3.536,0,7.032-0.598,8.804-1.727c0.737-0.47,1.363-1.133,1.926-1.887c1.384,0.449,3.347,0.654,5.027,0.654
			c2.793,0,5.694-0.54,7.544-1.362c3.14-1.399,7.983-7.36,7.983-12.418c0-7.213-3.861-23.955-8.932-27.013
			c-1.27-0.767-2.819-1.076-4.392-1.106c-1.229-30.307-8.506-70.583-12.26-87.96c-2.642-12.233-10.086-19.58-16.652-26.063
			c-4.212-4.158-8.188-8.084-10.271-12.734c-6.358-14.214-15.361-43.761-21.562-84.059c-0.948-6.164-1.855-12.143-2.731-17.918
			c-5.294-34.891-9.476-62.449-14.817-78.883c-3.533-10.873-11.87-27.546-22.286-42.679c10.541,1.304,36.898,2.043,65.922-7.232
			c26.256-8.39,46.416-28.879,53.015-51.302c4.444-15.104,3.053-32.612-3.921-49.3c-5.76-13.786-14.605-27.786-28.707-40.785
			c-15.016-13.842-33.68-15.956-36.498-14.603c-0.611,0.293-0.987,0.67-1.121,1.123c-0.393,1.338,1.115,2.998,4.04,6.056
			c1.604,1.679,5.671,6.67,6.108,7.274c17.566,24.279,24.095,44.236,20.543,62.672c-4.444,23.075-24.928,38.747-42.616,45.72
			c-19.674,7.759-44.282,9.144-65.363,10.021c-19.381-13.395-34.292-13.38-46.431-11.471c-6.174,0.971-11.595,2.273-17.334,3.652
			c-7.623,1.831-15.504,3.726-26.533,5.25c-13.984,1.931-28.251-0.586-39.714-2.609c-4.401-0.777-8.558-1.51-12.083-1.876
			c-10.599-1.096-31.19,0.098-37.296,0.491c-5.13-1.876-11.315-3.664-18.915-5.505c-1.365-3.56-2.632-6.767-3.688-9.435
			c-1.243-3.145-2.331-6.349-2.731-7.75L218.424,182.266z M71.51,656.56c-1.562-1.017-5.897-5.224-5.351-11.026
			c0.541-5.74,7.307-21.111,13.963-25.188c-5.833,7.178-10.014,20.418-10.015,25.809c0,5.169,2.918,9.224,5.387,11.608
			C74.029,657.641,72.633,657.289,71.51,656.56z M78.858,658.374c-1.848-1.127-7.119-5.791-7.118-12.221
			c0.001-6.938,7.085-26.69,14.895-28.81c3.86-1.048,6.77-0.577,9.412,0.225c-7.774,5.824-13.92,22.599-13.422,29.913
			c0.351,5.119,3.106,9.407,5.714,12.018C85.293,659.942,81.536,660.005,78.858,658.374z M224.977,674.349
			c-1.717-0.956-5.446-6.087-5.157-10.954c0.38-6.4,6.62-19.722,10.251-23.256c3.453-3.355,7.176-3.093,9.707-2.271
			c-4.277,5.21-9.369,20.818-9.045,27.946c0.152,3.39,1.868,6.951,3.856,9.526C231.332,675.796,226.98,675.465,224.977,674.349z
			 M239.397,677.405c-1.91-0.497-6.782-6.022-7.035-11.665c-0.332-7.374,5.18-22.921,8.892-27.114
			c5.79-6.538,13.505-2.719,14.689-2.071c-0.682,0.702-1.297,1.471-1.747,2.378c-2.899,5.828-4.476,18.059-4.668,24.883
			c-0.147,5.198,1.275,9.456,4.333,12.958C250.671,678.416,243.606,678.501,239.397,677.405z M272.893,676.734
			c-3.334,2.341-14.171,2.503-16.567,0.25c-2.314-2.179-5.371-5.908-5.164-13.123c0.183-6.483,1.74-18.657,4.496-24.203
			c1.803-3.626,6.175-5.318,10.1-5.318c0.553,0,1.099,0.033,1.626,0.1c3.164,0.398,5.325,1.914,5.78,4.051
			c1.965,9.2,3.488,19.768,3.541,24.581C276.761,668.312,275.322,675.027,272.893,676.734z M284.699,636.914
			c4.101,2.229,9.012,16.117,9.378,24.212c0.194,4.332-4.102,10.983-6.612,12.239c-2.651,1.325-7.915,2.07-11.075,1.121
			c1.447-3.426,1.982-8.182,1.946-11.434c-0.061-5.59-1.887-17.002-3.575-24.903c-0.018-0.084-0.055-0.16-0.076-0.241
			C276.58,636.822,281.617,635.238,284.699,636.914z M355.668,623.377c-2.149-1.653-4.6-4.758-4.053-10.166
			c0.378-3.737,5.084-21.186,11.078-24.357c2.285-1.21,4.462-1.789,6.251-1.985c-1.031,0.518-1.989,1.092-2.775,1.724
			c-4.665,3.754-10.021,18.91-10.369,23.252c-0.349,4.323,1.312,9.896,3.624,12.886
			C358.333,624.645,356.911,624.332,355.668,623.377z M410.788,459.761c3.926,10.305,11.76,19.677,18.054,27.205
			c4.063,4.86,7.575,9.059,9.35,12.56c3.194,6.297,0.057,59.958-4.559,92.979c-2.202,15.765-6.574,28.351-10.629,30.608
			c-4.7,2.617-14.004,4.456-25.521,5.045c-10.58,0.54-18.535-0.223-20.126-1.273c-4.074-2.688-6.694-7.685-6.68-12.729
			c0.016-5.374,6.108-20.997,10.665-22.011c5.594-1.247,15.624,1.605,15.624,1.605c-5.952-2.975-11.312-4.057-15.919-3.213
			c-5.869,1.072-11.986,18.098-12.003,23.614c-0.018,5.492,2.509,9.758,5.382,12.451c-3.446,0.402-10.314-0.062-12.636-1.763
			c-2.573-1.888-4.734-8.26-4.364-12.864c0.318-3.923,5.57-18.734,9.768-22.109c3.254-2.622,9.817-4.482,13.385-2.952
			c4.039,1.732,10.144,4.349,13.225,1.71c7.312-6.267,3.86-53.391-5.126-70.032c-4.676-8.652-17.034-18.602-30.12-29.134
			c-11.585-9.324-23.562-18.965-29.692-27.57c-11.727-16.47-16.654-38.283-17.37-41.687c11.762-10.177,31.3-24.203,53.636-24.488
			c7.579,4.787,16.304,10.693,22.499,16.088c4.63,4.031,10.41,10.28,16.521,17.357C404.721,435.574,406.335,448.07,410.788,459.761z
			 M499.899,645.105c-1.694-1.049-5.237-6.354-4.733-11.176c0.663-6.345,7.541-19.377,11.358-22.771
			c3.658-3.252,7.427-2.756,9.918-1.79c-4.202,4.525-10.485,19.86-10.485,27.562c0,3.357,1.565,6.956,3.449,9.603
			C506.137,646.83,501.838,646.303,499.899,645.105z M514.169,648.812c-1.908-0.588-6.579-6.289-6.579-11.881
			c0-7.331,6.25-22.567,10.176-26.599c5.906-6.065,13.175-2.33,14.643-1.476c-0.661,0.644-1.269,1.346-1.729,2.179
			c-3.224,5.813-5.431,18.06-5.781,24.666c-0.295,5.553,1.601,10.151,3.798,13.103C525.459,650.323,518.342,650.1,514.169,648.812z
			 M547.658,649.641c-3.432,2.188-14.268,1.865-16.561-0.494c-2.42-2.492-4.891-7.307-4.569-13.359
			c0.387-7.275,2.772-18.902,5.578-23.959c2.243-4.043,7.722-5.416,11.948-4.688c3.142,0.541,5.232,2.151,5.594,4.308
			c1.388,8.319,2.529,21.201,2.35,26.507C551.814,643.408,550.07,648.104,547.658,649.641z M561.244,610.393
			c4.117,2.482,8.138,18.01,8.138,25.612c0,4.231-4.309,9.721-7.013,10.926c-2.661,1.184-7.816,1.688-10.951,0.67
			c1.435-2.771,2.105-6.415,2.212-9.589c0.185-5.39-0.968-18.43-2.37-26.834c-0.014-0.083-0.047-0.159-0.065-0.242
			C553.139,609.938,558.24,608.58,561.244,610.393z M455.824,255.742c-7.114-10.08-15.116-19.33-23.191-25.51
			c-0.604-0.464-1.203-0.91-1.801-1.347c20.884-0.891,43.984-2.399,63.645-10.151c23.085-9.102,39.799-27.083,43.623-46.931
			c3.628-18.836-2.93-39.114-20.62-63.656c-0.506-0.704-4.817-6.014-6.457-7.729c-1.078-1.129-2.436-2.547-3.165-3.491
			c-0.384-0.497-0.123-1.208,0.484-1.37c2.726-0.726,19.377,1.27,33.923,14.565c14.401,13.166,22.681,26.676,28.358,40.265
			c6.827,16.342,8.199,33.463,3.86,48.209c-6.447,21.903-26.104,42.248-51.931,50.201
			C498.041,256.347,474.644,258.358,455.824,255.742z"/>
		<path fill="#424141" d="M215.692,232.157c0.284,19.542,9.323,27.06,21.074,40.97c8.511,10.073,17.923,20.873,24.142,32.806
			c5.776,11.085,6.178,46.935,16.124,55.194c2.568-20.473,8.133-56.059,9.613-77.336c7.705-2.962,0.216-12.367,10.218-12.339
			c-1.158,22.875,14.477,38.084,24.253,55.724c7.647,13.799,21.494,19.377,33.411,25.58c17.043,8.87,35.728,13.928,52.23-1.759
			c18.879-17.948,30.018-44.074,59.646-43.377c10.274-9.551-21.019-91.309-78.234-88.113c-38.113,17.446-98.373,6.127-130.229,3.546
			c2.722,8.101,15.042,17.322,21.234,23.963c-11.331-9.356-19.686-19.956-42.542-27.081c0.561,7.471,6.742,12.604,8.317,19.02
			c-15.753,4.832-12.464-10.268-16.879-19.167c-0.522,0.073-3.231,0.058-3.759-0.032c-1.884,9.262-1.684,18.095-7.218,25.019"/>
	</g>
	<g>
		<path fill="#424141" d="M79.331,86.747c2.939-7.693-1.346-17.825,1.835-25.189c3.281-7.6,11.357-9.525,16.431-14.982
			C119.039,23.51,120.02,25.398,136.169,0c2.287,43.147,18.692,53.137,13.227,96.751c-2.042,16.286-36.54,63.701-56.72,41.711"/>
		<g>
			<g>
				<path fill="#C5A771" d="M233.127,159.551c-2.811-2.262-5.822-6.879-7.853-10.355l-0.601,0.222
					c0.428,2.375,1.18,4.916,1.802,6.813c-3.483-6.549-5.252-15.503-6.844-23.553c-1.215-6.148-2.365-11.956-4.088-15.226
					c-3.992-7.574-9.169-9.635-14.171-10.733c-2.489-0.546-9.586-1.701-15.238-2.594c1.533,0.12,3.173,0.252,4.797,0.395
					l0.753,0.064l-0.471-0.588c-2.073-2.599-9.445-11.586-17.28-18.144c-10.593-8.869-21.393-10.721-24.45-11.078
					c-3.688-0.429-8.836-0.626-12.026-0.71c0.798-0.191,1.598-0.415,2.146-0.646l0.717-0.303l-0.722-0.294
					c-6.13-2.484-11.007-3.87-14.913-4.241c-1.405-0.133-2.804-0.2-4.154-0.2c-6.502,0-11.186,1.525-14.538,2.854
					c-3.581,1.419-11.084,4.25-14.144,5.403l-0.782,0.292l0.774,0.31c2.524,1.01,4.487,3.532,5.719,5.529
					c-1.661-1.818-4.134-4.104-6.588-4.819c-0.876-0.254-1.81-0.384-2.775-0.384c-4.025,0-7.636,2.208-9.203,5.624
					c-0.763,1.667-1.46,3.265-2.13,4.803c-2.202,5.052-4.104,9.416-7.135,13.429c-0.868,1.146-2.354,2.418-4.087,3.898
					c-1.608,1.375-3.429,2.933-4.912,4.568c-3.015,3.331-3.849,10.46-4.213,15.535l-0.034,0.476l0.455-0.146
					c4.436-1.414,7.687-2.612,9.664-3.563c5.934-2.855,10.548-5.677,12.99-7.944l0.404-0.375l-0.523-0.17
					c-2.833-0.914-6.633-4.684-7.029-7.781c-0.408-3.162,0.718-6.58,3.257-9.793c0.084-0.109,2.504-2.966,4.89-4.558
					c1.988-1.334,3.949-1.967,5.073-1.967c0.323,0,0.584,0.054,0.758,0.158l0.508,0.3l-0.014-0.39
					c0.427,1.806,0.84,4.311,0.691,6.847c-0.334,5.631-2.242,11.198-5.666,16.541c-2.285,3.56-10.328,7.798-14.918,10.008
					c-3.575,1.721-9.494,3.579-12.704,4.533l-1.185,0.352l1.206,0.273c5.335,1.213-7.067,10.991-2.357,15.905
					c2.831,2.953,4.134,6.135,3.873,9.458c-0.531,6.768-8.243,14.066-15.285,18.639c-6.526,4.241-13.3,6.772-18.12,6.772
					c-0.884,0-1.776-0.113-2.732-0.348l-0.322-0.08l-0.071,0.325c-0.539,2.453-2.197,10.745-0.964,14.435
					c0.669,2.014,2.131,3.346,4.169,5.199c2.339,2.127,5.251,4.773,8.316,9.693c6.035,9.681,17.486,21.467,26.208,24.434
					c2.289,0.778,4.956,1.172,7.93,1.172c0.002,0,0,0,0.002,0c8.147,0,37.004-9.574,40.223-10.687
					c10.681-3.692,32.596-22.389,44.322-36.009l0.285-0.328l1.812,1.509l-0.229,0.49c-3.13,6.677-12.102,20.283-16.771,27.167
					c-7.959,11.732-23.61,26.058-36.249,35.28c-8.591,6.268-38.078,18.003-45.272,18.549c-12.23,0.928-19.645-7.5-21.733-10.805
					c-2.2-3.487-1.837-5.057-0.835-7.005c0.896-1.743,6.265-9.19,9.374-13.629c3.107-4.438,5.931-10.623,5.931-10.623l-3.537-3.555
					c-0.732,2.996-3.656,9.226-5.301,12.271c-1.645,3.047-7.67,11.313-9.547,14.062c-1.873,2.749-2.957,2.794-4.061,7.752
					c-0.733,3.298,1.096,7.776,4.486,11.158c3.162,3.157,19.828,7.783,27.625,9.135c7.798,1.353,9.41-3.454,9.41-3.454
					c4.538-2.627,29.176-12.269,33.41-15.254c3.783-2.284,8.504-5.375,13.157-8.423c0.314-0.206,0.646-0.422,0.986-0.644
					c2.894-1.657,5.468-3.002,5.468-3.002s1.184-0.792,3.04-2.383c3.871-2.387,7.588-4.577,9.514-5.469
					c3.789-1.756,10.127-3.191,14.323-4.142l0.902-0.205c4.599-1.047,12.891-4.846,19.206-9.821l0.158-0.126l-0.043-0.199
					c-1.464-6.476,40.24,1.143,54.348-20.686c1.543-2.39,15.714-5.939,18.258-9.658c3.436-5.024-4.375-10.105,0.553-10.676
					c-7.469-3.985,0.915-12.995,2.721-9.85c3.367,5.865-7.999-14.763-7.999-14.763 M136.868,136.455
					c-1.355,0-2.675-0.136-3.822-0.394c-4.725-1.063-8.877-3.946-10.382-5.513c-0.626-0.651-1.63-0.96-2.598-1.258
					c-1.438-0.443-2.311-0.773-2.345-1.612c-0.042-0.983,0.508-1.279,1.339-1.726c0.621-0.333,1.324-0.712,1.864-1.474
					c0.175-0.246,0.413-0.667,0.722-1.213c1.787-3.165,5.968-10.575,14.085-11.859l0.442-0.069l-0.204-0.398
					c-0.276-0.536-0.572-1.032-0.89-1.502c9.299,7.676,11.32,19.978,11.319,22.262C146.392,134.82,141.6,136.455,136.868,136.455z"
					/>
				<g>
					<path fill="#424141" d="M105.898,132.823c2.082-15.96,2.774-14.572,15.265-23.594c13.186-9.021,15.96-19.43,24.982,0.694
						c6.246,15.266,14.573,29.145-2.777,37.473c-15.959,6.938-34,3.469-35.388-15.961"/>
				</g>
				<path fill="#FFFFFF" d="M121.965,126.564c-0.053,1.125,0.56,2.393,1.775,3.666c2.439,2.563,7.605,5.32,13.18,5.32
					c0.001,0,0.001,0,0.001,0c2.23,0,4.276-0.454,6.075-1.352c1.554-0.775,2.181-2.843,1.818-5.981
					c-0.688-5.938-5.093-15.011-8.49-15.815c-0.318-0.075-0.66-0.111-1.016-0.111C130.315,112.29,122.288,119.946,121.965,126.564z"
					/>
				<path fill="#CECECC" d="M144.25,125.317c-1.452-5.617-5.046-12.234-7.925-12.916c-0.318-0.075-0.66-0.111-1.016-0.111
					c-1.123,0-2.401,0.402-3.709,1.078C137.842,113.757,142.073,119.684,144.25,125.317z"/>
				<path fill="#FFFFFF" d="M80.119,113.426l0.214,0.088l0.152-0.175c0.244-0.277,0.476-0.552,0.638-0.809
					c3.792-5.912,5.859-13.615,5.821-21.692l-0.002-0.204c0,0-1.312-0.737-3.254-0.284c-1.49,0.348-3.462,1.692-4.839,2.825
					c-1.063,0.873-2.518,2.306-3.846,4.281c-1.5,2.233-2.1,4.809-1.992,7.083C73.269,110.005,78.066,112.575,80.119,113.426z"/>
				<path fill="#CECECC" d="M86.726,97.349c0.389-2.415,0.23-3.979,0.219-6.51l-0.002-0.204c0,0-1.312-0.737-3.254-0.284
					c-0.632,0.147-1.351,0.479-2.073,0.894C83.011,90.961,86.744,91.834,86.726,97.349z"/>
				<path fill="#BCA176" d="M128.516,109.171c-4.191,3.72-6.173,10.246-7.842,13.638c-0.973,1.98-3.973,2.781-3.141,5.418
					c0.139,0.443,1.892,0.153,4.116,1.002c1.491,0.569,2.744,2.812,4.395,3.629c6.444,3.189,14.137,5.607,19.942,0.916
					c3.173-2.563-1.579-17.514-5.66-22.638C136.906,106.84,134.282,104.051,128.516,109.171z M136.868,136.455
					c-1.355,0-2.675-0.136-3.822-0.394c-4.725-1.063-8.877-3.946-10.382-5.513c-0.626-0.651-1.63-0.96-2.598-1.258
					c-1.438-0.443-2.311-0.773-2.345-1.612c-0.042-0.983,0.508-1.279,1.339-1.726c0.621-0.333,1.324-0.712,1.864-1.474
					c0.175-0.246,0.413-0.667,0.722-1.213c1.787-3.165,5.968-10.575,14.085-11.859l0.442-0.069l-0.204-0.398
					c-0.276-0.536-0.572-1.032-0.89-1.502c9.299,7.676,11.32,19.978,11.319,22.262C146.392,134.82,141.6,136.455,136.868,136.455z"
					/>
				<path fill="#BCA176" d="M72.387,105.047c-0.118-2.914,1.009-6.001,3.315-8.923c0.084-0.108,2.504-2.965,4.89-4.557
					c1.988-1.334,3.949-1.967,5.073-1.967c0.323,0,0.584,0.054,0.758,0.158l0.508,0.3c0,0-0.056-1.875-0.489-3.189
					C85.788,84.883,71.483,92.881,72.387,105.047z"/>
				<path fill="#C5A771" d="M66.604,122.189c5.934-2.855,10.548-5.677,12.99-7.944l0.404-0.375l-0.523-0.17
					c-2.577-0.831-5.922-4.018-6.812-6.919c-1.406-1.762-2.323-3.855-2.373-6.142c-0.186,0.262-0.365,0.524-0.559,0.784
					c-0.868,1.146-2.354,2.418-4.087,3.898c-1.608,1.375-3.429,2.933-4.912,4.568c-3.015,3.331-15.578,16.493-15.941,21.566
					l11.694-5.556l0.455-0.146C61.375,124.339,64.626,123.141,66.604,122.189z"/>
				<path fill="#424141" d="M19.197,177.526c0.915,0.325,1.996,0.489,3.211,0.489l0,0c4.677,0,11.271-2.468,17.636-6.604
					c8.602-5.588,14.43-12.615,14.845-17.899c0.237-3.038-0.976-5.968-3.605-8.711c-6.022-6.282,3.145-16.184-1.136-16.184
					l-0.298,0.005c-3.021,0.108-35.763,11.302-39.205,16.991c-2.082,3.444-2.188,13.922,0.794,22.268
					C12.729,171.483,15.119,176.082,19.197,177.526z"/>
				<path fill="#212121" d="M42.235,154.918c-3.76-0.619-7.075-3.853-10.316-5.685c-5.762-3.258-12.125-6.326-18.686-5.044
					c-0.63,0.122-1.47,0.325-2.099,0.531c-0.155,0.21-0.358,0.679-0.488,0.892c-2.082,3.444-2.188,13.922,0.794,22.268
					c1.289,3.604,3.679,8.202,7.757,9.646c0.915,0.325,1.996,0.489,3.211,0.489l0,0c4.677,0,11.271-2.468,17.636-6.604
					c8.602-5.588,14.43-12.615,14.845-17.899c0.102-1.292-0.076-2.561-0.498-3.807c-0.826,0.705-1.719,1.428-2.623,2.083
					C48.862,153.896,45.624,155.476,42.235,154.918z"/>
				<path fill="#424141" d="M12.264,198.972l0.858-0.9c1.508-1.588,3.068-3.229,4.199-4.135l0.173-0.141l-0.069-0.211
					c-1.309-4.04,0.426-12.552,0.989-15.065l0.057-0.259l-0.242-0.107c-3.227-1.437-5.892-4.877-7.702-9.946
					c-0.957-2.67-1.664-5.812-2.049-9.084l-0.13-1.115l-0.483,1.014c-1.676,3.526-5.663,12.293-6.434,17.52
					c-0.981,6.687,3.493,24.862,4.524,27.544l0.104,0.267l0.276-0.07C7.359,204.03,9.717,201.632,12.264,198.972z"/>
				<path fill="#282828" d="M18.229,178.153c-3.227-1.437-5.892-4.877-7.702-9.946c-0.162-0.45-0.304-0.93-0.451-1.403
					c0.871,7.57,5.847,13.062,4.441,21.377c-0.968,5.729-4.956,9.545-9.523,12.646c0.315,1.202,0.593,2.165,0.798,2.792
					c2.025-1.836,4.05-3.647,5.994-5.603c1.698-1.709,3.295-3.819,5.538-4.826c-1.094-4.171,0.543-12.235,1.09-14.671l0.057-0.259
					L18.229,178.153z"/>
				<path fill="#BCA176" d="M84.655,114.541c0.364,0,8.961,0.07,15.547,6.122C95.272,117.631,90.103,115.541,84.655,114.541z"/>
				<path fill="#FFFFFF" d="M42.861,155.835c-2.052-0.372-3.821-1.586-5.383-2.647c-4.001-2.714-7.617-5.172-11.719-6.668
					c-6.649-2.428-12.526-2.331-12.526-2.331c4.026-1.225,9.67-0.513,13.11,0.821c4.23,1.642,7.957,4.069,12.042,6.84
					c1.501,1.019,3.046,2.126,4.771,2.394c3.298,0.51,8.612-2.457,8.612-2.457S46.535,156.499,42.861,155.835z"/>
				<path fill="#FFFFFF" d="M34.316,172.48c-2.517-0.216-4.951-1.761-6.502-3.758c-1.548-2-2.055-4.363-1.798-6.95
					c0,0,0.319,3.838,2.317,6.448C30.33,170.83,34.316,172.48,34.316,172.48z"/>
				<path fill="#FFFFFF" d="M11.614,165.256c3.243,0.56,4.54,0.019,4.942-4.405C15.63,164.631,14.337,165.159,11.614,165.256z"/>
				<path fill="#782E1E" d="M143.068,120.638c-3.665-3.786-9.687-4.087-13.704-0.584c-3.881,3.387-4.507,9.12-1.603,13.244
					c0.198,0.281,5.163,2.225,10.436,2.811c1.504-0.365,3.026,0.058,4.272-1.029c1.896-1.652,3.004-3.863,3.317-6.173
					C144.924,126.137,144.124,123.32,143.068,120.638z"/>
				<path fill="#5B2317" d="M143.068,120.638c-3.665-3.786-9.687-4.087-13.704-0.584c-1.131,0.986-1.977,2.176-2.549,3.464
					c3.132-1.186,7.541-0.191,10.39,1.127c3.287,1.521,5.799,4.137,7.748,7.123c0.425-0.917,0.696-1.888,0.828-2.875
					C144.921,126.126,144.123,123.316,143.068,120.638z"/>
				<circle fill="#111111" cx="135.918" cy="127.567" r="6.209"/>
				<circle fill="#FFFFFF" cx="132.06" cy="123.143" r="2.43"/>
				<path fill="#782E1E" d="M80.619,113.941c3.71-5.654,5.5-10.717,6.519-17.568c-3.958-0.906-8.388,1.277-10.559,5.504
					c-1.81,3.523-1.553,7.5,0.345,10.283C77.495,112.998,79.927,113.983,80.619,113.941z"/>
				<path fill="#5B2317" d="M85.718,102.844c0.607-2.037,1.077-4.174,1.419-6.471c-3.958-0.906-8.388,1.277-10.559,5.504
					c-0.684,1.336-1.065,2.736-1.182,4.112c2.352-2.323,6.438-3.222,9.28-3.203C85.028,102.789,85.373,102.812,85.718,102.844z"/>
				<path fill="#111111" d="M81.588,111.428c0.125,0.063,0.259,0.093,0.384,0.146c2.088-3.66,3.528-7.353,4.469-11.501
					c-2.546-0.774-5.491,0.573-6.904,3.323C77.972,106.447,78.89,110.043,81.588,111.428z"/>
				
					<ellipse transform="matrix(0.6574 0.7536 -0.7536 0.6574 103.4431 -25.3487)" fill="#FFFFFF" cx="79.596" cy="101.077" rx="2.192" ry="2.431"/>
				<path fill="#FFEAC2" d="M184.586,105.093c0,0,15.917,1.798,20.164,3.93c2.138,1.074,7.284,4.261,9.332,8.83
					c5.961,13.29,3.323,22.217,10.456,38.025c-9.188-14.609-6.353-24.289-12.398-37.049c-2.391-5.041-6.19-7.3-8.326-8.351
					C198.999,108.11,184.586,105.093,184.586,105.093z"/>
				<path fill="#FFEAC2" d="M143.689,175.78c0,0,11.832,2.903,14.992,8.636C156.515,175.773,143.689,175.78,143.689,175.78z"/>
				<path fill="#FFEAC2" d="M58.302,127.243c0,0,19.058-6.079,24.076-13.3c6.975-10.036,6.122-21.93,6.122-21.93
					s2.403,12.822-4.971,22.289C76.744,123.009,58.302,127.243,58.302,127.243z"/>
				<path fill="#FFEAC2" d="M103.157,117.987c0,0,7.534-11.965,16.584-14.76C108.685,103.144,103.157,117.987,103.157,117.987z"/>
				<path fill="#BCA176" d="M67.541,109.991c0,0,0.701,6.356,6.146,8.708l-8.16,4.625C65.527,123.324,65.248,115.696,67.541,109.991
					z"/>
				<path fill="#FFEAC2" d="M122.923,131.975c0,0,8.791,9.562,21.109,4.133C131.125,139.801,122.923,131.975,122.923,131.975z"/>
				<path fill="#FFEAC2" d="M71.476,105.989c0,0,1.847,6.218,7.298,8.193C72.289,113.269,71.476,105.989,71.476,105.989z"/>
				<path fill="#FFEAC2" d="M131.271,98.112c0,0,6.095-2.28,10.688-0.634c4.594,1.647,8.017,11.492,8.017,11.492
					s-4.06-8.352-8.556-10.034S131.271,98.112,131.271,98.112z"/>
				<path fill="#FFEAC2" d="M81.266,81.472c0,0,3.18-3.298,7.194-3.217c4.016,0.082,7.346,3.78,7.346,3.78s-3.286-2.439-7.396-2.594
					C84.3,79.286,81.266,81.472,81.266,81.472z"/>
				<path fill="#FFEAC2" d="M100.305,74.867c0,0,9.863-4.785,17.208-5.338c8.825-0.664,18.998,3.004,18.998,3.004
					s-10.076-2.613-19.116-1.754C109.514,71.528,100.305,74.867,100.305,74.867z"/>
				<path fill="#FFEAC2" d="M133.781,75.128c0,0,12.443-0.142,19.201,1.425c6.758,1.566,13.029,4.566,18.567,9.013
					c7.603,6.104,17.158,16.799,17.158,16.799s-13.878-12.504-18.032-15.349c-4.151-2.846-10.97-7.169-18.355-9.101
					C145.548,76.145,133.781,75.128,133.781,75.128z"/>
				<path fill="#57222B" d="M127.846,224.75l-8.246-6.049c0,0-11.69,5.978-18.055,8.422c-6.367,2.446-34.058,8.589-41.818,8.156
					c-7.758-0.432-13.605-8.454-13.605-8.454s-3.591,7.55-5.43,10.575c-1.839,3.024-7.16,10.403-8.907,12.996
					s-3.237,4.275-0.398,9.146c2.838,4.869,10.075,8.606,19.197,9.84c9.124,1.232,37.749-11.882,48.824-18.999
					C110.483,243.265,127.846,224.75,127.846,224.75z"/>
				<path fill="#D494A2" d="M119.015,215.541c0,0,8.603,1.775,10.868,6.595l-2.426,2.669c0,0-5.868,1.862-10.831,4.025
					c-4.962,2.162-7.274,3.595-11.138,6.416c-3.865,2.82-7.994,7.247-10.243,10.678c-2.25,3.433-24.205,12.839-27.331,15.138
					c-3.129,2.298-6.062,4.527-7.51,5.407c-1.446,0.882-15.641-2.112-19.597-6.21c-3.957-4.098-2.798-7.407-1.796-9.359
					c1-1.952,3.932-4.936,5.062-7.794c1.129-2.858,3.787-11.836,5.205-13.976c0,0,3.925,3.328,9.224,4.222
					c5.301,0.893,32.542-5.801,39.295-7.629C104.553,223.894,113.346,219.087,119.015,215.541z"/>
				<path fill="#A3727D" d="M120.45,214.52c-9.154,6.922-15.897,9.375-22.651,11.202c-6.753,1.829-34.184,8.49-39.485,7.598
					c-5.302-0.894-9.042-3.876-9.042-3.876c-0.589,0.889-1.741,3.78-2.471,5.819c3.587-0.652,8.277,1.489,10.871,3.203
					c1.849,1.222,1.856,1.606,4.11,2.175c3.144,0.796,26.169-4.403,28.73-2.391c4.617,3.631,3.236,6.559,0.006,10.725
					c-3.849,4.963-28.472,14.535-33.268,17.466c1.616,0.225,2.792,0.251,3.155,0.028c1.447-0.88,4.381-3.108,7.51-5.407
					c3.126-2.298,25.081-11.705,27.331-15.138c2.249-3.431,7.481-8.704,11.345-11.524c3.865-2.82,9.585-5.428,14.548-7.59
					s6.318-2.004,6.318-2.004l2.426-2.669C127.618,217.316,120.45,214.52,120.45,214.52z"/>
				<path fill="#FFEAC2" d="M136.688,212.929c-2.99,4.544-7.154,10.325-11.854,15.264c-4.097,4.301-15.715,15.057-25.688,22.599
					c-7.102,5.372-34.07,15.258-34.807,15.536c-1.773,0.667-7.821,3.053-11.229,3.47c-3.404,0.417-7.314-0.796-10.718-1.903
					c-3.402-1.107-8.292-5.538-11.004-8.354c-1.375-1.428-1.847-5.821-1.787-7.139c-1.992,3.326-0.935,6.197,0.901,8.724
					c3.92,5.393,12.41,10.772,19.772,10.641c11.166-0.196,41.358-13.482,48.459-18.854c9.973-7.542,21.927-18.134,26.023-22.436
					c5.139-5.398,16.667-20.218,21.213-30.614C145.842,199.566,136.812,213.229,136.688,212.929z"/>
				<path fill="#BCA176" d="M40.564,237.396c2.841-4.318,5.708-10.398,5.708-10.398l-3.817-3.287
					c-0.546,2.229-2.448,6.714-3.991,9.88C39.481,234.406,40.142,235.899,40.564,237.396z"/>
				<path fill="#FFFFFF" d="M46.835,260.633l-0.14-0.121c-0.821-0.722-1.732-1.375-2.563-1.84c-0.318-0.178-0.634-0.332-0.935-0.456
					c-0.202-0.08-0.431-0.073-0.635,0.021c-0.201,0.094-0.355,0.266-0.422,0.471c-0.778,2.349-0.49,5.683,0.539,6.257l0.099,0.047
					c1.284,0.498,3.008-0.521,3.642-1.092l0.11-0.098l0.001-0.149c0.015-1.158,0.186-2.276,0.277-2.859L46.835,260.633z"/>
				<path fill="#FFFFFF" d="M33.887,257.638c0.049,0.873,0.786,1.288,1.343,1.432c0.7,0.18,1.421,0.085,2.13,0.03l0.023-0.119
					c0.255-1.384,0.829-2.895,1.266-3.917l0.074-0.173l-0.109-0.154c-0.723-1.02-1.416-1.705-2.171-2.127
					c-0.001,0-0.002-0.001-0.002-0.001c-0.346-0.186-0.798-0.056-0.985,0.286C34.696,254.274,33.974,256.559,33.887,257.638z"/>
				<path fill="#57222B" d="M54.333,268.211c-0.847-0.667-1.532-1.794-1.745-2.875l-0.149-0.753l-0.451,0.621
					c-0.632,0.859-2.286,2.795-4.019,2.163c-0.077-0.029-0.157-0.064-0.228-0.106c-0.636-0.354-1.025-1.168-1.159-2.42l-0.059-0.57
					l-0.469,0.332c-0.794,0.561-2.015,1.122-3.335,0.609c-0.063-0.024-0.123-0.054-0.18-0.086c-0.673-0.376-1.032-1.307-1.064-2.765
					l-0.012-0.49l-0.454,0.185c-0.752,0.305-1.864,0.55-2.884-0.019c-0.1-0.056-0.203-0.12-0.303-0.194
					c-0.49-0.361-0.667-1.14-0.523-2.313l0.033-0.27c-1,0.077-2.003,0.172-2.926-0.315c-0.735-0.388-0.739-1.517-0.497-2.552
					l0.136-0.548l-0.546,0.143c-0.652,0.171-1.211,0.133-1.784-0.187l-0.026-0.013c-0.402-0.274-0.635-0.701-0.673-1.232
					l-0.669-0.018c-0.173,1.353-0.578,4.516,8.306,10.74c0.612,0.428,1.239,0.821,1.876,1.176c4.128,2.306,8.774,3.138,13.805,2.469
					l0.674-0.214L54.333,268.211z"/>
				<path fill="#FFFFFF" d="M47.958,267.034l0.112,0.054c0.476,0.214,1.022,0.187,1.587-0.077c1.145-0.539,2.253-2.028,2.696-3.624
					c0.092-0.338-0.057-0.695-0.386-0.878c-1.384-0.726-2.96-1.241-4.22-1.381c-0.432-0.045-0.849,0.281-0.908,0.717
					C46.488,264.505,46.906,266.444,47.958,267.034z"/>
				<path fill="#FFFFFF" d="M42.16,257.619l-0.106-0.132c-0.724-0.897-1.582-1.648-2.42-2.116l-0.204-0.11
					c-0.166-0.084-0.355-0.096-0.535-0.031c-0.194,0.069-0.353,0.217-0.435,0.402c-0.357,0.8-2.06,4.858-0.36,6.146
					c0.083,0.061,0.167,0.116,0.252,0.165c1.004,0.562,2.256,0.223,2.915-0.03l0.204-0.078l0.01-0.221
					c0.076-1.55,0.439-3.084,0.635-3.832L42.16,257.619z"/>
				<path fill="#FFFFFF" d="M32.186,255.618c0.443,0.249,1.022,0.302,1.721,0.163l0.189-0.039l0.062-0.181
					c0.396-1.132,1.016-2.303,1.494-3.176c0.049-0.045,0.22-0.094,0.289-0.081c0.203,0.048,0.415,0.13,0.626,0.25
					c0.333,0.186,0.678,0.459,1.056,0.831l0.57,0.565l0.004-0.803c0-0.062,0.017-6.271-1.322-7.019l-0.145-0.064l-0.048-0.008
					c-0.302-0.069-0.791,0.029-1.911,1.412c-1.529,1.885-3.934,5.963-3.283,7.379C31.645,255.188,31.879,255.447,32.186,255.618z"/>
				<path fill="#FFFFFF" d="M60.603,241.386c-1.996,2.254-2.346,4.543-4.2,7.677C58.348,246.442,59.064,244.143,60.603,241.386z"/>
				<path fill="#FFFFFF" d="M55.84,268.681c2.452-0.233,4.078-1.438,4.349-3.222c0.383-2.5-0.427-7.627-1.929-8.466
					c-0.083-0.046-0.167-0.083-0.25-0.103c-0.306-0.077-0.651,0.031-1.029,0.324c-1.66,1.288-4.065,6.154-4.065,7.426
					c0.002,1.016,0.979,2.855,1.903,3.581c0.104,0.079,0.22,0.162,0.351,0.235C55.363,268.565,55.556,268.639,55.84,268.681z"/>
				<path fill="#B7BDC2" d="M34.506,258c-0.093-0.226-0.123-0.764-0.122-0.999c0.178,0.525,0.478,1.172,1.155,1.024
					c1.507-0.33,2.332-2.113,2.746-3.498c0.053,0.07,0.105,0.128,0.16,0.201l0.09,0.12l-0.05,0.142
					c-0.354,1.011-0.803,3.382-1.287,4.005C36.095,259.021,34.897,258.957,34.506,258z"/>
				<path fill="#B7BDC2" d="M48.441,265.711l0.089,0.045c0.4,0.177,0.858,0.135,1.323-0.119c0.859-0.477,1.741-1.634,2.216-2.411
					c-0.332,1.456-1.223,2.84-2.171,3.365c-0.465,0.256-0.921,0.296-1.322,0.119l-0.091-0.045c-0.71-0.397-1.097-1.609-1.104-3.323
					C47.508,264.548,47.869,265.392,48.441,265.711z"/>
				<path fill="#B7BDC2" d="M56.369,266.938c0.808-0.153,2.376-1.756,2.471-4.098c0.027-0.683-0.146-3.146-0.636-4.976
					c1.351,2.056,1.392,5.313,1.437,5.781c0.083,0.845-0.048,2.773-0.543,3.505c-0.57,0.836-0.844,0.723-1.616,0.992
					c-1.022,0.357-2.845-1.26-3.094-1.607C54.457,266.587,55.244,267.154,56.369,266.938z"/>
				<path fill="#B7BDC2" d="M39.702,260.761c0.985-0.492,1.674-2.583,1.935-3.335c0.056-0.193,0.237-0.048,0.284,0.008l0.084,0.103
					l-0.056,0.294c-0.09,0.471-0.38,2.131-0.357,3.787l-0.28,0.004c-0.627,0.258-1.64,0.323-2.456-0.163
					c-0.705-0.419-0.874-1.374-0.842-2.373C38.135,260.112,38.597,261.314,39.702,260.761z"/>
				<path fill="#B7BDC2" d="M46.135,260.52l0.422,0.229c-0.021,0.503-0.063,1.547,0.051,2.641l0.013,0.115l-0.418,0.332
					c-2.149,1.372-3.404,1.101-3.885-1.325c0.596,1.613,1.792,1.613,2.429,0.963C45.665,262.534,46.124,260.801,46.135,260.52z"/>
				<path fill="#B7BDC2" d="M35.94,252.295c-0.073-0.018-0.263,0.04-0.303,0.082c-0.39,0.833-0.863,1.902-1.191,2.972
					c-0.299,0.031-1.462,0.24-2.088-0.496c-0.321-0.378-0.268-1.05-0.109-1.784c0.278,1.1,1.165,1.647,2.319,0.275
					c1.365-1.62,2.265-4.056,1.898-6.362c0.993,1.606,1.238,6.441,1.238,6.441c-0.403-0.39-0.768-0.672-1.114-0.865
					C36.369,252.434,36.148,252.345,35.94,252.295z"/>
				<path fill="#FFFFFF" d="M52.976,253.969c-0.535,0.293-1.708,1.942-1.2,1.729C52.281,255.488,53.513,253.675,52.976,253.969z"/>
				<path fill="#A3727D" d="M33.054,258.4c0,0,0.545,2.017,2.996,1.62C32.926,261.073,33.054,258.4,33.054,258.4z"/>
				<path fill="#A3727D" d="M30.829,255.793c0,0,0.674,1.171,2.033,0.978C31.25,257.436,30.829,255.793,30.829,255.793z"/>
				<path fill="#A3727D" d="M36.643,261.4c0,0,0.65,2.051,2.907,1.747C36.959,264.401,36.643,261.4,36.643,261.4z"/>
				<path fill="#A3727D" d="M41.217,264.49c0,0,0.881,2.015,3.172,1.549C41.854,267.483,41.217,264.49,41.217,264.49z"/>
				<path fill="#A3727D" d="M46.357,266.755c0,0,1.074,1.918,3.309,1.23C47.283,269.67,46.357,266.755,46.357,266.755z"/>
				<path fill="#A3727D" d="M52.484,266.994c0,0,0.226,0.879,1.288,1.454l-0.8-0.01C52.972,268.438,52.487,267.819,52.484,266.994z"
					/>
				<path fill="#381000" d="M152.297,114.463c-0.148-0.472-0.926-3.139-1.18-3.963c-1.512-4.901-4.19-12.1-8.729-13.73
					c-5.966-2.144-14.061,1.979-14.061,1.979c0.314-0.241,7.816-5.941,14.608-3.502c5.264,1.891,8.079,9.395,9.721,14.745
					c0.253,0.826,1.038,3.521,1.185,3.981c1.214,3.828,3.053,7.216,3.07,7.25C156.911,121.222,153.561,118.437,152.297,114.463z"/>
				<path fill="#381000" d="M19.599,173.48c-0.458-7.838,0.786-15.8,3.591-23.027C21.265,157.523,20.07,165.199,19.599,173.48z"/>
				<path fill="#381000" d="M138.043,138.781c-4.877-0.114-9.792-1.676-13.839-4.401
					C128.003,137.685,132.515,139.382,138.043,138.781z"/>
				<path fill="#381000" d="M76.234,114.724c-2.214-1.664-4.058-3.843-5.332-6.3C71.753,111.336,73.495,113.468,76.234,114.724z"/>
				<path fill="#381000" d="M122.432,130.772c1.357,1.414,5.522,4.474,10.543,5.604c5.318,1.197,13.739-0.253,13.746-4.677
					c0.004-2.192-2.204-16.588-13.692-24.185c1.276,1.218,2.075,2.451,2.654,3.572c-9.654,1.526-13.827,11.52-15.021,13.204
					c-1.195,1.684-3.346,1.373-3.266,3.399C117.473,129.63,121.073,129.359,122.432,130.772z M136.252,112.718
					c4.548,1.073,11.649,18.673,6.601,21.19c-8.545,4.261-20.783-2.773-20.563-7.327
					C122.619,119.781,131.483,111.592,136.252,112.718z"/>
				<path fill="#381000" d="M33.633,167.1c0.739-1.22,2.051-2.465,2.535-4.349c0.69-2.694-0.726-4.811-2.535-5.712
					c-3.365-1.679-6.882,0.619-6.928,4.288c-0.024,1.99,0.103,4.37,3.572,7.723c3.471,3.353,8.851,3.431,8.851,3.431l2.884-1.989
					C36.638,173.543,32.509,168.959,33.633,167.1z"/>
				<path fill="#381000" d="M9.88,163.458c0,0,2.514-0.021,1.988-2.018c-1.138-4.323-2.308-9.891,1.061-9.267
					c2.855,0.529,3.983,5.942,2.874,9.684c-0.876,2.963-3.641,2.968-5.387,2.623C8.669,164.133,9.88,163.458,9.88,163.458z"/>
				<path fill="#381000" d="M68.416,234.622c0,0-6.688,2.895-9.305,8.018c-2.617,5.121-4.402,9.993-9.621,13.909
					c5.97-6.248,6.255-9.338,8.768-14.328c2.51-4.99,8.815-7.802,8.815-7.802L68.416,234.622z"/>
				<path fill="#424141" d="M164.729,225.507c-6.142,4.84-14.292,8.67-19.077,9.76c-4.239,0.966-11.191,2.468-15.288,4.368
					c-1.481,0.688-4.015,2.132-6.895,3.867c-2.549,1.535-15.844,9.39-22.157,13.958c-4.899,3.546-29.199,13.029-34.938,16.25
					c-2.216,1.243-7.042,3.632-10.619,4.386c-10.38,2.187-21.94-3.824-28.312-10.419c-2.47-2.557-5.488-9.642-1.274-14.432
					c1.321-1.5,12.935-17.265,16.896-28.865c-0.302-0.437-0.606-0.875-0.91-1.317c-4.334,13.752-15.806,27.916-17.053,29.333
					c-4.427,5.03-2.061,12.798,1.267,16.245c2.464,2.549,5.572,4.971,9.052,6.913c6.188,3.456,21.818,4.839,28.825,3.274
					c3.969-0.887-0.447-2.142,2.165-3.593c5.416-3.013,30.464-12.998,35.486-16.45c6.391-4.392,21.878-13.562,22.43-13.893
					c2.783-1.672,5.198-3.05,6.54-3.677c3.262-1.521,9.401-3.062,15.147-4.372c4.889-1.114,12.639-4.718,19.133-9.638
					 M164.513,203.012 M222.913,141.92c-0.749-3.159-1.394-6.374-2.003-9.453c-1.29-6.532-2.405-12.173-4.221-15.617
					c-4.25-8.064-9.986-10.285-15.036-11.395c-1.593-0.349-4.865-0.721-8.47-1.059c-1.402-1.779-9.905-12.411-18.418-19.538
					c-10.87-9.1-21.985-11.004-25.134-11.371c-2.087-0.244-4.246-0.403-6.153-0.508c-2.718-1.233-11.517-5.013-18.67-5.689
					c-2.465-0.235-4.695-0.245-6.755-0.122c-1.494-1.075-15.823,5.438-17.173,4.988c-1.247-0.417-8.45,2.709-22.105,7.69
					c-3.771,17.61-20.408,28.018-20.472,29.779c-0.188,5.302-16.798,20.2-16.798,20.2c-4.548,1.972-29.832,11.59-31.964,15.115
					c-1.339,2.214-1.868,6.394-1.648,11.029c-1.541,3.159-6.856,14.359-7.742,20.383c-1.039,7.088,3.644,25.9,4.655,28.338
					c0.2,0.484,0.573,0.799,1.049,0.888c0.09,0.017,0.181,0.026,0.273,0.026c1.504-0.001,3.615-2.125,7.072-5.738
					c1.73-1.809,3.506-3.662,4.69-4.494c0.891,1.489,2.208,2.688,3.77,4.109c2.282,2.073,5.118,4.651,8.091,9.422
					c1.252,2.01,9.004,11.874,12.842,15.527c3.837,3.653,11.068,10.698,22.39,10.684c8.381-0.009,37.256-9.579,40.651-10.754
					c3.7-1.279,8.718-4.323,14.189-8.313c0.466-0.34,6.923-5.345,7.754-6.029c8.264-6.797,16.651-14.808,22.554-21.586
					c-5.356,12.895-18.605,31.112-20.116,32.849c-3.265-5.21-8.895-6.945-8.895-6.945l-1.27,0.678c0,0,7.169,2.869,9.171,7.395
					c-0.449,0.494-1.458,1.575-1.458,1.575c-5.289,1.744-12.477,4.637-16.521,6.805c-6.593,3.531-14.543,11.312-17.144,16.138
					c-2.762,5.125-32.571,18.267-33.049,18.37c0.043-0.962-0.207-3.049-0.394-4.134c-0.404-2.361-1.083-4.571-2.328-4.874
					c-0.768-0.185-1.541,0.18-2.299,1.083c-0.839,1.002-2.147,2.951-2.949,4.763c-1.771-0.839-3.562-1.463-5.378-1.844
					c-0.065-0.06-0.133-0.124-0.212-0.192c-0.939-0.808-3.244-2.097-4.479-2.765c-1.229-1.31-2.433-2.397-3.558-2.79
					c-0.645-2.011,0.787-4.521,2.15-6.303c0.973-1.271,2.836-3.541,3.896-6.356c0.184-0.487,0.407-1.193,0.675-2.042
					c0.608-1.922,2.612-7.276,3.81-9.86c-0.396-0.26-0.773-0.537-1.134-0.831c-1.322,2.763-3.394,8.32-4.04,10.363
					c-0.26,0.82-0.474,1.501-0.652,1.973c-0.972,2.587-2.699,4.688-3.65,5.935c-0.755,0.992-1.234,1.831-1.58,2.558
					c-0.199-1.896-0.66-3.951-1.721-4.394c-0.323-0.135-0.857-0.191-1.574,0.307c-0.049,0.035-0.1,0.083-0.15,0.122
					c2.456-2.795,8.35-11.848,11.311-18.431c-0.318-0.354-0.628-0.717-0.928-1.091c-3.562,8.367-12.383,20.076-14.375,23.074
					c-0.67,1.006-1.187,1.786-1.525,2.313c-1.743,2.7-0.641,8.048,8.194,14.24c0.654,0.458,1.323,0.878,2.004,1.258
					c6.486,3.623,14.249,3.835,22.338,0.402c2.226-0.943,27.502-9.775,32.465-13.182c12.035-8.26,25.061-19.907,31.377-26.542
					c4.318-4.536,9.557-12.259,13.141-17.805c4.458-6.3,8.682-13.367,12.408-21.316c3.453,3.646,5.375,9.068,5.375,9.068
					c-0.082-0.592-1.05-8.922-6.075-12.013c-5.02-3.088-14.824,0.907-15.204,1.031c0,0,8.874-2.204,13.5-0.105
					c-11.62,13.498-33.529,32.23-44.183,35.914c-4.434,1.533-38.24,12.814-47.946,9.514c-8.655-2.945-20.036-14.666-26.039-24.299
					c-3.09-4.96-6.021-7.624-8.375-9.763c-1.993-1.813-3.434-3.122-4.079-5.06c-1.201-3.594,0.418-11.728,0.975-14.264
					c0.884,0.218,1.812,0.358,2.808,0.358c5.658,0,12.82-3.266,18.296-6.824c7.108-4.617,14.894-12.002,15.431-18.885
					c0.269-3.419-1.062-6.686-3.96-9.708c-4.635-4.837,7.763-14.73,2.192-15.997c3.289-0.977,9.162-2.823,12.753-4.552
					c4.623-2.225,12.723-6.497,15.049-10.126c3.219-5.018,5.354-10.591,5.718-16.697c0.291-4.918-1.489-9.663-1.489-9.663
					c0.081,0.867,0.114,1.739,0.146,2.608c-1.312-0.775-5.514,0.668-9.414,4.679c-4.524,4.652-5.463,8.586-5.05,11.804
					c0.429,3.345,4.4,7.128,7.251,8.048c-2.4,2.226-18.952,11.006-24.964,13.899c-2.344,1.129-6.198,2.458-9.619,3.547
					c0.292-4.069,13.072-17.915,16.181-21.349c1.47-1.622,3.287-3.174,4.889-4.543c1.737-1.486,3.238-2.769,4.127-3.945
					c3.053-4.04,4.962-8.421,7.175-13.494c0.669-1.536,1.365-3.134,2.126-4.799c2.138-4.661,7.569-6.233,11.593-5.064
					c4.126,1.202,8.426,7.127,8.426,7.127c-0.119-0.283-2.853-6.649-7.345-8.448c2.922-1.1,10.509-3.963,14.15-5.405
					c4.16-1.649,10.032-3.438,18.543-2.634c5.239,0.497,11.406,2.835,14.82,4.219c-1.476,0.623-4.937,1.208-4.937,1.208
					c0.061,0,9.249,0.108,14.906,0.767c3.033,0.354,13.756,2.193,24.28,11.005c7.842,6.563,15.238,15.593,17.234,18.098
					c-6.004-0.525-12.159-0.926-12.599-0.956c0,0,18.552,2.83,22.942,3.793c4.923,1.082,10.024,3.11,13.954,10.568
					c1.706,3.236,2.851,9.037,4.065,15.179c1.82,9.202,3.882,19.632,8.503,26.302c0,0-2.006-5.136-2.831-9.724
					c2.164,3.704,5.129,8.192,7.931,10.443 M47.173,261.887c0.032-0.249,0.283-0.452,0.539-0.424
					c1.308,0.145,2.876,0.704,4.098,1.344c0.177,0.092,0.271,0.297,0.218,0.491c-0.594,2.148-2.463,4.092-3.821,3.481
					C47.334,266.389,46.795,264.733,47.173,261.887z M42.459,258.813c0.081-0.245,0.373-0.38,0.611-0.284
					c1.094,0.444,2.375,1.329,3.405,2.235c-0.085,0.544-0.268,1.688-0.28,2.907c-0.551,0.494-2.174,1.464-3.296,1.027
					C42.064,264.374,41.671,261.194,42.459,258.813z M38.768,255.77c0.088-0.197,0.322-0.304,0.511-0.209
					c0.9,0.457,1.791,1.24,2.512,2.136l-0.041,0.16c-0.141,0.538-0.527,2.133-0.604,3.741c-0.659,0.252-1.935,0.596-2.842-0.089
					C37.074,260.577,37.977,257.535,38.768,255.77z M37.051,258.921c-0.687,0.097-1.845,0.171-2.482-0.306
					c-0.894-0.67-0.043-3.327,1.181-5.556c0.096-0.176,0.342-0.255,0.529-0.153c0.743,0.398,1.419,1.125,2.061,2.028
					C37.929,255.892,37.321,257.46,37.051,258.921z M36.608,246.384c0.963,0.217,1.26,4.688,1.252,6.762
					c-0.597-0.588-1.2-1.02-1.845-1.171c-0.193-0.045-0.555,0.066-0.644,0.227c-0.492,0.892-1.123,2.085-1.531,3.248
					c-0.559,0.112-1.607,0.21-2.046-0.744C31.042,253.071,35.553,246.145,36.608,246.384z M38.844,264.999
					c-8.645-6.058-8.335-9.079-8.165-10.42c0.047,0.638,0.331,1.152,0.82,1.484c0.051,0.036,0.103,0.067,0.157,0.098
					c0.679,0.379,1.427,0.283,1.927,0.152c-0.288,1.174-0.242,2.232,0.549,2.794c0.877,0.628,1.948,0.502,2.832,0.383
					c-0.137,1.132-0.011,2.131,0.658,2.622c0.113,0.083,0.226,0.156,0.34,0.219c1.134,0.634,2.343,0.377,3.176,0.036
					c0.029,1.326,0.332,2.548,1.236,3.053c0.071,0.041,0.147,0.075,0.227,0.108c1.443,0.559,2.761-0.025,3.646-0.649
					c0.122,1.152,0.484,2.205,1.329,2.677c0.089,0.049,0.181,0.094,0.28,0.13c1.703,0.622,3.347-0.841,4.402-2.282
					c0.226,1.134,0.938,2.344,1.867,3.076c0.053,0.041,0.108,0.069,0.162,0.108C48.623,269.337,43.356,268.154,38.844,264.999z
					 M59.856,265.409c-0.229,1.503-1.574,2.701-4.047,2.937c-0.299-0.062-0.58-0.231-0.784-0.39c-0.819-0.645-1.773-2.4-1.773-3.316
					c-0.002-1.381,3.302-7.776,4.673-7.423C59.295,257.572,60.262,262.753,59.856,265.409z M94.164,253.114
					c-0.932,0.608-26.243,11.299-33.429,13.82c1.552-0.58,31.493-13.994,34.424-19.436c2.458-4.558,10.204-12.136,16.523-15.521
					c4.116-2.205,9.446-4.442,14.135-6.19C118.94,232.775,104.937,246.08,94.164,253.114z M73.332,104.526
					c-0.309-6.525,6.227-13.727,11.803-13.957c0.677-0.028,1.157,0.116,1.485,0.271c0.038,7.807-1.944,15.552-5.77,21.517
					c-0.157,0.243-0.376,0.505-0.608,0.77C78.462,112.388,73.587,109.886,73.332,104.526z M17.119,193.684
					c-1.37,1.097-3.367,3.266-5.089,5.065c-1.797,1.878-4.752,4.968-5.773,5.222c-1.034-2.692-5.475-20.79-4.505-27.382
					c0.754-5.14,4.638-13.711,6.404-17.428c0.37,3.142,1.058,6.335,2.067,9.154c1.856,5.196,4.575,8.663,7.875,10.133
					C17.547,180.911,15.783,189.562,17.119,193.684z M51.05,145.024c2.564,2.674,3.746,5.522,3.518,8.462
					c-0.408,5.188-6.178,12.116-14.7,17.654c-8.09,5.254-16.165,7.64-20.563,6.082c-3.956-1.402-6.295-5.912-7.559-9.451
					c-2.955-8.266-5.174-26.34,11.228-28.001c6.516-0.661,23.907-10.718,26.888-10.824C54.077,128.785,45.166,138.886,51.05,145.024
					z"/>
				<path fill="#381000" d="M119.85,215.016c0,0,13.17-9.9,17.858-14.679c4.686-4.778,12.692-13.27,12.692-13.27l0.784,0.426
					c0,0-3.828,8.461-7.207,14.275s-11.657,17.591-13.971,20.666C130.007,222.433,125.816,215.098,119.85,215.016z"/>
				<path fill="#381000" d="M155.641,178.613c-4.812-3.295-11.479-3.467-11.479-3.467s6.763-0.499,12.108,2.839
					c3.238,2.02,5.459,8.847,5.459,8.847S159.1,180.982,155.641,178.613z"/>
			</g>
		</g>
		<path fill="#424141" d="M176.088,128.035c2.938-7.692-1.346-17.825,1.835-25.189c3.281-7.599,11.356-9.524,16.429-14.98
			c21.444-23.067,22.424-21.18,38.574-46.577c2.288,43.148,18.693,53.137,13.228,96.75c-2.042,16.287-36.54,63.701-56.721,41.711"/>
		<path fill="#C5A771" d="M176.088,128.035c2.938-7.692-1.346-17.825,1.835-25.189c3.281-7.599,10.187,7.007,15.26,1.552
			c21.445-23.067,17.951-11.949,34.101-37.348c2.287,43.148,13.686,44.629,8.218,88.243c-2.04,16.286-25.888,46.447-46.068,24.457"
			/>
		<path fill="#424141" d="M165.045,225.436"/>
		<path fill="#424141" d="M62.394,130.338c-14.816-3.37-4.211,20.256-10.41,13.789c-2.83-2.953,4.134,6.135,3.873,9.458
			c-0.531,6.768-8.243,14.066-15.285,18.639c-6.526,4.241-13.3,6.772-18.12,6.772c-0.884,0-1.776-0.113-2.732-0.348l-0.322-0.08
			l-0.071,0.325c-0.539,2.453-2.197,10.745-0.964,14.435c0.669,2.014,2.131,3.346,4.169,5.199c2.339,2.127,5.251,4.773,8.316,9.693
			c6.035,9.681,17.486,21.467,26.208,24.434c2.289,0.778,4.956,1.172,7.93,1.172c0.002,0,0,0,0.002,0
			c8.147,0,37.004-9.574,40.223-10.687c10.681-3.692,32.596-22.389,44.322-36.009l0.285-0.328l1.812,1.509l-0.229,0.49
			c-3.13,6.677-12.102,20.283-16.771,27.167c-7.959,11.732-23.61,26.058-36.249,35.28c-8.591,6.268-38.078,18.003-45.272,18.549
			c-12.23,0.928-19.645-7.5-21.733-10.805c-2.2-3.487-1.837-5.057-0.835-7.005c0.896-1.743,6.265-9.19,9.374-13.629
			c3.107-4.438,5.931-10.623,5.931-10.623l-3.537-3.555c-0.732,2.996-3.656,9.226-5.301,12.271
			c-1.645,3.047-7.67,11.313-9.547,14.062c-1.873,2.749-2.957,2.794-4.061,7.752c-0.733,3.298,1.096,7.776,4.486,11.158
			c3.162,3.157,19.828,7.783,27.625,9.135c7.798,1.353,9.41-3.454,9.41-3.454c4.538-2.627,29.176-12.269,33.41-15.254
			c3.783-2.284,8.504-5.375,13.157-8.423c0.314-0.206,0.646-0.422,0.986-0.644c2.894-1.657,5.468-3.002,5.468-3.002
			s1.184-0.792,3.04-2.383c3.871-2.387,7.588-4.577,9.514-5.469c3.789-1.756,35.65-53.254,22.447-58.954
			C132.696,172.235,133.947,171.91,62.394,130.338z"/>
		<path fill="#424141" d="M86.917,89.668"/>
		<path fill="#A17C72" d="M201.11,136.376c0.071-11.992,0.597-20.46,7-30.022c5.434-8.113,14.783-13.571,14.602-24.65
			c3.673,12.433,29.418,91.035-4.589,81.111c-6.472-10.33-11.886-20.247-18.681-29.775"/>
		<g>
			<g>
				<path fill="#424141" d="M183.47,111.262c0.001,0-0.045,16.741,1.312,25.116c1.407,8.681,5.137,16.466,10.035,23.7
					c0.449,0.664,1.534-0.011,1.08-0.682c-4.627-6.834-7.992-13.907-9.667-22.012c-1.775-8.588-1.508-18.122-1.51-26.122
					C184.721,110.262,183.47,110.262,183.47,111.262C183.47,111.262,183.47,110.262,183.47,111.262z"/>
			</g>
		</g>
		<g>
			<g>
				<path fill="#424141" d="M183.448,100.685c-0.455-2.521-0.177-5.002,1.701-6.88c1.951-1.951,5.103-2.302,7.707-2.338
					c0.806-0.011,0.807-1.262,0-1.251c-3.202,0.043-6.523,0.636-8.87,2.983c-2.059,2.059-2.231,5.118-1.744,7.819
					C182.385,101.811,183.59,101.474,183.448,100.685L183.448,100.685z"/>
			</g>
		</g>
		<g>
			<g>
				<path fill="#424141" d="M103.302,72.171c7.396-14.46,17.856-25.91,21.334-42.91c-0.402,0-0.804,0-1.206,0
					c1.146,8,2.434,16.076,3.753,23.991c0.132,0.794,1.338,0.564,1.206-0.225c-1.319-7.914-2.607-15.778-3.753-23.72
					c-0.089-0.619-1.083-0.551-1.206,0.027c-3.458,16.174-13.865,27.942-21.208,42.3C101.855,72.351,102.935,72.89,103.302,72.171
					L103.302,72.171z"/>
			</g>
		</g>
	</g>
	<path fill="#424141" d="M500.289,85.731c31.501-3.305,59.348,20.139,69.081,48.748c3.249,9.55,3.977,38.889-4.34,44.762
		c-0.902-4.648-2.852-9.367-5.572-13.522c-0.129,2.986-1.657,5.566-2.038,7.899c-1.957-3.797-4.589-9.035-6.346-12.621
		c-0.961,14.163-9.805,20.812-12.992,33.344c0.474-26.46,0.457-44.794-14.264-66.866c-10.299-15.44-23.819-29.886-38.828-38.977
		c7.883-0.498,17.919-1.552,25.119,1.122"/>
	<path fill="#424141" d="M535.346,135.885"/>
	<g>
		<path fill="#C5A771" d="M221.791,200.506c9.813,0.701,20.327,1.401,29.438,0c-7.709,2.102-16.12,4.906-23.83,6.308
			c4.205,0.701,8.411,0,12.615-0.702c-6.307,16.822-28.034,16.822-35.043,1.402c7.009-3.504,16.82-3.504,23.83-7.71"/>
	</g>
	<g>
		<g>
			<g>
				<path fill="#261954" d="M82.565,136.911c-7.969-2.657-31.214-2.657-31.214-2.657s-13.061-3.542-2.436-29.663
					c10.627-26.123,26.946-22.045,26.946-22.045s105.437,30.9,105.437,39.312c0,8.413,5.312,5.091,3.099,13.725
					c-2.212,8.633-13.283,16.382-13.283,16.382s-8.854,9.963-24.129,9.077s-32.098-6.944-32.098-6.944
					S90.535,139.567,82.565,136.911z M167.795,117.983c-4.649-9.629-72.391-31.546-92.313-29.553
					c-8.103-1.328-19.26,13.946-19.26,13.946s-9.441,26.019,3.841,23.363c13.283-2.657,21.429-0.021,37.778,4.973
					c15.275,6.642,18.153,14.833,30.771,16.825c12.619,1.992,29.886,5.313,39.185-13.946
					C167.795,133.59,172.443,127.614,167.795,117.983z"/>
				<path fill="#FB867A" stroke="#050F28" stroke-width="1.3283" stroke-miterlimit="10" d="M175.985,137.575
					c-17.047,18.817-29.484,17.567-44.395,15.213c-14.911-2.354-23.228-11.128-41.278-18.977
					c-19.32-5.899-20.056-5.795-35.752-2.657c-15.696,3.142-1.882-31.214-1.882-31.214s12.558-18.877,22.132-17.308
					c23.543-2.354,99.456,18.183,103.081,35.233C178.421,122.742,181.479,130.511,175.985,137.575z M167.795,117.983
					c-4.649-9.629-72.391-31.546-92.313-29.553c-8.103-1.328-19.26,13.946-19.26,13.946s-9.441,26.019,3.841,23.363
					c13.283-2.657,21.429-0.021,37.778,4.973c15.275,6.642,18.153,14.833,30.771,16.825c12.619,1.992,29.886,5.313,39.185-13.946
					C167.795,133.59,172.443,127.614,167.795,117.983z"/>
			</g>
			<path fill="#261954" d="M154.276,159.332l69.053,32.598c0,0,2.483-4.938,0-10.773c-41.353-8.748-58.464-25.522-58.464-25.522
				L154.276,159.332z"/>
		</g>
		<path opacity="0.3" fill="#FFFFFF" d="M167.795,117.983c-4.649-9.629-72.391-31.546-92.313-29.553
			c-8.103-1.328-19.26,13.946-19.26,13.946s-9.441,26.019,3.841,23.363c13.283-2.657,21.429-0.021,37.778,4.973
			c15.275,6.642,18.153,14.833,30.771,16.825c12.619,1.992,29.886,5.313,39.185-13.946
			C167.795,133.59,172.443,127.614,167.795,117.983z"/>
	</g>
	<g>
		<path fill="#C5A771" d="M456.671,254.668c24.299,0,48.598,8.411,72.896,3.738c-3.737-1.869-7.476-3.738-12.149-4.673
			c8.412-1.869,15.888-4.673,23.365-9.346c-1.869,0.935-4.674,0.935-6.543,1.869c19.626-10.28,39.252-30.841,49.532-50.466
			c-2.804,2.804-7.477,4.672-9.345,7.476c2.803-8.411,7.476-16.822,13.084-25.233c-0.936,0.935-3.739,2.804-4.674,3.738
			c-2.804-6.542-0.935-14.019-0.935-21.495c-13.083,10.28-16.821,28.972-28.037,41.121c-9.345,11.215-23.364,24.299-37.382,29.906
			c-20.561,8.411-45.793,7.477-66.354,14.953c2.803,4.673,4.672,9.346,7.477,14.019"/>
	</g>
	<g>
		<path fill="#424141" d="M435.177,230.369c10.28-1.869,21.494-7.477,24.299-17.757c0,1.869,1.869,6.542,1.869,9.346
			c8.411,0.935,14.018-8.411,20.561-13.084c-0.936,2.804-0.936,5.607-1.869,8.411c3.738-4.673,6.542-10.28,9.346-14.953
			c-0.935,3.738,0,7.476,0,11.215c2.804-5.607,5.607-12.149,8.411-17.756c0,3.738,1.869,9.345,1.869,13.083
			c4.672-7.477,6.541-15.887,11.215-22.429c0,2.804,1.869,7.477,1.869,10.28c5.607-6.542,8.41-14.953,10.281-23.364
			c0,3.738,0.934,7.477,0.934,12.149c3.737-10.28,7.476-17.757,6.541-28.972c8.412,30.841,0.935,49.532-27.102,65.419
			c-11.215,6.542-24.3,12.149-36.448,16.822c-15.888,6.542-20.561,2.804-31.775-9.346"/>
	</g>
	<g>
		<path fill="#C5A771" d="M229.711,197.573c5.607,2.804,7.01,8.412,15.422,7.009c-4.206,5.608-11.216,9.84-18.226,9.84
			c5.609,4.207,11.216,8.84,18.226,9.84c-8.412,0-16.823,0-26.637,0c0,0,0,0,1.4,0c9.814-1,16.825-8,19.629-18
			c-8.413,0-14.02,0-21.029,0c-1.404,5-2.804,12.479-1.404,18.087"/>
	</g>
	<g>
		<path fill="#C5A771" d="M91.536,278.258c-1.851,14.879-14.816,28.105-33.336,31.412c7.408-1.654,16.669,0,25.928,0
			c-5.557,1.654-14.816,8.266-20.373,9.92c5.557-1.654,11.113-1.654,14.816-1.654c-5.555,6.613-16.667,13.226-24.076,16.533
			c5.557-1.654,16.667-1.654,20.373-3.308c-3.706,8.266-9.261,16.534-18.521,21.493c3.704-1.653,11.112-3.307,14.815-4.959
			c-1.851,0-3.703,6.612-5.555,8.266c1.853-1.654,7.408-6.614,9.261-8.266c0,3.306,1.852,8.266,1.852,11.572
			c16.668-24.798,31.485-59.517,31.485-89.274c-3.704,0-5.557,3.306-9.261,6.612"/>
	</g>
	<path fill="#91201B" d="M228.282,212.322c0,0-55.334,52.907-135.344,51.451c0,0-14.918,21.109-4.794,19.436
		c10.124-1.673,131.441-18.998,142.679-63.645C236.631,219.935,228.282,212.322,228.282,212.322z"/>
	<path fill="#A4A7AB" stroke="#000000" stroke-width="0.398" stroke-miterlimit="10" d="M158.544,250.206
		c7.994-0.394,6.368,11.403,6.683,15.494c2.021,0.228,3.551-0.013,5.304-0.693c0.464-5.756,2.498-16.375-8.089-16.715
		c-1.12,1.324-1.203,2.674-1.094,3.27"/>
	<path fill="#A4A7AB" stroke="#000000" stroke-width="0.4673" stroke-miterlimit="10" d="M100.6,264.948
		c0.294-0.701,1.35-1.097,1.069-2.669c9.099-2.287,17.878-4.188,27.762-3.731c0.142,7.09,3.048,13.924,1.869,21.211
		c-9.146,0.798-19.413,5.238-28.668,3.717c-3.94-5.918-1.83-12.799-3.9-19.463 M103.664,266.153
		c1.45,4.662-0.028,9.476,2.729,13.618c6.477,1.063,13.661-2.043,20.06-2.601c0.824-5.099-1.21-9.88-1.308-14.842
		c-6.918-0.32-13.06,1.011-19.425,2.611c0.194,1.1-0.543,1.377-0.749,1.868"/>
	<path fill="#A4A7AB" stroke="#000000" stroke-width="0.4673" stroke-miterlimit="10" d="M104.743,271.296
		c3.625,1.209,7.725,1.059,11.093-0.631c3.034,5.511-6.009,8.287-10.286,7.534c0.323-1.858-0.535-4.239-0.212-6.096
		c-0.695-0.181-1.31,0.02-1.997-0.105"/>
</g>
</svg>
