<?xml version="1.0" encoding="utf-8"?>
<!-- Generator: Adobe Illustrator 16.0.0, SVG Export Plug-In . SVG Version: 6.00 Build 0)  -->
<!DOCTYPE svg PUBLIC "-//W3C//DTD SVG 1.1//EN" "http://www.w3.org/Graphics/SVG/1.1/DTD/svg11.dtd">
<svg version="1.1" id="Capa_1" xmlns="http://www.w3.org/2000/svg" xmlns:xlink="http://www.w3.org/1999/xlink" x="0px" y="0px"
	 width="104.833px" height="104.911px" viewBox="0 0 104.833 104.911" enable-background="new 0 0 104.833 104.911"
	 xml:space="preserve">
<g id="GL9ZEA.tif">
	<g>
		<g>
			<path fill="#4059A7" d="M104.833,48.958c0,2.642,0,5.285,0,7.927c-0.129,0.352-0.327,0.694-0.374,1.057
				c-2.761,20.991-14.026,35.518-33.556,43.443c-4.443,1.804-9.385,2.382-14.096,3.525c-2.954,0-5.906,0-8.859,0
				c-1.051-0.18-2.099-0.377-3.151-0.536C20.771,100.76,2.653,81.676,0.259,57.455C-2.211,32.48,13.221,9.428,37.312,2.306
				C40.925,1.238,44.709,0.754,48.414,0c2.642,0,5.285,0,7.927,0c0.52,0.129,1.031,0.308,1.558,0.379
				c21.849,2.949,36.549,14.883,44.075,35.498C103.491,40.032,103.909,44.587,104.833,48.958z M52.478,27.967
				c-9.167,0-18.334-0.012-27.501,0.007c-2.577,0.005-4.046,1.292-4.068,3.442c-0.022,2.165,1.457,3.55,3.97,3.552
				c18.334,0.017,36.668,0.013,55.002-0.007c0.676,0,1.423-0.094,2.015-0.389c1.569-0.782,2.287-2.155,1.867-3.86
				c-0.466-1.89-1.793-2.762-3.783-2.756C70.812,27.985,61.645,27.97,52.478,27.967z M52.614,48.949
				c-9.089,0-18.178-0.006-27.267,0.003c-2.957,0.003-4.474,1.232-4.439,3.542c0.032,2.214,1.542,3.461,4.301,3.462
				c18.101,0.009,36.2,0.009,54.3,0c2.755-0.001,4.307-1.262,4.336-3.438c0.031-2.312-1.496-3.563-4.431-3.566
				C70.481,48.943,61.548,48.949,52.614,48.949z M52.377,69.932c-9.011,0-18.021-0.006-27.033,0.003
				c-2.955,0.003-4.472,1.235-4.436,3.545c0.035,2.214,1.544,3.458,4.305,3.459c18.1,0.009,36.199,0.009,54.3,0
				c2.756-0.001,4.306-1.263,4.333-3.442c0.028-2.312-1.499-3.559-4.436-3.562C70.399,69.925,61.389,69.932,52.377,69.932z"/>
		</g>
	</g>
</g>
</svg>
