<?xml version="1.0" encoding="utf-8"?>
<!-- Generator: Adobe Illustrator 16.0.0, SVG Export Plug-In . SVG Version: 6.00 Build 0)  -->
<!DOCTYPE svg PUBLIC "-//W3C//DTD SVG 1.1//EN" "http://www.w3.org/Graphics/SVG/1.1/DTD/svg11.dtd">
<svg version="1.1" id="Capa_1" xmlns="http://www.w3.org/2000/svg" xmlns:xlink="http://www.w3.org/1999/xlink" x="0px" y="0px"
	 width="445.994px" height="255.578px" viewBox="0 0 445.994 255.578" enable-background="new 0 0 445.994 255.578"
	 xml:space="preserve">
<g id="m27Vxq.tif">
	<g>
		<path fill-rule="evenodd" clip-rule="evenodd" d="M0,255.578c1.67-7.262,5.816-11.869,10.375-16.26
			c21.08-20.311,42.205-40.579,63.082-61.098c2.133-2.097,3.451-5.657,3.902-8.723c2.561-17.394-0.334-34.501-3.191-51.613
			c-2.713-16.249-5.332-32.519-7.6-48.833c-2.148-15.465,1.396-30.312,7.371-44.332C78.75,13.43,88.102,6.098,100.641,5.909
			c12.574-0.189,25.201,1.299,37.764,2.496c23.166,2.208,46.293,4.836,69.457,7.062c4.945,0.475,9.986,0.088,14.977-0.082
			c13.051-0.443,26.137-0.518,39.135-1.616c14.75-1.247,29.418-3.47,44.129-5.224c14.367-1.713,28.732-3.469,43.117-5.023
			c13.211-1.428,26.465-3.709,39.668-3.51c8.67,0.129,17.838,2.789,25.809,6.442c16.031,7.347,23.578,21.576,24.119,38.53
			c0.488,15.25-1.977,30.576-1.889,45.861c0.084,14.594,1.34,29.225,2.904,43.751c1.391,12.896,4.463,25.608,5.828,38.505
			c3.398,32.093-19.34,66.016-54.082,70.118c-11.686,1.379-23.598,1.938-35.348,1.457c-31.113-1.275-62.184-3.549-93.291-4.997
			c-29.043-1.353-57.883,2.059-86.752,4.567c-14.584,1.268-29.182,2.588-43.801,3.156c-6.049,0.234-12.246-1.086-18.244-2.332
			c-9.121-1.898-15.176-8.158-19.469-15.941c-2.51-4.549-5.209-4.885-9.717-3.246c-27.174,9.884-54.434,19.527-81.674,29.226
			C2.553,255.369,1.725,255.343,0,255.578z M19.338,242.298c0.287,0.52,0.574,1.04,0.861,1.561
			c14.551-4.775,29.098-9.563,43.654-14.322c14.523-4.747,28.689-10.674,43.412-14.763c0.283,0.776,0.568,1.554,0.852,2.33
			c-3.943,1.56-7.889,3.118-12.352,4.882c2.932,6.135,7.078,10.262,12.277,13.391c9.42,5.666,20.018,6.63,30.451,5.791
			c20.068-1.614,40.135-3.688,60.051-6.602c30.373-4.445,60.797-4.287,91.23-2.072c23.082,1.68,46.061,4.747,69.127,6.689
			c13.416,1.13,26.789,1.539,40.297-1.183c15.576-3.137,26.141-11.472,32.865-25.528c7.662-16.017,6.25-32.843,4.252-49.552
			c-2.529-21.162-6.43-42.188-5.348-63.635c0.73-14.474,2.15-28.932,2.338-43.409c0.225-17.491-7.754-31.038-22.426-40.472
			c-14.975-9.627-31.756-9.686-48.332-7.163c-23.35,3.554-46.408,9.003-69.754,12.586c-18.4,2.823-37.01,5.12-55.59,5.749
			c-29.941,1.012-59.305-5.019-88.748-9.697c-13.787-2.191-27.684-4.067-41.602-4.963c-12.609-0.812-22.193,5.16-27.531,16.842
			c-1.984,4.344-4.225,9.072-4.338,13.675c-0.33,13.269-0.523,26.654,0.842,39.827c2.869,27.654,7.732,55.124,6.582,83.096
			c-0.064,1.55,0.238,3.115,0.428,5.36c2.023-1.42,3.295-2.312,4.77-3.347c2.977,5.289,0.254,8.676-3.123,11.914
			c-20.318,19.482-40.635,38.968-60.932,58.473C22.066,239.185,20.738,240.781,19.338,242.298z"/>
		<path fill-rule="evenodd" clip-rule="evenodd" fill="#FFFFFF" d="M19.338,242.298c1.4-1.518,2.729-3.113,4.215-4.542
			c20.297-19.505,40.613-38.99,60.932-58.473c3.377-3.238,6.1-6.625,3.123-11.914c-1.475,1.035-2.746,1.927-4.77,3.347
			c-0.189-2.245-0.492-3.811-0.428-5.36c1.15-27.972-3.713-55.441-6.582-83.096c-1.365-13.173-1.172-26.559-0.842-39.827
			c0.113-4.603,2.354-9.331,4.338-13.675c5.338-11.682,14.922-17.654,27.531-16.842c13.918,0.896,27.814,2.771,41.602,4.963
			c29.443,4.679,58.807,10.709,88.748,9.697c18.58-0.629,37.189-2.926,55.59-5.749c23.346-3.583,46.404-9.032,69.754-12.586
			c16.576-2.522,33.357-2.464,48.332,7.163c14.672,9.434,22.65,22.98,22.426,40.472c-0.188,14.478-1.607,28.936-2.338,43.409
			c-1.082,21.447,2.818,42.473,5.348,63.635c1.998,16.709,3.41,33.535-4.252,49.552c-6.725,14.057-17.289,22.392-32.865,25.528
			c-13.508,2.722-26.881,2.312-40.297,1.183c-23.066-1.942-46.045-5.01-69.127-6.689c-30.434-2.215-60.857-2.373-91.23,2.072
			c-19.916,2.914-39.982,4.987-60.051,6.602c-10.434,0.839-21.031-0.125-30.451-5.791c-5.199-3.129-9.346-7.256-12.277-13.391
			c4.463-1.764,8.408-3.322,12.352-4.882c-0.283-0.776-0.568-1.554-0.852-2.33c-14.723,4.089-28.889,10.016-43.412,14.763
			c-14.557,4.759-29.104,9.547-43.654,14.322C19.912,243.338,19.625,242.818,19.338,242.298z"/>
	</g>
</g>
<g id="XzxByI.tif">
	<g>
		<path fill-rule="evenodd" clip-rule="evenodd" d="M281.328,125.268c-0.001,18.576-0.013,37.152,0.011,55.729
			c0.004,3.166-0.847,5.892-3.864,7.333c-3.191,1.524-6.166,1.102-9.016-1.204c-11.149-9.018-22.363-17.956-33.602-26.862
			c-0.79-0.626-1.975-1.043-2.982-1.056c-7.111-0.09-14.226-0.041-21.338-0.05c-5.135-0.006-8.217-3.086-8.22-8.234
			c-0.007-16.989-0.009-33.979,0-50.968c0.003-5.538,2.96-8.508,8.467-8.519c6.995-0.012,13.991,0.045,20.985-0.052
			c1.062-0.014,2.311-0.444,3.141-1.102c11.24-8.903,22.396-17.915,33.656-26.794c1.271-1.002,2.996-1.755,4.594-1.952
			c4.836-0.596,8.156,2.619,8.163,7.647c0.019,14.521,0.005,29.041,0.005,43.561C281.328,116.92,281.328,121.094,281.328,125.268z
			 M217.506,106.512c0,12.663,0,25.031,0,37.566c0.748,0,1.381,0,2.014,0c5.289,0.001,10.577,0.024,15.865-0.009
			c2.271-0.014,4.238,0.67,6.011,2.095c4.533,3.644,9.101,7.241,13.656,10.856c3.617,2.869,7.236,5.735,11.08,8.782
			c0-27.109,0-53.896,0-80.926c-0.642,0.472-1.108,0.792-1.551,1.143c-6.213,4.927-12.409,9.877-18.638,14.784
			c-8.233,6.488-5.912,5.663-16.38,5.706C225.581,106.527,221.6,106.512,217.506,106.512z"/>
		<path fill-rule="evenodd" clip-rule="evenodd" d="M321.926,125.309c3.348,3.33,6.576,6.483,9.735,9.703
			c2.648,2.701,3.059,6.193,1.194,9.182c-2.625,4.208-7.92,4.955-11.503,1.53c-2.931-2.801-5.759-5.708-8.61-8.591
			c-0.404-0.41-0.684-0.944-1.133-1.58c-3.531,3.564-6.722,6.848-9.983,10.059c-2.14,2.104-4.731,2.885-7.605,1.833
			c-2.857-1.046-4.653-3.142-5.094-6.208c-0.36-2.514,0.602-4.591,2.366-6.348c3.158-3.146,6.307-6.301,9.623-9.614
			c-3.193-3.176-6.363-6.212-9.381-9.396c-1.015-1.072-1.93-2.423-2.378-3.812c-1.013-3.14,0.538-6.514,3.479-8.282
			c2.856-1.718,6.234-1.409,8.768,1c2.936,2.794,5.768,5.698,8.611,8.588c0.448,0.455,0.72,1.083,1.147,1.746
			c3.515-3.548,6.6-6.692,9.72-9.803c3.34-3.329,7.666-3.467,10.801-0.383c3.157,3.105,3.051,7.551-0.304,10.942
			C328.323,118.964,325.229,122.015,321.926,125.309z"/>
		<path fill-rule="evenodd" clip-rule="evenodd" fill="#FFFFFF" d="M217.506,106.512c4.094,0,8.075,0.015,12.058-0.002
			c10.468-0.043,8.146,0.782,16.38-5.706c6.229-4.907,12.425-9.857,18.638-14.784c0.442-0.351,0.909-0.671,1.551-1.143
			c0,27.03,0,53.816,0,80.926c-3.844-3.047-7.463-5.913-11.08-8.782c-4.556-3.615-9.123-7.213-13.656-10.856
			c-1.772-1.425-3.739-2.108-6.011-2.095c-5.288,0.033-10.576,0.01-15.865,0.009c-0.633,0-1.266,0-2.014,0
			C217.506,131.543,217.506,119.175,217.506,106.512z"/>
	</g>
</g>
</svg>
