<?xml version="1.0" encoding="utf-8"?>
<!-- Generator: Adobe Illustrator 16.0.0, SVG Export Plug-In . SVG Version: 6.00 Build 0)  -->
<!DOCTYPE svg PUBLIC "-//W3C//DTD SVG 1.1//EN" "http://www.w3.org/Graphics/SVG/1.1/DTD/svg11.dtd">
<svg version="1.1" id="Capa_1" xmlns="http://www.w3.org/2000/svg" xmlns:xlink="http://www.w3.org/1999/xlink" x="0px" y="0px"
	 width="345.735px" height="306.356px" viewBox="0 0 345.735 306.356" enable-background="new 0 0 345.735 306.356"
	 xml:space="preserve">
<path fill="#636363" d="M24.406,107.912c-4.288,13.133-1.865,36.879,12.611,42.074c-6.487,8.836-8.765,20.111-6.292,32.111
	c2.254,10.938,14.117,23.959,26.396,26.722c-12.311,20.78,1.268,50.57,23.269,57.977c3.478,1.171,15.911-0.975,16.286,4.279
	c0.187,2.594,2.21,5.447,4.442,6.727c8.933,5.122,20.215,5.34,28.688-0.586c11.162,16.593,35.211,17.258,54.38,15.373
	c11.592-1.141,22.608-7.989,29.672-17.555c2.129,2.527,6.211,3.57,9.297,4.79c8.156,3.222,18.155,3.772,26.582,1.63
	c12.39-3.15,19.795-18.975,19.05-31.604c19.914,9.577,43.589-10.142,53.258-27.1c5.482-9.617,4.311-23.962-1.864-34.134
	c19.025-16.958,32.226-43.467,21.992-68.343c-9.512-23.123-43.952-31.577-66.074-25.351c8.938-13.698,5.179-32.022-5.725-44.297
	c-9.897-11.143-34.203-17.331-48.781-9.579c-2.889-17.775-19.455-33.82-36.132-38.712c-14.919-4.377-32.182-2.379-46.051,4.172
	c-7.018,3.315-17.414,13.53-16.729,22.474c-9.172-2.365-19.033-2.072-28.474,1.15C78.604,35.454,67.739,57.837,66.79,73.931
	C46.603,68.958,29.933,90.986,24.406,107.912z M107.005,33.847c8.74-0.559,16.677,0.289,24.064,5.309
	c5.08,3.452,7.795,6.876,14.028,6.627c1.427-0.057,2.125-1.714,1.146-2.765c-5.053-5.422-11.089-9.486-17.642-12.108
	c0.164-12.211,16.565-19.402,25.996-21.744c10.706-2.658,22.687-1.096,33.058,2.001c23.838,7.119,26.324,29.795,23.428,50.346
	c-0.479,3.405,3.703,5.612,5.742,2.421c3.238-5.065,4.83-10.318,5.148-15.534c12.854-7.535,33.08-1.188,42.617,8.009
	c13.692,13.205,6.521,27.983,3.609,43.471c-0.27,1.437,1.311,2.423,2.437,1.418c1.473-1.314,2.726-2.728,3.871-4.184
	c0.203,0.496,0.647,0.889,1.322,0.898c22.557,0.329,51.239,3.675,60.775,27.883c8.89,22.569-6.35,41.838-20.194,57.714
	c-4.23-4.487-9.812-7.325-16.491-7.148c-1.517,0.039-2.327,1.881-1.237,2.986c10.917,11.062,22.268,19.08,17.588,36.626
	c-5.251,19.692-29.961,31.073-48.326,28.572c-0.06-0.213-0.096-0.44-0.16-0.649c-0.859-2.744-5.082-3.006-5.811,0
	c-2.737,11.303-1.332,22.141-12.718,29.121c-5.893,3.611-14.831,1.906-21.111,0.666c-2.817-0.557-8.922-1.226-11.553-2.932
	c4.376-7.658,6.302-16.591,4.269-25.627c-0.329-1.464-2.725-1.92-3.374-0.44c-7.172,16.331-10.087,34.962-29.978,39.706
	c-20.418,4.871-49.043,4.242-58.772-17.652c-0.813-1.833-3.764-0.52-3.196,1.348c0.564,1.861,1.273,3.555,2.053,5.164
	c-8.575,0.268-20.887,4.66-23.995-6.637c-0.961-3.494-4.298-5.84-7.795-6.146c-15.337-1.349-26.26-3.749-32.853-19.576
	c-4.394-10.55-0.697-20.987-0.536-31.623c1.957-0.074,3.891-0.449,5.763-1.195c1.403-0.559,2.078-2.657,0.457-3.492
	c-10.878-5.605-20.903-6.293-28.254-17.802c-8.234-12.894-3.324-25.429,4.569-35.965c0.902-0.183,1.475-1.01,1.409-1.815
	c2.445-3.067,5.09-5.96,7.693-8.611c1.467-1.494-0.381-3.683-2.158-2.798c-4.062,2.022-7.573,4.519-10.552,7.376
	c-14.079-10.548-14.413-25.778-6.929-42.366c7.166-15.884,20.843-18.425,35.938-21.385c2.892-0.567,2.792-3.735,1.165-5.416
	C76.562,57.135,84.472,35.288,107.005,33.847z M107.005,33.847c8.74-0.559,16.677,0.289,24.064,5.309
	c5.08,3.452,7.795,6.876,14.028,6.627c1.427-0.057,2.125-1.714,1.146-2.765c-5.053-5.422-11.089-9.486-17.642-12.108
	c0.164-12.211,16.565-19.402,25.996-21.744c10.706-2.658,22.687-1.096,33.058,2.001c23.838,7.119,26.324,29.795,23.428,50.346
	c-0.479,3.405,3.703,5.612,5.742,2.421c3.238-5.065,4.83-10.318,5.148-15.534c12.854-7.535,33.08-1.188,42.617,8.009
	c13.692,13.205,6.521,27.983,3.609,43.471c-0.27,1.437,1.311,2.423,2.437,1.418c1.473-1.314,2.726-2.728,3.871-4.184
	c0.203,0.496,0.647,0.889,1.322,0.898c22.557,0.329,51.239,3.675,60.775,27.883c8.89,22.569-6.35,41.838-20.194,57.714
	c-4.23-4.487-9.812-7.325-16.491-7.148c-1.517,0.039-2.327,1.881-1.237,2.986c10.917,11.062,22.268,19.08,17.588,36.626
	c-5.251,19.692-29.961,31.073-48.326,28.572c-0.06-0.213-0.096-0.44-0.16-0.649c-0.859-2.744-5.082-3.006-5.811,0
	c-2.737,11.303-1.332,22.141-12.718,29.121c-5.893,3.611-14.831,1.906-21.111,0.666c-2.817-0.557-8.922-1.226-11.553-2.932
	c4.376-7.658,6.302-16.591,4.269-25.627c-0.329-1.464-2.725-1.92-3.374-0.44c-7.172,16.331-10.087,34.962-29.978,39.706
	c-20.418,4.871-49.043,4.242-58.772-17.652c-0.813-1.833-3.764-0.52-3.196,1.348c0.564,1.861,1.273,3.555,2.053,5.164
	c-8.575,0.268-20.887,4.66-23.995-6.637c-0.961-3.494-4.298-5.84-7.795-6.146c-15.337-1.349-26.26-3.749-32.853-19.576
	c-4.394-10.55-0.697-20.987-0.536-31.623c1.957-0.074,3.891-0.449,5.763-1.195c1.403-0.559,2.078-2.657,0.457-3.492
	c-10.878-5.605-20.903-6.293-28.254-17.802c-8.234-12.894-3.324-25.429,4.569-35.965c0.902-0.183,1.475-1.01,1.409-1.815
	c2.445-3.067,5.09-5.96,7.693-8.611c1.467-1.494-0.381-3.683-2.158-2.798c-4.062,2.022-7.573,4.519-10.552,7.376
	c-14.079-10.548-14.413-25.778-6.929-42.366c7.166-15.884,20.843-18.425,35.938-21.385c2.892-0.567,2.792-3.735,1.165-5.416
	C76.562,57.135,84.472,35.288,107.005,33.847z"/>
<g>
	<path fill="#FFFFFF" d="M77.381,121.65c-7.777,7.192-1.688,30.524,9.894,28.589c1.225-0.205,1.448-1.64,1.045-2.57
		c-0.814-1.876-2.476-3.101-3.708-4.729c-1.699-2.246-2.842-4.583-3.538-7.309c-0.927-3.629,0.362-6.54,1.234-9.594
		c2.841,1.643,6.152,2.301,9.822,1.314c1.431-0.384,1.699-2.399,0.41-3.138c-6.14-3.517-11.061-6.372-13.033-13.72
		c-1.652-6.158,2.616-19.849,10.325-20.054c0.889-0.024,1.735-0.924,1.406-1.845c-1.48-4.147-5.464-3.595-8.875-1.875
		c-5.686,2.866-8.887,11.267-9.89,17.047C71.488,109.445,73.448,116.615,77.381,121.65z"/>
	<path fill="#FFFFFF" d="M124.486,125.988c0.559,0.448,1.384,0.456,1.78-0.229c0.996-1.722,1.143-3.238,1.481-5.211
		c0.691-4.025,4.444-6.334,7.971-7.449c6.613-2.09,12.464,2.689,18.849,1.891c1.356-0.17,1.963-1.509,1.076-2.599
		c-2.678-3.289-7.188-4.955-11.895-5.4c2.045-1.553,3.84-3.217,6.568-4.06c3.804-1.176,7.551,0.394,11.381,0.271
		c0.998-0.032,1.445-1.005,1.062-1.852c-4.086-9.046-23.235-3.729-23.638,5.579c-2.868,0.196-5.611,0.807-7.849,1.75
		C125.739,111.013,117.994,120.792,124.486,125.988z"/>
	<path fill="#FFFFFF" d="M126.567,94.86c3.199,0.291,6.537-2.503,9.668-3.299c3.675-0.934,7.811,0.362,11.246-1.112
		c0.771-0.331,0.723-1.404,0.25-1.933c-2.05-2.289-5.577-2.367-8.721-2.02c3.643-10.685,17.779-14.382,28.048-14.553
		c15.592-0.258,21.072,12.368,22.445,25.303c0.118,1.111,1.526,1.645,2.173,0.588c1.675-2.735,2.287-5.575,2.154-8.379
		c9.28-0.031,17.172,4.396,22.509,12.486c6.341,9.611,3.492,20.392,4.823,30.943c0.195,1.55,2.152,2.355,3.078,0.834
		c12.447-20.445-7.479-52.092-31.108-48.251c-2.874-9.453-13.747-17.607-22.87-18.402c-10.283-0.896-38.478,5.18-35.419,20.088
		c-3.63,0.781-8.681,2.601-9.495,6.108C125.151,94.113,125.734,94.784,126.567,94.86z"/>
	<path fill="#FFFFFF" d="M204.438,152.552c4.04,4.741,10.189,11.776,5.225,18.011c-2.022,2.54-7.923,2.824-10.849,3.501
		c-3.029,0.701-5.983,1.71-8.63,3.328c-1.07,0.654-1.012,2.579,0.371,2.842c3.13,0.593,7.204,0.789,11.228,0.3
		c-0.681,2.998-2.528,5.504-5.155,7.42c-2.442,1.783-7.118,1.564-8.674,4.184c-0.29,0.491-0.281,1.111,0,1.603
		c2.585,4.515,9.771-0.228,12.254-2.513c3.086-2.84,4.675-7.064,4.752-11.227c5.025-1.127,9.535-3.524,11.438-7.846
		c3.879-8.807-2.716-17.143-8.614-22.947C205.579,147.041,202.483,150.259,204.438,152.552z"/>
	<path fill="#FFFFFF" d="M84.494,184.225c1.504,10.459,8.258,20.207,17.467,25.42c0.549,20.115,26.098,32.998,43.673,24.594
		c7.441,10.328,21.78,6.402,29.815-2.367c0.806-0.879,0.034-2.536-1.229-2.111c-6.833,2.301-19.393,9.718-24.64-1.488
		c-0.751-1.602-3.01-1.986-4.429-1.161c-8.643,5.022-17.072,3.653-25.965-0.127c-6.367-2.966-10.28-7.931-11.747-14.891
		c2.932,0.978,6.021,1.522,9.215,1.503c1.577-0.009,2.17-2.156,0.802-2.957c-10.312-6.035-20.033-10.819-24.686-22.727
		c-5.425-13.883,4.857-22.506,14.156-30.197c1.516-1.253,0.18-3.517-1.488-3.594C90.981,153.453,82.693,171.7,84.494,184.225z"/>
	<path fill="#FFFFFF" d="M240.059,225.71c-4.15,1.739-9.318,1.243-13.101,3.69c-0.889,0.574-1,1.968,0,2.517
		c8.662,4.759,26.363-2.856,24.335-13.952c4.876-1.355,9.644-4.465,11.986-7.377c4.374-5.442,5.45-15.88,0.15-21.183
		c1.769-1.046,3.479-2.179,5.103-3.314c9.853-6.894,12.803-12.646,12.484-24.499c-0.502-18.683-27.442-34.039-43.457-23.609
		c-1.441,0.939-0.549,3.359,1.197,2.842c14.411-4.264,35.442,3.606,36.386,20.768c1.041,18.938-18.485,23.141-32.845,27.01
		c-1.466,0.395-1.721,2.436-0.418,3.197c5.642,3.293,11.54,2.399,17.066-0.054c2.657,5.738,2.926,11.821-2.934,16.159
		c-5.097,3.773-11.79,1.559-16.755,4.67c-0.723,0.453-1.109,1.498-0.593,2.26c1.975,2.913,5.072,3.93,8.449,3.797
		C245.911,221.872,243.625,224.215,240.059,225.71z"/>
	<path fill="#636363" d="M15.784,44.117c6.148,5.327,12.977,10.83,20.495,13.996c2.763,1.164,4.099-2.688,2.616-4.494
		c-4.161-5.063-9.973-9.006-15.286-12.795c-6.027-4.299-11.188-9.472-16.99-13.984c-1.275-0.992-3.586-0.147-2.978,1.733
		C5.681,34.871,10.892,39.878,15.784,44.117z"/>
	<path fill="#636363" d="M25.527,68.612c3.073,1.203,4.409-3.757,1.36-4.935c-8.271-3.196-15.213-8.363-22.872-12.672
		c-0.964-0.542-2.289,0.592-1.595,1.596C7.88,60.5,16.796,65.193,25.527,68.612z"/>
	<path fill="#636363" d="M20.722,81.198c3.663,0.476,4.348-5.521,0.861-6.363c-3.266-0.787-6.523-1.67-9.824-2.294
		C8.453,71.916,4.865,71.034,1.65,72.39c-1.471,0.621-2.318,2.444-0.986,3.735C5.377,80.695,14.569,80.398,20.722,81.198z"/>
	<path fill="#636363" d="M33.256,255.033c-5.25-1.222-10.186,4.763-13.914,7.809c-5.124,4.187-11.836,8.581-14.205,15.007
		c-0.631,1.711,1.215,2.991,2.71,2.709c6.183-1.166,11.206-6.691,15.823-10.621c3.722-3.169,11.319-7.588,10.989-13.061
		C34.609,256.046,34.116,255.233,33.256,255.033z"/>
	<path fill="#636363" d="M29.459,280.284c2.729-0.404,4.784-3.769,6.438-5.761c1.979-2.382,4.249-4.839,5.482-7.71
		c0.516-1.204-0.614-2.787-1.951-1.951c-2.635,1.648-4.687,4.16-6.721,6.471c-1.817,2.064-4.973,4.757-4.93,7.671
		C27.792,279.944,28.61,280.41,29.459,280.284z"/>
	<path fill="#636363" d="M34.478,297.25c4.466-1.199,8.344-5.709,11.591-8.826c4.225-4.056,7.869-8.375,11.01-13.306
		c0.943-1.481-1.127-2.911-2.34-1.806c-3.777,3.439-7.395,6.992-10.993,10.623c-3.429,3.459-8.716,6.855-10.841,11.27
		C32.39,296.275,33.227,297.587,34.478,297.25z"/>
	<path fill="#636363" d="M267.044,288.793c1.196,4.808,6.205,8.88,9.515,12.357c2.248,2.363,7.362,7.793,10.597,3.754
		c0.518-0.646,0.576-1.422,0-2.062c-1.078-1.199-2.527-2.076-3.75-3.144c-1.625-1.419-3.045-3.108-4.604-4.603
		c-2.986-2.865-6.045-6.76-10.164-7.896C267.668,286.932,266.808,287.842,267.044,288.793z"/>
	<path fill="#636363" d="M278.769,281.885c1.912,1.552,5.938,4.346,8.266,2.222c0.338-0.308,0.425-0.802,0.324-1.229
		c-0.487-2.08-3.69-3.084-5.311-4.179c-2.191-1.481-4.045-3.599-5.542-5.76c-0.984-1.42-3.446-0.587-2.901,1.224
		C274.525,277.222,276.274,279.862,278.769,281.885z"/>
	<path fill="#636363" d="M301.716,274.379c-3.254-2.236-6.469-4.689-10.063-6.357c-1.761-0.816-3.681,1.297-2.158,2.799
		c2.634,2.599,5.799,4.643,8.822,6.755c2.829,1.978,6.089,4.628,9.552,5.224c0.994,0.172,1.922-0.782,1.353-1.76
		C307.589,278.232,304.361,276.2,301.716,274.379z"/>
	<path fill="#636363" d="M256.146,36.049c3.9,1.521,6.836-2.209,9.142-4.833c3.329-3.791,6.423-8.244,8.472-12.853
		c1.521-3.419-3.229-6.417-5.129-2.999c-1.74,3.129-3.288,6.348-5.129,9.423c-1.233,2.06-4.225,8.51-6.977,8.462
		C254.812,33.219,254.724,35.495,256.146,36.049z"/>
	<path fill="#636363" d="M272.704,40.276c2.215-0.427,4.204-1.974,5.77-3.525c1.669-1.653,3.297-3.709,3.478-6.115
		c0.178-2.378-2.76-3.038-4.272-1.769c-1.282,1.077-1.963,2.774-3.039,4.05c-1.2,1.423-2.713,2.548-3.921,3.949
		C269.354,38.448,270.663,40.669,272.704,40.276z"/>
	<path fill="#636363" d="M282.404,47.262c4.65-2.126,8.532-6.617,12.261-10.045c3.437-3.159,7.68-6.859,9.311-11.334
		c0.348-0.954-0.768-2.162-1.753-1.753c-4.437,1.844-7.905,6.058-11.157,9.488c-3.494,3.685-8.055,7.332-10.479,11.828
		C279.918,46.686,281.222,47.803,282.404,47.262z"/>
</g>
</svg>
