<?xml version="1.0" encoding="utf-8"?>
<!-- Generator: Adobe Illustrator 16.0.0, SVG Export Plug-In . SVG Version: 6.00 Build 0)  -->
<!DOCTYPE svg PUBLIC "-//W3C//DTD SVG 1.1//EN" "http://www.w3.org/Graphics/SVG/1.1/DTD/svg11.dtd">
<svg version="1.1" id="Capa_1" xmlns="http://www.w3.org/2000/svg" xmlns:xlink="http://www.w3.org/1999/xlink" x="0px" y="0px"
	 width="363.516px" height="255.824px" viewBox="0 0 363.516 255.824" enable-background="new 0 0 363.516 255.824"
	 xml:space="preserve">
<g>
	<path fill="#939393" stroke="#000000" stroke-miterlimit="10" d="M356.986,108.898c-9.182-20.492-33-38.73-56.291-36.844
		c-0.107-2.699-0.964-5.393-2.262-7.699c-2.206-3.924-7.76-6.922-12.761-6.861c6.847-16.143,2.357-34.631-13.364-46.383
		c-15.68-11.719-50.361-11.805-64.849,3.938c-6.368-9.209-21.093-14.418-31.062-14.547c-12.467-0.164-34.953,9.338-36.889,23.795
		c-7.051-3.867-15.235-6.26-22.305-7.646c-13.13-2.574-25.918,2.189-36.784,9.217C59.218,39.58,42.49,69.332,53.117,93.898
		c-3.113,1.162-5.512,3.201-6.861,6.021c-10.65-4.666-24.44-1.984-31.6,7.875c-9.51,13.096-7.916,30.73,2.709,42.613
		c-2.953,4.061-4.1,9.252-2.818,14.025c-6.853,4.604-12.161,12.711-13.6,20.156c-2.563,13.271,6.165,33.533,19.537,39.473
		c-5.173,8.252,0.336,19.73,8.756,25.32c11.354,7.537,33.406,6.984,41.26-5.295c5.769,5.66,13.24,9.65,20.997,10.936
		c11.896,1.969,25.653-5.932,26.841-18.117c3.762,2.293,8.154,3.752,12.571,4.18c3.984,0.387,11.007-0.764,14.925-3.859
		c4.836,6.27,13.256,10.299,21.117,11.027c7.21,0.668,14.078-2.453,19.465-7.436c2.182,6.576,10.245,9.84,16.718,9.594
		c6.775-0.256,11.209-4.615,14.28-9.936c1.046,1.389,2.154,2.746,3.326,4.078c4.25,4.832,13.912,3.734,19.359,4.744
		c11.466,2.123,23.069-1.406,32.068-8.375c13.283,11.943,31.721,18.453,48.321,11.059c12.941-5.766,21.609-14.992,25.848-28.594
		c2.383-7.648,1.742-17.068-3.542-22.904c12.803-9.793,19.901-30.547,6.924-42.127C367.263,149.287,364.964,126.705,356.986,108.898
		z"/>
	<path d="M56.145,130.191c1.319,0.99,2.703-1.076,1.688-2.188c-6.299-6.898-13.43,4.004-14.505,9.527
		c-0.78,4.01,0.198,7.877,2.538,11.027c-0.52-0.016-1.042,0.096-1.506,0.432c-3.48,2.512-5.052,6.82-4.76,11.055
		c0.115,1.688,1.045,3.037,2.699,3.545c2.292,0.707,6.02,0.406,7.749-1.396c0.807-0.84,0.601-2.127-0.354-2.746
		c-0.738-0.48-1.452-0.789-2.321-0.936c-0.111-0.018-0.229-0.094-0.345-0.15c0.228-2.07,1.003-3.891,1.781-5.949
		c0.116-0.309,0.162-0.619,0.154-0.922c2.632,1.584,6.192,2.025,8.398-0.242c0.601-0.617,0.649-1.68,0-2.291
		c-2.831-2.656-6.343-3.32-7.736-7.453c-0.698-2.068-0.192-4.354,0.378-6.367C50.512,133.348,53.201,127.977,56.145,130.191z"/>
	<path d="M88.163,83.867c-0.844-2.611,1.081-4.488,3.452-5.143c2.4-0.664,5.567,0.275,7.652-1.143
		c0.723-0.492,0.785-1.324,0.256-1.984c-1.332-1.658-4.057-1.855-6.057-1.984c-2.318-0.152-4.643,0.434-6.585,1.699
		c-3.341,2.176-5.164,6.795-2.804,10.277C85.439,87.598,88.98,86.398,88.163,83.867z"/>
	<path d="M184.745,79.879c2.354-4.115,6.038-6.178,10.602-3.584c0.429,0.244,0.797,0.578,1.178,0.895
		c0.212,0.846,0.89,1.572,1.758,1.781c1.074,1.352,1.972,2.879,2.765,4.295c1.074,1.92,1.42,3.273,3.68,3.758
		c0.668,0.145,1.506-0.07,1.828-0.744c1.564-3.27-1.182-6.391-3.054-9.047c-0.077-0.111-0.177-0.205-0.256-0.312
		c10.105-5.371,19.42-8.541,29.682,0.42c3.792,3.311,6.444,7.539,7.106,12.609c0.524,4.008-1.587,7-0.918,10.984
		c0.208,1.236,1.711,1.549,2.665,1.084c2.412-1.174,3.945-2.77,4.823-4.619c1.975,0.002,4.051-0.129,5.698,0.635
		c4.644,2.156,5.191,7.496,6.693,11.742c0.294,0.832,1.227,1.078,1.895,0.5c4.762-4.125,1.515-10.752-2.185-14.561
		c-2.031-2.092-4.855-3.424-7.706-3.867c-0.978-0.152-2.244-0.252-3.565-0.24c-0.763-7.73-7.539-16.854-12.084-20.66
		c-10.961-9.18-25.627-6.381-35.887,2.086c-1.549-1.15-3.296-2.016-5.218-2.463c-4.999-1.166-14.229,2.525-12.046,8.977
		C182.574,80.654,184.118,80.975,184.745,79.879z"/>
	<path d="M316.825,125.369c-0.687-4.09-2.97-8.273-5.584-10.6c-5.546-4.936-17.638-5.07-19.879,3.135
		c-0.273,1,0.672,1.947,1.673,1.674c4.506-1.234,9.467-3.684,13.707-0.311c2.062,1.641,2.897,4.061,2.949,6.604
		c0.052,2.492-1.449,3.451-2.734,5.262c-0.754,1.061-0.354,2.531,0.439,3.416c0.15,0.166,0.301,0.334,0.451,0.502
		c0.816,0.908,2.355,1.309,3.514,0.928c3.11-1.021,4.746-3.119,5.372-5.643c3.419-0.066,6.746,0.793,8.12,4.529
		c0.795,2.164-0.017,4.393-0.966,6.34c-0.825,1.691-2.481,2.629-2.994,4.422c-0.237,0.83,0.284,1.611,1.063,1.873
		c2.835,0.951,5.683-2.148,7.131-4.275c1.859-2.73,1.826-6.754,0.936-9.783C328.515,128.316,322.187,124.443,316.825,125.369z"/>
	<path d="M310.965,155.941c-1.657,0.391-1.144,2.666,0.379,2.799c8.847,0.768,13.572,8.098,11.413,16.494
		c-1.669,6.488-8.298,9.521-12.83,13.666c-1.078,0.986-0.16,2.555,1.1,2.654c10.021,0.789,17.792-9.787,18.328-18.91
		C329.908,163.234,320.332,153.729,310.965,155.941z"/>
	<path d="M112.483,155.729c-6.759,1.365-11.716,5.365-15.229,11.209c-1.727,2.873-3.213,7.131-2.346,10.48
		c-1.66,0.561-3.141,1.328-4.209,2.211c-5.479,4.521-7.803,12.924-3.522,18.992c1.126,1.596,3.674,0.654,3.197-1.348
		c-1.161-4.881-0.755-9.834,2.971-13.494c1.828-1.795,4.622-2.539,7.083-2.805c2.477-0.268,4.676,0.867,7.095,0.805
		c0.779-0.02,1.228-0.832,0.867-1.512c-1.444-2.719-4.483-3.777-7.737-3.797c0.074-0.52,0.155-1.102,0.288-1.795
		c0.972-5.066,4.216-8.898,8.517-11.537c10.619-6.52,18.501,4.078,23.729,11.467c0.592,0.836,2.21,0.928,2.428-0.316
		C137.633,162.742,122.677,153.666,112.483,155.729z"/>
	<path d="M252.393,156.146c-0.21-0.859-0.422-1.691-0.613-2.441c-1.237-4.859-5.276-10.02-10.142-11.652
		c-8.053-2.703-22.362-2.197-25.242,7.654c-0.394,1.346,1.54,2.668,2.489,1.451c4.747-6.078,17.007-7.645,22.971-2.355
		c3.222,2.857,3.882,8.166,4.117,12.139c0.2,3.387-0.407,5.465,2.285,7.738c0.82,0.693,1.742,0.66,2.565,0
		c2.414-1.936,2.727-5.094,2.356-8.295c3.194,0.434,6.399,0.887,8.497,3.721c1.051,1.42,1.242,3.428,0.979,5.129
		c-0.27,1.742-1.471,2.996-1.668,4.713c-0.078,0.682,0.533,1.324,1.142,1.498c2.465,0.711,4.991-1.805,5.674-4.047
		c0.912-3,0.417-5.797-0.958-8.566C264.431,157.973,257.901,155.502,252.393,156.146z"/>
	<path d="M171.572,119.951c0.709,0.344,1.786,0.107,1.951-0.793c1.518-8.279-8.727-16.051-16.174-15.936
		c-4.569,0.072-8.475,3.479-11.361,6.641c-2.238,2.451-6.024,6.766-4.022,10.18c0.64,1.09,2.501,1.545,3.376,0.436
		c0.066-0.084,0.133-0.168,0.198-0.25c0.561-0.711,0.661-1.383,0.313-2.205c0.834,0,1.499-0.467,1.953-1.52
		c1.052-1.352,2.161-2.648,3.314-3.912c2.75-3.01,6.554-4.75,10.497-2.947C166.241,111.756,167.152,117.807,171.572,119.951z
		 M143.583,117.152c0.002-0.008,0.004-0.016,0.006-0.025c0.008,0.006,0.013,0.006,0.02,0.01
		C143.599,117.143,143.593,117.148,143.583,117.152z"/>
	<path d="M274.269,198.133c-0.633,1.492,1.389,2.805,2.238,1.309c2.025-3.564,5.082,1.064,5.729,2.918
		c0.651,1.865,0.468,3.842-0.051,5.701c-0.601,2.156-1.469,4.973,1.51,5.373c0.808,0.107,1.511-0.523,1.938-1.113
		c2.951-4.076,1.684-9.93-1.102-13.74C282.125,195.281,276.287,193.379,274.269,198.133z"/>
	<path d="M206.327,179.654c-3.091-0.688-6.727,0.357-9.044,2.574c-3.548-2.816-8.225-4.678-11.622-5.035
		c-9.89-1.041-17.084,7.9-17.36,16.973c-0.035,1.156,1.811,1.434,2.036,0.275c1.409-7.23,8.654-13.234,16.188-11.768
		c6.992,1.359,7.593,7.811,11.425,12.246c1.242,1.436,3.271,0.453,3.844-1.016c1-2.557,0.631-4.965-0.531-7.123
		c1.346-1.221,2.961-1.602,5.062-0.6c2.713,1.297,3.465,4.924,6.341,5.861c0.692,0.227,1.327-0.16,1.719-0.699
		C217.765,186.688,210.311,180.543,206.327,179.654z"/>
</g>
</svg>
