<?xml version="1.0" encoding="utf-8"?>
<!-- Generator: Adobe Illustrator 21.1.0, SVG Export Plug-In . SVG Version: 6.00 Build 0)  -->
<svg version="1.1" id="Capa_1" xmlns="http://www.w3.org/2000/svg" xmlns:xlink="http://www.w3.org/1999/xlink" x="0px" y="0px"
	 viewBox="0 0 496 496" style="enable-background:new 0 0 496 496;" xml:space="preserve">
<style type="text/css">
	.st0{fill:#FFFFFF;}
</style>
<path class="st0" d="M16,16h136V0H0v152h16V16z"/>
<path class="st0" d="M48,152V48h104V32H32v120H48z"/>
<path class="st0" d="M480,480H344v16h152V344h-16V480z"/>
<path class="st0" d="M448,344v104H344v16h120V344H448z"/>
<path class="st0" d="M467.5,153.5L416,138v-12.2c14.5-10.1,24-26.9,24-45.9V56c0-30.9-25.1-56-56-56s-56,25.1-56,56v24
	c0,8.8,2.1,17.1,5.7,24.5l-13,10.1c-9.5-5.2-19.5-9.3-29.9-12.4L287.1,72h-78.1l-3.8,30.3c-10.4,3-20.4,7.2-29.9,12.4l-24.1-18.7
	l-55.2,55.2l18.8,24.1c-5.2,9.5-9.3,19.5-12.4,29.9L72,208.9v39.9C62.1,259,56,272.8,56,288v24c0,19,9.5,35.8,24,45.9V370
	l-51.5,15.4C11.5,390.6,0,406,0,423.8V496h224v-72h63.1l3.8-30.3c10.4-3.1,20.4-7.2,29.9-12.4l24.1,18.8l55.2-55.2l-18.8-24.1
	c5.2-9.5,9.3-19.5,12.4-29.9l30.3-3.8V264h72v-72.2C496,174,484.5,158.6,467.5,153.5z M400,140.7l-16,16l-16-16v-7
	c5.1,1.5,10.4,2.4,16,2.4s10.9-0.8,16-2.4V140.7z M344,56c0-22.1,17.9-40,40-40s40,17.9,40,40v24c0,22.1-17.9,40-40,40
	s-40-17.9-40-40V56z M115,219.7l1.3-5.3c3.2-12.6,8.2-24.6,14.8-35.7l2.8-4.7l-16.7-21.5l35.3-35.3l21.5,16.7l4.7-2.8
	c11.1-6.6,23.1-11.6,35.7-14.8l5.3-1.3l3.4-27h49.9l3.4,27l5.3,1.3c12.6,3.2,24.6,8.2,35.7,14.8l4.7,2.8l20.8-16.2
	c2.8,3,5.8,5.8,9.2,8.1V138L305.6,152c-17.4-10.4-37.2-16-57.6-16c-58.3,0-106.3,44.8-111.5,101.7c-7.4-3.6-15.7-5.7-24.5-5.7
	c-8.6,0-16.7,2-24,5.5v-14.4L115,219.7z M309.9,264c-7.1,27.9-32.3,48-61.9,48c-35.3,0-64-28.7-64-64s28.7-64,64-64
	c8.5,0,16.6,1.7,24.2,4.8c-0.1,1-0.2,2-0.2,3V264H309.9z M276.5,173.3c-9.1-3.4-18.8-5.3-28.5-5.3c-44.1,0-80,35.9-80,80
	s35.9,80,80,80c38.4,0,70.9-27,78.4-64h16.3c-7.7,45.5-47.7,80-94.6,80c-32.5,0-62.2-16.1-80-43.2V288c0-15.2-6.1-29-16-39.1
	c0-0.3,0-0.6,0-0.9c0-52.9,43.1-96,96-96c13.7,0,27,2.9,39.3,8.4C282.8,163.9,279.1,168.2,276.5,173.3z M72,312v-24
	c0-22.1,17.9-40,40-40s40,17.9,40,40v24c0,22.1-17.9,40-40,40S72,334.1,72,312z M112,368c5.6,0,10.9-0.8,16-2.4v7l-16,16l-16-16v-7
	C101.1,367.2,106.4,368,112,368z M208,480h-32v-56h-16v56H64v-56H48v56H16v-56.2c0-10.7,6.9-19.9,17.1-23L85.7,385l26.3,26.3
	l26.3-26.3l52.6,15.8c10.2,3.1,17.1,12.3,17.1,23V480z M408,272.9l-27,3.4l-1.3,5.3c-3.2,12.6-8.2,24.6-14.8,35.7L362,322l16.7,21.5
	l-35.3,35.3L322,362.1l-4.7,2.8c-11.1,6.6-23.1,11.6-35.7,14.8l-5.3,1.3l-3.4,27h-52.3c-4.5-10.6-13.5-19-25.2-22.5L144,370v-12.2
	c11.1-7.8,19.3-19.5,22.5-33.1c20.9,22.3,50.1,35.2,81.5,35.2c55.7,0,102.9-41.6,110.7-96H408V272.9z M480,248h-32v-56h-16v56h-96
	v-56h-16v56h-32v-56.2c0-10.7,6.9-19.9,17.1-23l52.6-15.8l26.3,26.3l26.3-26.3l52.6,15.8c10.2,3.1,17.1,12.3,17.1,23V248z"/>
<path class="st0" d="M168,0h16v16h-16V0z"/>
<path class="st0" d="M200,0h16v16h-16V0z"/>
<path class="st0" d="M0,168h16v16H0V168z"/>
<path class="st0" d="M0,200h16v16H0V200z"/>
<path class="st0" d="M480,312h16v16h-16V312z"/>
<path class="st0" d="M480,280h16v16h-16V280z"/>
<path class="st0" d="M312,480h16v16h-16V480z"/>
<path class="st0" d="M280,480h16v16h-16V480z"/>
</svg>
