<?xml version="1.0" encoding="utf-8"?>
<!-- Generator: Adobe Illustrator 21.1.0, SVG Export Plug-In . SVG Version: 6.00 Build 0)  -->
<svg version="1.1" id="Capa_1" xmlns="http://www.w3.org/2000/svg" xmlns:xlink="http://www.w3.org/1999/xlink" x="0px" y="0px"
	 viewBox="0 0 496 496" style="enable-background:new 0 0 496 496;" xml:space="preserve">
<style type="text/css">
	.st0{fill:#FFFFFF;}
</style>
<path class="st0" d="M252,304v-8h8c13.2,0,24-10.8,24-24v-8c0-13.2-10.8-24-24-24h-32c-4.4,0-8-3.6-8-8v-8c0-4.4,3.6-8,8-8h32
	c4.4,0,8,3.6,8,8h16c0-13.2-10.8-24-24-24h-8v-8h-16v8h-8c-13.2,0-24,10.8-24,24v8c0,13.2,10.8,24,24,24h32c4.4,0,8,3.6,8,8v8
	c0,4.4-3.6,8-8,8h-32c-4.4,0-8-3.6-8-8h-16c0,13.2,10.8,24,24,24h8v8H252z"/>
<path class="st0" d="M36.7,231.4L36,240h136.1l1.3-6.4c5.8-28.4,27.8-50.4,56.1-56.1l6.4-1.3V40l-8.6,0.7
	c-31,2.5-60.9,11.9-87.6,27.4c0.1-1.4,0.2-2.7,0.2-4.1V48c0-26.5-21.5-48-48-48S44,21.5,44,48v16c0,14.2,6.2,26.9,16,35.7v6.3
	l-32.8,9.4C13.5,119.2,4,131.9,4,146.1V208h36.1C38.6,215.8,37.3,223.6,36.7,231.4z M53.5,224c0.7-5.4,1.7-10.7,2.8-16h109.5
	c-2.6,5.1-4.9,10.4-6.4,16H53.5z M220,57.5v105.8c-15.6,4.4-29.3,13-40,24.4v-41.6c0-14.2-9.5-26.9-23.2-30.8L124,106v-6.3
	c1.9-1.7,3.7-3.6,5.4-5.6C156,74.2,187.2,61.6,220,57.5z M92,120c-8.5,0-14-7.1-16-10.2v-0.6c5,1.8,10.4,2.8,16,2.8s11-1,16-2.8v0.6
	C106,112.9,100.5,120,92,120z M60,48c0-17.6,14.4-32,32-32s32,14.4,32,32v16c0,17.6-14.4,32-32,32S60,81.6,60,64V48z M20,146.1
	c0-7.1,4.8-13.4,11.6-15.4l33-9.4c4.6,6,13.7,14.7,27.4,14.7s22.8-8.6,27.4-14.7l33,9.4c6.8,2,11.6,8.3,11.6,15.4V192H20V146.1z"/>
<path class="st0" d="M173.5,262.4l-1.3-6.4H36l0.7,8.6C44.8,367,125,447.2,227.4,455.3l8.6,0.7V319.8l-6.4-1.3
	C201.2,312.8,179.2,290.8,173.5,262.4z M220,438.5c-87.5-10.8-155.7-79-166.5-166.5h105.8c8.3,29.4,31.2,52.4,60.7,60.7V438.5z"/>
<path class="st0" d="M314.5,233.6l1.3,6.4H452l-0.7-8.6c-0.6-7.9-1.9-15.6-3.4-23.4H484v-61.9c0-14.2-9.5-26.9-23.2-30.8L428,106
	v-6.3c9.8-8.8,16-21.5,16-35.7V48c0-26.5-21.5-48-48-48s-48,21.5-48,48v16c0,1.4,0.1,2.8,0.2,4.1c-26.7-15.5-56.5-25-87.6-27.4
	L252,40v136.1l6.4,1.3C286.8,183.2,308.8,205.2,314.5,233.6z M434.5,224H328.7c-1.6-5.6-3.9-10.9-6.4-16h109.5
	C432.8,213.3,433.8,218.6,434.5,224z M456.4,130.7c6.8,2,11.6,8.3,11.6,15.4V192H324v-45.9c0-7.1,4.8-13.4,11.6-15.4l33-9.4
	c4.6,6,13.7,14.7,27.4,14.7s22.8-8.6,27.4-14.7L456.4,130.7z M412,109.8c-2,3.1-7.5,10.2-16,10.2s-14-7.1-16-10.2v-0.6
	c5,1.8,10.4,2.8,16,2.8s11-1,16-2.8V109.8z M364,48c0-17.6,14.4-32,32-32s32,14.4,32,32v16c0,17.6-14.4,32-32,32s-32-14.4-32-32V48z
	 M268,57.5c32.9,4.1,64,16.7,90.6,36.5c1.6,2,3.4,3.9,5.4,5.6v6.3l-32.8,9.4c-13.7,3.9-23.2,16.6-23.2,30.8v41.6
	c-10.7-11.4-24.4-20-40-24.4V57.5z"/>
<path class="st0" d="M108,336h16v16h-16V336z"/>
<path class="st0" d="M140,336h16v16h-16V336z"/>
<path class="st0" d="M172,336h16v16h-16V336z"/>
<path class="st0" d="M140,368h16v16h-16V368z"/>
<path class="st0" d="M172,368h16v16h-16V368z"/>
<path class="st0" d="M468.8,403.3L436,394v-6.3c9.8-8.8,16-21.5,16-35.7v-16c0-10.4-3.4-20-9-27.8c4.3-14.2,7.1-28.8,8.3-43.5
	l0.7-8.6H315.8l-1.3,6.4c-5.8,28.4-27.8,50.4-56.1,56.1l-6.4,1.3V456l8.6-0.7c19-1.5,37.6-5.7,55.4-12.3v53h176v-61.9
	C492,419.9,482.5,407.2,468.8,403.3z M404,408c-8.5,0-14-7.1-16-10.2v-0.6c5,1.8,10.4,2.8,16,2.8s11-1,16-2.8v0.6
	C418,400.9,412.5,408,404,408z M436,352c0,17.6-14.4,32-32,32s-32-14.4-32-32v-16c0-17.6,14.4-32,32-32s32,14.4,32,32V352z
	 M268,332.7c29.4-8.3,52.4-31.2,60.7-60.7h105.8c-1,8-2.7,15.8-4.7,23.6c-7.5-4.8-16.3-7.6-25.8-7.6c-26.5,0-48,21.5-48,48v16
	c0,14.2,6.2,26.9,16,35.7v6.3l-32.8,9.4c-10.8,3.1-18.9,11.6-21.9,22c-15.8,6.6-32.3,11-49.3,13.1L268,332.7L268,332.7z M476,480
	H332v-45.9c0-7.1,4.8-13.4,11.6-15.4l33-9.4c4.6,6,13.7,14.7,27.4,14.7s22.8-8.6,27.4-14.7l33,9.4c6.8,2,11.6,8.3,11.6,15.4V480z"/>
</svg>
