<?xml version="1.0" encoding="utf-8"?>
<!-- Generator: Adobe Illustrator 21.1.0, SVG Export Plug-In . SVG Version: 6.00 Build 0)  -->
<svg version="1.1" id="Capa_1" xmlns="http://www.w3.org/2000/svg" xmlns:xlink="http://www.w3.org/1999/xlink" x="0px" y="0px"
	 viewBox="0 0 512 512" style="enable-background:new 0 0 512 512;" xml:space="preserve">
<style type="text/css">
	.st0{fill:#FFFFFF;}
</style>
<g>
	<g>
		<path class="st0" d="M502,458.3c-5.5,0-10,4.5-10,10V492h-49.2v-39c0-5.5-4.5-10-10-10s-10,4.5-10,10v39H266.2v-47.4h130.1
			c24.6,0,44.6-20,44.6-44.6s-20-44.6-44.6-44.6H290.6c-5.5,0-10,4.5-10,10s4.5,10,10,10h105.7c13.6,0,24.6,11,24.6,24.6
			c0,13.6-11,24.6-24.6,24.6H256.2c0,0,0,0,0,0c0,0,0,0,0,0c0,0,0,0-0.1,0c-0.2,0-0.4,0-0.5,0c-5.2,0.3-9.4,4.7-9.4,10V472
			c-0.2,0.7-0.3,1.5-0.3,2.3V492H89.2v-39c0-5.5-4.5-10-10-10s-10,4.5-10,10v39H20V367.9c0-32.3,24.9-58.9,56.5-61.6
			c-4.6,7-7.3,15.4-7.3,24.4c0,24.6,20,44.6,44.6,44.6h106.6c5.5,0,10-4.5,10-10s-4.5-10-10-10H113.9c-13.6,0-24.6-11-24.6-24.6
			c0-13.6,11-24.6,24.6-24.6h88.9h227.4c34.1,0,61.8,27.7,61.8,61.8v25.5c0,5.5,4.5,10,10,10s10-4.5,10-10v-25.5h0
			c0-45.1-36.7-81.8-81.8-81.8h-37.1c13.6-13,22-31.3,22-51.6v-11.2c0-39.5-32.1-71.5-71.5-71.5S272,183.9,272,223.3v11.2
			c0,20.2,8.5,38.5,22,51.6h-76.8c13.6-13,22-31.3,22-51.6v-11.2c0-39.5-32.1-71.5-71.5-71.5s-71.5,32.1-71.5,71.5v11.2
			c0,20.2,8.5,38.5,22,51.6h-4.3H81.8C36.7,286.1,0,322.8,0,367.9V502c0,5.5,4.5,10,10,10h492c5.5,0,10-4.5,10-10v-33.7
			C512,462.7,507.5,458.3,502,458.3z M292,234.5v-11.2c0-28.4,23.1-51.6,51.6-51.6s51.6,23.1,51.6,51.6v11.2
			c0,28.4-23.1,51.6-51.6,51.6S292,262.9,292,234.5z M116.2,234.5v-11.2c0-28.4,23.1-51.6,51.6-51.6s51.6,23.1,51.6,51.6v11.2
			c0,28.4-23.1,51.6-51.6,51.6S116.2,262.9,116.2,234.5z"/>
	</g>
</g>
<g>
	<g>
		<path class="st0" d="M509.1,422.9c-1.9-1.9-4.4-2.9-7.1-2.9c-2.6,0-5.2,1.1-7.1,2.9c-1.9,1.9-2.9,4.4-2.9,7.1
			c0,2.6,1.1,5.2,2.9,7.1c1.9,1.9,4.4,2.9,7.1,2.9c2.6,0,5.2-1.1,7.1-2.9c1.9-1.9,2.9-4.4,2.9-7.1
			C512,427.3,510.9,424.8,509.1,422.9z"/>
	</g>
</g>
<g>
	<g>
		<path class="st0" d="M365.5,0h-219C113.1,0,86,27.2,86,60.5s27.1,60.5,60.5,60.5h83l17.9,30.9c1.8,3.1,5.1,5,8.7,5s6.9-1.9,8.7-5
			l17.9-30.9h83c33.4,0,60.5-27.1,60.5-60.5S398.8,0,365.5,0z M365.5,101h-88.7c-3.6,0-6.9,1.9-8.7,5L256,127L243.9,106
			c-1.8-3.1-5.1-5-8.7-5h-88.7c-22.3,0-40.5-18.2-40.5-40.5S124.2,20,146.5,20h219c22.3,0,40.5,18.2,40.5,40.5
			C406,82.8,387.8,101,365.5,101z"/>
	</g>
</g>
<g>
	<g>
		<path class="st0" d="M201.5,57c-1.9-1.9-4.4-2.9-7.1-2.9s-5.2,1.1-7.1,2.9c-1.9,1.9-2.9,4.4-2.9,7.1c0,2.6,1.1,5.2,2.9,7.1
			c1.9,1.9,4.4,2.9,7.1,2.9c2.6,0,5.2-1.1,7.1-2.9c1.9-1.9,2.9-4.4,2.9-7.1C204.4,61.4,203.4,58.8,201.5,57z"/>
	</g>
</g>
<g>
	<g>
		<path class="st0" d="M263,57c-1.9-1.9-4.4-2.9-7.1-2.9s-5.2,1.1-7.1,2.9S246,61.4,246,64c0,2.6,1.1,5.2,2.9,7.1
			c1.9,1.9,4.4,2.9,7.1,2.9s5.2-1.1,7.1-2.9c1.9-1.9,2.9-4.4,2.9-7.1S264.9,58.8,263,57z"/>
	</g>
</g>
<g>
	<g>
		<path class="st0" d="M324.6,57c-1.9-1.9-4.4-2.9-7.1-2.9c-2.6,0-5.2,1.1-7.1,2.9c-1.9,1.9-2.9,4.4-2.9,7.1c0,2.6,1.1,5.2,2.9,7.1
			c1.9,1.9,4.4,2.9,7.1,2.9c2.6,0,5.2-1.1,7.1-2.9c1.9-1.9,2.9-4.4,2.9-7.1C327.5,61.4,326.5,58.8,324.6,57z"/>
	</g>
</g>
<g>
	<g>
		<path class="st0" d="M263,358.2c-1.9-1.9-4.4-2.9-7.1-2.9c-2.6,0-5.2,1.1-7.1,2.9c-1.9,1.9-2.9,4.4-2.9,7.1c0,2.6,1.1,5.2,2.9,7.1
			c1.9,1.9,4.4,2.9,7.1,2.9c2.6,0,5.2-1.1,7.1-2.9c1.9-1.9,2.9-4.4,2.9-7.1C265.9,362.7,264.8,360.1,263,358.2z"/>
	</g>
</g>
</svg>
