<?xml version="1.0" encoding="iso-8859-1"?>
<!-- Generator: Adobe Illustrator 19.0.0, SVG Export Plug-In . SVG Version: 6.00 Build 0)  -->
<svg xmlns="http://www.w3.org/2000/svg" xmlns:xlink="http://www.w3.org/1999/xlink" version="1.1" id="Layer_1" x="0px" y="0px" viewBox="0 0 512 512" style="enable-background:new 0 0 512 512;" xml:space="preserve" width="512px" height="512px">
<g>
	<g>
		<path d="M236.311,228.006L40.267,31.961H115.2c6.283,0,11.378-5.094,11.378-11.378S121.483,9.206,115.2,9.206H12.8    C6.517,9.206,0,12.878,0,19.161v102.4c0,6.283,5.094,11.378,11.378,11.378c6.283,0,11.378-5.094,11.378-11.378V46.628    L216.178,240.05v245.6c0,6.283,5.094,11.378,11.378,11.378s11.378-5.094,11.378-11.378V235.339    C238.933,232.322,238.444,230.139,236.311,228.006z" fill="#FFFFFF"/>
	</g>
</g>
<g>
	<g>
		<path d="M502.044,9.206h-102.4c-6.283,0-11.378,5.094-11.378,11.378s5.094,11.378,11.378,11.378h80.7L277.111,233.772    c-2.133,2.133-4.045,4.317-4.045,7.333v250.311c0,6.283,5.094,11.378,11.378,11.378s11.378-5.094,11.378-11.378v-245.6    L489.244,52.395v69.167c0,6.283,5.094,11.378,11.378,11.378S512,127.845,512,121.561v-102.4    C512,12.878,508.328,9.206,502.044,9.206z" fill="#FFFFFF"/>
	</g>
</g>
<g>
</g>
<g>
</g>
<g>
</g>
<g>
</g>
<g>
</g>
<g>
</g>
<g>
</g>
<g>
</g>
<g>
</g>
<g>
</g>
<g>
</g>
<g>
</g>
<g>
</g>
<g>
</g>
<g>
</g>
</svg>
