<?xml version="1.0" encoding="utf-8"?>
<!-- Generator: Adobe Illustrator 21.1.0, SVG Export Plug-In . SVG Version: 6.00 Build 0)  -->
<svg version="1.1" id="Capa_1" xmlns="http://www.w3.org/2000/svg" xmlns:xlink="http://www.w3.org/1999/xlink" x="0px" y="0px"
	 viewBox="0 0 480 480" style="enable-background:new 0 0 480 480;" xml:space="preserve">
<style type="text/css">
	.st0{fill:#333333;}
</style>
<path class="st0" d="M88,448c2.4,0,4.7-1.1,6.2-3c3.4-4.2,81.8-102.5,81.8-149c0-48.6-39.4-88-88-88S0,247.4,0,296
	c0,46.5,78.4,144.8,81.8,149C83.3,446.9,85.6,448,88,448z M88,224c39.7,0,72,32.3,72,72c0,31-47.3,98.9-72,131
	c-24.7-32.1-72-100-72-131C16,256.3,48.3,224,88,224z"/>
<path class="st0" d="M120,288c0-17.7-14.3-32-32-32s-32,14.3-32,32s14.3,32,32,32S120,305.7,120,288z M72,288c0-8.8,7.2-16,16-16
	s16,7.2,16,16s-7.2,16-16,16S72,296.8,72,288z"/>
<path class="st0" d="M416,168c2.3,0,4.5-1,6.1-2.8C428,158.3,480,96.9,480,64c0-35.3-28.7-64-64-64s-64,28.7-64,64
	c0,32.9,52,94.3,57.9,101.2C411.5,167,413.7,168,416,168z M416,16c26.5,0,48,21.5,48,48c0,20.3-30.5,62-48,83.5
	C398.5,126,368,84.3,368,64C368,37.5,389.5,16,416,16z"/>
<path class="st0" d="M440,56c0-13.3-10.7-24-24-24s-24,10.7-24,24s10.7,24,24,24S440,69.3,440,56z M408,56c0-4.4,3.6-8,8-8
	s8,3.6,8,8s-3.6,8-8,8S408,60.4,408,56z"/>
<path class="st0" d="M408,200h8c4.4,0,8-3.6,8-8s-3.6-8-8-8h-8c-4.4,0-8,3.6-8,8S403.6,200,408,200z"/>
<path class="st0" d="M304,248h16.2c4.4,0,8-3.6,8-8s-3.6-8-8-8h-16.3c-2.1,0-4.1,0.9-5.6,2.4s-2.3,3.5-2.3,5.6
	C296,244.4,299.6,248,304,248z"/>
<path class="st0" d="M393.7,240c0,4.4,3.6,8,8,8H418c4.4,0,8-3.6,8-8s-3.6-8-8-8h-16.3C397.3,232,393.7,235.6,393.7,240z"/>
<path class="st0" d="M359.1,200h16.3c4.4,0,8-3.6,8-8s-3.6-8-8-8h-16.3c-4.4,0-8,3.6-8,8S354.7,200,359.1,200z"/>
<path class="st0" d="M145.7,464h-16.3c-4.4,0-8,3.6-8,8s3.6,8,8,8h16.3c4.4,0,8-3.6,8-8S150.1,464,145.7,464z"/>
<path class="st0" d="M280.5,229c0.6,0,1.1-0.1,1.7-0.2c4.3-0.9,7.1-5.1,6.2-9.5c-0.2-1.1-0.3-2.2-0.3-3.3c0-2.5,0.6-5,1.7-7.3
	c2-3.9,0.4-8.8-3.5-10.8c-3.9-2-8.8-0.4-10.8,3.5c-3.3,6.5-4.3,14-2.8,21.1C273.5,226.3,276.7,229,280.5,229z"/>
<path class="st0" d="M352.8,248h16.3c4.4,0,8-3.6,8-8s-3.6-8-8-8h-16.3c-4.4,0-8,3.6-8,8S348.4,248,352.8,248z"/>
<path class="st0" d="M310.2,200h16.3c4.4,0,8-3.6,8-8s-3.6-8-8-8h-16.3c-4.4,0-8,3.6-8,8S305.8,200,310.2,200z"/>
<path class="st0" d="M231.1,339c0.6,0.2,1.3,0.2,1.9,0.2c3.7,0,6.9-2.5,7.8-6.1c1-4.1,3-7.9,5.7-11.2c1.9-2.2,2.5-5.2,1.5-8
	c-1-2.7-3.3-4.7-6.2-5.2c-2.9-0.5-5.8,0.6-7.6,2.9c-4.3,5.1-7.4,11.1-9,17.6c-0.5,2.1-0.2,4.2,0.9,6.1
	C227.3,337.2,229.1,338.5,231.1,339z"/>
<path class="st0" d="M389.2,463.7c-1.7,0.2-3.4,0.3-5.2,0.3h-10.1c-4.4,0-8,3.6-8,8s3.6,8,8,8H384c2.4,0,4.8-0.2,7.2-0.5
	c4.4-0.6,7.5-4.6,6.9-9C397.5,466.2,393.5,463.1,389.2,463.7L389.2,463.7z"/>
<path class="st0" d="M400.3,370.4c-5.3-1.6-10.8-2.4-16.3-2.4h-2.1c-4.4,0-8,3.6-8,8s3.6,8,8,8h2.1c4,0,7.9,0.6,11.7,1.7
	c0.8,0.2,1.5,0.4,2.3,0.4c4,0,7.3-2.9,7.9-6.8C406.5,375.3,404.1,371.6,400.3,370.4L400.3,370.4z"/>
<path class="st0" d="M383.3,312c4.4,0,8-3.6,8-8s-3.6-8-8-8H367c-4.4,0-8,3.6-8,8s3.6,8,8,8H383.3z"/>
<path class="st0" d="M431.1,436.4c-4-1.8-8.8,0-10.6,4c-1.9,4.1-4.4,7.9-7.6,11.2c-2.1,2.1-2.8,5.1-2,7.8c0.8,2.8,3,4.9,5.9,5.6
	c2.8,0.7,5.8-0.2,7.7-2.4c4.4-4.6,8-9.9,10.6-15.7C436.9,442.9,435.1,438.2,431.1,436.4z"/>
<path class="st0" d="M473,273.4c-2-0.6-4.2-0.4-6.1,0.6c-1.9,1-3.3,2.7-3.9,4.8c-1.2,3.9-3.3,7.5-6.2,10.4
	c-3.2,3.1-3.2,8.2-0.1,11.3s8.2,3.2,11.3,0.1c4.9-4.8,8.5-10.7,10.4-17.3c0.6-2,0.4-4.2-0.6-6.1C476.7,275.4,475,274,473,273.4z"/>
<path class="st0" d="M463.8,258.6c3.2,0,6-1.9,7.3-4.7c1.3-2.9,0.8-6.3-1.4-8.6c-4.6-5.1-10.3-8.9-16.8-11.1
	c-4.2-1.4-8.7,0.8-10.2,5s0.8,8.7,5,10.2c3.9,1.3,7.3,3.6,10.1,6.7C459.4,257.7,461.6,258.6,463.8,258.6z"/>
<path class="st0" d="M349.3,368H333c-4.4,0-8,3.6-8,8s3.6,8,8,8h16.3c4.4,0,8-3.6,8-8S353.7,368,349.3,368z"/>
<path class="st0" d="M432.2,296h-16.3c-4.4,0-8,3.6-8,8s3.6,8,8,8h16.3c4.4,0,8-3.6,8-8S436.6,296,432.2,296z"/>
<path class="st0" d="M194.6,464h-16.3c-4.4,0-8,3.6-8,8s3.6,8,8,8h16.3c4.4,0,8-3.6,8-8S199,464,194.6,464z"/>
<path class="st0" d="M430.3,392.6c-2.5-3.7-7.5-4.6-11.1-2.1c-3.7,2.5-4.6,7.5-2.1,11.1c2.6,3.7,4.4,7.9,5.6,12.3
	c0.6,2.9,2.8,5.2,5.6,6c2.8,0.8,5.8,0,7.9-2c2.1-2.1,2.8-5.1,2-7.9C436.6,403.7,433.9,397.8,430.3,392.6z"/>
<path class="st0" d="M255.6,365.1c-3.8-1.9-7.1-4.6-9.7-8c-2.7-3.5-7.7-4.1-11.2-1.4c-3.5,2.7-4.1,7.7-1.4,11.2
	c4.1,5.3,9.3,9.5,15.3,12.5c3.9,1.8,8.6,0.2,10.6-3.7C261,371.9,259.5,367.1,255.6,365.1z"/>
<path class="st0" d="M243.5,464h-16.3c-4.4,0-8,3.6-8,8s3.6,8,8,8h16.3c4.4,0,8-3.6,8-8S247.9,464,243.5,464z"/>
<path class="st0" d="M341.3,464H325c-4.4,0-8,3.6-8,8s3.6,8,8,8h16.3c4.4,0,8-3.6,8-8S345.7,464,341.3,464z"/>
<path class="st0" d="M285.5,312c4.4,0,8-3.6,8-8s-3.6-8-8-8h-16.3c-4.4,0-8,3.6-8,8s3.6,8,8,8H285.5z"/>
<path class="st0" d="M334.4,312c4.4,0,8-3.6,8-8s-3.6-8-8-8h-16.3c-4.4,0-8,3.6-8,8s3.6,8,8,8H334.4z"/>
<path class="st0" d="M300.4,368h-16.3c-4.4,0-8,3.6-8,8s3.6,8,8,8h16.3c4.4,0,8-3.6,8-8S304.8,368,300.4,368z"/>
<path class="st0" d="M292.4,464h-16.3c-4.4,0-8,3.6-8,8s3.6,8,8,8h16.3c4.4,0,8-3.6,8-8S296.9,464,292.4,464z"/>
<path class="st0" d="M96,464h-8c-4.4,0-8,3.6-8,8s3.6,8,8,8h8c4.4,0,8-3.6,8-8S100.4,464,96,464z"/>
</svg>
