<?xml version="1.0" encoding="utf-8"?>
<!-- Generator: Adobe Illustrator 21.1.0, SVG Export Plug-In . SVG Version: 6.00 Build 0)  -->
<svg version="1.1" id="Capa_1" xmlns="http://www.w3.org/2000/svg" xmlns:xlink="http://www.w3.org/1999/xlink" x="0px" y="0px"
	 viewBox="0 0 414.3 414.3" style="enable-background:new 0 0 414.3 414.3;" xml:space="preserve">
<style type="text/css">
	.st0{fill:#333333;}
</style>
<g>
	<g>
		<path class="st0" d="M342.8,129l69.1-69.1c3.1-3.1,3.2-8.2,0.1-11.3c-1.4-1.5-3.4-2.3-5.4-2.4l0.2,0.5l-37.6-1.3l-1.3-37.6
			c-0.1-4.4-3.8-7.9-8.3-7.7c-2,0.1-4,0.9-5.4,2.4l-69,68.7c-1.6,1.6-2.4,3.7-2.3,5.9v8c-82.1-56.5-194.5-35.8-251,46.2
			S-4,325.8,78.1,382.3c82.1,56.5,194.5,35.8,251-46.2c42.5-61.7,42.5-143.1,0-204.8h8C339.3,131.3,341.3,130.5,342.8,129z
			 M345.2,233.8c0.1,90.9-73.5,164.7-164.4,164.9S16,325.2,15.9,234.2C15.8,143.3,89.4,69.5,180.3,69.4
			c37.6-0.1,74.2,12.8,103.5,36.4l0.4,13.4l-32,32c-45.5-39.9-114.8-35.3-154.7,10.2S62.2,276.1,107.8,316s114.8,35.3,154.7-10.2
			c35.8-40.9,36.3-101.9,1-143.3l32-32l13.2,0.5C332.2,160.1,345.1,196.4,345.2,233.8z M175.4,239.2c3.1,3.1,8.2,3.1,11.3,0l16-16
			c1.6,3.2,2.4,6.7,2.4,10.3c0,13.3-10.7,24-24,24s-24-10.7-24-24s10.7-24,24-24c3.6,0,7.1,0.8,10.3,2.4l-16,16
			C172.3,231,172.3,236.1,175.4,239.2z M203.1,200.1c-18.4-12.2-43.2-7.1-55.4,11.3s-7.1,43.2,11.3,55.4s43.2,7.1,55.4-11.3
			c8.9-13.4,8.9-30.8,0-44.2l37.9-37.9c33.2,39.5,28.2,98.4-11.3,131.7s-98.4,28.2-131.7-11.3s-28.2-98.4,11.3-131.7
			c34.8-29.3,85.6-29.3,120.4,0L203.1,200.1z M300.4,114.2l-1.1-34.1l53.6-53.6l0.9,26.6c0,4.4,3.6,8,8,8l26.6,0.9l-53.9,53.3
			L300.4,114.2z"/>
	</g>
</g>
</svg>
