<?xml version="1.0" encoding="utf-8"?>
<!-- Generator: Adobe Illustrator 23.0.0, SVG Export Plug-In . SVG Version: 6.00 Build 0)  -->
<svg version="1.1" id="Layer_1" xmlns="http://www.w3.org/2000/svg" xmlns:xlink="http://www.w3.org/1999/xlink" x="0px" y="0px"
	 viewBox="0 0 500 500" style="enable-background:new 0 0 500 500;" xml:space="preserve">
<style type="text/css">
	.st0{fill:#F39C26;}
</style>
<g>
	<g>
		<g>
			<path class="st0" d="M286.5,150.87h-12.98c-1.43,0-2.61,1.17-2.61,2.61v12.98c0,1.43,1.17,2.61,2.61,2.61h12.98
				c1.43,0,2.61-1.17,2.61-2.61v-12.98C289.11,152.04,287.93,150.87,286.5,150.87z"/>
			<path class="st0" d="M286.5,130.86h-12.98c-1.43,0-2.61,1.17-2.61,2.61v12.98c0,1.43,1.17,2.61,2.61,2.61h12.98
				c1.43,0,2.61-1.17,2.61-2.61v-12.98C289.11,132.03,287.93,130.86,286.5,130.86z"/>
			<path class="st0" d="M266.49,130.86h-12.98c-1.43,0-2.61,1.17-2.61,2.61v12.98c0,1.43,1.17,2.61,2.61,2.61h12.98
				c1.43,0,2.61-1.17,2.61-2.61v-12.98C269.1,132.03,267.93,130.86,266.49,130.86z"/>
			<path class="st0" d="M306.51,130.86h-12.98c-1.43,0-2.61,1.17-2.61,2.61v12.98c0,1.43,1.17,2.61,2.61,2.61h12.98
				c1.43,0,2.61-1.17,2.61-2.61v-12.98C309.12,132.03,307.94,130.86,306.51,130.86z"/>
		</g>
		<g>
			<path class="st0" d="M126.44,210.89h-12.98c-1.43,0-2.61,1.17-2.61,2.61v12.98c0,1.43,1.17,2.61,2.61,2.61h12.98
				c1.43,0,2.61-1.17,2.61-2.61V213.5C129.04,212.07,127.87,210.89,126.44,210.89z"/>
			<path class="st0" d="M133.47,229.08h12.98c1.43,0,2.61-1.17,2.61-2.61V213.5c0-1.43-1.17-2.61-2.61-2.61h-12.98
				c-1.43,0-2.61,1.17-2.61,2.61v12.98C130.86,227.91,132.03,229.08,133.47,229.08z"/>
			<path class="st0" d="M166.45,210.89h-12.98c-1.43,0-2.61,1.17-2.61,2.61v12.98c0,1.43,0,2.61,0,2.61c0,0,1.17,0,2.61,0h12.98
				c1.43,0,2.61,0,2.61,0s0-1.17,0-2.61V213.5C169.06,212.07,167.88,210.89,166.45,210.89z"/>
			<path class="st0" d="M126.44,230.9h-12.98c-1.43,0-2.61,1.17-2.61,2.61v12.98c0,1.43,1.17,2.61,2.61,2.61h12.98
				c1.43,0,2.61-1.17,2.61-2.61v-12.98C129.04,232.07,127.87,230.9,126.44,230.9z"/>
			<path class="st0" d="M326.52,330.94h-12.98c-1.43,0-2.61,1.17-2.61,2.61v12.98c0,1.43,1.17,2.61,2.61,2.61h12.98
				c1.43,0,2.61-1.17,2.61-2.61v-12.98C329.12,332.11,327.95,330.94,326.52,330.94z"/>
			<path class="st0" d="M346.53,330.94h-12.98c-1.43,0-2.61,1.17-2.61,2.61v12.98c0,1.43,1.17,2.61,2.61,2.61h12.98
				c1.43,0,2.61-1.17,2.61-2.61v-12.98C349.13,332.11,347.96,330.94,346.53,330.94z"/>
			<path class="st0" d="M346.53,290.93h-12.98c-1.43,0-2.61,1.17-2.61,2.61v12.98c0,1.43,1.17,2.61,2.61,2.61h12.98
				c1.43,0,2.61-1.17,2.61-2.61v-12.98C349.13,292.1,347.96,290.93,346.53,290.93z"/>
			<path class="st0" d="M346.53,310.93h-12.98c-1.43,0-2.61,1.17-2.61,2.61v12.98c0,1.43,1.17,2.61,2.61,2.61h12.98
				c1.43,0,2.61-1.17,2.61-2.61v-12.98C349.13,312.11,347.96,310.93,346.53,310.93z"/>
			<path class="st0" d="M86.42,330.94H73.44c-1.43,0-2.61,1.17-2.61,2.61v12.98c0,1.43,1.17,2.61,2.61,2.61h12.98
				c1.43,0,2.61-1.17,2.61-2.61v-12.98C89.03,332.11,87.85,330.94,86.42,330.94z"/>
			<path class="st0" d="M106.43,330.94H93.45c-1.43,0-2.61,1.17-2.61,2.61v12.98c0,1.43,1.17,2.61,2.61,2.61h12.98
				c1.43,0,2.61-1.17,2.61-2.61v-12.98C109.03,332.11,107.86,330.94,106.43,330.94z"/>
			<path class="st0" d="M86.42,350.95H73.44c-1.43,0-2.61,1.17-2.61,2.61v12.98c0,1.43,1.17,2.61,2.61,2.61h12.98
				c1.43,0,2.61-1.17,2.61-2.61v-12.98C89.03,352.12,87.85,350.95,86.42,350.95z"/>
			<path class="st0" d="M106.43,350.95H93.45c-1.43,0-2.61,1.17-2.61,2.61v12.98c0,1.43,1.17,2.61,2.61,2.61h12.98
				c1.43,0,2.61-1.17,2.61-2.61v-12.98C109.03,352.12,107.86,350.95,106.43,350.95z"/>
			<path class="st0" d="M406.55,270.92h-12.98c-1.43,0-2.61,1.17-2.61,2.61v12.98c0,1.43,1.17,2.61,2.61,2.61h12.98
				c1.43,0,2.61-1.17,2.61-2.61v-12.98C409.16,272.09,407.98,270.92,406.55,270.92z"/>
			<path class="st0" d="M406.55,290.93h-12.98c-1.43,0-2.61,1.17-2.61,2.61v12.98c0,1.43,1.17,2.61,2.61,2.61h12.98
				c1.43,0,2.61-1.17,2.61-2.61v-12.98C409.16,292.1,407.98,290.93,406.55,290.93z"/>
			<path class="st0" d="M426.56,290.93h-12.98c-1.43,0-2.61,1.17-2.61,2.61v12.98c0,1.43,1.17,2.61,2.61,2.61h12.98
				c1.43,0,2.61-1.17,2.61-2.61v-12.98C429.16,292.1,427.99,290.93,426.56,290.93z"/>
			<path class="st0" d="M426.56,310.93h-12.98c-1.43,0-2.61,1.17-2.61,2.61v12.98c0,1.43,1.17,2.61,2.61,2.61h12.98
				c1.43,0,2.61-1.17,2.61-2.61v-12.98C429.16,312.11,427.99,310.93,426.56,310.93z"/>
			<path class="st0" d="M126.44,270.92h-12.98c-1.43,0-2.61,1.17-2.61,2.61v12.98c0,1.43,1.17,2.61,2.61,2.61h12.98
				c1.43,0,2.61-1.17,2.61-2.61v-12.98C129.04,272.09,127.87,270.92,126.44,270.92z"/>
			<path class="st0" d="M126.44,290.93h-12.98c-1.43,0-2.61,1.17-2.61,2.61v12.98c0,1.43,1.17,2.61,2.61,2.61h12.98
				c1.43,0,2.61-1.17,2.61-2.61v-12.98C129.04,292.1,127.87,290.93,126.44,290.93z"/>
			<path class="st0" d="M106.43,290.93H93.45c-1.43,0-2.61,1.17-2.61,2.61v12.98c0,1.43,1.17,2.61,2.61,2.61h12.98
				c1.43,0,2.61-1.17,2.61-2.61v-12.98C109.03,292.1,107.86,290.93,106.43,290.93z"/>
			<path class="st0" d="M106.43,310.93H93.45c-1.43,0-2.61,1.17-2.61,2.61v12.98c0,1.43,1.17,2.61,2.61,2.61h12.98
				c1.43,0,2.61-1.17,2.61-2.61v-12.98C109.03,312.11,107.86,310.93,106.43,310.93z"/>
			<path class="st0" d="M173.48,229.08h12.98c1.43,0,2.61-1.17,2.61-2.61V213.5c0-1.43-1.17-2.61-2.61-2.61h-12.98
				c-1.43,0-2.61,1.17-2.61,2.61v12.98C170.88,227.91,172.05,229.08,173.48,229.08z"/>
			<path class="st0" d="M166.45,190.88h-12.98c-1.43,0-2.61,1.17-2.61,2.61v12.98c0,1.43,1.17,2.61,2.61,2.61h12.98
				c1.43,0,2.61-1.17,2.61-2.61v-12.98C169.06,192.06,167.88,190.88,166.45,190.88z"/>
			<path class="st0" d="M133.47,209.07h12.98c1.43,0,2.61-1.17,2.61-2.61v-12.98c0-1.43-1.17-2.61-2.61-2.61h-12.98
				c-1.43,0-2.61,1.17-2.61,2.61v12.98C130.86,207.9,132.03,209.07,133.47,209.07z"/>
			<path class="st0" d="M173.48,209.07h12.98c1.43,0,2.61-1.17,2.61-2.61v-12.98c0-1.43-1.17-2.61-2.61-2.61h-12.98
				c-1.43,0-2.61,1.17-2.61,2.61v12.98C170.88,207.9,172.05,209.07,173.48,209.07z"/>
			<path class="st0" d="M366.53,330.94h-12.98c-1.43,0-2.61,1.17-2.61,2.61v12.98c0,1.43,1.17,2.61,2.61,2.61h12.98
				c1.43,0,2.61-1.17,2.61-2.61v-12.98C369.14,332.11,367.97,330.94,366.53,330.94z"/>
			<path class="st0" d="M366.53,350.95h-12.98c-1.43,0-2.61,1.17-2.61,2.61v12.98c0,1.43,1.17,2.61,2.61,2.61h12.98
				c1.43,0,2.61-1.17,2.61-2.61v-12.98C369.14,352.12,367.97,350.95,366.53,350.95z"/>
			<path class="st0" d="M346.53,350.95h-12.98c-1.43,0-2.61,1.17-2.61,2.61v12.98c0,1.43,1.17,2.61,2.61,2.61h12.98
				c1.43,0,2.61-1.17,2.61-2.61v-12.98C349.13,352.12,347.96,350.95,346.53,350.95z"/>
			<path class="st0" d="M386.54,330.94h-12.98c-1.43,0-2.61,1.17-2.61,2.61v12.98c0,1.43,1.17,2.61,2.61,2.61h12.98
				c1.43,0,2.61-1.17,2.61-2.61v-12.98C389.15,332.11,387.98,330.94,386.54,330.94z"/>
			<path class="st0" d="M206.47,330.94h-12.98c-1.43,0-2.61,1.17-2.61,2.61v12.98c0,1.43,1.17,2.61,2.61,2.61h12.98
				c1.43,0,2.61-1.17,2.61-2.61v-12.98C209.07,332.11,207.9,330.94,206.47,330.94z"/>
			<path class="st0" d="M206.47,310.93h-12.98c-1.43,0-2.61,1.17-2.61,2.61v12.98c0,1.43,1.17,2.61,2.61,2.61h12.98
				c1.43,0,2.61-1.17,2.61-2.61v-12.98C209.07,312.11,207.9,310.93,206.47,310.93z"/>
			<path class="st0" d="M173.48,329.12h12.98c1.43,0,2.61-1.17,2.61-2.61v-12.98c0-1.43-1.17-2.61-2.61-2.61h-12.98
				c-1.43,0-2.61,1.17-2.61,2.61v12.98C170.88,327.95,172.05,329.12,173.48,329.12z"/>
			<path class="st0" d="M226.48,330.94H213.5c-1.43,0-2.61,1.17-2.61,2.61v12.98c0,1.43,1.17,2.61,2.61,2.61h12.98
				c1.43,0,2.61-1.17,2.61-2.61v-12.98C229.08,332.11,227.91,330.94,226.48,330.94z"/>
			<path class="st0" d="M406.55,350.95h-12.98c-1.43,0-2.61,1.17-2.61,2.61v12.98c0,1.43,1.17,2.61,2.61,2.61h12.98
				c1.43,0,2.61-1.17,2.61-2.61v-12.98C409.16,352.12,407.98,350.95,406.55,350.95z"/>
			<path class="st0" d="M386.54,350.95h-12.98c-1.43,0-2.61,1.17-2.61,2.61v12.98c0,1.43,1.17,2.61,2.61,2.61h12.98
				c1.43,0,2.61-1.17,2.61-2.61v-12.98C389.15,352.12,387.98,350.95,386.54,350.95z"/>
			<path class="st0" d="M406.55,330.94h-12.98c-1.43,0-2.61,1.17-2.61,2.61v12.98c0,1.43,1.17,2.61,2.61,2.61h12.98
				c1.43,0,2.61-1.17,2.61-2.61v-12.98C409.16,332.11,407.98,330.94,406.55,330.94z"/>
			<path class="st0" d="M406.55,310.93h-12.98c-1.43,0-2.61,1.17-2.61,2.61v12.98c0,1.43,1.17,2.61,2.61,2.61h12.98
				c1.43,0,2.61-1.17,2.61-2.61v-12.98C409.16,312.11,407.98,310.93,406.55,310.93z"/>
			<path class="st0" d="M266.49,330.94h-12.98c-1.43,0-2.61,1.17-2.61,2.61v12.98c0,1.43,1.17,2.61,2.61,2.61h12.98
				c1.43,0,2.61-1.17,2.61-2.61v-12.98C269.1,332.11,267.93,330.94,266.49,330.94z"/>
			<path class="st0" d="M266.49,350.95h-12.98c-1.43,0-2.61,1.17-2.61,2.61v12.98c0,1.43,1.17,2.61,2.61,2.61h12.98
				c1.43,0,2.61-1.17,2.61-2.61v-12.98C269.1,352.12,267.93,350.95,266.49,350.95z"/>
			<path class="st0" d="M246.48,350.95h-12.98c-1.43,0-2.61,1.17-2.61,2.61v12.98c0,1.43,1.17,2.61,2.61,2.61h12.98
				c1.43,0,2.61-1.17,2.61-2.61v-12.98C249.09,352.12,247.92,350.95,246.48,350.95z"/>
			<path class="st0" d="M286.5,350.95h-12.98c-1.43,0-2.61,1.17-2.61,2.61v12.98c0,1.43,1.17,2.61,2.61,2.61h12.98
				c1.43,0,2.61-1.17,2.61-2.61v-12.98C289.11,352.12,287.93,350.95,286.5,350.95z"/>
			<path class="st0" d="M133.47,309.12h12.98c1.43,0,2.61-1.17,2.61-2.61v-12.98c0-1.43-1.17-2.61-2.61-2.61h-12.98
				c-1.43,0-2.61,1.17-2.61,2.61v12.98C130.86,307.94,132.03,309.12,133.47,309.12z"/>
			<path class="st0" d="M133.47,289.11h12.98c1.43,0,2.61-1.17,2.61-2.61v-12.98c0-1.43-1.17-2.61-2.61-2.61h-12.98
				c-1.43,0-2.61,1.17-2.61,2.61v12.98C130.86,287.93,132.03,289.11,133.47,289.11z"/>
			<path class="st0" d="M133.47,269.1h12.98c1.43,0,2.61-1.17,2.61-2.61v-12.98c0-1.43-1.17-2.61-2.61-2.61h-12.98
				c-1.43,0-2.61,1.17-2.61,2.61v12.98C130.86,267.93,132.03,269.1,133.47,269.1z"/>
			<path class="st0" d="M166.45,270.92h-12.98c-1.43,0-2.61,1.17-2.61,2.61v12.98c0,1.43,1.17,2.61,2.61,2.61h12.98
				c1.43,0,2.61-1.17,2.61-2.61v-12.98C169.06,272.09,167.88,270.92,166.45,270.92z"/>
			<path class="st0" d="M426.56,270.92h-12.98c-1.43,0-2.61,1.17-2.61,2.61v12.98c0,1.43,1.17,2.61,2.61,2.61h12.98
				c1.43,0,2.61-1.17,2.61-2.61v-12.98C429.16,272.09,427.99,270.92,426.56,270.92z"/>
			<path class="st0" d="M426.56,250.91h-12.98c-1.43,0-2.61,1.17-2.61,2.61v12.98c0,1.43,1.17,2.61,2.61,2.61h12.98
				c1.43,0,2.61-1.17,2.61-2.61v-12.98C429.16,252.08,427.99,250.91,426.56,250.91z"/>
			<path class="st0" d="M426.56,230.9h-12.98c-1.43,0-2.61,1.17-2.61,2.61v12.98c0,1.43,1.17,2.61,2.61,2.61h12.98
				c1.43,0,2.61-1.17,2.61-2.61v-12.98C429.16,232.07,427.99,230.9,426.56,230.9z"/>
			<path class="st0" d="M406.55,250.91h-12.98c-1.43,0-2.61,1.17-2.61,2.61v12.98c0,1.43,1.17,2.61,2.61,2.61h12.98
				c1.43,0,2.61-1.17,2.61-2.61v-12.98C409.16,252.08,407.98,250.91,406.55,250.91z"/>
			<path class="st0" d="M326.52,350.95h-12.98c-1.43,0-2.61,1.17-2.61,2.61v12.98c0,1.43,1.17,2.61,2.61,2.61h12.98
				c1.43,0,2.61-1.17,2.61-2.61v-12.98C329.12,352.12,327.95,350.95,326.52,350.95z"/>
			<path class="st0" d="M306.51,350.95h-12.98c-1.43,0-2.61,1.17-2.61,2.61v12.98c0,1.43,1.17,2.61,2.61,2.61h12.98
				c1.43,0,2.61-1.17,2.61-2.61v-12.98C309.12,352.12,307.94,350.95,306.51,350.95z"/>
			<path class="st0" d="M306.51,330.94h-12.98c-1.43,0-2.61,1.17-2.61,2.61v12.98c0,1.43,1.17,2.61,2.61,2.61h12.98
				c1.43,0,2.61-1.17,2.61-2.61v-12.98C309.12,332.11,307.94,330.94,306.51,330.94z"/>
			<path class="st0" d="M293.53,329.12h12.98c1.43,0,2.61-1.17,2.61-2.61v-12.98c0-1.43-1.17-2.61-2.61-2.61h-12.98
				c-1.43,0-2.61,1.17-2.61,2.61v12.98C290.93,327.95,292.1,329.12,293.53,329.12z"/>
			<path class="st0" d="M166.45,350.95h-12.98c-1.43,0-2.61,1.17-2.61,2.61v12.98c0,1.43,1.17,2.61,2.61,2.61h12.98
				c1.43,0,2.61-1.17,2.61-2.61v-12.98C169.06,352.12,167.88,350.95,166.45,350.95z"/>
			<path class="st0" d="M146.44,350.95h-12.98c-1.43,0-2.61,1.17-2.61,2.61v12.98c0,1.43,1.17,2.61,2.61,2.61h12.98
				c1.43,0,2.61-1.17,2.61-2.61v-12.98C149.05,352.12,147.88,350.95,146.44,350.95z"/>
			<path class="st0" d="M133.47,349.13h12.98c1.43,0,2.61-1.17,2.61-2.61v-12.98c0-1.43-1.17-2.61-2.61-2.61h-12.98
				c-1.43,0-2.61,1.17-2.61,2.61v12.98C130.86,347.96,132.03,349.13,133.47,349.13z"/>
			<path class="st0" d="M366.53,310.93h-12.98c-1.43,0-2.61,1.17-2.61,2.61v12.98c0,1.43,1.17,2.61,2.61,2.61h12.98
				c1.43,0,2.61-1.17,2.61-2.61v-12.98C369.14,312.11,367.97,310.93,366.53,310.93z"/>
			<path class="st0" d="M386.54,310.93h-12.98c-1.43,0-2.61,1.17-2.61,2.61v12.98c0,1.43,1.17,2.61,2.61,2.61h12.98
				c1.43,0,2.61-1.17,2.61-2.61v-12.98C389.15,312.11,387.98,310.93,386.54,310.93z"/>
			<path class="st0" d="M386.54,290.93h-12.98c-1.43,0-2.61,1.17-2.61,2.61v12.98c0,1.43,1.17,2.61,2.61,2.61h12.98
				c1.43,0,2.61-1.17,2.61-2.61v-12.98C389.15,292.1,387.98,290.93,386.54,290.93z"/>
			<path class="st0" d="M206.47,270.92h-12.98c-1.43,0-2.61,1.17-2.61,2.61v12.98c0,1.43,1.17,2.61,2.61,2.61h12.98
				c1.43,0,2.61-1.17,2.61-2.61v-12.98C209.07,272.09,207.9,270.92,206.47,270.92z"/>
			<path class="st0" d="M213.5,289.11h12.98c1.43,0,2.61-1.17,2.61-2.61v-12.98c0-1.43-1.17-2.61-2.61-2.61H213.5
				c-1.43,0-2.61,1.17-2.61,2.61v12.98C210.89,287.93,212.07,289.11,213.5,289.11z"/>
			<path class="st0" d="M106.43,250.91H93.45c-1.43,0-2.61,1.17-2.61,2.61v12.98c0,1.43,1.17,2.61,2.61,2.61h12.98
				c1.43,0,2.61-1.17,2.61-2.61v-12.98C109.03,252.08,107.86,250.91,106.43,250.91z"/>
			<path class="st0" d="M106.43,270.92H93.45c-1.43,0-2.61,1.17-2.61,2.61v12.98c0,1.43,1.17,2.61,2.61,2.61h12.98
				c1.43,0,2.61-1.17,2.61-2.61v-12.98C109.03,272.09,107.86,270.92,106.43,270.92z"/>
			<path class="st0" d="M126.44,250.91h-12.98c-1.43,0-2.61,1.17-2.61,2.61v12.98c0,1.43,1.17,2.61,2.61,2.61h12.98
				c1.43,0,2.61-1.17,2.61-2.61v-12.98C129.04,252.08,127.87,250.91,126.44,250.91z"/>
			<path class="st0" d="M213.5,329.12h12.98c1.43,0,2.61-1.17,2.61-2.61v-12.98c0-1.43-1.17-2.61-2.61-2.61H213.5
				c-1.43,0-2.61,1.17-2.61,2.61v12.98C210.89,327.95,212.07,329.12,213.5,329.12z"/>
			<path class="st0" d="M246.48,330.94h-12.98c-1.43,0-2.61,1.17-2.61,2.61v12.98c0,1.43,1.17,2.61,2.61,2.61h12.98
				c1.43,0,2.61-1.17,2.61-2.61v-12.98C249.09,332.11,247.92,330.94,246.48,330.94z"/>
			<path class="st0" d="M246.48,310.93h-12.98c-1.43,0-2.61,1.17-2.61,2.61v12.98c0,1.43,1.17,2.61,2.61,2.61h12.98
				c1.43,0,2.61-1.17,2.61-2.61v-12.98C249.09,312.11,247.92,310.93,246.48,310.93z"/>
			<path class="st0" d="M426.56,350.95h-12.98c-1.43,0-2.61,1.17-2.61,2.61v12.98c0,1.43,1.17,2.61,2.61,2.61h12.98
				c1.43,0,2.61-1.17,2.61-2.61v-12.98C429.16,352.12,427.99,350.95,426.56,350.95z"/>
			<path class="st0" d="M426.56,330.94h-12.98c-1.43,0-2.61,1.17-2.61,2.61v12.98c0,1.43,1.17,2.61,2.61,2.61h12.98
				c1.43,0,2.61-1.17,2.61-2.61v-12.98C429.16,332.11,427.99,330.94,426.56,330.94z"/>
			<path class="st0" d="M286.5,330.94h-12.98c-1.43,0-2.61,1.17-2.61,2.61v12.98c0,1.43,1.17,2.61,2.61,2.61h12.98
				c1.43,0,2.61-1.17,2.61-2.61v-12.98C289.11,332.11,287.93,330.94,286.5,330.94z"/>
			<path class="st0" d="M166.45,330.94h-12.98c-1.43,0-2.61,1.17-2.61,2.61v12.98c0,1.43,1.17,2.61,2.61,2.61h12.98
				c1.43,0,2.61-1.17,2.61-2.61v-12.98C169.06,332.11,167.88,330.94,166.45,330.94z"/>
			<path class="st0" d="M166.45,310.93h-12.98c-1.43,0-2.61,1.17-2.61,2.61v12.98c0,1.43,1.17,2.61,2.61,2.61h12.98
				c1.43,0,2.61-1.17,2.61-2.61v-12.98C169.06,312.11,167.88,310.93,166.45,310.93z"/>
			<path class="st0" d="M166.45,290.93h-12.98c-1.43,0-2.61,1.17-2.61,2.61v12.98c0,1.43,1.17,2.61,2.61,2.61h12.98
				c1.43,0,2.61-1.17,2.61-2.61v-12.98C169.06,292.1,167.88,290.93,166.45,290.93z"/>
			<path class="st0" d="M133.47,249.09h12.98c1.43,0,2.61-1.17,2.61-2.61v-12.98c0-1.43-1.17-2.61-2.61-2.61h-12.98
				c-1.43,0-2.61,1.17-2.61,2.61v12.98C130.86,247.92,132.03,249.09,133.47,249.09z"/>
			<path class="st0" d="M166.45,230.9h-12.98c-1.43,0-2.61,1.17-2.61,2.61v12.98c0,1.43,1.17,2.61,2.61,2.61h12.98
				c1.43,0,2.61-1.17,2.61-2.61v-12.98C169.06,232.07,167.88,230.9,166.45,230.9z"/>
			<path class="st0" d="M173.48,249.09h12.98c1.43,0,2.61-1.17,2.61-2.61v-12.98c0-1.43-1.17-2.61-2.61-2.61h-12.98
				c-1.43,0-2.61,1.17-2.61,2.61v12.98C170.88,247.92,172.05,249.09,173.48,249.09z"/>
			<path class="st0" d="M246.48,270.92h-12.98c-1.43,0-2.61,1.17-2.61,2.61v12.98c0,1.43,1.17,2.61,2.61,2.61h12.98
				c1.43,0,2.61-1.17,2.61-2.61v-12.98C249.09,272.09,247.92,270.92,246.48,270.92z"/>
			<path class="st0" d="M206.47,290.93h-12.98c-1.43,0-2.61,1.17-2.61,2.61v12.98c0,1.43,1.17,2.61,2.61,2.61h12.98
				c1.43,0,2.61-1.17,2.61-2.61v-12.98C209.07,292.1,207.9,290.93,206.47,290.93z"/>
			<path class="st0" d="M213.5,309.12h12.98c1.43,0,2.61-1.17,2.61-2.61v-12.98c0-1.43-1.17-2.61-2.61-2.61H213.5
				c-1.43,0-2.61,1.17-2.61,2.61v12.98C210.89,307.94,212.07,309.12,213.5,309.12z"/>
			<path class="st0" d="M246.48,290.93h-12.98c-1.43,0-2.61,1.17-2.61,2.61v12.98c0,1.43,1.17,2.61,2.61,2.61h12.98
				c1.43,0,2.61-1.17,2.61-2.61v-12.98C249.09,292.1,247.92,290.93,246.48,290.93z"/>
			<path class="st0" d="M173.48,349.13h12.98c1.43,0,2.61-1.17,2.61-2.61v-12.98c0-1.43-1.17-2.61-2.61-2.61h-12.98
				c-1.43,0-2.61,1.17-2.61,2.61v12.98C170.88,347.96,172.05,349.13,173.48,349.13z"/>
			<path class="st0" d="M186.46,350.95h-12.98c-1.43,0-2.61,1.17-2.61,2.61v12.98c0,1.43,1.17,2.61,2.61,2.61h12.98
				c1.43,0,2.61-1.17,2.61-2.61v-12.98C189.07,352.12,187.89,350.95,186.46,350.95z"/>
			<path class="st0" d="M206.47,350.95h-12.98c-1.43,0-2.61,1.17-2.61,2.61v12.98c0,1.43,1.17,2.61,2.61,2.61h12.98
				c1.43,0,2.61-1.17,2.61-2.61v-12.98C209.07,352.12,207.9,350.95,206.47,350.95z"/>
			<path class="st0" d="M226.48,350.95H213.5c-1.43,0-2.61,1.17-2.61,2.61v12.98c0,1.43,1.17,2.61,2.61,2.61h12.98
				c1.43,0,2.61-1.17,2.61-2.61v-12.98C229.08,352.12,227.91,350.95,226.48,350.95z"/>
			<path class="st0" d="M126.44,310.93h-12.98c-1.43,0-2.61,1.17-2.61,2.61v12.98c0,1.43,1.17,2.61,2.61,2.61h12.98
				c1.43,0,2.61-1.17,2.61-2.61v-12.98C129.04,312.11,127.87,310.93,126.44,310.93z"/>
			<path class="st0" d="M126.44,330.94h-12.98c-1.43,0-2.61,1.17-2.61,2.61v12.98c0,1.43,1.17,2.61,2.61,2.61h12.98
				c1.43,0,2.61-1.17,2.61-2.61v-12.98C129.04,332.11,127.87,330.94,126.44,330.94z"/>
			<path class="st0" d="M126.44,350.95h-12.98c-1.43,0-2.61,1.17-2.61,2.61v12.98c0,1.43,1.17,2.61,2.61,2.61h12.98
				c1.43,0,2.61-1.17,2.61-2.61v-12.98C129.04,352.12,127.87,350.95,126.44,350.95z"/>
			<path class="st0" d="M133.47,329.12h12.98c1.43,0,2.61-1.17,2.61-2.61v-12.98c0-1.43-1.17-2.61-2.61-2.61h-12.98
				c-1.43,0-2.61,1.17-2.61,2.61v12.98C130.86,327.95,132.03,329.12,133.47,329.12z"/>
			<path class="st0" d="M173.48,269.1h12.98c1.43,0,2.61-1.17,2.61-2.61v-12.98c0-1.43-1.17-2.61-2.61-2.61h-12.98
				c-1.43,0-2.61,1.17-2.61,2.61v12.98C170.88,267.93,172.05,269.1,173.48,269.1z"/>
			<path class="st0" d="M173.48,289.11h12.98c1.43,0,2.61-1.17,2.61-2.61v-12.98c0-1.43-1.17-2.61-2.61-2.61h-12.98
				c-1.43,0-2.61,1.17-2.61,2.61v12.98C170.88,287.93,172.05,289.11,173.48,289.11z"/>
			<path class="st0" d="M173.48,309.12h12.98c1.43,0,2.61-1.17,2.61-2.61v-12.98c0-1.43-1.17-2.61-2.61-2.61h-12.98
				c-1.43,0-2.61,1.17-2.61,2.61v12.98C170.88,307.94,172.05,309.12,173.48,309.12z"/>
			<path class="st0" d="M166.45,250.91h-12.98c-1.43,0-2.61,1.17-2.61,2.61v12.98c0,1.43,1.17,2.61,2.61,2.61h12.98
				c1.43,0,2.61-1.17,2.61-2.61v-12.98C169.06,252.08,167.88,250.91,166.45,250.91z"/>
		</g>
	</g>
</g>
</svg>
